<?xml version="1.0" encoding="utf-8"?>
<!-- Generator: Adobe Illustrator 24.0.2, SVG Export Plug-In . SVG Version: 6.00 Build 0)  -->
<svg version="1.1" id="Capa_1" xmlns="http://www.w3.org/2000/svg" xmlns:xlink="http://www.w3.org/1999/xlink" x="0px" y="0px"
	 viewBox="0 0 335 365" style="enable-background:new 0 0 335 365;" xml:space="preserve">
<style type="text/css">
	.st0{fill:#F4F3FF;}
	.st1{fill:#EDEBFF;}
	.st2{fill:#566865;}
	.st3{fill:#D69D66;}
	.st4{fill:#FFFFFF;}
	.st5{fill:#3D6D79;}
	.st6{fill:none;}
</style>
<g id="Capa_1_1_">
	<g>
		<path class="st0" d="M0,20C0,9,9,0,20,0h295c11,0,20,9,20,20v325c0,11-9,20-20,20H20c-11,0-20-9-20-20V20z"/>
		<path class="st1" d="M189,302h107c5.5,0,10,4.5,10,10v15c0,5.5-4.5,10-10,10H189c-5.5,0-10-4.5-10-10v-15
			C179,306.5,183.5,302,189,302z"/>
		<path class="st2" d="M208.1,326.2c-0.9,0-1.8-0.2-2.6-0.5c-0.8-0.3-1.4-0.8-2-1.4c-0.6-0.6-1-1.3-1.3-2c-0.3-0.8-0.5-1.6-0.5-2.5
			c0-0.9,0.2-1.7,0.5-2.5c0.3-0.8,0.8-1.5,1.4-2c0.6-0.6,1.3-1,2-1.3c0.8-0.3,1.6-0.5,2.5-0.5c0.6,0,1.1,0.1,1.7,0.2
			c0.5,0.1,1,0.4,1.5,0.6c0.5,0.3,0.9,0.6,1.3,1c0.4,0.4,0.7,0.8,1,1.3l-1.6,1c-0.4-0.7-0.9-1.3-1.6-1.7c-0.7-0.4-1.4-0.6-2.3-0.6
			c-0.6,0-1.2,0.1-1.8,0.4c-0.5,0.2-1,0.6-1.4,1c-0.4,0.4-0.7,0.9-0.9,1.5c-0.2,0.6-0.3,1.1-0.3,1.8s0.1,1.2,0.3,1.8
			c0.2,0.5,0.5,1,0.9,1.4c0.4,0.4,0.9,0.7,1.4,1c0.6,0.2,1.2,0.4,1.8,0.4c1,0,1.8-0.2,2.4-0.7c0.7-0.5,1.2-1.1,1.6-1.8l1.7,0.9
			c-0.3,0.5-0.6,1-1,1.4c-0.4,0.4-0.8,0.8-1.3,1.1c-0.5,0.3-1,0.5-1.6,0.7C209.4,326.1,208.8,326.2,208.1,326.2z M218.3,326.2
			c-0.5,0-1-0.1-1.4-0.2c-0.4-0.1-0.7-0.3-1-0.6c-0.3-0.2-0.5-0.5-0.6-0.9c-0.1-0.3-0.2-0.7-0.2-1.1c0-1,0.4-1.7,1.1-2.2
			c0.7-0.5,1.8-0.8,3-0.8h2.7v-0.2c0-0.6-0.2-1.1-0.6-1.5c-0.4-0.4-1-0.6-1.8-0.6c-0.6,0-1.1,0.1-1.6,0.4c-0.4,0.3-0.8,0.6-1.1,1.1
			l-1.6-1c0.5-0.6,1-1.1,1.7-1.5c0.7-0.4,1.6-0.6,2.6-0.6c0.7,0,1.2,0.1,1.8,0.3c0.5,0.2,1,0.4,1.3,0.7c0.4,0.3,0.6,0.7,0.8,1.2
			c0.2,0.5,0.3,1,0.3,1.5v5.7h-1.8v-1.6c-0.4,0.5-0.9,1-1.5,1.3S219.1,326.2,218.3,326.2z M218.7,324.6c0.3,0,0.7,0,1-0.1
			c0.3-0.1,0.6-0.2,0.9-0.4c0.3-0.2,0.5-0.4,0.8-0.6c0.2-0.2,0.4-0.5,0.6-0.8v-0.8h-2.6c-0.9,0-1.5,0.1-1.8,0.4
			c-0.4,0.2-0.5,0.6-0.5,1.1c0,0.4,0.1,0.7,0.4,0.9C217.7,324.5,218.1,324.6,218.7,324.6z M225.8,316.8h1.8v1.3
			c0.3-0.4,0.7-0.8,1.2-1.1c0.5-0.3,1.1-0.4,1.7-0.4c0.6,0,1.1,0.1,1.6,0.3c0.5,0.2,0.9,0.4,1.2,0.8c0.3,0.3,0.6,0.8,0.7,1.3
			c0.2,0.5,0.3,1.1,0.3,1.7v5.3h-1.9v-5.2c0-0.8-0.2-1.4-0.6-1.9c-0.4-0.5-1-0.7-1.8-0.7c-0.4,0-0.7,0.1-1,0.2
			c-0.3,0.1-0.6,0.3-0.8,0.5c-0.2,0.2-0.4,0.5-0.5,0.9c-0.1,0.3-0.2,0.7-0.2,1.1v5.1h-1.8L225.8,316.8L225.8,316.8z M240.8,326.2
			c-0.7,0-1.3-0.1-1.9-0.4c-0.6-0.2-1.1-0.6-1.5-1c-0.4-0.4-0.8-0.9-1-1.5c-0.2-0.6-0.4-1.2-0.4-1.9c0-0.7,0.1-1.3,0.4-1.9
			c0.2-0.6,0.6-1.1,1-1.5c0.4-0.4,0.9-0.8,1.5-1c0.6-0.2,1.2-0.4,1.9-0.4c0.5,0,1,0.1,1.4,0.2c0.5,0.1,0.9,0.3,1.2,0.6
			c0.4,0.2,0.7,0.5,1,0.9c0.3,0.3,0.5,0.7,0.7,1.1l-1.6,0.7c-0.2-0.6-0.6-1-1.1-1.3c-0.5-0.3-1-0.5-1.6-0.5c-0.4,0-0.8,0.1-1.2,0.2
			s-0.7,0.4-1,0.7c-0.3,0.3-0.5,0.6-0.6,1c-0.1,0.4-0.2,0.8-0.2,1.2s0.1,0.8,0.2,1.2c0.2,0.4,0.4,0.7,0.6,1c0.3,0.3,0.6,0.5,1,0.6
			c0.4,0.2,0.8,0.2,1.2,0.2c0.7,0,1.2-0.2,1.7-0.5c0.5-0.4,0.8-0.8,1-1.3l1.7,0.7c-0.4,0.9-0.9,1.5-1.7,2.1
			C242.8,325.9,241.9,326.2,240.8,326.2z M251.2,326.2c-0.7,0-1.4-0.1-2-0.4c-0.6-0.2-1.1-0.6-1.5-1c-0.4-0.4-0.8-0.9-1-1.5
			c-0.2-0.6-0.3-1.2-0.3-1.9c0-0.7,0.1-1.3,0.4-1.9c0.3-0.6,0.6-1.1,1-1.5c0.4-0.4,0.9-0.8,1.5-1s1.2-0.4,1.9-0.4
			c0.7,0,1.3,0.1,1.9,0.4c0.6,0.2,1.1,0.5,1.5,1s0.7,0.9,1,1.5c0.2,0.6,0.4,1.2,0.4,1.9v0.8h-7.7c0.1,0.7,0.5,1.4,1,1.8
			c0.5,0.4,1.2,0.7,2.1,0.7c0.6,0,1.2-0.1,1.6-0.4c0.4-0.3,0.8-0.6,1.1-1.1l1.5,0.9c-0.4,0.7-1,1.2-1.7,1.6
			C253.1,326,252.2,326.2,251.2,326.2z M251.1,318.2c-0.7,0-1.4,0.2-1.9,0.6c-0.5,0.4-0.9,1-1.1,1.6h5.8c-0.1-0.7-0.5-1.3-1-1.7
			C252.5,318.4,251.9,318.2,251.1,318.2z M257.6,312.6h1.9V326h-1.9V312.6z M264.5,326.2c-0.5,0-1-0.1-1.4-0.2
			c-0.4-0.1-0.7-0.3-1-0.6c-0.3-0.2-0.5-0.5-0.6-0.9c-0.1-0.3-0.2-0.7-0.2-1.1c0-1,0.4-1.7,1.1-2.2c0.7-0.5,1.8-0.8,3-0.8h2.7v-0.2
			c0-0.6-0.2-1.1-0.6-1.5c-0.4-0.4-1-0.6-1.8-0.6c-0.6,0-1.1,0.1-1.6,0.4c-0.4,0.3-0.8,0.6-1.1,1.1l-1.6-1c0.5-0.6,1-1.1,1.7-1.5
			c0.7-0.4,1.6-0.6,2.5-0.6c0.7,0,1.2,0.1,1.8,0.3c0.5,0.2,1,0.4,1.3,0.7c0.4,0.3,0.6,0.7,0.8,1.2c0.2,0.5,0.3,1,0.3,1.5v5.7h-1.8
			v-1.6c-0.4,0.5-0.9,1-1.5,1.3C265.9,326,265.2,326.2,264.5,326.2z M264.9,324.6c0.3,0,0.7,0,1-0.1s0.6-0.2,0.9-0.4
			c0.3-0.2,0.5-0.4,0.8-0.6c0.2-0.2,0.4-0.5,0.6-0.8v-0.8h-2.6c-0.9,0-1.5,0.1-1.8,0.4c-0.4,0.2-0.5,0.6-0.5,1.1
			c0,0.4,0.1,0.7,0.4,0.9C263.8,324.5,264.2,324.6,264.9,324.6z M271.9,316.8h1.8v1.6c0.2-0.6,0.5-1,1-1.3c0.4-0.3,1-0.4,1.5-0.4
			c0.3,0,0.6,0,0.9,0.1c0.3,0.1,0.5,0.1,0.7,0.3l-0.7,1.8c-0.3-0.2-0.7-0.3-1.2-0.3c-0.7,0-1.2,0.2-1.6,0.5s-0.6,0.9-0.6,1.8v5.2
			h-1.8L271.9,316.8L271.9,316.8z"/>
		<path class="st3" d="M32,302h117c5.5,0,10,4.5,10,10v15c0,5.5-4.5,10-10,10H32c-5.5,0-10-4.5-10-10v-15C22,306.5,26.5,302,32,302z
			"/>
		<path class="st4" d="M63.5,326.2c-0.9,0-1.8-0.2-2.6-0.5c-0.8-0.3-1.5-0.8-2-1.4c-0.6-0.6-1-1.3-1.3-2c-0.3-0.8-0.5-1.6-0.5-2.5
			c0-0.9,0.2-1.7,0.5-2.5c0.3-0.8,0.8-1.5,1.3-2c0.6-0.6,1.2-1,2-1.4c0.8-0.3,1.7-0.5,2.6-0.5c1.2,0,2.2,0.2,3.1,0.7
			c0.9,0.5,1.6,1.1,2.2,1.9l-1.6,1.1c-0.4-0.6-0.9-1.1-1.6-1.5c-0.6-0.4-1.3-0.5-2.2-0.5c-0.7,0-1.3,0.1-1.9,0.4
			c-0.6,0.2-1,0.6-1.4,1c-0.4,0.4-0.7,0.9-0.9,1.5c-0.2,0.6-0.3,1.1-0.3,1.8c0,0.6,0.1,1.2,0.3,1.8c0.2,0.6,0.5,1,1,1.5
			c0.4,0.4,0.9,0.7,1.4,1c0.6,0.2,1.2,0.4,1.9,0.4c0.6,0,1.1-0.1,1.6-0.3c0.5-0.2,0.9-0.4,1.2-0.7c0.4-0.3,0.7-0.7,0.9-1.1
			s0.4-0.9,0.5-1.4h-4.5v-1.8h6.4v0.7c0,0.8-0.1,1.6-0.4,2.4c-0.3,0.8-0.7,1.4-1.2,2c-0.5,0.6-1.2,1-1.9,1.4
			C65.3,326,64.5,326.2,63.5,326.2z M75.3,326.2c-1.2,0-2.2-0.4-2.8-1.1c-0.6-0.7-1-1.7-1-3v-5.3h1.9v5.2c0,0.8,0.2,1.4,0.6,1.9
			c0.4,0.5,1,0.7,1.8,0.7c0.3,0,0.7-0.1,1-0.2c0.3-0.1,0.6-0.3,0.8-0.5c0.2-0.2,0.4-0.5,0.5-0.9c0.1-0.3,0.2-0.7,0.2-1.1v-5.1H80
			v9.2h-1.8v-1.3c-0.3,0.4-0.7,0.8-1.2,1.1C76.5,326.1,75.9,326.2,75.3,326.2z M84.9,326.2c-0.5,0-1-0.1-1.4-0.2
			c-0.4-0.1-0.7-0.3-1-0.6c-0.3-0.2-0.5-0.5-0.6-0.9c-0.1-0.3-0.2-0.7-0.2-1.1c0-1,0.4-1.7,1.1-2.2c0.7-0.5,1.8-0.8,3-0.8h2.7v-0.2
			c0-0.6-0.2-1.1-0.6-1.5c-0.4-0.4-1-0.6-1.8-0.6c-0.6,0-1.1,0.1-1.6,0.4c-0.4,0.3-0.8,0.6-1.1,1.1l-1.6-1c0.5-0.6,1-1.1,1.7-1.5
			c0.7-0.4,1.6-0.6,2.5-0.6c0.7,0,1.2,0.1,1.8,0.3c0.5,0.2,1,0.4,1.3,0.7c0.4,0.3,0.6,0.7,0.8,1.2c0.2,0.5,0.3,1,0.3,1.5v5.7h-1.8
			v-1.6c-0.4,0.5-0.9,1-1.5,1.3C86.4,326,85.7,326.2,84.9,326.2z M85.3,324.6c0.3,0,0.7,0,1-0.1c0.3-0.1,0.6-0.2,0.9-0.4
			c0.3-0.2,0.5-0.4,0.8-0.6c0.2-0.2,0.4-0.5,0.6-0.8v-0.8h-2.6c-0.9,0-1.5,0.1-1.8,0.4c-0.4,0.2-0.5,0.6-0.5,1.1
			c0,0.4,0.1,0.7,0.4,0.9C84.3,324.5,84.7,324.6,85.3,324.6z M92.4,316.8h1.8v1.6c0.2-0.6,0.5-1,1-1.3c0.4-0.3,1-0.4,1.5-0.4
			c0.3,0,0.6,0,0.9,0.1c0.3,0.1,0.5,0.1,0.7,0.3l-0.7,1.8c-0.3-0.2-0.7-0.3-1.2-0.3c-0.7,0-1.2,0.2-1.6,0.5s-0.6,0.9-0.6,1.8v5.2
			h-1.8L92.4,316.8L92.4,316.8z M103.1,326.2c-0.6,0-1.2-0.1-1.7-0.3c-0.6-0.2-1-0.5-1.5-1c-0.4-0.4-0.8-0.9-1-1.5
			c-0.2-0.6-0.4-1.2-0.4-2c0-0.7,0.1-1.4,0.4-2c0.3-0.6,0.6-1.1,1-1.5c0.4-0.4,0.9-0.7,1.5-1c0.6-0.2,1.2-0.3,1.8-0.3
			s1.2,0.1,1.8,0.4c0.6,0.3,1,0.6,1.4,1.1v-5.5h1.8V326h-1.8v-1.3c-0.4,0.5-0.8,0.9-1.4,1.1C104.3,326.1,103.7,326.2,103.1,326.2z
			 M103.3,324.5c0.4,0,0.8-0.1,1.2-0.2c0.4-0.2,0.7-0.4,1-0.7c0.3-0.3,0.5-0.6,0.6-1c0.2-0.4,0.2-0.8,0.2-1.2c0-0.4-0.1-0.8-0.2-1.2
			c-0.1-0.4-0.4-0.7-0.6-1c-0.3-0.3-0.6-0.5-1-0.7c-0.4-0.2-0.8-0.3-1.2-0.3c-0.4,0-0.8,0.1-1.2,0.2c-0.4,0.2-0.7,0.4-1,0.7
			c-0.3,0.3-0.5,0.6-0.6,1c-0.1,0.4-0.2,0.8-0.2,1.2c0,0.4,0.1,0.8,0.2,1.2c0.2,0.4,0.4,0.7,0.6,1c0.3,0.3,0.6,0.5,1,0.7
			C102.5,324.4,102.9,324.5,103.3,324.5z M113,326.2c-0.5,0-1-0.1-1.4-0.2c-0.4-0.1-0.7-0.3-1-0.6c-0.3-0.2-0.5-0.5-0.6-0.9
			c-0.1-0.3-0.2-0.7-0.2-1.1c0-1,0.4-1.7,1.1-2.2c0.7-0.5,1.8-0.8,3-0.8h2.7v-0.2c0-0.6-0.2-1.1-0.6-1.5c-0.4-0.4-1-0.6-1.8-0.6
			c-0.6,0-1.1,0.1-1.6,0.4c-0.4,0.3-0.8,0.6-1.1,1.1l-1.6-1c0.5-0.6,1-1.1,1.7-1.5c0.7-0.4,1.6-0.6,2.6-0.6c0.7,0,1.2,0.1,1.8,0.3
			c0.5,0.2,1,0.4,1.3,0.7c0.4,0.3,0.6,0.7,0.8,1.2c0.2,0.5,0.3,1,0.3,1.5v5.7h-1.8v-1.6c-0.4,0.5-0.9,1-1.5,1.3
			C114.5,326,113.8,326.2,113,326.2z M113.4,324.6c0.3,0,0.7,0,1-0.1s0.6-0.2,0.9-0.4c0.3-0.2,0.5-0.4,0.8-0.6
			c0.2-0.2,0.4-0.5,0.6-0.8v-0.8H114c-0.9,0-1.5,0.1-1.8,0.4c-0.4,0.2-0.5,0.6-0.5,1.1c0,0.4,0.1,0.7,0.4,0.9
			C112.3,324.5,112.8,324.6,113.4,324.6z M120.4,316.8h1.8v1.6c0.2-0.6,0.5-1,1-1.3c0.4-0.3,1-0.4,1.5-0.4c0.3,0,0.6,0,0.9,0.1
			c0.3,0.1,0.5,0.1,0.7,0.3l-0.7,1.8c-0.3-0.2-0.7-0.3-1.2-0.3c-0.7,0-1.2,0.2-1.6,0.5c-0.4,0.4-0.6,0.9-0.6,1.8v5.2h-1.8
			L120.4,316.8L120.4,316.8z"/>
		<path class="st1" d="M35,96h239c5.5,0,10,4.5,10,10v15c0,5.5-4.5,10-10,10H35c-5.5,0-10-4.5-10-10v-15C25,100.5,29.5,96,35,96z"/>
		<path class="st1" d="M35,180h239c5.5,0,10,4.5,10,10v85c0,5.5-4.5,10-10,10H35c-5.5,0-10-4.5-10-10v-85C25,184.5,29.5,180,35,180z
			"/>
		<path class="st5" d="M26,67.1h2.3l4.8,7.5v-7.5h2V78H33l-5-7.7V78H26V67.1z M40.7,78.2c-0.6,0-1.2-0.1-1.7-0.3
			c-0.5-0.2-1-0.5-1.4-0.9c-0.4-0.4-0.7-0.8-0.9-1.4c-0.2-0.5-0.3-1.1-0.3-1.6s0.1-1.1,0.3-1.6c0.2-0.5,0.5-1,0.9-1.4
			c0.4-0.4,0.8-0.7,1.4-0.9s1.1-0.3,1.7-0.3c0.6,0,1.2,0.1,1.7,0.3c0.5,0.2,1,0.5,1.4,0.9c0.4,0.4,0.7,0.8,0.9,1.4
			c0.2,0.5,0.3,1.1,0.3,1.6s-0.1,1.1-0.3,1.6c-0.2,0.5-0.5,1-0.9,1.4c-0.4,0.4-0.8,0.7-1.4,0.9C41.9,78.1,41.3,78.2,40.7,78.2z
			 M40.7,76.2c0.3,0,0.6-0.1,0.9-0.2s0.5-0.3,0.7-0.5s0.4-0.4,0.5-0.7c0.1-0.3,0.2-0.6,0.2-0.9c0-0.3-0.1-0.6-0.2-0.9
			c-0.1-0.3-0.3-0.5-0.5-0.7c-0.2-0.2-0.4-0.4-0.7-0.5c-0.3-0.1-0.6-0.2-0.9-0.2s-0.6,0.1-0.9,0.2c-0.3,0.1-0.5,0.3-0.7,0.5
			s-0.4,0.4-0.5,0.7c-0.1,0.3-0.2,0.6-0.2,0.9c0,0.3,0.1,0.6,0.2,0.9c0.1,0.3,0.3,0.5,0.5,0.7s0.4,0.4,0.7,0.5
			C40.1,76.1,40.4,76.2,40.7,76.2z M46.4,69.9h2.1v1c0.3-0.4,0.6-0.6,0.9-0.8c0.4-0.2,0.8-0.3,1.3-0.3c0.6,0,1.1,0.1,1.5,0.4
			c0.4,0.2,0.7,0.6,0.9,1c0.3-0.4,0.6-0.8,1-1c0.4-0.3,0.9-0.4,1.5-0.4c1,0,1.8,0.3,2.3,0.9c0.5,0.6,0.8,1.4,0.8,2.4v5h-2.1v-4.7
			c0-0.6-0.1-1-0.4-1.3c-0.2-0.3-0.6-0.5-1.1-0.5c-0.5,0-0.8,0.2-1.1,0.5c-0.3,0.3-0.4,0.8-0.4,1.4V78h-2.1v-4.7
			c0-0.5-0.1-1-0.3-1.3s-0.6-0.4-1.1-0.4c-0.5,0-0.9,0.2-1.2,0.5c-0.3,0.3-0.4,0.8-0.4,1.5V78h-2.1L46.4,69.9L46.4,69.9z M65,78.2
			c-0.5,0-1-0.1-1.5-0.3c-0.5-0.2-0.8-0.6-1.1-1V78h-2V66.2h2.1V71c0.3-0.4,0.6-0.7,1.1-0.9c0.4-0.2,0.9-0.3,1.5-0.3
			c0.5,0,1,0.1,1.5,0.3c0.5,0.2,0.9,0.5,1.2,0.8c0.4,0.4,0.6,0.8,0.9,1.3c0.2,0.5,0.3,1.1,0.3,1.7c0,0.6-0.1,1.2-0.3,1.8
			c-0.2,0.5-0.5,0.9-0.9,1.3c-0.4,0.4-0.8,0.7-1.2,0.9C66,78.1,65.5,78.2,65,78.2z M64.6,76.2c0.3,0,0.6-0.1,0.9-0.2
			c0.3-0.1,0.5-0.3,0.7-0.5c0.2-0.2,0.4-0.4,0.5-0.7c0.1-0.3,0.2-0.6,0.2-0.9s-0.1-0.6-0.2-0.9c-0.1-0.3-0.3-0.5-0.5-0.7
			c-0.2-0.2-0.4-0.4-0.7-0.5s-0.6-0.2-0.9-0.2c-0.3,0-0.6,0.1-0.9,0.2c-0.3,0.1-0.5,0.3-0.7,0.5c-0.2,0.2-0.4,0.4-0.5,0.7
			c-0.1,0.3-0.2,0.6-0.2,0.9c0,0.3,0.1,0.6,0.2,0.9c0.1,0.3,0.3,0.5,0.5,0.7c0.2,0.2,0.4,0.4,0.7,0.5C63.9,76.2,64.2,76.2,64.6,76.2
			z M70.2,69.9h2v1.2c0.2-0.5,0.5-0.8,0.9-1.1c0.4-0.2,0.8-0.3,1.4-0.3c0.3,0,0.5,0,0.8,0.1c0.2,0.1,0.4,0.1,0.6,0.2l-0.8,2
			C75,72,74.9,72,74.7,71.9c-0.2-0.1-0.4-0.1-0.6-0.1c-0.5,0-1,0.1-1.3,0.4c-0.3,0.3-0.5,0.8-0.5,1.5V78h-2.1
			C70.2,78,70.2,69.9,70.2,69.9z M80.3,78.2c-0.7,0-1.2-0.1-1.8-0.3c-0.5-0.2-1-0.5-1.4-0.9c-0.4-0.4-0.7-0.8-0.9-1.3
			C76.1,75.1,76,74.6,76,74s0.1-1.1,0.3-1.6c0.2-0.5,0.5-1,0.9-1.4c0.4-0.4,0.8-0.7,1.4-0.9c0.5-0.2,1.1-0.3,1.7-0.3
			c0.6,0,1.2,0.1,1.7,0.3c0.5,0.2,0.9,0.5,1.3,0.9c0.4,0.4,0.7,0.8,0.9,1.3s0.3,1.1,0.3,1.7v0.8H78c0.1,0.5,0.4,0.9,0.8,1.3
			c0.4,0.3,0.9,0.4,1.5,0.4c0.5,0,0.9-0.1,1.2-0.3c0.3-0.2,0.6-0.5,0.8-0.8l1.7,1c-0.4,0.6-0.9,1-1.5,1.4
			C81.9,78,81.2,78.2,80.3,78.2z M80.2,71.5c-0.5,0-1,0.1-1.4,0.4c-0.4,0.3-0.7,0.7-0.8,1.1h4.3c-0.1-0.5-0.4-0.9-0.8-1.2
			C81.2,71.6,80.8,71.5,80.2,71.5z"/>
		<path class="st5" d="M26,151.1h3.5c0.9,0,1.7,0.1,2.4,0.4c0.7,0.3,1.3,0.7,1.8,1.2c0.5,0.5,0.9,1.1,1.2,1.7
			c0.3,0.7,0.4,1.4,0.4,2.2c0,0.8-0.1,1.5-0.4,2.2c-0.3,0.7-0.7,1.3-1.2,1.7c-0.5,0.5-1.1,0.9-1.8,1.1c-0.7,0.3-1.4,0.4-2.3,0.4H26
			V151.1z M28.1,153v7h1.3c0.5,0,1-0.1,1.5-0.3c0.5-0.2,0.8-0.4,1.2-0.7c0.3-0.3,0.6-0.7,0.7-1.1c0.2-0.4,0.3-0.9,0.3-1.4
			c0-0.5-0.1-1-0.3-1.4c-0.2-0.4-0.4-0.8-0.7-1.1c-0.3-0.3-0.7-0.6-1.2-0.7c-0.5-0.2-1-0.3-1.6-0.3L28.1,153L28.1,153z M40.7,162.2
			c-0.7,0-1.2-0.1-1.8-0.3c-0.5-0.2-1-0.5-1.4-0.9c-0.4-0.4-0.7-0.8-0.9-1.3c-0.2-0.5-0.3-1.1-0.3-1.6s0.1-1.1,0.3-1.6
			c0.2-0.5,0.5-1,0.9-1.4c0.4-0.4,0.8-0.7,1.4-0.9c0.5-0.2,1.1-0.3,1.7-0.3c0.6,0,1.2,0.1,1.7,0.3c0.5,0.2,1,0.5,1.3,0.9
			c0.4,0.4,0.7,0.8,0.9,1.3s0.3,1.1,0.3,1.7v0.8h-6.4c0.1,0.5,0.4,0.9,0.8,1.3c0.4,0.3,0.9,0.4,1.5,0.4c0.5,0,0.9-0.1,1.2-0.3
			c0.3-0.2,0.6-0.5,0.8-0.8l1.7,1c-0.4,0.6-0.9,1-1.5,1.4C42.4,162,41.6,162.2,40.7,162.2z M40.7,155.5c-0.5,0-1,0.1-1.4,0.4
			c-0.4,0.3-0.7,0.7-0.8,1.1h4.3c-0.1-0.5-0.4-0.9-0.8-1.2C41.7,155.6,41.2,155.5,40.7,155.5z M49.5,162.2c-1,0-1.8-0.2-2.4-0.5
			c-0.6-0.4-1.1-0.9-1.4-1.5l2-0.8c0.4,0.7,1,1.1,1.9,1.1c0.4,0,0.7-0.1,1-0.3c0.2-0.2,0.3-0.4,0.3-0.6c0-0.1,0-0.3-0.1-0.4
			c-0.1-0.1-0.2-0.2-0.4-0.2c-0.2-0.1-0.4-0.1-0.6-0.2c-0.2-0.1-0.5-0.1-0.7-0.1c-0.3-0.1-0.7-0.2-1-0.3c-0.3-0.1-0.7-0.2-0.9-0.4
			c-0.3-0.2-0.5-0.4-0.7-0.7c-0.2-0.3-0.3-0.6-0.3-1.1c0-0.3,0.1-0.7,0.2-1s0.4-0.6,0.7-0.8c0.3-0.2,0.6-0.4,1-0.5
			c0.4-0.1,0.9-0.2,1.4-0.2c0.9,0,1.6,0.2,2.1,0.5c0.5,0.3,1,0.7,1.4,1.3l-1.9,0.8c-0.2-0.3-0.4-0.5-0.6-0.6
			c-0.3-0.1-0.6-0.2-0.9-0.2c-0.4,0-0.7,0.1-0.9,0.2c-0.2,0.1-0.3,0.3-0.3,0.6c0,0.3,0.2,0.4,0.5,0.6c0.3,0.1,0.8,0.2,1.4,0.3
			c0.3,0.1,0.7,0.2,1,0.3c0.3,0.1,0.7,0.2,0.9,0.4c0.3,0.2,0.5,0.4,0.7,0.7c0.2,0.3,0.3,0.6,0.3,1.1c0,0.3-0.1,0.6-0.2,1
			c-0.1,0.3-0.4,0.6-0.6,0.9c-0.3,0.3-0.7,0.5-1.1,0.6C50.6,162.1,50,162.2,49.5,162.2z M58.2,162.2c-0.6,0-1.2-0.1-1.7-0.3
			c-0.5-0.2-1-0.5-1.4-0.9c-0.4-0.4-0.7-0.8-0.9-1.3c-0.2-0.5-0.3-1.1-0.3-1.6c0-0.6,0.1-1.2,0.3-1.7c0.2-0.5,0.5-1,0.9-1.3
			c0.4-0.4,0.8-0.7,1.4-0.9c0.5-0.2,1.1-0.3,1.7-0.3c0.5,0,0.9,0.1,1.3,0.2c0.4,0.1,0.8,0.3,1.1,0.5c0.3,0.2,0.6,0.5,0.9,0.8
			c0.3,0.3,0.5,0.7,0.6,1l-1.9,0.8c-0.2-0.4-0.4-0.8-0.8-1c-0.3-0.3-0.8-0.4-1.2-0.4c-0.3,0-0.6,0.1-0.9,0.2
			c-0.3,0.1-0.5,0.3-0.7,0.5c-0.2,0.2-0.4,0.4-0.5,0.7c-0.1,0.3-0.2,0.6-0.2,0.9s0.1,0.6,0.2,0.9c0.1,0.3,0.3,0.5,0.5,0.7
			c0.2,0.2,0.5,0.4,0.7,0.5c0.3,0.1,0.6,0.2,0.9,0.2c0.5,0,0.9-0.1,1.2-0.4c0.3-0.3,0.6-0.6,0.8-1l1.9,0.8c-0.4,0.8-0.9,1.4-1.5,1.9
			C60,161.9,59.2,162.2,58.2,162.2z M63.4,153.9h2v1.2c0.2-0.5,0.5-0.8,0.9-1.1c0.4-0.2,0.8-0.3,1.4-0.3c0.3,0,0.5,0,0.8,0.1
			c0.2,0.1,0.4,0.1,0.6,0.2l-0.8,2c-0.1-0.1-0.3-0.1-0.4-0.2c-0.2-0.1-0.4-0.1-0.6-0.1c-0.5,0-1,0.1-1.3,0.4
			c-0.3,0.3-0.5,0.8-0.5,1.5v4.3h-2.1C63.4,162,63.4,153.9,63.4,153.9z M70.1,153.9h2.1v8.1h-2.1V153.9z M69.9,151.6
			c0-0.4,0.1-0.7,0.4-1c0.3-0.3,0.6-0.4,0.9-0.4c0.4,0,0.7,0.1,1,0.4c0.3,0.3,0.4,0.6,0.4,1c0,0.4-0.1,0.7-0.4,0.9
			c-0.2,0.3-0.6,0.4-1,0.4c-0.4,0-0.7-0.1-1-0.4C70,152.3,69.9,152,69.9,151.6z M78.5,162.2c-0.6,0-1-0.1-1.5-0.3
			c-0.4-0.2-0.8-0.5-1.1-0.9v4.2h-2.1v-11.3h2v1.1c0.3-0.4,0.6-0.7,1.1-0.9c0.4-0.2,0.9-0.3,1.5-0.3c0.5,0,1,0.1,1.5,0.3
			c0.5,0.2,0.9,0.5,1.2,0.8c0.4,0.4,0.6,0.8,0.9,1.3c0.2,0.5,0.3,1.1,0.3,1.7c0,0.6-0.1,1.2-0.3,1.8c-0.2,0.5-0.5,0.9-0.9,1.3
			c-0.4,0.4-0.8,0.7-1.2,0.9C79.4,162.1,79,162.2,78.5,162.2z M78,160.2c0.3,0,0.6-0.1,0.9-0.2s0.5-0.3,0.7-0.5
			c0.2-0.2,0.4-0.4,0.5-0.7c0.1-0.3,0.2-0.6,0.2-0.9s-0.1-0.6-0.2-0.9c-0.1-0.3-0.3-0.5-0.5-0.7c-0.2-0.2-0.4-0.4-0.7-0.5
			c-0.3-0.1-0.6-0.2-0.9-0.2c-0.3,0-0.6,0.1-0.9,0.2c-0.3,0.1-0.5,0.3-0.7,0.5c-0.2,0.2-0.4,0.4-0.5,0.7c-0.1,0.3-0.2,0.6-0.2,0.9
			c0,0.3,0.1,0.6,0.2,0.9c0.1,0.3,0.3,0.5,0.5,0.7c0.2,0.2,0.4,0.4,0.7,0.5C77.4,160.2,77.7,160.2,78,160.2z M87.7,162.2
			c-0.6,0-1.2-0.1-1.7-0.3s-1-0.5-1.3-0.9c-0.4-0.4-0.7-0.8-0.9-1.3c-0.2-0.5-0.3-1.1-0.3-1.6c0-0.6,0.1-1.2,0.3-1.7
			c0.2-0.5,0.5-1,0.9-1.3c0.4-0.4,0.8-0.7,1.3-0.9c0.5-0.2,1.1-0.3,1.7-0.3c0.5,0,0.9,0.1,1.3,0.2c0.4,0.1,0.8,0.3,1.1,0.5
			c0.3,0.2,0.6,0.5,0.9,0.8c0.3,0.3,0.5,0.7,0.6,1l-1.9,0.8c-0.2-0.4-0.4-0.8-0.8-1c-0.3-0.3-0.8-0.4-1.2-0.4
			c-0.3,0-0.6,0.1-0.9,0.2c-0.3,0.1-0.5,0.3-0.7,0.5c-0.2,0.2-0.4,0.4-0.5,0.7c-0.1,0.3-0.2,0.6-0.2,0.9s0.1,0.6,0.2,0.9
			c0.1,0.3,0.3,0.5,0.5,0.7c0.2,0.2,0.4,0.4,0.7,0.5c0.3,0.1,0.6,0.2,0.9,0.2c0.5,0,0.9-0.1,1.2-0.4c0.4-0.3,0.6-0.6,0.8-1l1.9,0.8
			c-0.3,0.8-0.9,1.4-1.5,1.9C89.5,161.9,88.7,162.2,87.7,162.2z M92.9,153.9H95v8.1h-2.1V153.9z M92.6,151.6c0-0.4,0.1-0.7,0.4-1
			c0.3-0.3,0.6-0.4,0.9-0.4c0.4,0,0.7,0.1,1,0.4c0.3,0.3,0.4,0.6,0.4,1c0,0.4-0.1,0.7-0.4,0.9c-0.2,0.3-0.6,0.4-1,0.4
			c-0.4,0-0.7-0.1-1-0.4C92.8,152.3,92.6,152,92.6,151.6z M100.7,162.2c-0.6,0-1.2-0.1-1.7-0.3s-1-0.5-1.4-0.9
			c-0.4-0.4-0.7-0.8-0.9-1.4c-0.2-0.5-0.3-1.1-0.3-1.6s0.1-1.1,0.3-1.6c0.2-0.5,0.5-1,0.9-1.4c0.4-0.4,0.8-0.7,1.4-0.9
			c0.5-0.2,1.1-0.3,1.7-0.3c0.6,0,1.2,0.1,1.7,0.3c0.5,0.2,1,0.5,1.4,0.9c0.4,0.4,0.7,0.8,0.9,1.4c0.2,0.5,0.3,1.1,0.3,1.6
			s-0.1,1.1-0.3,1.6c-0.2,0.5-0.5,1-0.9,1.4c-0.4,0.4-0.8,0.7-1.4,0.9C101.8,162.1,101.3,162.2,100.7,162.2z M100.7,160.2
			c0.3,0,0.6-0.1,0.9-0.2c0.3-0.1,0.5-0.3,0.7-0.5c0.2-0.2,0.4-0.4,0.5-0.7c0.1-0.3,0.2-0.6,0.2-0.9c0-0.3-0.1-0.6-0.2-0.9
			c-0.1-0.3-0.3-0.5-0.5-0.7s-0.4-0.4-0.7-0.5c-0.3-0.1-0.6-0.2-0.9-0.2s-0.6,0.1-0.9,0.2c-0.3,0.1-0.5,0.3-0.7,0.5
			c-0.2,0.2-0.4,0.4-0.5,0.7c-0.1,0.3-0.2,0.6-0.2,0.9c0,0.3,0.1,0.6,0.2,0.9c0.1,0.3,0.3,0.5,0.5,0.7c0.2,0.2,0.4,0.4,0.7,0.5
			C100.1,160.1,100.4,160.2,100.7,160.2z M101.4,150.3h2.1l-2.3,2.6h-1.6L101.4,150.3z M106.3,153.9h2.1v1c0.3-0.4,0.6-0.7,1-0.9
			c0.4-0.2,0.9-0.3,1.4-0.3c1,0,1.7,0.3,2.3,0.9c0.6,0.6,0.9,1.4,0.9,2.5v4.9h-2.1v-4.6c0-0.6-0.1-1-0.4-1.4
			c-0.3-0.3-0.7-0.5-1.2-0.5c-0.5,0-0.9,0.2-1.2,0.5c-0.3,0.3-0.5,0.8-0.5,1.5v4.5h-2.1L106.3,153.9L106.3,153.9z"/>
		<path class="st5" d="M261,0h50v54c0,13.8-11.2,25-25,25c-13.8,0-25-11.2-25-25V0z"/>
		<rect x="27" y="17" class="st6" width="130" height="32"/>
	</g>
</g>
<g id="Capa_2_1_">
</g>
</svg>
