<?xml version="1.0" encoding="utf-8"?>
<!-- Generator: Adobe Illustrator 16.0.3, SVG Export Plug-In . SVG Version: 6.00 Build 0)  -->
<!DOCTYPE svg PUBLIC "-//W3C//DTD SVG 1.1//EN" "http://www.w3.org/Graphics/SVG/1.1/DTD/svg11.dtd">
<svg version="1.1" id="Capa_1" xmlns="http://www.w3.org/2000/svg" xmlns:xlink="http://www.w3.org/1999/xlink" x="0px" y="0px"
	 width="335px" height="365px" viewBox="0 0 335 365" enable-background="new 0 0 335 365" xml:space="preserve">
<g id="Capa_1_1_">
	<g>
		<path fill="#F4F3FF" d="M0,20C0,8.954,8.954,0,20,0h295c11.046,0,20,8.954,20,20v325c0,11.046-8.954,20-20,20H20
			c-11.046,0-20-8.954-20-20V20z"/>
		<path fill="#566865" d="M29.472,29.859h1.98L36.528,43h-2.033l-1.063-2.809h-5.939L26.448,43h-2.053L29.472,29.859z M28.194,38.32
			h4.536l-2.268-6.012L28.194,38.32z M38.036,28.816h1.962V43h-1.962V28.816z M42.238,33.28h1.926v1.116
			c0.3-0.408,0.678-0.727,1.134-0.955c0.456-0.239,0.996-0.359,1.62-0.359c0.78,0,1.422,0.15,1.926,0.45
			c0.516,0.3,0.906,0.72,1.17,1.26c0.313-0.517,0.738-0.931,1.278-1.242s1.17-0.468,1.89-0.468c0.66,0,1.236,0.096,1.729,0.288
			c0.491,0.192,0.899,0.468,1.224,0.828c0.324,0.36,0.564,0.792,0.72,1.296c0.156,0.504,0.234,1.068,0.234,1.691V43h-1.998v-5.706
			c0-0.756-0.174-1.362-0.522-1.817c-0.348-0.457-0.905-0.685-1.674-0.685c-0.695,0-1.254,0.222-1.674,0.666
			c-0.408,0.444-0.612,1.116-0.612,2.017V43h-1.962v-5.832c0-0.744-0.174-1.326-0.521-1.746c-0.336-0.42-0.876-0.63-1.62-0.63
			c-0.72,0-1.29,0.233-1.71,0.702c-0.408,0.456-0.612,1.146-0.612,2.07V43h-1.943v-9.72H42.238z M62.33,43.198
			c-0.564,0-1.063-0.072-1.494-0.216c-0.42-0.145-0.774-0.342-1.063-0.594c-0.288-0.265-0.51-0.57-0.666-0.919
			c-0.144-0.36-0.216-0.743-0.216-1.151c0-1.008,0.384-1.795,1.152-2.358c0.779-0.576,1.854-0.864,3.222-0.864h2.88v-0.162
			c0-0.647-0.204-1.176-0.612-1.584c-0.407-0.408-1.044-0.611-1.907-0.611c-0.648,0-1.206,0.144-1.675,0.432
			c-0.468,0.276-0.84,0.654-1.115,1.135l-1.729-1.009c0.48-0.636,1.092-1.164,1.836-1.584c0.756-0.42,1.656-0.63,2.7-0.63
			c0.696,0,1.314,0.096,1.854,0.288c0.552,0.18,1.014,0.444,1.386,0.792c0.372,0.336,0.654,0.744,0.846,1.224
			c0.192,0.48,0.288,1.015,0.288,1.603V43h-1.872v-1.71c-0.384,0.576-0.912,1.038-1.584,1.386
			C63.89,43.023,63.146,43.198,62.33,43.198z M62.743,41.506c0.349,0,0.69-0.048,1.026-0.145c0.336-0.096,0.654-0.228,0.954-0.396
			c0.3-0.18,0.57-0.396,0.81-0.647c0.253-0.252,0.456-0.541,0.612-0.864v-0.81h-2.754c-0.9,0-1.548,0.131-1.944,0.396
			c-0.384,0.265-0.575,0.636-0.575,1.116c0,0.42,0.149,0.75,0.449,0.99C61.622,41.386,62.096,41.506,62.743,41.506z M74.955,43.198
			c-0.72,0-1.392-0.132-2.016-0.396c-0.624-0.264-1.164-0.624-1.62-1.079c-0.456-0.457-0.816-0.99-1.08-1.603
			c-0.252-0.612-0.378-1.272-0.378-1.979c0-0.721,0.132-1.387,0.396-1.998c0.265-0.612,0.624-1.146,1.08-1.603
			s0.99-0.81,1.603-1.062c0.624-0.265,1.29-0.396,1.998-0.396c0.54,0,1.044,0.072,1.512,0.216c0.48,0.144,0.918,0.349,1.314,0.612
			s0.743,0.582,1.044,0.954c0.312,0.36,0.558,0.756,0.737,1.188l-1.746,0.757c-0.252-0.601-0.63-1.068-1.134-1.404
			c-0.492-0.336-1.067-0.504-1.728-0.504c-0.456,0-0.876,0.084-1.26,0.252c-0.385,0.168-0.721,0.401-1.009,0.701
			c-0.275,0.289-0.498,0.631-0.666,1.026c-0.155,0.396-0.233,0.815-0.233,1.261c0,0.443,0.078,0.863,0.233,1.26
			c0.168,0.396,0.396,0.744,0.685,1.043c0.288,0.289,0.624,0.517,1.008,0.685c0.396,0.168,0.822,0.252,1.278,0.252
			c0.695,0,1.283-0.187,1.764-0.558c0.492-0.385,0.858-0.858,1.098-1.422l1.765,0.738c-0.385,0.899-0.973,1.637-1.765,2.213
			C77.043,42.916,76.083,43.198,74.955,43.198z M85.979,43.198c-0.779,0-1.487-0.126-2.124-0.378
			c-0.624-0.264-1.164-0.618-1.62-1.063c-0.456-0.456-0.81-0.99-1.062-1.602c-0.24-0.612-0.36-1.272-0.36-1.98
			c0-0.72,0.126-1.386,0.378-1.998c0.265-0.623,0.624-1.164,1.08-1.619c0.456-0.457,0.99-0.816,1.603-1.08
			c0.611-0.265,1.277-0.396,1.998-0.396c0.72,0,1.38,0.126,1.979,0.378c0.612,0.24,1.141,0.582,1.584,1.026
			c0.444,0.443,0.792,0.972,1.044,1.584c0.252,0.6,0.378,1.26,0.378,1.979v0.81h-8.172c0.145,0.793,0.504,1.429,1.08,1.908
			c0.576,0.469,1.314,0.702,2.214,0.702c0.685,0,1.254-0.144,1.71-0.432c0.469-0.288,0.847-0.666,1.134-1.134l1.603,0.953
			c-0.468,0.709-1.063,1.278-1.782,1.711C87.923,42.988,87.035,43.198,85.979,43.198z M85.871,34.792
			c-0.78,0-1.446,0.228-1.998,0.685c-0.553,0.443-0.924,1.02-1.116,1.728h6.138c-0.144-0.769-0.485-1.362-1.025-1.782
			C87.341,35.002,86.675,34.792,85.871,34.792z M92.739,33.28h1.908v1.35c0.336-0.468,0.763-0.84,1.278-1.116
			c0.528-0.287,1.134-0.432,1.818-0.432c0.611,0,1.164,0.102,1.655,0.307c0.504,0.191,0.924,0.473,1.261,0.846
			c0.348,0.359,0.611,0.81,0.792,1.35c0.191,0.527,0.287,1.122,0.287,1.782V43h-1.962v-5.49c0-0.828-0.21-1.488-0.63-1.979
			c-0.42-0.492-1.038-0.738-1.854-0.738c-0.372,0-0.721,0.065-1.044,0.198c-0.313,0.132-0.588,0.324-0.828,0.576
			c-0.229,0.24-0.408,0.539-0.54,0.899c-0.132,0.349-0.198,0.738-0.198,1.17V43h-1.944v-9.72H92.739z M106.978,43.198
			c-0.563,0-1.062-0.072-1.494-0.216c-0.42-0.145-0.773-0.342-1.062-0.594c-0.288-0.265-0.51-0.57-0.666-0.919
			c-0.145-0.36-0.216-0.743-0.216-1.151c0-1.008,0.384-1.795,1.151-2.358c0.78-0.576,1.854-0.864,3.223-0.864h2.88v-0.162
			c0-0.647-0.204-1.176-0.612-1.584c-0.408-0.408-1.044-0.611-1.908-0.611c-0.647,0-1.206,0.144-1.674,0.432
			c-0.468,0.276-0.84,0.654-1.116,1.135l-1.728-1.009c0.479-0.636,1.092-1.164,1.836-1.584c0.756-0.42,1.656-0.63,2.7-0.63
			c0.695,0,1.313,0.096,1.854,0.288c0.552,0.18,1.015,0.444,1.387,0.792c0.371,0.336,0.653,0.744,0.846,1.224
			c0.191,0.48,0.288,1.015,0.288,1.603V43h-1.872v-1.71c-0.384,0.576-0.912,1.038-1.584,1.386
			C108.538,43.023,107.794,43.198,106.978,43.198z M107.392,41.506c0.348,0,0.69-0.048,1.026-0.145
			c0.336-0.096,0.653-0.228,0.954-0.396c0.3-0.18,0.569-0.396,0.81-0.647c0.252-0.252,0.456-0.541,0.612-0.864v-0.81h-2.754
			c-0.9,0-1.548,0.131-1.944,0.396c-0.384,0.265-0.576,0.636-0.576,1.116c0,0.42,0.15,0.75,0.45,0.99
			C106.27,41.386,106.744,41.506,107.392,41.506z M114.852,33.28h1.908v1.692c0.204-0.613,0.54-1.068,1.008-1.369
			c0.468-0.312,1.015-0.468,1.638-0.468c0.337,0,0.643,0.036,0.919,0.108c0.287,0.061,0.527,0.15,0.72,0.27l-0.756,1.872
			c-0.288-0.192-0.696-0.288-1.225-0.288c-0.695,0-1.248,0.187-1.655,0.559c-0.408,0.371-0.612,0.996-0.612,1.871V43h-1.944
			L114.852,33.28L114.852,33.28z M126.893,28.816h1.962V43h-1.962V28.816z M131.165,28.816h1.962V43h-1.962V28.816z M138.408,43.198
			c-0.564,0-1.063-0.072-1.494-0.216c-0.42-0.145-0.774-0.342-1.063-0.594c-0.288-0.265-0.51-0.57-0.666-0.919
			c-0.144-0.36-0.216-0.743-0.216-1.151c0-1.008,0.384-1.795,1.152-2.358c0.779-0.576,1.854-0.864,3.222-0.864h2.88v-0.162
			c0-0.647-0.204-1.176-0.612-1.584c-0.407-0.408-1.044-0.611-1.907-0.611c-0.648,0-1.206,0.144-1.675,0.432
			c-0.468,0.276-0.84,0.654-1.115,1.135l-1.729-1.009c0.48-0.636,1.092-1.164,1.836-1.584c0.756-0.42,1.656-0.63,2.7-0.63
			c0.696,0,1.314,0.096,1.854,0.288c0.552,0.18,1.014,0.444,1.386,0.792c0.372,0.336,0.654,0.744,0.846,1.224
			c0.192,0.48,0.288,1.015,0.288,1.603V43h-1.872v-1.71c-0.384,0.576-0.912,1.038-1.584,1.386
			C139.968,43.023,139.224,43.198,138.408,43.198z M138.822,41.506c0.349,0,0.69-0.048,1.026-0.145
			c0.336-0.096,0.654-0.228,0.954-0.396c0.3-0.18,0.57-0.396,0.81-0.647c0.252-0.252,0.456-0.541,0.612-0.864v-0.81h-2.754
			c-0.9,0-1.548,0.131-1.944,0.396c-0.384,0.265-0.575,0.636-0.575,1.116c0,0.42,0.149,0.75,0.449,0.99
			C137.7,41.386,138.174,41.506,138.822,41.506z M144.963,33.28h2.052l2.79,7.308l2.898-7.308h2.016L150.688,43h-1.908
			L144.963,33.28z M160.457,43.198c-0.78,0-1.488-0.126-2.124-0.378c-0.624-0.264-1.164-0.618-1.62-1.063
			c-0.456-0.456-0.811-0.99-1.063-1.602c-0.239-0.612-0.359-1.272-0.359-1.98c0-0.72,0.126-1.386,0.378-1.998
			c0.265-0.623,0.624-1.164,1.08-1.619c0.456-0.457,0.989-0.816,1.603-1.08c0.612-0.265,1.277-0.396,1.998-0.396
			c0.719,0,1.379,0.126,1.979,0.378c0.61,0.24,1.14,0.582,1.584,1.026c0.442,0.443,0.792,0.972,1.044,1.584
			c0.252,0.6,0.378,1.26,0.378,1.979v0.81h-8.172c0.144,0.793,0.504,1.429,1.08,1.908c0.575,0.469,1.313,0.702,2.214,0.702
			c0.684,0,1.254-0.144,1.71-0.432c0.468-0.288,0.847-0.666,1.134-1.134l1.603,0.953c-0.468,0.709-1.063,1.278-1.781,1.711
			C162.4,42.988,161.514,43.198,160.457,43.198z M160.35,34.792c-0.781,0-1.447,0.228-1.998,0.685
			c-0.553,0.443-0.925,1.02-1.117,1.728h6.14c-0.146-0.769-0.485-1.362-1.026-1.782C161.818,35.002,161.152,34.792,160.35,34.792z"
			/>
		<path fill="#EDEBFF" d="M189,302h107c5.522,0,10,4.478,10,10v15c0,5.521-4.478,10-10,10H189c-5.523,0-10-4.479-10-10v-15
			C179,306.478,183.477,302,189,302z"/>
		<path fill="#566865" d="M208.136,326.17c-0.918,0-1.768-0.164-2.55-0.493c-0.771-0.34-1.445-0.799-2.023-1.377
			c-0.565-0.578-1.008-1.252-1.326-2.021c-0.315-0.771-0.476-1.6-0.476-2.482c0-0.907,0.164-1.745,0.493-2.516
			c0.329-0.782,0.782-1.456,1.359-2.023c0.578-0.578,1.253-1.025,2.022-1.343c0.782-0.329,1.615-0.493,2.499-0.493
			c0.59,0,1.15,0.079,1.684,0.238c0.543,0.146,1.049,0.355,1.514,0.629c0.477,0.271,0.906,0.601,1.292,0.986
			c0.396,0.385,0.729,0.81,1.003,1.273l-1.615,1.003c-0.385-0.714-0.906-1.279-1.563-1.7c-0.656-0.431-1.429-0.646-2.313-0.646
			c-0.646,0-1.247,0.119-1.802,0.355c-0.544,0.238-1.021,0.567-1.43,0.986c-0.406,0.408-0.725,0.896-0.95,1.462
			c-0.228,0.557-0.341,1.15-0.341,1.785s0.113,1.23,0.341,1.785c0.228,0.544,0.538,1.026,0.935,1.445
			c0.408,0.406,0.885,0.729,1.428,0.969c0.557,0.237,1.156,0.355,1.804,0.355c0.963,0,1.778-0.236,2.446-0.714
			c0.682-0.476,1.201-1.088,1.564-1.836l1.666,0.884c-0.271,0.521-0.602,0.997-0.986,1.43c-0.385,0.419-0.822,0.781-1.309,1.088
			c-0.477,0.306-0.997,0.544-1.564,0.714C209.371,326.085,208.771,326.17,208.136,326.17z M218.334,326.188
			c-0.533,0-1.003-0.067-1.411-0.203c-0.397-0.138-0.731-0.323-1.003-0.563c-0.271-0.249-0.482-0.538-0.629-0.867
			c-0.137-0.34-0.204-0.703-0.204-1.088c0-0.952,0.362-1.692,1.088-2.227c0.736-0.544,1.751-0.816,3.043-0.816h2.72v-0.152
			c0-0.611-0.191-1.11-0.578-1.495c-0.385-0.387-0.984-0.578-1.801-0.578c-0.613,0-1.14,0.136-1.582,0.407
			c-0.44,0.262-0.793,0.617-1.054,1.07l-1.632-0.952c0.453-0.601,1.029-1.099,1.732-1.496c0.715-0.396,1.564-0.595,2.552-0.595
			c0.655,0,1.239,0.091,1.751,0.272c0.521,0.17,0.957,0.419,1.309,0.748c0.352,0.315,0.617,0.702,0.799,1.154
			c0.183,0.453,0.272,0.958,0.272,1.515V326h-1.769v-1.615c-0.362,0.544-0.861,0.98-1.496,1.311S219.104,326.188,218.334,326.188z
			 M218.725,324.589c0.328,0,0.651-0.045,0.969-0.136c0.318-0.091,0.617-0.215,0.902-0.374c0.282-0.17,0.537-0.374,0.764-0.612
			c0.238-0.236,0.432-0.51,0.578-0.814v-0.767h-2.601c-0.851,0-1.462,0.125-1.836,0.374c-0.362,0.249-0.544,0.603-0.544,1.056
			c0,0.396,0.141,0.708,0.425,0.935C217.665,324.476,218.113,324.589,218.725,324.589z M225.787,316.82h1.802v1.273
			c0.315-0.44,0.72-0.793,1.207-1.054c0.499-0.272,1.071-0.408,1.718-0.408c0.577,0,1.098,0.097,1.563,0.289
			c0.476,0.181,0.873,0.448,1.188,0.799c0.329,0.34,0.578,0.767,0.748,1.275c0.182,0.499,0.272,1.06,0.272,1.683V326h-1.854v-5.185
			c0-0.782-0.197-1.405-0.595-1.87c-0.397-0.467-0.979-0.697-1.751-0.697c-0.352,0-0.68,0.062-0.986,0.187
			c-0.295,0.125-0.555,0.308-0.781,0.546c-0.215,0.227-0.385,0.51-0.51,0.85c-0.125,0.329-0.188,0.697-0.188,1.104V326h-1.836v-9.18
			H225.787z M240.833,326.188c-0.681,0-1.315-0.125-1.903-0.373c-0.59-0.249-1.1-0.591-1.531-1.021
			c-0.431-0.431-0.771-0.935-1.02-1.513c-0.238-0.578-0.357-1.201-0.357-1.87c0-0.682,0.125-1.311,0.375-1.887
			c0.248-0.578,0.588-1.082,1.021-1.515c0.431-0.431,0.935-0.765,1.513-1.003c0.59-0.249,1.219-0.374,1.887-0.374
			c0.512,0,0.986,0.068,1.43,0.204c0.452,0.136,0.865,0.329,1.24,0.578c0.373,0.249,0.703,0.55,0.986,0.901
			c0.295,0.34,0.526,0.714,0.696,1.122l-1.649,0.714c-0.237-0.567-0.595-1.011-1.07-1.326c-0.465-0.317-1.01-0.478-1.633-0.478
			c-0.431,0-0.826,0.079-1.188,0.238s-0.681,0.38-0.952,0.663c-0.261,0.272-0.47,0.595-0.629,0.969
			c-0.146,0.374-0.221,0.771-0.221,1.19s0.072,0.814,0.221,1.188c0.159,0.374,0.374,0.703,0.646,0.986
			c0.271,0.272,0.589,0.487,0.951,0.646c0.375,0.157,0.776,0.236,1.207,0.236c0.657,0,1.213-0.176,1.666-0.525
			c0.465-0.363,0.812-0.812,1.037-1.345l1.666,0.697c-0.363,0.852-0.918,1.547-1.666,2.091
			C242.805,325.921,241.898,326.188,240.833,326.188z M251.244,326.188c-0.737,0-1.405-0.118-2.008-0.356
			c-0.588-0.249-1.098-0.584-1.528-1.003c-0.433-0.432-0.767-0.937-1.003-1.513c-0.229-0.578-0.341-1.201-0.341-1.87
			c0-0.682,0.118-1.311,0.356-1.889c0.25-0.589,0.59-1.099,1.021-1.528c0.431-0.433,0.935-0.771,1.513-1.021
			s1.207-0.374,1.888-0.374c0.68,0,1.303,0.119,1.869,0.357c0.578,0.227,1.077,0.55,1.496,0.969s0.748,0.918,0.986,1.496
			c0.236,0.566,0.355,1.189,0.355,1.87v0.765h-7.718c0.136,0.748,0.476,1.35,1.021,1.802c0.543,0.442,1.24,0.663,2.092,0.663
			c0.646,0,1.184-0.136,1.613-0.406c0.442-0.272,0.801-0.631,1.072-1.071l1.512,0.899c-0.44,0.67-1.002,1.207-1.683,1.615
			C253.08,325.989,252.241,326.188,251.244,326.188z M251.143,318.248c-0.738,0-1.367,0.215-1.888,0.646
			c-0.521,0.421-0.873,0.965-1.054,1.634h5.797c-0.137-0.727-0.459-1.286-0.971-1.685
			C252.529,318.446,251.9,318.248,251.143,318.248z M257.629,312.604h1.854V326h-1.854V312.604z M264.469,326.188
			c-0.531,0-1.003-0.067-1.41-0.203c-0.396-0.138-0.73-0.323-1.004-0.563c-0.271-0.249-0.479-0.538-0.629-0.867
			c-0.136-0.34-0.203-0.703-0.203-1.088c0-0.952,0.362-1.692,1.088-2.227c0.736-0.544,1.75-0.816,3.043-0.816h2.72v-0.152
			c0-0.611-0.191-1.11-0.577-1.495c-0.387-0.387-0.986-0.578-1.803-0.578c-0.611,0-1.139,0.136-1.582,0.407
			c-0.44,0.262-0.793,0.617-1.053,1.07l-1.633-0.952c0.454-0.601,1.032-1.099,1.734-1.496c0.714-0.396,1.563-0.595,2.55-0.595
			c0.658,0,1.241,0.091,1.751,0.272c0.521,0.17,0.958,0.419,1.309,0.748c0.354,0.315,0.619,0.702,0.799,1.154
			c0.184,0.453,0.272,0.958,0.272,1.515V326h-1.769v-1.615c-0.361,0.544-0.86,0.98-1.495,1.311
			C265.941,326.025,265.24,326.188,264.469,326.188z M264.859,324.589c0.33,0,0.652-0.045,0.971-0.136s0.617-0.215,0.9-0.374
			c0.283-0.17,0.539-0.374,0.766-0.612c0.236-0.236,0.431-0.51,0.576-0.814v-0.767h-2.6c-0.851,0-1.463,0.125-1.837,0.374
			c-0.362,0.249-0.544,0.603-0.544,1.056c0,0.396,0.143,0.708,0.426,0.935C263.801,324.476,264.248,324.589,264.859,324.589z
			 M271.906,316.82h1.803v1.598c0.191-0.578,0.51-1.009,0.952-1.292c0.44-0.295,0.957-0.442,1.547-0.442
			c0.315,0,0.604,0.034,0.867,0.104c0.271,0.057,0.497,0.142,0.68,0.255l-0.714,1.769c-0.271-0.182-0.658-0.271-1.156-0.271
			c-0.658,0-1.179,0.176-1.564,0.527c-0.385,0.351-0.576,0.939-0.576,1.768V326h-1.837L271.906,316.82L271.906,316.82z"/>
		<path fill="#d69d66" d="M32,302h117c5.521,0,10,4.478,10,10v15c0,5.521-4.479,10-10,10H32c-5.523,0-10-4.479-10-10v-15
			C22,306.478,26.477,302,32,302z"/>
		<path fill="#566865" d="M41.507,326.17c-0.941,0-1.809-0.17-2.602-0.51c-0.782-0.34-1.456-0.799-2.022-1.377
			c-0.567-0.578-1.015-1.252-1.344-2.023c-0.317-0.771-0.476-1.592-0.476-2.465c0-0.884,0.158-1.711,0.476-2.481
			c0.329-0.781,0.776-1.456,1.344-2.022c0.566-0.578,1.24-1.031,2.022-1.36c0.793-0.34,1.654-0.51,2.584-0.51
			c1.167,0,2.193,0.244,3.077,0.731c0.896,0.476,1.638,1.121,2.227,1.938l-1.563,1.088c-0.42-0.635-0.946-1.122-1.581-1.462
			c-0.623-0.351-1.343-0.526-2.159-0.526c-0.669,0-1.286,0.125-1.853,0.373c-0.556,0.238-1.037,0.567-1.445,0.986
			c-0.396,0.419-0.708,0.912-0.935,1.479c-0.228,0.555-0.341,1.145-0.341,1.768c0,0.635,0.113,1.23,0.341,1.785
			c0.227,0.555,0.544,1.043,0.951,1.462c0.408,0.419,0.89,0.748,1.445,0.986c0.566,0.236,1.185,0.355,1.854,0.355
			c0.589,0,1.121-0.085,1.598-0.255c0.476-0.17,0.89-0.408,1.241-0.714c0.362-0.306,0.657-0.669,0.884-1.088
			s0.391-0.878,0.493-1.377h-4.454V319.2h6.392v0.663c0,0.839-0.142,1.643-0.425,2.414c-0.272,0.759-0.674,1.428-1.207,2.006
			c-0.521,0.578-1.167,1.037-1.938,1.377C43.331,326,42.47,326.17,41.507,326.17z M53.301,326.188c-1.224,0-2.164-0.356-2.822-1.07
			c-0.646-0.727-0.969-1.725-0.969-2.992v-5.304h1.87v5.185c0,0.782,0.192,1.405,0.578,1.87c0.385,0.453,0.969,0.68,1.751,0.68
			c0.34,0,0.657-0.062,0.952-0.187c0.306-0.125,0.566-0.3,0.781-0.527c0.216-0.238,0.386-0.521,0.511-0.85
			c0.124-0.329,0.187-0.697,0.187-1.105v-5.064h1.836V326h-1.802v-1.258c-0.317,0.44-0.726,0.793-1.224,1.054
			C54.463,326.057,53.913,326.188,53.301,326.188z M62.925,326.188c-0.532,0-1.003-0.067-1.41-0.203
			c-0.397-0.138-0.731-0.323-1.003-0.563c-0.272-0.249-0.482-0.538-0.63-0.867c-0.136-0.34-0.203-0.703-0.203-1.088
			c0-0.952,0.362-1.692,1.088-2.227c0.736-0.544,1.751-0.816,3.043-0.816h2.72v-0.152c0-0.611-0.192-1.11-0.578-1.495
			c-0.385-0.387-0.986-0.578-1.802-0.578c-0.612,0-1.14,0.136-1.581,0.407c-0.442,0.262-0.793,0.617-1.054,1.07l-1.633-0.952
			c0.454-0.601,1.032-1.099,1.734-1.496c0.714-0.396,1.564-0.595,2.55-0.595c0.657,0,1.241,0.091,1.751,0.272
			c0.521,0.17,0.958,0.419,1.31,0.748c0.352,0.315,0.617,0.702,0.799,1.154c0.182,0.453,0.271,0.958,0.271,1.515V326H66.53v-1.615
			c-0.362,0.544-0.861,0.98-1.496,1.311C64.399,326.025,63.697,326.188,62.925,326.188z M63.317,324.589
			c0.328,0,0.651-0.045,0.969-0.136c0.318-0.091,0.618-0.215,0.901-0.374c0.283-0.17,0.538-0.374,0.765-0.612
			c0.238-0.236,0.431-0.51,0.578-0.814v-0.767h-2.601c-0.851,0-1.463,0.125-1.837,0.374c-0.362,0.249-0.544,0.603-0.544,1.056
			c0,0.396,0.143,0.708,0.426,0.935C62.257,324.477,62.704,324.589,63.317,324.589z M70.362,316.82h1.802v1.598
			c0.193-0.578,0.511-1.009,0.952-1.292c0.442-0.295,0.958-0.442,1.547-0.442c0.317,0,0.606,0.034,0.867,0.104
			c0.272,0.057,0.499,0.142,0.68,0.255l-0.714,1.769c-0.271-0.182-0.657-0.271-1.155-0.271c-0.657,0-1.179,0.176-1.564,0.527
			c-0.385,0.351-0.578,0.939-0.578,1.768V326h-1.836L70.362,316.82L70.362,316.82z M81.071,326.188
			c-0.601,0-1.179-0.112-1.734-0.341c-0.555-0.227-1.048-0.55-1.479-0.969c-0.42-0.419-0.76-0.924-1.021-1.513
			c-0.249-0.589-0.374-1.241-0.374-1.955c0-0.727,0.125-1.377,0.374-1.955c0.25-0.589,0.584-1.094,1.003-1.513
			c0.431-0.419,0.924-0.742,1.479-0.971c0.566-0.227,1.156-0.34,1.769-0.34c0.613,0,1.195,0.13,1.751,0.393
			c0.565,0.261,1.024,0.616,1.377,1.069v-5.523h1.802V326h-1.802v-1.343c-0.363,0.476-0.828,0.85-1.395,1.122
			C82.266,326.051,81.683,326.188,81.071,326.188z M81.309,324.504c0.43,0,0.827-0.079,1.19-0.238
			c0.374-0.17,0.69-0.391,0.952-0.662c0.271-0.282,0.48-0.611,0.629-0.985c0.157-0.385,0.237-0.793,0.237-1.226
			c0-0.419-0.08-0.814-0.237-1.188c-0.148-0.385-0.357-0.714-0.629-0.986c-0.262-0.283-0.578-0.504-0.952-0.663
			c-0.363-0.17-0.761-0.255-1.19-0.255c-0.431,0-0.833,0.079-1.207,0.238c-0.363,0.159-0.681,0.38-0.952,0.663
			c-0.272,0.271-0.487,0.601-0.646,0.984c-0.147,0.374-0.221,0.776-0.221,1.207c0,0.433,0.073,0.841,0.221,1.226
			c0.159,0.374,0.374,0.703,0.646,0.984c0.271,0.283,0.589,0.505,0.952,0.663C80.476,324.425,80.878,324.504,81.309,324.504z
			 M90.999,326.188c-0.533,0-1.003-0.067-1.411-0.203c-0.397-0.138-0.731-0.323-1.003-0.563c-0.272-0.249-0.482-0.538-0.629-0.867
			c-0.137-0.34-0.204-0.703-0.204-1.088c0-0.952,0.361-1.692,1.088-2.227c0.736-0.544,1.751-0.816,3.043-0.816h2.72v-0.152
			c0-0.611-0.192-1.11-0.578-1.495c-0.386-0.387-0.985-0.578-1.802-0.578c-0.612,0-1.139,0.136-1.581,0.407
			c-0.441,0.262-0.794,0.617-1.054,1.07l-1.632-0.952c0.453-0.601,1.03-1.099,1.733-1.496c0.714-0.396,1.564-0.595,2.551-0.595
			c0.656,0,1.24,0.091,1.751,0.272c0.521,0.17,0.956,0.419,1.309,0.748c0.351,0.315,0.617,0.702,0.799,1.154
			c0.181,0.453,0.272,0.958,0.272,1.515V326h-1.769v-1.615c-0.362,0.544-0.861,0.98-1.496,1.311
			C92.471,326.025,91.769,326.188,90.999,326.188z M91.39,324.589c0.328,0,0.651-0.045,0.969-0.136s0.617-0.215,0.901-0.374
			c0.283-0.17,0.538-0.374,0.765-0.612c0.238-0.236,0.431-0.51,0.578-0.814v-0.767h-2.601c-0.851,0-1.462,0.125-1.836,0.374
			c-0.363,0.249-0.544,0.603-0.544,1.056c0,0.396,0.141,0.708,0.425,0.935C90.33,324.476,90.778,324.589,91.39,324.589z
			 M98.435,316.82h1.802v1.598c0.193-0.578,0.511-1.009,0.952-1.292c0.442-0.295,0.958-0.442,1.547-0.442
			c0.317,0,0.606,0.034,0.867,0.104c0.272,0.057,0.499,0.142,0.681,0.255l-0.715,1.769c-0.271-0.182-0.656-0.271-1.155-0.271
			c-0.657,0-1.18,0.176-1.564,0.527c-0.385,0.351-0.578,0.939-0.578,1.768V326h-1.836L98.435,316.82L98.435,316.82z
			 M109.807,312.604h1.854V326h-1.854V312.604z M113.842,312.604h1.853V326h-1.853V312.604z M120.682,326.188
			c-0.532,0-1.003-0.067-1.411-0.203c-0.396-0.138-0.73-0.323-1.003-0.563c-0.271-0.249-0.48-0.538-0.629-0.867
			c-0.136-0.34-0.204-0.703-0.204-1.088c0-0.952,0.363-1.692,1.088-2.227c0.737-0.544,1.751-0.816,3.043-0.816h2.721v-0.152
			c0-0.611-0.192-1.11-0.578-1.495c-0.386-0.387-0.986-0.578-1.803-0.578c-0.611,0-1.139,0.136-1.58,0.407
			c-0.442,0.262-0.793,0.617-1.055,1.07l-1.632-0.952c0.454-0.601,1.032-1.099,1.734-1.496c0.714-0.396,1.563-0.595,2.55-0.595
			c0.658,0,1.241,0.091,1.751,0.272c0.521,0.17,0.958,0.419,1.309,0.748c0.353,0.315,0.618,0.702,0.8,1.154
			c0.182,0.453,0.271,0.958,0.271,1.515V326h-1.768v-1.615c-0.362,0.544-0.861,0.98-1.496,1.311
			C122.155,326.025,121.453,326.188,120.682,326.188z M121.073,324.589c0.329,0,0.652-0.045,0.97-0.136s0.618-0.215,0.9-0.374
			c0.284-0.17,0.539-0.374,0.766-0.612c0.237-0.236,0.431-0.51,0.578-0.814v-0.767h-2.602c-0.85,0-1.462,0.125-1.836,0.374
			c-0.362,0.249-0.544,0.603-0.544,1.056c0,0.396,0.142,0.708,0.425,0.935C120.014,324.476,120.461,324.589,121.073,324.589z
			 M126.873,316.82h1.938l2.635,6.9l2.737-6.9h1.904l-3.809,9.18h-1.802L126.873,316.82z M141.507,326.188
			c-0.737,0-1.406-0.118-2.006-0.356c-0.59-0.249-1.101-0.584-1.53-1.003c-0.431-0.432-0.765-0.937-1.003-1.513
			c-0.227-0.578-0.34-1.201-0.34-1.87c0-0.682,0.119-1.311,0.356-1.889c0.249-0.589,0.59-1.099,1.021-1.528
			c0.43-0.433,0.935-0.771,1.513-1.021s1.207-0.374,1.887-0.374c0.681,0,1.304,0.119,1.87,0.357c0.578,0.227,1.076,0.55,1.496,0.969
			c0.419,0.419,0.748,0.918,0.986,1.496c0.238,0.566,0.356,1.189,0.356,1.87v0.765h-7.718c0.137,0.748,0.477,1.35,1.021,1.802
			c0.544,0.442,1.241,0.663,2.091,0.663c0.646,0,1.184-0.136,1.615-0.406c0.441-0.272,0.799-0.631,1.07-1.071l1.514,0.899
			c-0.442,0.67-1.003,1.207-1.684,1.615C143.343,325.989,142.504,326.188,141.507,326.188z M141.405,318.248
			c-0.736,0-1.365,0.215-1.887,0.646c-0.521,0.421-0.873,0.965-1.054,1.634h5.797c-0.136-0.727-0.459-1.286-0.969-1.685
			C142.793,318.446,142.164,318.248,141.405,318.248z"/>
		<path fill="#EDEBFF" d="M35,96h239c5.522,0,10,4.479,10,10v15c0,5.521-4.478,10-10,10H35c-5.523,0-10-4.479-10-10v-15
			C25,100.479,29.477,96,35,96z"/>
		<path fill="#EDEBFF" d="M35,180h239c5.522,0,10,4.479,10,10v85c0,5.522-4.478,10-10,10H35c-5.523,0-10-4.478-10-10v-85
			C25,184.479,29.477,180,35,180z"/>
		<path fill="#3d6d79" d="M25.96,67.05h2.265l4.8,7.455V67.05h2.04V78h-2.1l-4.95-7.695V78H25.96V67.05z M40.729,78.165
			c-0.61,0-1.176-0.11-1.695-0.33c-0.521-0.22-0.975-0.521-1.365-0.899c-0.38-0.391-0.68-0.84-0.899-1.351
			c-0.21-0.51-0.315-1.055-0.315-1.635s0.105-1.125,0.315-1.636c0.22-0.521,0.52-0.97,0.899-1.351
			c0.391-0.38,0.845-0.68,1.365-0.899s1.085-0.33,1.695-0.33c0.6,0,1.159,0.11,1.68,0.33c0.53,0.221,0.985,0.521,1.365,0.899
			c0.39,0.381,0.694,0.83,0.915,1.351c0.22,0.511,0.33,1.056,0.33,1.636s-0.11,1.125-0.33,1.635c-0.221,0.511-0.521,0.96-0.9,1.351
			c-0.38,0.381-0.835,0.681-1.365,0.899C41.904,78.055,41.338,78.165,40.729,78.165z M40.743,76.2c0.31,0,0.6-0.062,0.87-0.181
			s0.505-0.279,0.705-0.479c0.2-0.2,0.354-0.435,0.465-0.705c0.12-0.28,0.18-0.58,0.18-0.899c0-0.311-0.06-0.604-0.18-0.886
			c-0.11-0.28-0.265-0.52-0.465-0.72c-0.2-0.2-0.436-0.359-0.705-0.48c-0.271-0.119-0.561-0.18-0.87-0.18
			c-0.309,0-0.6,0.061-0.87,0.18c-0.27,0.12-0.505,0.28-0.705,0.48s-0.359,0.439-0.479,0.72c-0.11,0.28-0.165,0.575-0.165,0.886
			c0,0.319,0.055,0.619,0.165,0.899c0.12,0.271,0.279,0.505,0.479,0.705s0.436,0.36,0.705,0.479
			C40.144,76.141,40.434,76.2,40.743,76.2z M46.376,69.9h2.07v0.959c0.25-0.351,0.564-0.625,0.945-0.824
			c0.38-0.2,0.814-0.301,1.305-0.301c0.609,0,1.12,0.121,1.53,0.36c0.409,0.229,0.725,0.564,0.944,1.005
			c0.26-0.421,0.605-0.75,1.035-0.99c0.44-0.25,0.94-0.375,1.5-0.375c1.03,0,1.8,0.295,2.311,0.886
			c0.52,0.58,0.779,1.38,0.779,2.399V78h-2.13v-4.68c0-0.551-0.12-0.98-0.36-1.29c-0.229-0.32-0.609-0.48-1.14-0.48
			c-0.47,0-0.845,0.16-1.125,0.48c-0.28,0.31-0.42,0.784-0.42,1.425V78h-2.115v-4.74c0-0.54-0.114-0.96-0.345-1.26
			s-0.6-0.45-1.11-0.45c-0.489,0-0.88,0.16-1.17,0.48c-0.279,0.319-0.42,0.81-0.42,1.47V78h-2.085L46.376,69.9L46.376,69.9z
			 M64.986,78.165c-0.54,0-1.035-0.11-1.485-0.33c-0.45-0.229-0.81-0.55-1.08-0.96V78h-2.04V66.165h2.055v4.845
			c0.271-0.39,0.62-0.699,1.051-0.93c0.439-0.23,0.935-0.346,1.484-0.346c0.511,0,1,0.101,1.471,0.301
			c0.47,0.189,0.885,0.47,1.244,0.84c0.36,0.37,0.646,0.814,0.855,1.335c0.22,0.521,0.33,1.101,0.33,1.74
			c0,0.649-0.11,1.233-0.33,1.755c-0.22,0.51-0.51,0.95-0.87,1.32c-0.36,0.369-0.774,0.653-1.245,0.854
			C65.965,78.07,65.486,78.165,64.986,78.165z M64.566,76.215c0.31,0,0.6-0.06,0.869-0.18c0.271-0.12,0.506-0.28,0.705-0.48
			c0.21-0.21,0.37-0.449,0.48-0.72c0.12-0.28,0.18-0.58,0.18-0.899s-0.06-0.615-0.18-0.886c-0.11-0.28-0.271-0.52-0.48-0.72
			c-0.199-0.21-0.435-0.375-0.705-0.495s-0.56-0.181-0.869-0.181c-0.32,0-0.62,0.061-0.9,0.181c-0.27,0.12-0.505,0.285-0.705,0.495
			c-0.2,0.2-0.36,0.439-0.479,0.72c-0.11,0.28-0.165,0.575-0.165,0.886c0,0.319,0.055,0.619,0.165,0.899
			c0.119,0.271,0.279,0.51,0.479,0.72c0.2,0.2,0.436,0.36,0.705,0.48C63.946,76.155,64.245,76.215,64.566,76.215z M70.224,69.9h2.04
			v1.244c0.2-0.479,0.49-0.83,0.87-1.05c0.39-0.229,0.845-0.346,1.365-0.346c0.27,0,0.52,0.028,0.75,0.09
			c0.24,0.062,0.445,0.136,0.615,0.226l-0.75,2.041c-0.11-0.08-0.261-0.146-0.45-0.195c-0.19-0.061-0.4-0.09-0.63-0.09
			c-0.53,0-0.955,0.148-1.275,0.449c-0.32,0.289-0.479,0.774-0.479,1.455V78h-2.056V69.9z M80.294,78.165
			c-0.65,0-1.24-0.104-1.77-0.315c-0.53-0.22-0.985-0.52-1.365-0.898c-0.37-0.38-0.655-0.825-0.855-1.335
			c-0.2-0.511-0.3-1.062-0.3-1.65s0.105-1.14,0.315-1.649c0.22-0.521,0.52-0.969,0.899-1.351c0.38-0.38,0.83-0.68,1.351-0.899
			c0.52-0.219,1.08-0.33,1.68-0.33c0.609,0,1.17,0.104,1.68,0.314c0.51,0.211,0.95,0.5,1.32,0.87c0.37,0.359,0.66,0.795,0.87,1.306
			s0.314,1.064,0.314,1.664v0.78h-6.435c0.14,0.53,0.41,0.95,0.81,1.261c0.41,0.301,0.915,0.449,1.516,0.449
			c0.479,0,0.885-0.095,1.215-0.285c0.33-0.199,0.595-0.465,0.795-0.795l1.694,0.99c-0.409,0.57-0.909,1.025-1.5,1.365
			C81.939,77.995,81.194,78.165,80.294,78.165z M80.249,71.49c-0.53,0-0.985,0.14-1.365,0.42c-0.38,0.279-0.655,0.66-0.825,1.14
			h4.32c-0.141-0.51-0.396-0.895-0.766-1.155C81.244,71.625,80.789,71.49,80.249,71.49z M92.956,78.165
			c-0.5,0-0.985-0.095-1.455-0.285c-0.471-0.2-0.885-0.485-1.245-0.854c-0.36-0.369-0.65-0.811-0.87-1.319
			c-0.22-0.521-0.33-1.104-0.33-1.755c0-0.641,0.105-1.221,0.315-1.74c0.22-0.521,0.51-0.965,0.87-1.335
			c0.359-0.37,0.774-0.649,1.244-0.84c0.48-0.2,0.98-0.302,1.5-0.302c0.54,0,1.021,0.105,1.44,0.315
			c0.43,0.21,0.785,0.505,1.065,0.886v-4.771h2.039V78H95.49v-1.109c-0.29,0.399-0.655,0.715-1.096,0.944
			C93.966,78.055,93.486,78.165,92.956,78.165z M93.361,76.215c0.32,0,0.615-0.06,0.886-0.18c0.279-0.12,0.52-0.28,0.72-0.48
			c0.2-0.21,0.354-0.449,0.465-0.72c0.12-0.28,0.18-0.58,0.18-0.899c0-0.311-0.06-0.604-0.18-0.886
			c-0.11-0.28-0.265-0.52-0.465-0.72c-0.2-0.21-0.44-0.375-0.72-0.495c-0.271-0.12-0.565-0.181-0.886-0.181
			c-0.31,0-0.604,0.061-0.885,0.181c-0.27,0.12-0.505,0.285-0.705,0.495c-0.2,0.2-0.359,0.439-0.479,0.72
			c-0.12,0.271-0.181,0.565-0.181,0.886c0,0.319,0.061,0.619,0.181,0.899c0.12,0.271,0.279,0.51,0.479,0.72
			c0.2,0.2,0.436,0.36,0.705,0.48C92.756,76.155,93.051,76.215,93.361,76.215z M103.175,78.165c-0.65,0-1.24-0.104-1.771-0.315
			c-0.529-0.22-0.984-0.52-1.364-0.898c-0.37-0.38-0.655-0.825-0.855-1.335c-0.2-0.511-0.3-1.062-0.3-1.65s0.105-1.14,0.315-1.649
			c0.22-0.521,0.52-0.969,0.899-1.351c0.38-0.38,0.83-0.68,1.351-0.899c0.52-0.219,1.079-0.33,1.68-0.33
			c0.609,0,1.17,0.104,1.68,0.314c0.51,0.211,0.95,0.5,1.32,0.87c0.37,0.359,0.66,0.795,0.87,1.306s0.314,1.064,0.314,1.664v0.78
			h-6.435c0.14,0.53,0.41,0.95,0.81,1.261c0.41,0.301,0.915,0.449,1.516,0.449c0.479,0,0.885-0.095,1.215-0.285
			c0.33-0.199,0.595-0.465,0.795-0.795l1.695,0.99c-0.41,0.57-0.91,1.025-1.5,1.365C104.82,77.995,104.075,78.165,103.175,78.165z
			 M103.13,71.49c-0.53,0-0.985,0.14-1.365,0.42c-0.38,0.279-0.655,0.66-0.825,1.14h4.32c-0.14-0.51-0.396-0.895-0.765-1.155
			C104.125,71.625,103.67,71.49,103.13,71.49z M112.192,66.18h2.07V78h-2.07V66.18z M118.404,78.165c-0.89,0-1.585-0.22-2.085-0.66
			c-0.489-0.45-0.734-1.035-0.734-1.755c0-0.85,0.325-1.516,0.975-1.995s1.54-0.72,2.67-0.72h2.13V72.93
			c0-0.438-0.145-0.795-0.435-1.063s-0.73-0.405-1.32-0.405c-0.46,0-0.845,0.096-1.154,0.285c-0.311,0.18-0.561,0.439-0.75,0.779
			l-1.905-0.944c0.41-0.54,0.92-0.979,1.53-1.32c0.619-0.35,1.385-0.524,2.295-0.524c1.199,0,2.125,0.291,2.774,0.871
			c0.65,0.58,0.976,1.385,0.976,2.414V78h-1.995v-1.245c-0.29,0.42-0.7,0.761-1.23,1.021
			C119.624,78.035,119.044,78.165,118.404,78.165z M119.004,76.455c0.25,0,0.495-0.035,0.734-0.105c0.24-0.068,0.466-0.17,0.676-0.3
			s0.395-0.284,0.555-0.465c0.17-0.18,0.305-0.38,0.405-0.601v-0.436h-1.905c-0.62,0-1.065,0.09-1.335,0.271
			c-0.26,0.18-0.39,0.43-0.39,0.75C117.744,76.16,118.164,76.455,119.004,76.455z M128.481,66.18h2.07V78h-2.07V66.18z
			 M132.202,66.18h2.069V78h-2.069V66.18z M138.413,78.165c-0.891,0-1.585-0.22-2.085-0.66c-0.49-0.45-0.735-1.035-0.735-1.755
			c0-0.85,0.325-1.516,0.975-1.995s1.54-0.72,2.67-0.72h2.131V72.93c0-0.438-0.146-0.795-0.436-1.063s-0.729-0.405-1.32-0.405
			c-0.46,0-0.845,0.096-1.154,0.285c-0.311,0.18-0.561,0.439-0.75,0.779l-1.905-0.944c0.41-0.54,0.92-0.979,1.53-1.32
			c0.62-0.35,1.385-0.524,2.295-0.524c1.2,0,2.125,0.291,2.774,0.871c0.65,0.58,0.976,1.385,0.976,2.414V78h-1.995v-1.245
			c-0.29,0.42-0.7,0.761-1.23,1.021C139.633,78.035,139.053,78.165,138.413,78.165z M139.013,76.455c0.25,0,0.495-0.035,0.735-0.105
			c0.239-0.068,0.465-0.17,0.675-0.3s0.395-0.284,0.555-0.465c0.17-0.18,0.306-0.38,0.405-0.601v-0.436h-1.905
			c-0.62,0-1.064,0.09-1.335,0.271c-0.26,0.18-0.39,0.43-0.39,0.75C137.753,76.16,138.173,76.455,139.013,76.455z M143.833,69.9
			h2.189l1.996,5.459l2.01-5.459h2.146l-3.18,8.1h-2.056L143.833,69.9z M156.715,78.165c-0.65,0-1.24-0.104-1.771-0.315
			c-0.528-0.22-0.983-0.52-1.363-0.898c-0.37-0.38-0.655-0.825-0.855-1.335c-0.199-0.511-0.3-1.062-0.3-1.65s0.104-1.14,0.315-1.649
			c0.22-0.521,0.52-0.969,0.898-1.351c0.381-0.38,0.83-0.68,1.352-0.899c0.52-0.219,1.078-0.33,1.68-0.33
			c0.609,0,1.17,0.104,1.68,0.314c0.51,0.211,0.95,0.5,1.32,0.87c0.37,0.359,0.66,0.795,0.87,1.306s0.313,1.064,0.313,1.664v0.78
			h-6.435c0.14,0.53,0.41,0.95,0.81,1.261c0.41,0.301,0.916,0.449,1.517,0.449c0.479,0,0.885-0.095,1.215-0.285
			c0.33-0.199,0.595-0.465,0.795-0.795l1.695,0.99c-0.41,0.57-0.91,1.025-1.5,1.365C158.359,77.995,157.615,78.165,156.715,78.165z
			 M156.67,71.49c-0.529,0-0.984,0.14-1.365,0.42c-0.38,0.279-0.654,0.66-0.824,1.14h4.319c-0.14-0.51-0.396-0.895-0.765-1.155
			C157.665,71.625,157.21,71.49,156.67,71.49z"/>
		<path fill="#3d6d79" d="M25.96,151.05h3.54c0.87,0,1.654,0.142,2.354,0.42c0.71,0.28,1.311,0.665,1.8,1.155
			c0.5,0.49,0.886,1.07,1.155,1.74c0.271,0.66,0.405,1.38,0.405,2.16c0,0.778-0.146,1.505-0.436,2.175
			c-0.279,0.67-0.675,1.25-1.185,1.739c-0.5,0.479-1.095,0.859-1.785,1.141c-0.689,0.279-1.444,0.42-2.265,0.42H25.96V151.05z
			 M28.09,153.016v7.004h1.32c0.55,0,1.05-0.09,1.5-0.27c0.46-0.18,0.845-0.425,1.154-0.734c0.32-0.319,0.565-0.689,0.735-1.109
			c0.18-0.432,0.27-0.891,0.27-1.381c0-0.5-0.085-0.965-0.255-1.396c-0.16-0.43-0.399-0.8-0.72-1.11
			c-0.31-0.318-0.695-0.563-1.155-0.733c-0.46-0.181-0.989-0.271-1.59-0.271H28.09z M40.729,162.165c-0.65,0-1.24-0.104-1.77-0.315
			c-0.53-0.22-0.985-0.52-1.365-0.898c-0.37-0.38-0.655-0.825-0.855-1.335c-0.2-0.511-0.3-1.062-0.3-1.65s0.105-1.14,0.315-1.649
			c0.22-0.521,0.52-0.971,0.899-1.351c0.379-0.38,0.83-0.68,1.351-0.899c0.52-0.221,1.08-0.329,1.68-0.329
			c0.61,0,1.17,0.104,1.68,0.313c0.511,0.211,0.95,0.5,1.32,0.87c0.37,0.36,0.66,0.795,0.87,1.306
			c0.21,0.511,0.314,1.064,0.314,1.664v0.78h-6.435c0.14,0.53,0.41,0.95,0.81,1.261c0.41,0.301,0.915,0.449,1.516,0.449
			c0.479,0,0.885-0.095,1.215-0.285c0.33-0.199,0.595-0.465,0.795-0.795l1.695,0.99c-0.41,0.57-0.91,1.025-1.5,1.365
			C42.374,161.996,41.629,162.165,40.729,162.165z M40.684,155.49c-0.53,0-0.985,0.14-1.365,0.42c-0.38,0.279-0.655,0.66-0.825,1.14
			h4.32c-0.14-0.51-0.395-0.895-0.765-1.155C41.679,155.625,41.224,155.49,40.684,155.49z M49.455,162.165
			c-0.971,0-1.766-0.17-2.386-0.51c-0.609-0.352-1.074-0.852-1.395-1.5l1.995-0.78c0.359,0.73,0.979,1.095,1.859,1.095
			c0.42,0,0.74-0.085,0.96-0.255c0.221-0.18,0.33-0.39,0.33-0.63c0-0.149-0.05-0.271-0.149-0.36c-0.101-0.1-0.24-0.18-0.42-0.238
			c-0.17-0.07-0.37-0.131-0.601-0.182c-0.229-0.05-0.475-0.1-0.734-0.148c-0.341-0.07-0.686-0.155-1.035-0.256
			c-0.34-0.101-0.65-0.239-0.931-0.42c-0.27-0.181-0.489-0.404-0.659-0.676c-0.17-0.279-0.256-0.635-0.256-1.063
			c0-0.341,0.08-0.665,0.24-0.976s0.385-0.58,0.675-0.811c0.29-0.23,0.636-0.41,1.035-0.54c0.41-0.14,0.865-0.21,1.365-0.21
			c0.86,0,1.56,0.154,2.1,0.465c0.54,0.3,1,0.721,1.381,1.26l-1.891,0.766c-0.17-0.271-0.385-0.479-0.645-0.629
			c-0.25-0.15-0.565-0.227-0.945-0.227c-0.41,0-0.715,0.075-0.915,0.227c-0.189,0.14-0.285,0.324-0.285,0.555
			c0,0.26,0.16,0.445,0.48,0.555c0.319,0.102,0.774,0.215,1.365,0.346c0.34,0.069,0.68,0.154,1.02,0.256
			c0.35,0.1,0.665,0.244,0.945,0.435c0.29,0.181,0.524,0.415,0.705,0.705c0.18,0.29,0.27,0.649,0.27,1.08
			c0,0.319-0.07,0.64-0.21,0.96c-0.14,0.311-0.354,0.595-0.645,0.854c-0.29,0.25-0.655,0.455-1.096,0.615
			C50.555,162.085,50.045,162.165,49.455,162.165z M58.218,162.165c-0.609,0-1.175-0.11-1.694-0.33
			c-0.521-0.22-0.971-0.521-1.351-0.899c-0.38-0.381-0.68-0.824-0.899-1.336c-0.21-0.51-0.315-1.06-0.315-1.648
			c0-0.602,0.105-1.155,0.315-1.665c0.22-0.511,0.52-0.955,0.899-1.335c0.391-0.38,0.84-0.676,1.351-0.885
			c0.52-0.221,1.08-0.33,1.68-0.33c0.47,0,0.91,0.063,1.32,0.193c0.409,0.12,0.779,0.295,1.109,0.525
			c0.34,0.22,0.635,0.49,0.885,0.811c0.261,0.311,0.471,0.654,0.631,1.034l-1.905,0.767c-0.17-0.44-0.43-0.78-0.78-1.021
			c-0.35-0.25-0.76-0.375-1.229-0.375c-0.311,0-0.601,0.061-0.87,0.18c-0.271,0.121-0.505,0.285-0.705,0.496
			c-0.2,0.199-0.36,0.439-0.48,0.721c-0.109,0.279-0.165,0.574-0.165,0.885s0.056,0.6,0.165,0.87c0.12,0.27,0.28,0.51,0.48,0.72
			c0.21,0.2,0.45,0.359,0.72,0.479c0.271,0.121,0.561,0.182,0.87,0.182c0.48,0,0.89-0.13,1.23-0.391
			c0.35-0.261,0.609-0.601,0.779-1.021l1.936,0.795c-0.351,0.75-0.86,1.37-1.53,1.86C60.003,161.925,59.189,162.165,58.218,162.165z
			 M63.412,153.9h2.04v1.244c0.2-0.479,0.49-0.83,0.87-1.051c0.39-0.229,0.845-0.345,1.365-0.345c0.27,0,0.52,0.03,0.75,0.09
			c0.24,0.062,0.444,0.136,0.615,0.226l-0.75,2.041c-0.11-0.08-0.261-0.146-0.45-0.195c-0.19-0.061-0.4-0.09-0.63-0.09
			c-0.53,0-0.955,0.148-1.275,0.449c-0.32,0.289-0.48,0.774-0.48,1.455V162h-2.055V153.9z M70.121,153.9h2.115v8.1h-2.115V153.9z
			 M69.852,151.62c0-0.39,0.125-0.71,0.375-0.96c0.25-0.26,0.564-0.391,0.944-0.391c0.4,0,0.721,0.131,0.96,0.391
			c0.25,0.25,0.375,0.57,0.375,0.96c0,0.38-0.125,0.694-0.375,0.944c-0.239,0.25-0.56,0.375-0.96,0.375
			c-0.39,0-0.71-0.125-0.96-0.375C69.972,152.314,69.852,152,69.852,151.62z M78.462,162.165c-0.55,0-1.045-0.095-1.485-0.285
			c-0.439-0.2-0.795-0.489-1.064-0.87v4.23h-2.056V153.9h2.04v1.125c0.271-0.4,0.625-0.717,1.065-0.945
			c0.439-0.23,0.935-0.346,1.484-0.346c0.511,0,1,0.101,1.471,0.301c0.47,0.189,0.885,0.47,1.245,0.84
			c0.359,0.37,0.645,0.814,0.854,1.335c0.22,0.521,0.33,1.101,0.33,1.74c0,0.649-0.11,1.233-0.33,1.755
			c-0.22,0.51-0.51,0.949-0.87,1.32c-0.359,0.369-0.774,0.653-1.245,0.854C79.442,162.07,78.962,162.165,78.462,162.165z
			 M78.042,160.215c0.31,0,0.6-0.06,0.87-0.18s0.505-0.28,0.704-0.48c0.21-0.21,0.37-0.449,0.48-0.72
			c0.12-0.28,0.18-0.58,0.18-0.899s-0.06-0.615-0.18-0.886c-0.11-0.28-0.271-0.52-0.48-0.72c-0.199-0.21-0.435-0.375-0.704-0.495
			c-0.271-0.12-0.561-0.18-0.87-0.18c-0.32,0-0.62,0.06-0.9,0.18c-0.27,0.12-0.505,0.285-0.705,0.495
			c-0.2,0.2-0.36,0.439-0.479,0.72c-0.11,0.28-0.165,0.575-0.165,0.886c0,0.319,0.055,0.619,0.165,0.899
			c0.119,0.271,0.279,0.51,0.479,0.72c0.2,0.2,0.436,0.36,0.705,0.48C77.422,160.155,77.722,160.215,78.042,160.215z M87.72,162.165
			c-0.61,0-1.175-0.11-1.695-0.33s-0.97-0.521-1.35-0.899c-0.38-0.381-0.68-0.824-0.9-1.336c-0.21-0.51-0.314-1.06-0.314-1.648
			c0-0.602,0.104-1.155,0.314-1.665c0.221-0.511,0.521-0.955,0.9-1.335c0.39-0.38,0.84-0.676,1.35-0.885
			c0.521-0.221,1.08-0.33,1.681-0.33c0.47,0,0.91,0.063,1.319,0.193c0.41,0.12,0.78,0.295,1.11,0.525
			c0.34,0.22,0.635,0.49,0.885,0.811c0.26,0.311,0.471,0.654,0.63,1.034l-1.904,0.767c-0.17-0.44-0.431-0.78-0.78-1.021
			c-0.35-0.25-0.76-0.375-1.23-0.375c-0.31,0-0.6,0.061-0.869,0.18c-0.271,0.121-0.506,0.285-0.705,0.496
			c-0.2,0.199-0.36,0.439-0.48,0.721c-0.11,0.279-0.165,0.574-0.165,0.885s0.055,0.6,0.165,0.87c0.12,0.27,0.28,0.51,0.48,0.72
			c0.21,0.2,0.449,0.359,0.72,0.479c0.27,0.121,0.56,0.182,0.87,0.182c0.479,0,0.89-0.13,1.229-0.391
			c0.351-0.261,0.61-0.601,0.78-1.021l1.935,0.795c-0.35,0.75-0.859,1.37-1.529,1.86C89.505,161.925,88.69,162.165,87.72,162.165z
			 M92.914,153.9h2.114v8.1h-2.114V153.9z M92.644,151.62c0-0.39,0.125-0.71,0.375-0.96c0.25-0.26,0.565-0.391,0.945-0.391
			c0.399,0,0.72,0.131,0.96,0.391c0.25,0.25,0.375,0.57,0.375,0.96c0,0.38-0.125,0.694-0.375,0.944
			c-0.24,0.25-0.561,0.375-0.96,0.375c-0.39,0-0.71-0.125-0.96-0.375C92.764,152.314,92.644,152,92.644,151.62z M100.67,162.165
			c-0.61,0-1.175-0.11-1.695-0.33s-0.975-0.521-1.365-0.899c-0.38-0.391-0.68-0.84-0.899-1.351c-0.21-0.51-0.315-1.055-0.315-1.635
			s0.105-1.125,0.315-1.636c0.22-0.521,0.52-0.971,0.899-1.351c0.391-0.38,0.846-0.68,1.365-0.899
			c0.521-0.221,1.085-0.33,1.695-0.33c0.6,0,1.16,0.109,1.68,0.33c0.53,0.221,0.985,0.521,1.365,0.899
			c0.39,0.38,0.695,0.83,0.915,1.351c0.22,0.511,0.33,1.056,0.33,1.636s-0.11,1.125-0.33,1.635c-0.22,0.511-0.521,0.96-0.9,1.351
			c-0.38,0.381-0.835,0.681-1.365,0.899C101.845,162.055,101.28,162.165,100.67,162.165z M100.685,160.2
			c0.311,0,0.601-0.062,0.87-0.181c0.271-0.119,0.505-0.279,0.705-0.479c0.2-0.2,0.354-0.435,0.465-0.705
			c0.12-0.28,0.18-0.58,0.18-0.899c0-0.311-0.06-0.604-0.18-0.886c-0.11-0.28-0.265-0.52-0.465-0.72
			c-0.2-0.2-0.435-0.359-0.705-0.48c-0.27-0.119-0.56-0.18-0.87-0.18s-0.6,0.061-0.87,0.18c-0.27,0.12-0.505,0.28-0.705,0.48
			c-0.199,0.2-0.359,0.439-0.479,0.72c-0.11,0.28-0.165,0.575-0.165,0.886c0,0.319,0.055,0.619,0.165,0.899
			c0.12,0.271,0.28,0.505,0.479,0.705c0.2,0.2,0.436,0.36,0.705,0.479C100.085,160.141,100.375,160.2,100.685,160.2z M101.39,150.33
			h2.115l-2.266,2.564h-1.56L101.39,150.33z M106.318,153.9h2.07v1.02c0.26-0.37,0.59-0.66,0.99-0.87
			c0.41-0.21,0.87-0.313,1.38-0.313c0.96,0,1.72,0.3,2.28,0.898c0.569,0.59,0.854,1.415,0.854,2.477V162h-2.115v-4.575
			c0-0.58-0.14-1.034-0.42-1.364c-0.27-0.341-0.68-0.511-1.229-0.511c-0.49,0-0.9,0.175-1.23,0.525
			c-0.33,0.34-0.495,0.825-0.495,1.454V162h-2.085V153.9L106.318,153.9z"/>
		<path fill="#3d6d79" d="M261,0h50v54c0,13.807-11.193,25-25,25c-13.809,0-25-11.193-25-25V0z"/>
		<path fill="#FFFFFF" d="M276.05,42h18.899c1.074,0,2.104,0.436,2.863,1.208c0.76,0.774,1.188,1.823,1.188,2.917v5.5h-9.45V50.25
			h-8.101v1.375H272v-5.5c0-1.094,0.427-2.143,1.186-2.917C273.945,42.436,274.977,42,276.05,42z M284.15,51.625h2.699v2.75h-2.699
			V51.625z M272,53h9.449v1.375l2.7,2.75h2.699l2.7-2.75V53H299v11h-27V53z"/>
	</g>
</g>
<g id="Capa_2">
</g>
</svg>
