<?xml version="1.0" encoding="utf-8"?>
<!-- Generator: Adobe Illustrator 16.0.3, SVG Export Plug-In . SVG Version: 6.00 Build 0)  -->
<!DOCTYPE svg PUBLIC "-//W3C//DTD SVG 1.1//EN" "http://www.w3.org/Graphics/SVG/1.1/DTD/svg11.dtd">
<svg version="1.1" id="Capa_1" xmlns="http://www.w3.org/2000/svg" xmlns:xlink="http://www.w3.org/1999/xlink" x="0px" y="0px"
	 width="180px" height="200px" viewBox="0 0 180 200" enable-background="new 0 0 180 200" xml:space="preserve">
<g>
	<path fill="#BDBDBD" d="M10,0h160c5.521,0,10,4.477,10,10v180c0,5.521-4.479,10-10,10H10c-5.523,0-10-4.479-10-10V10
		C0,4.477,4.477,0,10,0z"/>
	<path fill="#FFFFFF" d="M20,30h140c5.521,0,10,4.477,10,10v11c0,5.521-4.479,10-10,10H20c-5.523,0-10-4.479-10-10V40
		C10,34.477,14.477,30,20,30z"/>
	<path fill="#FFFFFF" d="M74.5,105.3c-1.859,0-3.439-0.37-4.74-1.11c-1.28-0.76-2.301-1.75-3.061-2.97l4.109-2.311
		c0.301,0.699,0.75,1.29,1.352,1.771c0.619,0.46,1.398,0.689,2.34,0.689c0.479,0,0.93-0.091,1.352-0.271
		c0.42-0.18,0.777-0.42,1.078-0.72c0.32-0.32,0.57-0.69,0.75-1.11c0.182-0.439,0.271-0.92,0.271-1.439
		c0-1.079-0.33-1.949-0.99-2.609c-0.641-0.66-1.49-0.99-2.551-0.99c-0.859,0-1.58,0.21-2.16,0.63s-1.039,0.94-1.379,1.562
		L66.94,94.83l1.771-11.729h12.09v3.93h-8.82l-0.75,4.62c0.461-0.359,1-0.66,1.621-0.898c0.639-0.24,1.359-0.36,2.158-0.36
		c1.021,0,1.971,0.17,2.852,0.51c0.898,0.32,1.67,0.801,2.311,1.44s1.141,1.43,1.5,2.37c0.379,0.92,0.568,1.989,0.568,3.21
		c0,1.08-0.189,2.068-0.568,2.97c-0.381,0.899-0.91,1.68-1.59,2.34c-0.682,0.66-1.5,1.17-2.461,1.53
		C76.68,105.119,75.641,105.3,74.5,105.3z M101.16,101.25c0.66,0,1.26-0.102,1.799-0.301c0.541-0.221,0.99-0.591,1.352-1.109
		c0.379-0.54,0.67-1.25,0.869-2.13c0.199-0.881,0.301-1.99,0.301-3.33v-0.9c0-1.319-0.111-2.41-0.33-3.27
		c-0.201-0.86-0.49-1.54-0.871-2.04c-0.359-0.5-0.811-0.852-1.35-1.051c-0.52-0.199-1.1-0.301-1.74-0.301
		c-0.66,0-1.26,0.11-1.801,0.33c-0.52,0.2-0.969,0.562-1.35,1.08c-0.379,0.5-0.68,1.181-0.9,2.04
		c-0.199,0.86-0.299,1.931-0.299,3.21v0.9c0,1.358,0.1,2.479,0.299,3.358c0.201,0.881,0.48,1.58,0.842,2.102
		c0.379,0.52,0.84,0.89,1.379,1.108C99.9,101.149,100.5,101.25,101.16,101.25z M101.16,105.3c-1.26,0-2.42-0.19-3.48-0.57
		c-1.041-0.399-1.939-1.029-2.699-1.89c-0.74-0.86-1.32-1.98-1.74-3.36s-0.631-3.06-0.631-5.04v-1.02c0-1.9,0.221-3.521,0.66-4.86
		s1.041-2.439,1.801-3.3c0.779-0.86,1.689-1.48,2.729-1.86c1.041-0.398,2.16-0.6,3.361-0.6c1.219,0,2.352,0.2,3.389,0.6
		c1.063,0.4,1.973,1.03,2.73,1.891c0.76,0.859,1.359,1.961,1.801,3.301c0.439,1.34,0.66,2.949,0.66,4.83v1.02
		c0,2.021-0.211,3.721-0.631,5.101c-0.42,1.381-1.01,2.5-1.77,3.359c-0.76,0.841-1.67,1.45-2.73,1.83
		C103.57,105.109,102.42,105.3,101.16,105.3z M121.346,101.25c0.66,0,1.26-0.102,1.801-0.301c0.539-0.221,0.988-0.591,1.35-1.109
		c0.379-0.54,0.67-1.25,0.869-2.13c0.201-0.881,0.301-1.99,0.301-3.33v-0.9c0-1.319-0.109-2.41-0.33-3.27
		c-0.201-0.86-0.488-1.54-0.871-2.04c-0.357-0.5-0.809-0.852-1.35-1.051c-0.52-0.199-1.1-0.301-1.74-0.301
		c-0.66,0-1.26,0.11-1.799,0.33c-0.52,0.2-0.971,0.562-1.35,1.08c-0.381,0.5-0.682,1.181-0.9,2.04
		c-0.201,0.86-0.301,1.931-0.301,3.21v0.9c0,1.358,0.1,2.479,0.301,3.358c0.199,0.881,0.48,1.58,0.84,2.102
		c0.379,0.52,0.84,0.89,1.379,1.108C120.086,101.149,120.686,101.25,121.346,101.25z M121.346,105.3c-1.26,0-2.42-0.19-3.48-0.57
		c-1.039-0.399-1.939-1.029-2.699-1.89c-0.74-0.86-1.318-1.98-1.74-3.36c-0.42-1.38-0.631-3.06-0.631-5.04v-1.02
		c0-1.9,0.223-3.521,0.66-4.86c0.441-1.34,1.041-2.439,1.801-3.3c0.779-0.86,1.689-1.48,2.73-1.86c1.039-0.398,2.16-0.6,3.359-0.6
		c1.221,0,2.35,0.2,3.391,0.6c1.059,0.4,1.969,1.03,2.729,1.891c0.764,0.859,1.361,1.961,1.803,3.301
		c0.439,1.34,0.658,2.949,0.658,4.83v1.02c0,2.021-0.211,3.721-0.631,5.101c-0.42,1.381-1.01,2.5-1.77,3.359
		c-0.76,0.841-1.67,1.45-2.73,1.83C123.756,105.109,122.605,105.3,121.346,105.3z M141.531,101.25c0.66,0,1.26-0.102,1.799-0.301
		c0.541-0.221,0.99-0.591,1.35-1.109c0.381-0.54,0.67-1.25,0.871-2.13c0.199-0.881,0.299-1.99,0.299-3.33v-0.9
		c0-1.319-0.109-2.41-0.33-3.27c-0.199-0.86-0.488-1.54-0.869-2.04c-0.359-0.5-0.811-0.852-1.35-1.051
		c-0.52-0.199-1.1-0.301-1.74-0.301c-0.66,0-1.26,0.11-1.801,0.33c-0.52,0.2-0.969,0.562-1.35,1.08c-0.379,0.5-0.68,1.181-0.9,2.04
		c-0.199,0.86-0.299,1.931-0.299,3.21v0.9c0,1.358,0.1,2.479,0.299,3.358c0.201,0.881,0.48,1.58,0.842,2.102
		c0.379,0.52,0.84,0.89,1.379,1.108C140.271,101.149,140.871,101.25,141.531,101.25z M141.531,105.3c-1.26,0-2.42-0.19-3.48-0.57
		c-1.041-0.399-1.939-1.029-2.699-1.89c-0.74-0.86-1.32-1.98-1.74-3.36s-0.631-3.06-0.631-5.04v-1.02c0-1.9,0.221-3.521,0.66-4.86
		s1.039-2.439,1.801-3.3c0.779-0.86,1.689-1.48,2.729-1.86c1.041-0.398,2.16-0.6,3.361-0.6c1.219,0,2.35,0.2,3.389,0.6
		c1.063,0.4,1.973,1.03,2.73,1.891c0.76,0.859,1.359,1.961,1.801,3.301c0.439,1.34,0.66,2.949,0.66,4.83v1.02
		c0,2.021-0.211,3.721-0.631,5.101c-0.42,1.381-1.01,2.5-1.77,3.359c-0.76,0.841-1.67,1.45-2.73,1.83
		C143.941,105.109,142.791,105.3,141.531,105.3z M63.119,99.43c0,0.76-0.129,1.5-0.39,2.22c-0.239,0.721-0.601,1.38-1.08,1.98
		c-0.479,0.6-1.08,1.12-1.8,1.56c-0.7,0.44-1.51,0.75-2.43,0.931v3.479h-4.141v-3.479c-1.439-0.239-2.68-0.71-3.72-1.409
		c-1.021-0.7-1.91-1.5-2.67-2.4l3.72-2.91c0.561,0.94,1.27,1.66,2.131,2.16c0.859,0.5,1.76,0.75,2.699,0.75
		c1.02,0,1.83-0.271,2.43-0.81c0.621-0.562,0.93-1.222,0.93-1.98c0-0.46-0.129-0.85-0.389-1.17c-0.261-0.32-0.611-0.59-1.051-0.811
		c-0.42-0.221-0.91-0.409-1.47-0.569c-0.54-0.181-1.101-0.351-1.681-0.51c-0.719-0.2-1.459-0.45-2.219-0.75
		c-0.761-0.301-1.451-0.682-2.07-1.142c-0.621-0.479-1.131-1.068-1.53-1.77c-0.399-0.721-0.601-1.61-0.601-2.67
		c0-0.761,0.131-1.471,0.391-2.13c0.26-0.682,0.63-1.29,1.109-1.83c0.48-0.54,1.051-0.99,1.711-1.352
		c0.66-0.38,1.399-0.659,2.22-0.84v-3.18h4.11v3.18c1.199,0.221,2.219,0.61,3.06,1.17c0.86,0.562,1.61,1.221,2.25,1.98l-3.42,2.608
		c-0.46-0.72-1.04-1.27-1.74-1.648c-0.681-0.4-1.45-0.602-2.31-0.602c-0.94,0-1.7,0.23-2.28,0.69c-0.56,0.46-0.841,1.04-0.841,1.74
		c0,0.438,0.121,0.81,0.361,1.108c0.239,0.28,0.569,0.53,0.989,0.75c0.42,0.2,0.899,0.392,1.44,0.57c0.56,0.16,1.15,0.33,1.77,0.51
		c0.74,0.24,1.49,0.521,2.25,0.84c0.78,0.302,1.48,0.7,2.1,1.2c0.641,0.5,1.16,1.12,1.561,1.86
		C62.918,97.479,63.119,98.369,63.119,99.43z M73.875,106.3c-1.859,0-3.439-0.37-4.739-1.11c-1.28-0.76-2.3-1.75-3.06-2.97
		l4.109-2.311c0.3,0.699,0.75,1.29,1.35,1.771c0.621,0.46,1.4,0.689,2.34,0.689c0.48,0,0.932-0.091,1.352-0.271
		s0.779-0.42,1.08-0.72c0.318-0.32,0.568-0.69,0.75-1.11c0.18-0.439,0.27-0.92,0.27-1.439c0-1.079-0.33-1.949-0.99-2.609
		c-0.641-0.66-1.49-0.99-2.551-0.99c-0.859,0-1.58,0.21-2.16,0.63s-1.039,0.94-1.379,1.562l-3.931-1.591l1.771-11.729h12.09v3.93
		h-8.82l-0.75,4.62c0.461-0.359,1-0.66,1.621-0.898c0.639-0.24,1.359-0.36,2.16-0.36c1.02,0,1.969,0.17,2.85,0.51
		c0.9,0.32,1.67,0.801,2.309,1.44c0.641,0.64,1.141,1.43,1.5,2.37c0.381,0.92,0.57,1.989,0.57,3.21c0,1.08-0.189,2.068-0.57,2.97
		c-0.379,0.899-0.908,1.68-1.59,2.34c-0.68,0.66-1.5,1.17-2.459,1.53C76.057,106.119,75.018,106.3,73.875,106.3z M84.041,103.779
		c0-0.76,0.24-1.39,0.721-1.89c0.5-0.5,1.129-0.75,1.889-0.75s1.381,0.25,1.861,0.75c0.5,0.5,0.75,1.13,0.75,1.89
		c0,0.761-0.25,1.392-0.75,1.892c-0.48,0.5-1.102,0.75-1.861,0.75c-0.779,0-1.41-0.25-1.889-0.75
		C84.281,105.171,84.041,104.539,84.041,103.779z M100.537,102.25c0.66,0,1.26-0.102,1.799-0.301
		c0.541-0.221,0.99-0.591,1.352-1.109c0.379-0.54,0.67-1.25,0.869-2.13c0.199-0.881,0.301-1.99,0.301-3.33v-0.9
		c0-1.319-0.111-2.41-0.33-3.27c-0.201-0.86-0.49-1.54-0.871-2.04c-0.359-0.5-0.811-0.852-1.35-1.051
		c-0.52-0.199-1.1-0.301-1.74-0.301c-0.66,0-1.26,0.11-1.799,0.33c-0.521,0.2-0.971,0.562-1.352,1.08
		c-0.379,0.5-0.68,1.181-0.898,2.04c-0.201,0.86-0.301,1.931-0.301,3.21v0.9c0,1.358,0.1,2.479,0.301,3.358
		c0.199,0.881,0.479,1.58,0.84,2.102c0.379,0.52,0.84,0.89,1.379,1.108C99.277,102.149,99.877,102.25,100.537,102.25z
		 M100.537,106.3c-1.26,0-2.42-0.19-3.48-0.57c-1.039-0.399-1.939-1.029-2.699-1.89c-0.74-0.86-1.32-1.98-1.74-3.36
		s-0.631-3.06-0.631-5.04v-1.02c0-1.9,0.221-3.521,0.66-4.86s1.041-2.439,1.801-3.3c0.779-0.86,1.689-1.48,2.729-1.86
		c1.041-0.398,2.16-0.6,3.361-0.6c1.219,0,2.352,0.2,3.389,0.6c1.063,0.4,1.973,1.03,2.73,1.891c0.76,0.859,1.361,1.961,1.801,3.301
		c0.441,1.34,0.66,2.949,0.66,4.83v1.02c0,2.021-0.211,3.721-0.631,5.101c-0.42,1.381-1.01,2.5-1.77,3.359
		c-0.76,0.841-1.67,1.45-2.73,1.83C102.947,106.109,101.797,106.3,100.537,106.3z M120.723,102.25c0.66,0,1.26-0.102,1.801-0.301
		c0.539-0.221,0.988-0.591,1.35-1.109c0.379-0.54,0.67-1.25,0.869-2.13c0.201-0.881,0.301-1.99,0.301-3.33v-0.9
		c0-1.319-0.107-2.41-0.33-3.27c-0.199-0.86-0.488-1.54-0.871-2.04c-0.357-0.5-0.809-0.852-1.35-1.051
		c-0.52-0.199-1.1-0.301-1.74-0.301c-0.66,0-1.26,0.11-1.799,0.33c-0.52,0.2-0.971,0.562-1.35,1.08c-0.381,0.5-0.682,1.181-0.9,2.04
		c-0.201,0.86-0.301,1.931-0.301,3.21v0.9c0,1.358,0.1,2.479,0.301,3.358c0.199,0.881,0.48,1.58,0.84,2.102
		c0.379,0.52,0.84,0.89,1.379,1.108C119.463,102.149,120.063,102.25,120.723,102.25z M120.723,106.3c-1.26,0-2.42-0.19-3.48-0.57
		c-1.039-0.399-1.938-1.029-2.699-1.89c-0.738-0.86-1.318-1.98-1.738-3.36c-0.422-1.38-0.633-3.06-0.633-5.04v-1.02
		c0-1.9,0.223-3.521,0.66-4.86c0.441-1.34,1.041-2.439,1.801-3.3c0.779-0.86,1.689-1.48,2.73-1.86c1.039-0.398,2.16-0.6,3.359-0.6
		c1.221,0,2.35,0.2,3.391,0.6c1.059,0.4,1.969,1.03,2.729,1.891c0.764,0.859,1.361,1.961,1.803,3.301
		c0.439,1.34,0.66,2.949,0.66,4.83v1.02c0,2.021-0.213,3.721-0.633,5.101c-0.42,1.381-1.01,2.5-1.77,3.359
		c-0.76,0.841-1.67,1.45-2.73,1.83C123.133,106.109,121.982,106.3,120.723,106.3z M140.908,102.25c0.66,0,1.26-0.102,1.799-0.301
		c0.541-0.221,0.99-0.591,1.352-1.109c0.379-0.54,0.67-1.25,0.869-2.13c0.199-0.881,0.301-1.99,0.301-3.33v-0.9
		c0-1.319-0.111-2.41-0.33-3.27c-0.201-0.86-0.49-1.54-0.871-2.04c-0.359-0.5-0.811-0.852-1.35-1.051
		c-0.52-0.199-1.1-0.301-1.74-0.301c-0.66,0-1.26,0.11-1.801,0.33c-0.52,0.2-0.969,0.562-1.35,1.08c-0.379,0.5-0.68,1.181-0.9,2.04
		c-0.199,0.86-0.299,1.931-0.299,3.21v0.9c0,1.358,0.1,2.479,0.299,3.358c0.201,0.881,0.48,1.58,0.842,2.102
		c0.379,0.52,0.84,0.89,1.379,1.108C139.648,102.149,140.248,102.25,140.908,102.25z M140.908,106.3c-1.26,0-2.42-0.19-3.48-0.57
		c-1.041-0.399-1.939-1.029-2.699-1.89c-0.74-0.86-1.32-1.98-1.74-3.36s-0.631-3.06-0.631-5.04v-1.02c0-1.9,0.221-3.521,0.66-4.86
		s1.041-2.439,1.801-3.3c0.779-0.86,1.689-1.48,2.729-1.86c1.041-0.398,2.16-0.6,3.361-0.6c1.219,0,2.35,0.2,3.389,0.6
		c1.063,0.4,1.973,1.03,2.73,1.891c0.76,0.859,1.359,1.961,1.801,3.301c0.439,1.34,0.66,2.949,0.66,4.83v1.02
		c0,2.021-0.211,3.721-0.631,5.101c-0.42,1.381-1.01,2.5-1.77,3.359c-0.76,0.841-1.67,1.45-2.73,1.83
		C143.318,106.109,142.168,106.3,140.908,106.3z"/>
	<path fill="#BDBDBD" d="M29.553,39.05h2.086L35.777,50h-2.174l-0.721-1.995h-4.574L27.588,50h-2.175L29.553,39.05z M29.014,46.085
		h3.164l-1.574-4.352L29.014,46.085z M39.983,50.119c-0.5,0-0.983-0.096-1.455-0.284c-0.469-0.2-0.885-0.48-1.243-0.841
		c-0.361-0.369-0.65-0.811-0.871-1.319c-0.22-0.521-0.33-1.101-0.33-1.74c0-0.639,0.104-1.22,0.315-1.74
		c0.22-0.52,0.511-0.96,0.869-1.318c0.36-0.37,0.774-0.65,1.246-0.841c0.479-0.199,0.979-0.301,1.5-0.301
		c0.539,0,1.024,0.11,1.455,0.33c0.438,0.221,0.795,0.521,1.063,0.9v-1.065h2.07v7.5c0,0.59-0.105,1.13-0.314,1.62
		c-0.211,0.5-0.506,0.931-0.887,1.29c-0.369,0.36-0.814,0.641-1.334,0.84c-0.521,0.21-1.09,0.315-1.711,0.315
		c-0.93,0-1.709-0.136-2.34-0.405c-0.629-0.26-1.174-0.66-1.635-1.2l1.711-1.335c0.27,0.352,0.568,0.62,0.898,0.812
		c0.33,0.188,0.766,0.284,1.305,0.284c0.33,0,0.631-0.056,0.9-0.165c0.271-0.101,0.506-0.244,0.704-0.436
		c0.201-0.189,0.354-0.42,0.466-0.689c0.11-0.261,0.166-0.551,0.166-0.869v-0.615c-0.291,0.399-0.656,0.715-1.097,0.944
		C41,50.01,40.516,50.119,39.983,50.119z M40.391,48.199c0.318,0,0.613-0.061,0.885-0.181c0.279-0.12,0.52-0.28,0.721-0.479
		c0.199-0.21,0.354-0.449,0.465-0.721c0.119-0.279,0.181-0.58,0.181-0.898c0-0.32-0.062-0.615-0.181-0.886
		c-0.11-0.279-0.266-0.521-0.465-0.721c-0.201-0.21-0.44-0.375-0.721-0.495c-0.271-0.12-0.564-0.18-0.885-0.18
		c-0.311,0-0.605,0.06-0.887,0.18c-0.271,0.11-0.504,0.271-0.705,0.48c-0.199,0.2-0.359,0.438-0.479,0.72
		c-0.119,0.28-0.18,0.58-0.18,0.9c0,0.318,0.061,0.619,0.18,0.898c0.119,0.271,0.279,0.511,0.479,0.721
		c0.201,0.199,0.436,0.359,0.705,0.479C39.785,48.14,40.08,48.199,40.391,48.199z M46.242,41.899h2.039v1.245
		c0.2-0.479,0.489-0.83,0.87-1.05c0.39-0.23,0.845-0.345,1.365-0.345c0.271,0,0.521,0.028,0.75,0.09
		c0.239,0.06,0.444,0.135,0.614,0.225l-0.75,2.04c-0.11-0.08-0.26-0.145-0.45-0.194c-0.188-0.061-0.399-0.091-0.63-0.091
		c-0.53,0-0.954,0.15-1.274,0.45c-0.319,0.29-0.479,0.775-0.479,1.455V50h-2.055V41.899z M56.313,50.164
		c-0.65,0-1.24-0.104-1.771-0.314c-0.529-0.22-0.984-0.521-1.365-0.899c-0.369-0.381-0.654-0.824-0.854-1.336
		c-0.199-0.51-0.301-1.06-0.301-1.648s0.105-1.141,0.314-1.65c0.221-0.52,0.521-0.97,0.899-1.35c0.382-0.38,0.83-0.681,1.351-0.9
		c0.521-0.219,1.08-0.33,1.682-0.33c0.609,0,1.17,0.105,1.68,0.315s0.949,0.5,1.32,0.87c0.369,0.358,0.658,0.795,0.869,1.305
		s0.314,1.064,0.314,1.665v0.78h-6.435c0.14,0.529,0.409,0.949,0.81,1.26c0.409,0.3,0.916,0.45,1.516,0.45
		c0.479,0,0.885-0.096,1.215-0.285c0.33-0.2,0.596-0.465,0.795-0.795l1.695,0.989c-0.41,0.569-0.91,1.024-1.5,1.364
		C57.957,49.995,57.211,50.164,56.313,50.164z M56.268,43.489c-0.531,0-0.984,0.142-1.365,0.421s-0.654,0.659-0.824,1.141h4.318
		c-0.141-0.511-0.395-0.896-0.766-1.155C57.262,43.625,56.807,43.489,56.268,43.489z M65.457,50.119c-0.5,0-0.984-0.096-1.455-0.284
		c-0.469-0.2-0.885-0.48-1.244-0.841c-0.359-0.369-0.65-0.811-0.869-1.319c-0.221-0.521-0.33-1.101-0.33-1.74
		c0-0.639,0.104-1.22,0.314-1.74c0.219-0.52,0.51-0.96,0.869-1.318c0.36-0.37,0.774-0.65,1.245-0.841
		c0.479-0.199,0.979-0.301,1.5-0.301c0.539,0,1.025,0.11,1.455,0.33c0.438,0.221,0.795,0.521,1.063,0.9v-1.065h2.07v7.5
		c0,0.59-0.104,1.13-0.313,1.62c-0.212,0.5-0.507,0.931-0.886,1.29c-0.371,0.36-0.815,0.641-1.336,0.84
		c-0.52,0.21-1.09,0.315-1.709,0.315c-0.932,0-1.711-0.136-2.34-0.405c-0.631-0.26-1.176-0.66-1.637-1.2l1.711-1.335
		c0.27,0.352,0.57,0.62,0.898,0.812c0.33,0.188,0.766,0.284,1.307,0.284c0.33,0,0.629-0.056,0.898-0.165
		c0.271-0.101,0.506-0.244,0.705-0.436c0.201-0.19,0.354-0.42,0.465-0.689c0.111-0.261,0.166-0.551,0.166-0.869v-0.615
		c-0.291,0.399-0.654,0.715-1.096,0.944C66.473,50.01,65.987,50.119,65.457,50.119z M65.862,48.199c0.32,0,0.615-0.061,0.886-0.181
		c0.278-0.12,0.52-0.28,0.719-0.479c0.201-0.21,0.355-0.449,0.467-0.721c0.119-0.279,0.18-0.58,0.18-0.898
		c0-0.32-0.061-0.615-0.18-0.886c-0.109-0.279-0.266-0.521-0.467-0.721c-0.199-0.21-0.439-0.375-0.719-0.495
		c-0.271-0.12-0.564-0.18-0.886-0.18c-0.312,0-0.604,0.06-0.885,0.18c-0.271,0.11-0.506,0.271-0.705,0.48
		c-0.2,0.2-0.36,0.438-0.479,0.72c-0.121,0.281-0.181,0.58-0.181,0.9c0,0.318,0.06,0.619,0.181,0.898
		c0.119,0.271,0.279,0.511,0.479,0.721c0.199,0.199,0.435,0.359,0.705,0.479C65.258,48.14,65.553,48.199,65.862,48.199z
		 M74.148,50.164c-0.893,0-1.586-0.221-2.086-0.659c-0.49-0.45-0.734-1.035-0.734-1.755c0-0.852,0.324-1.517,0.975-1.995
		c0.65-0.48,1.539-0.721,2.67-0.721h2.131V44.93c0-0.44-0.146-0.795-0.436-1.065c-0.291-0.27-0.73-0.403-1.32-0.403
		c-0.459,0-0.846,0.095-1.154,0.284c-0.311,0.181-0.561,0.439-0.75,0.779l-1.904-0.944c0.41-0.54,0.92-0.979,1.529-1.319
		c0.619-0.351,1.385-0.525,2.295-0.525c1.199,0,2.125,0.29,2.775,0.87c0.648,0.58,0.975,1.386,0.975,2.415V50h-1.994v-1.245
		c-0.291,0.42-0.701,0.76-1.229,1.02C75.367,50.034,74.787,50.164,74.148,50.164z M74.748,48.454c0.25,0,0.494-0.034,0.734-0.104
		s0.465-0.17,0.676-0.3c0.209-0.13,0.395-0.285,0.555-0.465c0.17-0.182,0.305-0.381,0.404-0.602v-0.435h-1.904
		c-0.621,0-1.064,0.09-1.336,0.27c-0.26,0.182-0.389,0.432-0.389,0.75C73.488,48.159,73.908,48.454,74.748,48.454z M80.709,41.899
		h2.041v1.245c0.199-0.479,0.49-0.83,0.869-1.05c0.391-0.23,0.846-0.345,1.365-0.345c0.27,0,0.52,0.028,0.75,0.09
		c0.24,0.06,0.445,0.135,0.615,0.225l-0.75,2.04c-0.109-0.08-0.262-0.145-0.449-0.194c-0.191-0.061-0.4-0.091-0.631-0.091
		c-0.529,0-0.955,0.15-1.275,0.45c-0.32,0.29-0.479,0.775-0.479,1.455V50h-2.057V41.899L80.709,41.899z M94.07,50.164
		c-1,0-1.775-0.301-2.326-0.899c-0.549-0.601-0.824-1.436-0.824-2.505v-4.86h2.115v4.575c0,0.57,0.135,1.021,0.404,1.351
		c0.27,0.329,0.686,0.494,1.246,0.494c0.488,0,0.895-0.17,1.215-0.51s0.479-0.825,0.479-1.455v-4.455l2.102-0.015v8.1L96.41,50
		v-1.021c-0.26,0.37-0.59,0.66-0.99,0.87S94.57,50.164,94.07,50.164z M100.133,41.899h2.07v1.021c0.26-0.37,0.59-0.66,0.99-0.87
		c0.41-0.21,0.871-0.315,1.381-0.315c0.959,0,1.719,0.301,2.279,0.9c0.568,0.59,0.854,1.415,0.854,2.475V50h-2.115v-4.575
		c0-0.58-0.139-1.035-0.42-1.365c-0.27-0.34-0.68-0.51-1.229-0.51c-0.49,0-0.9,0.175-1.23,0.524c-0.33,0.34-0.494,0.824-0.494,1.454
		V50h-2.086V41.899z M111.809,50.164c-0.891,0-1.584-0.221-2.084-0.659c-0.49-0.45-0.734-1.035-0.734-1.755
		c0-0.852,0.324-1.517,0.975-1.995c0.65-0.48,1.539-0.721,2.67-0.721h2.131V44.93c0-0.44-0.146-0.795-0.436-1.065
		c-0.291-0.27-0.729-0.403-1.32-0.403c-0.461,0-0.846,0.095-1.154,0.284c-0.311,0.181-0.561,0.439-0.75,0.779l-1.904-0.944
		c0.41-0.54,0.92-0.979,1.529-1.319c0.621-0.351,1.385-0.525,2.295-0.525c1.201,0,2.125,0.29,2.773,0.87
		c0.65,0.58,0.977,1.386,0.977,2.415V50h-1.994v-1.245c-0.291,0.42-0.701,0.76-1.23,1.02
		C113.029,50.034,112.449,50.164,111.809,50.164z M112.408,48.454c0.25,0,0.496-0.034,0.736-0.104c0.238-0.07,0.465-0.17,0.674-0.3
		c0.211-0.13,0.395-0.285,0.555-0.465c0.17-0.182,0.307-0.381,0.406-0.602v-0.435h-1.906c-0.619,0-1.064,0.09-1.334,0.27
		c-0.26,0.182-0.391,0.432-0.391,0.75C111.148,48.159,111.568,48.454,112.408,48.454z M121.887,38.18h2.07V50h-2.07V38.18z
		 M125.607,38.18h2.068V50h-2.068V38.18z M131.818,50.164c-0.889,0-1.584-0.221-2.084-0.659c-0.49-0.45-0.736-1.035-0.736-1.755
		c0-0.852,0.326-1.517,0.977-1.995c0.648-0.48,1.539-0.721,2.67-0.721h2.129V44.93c0-0.44-0.145-0.795-0.436-1.065
		c-0.289-0.27-0.729-0.403-1.318-0.403c-0.461,0-0.846,0.095-1.154,0.284c-0.311,0.181-0.561,0.439-0.75,0.779l-1.906-0.944
		c0.41-0.54,0.92-0.979,1.531-1.319c0.619-0.351,1.385-0.525,2.295-0.525c1.199,0,2.125,0.29,2.773,0.87
		c0.65,0.58,0.977,1.386,0.977,2.415V50h-1.996v-1.245c-0.289,0.42-0.699,0.76-1.229,1.02
		C133.039,50.034,132.459,50.164,131.818,50.164z M132.418,48.454c0.25,0,0.496-0.034,0.736-0.104s0.465-0.17,0.674-0.3
		c0.211-0.13,0.396-0.285,0.555-0.465c0.172-0.182,0.307-0.381,0.406-0.602v-0.435h-1.906c-0.619,0-1.064,0.09-1.334,0.27
		c-0.26,0.182-0.391,0.432-0.391,0.75C131.158,48.159,131.578,48.454,132.418,48.454z M137.238,41.899h2.188l1.996,5.46l2.01-5.46
		h2.146l-3.18,8.102h-2.057L137.238,41.899z M150.121,50.164c-0.65,0-1.24-0.104-1.771-0.314c-0.529-0.22-0.984-0.521-1.363-0.899
		c-0.371-0.381-0.656-0.824-0.855-1.336c-0.199-0.51-0.301-1.06-0.301-1.648s0.105-1.141,0.314-1.65c0.221-0.52,0.521-0.97,0.9-1.35
		s0.83-0.681,1.35-0.9c0.521-0.22,1.08-0.33,1.682-0.33c0.609,0,1.17,0.105,1.68,0.315s0.949,0.5,1.32,0.87
		c0.369,0.358,0.66,0.795,0.869,1.305c0.211,0.51,0.314,1.064,0.314,1.665v0.78h-6.436c0.141,0.529,0.41,0.949,0.811,1.26
		c0.41,0.3,0.914,0.45,1.516,0.45c0.479,0,0.885-0.096,1.215-0.285c0.33-0.2,0.596-0.465,0.795-0.795l1.695,0.989
		c-0.41,0.569-0.91,1.024-1.5,1.364S151.021,50.164,150.121,50.164z M150.076,43.489c-0.531,0-0.986,0.142-1.365,0.421
		c-0.381,0.279-0.654,0.659-0.824,1.141h4.318c-0.139-0.511-0.395-0.896-0.764-1.155C151.07,43.625,150.615,43.489,150.076,43.489z"
		/>
	<circle fill="#75F9B7" cx="89" cy="153" r="20"/>
	<path fill="none" stroke="#FFFFFF" stroke-width="3" stroke-linecap="round" d="M89,143v20"/>
	<path fill="none" stroke="#FFFFFF" stroke-width="3" stroke-linecap="round" d="M99,153H79"/>
</g>
</svg>
