<?xml version="1.0" encoding="utf-8"?>
<!-- Generator: Adobe Illustrator 24.0.2, SVG Export Plug-In . SVG Version: 6.00 Build 0)  -->
<svg version="1.1" id="Capa_1" xmlns="http://www.w3.org/2000/svg" xmlns:xlink="http://www.w3.org/1999/xlink" x="0px" y="0px"
	 viewBox="0 0 340 340" style="enable-background:new 0 0 340 340;" xml:space="preserve">
<style type="text/css">
	.st0{fill:#FFFFFF;}
	.st1{fill:#D69D66;}
	.st2{fill:#566865;}
	.st3{fill:url(#SVGID_1_);}
	.st4{fill:#3D6D79;}
	.st5{fill:#FFFFFF;stroke:#3D6D79;}
</style>
<path class="st0" d="M3,21C3,10,12,1,23,1h295c11,0,20,9,20,20v300c0,11-9,20-20,20H23c-11,0-20-9-20-20V21z"/>
<path class="st1" d="M39,241h264c5.5,0,10,4.5,10,10v30c0,5.5-4.5,10-10,10H39c-5.5,0-10-4.5-10-10v-30C29,245.5,33.5,241,39,241z"
	/>
<path class="st0" d="M136.8,257.4h2.8l5.5,14.6h-2.9l-1-2.7h-6.1l-1,2.7h-2.9L136.8,257.4z M136.1,266.8h4.2l-2.1-5.8L136.1,266.8z
	 M151.2,272.2c-0.8,0-1.6-0.1-2.3-0.4c-0.7-0.3-1.3-0.7-1.8-1.2c-0.5-0.5-0.9-1.1-1.2-1.8c-0.3-0.7-0.4-1.4-0.4-2.2
	c0-0.8,0.1-1.5,0.4-2.2c0.3-0.7,0.7-1.3,1.2-1.8c0.5-0.5,1.1-0.9,1.8-1.2c0.7-0.3,1.4-0.4,2.2-0.4c0.6,0,1.2,0.1,1.8,0.3
	c0.5,0.2,1,0.4,1.5,0.7c0.5,0.3,0.8,0.7,1.2,1.1c0.3,0.4,0.6,0.9,0.8,1.4l-2.5,1c-0.2-0.6-0.6-1-1-1.4c-0.5-0.3-1-0.5-1.6-0.5
	c-0.4,0-0.8,0.1-1.2,0.2s-0.7,0.4-0.9,0.7c-0.3,0.3-0.5,0.6-0.6,1c-0.1,0.4-0.2,0.8-0.2,1.2s0.1,0.8,0.2,1.2c0.2,0.4,0.4,0.7,0.6,1
	c0.3,0.3,0.6,0.5,1,0.6c0.4,0.2,0.7,0.2,1.2,0.2c0.6,0,1.2-0.2,1.6-0.5c0.5-0.3,0.8-0.8,1-1.4l2.6,1.1c-0.5,1-1.1,1.8-2,2.5
	C153.6,271.9,152.5,272.2,151.2,272.2z M163.3,272.2c-0.9,0-1.7-0.1-2.4-0.4c-0.7-0.3-1.3-0.7-1.8-1.2c-0.5-0.5-0.9-1.1-1.1-1.8
	c-0.3-0.7-0.4-1.4-0.4-2.2s0.1-1.5,0.4-2.2c0.3-0.7,0.7-1.3,1.2-1.8c0.5-0.5,1.1-0.9,1.8-1.2c0.7-0.3,1.4-0.4,2.2-0.4
	c0.8,0,1.6,0.1,2.2,0.4s1.3,0.7,1.8,1.2c0.5,0.5,0.9,1.1,1.2,1.7s0.4,1.4,0.4,2.2v1h-8.6c0.2,0.7,0.5,1.3,1.1,1.7
	c0.5,0.4,1.2,0.6,2,0.6c0.6,0,1.2-0.1,1.6-0.4c0.4-0.3,0.8-0.6,1.1-1.1l2.3,1.3c-0.5,0.8-1.2,1.4-2,1.8
	C165.5,272,164.5,272.2,163.3,272.2z M163.3,263.3c-0.7,0-1.3,0.2-1.8,0.6c-0.5,0.4-0.9,0.9-1.1,1.5h5.8c-0.2-0.7-0.5-1.2-1-1.5
	C164.6,263.5,164,263.3,163.3,263.3z M176.8,272.2c-0.7,0-1.4-0.1-2-0.4c-0.6-0.3-1.1-0.7-1.4-1.2v5.6h-2.7v-15.1h2.7v1.5
	c0.4-0.5,0.8-1,1.4-1.3c0.6-0.3,1.2-0.5,2-0.5c0.7,0,1.3,0.1,2,0.4c0.6,0.3,1.2,0.6,1.7,1.1c0.5,0.5,0.9,1.1,1.1,1.8
	c0.3,0.7,0.4,1.5,0.4,2.3c0,0.9-0.1,1.6-0.4,2.3c-0.3,0.7-0.7,1.3-1.2,1.8s-1,0.9-1.7,1.1C178.1,272.1,177.5,272.2,176.8,272.2z
	 M176.2,269.6c0.4,0,0.8-0.1,1.2-0.2c0.4-0.2,0.7-0.4,0.9-0.6c0.3-0.3,0.5-0.6,0.6-1c0.2-0.4,0.2-0.8,0.2-1.2c0-0.4-0.1-0.8-0.2-1.2
	c-0.1-0.4-0.4-0.7-0.6-1c-0.3-0.3-0.6-0.5-0.9-0.7c-0.4-0.2-0.7-0.2-1.2-0.2c-0.4,0-0.8,0.1-1.2,0.2c-0.4,0.2-0.7,0.4-0.9,0.7
	c-0.3,0.3-0.5,0.6-0.6,1c-0.1,0.4-0.2,0.8-0.2,1.2c0,0.4,0.1,0.8,0.2,1.2c0.2,0.4,0.4,0.7,0.6,1c0.3,0.3,0.6,0.5,0.9,0.6
	C175.4,269.5,175.8,269.6,176.2,269.6z M182.7,261.2h2v-2.3l2.7-1.6v3.9h2.8v2.4h-2.8v4.4c0,0.6,0.1,1,0.3,1.2
	c0.2,0.2,0.5,0.3,0.9,0.3c0.4,0,0.7-0.1,1-0.4l1.3,2.2c-0.3,0.3-0.7,0.5-1.2,0.6c-0.4,0.1-0.9,0.2-1.4,0.2c-1.1,0-2-0.3-2.6-0.9
	c-0.6-0.6-0.9-1.7-0.9-3.1v-4.5h-2V261.2z M195.4,272.2c-1.2,0-2.1-0.3-2.8-0.9c-0.7-0.6-1-1.4-1-2.3c0-1.1,0.4-2,1.3-2.7
	c0.9-0.6,2.1-1,3.6-1h2.8v-0.1c0-0.6-0.2-1.1-0.6-1.4c-0.4-0.4-1-0.5-1.8-0.5c-0.6,0-1.1,0.1-1.5,0.4c-0.4,0.2-0.7,0.6-1,1l-2.5-1.3
	c0.5-0.7,1.2-1.3,2-1.8c0.8-0.5,1.8-0.7,3.1-0.7c1.6,0,2.8,0.4,3.7,1.2c0.9,0.8,1.3,1.8,1.3,3.2v6.6h-2.7v-1.7
	c-0.4,0.6-0.9,1-1.6,1.4C197,272,196.2,272.2,195.4,272.2z M196.2,269.9c0.3,0,0.7,0,1-0.1c0.3-0.1,0.6-0.2,0.9-0.4s0.5-0.4,0.7-0.6
	c0.2-0.2,0.4-0.5,0.5-0.8v-0.6h-2.5c-0.8,0-1.4,0.1-1.8,0.4c-0.3,0.2-0.5,0.6-0.5,1C194.5,269.5,195,269.9,196.2,269.9z
	 M204.1,261.2h2.7v1.7c0.3-0.6,0.7-1.1,1.2-1.4c0.5-0.3,1.1-0.5,1.8-0.5c0.4,0,0.7,0,1,0.1c0.3,0.1,0.6,0.2,0.8,0.3l-1,2.7
	c-0.1-0.1-0.3-0.2-0.6-0.3c-0.3-0.1-0.5-0.1-0.8-0.1c-0.7,0-1.3,0.2-1.7,0.6c-0.4,0.4-0.6,1-0.6,1.9v5.7h-2.7L204.1,261.2
	L204.1,261.2z"/>
<path class="st2" d="M24.5,158.6h8.2v1.3h-6.8v4.2h6.8v1.3h-6.8v4.2h6.8v1.4h-8.2C24.5,171,24.5,158.6,24.5,158.6z M35.1,157.6h1.4
	V171h-1.4V157.6z M47.4,171.2c-0.7,0-1.3-0.1-1.9-0.4s-1.1-0.6-1.5-1c-0.4-0.4-0.8-0.9-1-1.5c-0.2-0.6-0.4-1.2-0.4-1.9
	c0-0.7,0.1-1.3,0.4-1.9c0.3-0.6,0.6-1.1,1-1.5c0.4-0.4,1-0.8,1.5-1c0.6-0.2,1.2-0.4,1.9-0.4c0.5,0,1,0.1,1.5,0.2
	c0.5,0.1,0.9,0.3,1.3,0.6c0.4,0.2,0.7,0.6,1,0.9c0.3,0.4,0.5,0.7,0.7,1.2l-2.2,0.9c-0.2-0.5-0.5-0.9-0.9-1.2
	c-0.4-0.3-0.9-0.4-1.4-0.4c-0.4,0-0.7,0.1-1,0.2s-0.6,0.3-0.8,0.6c-0.2,0.2-0.4,0.5-0.5,0.8c-0.1,0.3-0.2,0.7-0.2,1
	c0,0.4,0.1,0.7,0.2,1c0.1,0.3,0.3,0.6,0.5,0.8c0.2,0.2,0.5,0.4,0.8,0.5c0.3,0.1,0.6,0.2,1,0.2c0.5,0,1-0.1,1.4-0.4
	c0.4-0.3,0.7-0.7,0.9-1.2l2.2,0.9c-0.4,0.9-1,1.6-1.7,2.1C49.4,170.9,48.5,171.2,47.4,171.2z M57.7,171.2c-0.7,0-1.3-0.1-1.9-0.4
	s-1.1-0.6-1.5-1c-0.4-0.4-0.8-1-1-1.5c-0.2-0.6-0.4-1.2-0.4-1.9c0-0.7,0.1-1.3,0.4-1.9c0.3-0.6,0.6-1.1,1-1.5c0.4-0.4,1-0.8,1.5-1
	c0.6-0.2,1.2-0.4,1.9-0.4c0.7,0,1.3,0.1,1.9,0.4c0.6,0.2,1.1,0.6,1.5,1c0.4,0.4,0.8,0.9,1,1.5c0.3,0.6,0.4,1.2,0.4,1.9
	s-0.1,1.3-0.4,1.9c-0.2,0.6-0.6,1.1-1,1.5c-0.4,0.4-0.9,0.8-1.5,1C59,171.1,58.4,171.2,57.7,171.2z M57.7,169c0.4,0,0.7-0.1,1-0.2
	c0.3-0.1,0.6-0.3,0.8-0.5c0.2-0.2,0.4-0.5,0.5-0.8c0.1-0.3,0.2-0.7,0.2-1c0-0.4-0.1-0.7-0.2-1c-0.1-0.3-0.3-0.6-0.5-0.8
	c-0.2-0.2-0.5-0.4-0.8-0.5s-0.6-0.2-1-0.2c-0.4,0-0.7,0.1-1,0.2s-0.6,0.3-0.8,0.5c-0.2,0.2-0.4,0.5-0.5,0.8c-0.1,0.3-0.2,0.7-0.2,1
	c0,0.4,0.1,0.7,0.2,1c0.1,0.3,0.3,0.6,0.5,0.8c0.2,0.2,0.5,0.4,0.8,0.5C57,168.9,57.4,169,57.7,169z M64.1,161.8h2.3v1.4
	c0.2-0.5,0.6-0.9,1-1.2c0.4-0.3,1-0.4,1.5-0.4c0.3,0,0.6,0,0.8,0.1c0.3,0.1,0.5,0.2,0.7,0.3l-0.8,2.3c-0.1-0.1-0.3-0.2-0.5-0.2
	c-0.2-0.1-0.5-0.1-0.7-0.1c-0.6,0-1.1,0.2-1.4,0.5c-0.4,0.3-0.5,0.9-0.5,1.6v4.8h-2.3C64.1,171,64.1,161.8,64.1,161.8z M71.7,161.8
	H74v1.4c0.2-0.5,0.6-0.9,1-1.2c0.4-0.3,1-0.4,1.5-0.4c0.3,0,0.6,0,0.8,0.1c0.3,0.1,0.5,0.2,0.7,0.3l-0.8,2.3
	c-0.1-0.1-0.3-0.2-0.5-0.2c-0.2-0.1-0.5-0.1-0.7-0.1c-0.6,0-1.1,0.2-1.4,0.5c-0.4,0.3-0.5,0.9-0.5,1.6v4.8h-2.3
	C71.7,171,71.7,161.8,71.7,161.8z M83.1,171.2c-0.7,0-1.4-0.1-2-0.4c-0.6-0.2-1.1-0.6-1.5-1c-0.4-0.4-0.7-0.9-1-1.5
	c-0.2-0.6-0.3-1.2-0.3-1.9s0.1-1.3,0.4-1.9c0.3-0.6,0.6-1.1,1-1.5s0.9-0.8,1.5-1s1.2-0.4,1.9-0.4c0.7,0,1.3,0.1,1.9,0.4
	c0.6,0.2,1.1,0.6,1.5,1c0.4,0.4,0.7,0.9,1,1.5s0.4,1.2,0.4,1.9v0.9h-7.3c0.2,0.6,0.5,1.1,0.9,1.4c0.5,0.3,1,0.5,1.7,0.5
	c0.5,0,1-0.1,1.4-0.3c0.4-0.2,0.7-0.5,0.9-0.9l1.9,1.1c-0.5,0.6-1,1.2-1.7,1.5S84.1,171.2,83.1,171.2z M83.1,163.6
	c-0.6,0-1.1,0.2-1.5,0.5c-0.4,0.3-0.7,0.7-0.9,1.3h4.9c-0.2-0.6-0.4-1-0.9-1.3C84.2,163.8,83.7,163.6,83.1,163.6z M93.9,171.2
	c-0.7,0-1.3-0.1-1.9-0.4c-0.6-0.2-1.1-0.6-1.5-1c-0.4-0.4-0.8-1-1-1.5c-0.2-0.6-0.4-1.2-0.4-1.9c0-0.7,0.1-1.3,0.4-1.9
	c0.2-0.6,0.6-1.1,1-1.5c0.4-0.4,1-0.8,1.5-1c0.6-0.2,1.2-0.4,1.9-0.4c0.7,0,1.3,0.1,1.9,0.4c0.6,0.2,1.1,0.6,1.5,1
	c0.4,0.4,0.8,0.9,1,1.5c0.2,0.6,0.4,1.2,0.4,1.9s-0.1,1.3-0.4,1.9c-0.3,0.6-0.6,1.1-1,1.5c-0.4,0.4-0.9,0.8-1.5,1
	C95.2,171.1,94.6,171.2,93.9,171.2z M93.9,169c0.4,0,0.7-0.1,1-0.2c0.3-0.1,0.6-0.3,0.8-0.5c0.2-0.2,0.4-0.5,0.5-0.8
	c0.1-0.3,0.2-0.7,0.2-1c0-0.4-0.1-0.7-0.2-1c-0.1-0.3-0.3-0.6-0.5-0.8c-0.2-0.2-0.5-0.4-0.8-0.5s-0.6-0.2-1-0.2
	c-0.4,0-0.7,0.1-1,0.2s-0.6,0.3-0.8,0.5c-0.2,0.2-0.4,0.5-0.5,0.8c-0.1,0.3-0.2,0.7-0.2,1c0,0.4,0.1,0.7,0.2,1
	c0.1,0.3,0.3,0.6,0.5,0.8c0.2,0.2,0.5,0.4,0.8,0.5C93.2,168.9,93.6,169,93.9,169z M108.9,171.2c-0.7,0-1.4-0.1-2-0.4
	c-0.6-0.2-1.1-0.6-1.5-1c-0.4-0.4-0.7-0.9-1-1.5s-0.3-1.2-0.3-1.9s0.1-1.3,0.4-1.9c0.2-0.6,0.6-1.1,1-1.5c0.4-0.4,0.9-0.8,1.5-1
	s1.2-0.4,1.9-0.4c0.7,0,1.3,0.1,1.9,0.4c0.6,0.2,1.1,0.6,1.5,1c0.4,0.4,0.7,0.9,1,1.5s0.4,1.2,0.4,1.9v0.9h-7.3
	c0.2,0.6,0.5,1.1,0.9,1.4c0.5,0.3,1,0.5,1.7,0.5c0.5,0,1-0.1,1.4-0.3c0.4-0.2,0.7-0.5,0.9-0.9l1.9,1.1c-0.5,0.6-1,1.2-1.7,1.5
	S109.9,171.2,108.9,171.2z M108.8,163.6c-0.6,0-1.1,0.2-1.5,0.5c-0.4,0.3-0.7,0.7-0.9,1.3h4.9c-0.2-0.6-0.4-1-0.9-1.3
	C109.9,163.8,109.4,163.6,108.8,163.6z M115.1,157.6h2.3V171h-2.3V157.6z M123.8,171.2c-0.7,0-1.4-0.1-2-0.4c-0.6-0.2-1.1-0.6-1.5-1
	c-0.4-0.4-0.7-0.9-1-1.5c-0.2-0.6-0.3-1.2-0.3-1.9s0.1-1.3,0.4-1.9c0.2-0.6,0.6-1.1,1-1.5c0.4-0.4,0.9-0.8,1.5-1
	c0.6-0.2,1.2-0.4,1.9-0.4c0.7,0,1.3,0.1,1.9,0.4c0.6,0.2,1.1,0.6,1.5,1c0.4,0.4,0.7,0.9,1,1.5c0.2,0.6,0.4,1.2,0.4,1.9v0.9h-7.3
	c0.2,0.6,0.5,1.1,0.9,1.4c0.5,0.3,1,0.5,1.7,0.5c0.5,0,1-0.1,1.4-0.3c0.4-0.2,0.7-0.5,0.9-0.9l1.9,1.1c-0.5,0.6-1,1.2-1.7,1.5
	C125.7,171,124.9,171.2,123.8,171.2z M123.8,163.6c-0.6,0-1.1,0.2-1.5,0.5c-0.4,0.3-0.7,0.7-0.9,1.3h4.9c-0.2-0.6-0.4-1-0.9-1.3
	C124.9,163.8,124.4,163.6,123.8,163.6z M134.6,171.2c-0.7,0-1.3-0.1-1.9-0.4s-1.1-0.6-1.5-1c-0.4-0.4-0.8-0.9-1-1.5
	c-0.2-0.6-0.4-1.2-0.4-1.9c0-0.7,0.1-1.3,0.4-1.9c0.2-0.6,0.6-1.1,1-1.5c0.4-0.4,1-0.8,1.5-1c0.6-0.2,1.2-0.4,1.9-0.4
	c0.5,0,1,0.1,1.5,0.2c0.5,0.1,0.9,0.3,1.3,0.6c0.4,0.2,0.7,0.6,1,0.9c0.3,0.4,0.5,0.7,0.7,1.2l-2.2,0.9c-0.2-0.5-0.5-0.9-0.9-1.2
	c-0.4-0.3-0.9-0.4-1.4-0.4c-0.4,0-0.7,0.1-1,0.2s-0.6,0.3-0.8,0.6c-0.2,0.2-0.4,0.5-0.5,0.8c-0.1,0.3-0.2,0.7-0.2,1
	c0,0.4,0.1,0.7,0.2,1c0.1,0.3,0.3,0.6,0.5,0.8c0.2,0.2,0.5,0.4,0.8,0.5c0.3,0.1,0.6,0.2,1,0.2c0.5,0,1-0.1,1.4-0.4
	c0.4-0.3,0.7-0.7,0.9-1.2l2.2,0.9c-0.4,0.9-1,1.6-1.7,2.1C136.6,170.9,135.7,171.2,134.6,171.2z M139.9,161.8h1.7v-2l2.3-1.4v3.3
	h2.4v2.1H144v3.8c0,0.5,0.1,0.8,0.3,1c0.2,0.2,0.4,0.3,0.7,0.3c0.3,0,0.6-0.1,0.9-0.3l1.1,1.8c-0.3,0.2-0.6,0.4-1,0.5
	c-0.4,0.1-0.8,0.2-1.2,0.2c-1,0-1.7-0.3-2.2-0.8c-0.5-0.5-0.8-1.4-0.8-2.7v-3.9h-1.7V161.8z M147.9,161.8h2.3v1.4
	c0.2-0.5,0.6-0.9,1-1.2c0.4-0.3,1-0.4,1.5-0.4c0.3,0,0.6,0,0.9,0.1c0.3,0.1,0.5,0.2,0.7,0.3l-0.9,2.3c-0.1-0.1-0.3-0.2-0.5-0.2
	c-0.2-0.1-0.5-0.1-0.7-0.1c-0.6,0-1.1,0.2-1.4,0.5c-0.4,0.3-0.5,0.9-0.5,1.6v4.8h-2.3L147.9,161.8L147.9,161.8z M159.3,171.2
	c-0.7,0-1.3-0.1-1.9-0.4c-0.6-0.2-1.1-0.6-1.5-1c-0.4-0.4-0.8-1-1-1.5c-0.2-0.6-0.4-1.2-0.4-1.9c0-0.7,0.1-1.3,0.4-1.9
	c0.2-0.6,0.6-1.1,1-1.5c0.4-0.4,1-0.8,1.5-1c0.6-0.2,1.2-0.4,1.9-0.4c0.7,0,1.3,0.1,1.9,0.4c0.6,0.2,1.1,0.6,1.5,1
	c0.4,0.4,0.8,0.9,1,1.5c0.2,0.6,0.4,1.2,0.4,1.9s-0.1,1.3-0.4,1.9c-0.3,0.6-0.6,1.1-1,1.5c-0.4,0.4-0.9,0.8-1.5,1
	C160.7,171.1,160,171.2,159.3,171.2z M159.3,169c0.4,0,0.7-0.1,1-0.2c0.3-0.1,0.6-0.3,0.8-0.5c0.2-0.2,0.4-0.5,0.5-0.8
	c0.1-0.3,0.2-0.7,0.2-1c0-0.4-0.1-0.7-0.2-1c-0.1-0.3-0.3-0.6-0.5-0.8c-0.2-0.2-0.5-0.4-0.8-0.5s-0.6-0.2-1-0.2
	c-0.4,0-0.7,0.1-1,0.2s-0.6,0.3-0.8,0.5c-0.2,0.2-0.4,0.5-0.5,0.8c-0.1,0.3-0.2,0.7-0.2,1c0,0.4,0.1,0.7,0.2,1
	c0.1,0.3,0.3,0.6,0.5,0.8c0.2,0.2,0.5,0.4,0.8,0.5C158.7,168.9,159,169,159.3,169z M160.1,157.8h2.4l-2.6,2.9h-1.8L160.1,157.8z
	 M165.7,161.8h2.3v1.2c0.3-0.4,0.7-0.7,1.1-1c0.5-0.2,1-0.4,1.6-0.4c1.1,0,1.9,0.3,2.6,1c0.6,0.7,1,1.6,1,2.8v5.5h-2.4v-5.2
	c0-0.7-0.2-1.2-0.5-1.5c-0.3-0.4-0.8-0.6-1.4-0.6c-0.6,0-1,0.2-1.4,0.6c-0.4,0.4-0.6,0.9-0.6,1.6v5.1h-2.4L165.7,161.8L165.7,161.8z
	 M176.1,161.8h2.4v9.2h-2.4V161.8z M175.8,159.2c0-0.4,0.1-0.8,0.4-1.1c0.3-0.3,0.6-0.4,1.1-0.4c0.5,0,0.8,0.1,1.1,0.4
	c0.3,0.3,0.4,0.6,0.4,1.1c0,0.4-0.1,0.8-0.4,1.1c-0.3,0.3-0.6,0.4-1.1,0.4c-0.4,0-0.8-0.1-1.1-0.4
	C175.9,160,175.8,159.7,175.8,159.2z M184.9,171.2c-0.7,0-1.3-0.1-1.9-0.4c-0.6-0.2-1.1-0.6-1.5-1c-0.4-0.4-0.8-0.9-1-1.5
	c-0.2-0.6-0.4-1.2-0.4-1.9c0-0.7,0.1-1.3,0.4-1.9c0.2-0.6,0.6-1.1,1-1.5c0.4-0.4,1-0.8,1.5-1c0.6-0.2,1.2-0.4,1.9-0.4
	c0.5,0,1,0.1,1.5,0.2c0.5,0.1,0.9,0.3,1.3,0.6c0.4,0.2,0.7,0.6,1,0.9c0.3,0.4,0.5,0.7,0.7,1.2l-2.2,0.9c-0.2-0.5-0.5-0.9-0.9-1.2
	c-0.4-0.3-0.9-0.4-1.4-0.4c-0.4,0-0.7,0.1-1,0.2s-0.6,0.3-0.8,0.6c-0.2,0.2-0.4,0.5-0.5,0.8c-0.1,0.3-0.2,0.7-0.2,1
	c0,0.4,0.1,0.7,0.2,1c0.1,0.3,0.3,0.6,0.5,0.8c0.2,0.2,0.5,0.4,0.8,0.5c0.3,0.1,0.6,0.2,1,0.2c0.5,0,1-0.1,1.4-0.4
	c0.4-0.3,0.7-0.7,0.9-1.2l2.2,0.9c-0.4,0.9-1,1.6-1.7,2.1C186.9,170.9,186,171.2,184.9,171.2z M195.2,171.2c-0.7,0-1.3-0.1-1.9-0.4
	s-1.1-0.6-1.5-1c-0.4-0.4-0.8-1-1-1.5c-0.2-0.6-0.4-1.2-0.4-1.9c0-0.7,0.1-1.3,0.4-1.9c0.3-0.6,0.6-1.1,1-1.5c0.4-0.4,1-0.8,1.5-1
	s1.2-0.4,1.9-0.4c0.7,0,1.3,0.1,1.9,0.4c0.6,0.2,1.1,0.6,1.5,1c0.4,0.4,0.8,0.9,1,1.5c0.2,0.6,0.4,1.2,0.4,1.9s-0.1,1.3-0.4,1.9
	s-0.6,1.1-1,1.5c-0.4,0.4-0.9,0.8-1.5,1C196.5,171.1,195.9,171.2,195.2,171.2z M195.2,169c0.4,0,0.7-0.1,1-0.2
	c0.3-0.1,0.6-0.3,0.8-0.5c0.2-0.2,0.4-0.5,0.5-0.8c0.1-0.3,0.2-0.7,0.2-1c0-0.4-0.1-0.7-0.2-1c-0.1-0.3-0.3-0.6-0.5-0.8
	c-0.2-0.2-0.5-0.4-0.8-0.5c-0.3-0.1-0.6-0.2-1-0.2c-0.4,0-0.7,0.1-1,0.2s-0.6,0.3-0.8,0.5c-0.2,0.2-0.4,0.5-0.5,0.8
	c-0.1,0.3-0.2,0.7-0.2,1c0,0.4,0.1,0.7,0.2,1c0.1,0.3,0.3,0.6,0.5,0.8c0.2,0.2,0.5,0.4,0.8,0.5C194.5,168.9,194.8,169,195.2,169z
	 M210.5,171.2c-0.7,0-1.3-0.1-1.9-0.4c-0.6-0.2-1.1-0.6-1.5-1c-0.4-0.4-0.8-0.9-1-1.5c-0.2-0.6-0.4-1.2-0.4-1.9
	c0-0.7,0.1-1.3,0.4-1.9c0.3-0.6,0.6-1.1,1-1.5c0.4-0.4,0.9-0.8,1.5-1c0.6-0.2,1.2-0.4,1.9-0.4c0.7,0,1.3,0.1,1.9,0.4
	c0.6,0.2,1.1,0.6,1.5,1c0.4,0.4,0.8,0.9,1,1.5c0.2,0.6,0.4,1.2,0.4,1.9s-0.1,1.3-0.4,1.9c-0.2,0.6-0.6,1.1-1,1.5
	c-0.4,0.4-0.9,0.8-1.5,1S211.2,171.2,210.5,171.2z M210.5,169.9c0.5,0,0.9-0.1,1.3-0.3c0.4-0.2,0.8-0.4,1.1-0.7
	c0.3-0.3,0.5-0.7,0.7-1.1s0.3-0.9,0.3-1.4c0-0.5-0.1-0.9-0.3-1.4c-0.2-0.4-0.4-0.8-0.7-1.1c-0.3-0.3-0.7-0.6-1.1-0.7
	c-0.4-0.2-0.9-0.3-1.3-0.3c-0.5,0-0.9,0.1-1.3,0.3c-0.4,0.2-0.8,0.4-1.1,0.7c-0.3,0.3-0.5,0.7-0.7,1.1c-0.2,0.4-0.3,0.9-0.3,1.4
	c0,0.5,0.1,1,0.3,1.4s0.4,0.8,0.7,1.1c0.3,0.3,0.7,0.6,1.1,0.7C209.6,169.8,210,169.9,210.5,169.9z M225.8,171.2
	c-0.7,0-1.3-0.1-1.9-0.4c-0.6-0.2-1.1-0.6-1.5-1c-0.4-0.4-0.8-0.9-1-1.5c-0.2-0.6-0.4-1.2-0.4-1.9c0-0.7,0.1-1.3,0.4-1.9
	c0.2-0.6,0.6-1.1,1-1.5c0.4-0.4,1-0.8,1.5-1c0.6-0.2,1.2-0.4,1.9-0.4c0.5,0,1,0.1,1.5,0.2c0.5,0.1,0.9,0.3,1.3,0.6
	c0.4,0.2,0.7,0.6,1,0.9c0.3,0.4,0.5,0.7,0.7,1.2l-2.2,0.9c-0.2-0.5-0.5-0.9-0.9-1.2c-0.4-0.3-0.9-0.4-1.4-0.4c-0.4,0-0.7,0.1-1,0.2
	s-0.6,0.3-0.8,0.6c-0.2,0.2-0.4,0.5-0.5,0.8c-0.1,0.3-0.2,0.7-0.2,1c0,0.4,0.1,0.7,0.2,1c0.1,0.3,0.3,0.6,0.5,0.8
	c0.2,0.2,0.5,0.4,0.8,0.5c0.3,0.1,0.6,0.2,1,0.2c0.5,0,1-0.1,1.4-0.4c0.4-0.3,0.7-0.7,0.9-1.2l2.2,0.9c-0.4,0.9-1,1.6-1.7,2.1
	C227.8,170.9,226.9,171.2,225.8,171.2z M236.1,171.2c-0.7,0-1.3-0.1-1.9-0.4s-1.1-0.6-1.5-1c-0.4-0.4-0.8-1-1-1.5
	c-0.2-0.6-0.4-1.2-0.4-1.9c0-0.7,0.1-1.3,0.4-1.9c0.3-0.6,0.6-1.1,1-1.5c0.4-0.4,1-0.8,1.5-1s1.2-0.4,1.9-0.4c0.7,0,1.3,0.1,1.9,0.4
	c0.6,0.2,1.1,0.6,1.5,1c0.4,0.4,0.8,0.9,1,1.5c0.2,0.6,0.4,1.2,0.4,1.9s-0.1,1.3-0.4,1.9s-0.6,1.1-1,1.5c-0.4,0.4-0.9,0.8-1.5,1
	C237.4,171.1,236.7,171.2,236.1,171.2z M236.1,169c0.4,0,0.7-0.1,1-0.2c0.3-0.1,0.6-0.3,0.8-0.5c0.2-0.2,0.4-0.5,0.5-0.8
	c0.1-0.3,0.2-0.7,0.2-1c0-0.4-0.1-0.7-0.2-1c-0.1-0.3-0.3-0.6-0.5-0.8c-0.2-0.2-0.5-0.4-0.8-0.5c-0.3-0.1-0.6-0.2-1-0.2
	c-0.4,0-0.7,0.1-1,0.2s-0.6,0.3-0.8,0.5c-0.2,0.2-0.4,0.5-0.5,0.8c-0.1,0.3-0.2,0.7-0.2,1c0,0.4,0.1,0.7,0.2,1
	c0.1,0.3,0.3,0.6,0.5,0.8c0.2,0.2,0.5,0.4,0.8,0.5C235.4,168.9,235.7,169,236.1,169z M242.5,161.8h2.3v1.2c0.3-0.4,0.7-0.7,1.1-1
	c0.5-0.2,1-0.4,1.6-0.4c1.1,0,1.9,0.3,2.6,1c0.6,0.7,1,1.6,1,2.8v5.5h-2.4v-5.2c0-0.7-0.2-1.2-0.5-1.5c-0.3-0.4-0.8-0.6-1.4-0.6
	c-0.6,0-1,0.2-1.4,0.6c-0.4,0.4-0.6,0.9-0.6,1.6v5.1h-2.4L242.5,161.8L242.5,161.8z M252,161.8h1.7v-2l2.3-1.4v3.3h2.4v2.1H256v3.8
	c0,0.5,0.1,0.8,0.3,1c0.2,0.2,0.4,0.3,0.7,0.3c0.3,0,0.6-0.1,0.9-0.3l1.1,1.8c-0.3,0.2-0.6,0.4-1,0.5c-0.4,0.1-0.8,0.2-1.2,0.2
	c-1,0-1.7-0.3-2.2-0.8c-0.5-0.5-0.8-1.4-0.8-2.7v-3.9H252L252,161.8L252,161.8z M260,161.8h2.3v1.4c0.2-0.5,0.6-0.9,1-1.2
	c0.4-0.3,1-0.4,1.5-0.4c0.3,0,0.6,0,0.9,0.1c0.3,0.1,0.5,0.2,0.7,0.3l-0.9,2.3c-0.1-0.1-0.3-0.2-0.5-0.2c-0.2-0.1-0.5-0.1-0.7-0.1
	c-0.6,0-1.1,0.2-1.4,0.5c-0.4,0.3-0.5,0.9-0.5,1.6v4.8H260L260,161.8L260,161.8z M269.9,171.2c-1,0-1.8-0.2-2.4-0.7
	c-0.6-0.5-0.8-1.2-0.8-2c0-1,0.4-1.7,1.1-2.3c0.7-0.5,1.7-0.8,3-0.8h2.4v-0.1c0-0.5-0.2-0.9-0.5-1.2c-0.3-0.3-0.8-0.5-1.5-0.5
	c-0.5,0-1,0.1-1.3,0.3c-0.4,0.2-0.6,0.5-0.9,0.9l-2.2-1.1c0.5-0.6,1-1.1,1.7-1.5c0.7-0.4,1.6-0.6,2.6-0.6c1.4,0,2.4,0.3,3.1,1
	c0.7,0.7,1.1,1.6,1.1,2.7v5.6h-2.3v-1.4c-0.3,0.5-0.8,0.9-1.4,1.2C271.3,171,270.7,171.2,269.9,171.2z M270.6,169.2
	c0.3,0,0.6,0,0.8-0.1s0.5-0.2,0.8-0.3c0.2-0.1,0.4-0.3,0.6-0.5c0.2-0.2,0.3-0.4,0.5-0.7v-0.5h-2.2c-0.7,0-1.2,0.1-1.5,0.3
	c-0.3,0.2-0.4,0.5-0.4,0.9C269.2,168.9,269.7,169.2,270.6,169.2z M281,171.2c-1.1,0-2-0.2-2.7-0.6c-0.7-0.4-1.2-1-1.6-1.7l2.3-0.9
	c0.4,0.8,1.1,1.2,2.1,1.2c0.5,0,0.8-0.1,1.1-0.3c0.2-0.2,0.4-0.4,0.4-0.7c0-0.2-0.1-0.3-0.2-0.4c-0.1-0.1-0.3-0.2-0.5-0.3
	c-0.2-0.1-0.4-0.1-0.7-0.2c-0.3-0.1-0.5-0.1-0.8-0.2c-0.4-0.1-0.8-0.2-1.2-0.3c-0.4-0.1-0.7-0.3-1.1-0.5c-0.3-0.2-0.6-0.5-0.7-0.8
	c-0.2-0.3-0.3-0.7-0.3-1.2c0-0.4,0.1-0.8,0.3-1.1c0.2-0.4,0.4-0.7,0.8-0.9c0.3-0.3,0.7-0.5,1.2-0.6c0.5-0.2,1-0.2,1.5-0.2
	c1,0,1.8,0.2,2.4,0.5c0.6,0.3,1.1,0.8,1.6,1.4l-2.1,0.9c-0.2-0.3-0.4-0.5-0.7-0.7c-0.3-0.2-0.6-0.3-1.1-0.3c-0.5,0-0.8,0.1-1,0.3
	c-0.2,0.2-0.3,0.4-0.3,0.6c0,0.3,0.2,0.5,0.5,0.6c0.4,0.1,0.9,0.2,1.5,0.4c0.4,0.1,0.8,0.2,1.2,0.3c0.4,0.1,0.8,0.3,1.1,0.5
	c0.3,0.2,0.6,0.5,0.8,0.8s0.3,0.7,0.3,1.2c0,0.4-0.1,0.7-0.2,1.1c-0.2,0.4-0.4,0.7-0.7,1c-0.3,0.3-0.7,0.5-1.2,0.7
	C282.2,171.1,281.7,171.2,281,171.2z M291,171.2c-0.7,0-1.4-0.1-2-0.4c-0.6-0.2-1.1-0.6-1.5-1c-0.4-0.4-0.7-0.9-1-1.5
	c-0.2-0.6-0.3-1.2-0.3-1.9s0.1-1.3,0.4-1.9c0.2-0.6,0.6-1.1,1-1.5c0.4-0.4,0.9-0.8,1.5-1s1.2-0.4,1.9-0.4c0.7,0,1.3,0.1,1.9,0.4
	c0.6,0.2,1.1,0.6,1.5,1c0.4,0.4,0.7,0.9,1,1.5c0.2,0.6,0.4,1.2,0.4,1.9v0.9h-7.3c0.2,0.6,0.5,1.1,0.9,1.4c0.5,0.3,1,0.5,1.7,0.5
	c0.5,0,1-0.1,1.4-0.3c0.4-0.2,0.7-0.5,0.9-0.9l1.9,1.1c-0.5,0.6-1,1.2-1.7,1.5C292.8,171,292,171.2,291,171.2z M290.9,163.6
	c-0.6,0-1.1,0.2-1.5,0.5c-0.4,0.3-0.7,0.7-0.9,1.3h4.9c-0.2-0.6-0.4-1-0.9-1.3C292,163.8,291.5,163.6,290.9,163.6z M297.2,161.8h2.3
	v1.2c0.3-0.4,0.7-0.7,1.1-1c0.5-0.2,1-0.4,1.6-0.4c1.1,0,1.9,0.3,2.6,1c0.6,0.7,1,1.6,1,2.8v5.5h-2.4v-5.2c0-0.7-0.2-1.2-0.5-1.5
	c-0.3-0.4-0.8-0.6-1.4-0.6c-0.6,0-1,0.2-1.4,0.6c-0.4,0.4-0.6,0.9-0.6,1.6v5.1h-2.4L297.2,161.8L297.2,161.8z M298.7,160.7
	c0-0.7,0.2-1.3,0.5-1.7c0.3-0.4,0.8-0.6,1.3-0.6c0.3,0,0.5,0,0.7,0.1c0.2,0.1,0.4,0.2,0.6,0.3c0.2,0.1,0.3,0.2,0.4,0.3
	c0.1,0.1,0.3,0.1,0.4,0.1c0.3,0,0.5-0.2,0.5-0.7h1.4c0,0.7-0.1,1.3-0.4,1.7c-0.3,0.4-0.7,0.6-1.4,0.6c-0.3,0-0.6-0.1-0.8-0.2
	c-0.2-0.1-0.4-0.2-0.6-0.3c-0.1-0.1-0.3-0.2-0.4-0.2c-0.1-0.1-0.2-0.1-0.4-0.1c-0.2,0-0.3,0.1-0.4,0.2c-0.1,0.1-0.1,0.3-0.1,0.5
	L298.7,160.7L298.7,160.7z M310.4,171.2c-1,0-1.8-0.2-2.4-0.7c-0.6-0.5-0.8-1.2-0.8-2c0-1,0.4-1.7,1.1-2.3s1.7-0.8,3-0.8h2.4v-0.1
	c0-0.5-0.2-0.9-0.5-1.2c-0.3-0.3-0.8-0.5-1.5-0.5c-0.5,0-1,0.1-1.3,0.3c-0.4,0.2-0.6,0.5-0.9,0.9l-2.2-1.1c0.5-0.6,1-1.1,1.7-1.5
	c0.7-0.4,1.6-0.6,2.6-0.6c1.4,0,2.4,0.3,3.1,1c0.7,0.7,1.1,1.6,1.1,2.7v5.6h-2.3v-1.4c-0.3,0.5-0.8,0.9-1.4,1.2
	C311.8,171,311.1,171.2,310.4,171.2z M311.1,169.2c0.3,0,0.6,0,0.8-0.1s0.5-0.2,0.8-0.3c0.2-0.1,0.4-0.3,0.6-0.5
	c0.2-0.2,0.3-0.4,0.5-0.7v-0.5h-2.2c-0.7,0-1.2,0.1-1.5,0.3c-0.3,0.2-0.4,0.5-0.4,0.9C309.7,168.9,310.1,169.2,311.1,169.2z
	 M44.3,183.8h1.4v9.2h-1.4V183.8z M43.9,181c0-0.3,0.1-0.6,0.3-0.8c0.2-0.2,0.5-0.3,0.8-0.3c0.3,0,0.6,0.1,0.8,0.3
	c0.2,0.2,0.3,0.5,0.3,0.8c0,0.3-0.1,0.6-0.3,0.8c-0.2,0.2-0.5,0.3-0.8,0.3c-0.3,0-0.6-0.1-0.8-0.3C44,181.6,43.9,181.3,43.9,181z
	 M48.2,183.8h1.4v1.5c0.3-0.5,0.7-0.9,1.3-1.2c0.6-0.3,1.2-0.5,1.9-0.5c0.6,0,1.1,0.1,1.6,0.3c0.5,0.2,0.9,0.5,1.2,0.8
	c0.3,0.4,0.6,0.8,0.8,1.3c0.2,0.5,0.3,1.1,0.3,1.7v5.2h-1.4v-5.2c0-0.9-0.2-1.6-0.7-2.1s-1.2-0.8-2.1-0.8c-0.4,0-0.8,0.1-1.1,0.2
	c-0.4,0.1-0.7,0.4-0.9,0.6c-0.3,0.3-0.5,0.6-0.6,1c-0.1,0.4-0.2,0.8-0.2,1.2v5.1h-1.4C48.2,193,48.2,183.8,48.2,183.8z M57.9,183.8
	h1.8v-2l1.4-0.9v2.9h2.7v1.2h-2.7v5.1c0,0.6,0.1,1,0.4,1.3c0.2,0.2,0.6,0.4,1,0.4c0.4,0,0.7-0.1,1.1-0.4l0.7,1.1
	c-0.3,0.2-0.5,0.4-0.8,0.5c-0.3,0.1-0.7,0.2-1,0.2c-0.8,0-1.5-0.2-1.9-0.7c-0.4-0.5-0.7-1.2-0.7-2.2v-5.2h-1.8
	C57.9,185.1,57.9,183.8,57.9,183.8z M65.7,183.8h1.3v1.7c0.2-0.6,0.5-1.1,1-1.4c0.5-0.3,1-0.5,1.7-0.5s1.2,0.1,1.5,0.3l-0.6,1.3
	c-0.1-0.1-0.3-0.2-0.5-0.2c-0.2-0.1-0.4-0.1-0.6-0.1c-0.8,0-1.4,0.2-1.8,0.7c-0.4,0.5-0.6,1.2-0.6,2.2v5h-1.4V183.8z M76.5,193.2
	c-0.7,0-1.3-0.1-1.9-0.4c-0.6-0.2-1.1-0.6-1.5-1c-0.4-0.4-0.8-0.9-1-1.5c-0.2-0.6-0.4-1.2-0.4-1.9c0-0.7,0.1-1.3,0.4-1.9
	c0.2-0.6,0.6-1.1,1-1.5c0.4-0.4,0.9-0.8,1.5-1c0.6-0.2,1.2-0.4,1.9-0.4s1.3,0.1,1.9,0.4c0.6,0.2,1.1,0.6,1.5,1
	c0.4,0.4,0.8,0.9,1,1.5c0.3,0.6,0.4,1.2,0.4,1.9s-0.1,1.3-0.4,1.9c-0.2,0.6-0.6,1.1-1,1.5c-0.4,0.4-0.9,0.8-1.5,1
	S77.2,193.2,76.5,193.2z M76.5,191.9c0.5,0,0.9-0.1,1.3-0.3c0.4-0.2,0.8-0.4,1.1-0.7c0.3-0.3,0.5-0.7,0.7-1.1
	c0.2-0.4,0.3-0.9,0.3-1.4c0-0.5-0.1-0.9-0.3-1.4c-0.2-0.4-0.4-0.8-0.7-1.1c-0.3-0.3-0.7-0.6-1.1-0.7c-0.4-0.2-0.8-0.3-1.3-0.3
	s-0.9,0.1-1.3,0.3c-0.4,0.2-0.8,0.4-1.1,0.7c-0.3,0.3-0.5,0.7-0.7,1.1c-0.2,0.4-0.3,0.9-0.3,1.4c0,0.5,0.1,1,0.3,1.4
	s0.4,0.8,0.7,1.1c0.3,0.3,0.7,0.6,1.1,0.7C75.6,191.8,76,191.9,76.5,191.9z M87.7,193.2c-0.6,0-1.3-0.1-1.8-0.3
	c-0.6-0.2-1.1-0.6-1.5-1c-0.4-0.4-0.8-0.9-1-1.5c-0.2-0.6-0.4-1.2-0.4-1.9s0.1-1.3,0.4-1.9c0.2-0.6,0.6-1.1,1-1.5
	c0.4-0.4,0.9-0.8,1.5-1c0.6-0.2,1.2-0.4,1.8-0.4c0.3,0,0.7,0,1,0.1c0.3,0.1,0.7,0.2,1,0.4c0.3,0.1,0.6,0.3,0.8,0.6
	c0.3,0.2,0.5,0.5,0.7,0.7v-5.8h1.4V193h-1.4v-1.6c-0.2,0.3-0.4,0.5-0.7,0.8c-0.3,0.2-0.5,0.4-0.8,0.6c-0.3,0.1-0.6,0.3-1,0.3
	C88.4,193.1,88,193.2,87.7,193.2z M87.8,191.9c0.5,0,0.9-0.1,1.4-0.3c0.4-0.2,0.8-0.4,1.1-0.7c0.3-0.3,0.5-0.7,0.7-1.1
	c0.2-0.4,0.3-0.9,0.3-1.4c0-0.5-0.1-0.9-0.3-1.3c-0.2-0.4-0.4-0.8-0.7-1.1c-0.3-0.3-0.7-0.6-1.1-0.7c-0.4-0.2-0.9-0.3-1.4-0.3
	c-0.5,0-0.9,0.1-1.3,0.3c-0.4,0.2-0.8,0.4-1.1,0.7c-0.3,0.3-0.5,0.7-0.7,1.1c-0.2,0.4-0.3,0.9-0.3,1.4c0,0.5,0.1,1,0.3,1.4
	c0.2,0.4,0.4,0.8,0.7,1.1c0.3,0.3,0.7,0.6,1.1,0.7C86.9,191.8,87.3,191.9,87.8,191.9z M98.8,193.2c-1.3,0-2.2-0.4-2.9-1.1
	c-0.7-0.7-1-1.8-1-3.1v-5.2h1.4v5.2c0,0.9,0.2,1.6,0.7,2.1c0.5,0.5,1.1,0.8,2,0.8c0.4,0,0.8-0.1,1.1-0.2c0.3-0.1,0.6-0.4,0.9-0.6
	c0.3-0.3,0.5-0.6,0.6-1c0.1-0.4,0.2-0.8,0.2-1.2v-5.1h1.4v9.2h-1.4v-1.5c-0.3,0.5-0.7,0.9-1.3,1.2C100.1,193,99.5,193.2,98.8,193.2z
	 M110.1,193.2c-0.7,0-1.3-0.1-1.9-0.4s-1.1-0.6-1.5-1c-0.4-0.4-0.8-0.9-1-1.5c-0.2-0.6-0.4-1.2-0.4-1.9c0-0.7,0.1-1.3,0.4-1.9
	c0.2-0.6,0.6-1.1,1-1.5c0.4-0.4,0.9-0.8,1.5-1c0.6-0.2,1.2-0.4,1.9-0.4c0.5,0,1,0.1,1.4,0.2c0.5,0.1,0.9,0.3,1.2,0.6
	c0.4,0.2,0.7,0.5,1,0.9c0.3,0.3,0.5,0.7,0.7,1.1l-1.3,0.6c-0.3-0.6-0.7-1.1-1.2-1.5s-1.2-0.5-1.9-0.5c-0.5,0-0.9,0.1-1.3,0.3
	c-0.4,0.2-0.8,0.4-1.1,0.7c-0.3,0.3-0.5,0.7-0.7,1.1c-0.2,0.4-0.3,0.9-0.3,1.3c0,0.5,0.1,0.9,0.3,1.3c0.2,0.4,0.4,0.8,0.7,1.1
	s0.7,0.6,1.1,0.7s0.9,0.3,1.4,0.3c0.7,0,1.4-0.2,1.9-0.6c0.5-0.4,0.9-0.9,1.2-1.5l1.3,0.5c-0.4,0.9-0.9,1.5-1.7,2.1
	C112.1,192.9,111.2,193.2,110.1,193.2z M116.4,183.8h1.4v9.2h-1.4V183.8z M116.1,181c0-0.3,0.1-0.6,0.3-0.8c0.2-0.2,0.5-0.3,0.8-0.3
	c0.3,0,0.6,0.1,0.8,0.3c0.2,0.2,0.3,0.5,0.3,0.8c0,0.3-0.1,0.6-0.3,0.8c-0.2,0.2-0.5,0.3-0.8,0.3c-0.3,0-0.6-0.1-0.8-0.3
	C116.2,181.6,116.1,181.3,116.1,181z M124.6,193.2c-0.6,0-1.3-0.1-1.8-0.3c-0.6-0.2-1.1-0.6-1.5-1c-0.4-0.4-0.8-0.9-1-1.5
	c-0.2-0.6-0.4-1.2-0.4-1.9s0.1-1.3,0.4-1.9c0.3-0.6,0.6-1.1,1-1.5c0.4-0.4,0.9-0.8,1.5-1c0.6-0.2,1.2-0.4,1.8-0.4c0.3,0,0.7,0,1,0.1
	c0.3,0.1,0.7,0.2,1,0.4c0.3,0.1,0.6,0.3,0.8,0.6c0.3,0.2,0.5,0.5,0.7,0.7v-5.8h1.4V193h-1.4v-1.6c-0.2,0.3-0.4,0.5-0.7,0.8
	c-0.2,0.2-0.5,0.4-0.8,0.6c-0.3,0.1-0.6,0.3-1,0.3C125.3,193.1,125,193.2,124.6,193.2z M124.8,191.9c0.5,0,0.9-0.1,1.4-0.3
	c0.4-0.2,0.8-0.4,1.1-0.7c0.3-0.3,0.5-0.7,0.7-1.1c0.2-0.4,0.3-0.9,0.3-1.4c0-0.5-0.1-0.9-0.3-1.3c-0.2-0.4-0.4-0.8-0.7-1.1
	c-0.3-0.3-0.7-0.6-1.1-0.7c-0.4-0.2-0.9-0.3-1.4-0.3c-0.5,0-0.9,0.1-1.3,0.3c-0.4,0.2-0.8,0.4-1.1,0.7c-0.3,0.3-0.5,0.7-0.7,1.1
	c-0.2,0.4-0.3,0.9-0.3,1.4c0,0.5,0.1,1,0.3,1.4c0.2,0.4,0.4,0.8,0.7,1.1c0.3,0.3,0.7,0.6,1.1,0.7
	C123.8,191.8,124.3,191.9,124.8,191.9z M136.3,193.2c-0.7,0-1.3-0.1-1.9-0.4c-0.6-0.2-1.1-0.6-1.5-1c-0.4-0.4-0.8-0.9-1-1.5
	c-0.2-0.6-0.4-1.2-0.4-1.9c0-0.7,0.1-1.3,0.4-1.9c0.3-0.6,0.6-1.1,1-1.5c0.4-0.4,0.9-0.8,1.5-1c0.6-0.2,1.2-0.4,1.9-0.4
	c0.7,0,1.3,0.1,1.9,0.4c0.6,0.2,1.1,0.6,1.5,1c0.4,0.4,0.8,0.9,1,1.5c0.3,0.6,0.4,1.2,0.4,1.9s-0.1,1.3-0.4,1.9
	c-0.2,0.6-0.6,1.1-1,1.5c-0.4,0.4-0.9,0.8-1.5,1C137.6,193.1,137,193.2,136.3,193.2z M136.3,191.9c0.5,0,0.9-0.1,1.3-0.3
	c0.4-0.2,0.8-0.4,1.1-0.7c0.3-0.3,0.5-0.7,0.7-1.1s0.3-0.9,0.3-1.4c0-0.5-0.1-0.9-0.3-1.4c-0.2-0.4-0.4-0.8-0.7-1.1
	c-0.3-0.3-0.7-0.6-1.1-0.7c-0.4-0.2-0.9-0.3-1.3-0.3s-0.9,0.1-1.3,0.3c-0.4,0.2-0.8,0.4-1.1,0.7c-0.3,0.3-0.5,0.7-0.7,1.1
	c-0.2,0.4-0.3,0.9-0.3,1.4c0,0.5,0.1,1,0.3,1.4s0.4,0.8,0.7,1.1c0.3,0.3,0.7,0.6,1.1,0.7C135.4,191.8,135.8,191.9,136.3,191.9z
	 M146.4,193.2c-1,0-1.8-0.2-2.5-0.5c-0.7-0.4-1.2-0.8-1.6-1.4l1.2-0.8c0.3,0.5,0.7,0.8,1.2,1.1s1.1,0.4,1.8,0.4
	c0.7,0,1.3-0.1,1.6-0.4c0.4-0.3,0.6-0.7,0.6-1.2c0-0.2-0.1-0.5-0.2-0.6c-0.1-0.2-0.3-0.3-0.6-0.4c-0.2-0.1-0.5-0.2-0.8-0.3
	c-0.3-0.1-0.6-0.1-1-0.2c-0.4-0.1-0.8-0.2-1.2-0.3c-0.4-0.1-0.7-0.2-1-0.4c-0.3-0.2-0.6-0.4-0.7-0.7c-0.2-0.3-0.3-0.7-0.3-1.1
	c0-0.4,0.1-0.7,0.2-1c0.2-0.3,0.4-0.6,0.7-0.9c0.3-0.2,0.7-0.4,1.1-0.6c0.4-0.1,0.9-0.2,1.5-0.2c0.9,0,1.6,0.1,2.2,0.4
	c0.6,0.3,1.1,0.7,1.5,1.2l-1.2,0.8c-0.3-0.4-0.6-0.7-1-0.9s-0.9-0.3-1.5-0.3c-0.7,0-1.2,0.1-1.5,0.4c-0.3,0.3-0.5,0.6-0.5,1.1
	c0,0.2,0.1,0.4,0.2,0.6c0.1,0.1,0.3,0.3,0.5,0.4c0.2,0.1,0.5,0.2,0.8,0.3c0.3,0.1,0.6,0.1,1,0.2c0.4,0.1,0.8,0.2,1.2,0.3
	c0.4,0.1,0.7,0.2,1.1,0.4c0.3,0.2,0.6,0.4,0.8,0.7c0.2,0.3,0.3,0.7,0.3,1.2c0,0.4-0.1,0.7-0.2,1.1c-0.1,0.3-0.4,0.6-0.7,0.9
	c-0.3,0.3-0.7,0.5-1.1,0.6C147.6,193.1,147,193.2,146.4,193.2z M152.5,193.1c-0.3,0-0.5-0.1-0.6-0.3c-0.2-0.2-0.2-0.4-0.2-0.7
	c0-0.3,0.1-0.6,0.3-0.8c0.2-0.2,0.5-0.3,0.8-0.3c0.4,0,0.8,0.1,1,0.4c0.2,0.3,0.4,0.6,0.4,1.1c0,0.6-0.2,1.1-0.5,1.6
	c-0.3,0.5-0.8,0.9-1.3,1.2l-0.5-0.6c0.5-0.3,0.8-0.6,1.1-0.9c0.2-0.3,0.4-0.7,0.4-1.1c0-0.1,0-0.1,0-0.2c0,0.2-0.1,0.4-0.2,0.5
	C152.9,193.1,152.8,193.1,152.5,193.1z M163.7,193.2c-1,0-1.8-0.2-2.5-0.5c-0.7-0.4-1.2-0.8-1.6-1.4l1.2-0.8
	c0.3,0.5,0.7,0.8,1.2,1.1s1.1,0.4,1.8,0.4c0.7,0,1.3-0.1,1.6-0.4c0.4-0.3,0.6-0.7,0.6-1.2c0-0.2-0.1-0.5-0.2-0.6
	c-0.1-0.2-0.3-0.3-0.6-0.4c-0.2-0.1-0.5-0.2-0.8-0.3c-0.3-0.1-0.6-0.1-1-0.2c-0.4-0.1-0.8-0.2-1.2-0.3c-0.4-0.1-0.7-0.2-1-0.4
	c-0.3-0.2-0.6-0.4-0.7-0.7c-0.2-0.3-0.3-0.7-0.3-1.1c0-0.4,0.1-0.7,0.2-1c0.2-0.3,0.4-0.6,0.7-0.9c0.3-0.2,0.7-0.4,1.1-0.6
	c0.4-0.1,0.9-0.2,1.5-0.2c0.9,0,1.6,0.1,2.2,0.4c0.6,0.3,1.1,0.7,1.5,1.2L166,186c-0.3-0.4-0.6-0.7-1-0.9s-0.9-0.3-1.5-0.3
	c-0.7,0-1.2,0.1-1.5,0.4c-0.3,0.3-0.5,0.6-0.5,1.1c0,0.2,0.1,0.4,0.2,0.6c0.1,0.1,0.3,0.3,0.5,0.4c0.2,0.1,0.5,0.2,0.8,0.3
	c0.3,0.1,0.6,0.1,1,0.2c0.4,0.1,0.8,0.2,1.2,0.3c0.4,0.1,0.7,0.2,1.1,0.4c0.3,0.2,0.6,0.4,0.8,0.7c0.2,0.3,0.3,0.7,0.3,1.2
	c0,0.4-0.1,0.7-0.2,1.1c-0.1,0.3-0.4,0.6-0.7,0.9c-0.3,0.3-0.7,0.5-1.1,0.6C164.8,193.1,164.3,193.2,163.7,193.2z M173.6,193.2
	c-0.7,0-1.3-0.1-1.9-0.4c-0.6-0.2-1.1-0.6-1.5-1c-0.4-0.4-0.8-0.9-1-1.5c-0.2-0.6-0.4-1.2-0.4-1.9c0-0.7,0.1-1.3,0.4-1.9
	c0.2-0.6,0.6-1.1,1-1.5c0.4-0.4,0.9-0.8,1.5-1c0.6-0.2,1.2-0.4,1.9-0.4c0.7,0,1.3,0.1,1.9,0.4c0.6,0.2,1.1,0.6,1.5,1
	c0.4,0.4,0.8,0.9,1,1.5c0.3,0.6,0.4,1.2,0.4,1.9s-0.1,1.3-0.4,1.9c-0.2,0.6-0.6,1.1-1,1.5c-0.4,0.4-0.9,0.8-1.5,1
	S174.3,193.2,173.6,193.2z M173.6,191.9c0.5,0,0.9-0.1,1.3-0.3c0.4-0.2,0.8-0.4,1.1-0.7c0.3-0.3,0.5-0.7,0.7-1.1s0.3-0.9,0.3-1.4
	c0-0.5-0.1-0.9-0.3-1.4c-0.2-0.4-0.4-0.8-0.7-1.1c-0.3-0.3-0.7-0.6-1.1-0.7c-0.4-0.2-0.9-0.3-1.3-0.3s-0.9,0.1-1.3,0.3
	c-0.4,0.2-0.8,0.4-1.1,0.7c-0.3,0.3-0.5,0.7-0.7,1.1c-0.2,0.4-0.3,0.9-0.3,1.4c0,0.5,0.1,1,0.3,1.4s0.4,0.8,0.7,1.1
	c0.3,0.3,0.7,0.6,1.1,0.7C172.7,191.8,173.1,191.9,173.6,191.9z M180.5,183.8h1.4v1.5c0.3-0.5,0.7-0.9,1.3-1.2
	c0.6-0.3,1.2-0.5,1.9-0.5c0.6,0,1.1,0.1,1.6,0.3c0.5,0.2,0.9,0.5,1.2,0.8c0.3,0.4,0.6,0.8,0.8,1.3c0.2,0.5,0.3,1.1,0.3,1.7v5.2h-1.4
	v-5.2c0-0.9-0.2-1.6-0.7-2.1s-1.2-0.8-2.1-0.8c-0.4,0-0.8,0.1-1.1,0.2c-0.4,0.1-0.7,0.4-0.9,0.6c-0.3,0.3-0.5,0.6-0.6,1
	c-0.1,0.4-0.2,0.8-0.2,1.2v5.1h-1.4L180.5,183.8L180.5,183.8z M195.6,183.8h1.4v9.2h-1.4V183.8z M195.2,181c0-0.3,0.1-0.6,0.3-0.8
	c0.2-0.2,0.5-0.3,0.8-0.3c0.3,0,0.6,0.1,0.8,0.3c0.2,0.2,0.3,0.5,0.3,0.8c0,0.3-0.1,0.6-0.3,0.8c-0.2,0.2-0.5,0.3-0.8,0.3
	c-0.3,0-0.6-0.1-0.8-0.3C195.3,181.6,195.2,181.3,195.2,181z M199.5,183.8h1.4v1.5c0.3-0.5,0.7-0.9,1.3-1.2c0.6-0.3,1.2-0.5,1.9-0.5
	c0.6,0,1.1,0.1,1.6,0.3c0.5,0.2,0.9,0.5,1.2,0.8c0.3,0.4,0.6,0.8,0.8,1.3c0.2,0.5,0.3,1.1,0.3,1.7v5.2h-1.4v-5.2
	c0-0.9-0.2-1.6-0.7-2.1s-1.2-0.8-2.1-0.8c-0.4,0-0.8,0.1-1.1,0.2c-0.4,0.1-0.7,0.4-0.9,0.6c-0.3,0.3-0.5,0.6-0.6,1
	c-0.1,0.4-0.2,0.8-0.2,1.2v5.1h-1.4L199.5,183.8L199.5,183.8z M214.7,193.2c-0.7,0-1.3-0.1-1.9-0.4c-0.6-0.2-1.1-0.6-1.5-1
	c-0.4-0.4-0.8-0.9-1-1.5c-0.2-0.6-0.4-1.2-0.4-1.9c0-0.7,0.1-1.3,0.4-1.9c0.3-0.6,0.6-1.1,1-1.5c0.4-0.4,0.9-0.8,1.5-1
	c0.6-0.2,1.2-0.4,1.9-0.4c0.5,0,1,0.1,1.4,0.2c0.5,0.1,0.9,0.3,1.2,0.6c0.4,0.2,0.7,0.5,1,0.9c0.3,0.3,0.5,0.7,0.7,1.1l-1.3,0.6
	c-0.3-0.6-0.7-1.1-1.2-1.5c-0.5-0.4-1.2-0.5-1.9-0.5c-0.5,0-0.9,0.1-1.3,0.3c-0.4,0.2-0.8,0.4-1.1,0.7c-0.3,0.3-0.5,0.7-0.7,1.1
	c-0.2,0.4-0.3,0.9-0.3,1.3c0,0.5,0.1,0.9,0.3,1.3c0.2,0.4,0.4,0.8,0.7,1.1s0.7,0.6,1.1,0.7s0.9,0.3,1.4,0.3c0.7,0,1.4-0.2,1.9-0.6
	c0.5-0.4,0.9-0.9,1.2-1.5l1.3,0.5c-0.4,0.9-0.9,1.5-1.7,2.1C216.7,192.9,215.8,193.2,214.7,193.2z M225.4,193.2
	c-0.7,0-1.3-0.1-1.9-0.4c-0.6-0.2-1.1-0.6-1.5-1c-0.4-0.4-0.8-0.9-1-1.5c-0.2-0.6-0.4-1.2-0.4-1.9c0-0.7,0.1-1.3,0.4-1.9
	c0.2-0.6,0.6-1.1,1-1.5c0.4-0.4,0.9-0.8,1.5-1c0.6-0.2,1.2-0.4,1.9-0.4c0.7,0,1.3,0.1,1.9,0.4c0.6,0.2,1.1,0.6,1.5,1
	c0.4,0.4,0.8,0.9,1,1.5c0.2,0.6,0.4,1.2,0.4,1.9s-0.1,1.3-0.4,1.9c-0.2,0.6-0.6,1.1-1,1.5c-0.4,0.4-0.9,0.8-1.5,1
	S226,193.2,225.4,193.2z M225.4,191.9c0.5,0,0.9-0.1,1.3-0.3c0.4-0.2,0.8-0.4,1.1-0.7c0.3-0.3,0.5-0.7,0.7-1.1
	c0.2-0.4,0.3-0.9,0.3-1.4c0-0.5-0.1-0.9-0.3-1.4c-0.2-0.4-0.4-0.8-0.7-1.1c-0.3-0.3-0.7-0.6-1.1-0.7c-0.4-0.2-0.9-0.3-1.3-0.3
	c-0.5,0-0.9,0.1-1.3,0.3c-0.4,0.2-0.8,0.4-1.1,0.7c-0.3,0.3-0.5,0.7-0.7,1.1c-0.2,0.4-0.3,0.9-0.3,1.4c0,0.5,0.1,1,0.3,1.4
	c0.2,0.4,0.4,0.8,0.7,1.1c0.3,0.3,0.7,0.6,1.1,0.7C224.4,191.8,224.9,191.9,225.4,191.9z M232.2,183.8h1.3v1.7
	c0.2-0.6,0.5-1.1,1-1.4c0.5-0.3,1-0.5,1.7-0.5s1.2,0.1,1.5,0.3l-0.6,1.3c-0.1-0.1-0.3-0.2-0.5-0.2c-0.2-0.1-0.4-0.1-0.6-0.1
	c-0.8,0-1.4,0.2-1.8,0.7c-0.4,0.5-0.6,1.2-0.6,2.2v5h-1.4L232.2,183.8L232.2,183.8z M239.4,183.8h1.3v1.7c0.2-0.6,0.5-1.1,1-1.4
	c0.5-0.3,1-0.5,1.7-0.5s1.2,0.1,1.5,0.3l-0.6,1.3c-0.1-0.1-0.3-0.2-0.5-0.2c-0.2-0.1-0.4-0.1-0.6-0.1c-0.8,0-1.4,0.2-1.8,0.7
	c-0.4,0.5-0.6,1.2-0.6,2.2v5h-1.4L239.4,183.8L239.4,183.8z M250.2,193.2c-0.7,0-1.4-0.1-2-0.4c-0.6-0.2-1.1-0.6-1.5-1
	c-0.4-0.4-0.7-0.9-1-1.5c-0.2-0.6-0.3-1.2-0.3-1.9c0-0.7,0.1-1.3,0.4-1.9c0.2-0.6,0.6-1.1,1-1.5c0.4-0.4,0.9-0.8,1.5-1
	c0.6-0.2,1.2-0.4,1.9-0.4c0.7,0,1.3,0.1,1.9,0.4c0.6,0.2,1.1,0.6,1.5,1c0.4,0.4,0.7,0.9,1,1.5c0.2,0.6,0.4,1.2,0.4,1.9v0.6h-8.1
	c0,0.4,0.2,0.8,0.4,1.2c0.2,0.4,0.4,0.7,0.7,1c0.3,0.3,0.7,0.5,1.1,0.6c0.4,0.1,0.9,0.2,1.3,0.2c0.7,0,1.4-0.2,1.9-0.5
	c0.5-0.3,0.9-0.7,1.2-1.3l1.2,0.7c-0.5,0.7-1.1,1.3-1.7,1.7C252.1,193,251.3,193.2,250.2,193.2z M250.2,184.9
	c-0.4,0-0.9,0.1-1.2,0.2c-0.4,0.1-0.7,0.3-1,0.6c-0.3,0.2-0.5,0.6-0.7,0.9c-0.2,0.3-0.3,0.7-0.4,1.1h6.6c-0.1-0.9-0.5-1.6-1-2.1
	S251.1,184.9,250.2,184.9z M261.4,193.2c-0.7,0-1.3-0.1-1.9-0.4c-0.6-0.2-1.1-0.6-1.5-1c-0.4-0.4-0.8-0.9-1-1.5
	c-0.2-0.6-0.4-1.2-0.4-1.9c0-0.7,0.1-1.3,0.4-1.9c0.2-0.6,0.6-1.1,1-1.5c0.4-0.4,0.9-0.8,1.5-1c0.6-0.2,1.2-0.4,1.9-0.4
	c0.5,0,1,0.1,1.4,0.2c0.5,0.1,0.9,0.3,1.2,0.6c0.4,0.2,0.7,0.5,1,0.9c0.3,0.3,0.5,0.7,0.7,1.1l-1.3,0.6c-0.3-0.6-0.7-1.1-1.2-1.5
	s-1.2-0.5-1.9-0.5c-0.5,0-0.9,0.1-1.3,0.3c-0.4,0.2-0.8,0.4-1.1,0.7c-0.3,0.3-0.5,0.7-0.7,1.1c-0.2,0.4-0.3,0.9-0.3,1.3
	c0,0.5,0.1,0.9,0.3,1.3c0.2,0.4,0.4,0.8,0.7,1.1s0.7,0.6,1.1,0.7c0.4,0.2,0.9,0.3,1.4,0.3c0.7,0,1.4-0.2,1.9-0.6
	c0.5-0.4,0.9-0.9,1.2-1.5l1.3,0.5c-0.4,0.9-0.9,1.5-1.7,2.1C263.4,192.9,262.5,193.2,261.4,193.2z M266.8,183.8h1.8v-2l1.4-0.9v2.9
	h2.7v1.2H270v5.1c0,0.6,0.1,1,0.4,1.3c0.2,0.2,0.6,0.4,1,0.4c0.4,0,0.7-0.1,1.1-0.4l0.7,1.1c-0.3,0.2-0.5,0.4-0.9,0.5
	c-0.3,0.1-0.7,0.2-1,0.2c-0.9,0-1.5-0.2-1.9-0.7c-0.4-0.5-0.7-1.2-0.7-2.2v-5.2h-1.8L266.8,183.8L266.8,183.8z M278.5,193.2
	c-0.7,0-1.3-0.1-1.9-0.4c-0.6-0.2-1.1-0.6-1.5-1c-0.4-0.4-0.8-0.9-1-1.5c-0.2-0.6-0.4-1.2-0.4-1.9c0-0.7,0.1-1.3,0.4-1.9
	c0.2-0.6,0.6-1.1,1-1.5c0.4-0.4,0.9-0.8,1.5-1c0.6-0.2,1.2-0.4,1.9-0.4c0.7,0,1.3,0.1,1.9,0.4c0.6,0.2,1.1,0.6,1.5,1
	c0.4,0.4,0.8,0.9,1,1.5c0.2,0.6,0.4,1.2,0.4,1.9s-0.1,1.3-0.4,1.9c-0.2,0.6-0.6,1.1-1,1.5c-0.4,0.4-0.9,0.8-1.5,1
	S279.2,193.2,278.5,193.2z M278.5,191.9c0.5,0,0.9-0.1,1.3-0.3c0.4-0.2,0.8-0.4,1.1-0.7c0.3-0.3,0.5-0.7,0.7-1.1s0.3-0.9,0.3-1.4
	c0-0.5-0.1-0.9-0.3-1.4c-0.2-0.4-0.4-0.8-0.7-1.1c-0.3-0.3-0.7-0.6-1.1-0.7c-0.4-0.2-0.9-0.3-1.3-0.3s-0.9,0.1-1.3,0.3
	c-0.4,0.2-0.8,0.4-1.1,0.7c-0.3,0.3-0.5,0.7-0.7,1.1c-0.2,0.4-0.3,0.9-0.3,1.4c0,0.5,0.1,1,0.3,1.4s0.4,0.8,0.7,1.1
	c0.3,0.3,0.7,0.6,1.1,0.7C277.6,191.8,278.1,191.9,278.5,191.9z M288.6,193.2c-1,0-1.8-0.2-2.5-0.5c-0.7-0.4-1.2-0.8-1.6-1.4
	l1.2-0.8c0.3,0.5,0.7,0.8,1.2,1.1c0.5,0.3,1.1,0.4,1.8,0.4c0.7,0,1.3-0.1,1.6-0.4c0.4-0.3,0.6-0.7,0.6-1.2c0-0.2-0.1-0.5-0.2-0.6
	c-0.1-0.2-0.3-0.3-0.6-0.4c-0.2-0.1-0.5-0.2-0.8-0.3c-0.3-0.1-0.6-0.1-1-0.2c-0.4-0.1-0.8-0.2-1.2-0.3c-0.4-0.1-0.7-0.2-1-0.4
	c-0.3-0.2-0.6-0.4-0.7-0.7c-0.2-0.3-0.3-0.7-0.3-1.1c0-0.4,0.1-0.7,0.2-1c0.2-0.3,0.4-0.6,0.7-0.9c0.3-0.2,0.7-0.4,1.1-0.6
	c0.4-0.1,0.9-0.2,1.5-0.2c0.9,0,1.6,0.1,2.2,0.4c0.6,0.3,1.1,0.7,1.5,1.2l-1.2,0.8c-0.3-0.4-0.6-0.7-1-0.9s-0.9-0.3-1.5-0.3
	c-0.7,0-1.2,0.1-1.5,0.4c-0.3,0.3-0.5,0.6-0.5,1.1c0,0.2,0.1,0.4,0.2,0.6c0.1,0.1,0.3,0.3,0.5,0.4c0.2,0.1,0.5,0.2,0.8,0.3
	c0.3,0.1,0.6,0.1,1,0.2c0.4,0.1,0.8,0.2,1.2,0.3c0.4,0.1,0.7,0.2,1.1,0.4c0.3,0.2,0.6,0.4,0.8,0.7c0.2,0.3,0.3,0.7,0.3,1.2
	c0,0.4-0.1,0.7-0.2,1.1c-0.1,0.3-0.4,0.6-0.7,0.9c-0.3,0.3-0.7,0.5-1.1,0.6S289.3,193.2,288.6,193.2z M293.9,192.1
	c0-0.3,0.1-0.6,0.3-0.8c0.2-0.2,0.5-0.3,0.8-0.3c0.3,0,0.6,0.1,0.8,0.3c0.2,0.2,0.3,0.5,0.3,0.8c0,0.3-0.1,0.6-0.3,0.8
	c-0.2,0.2-0.5,0.3-0.8,0.3c-0.3,0-0.6-0.1-0.8-0.3C294,192.7,293.9,192.4,293.9,192.1z"/>
<linearGradient id="SVGID_1_" gradientUnits="userSpaceOnUse" x1="419.5059" y1="944.6755" x2="486.0475" y2="1113.7207" gradientTransform="matrix(1 0 0 1 -253.2998 -870.314)">
	<stop  offset="9.500000e-07" style="stop-color:#E1E9FF"/>
	<stop  offset="1" style="stop-color:#8173FF"/>
</linearGradient>
<path class="st3" d="M170,132c26.5,0,48-21.5,48-48c0-26.5-21.5-48-48-48s-48,21.5-48,48C122,110.5,143.5,132,170,132z"/>
<path class="st4" d="M194.9,59h-49.7c-3.4,0-6.2,2.8-6.2,6.3l0,37.5c0,3.4,2.8,6.3,6.2,6.3h49.7c3.4,0,6.2-2.8,6.2-6.3V65.3
	C201.1,61.8,198.3,59,194.9,59z M193.6,72.3l-21.9,13.8c-1,0.6-2.3,0.6-3.3,0l-21.9-13.8c-0.3-0.2-0.6-0.4-0.8-0.7
	c-0.2-0.3-0.4-0.6-0.5-1c-0.1-0.3-0.1-0.7-0.1-1.1c0.1-0.4,0.2-0.7,0.4-1c0.2-0.3,0.4-0.6,0.7-0.8c0.3-0.2,0.6-0.3,1-0.4
	c0.4-0.1,0.7-0.1,1.1,0c0.3,0.1,0.7,0.2,1,0.4L170,80.9l20.8-13.1c0.3-0.2,0.6-0.3,1-0.4c0.4-0.1,0.7-0.1,1.1,0
	c0.4,0.1,0.7,0.2,1,0.4c0.3,0.2,0.5,0.5,0.7,0.8s0.3,0.6,0.4,1c0.1,0.4,0,0.7-0.1,1.1c-0.1,0.3-0.2,0.7-0.5,1
	C194.2,71.9,193.9,72.1,193.6,72.3z"/>
<path class="st5" d="M127,84.5h86c5.2,0,9.5,4.3,9.5,9.5l0,0c0,5.2-4.3,9.5-9.5,9.5h-86c-5.2,0-9.5-4.3-9.5-9.5l0,0
	C117.5,88.8,121.8,84.5,127,84.5z"/>
<circle class="st2" cx="138" cy="94" r="4"/>
<circle class="st2" cx="151" cy="94" r="4"/>
<circle class="st2" cx="164" cy="94" r="4"/>
<circle class="st2" cx="177" cy="94" r="4"/>
<circle class="st2" cx="190" cy="94" r="4"/>
<circle class="st2" cx="203" cy="94" r="4"/>
</svg>
