<?xml version="1.0" encoding="utf-8"?>
<!-- Generator: Adobe Illustrator 16.0.3, SVG Export Plug-In . SVG Version: 6.00 Build 0)  -->
<!DOCTYPE svg PUBLIC "-//W3C//DTD SVG 1.1//EN" "http://www.w3.org/Graphics/SVG/1.1/DTD/svg11.dtd">
<svg version="1.1" id="Capa_1" xmlns="http://www.w3.org/2000/svg" xmlns:xlink="http://www.w3.org/1999/xlink" x="0px" y="0px"
	 width="340px" height="340px" viewBox="0 0 340 340" enable-background="new 0 0 340 340" xml:space="preserve">
<path fill="#FFFFFF" d="M3,21C3,9.954,11.954,1,23,1h295c11.046,0,20,8.954,20,20v300c0,11.046-8.954,20-20,20H23
	c-11.046,0-20-8.954-20-20V21z"/>
<path fill="#d69d66" d="M39,241h264c5.523,0,10,4.477,10,10v30c0,5.522-4.477,10-10,10H39c-5.523,0-10-4.478-10-10v-30
	C29,245.477,33.477,241,39,241z"/>
<path fill="#566865" d="M136.841,257.4h2.78l5.52,14.601h-2.9l-0.96-2.66h-6.1l-0.96,2.66h-2.9L136.841,257.4z M136.121,266.78h4.22
	l-2.1-5.8L136.121,266.78z M151.191,272.22c-0.813,0-1.566-0.147-2.26-0.44c-0.693-0.293-1.293-0.692-1.8-1.2
	c-0.506-0.507-0.906-1.1-1.2-1.779c-0.28-0.681-0.42-1.413-0.42-2.2c0-0.8,0.14-1.54,0.42-2.22c0.294-0.681,0.694-1.273,1.2-1.78
	c0.52-0.507,1.12-0.9,1.8-1.18c0.694-0.293,1.44-0.44,2.24-0.44c0.627,0,1.214,0.087,1.76,0.26c0.547,0.16,1.04,0.394,1.48,0.7
	c0.454,0.293,0.847,0.653,1.18,1.08c0.347,0.413,0.627,0.873,0.84,1.38l-2.54,1.021c-0.226-0.588-0.573-1.04-1.04-1.36
	c-0.466-0.333-1.013-0.5-1.64-0.5c-0.413,0-0.8,0.08-1.16,0.24c-0.36,0.16-0.673,0.38-0.94,0.66c-0.266,0.267-0.48,0.587-0.64,0.96
	c-0.146,0.373-0.22,0.767-0.22,1.18s0.074,0.8,0.22,1.16c0.16,0.359,0.374,0.68,0.64,0.96c0.28,0.267,0.6,0.479,0.96,0.64
	c0.36,0.16,0.747,0.24,1.16,0.24c0.64,0,1.187-0.173,1.64-0.521c0.467-0.347,0.814-0.8,1.04-1.359l2.58,1.06
	c-0.466,1-1.146,1.827-2.04,2.48C153.571,271.9,152.485,272.22,151.191,272.22z M163.321,272.22c-0.866,0-1.653-0.141-2.36-0.42
	c-0.706-0.293-1.313-0.693-1.82-1.2c-0.493-0.507-0.873-1.1-1.14-1.78c-0.266-0.68-0.4-1.413-0.4-2.2s0.14-1.52,0.42-2.199
	c0.294-0.693,0.694-1.293,1.2-1.801c0.507-0.507,1.107-0.906,1.8-1.199c0.694-0.293,1.44-0.44,2.24-0.44
	c0.814,0,1.56,0.14,2.24,0.42s1.267,0.667,1.76,1.16c0.494,0.479,0.88,1.06,1.16,1.74c0.28,0.68,0.42,1.42,0.42,2.22v1.04h-8.58
	c0.187,0.707,0.547,1.267,1.08,1.68c0.547,0.4,1.22,0.601,2.02,0.601c0.64,0,1.18-0.127,1.62-0.38c0.44-0.268,0.794-0.62,1.06-1.061
	l2.26,1.32c-0.546,0.76-1.213,1.367-2,1.819C165.515,271.992,164.521,272.22,163.321,272.22z M163.261,263.32
	c-0.706,0-1.313,0.188-1.82,0.561c-0.506,0.373-0.873,0.88-1.1,1.52h5.76c-0.186-0.68-0.526-1.193-1.02-1.54
	C164.588,263.5,163.981,263.32,163.261,263.32z M176.796,272.22c-0.733,0-1.394-0.127-1.979-0.38
	c-0.586-0.268-1.061-0.653-1.42-1.16v5.64h-2.74v-15.12h2.72v1.5c0.36-0.533,0.834-0.953,1.42-1.26
	c0.587-0.307,1.247-0.46,1.979-0.46c0.681,0,1.334,0.133,1.961,0.4c0.627,0.253,1.18,0.627,1.66,1.12
	c0.479,0.492,0.859,1.087,1.14,1.779c0.294,0.693,0.44,1.467,0.44,2.32c0,0.867-0.146,1.646-0.44,2.34
	c-0.293,0.68-0.681,1.267-1.16,1.76s-1.033,0.873-1.66,1.141C178.104,272.093,177.463,272.22,176.796,272.22z M176.236,269.619
	c0.414,0,0.8-0.08,1.16-0.239c0.359-0.16,0.674-0.373,0.939-0.641c0.28-0.279,0.494-0.6,0.641-0.96
	c0.16-0.373,0.239-0.772,0.239-1.2c0-0.427-0.079-0.819-0.239-1.18c-0.146-0.373-0.36-0.693-0.641-0.96
	c-0.266-0.28-0.58-0.5-0.939-0.66c-0.36-0.16-0.746-0.24-1.16-0.24c-0.426,0-0.826,0.08-1.2,0.24c-0.36,0.16-0.673,0.38-0.94,0.66
	c-0.266,0.267-0.479,0.587-0.64,0.96c-0.146,0.373-0.22,0.767-0.22,1.18c0,0.428,0.074,0.827,0.22,1.2
	c0.16,0.36,0.374,0.681,0.64,0.96c0.268,0.268,0.58,0.48,0.94,0.641C175.41,269.539,175.811,269.619,176.236,269.619z
	 M182.673,261.199h2v-2.34l2.72-1.6v3.939h2.84v2.44h-2.84v4.439c0,0.573,0.107,0.974,0.32,1.2c0.227,0.228,0.514,0.34,0.86,0.34
	c0.36,0,0.694-0.133,1-0.399l1.26,2.16c-0.347,0.267-0.74,0.473-1.181,0.62c-0.426,0.133-0.893,0.199-1.399,0.199
	c-1.133,0-2.013-0.3-2.64-0.899c-0.627-0.613-0.94-1.653-0.94-3.12v-4.54h-2V261.199z M195.363,272.22
	c-1.186,0-2.112-0.293-2.779-0.88c-0.652-0.601-0.98-1.38-0.98-2.34c0-1.134,0.435-2.021,1.301-2.66
	c0.867-0.641,2.054-0.96,3.56-0.96h2.841v-0.141c0-0.587-0.193-1.06-0.58-1.42c-0.387-0.359-0.974-0.54-1.761-0.54
	c-0.612,0-1.126,0.127-1.54,0.38c-0.412,0.24-0.746,0.587-1,1.04l-2.54-1.26c0.548-0.72,1.228-1.307,2.04-1.76
	c0.827-0.467,1.848-0.7,3.061-0.7c1.6,0,2.834,0.387,3.699,1.16c0.867,0.772,1.301,1.847,1.301,3.22V272h-2.66v-1.66
	c-0.387,0.56-0.934,1.013-1.641,1.359C196.991,272.047,196.218,272.22,195.363,272.22z M196.164,269.94
	c0.334,0,0.66-0.047,0.98-0.14c0.319-0.094,0.619-0.228,0.899-0.4s0.526-0.38,0.74-0.62c0.228-0.24,0.407-0.507,0.54-0.8v-0.58
	h-2.54c-0.826,0-1.421,0.12-1.78,0.36c-0.346,0.24-0.52,0.572-0.52,1C194.484,269.547,195.044,269.94,196.164,269.94z
	 M204.113,261.199h2.72v1.66c0.267-0.64,0.653-1.106,1.16-1.399c0.521-0.308,1.127-0.46,1.819-0.46c0.36,0,0.694,0.039,1,0.119
	c0.32,0.08,0.595,0.181,0.82,0.301l-1,2.72c-0.146-0.107-0.346-0.193-0.6-0.26c-0.254-0.08-0.533-0.12-0.84-0.12
	c-0.707,0-1.273,0.2-1.7,0.6c-0.427,0.387-0.64,1.033-0.64,1.94v5.7h-2.74V261.199z"/>
<path fill="#566865" d="M24.504,158.59h8.245v1.343h-6.834v4.165h6.834v1.343h-6.834v4.199h6.834V171h-8.245V158.59z
	 M35.142,157.604h1.394V171h-1.394V157.604z M47.409,171.187c-0.691,0-1.332-0.125-1.921-0.374s-1.1-0.589-1.53-1.02
	c-0.431-0.432-0.771-0.936-1.02-1.514c-0.238-0.578-0.357-1.201-0.357-1.87c0-0.68,0.119-1.309,0.357-1.887
	c0.25-0.578,0.589-1.082,1.02-1.513c0.442-0.432,0.952-0.766,1.53-1.003c0.589-0.249,1.224-0.374,1.904-0.374
	c0.533,0,1.031,0.073,1.496,0.221c0.465,0.136,0.884,0.334,1.258,0.595c0.385,0.249,0.72,0.556,1.003,0.918
	c0.295,0.352,0.533,0.742,0.714,1.173l-2.159,0.867c-0.192-0.499-0.487-0.884-0.884-1.155c-0.397-0.283-0.861-0.426-1.394-0.426
	c-0.352,0-0.68,0.068-0.986,0.204c-0.306,0.136-0.572,0.323-0.799,0.562c-0.227,0.227-0.408,0.499-0.544,0.815
	c-0.125,0.317-0.187,0.652-0.187,1.003c0,0.352,0.063,0.681,0.187,0.986c0.136,0.306,0.317,0.578,0.544,0.816
	c0.238,0.227,0.51,0.407,0.816,0.544c0.306,0.136,0.635,0.204,0.986,0.204c0.544,0,1.009-0.147,1.394-0.442
	c0.397-0.295,0.691-0.68,0.884-1.156l2.193,0.901c-0.396,0.85-0.975,1.553-1.734,2.107
	C49.432,170.914,48.508,171.187,47.409,171.187z M57.703,171.187c-0.691,0-1.332-0.125-1.921-0.374
	c-0.589-0.249-1.105-0.589-1.547-1.02c-0.431-0.442-0.771-0.952-1.02-1.53c-0.238-0.578-0.357-1.196-0.357-1.854
	c0-0.656,0.119-1.274,0.357-1.853c0.25-0.589,0.589-1.1,1.02-1.53c0.442-0.431,0.958-0.771,1.547-1.02
	c0.589-0.249,1.23-0.374,1.921-0.374c0.68,0,1.314,0.125,1.904,0.374c0.601,0.249,1.116,0.589,1.547,1.02
	c0.442,0.431,0.788,0.941,1.037,1.53c0.25,0.578,0.374,1.196,0.374,1.853c0,0.657-0.125,1.275-0.374,1.854
	c-0.249,0.578-0.589,1.088-1.02,1.53c-0.431,0.431-0.946,0.771-1.547,1.02C59.034,171.062,58.394,171.187,57.703,171.187z
	 M57.72,168.96c0.351,0,0.68-0.068,0.986-0.204c0.306-0.137,0.572-0.317,0.799-0.544c0.227-0.228,0.402-0.493,0.527-0.8
	c0.136-0.316,0.204-0.656,0.204-1.02c0-0.352-0.068-0.687-0.204-1.003c-0.125-0.317-0.3-0.589-0.527-0.816
	c-0.227-0.227-0.493-0.408-0.799-0.544s-0.635-0.204-0.986-0.204c-0.352,0-0.68,0.068-0.986,0.204
	c-0.306,0.136-0.572,0.317-0.799,0.544c-0.227,0.228-0.408,0.499-0.544,0.816c-0.125,0.316-0.187,0.651-0.187,1.003
	c0,0.363,0.062,0.703,0.187,1.02c0.136,0.307,0.317,0.572,0.544,0.8c0.227,0.227,0.493,0.407,0.799,0.544
	C57.04,168.892,57.368,168.96,57.72,168.96z M64.104,161.82h2.312v1.411c0.227-0.544,0.555-0.941,0.986-1.19
	c0.442-0.261,0.958-0.391,1.547-0.391c0.306,0,0.589,0.034,0.85,0.103c0.272,0.067,0.504,0.152,0.697,0.255l-0.85,2.312
	c-0.125-0.091-0.294-0.164-0.51-0.221c-0.215-0.068-0.454-0.103-0.714-0.103c-0.601,0-1.082,0.17-1.445,0.511
	c-0.363,0.329-0.544,0.878-0.544,1.648V171h-2.329V161.82z M71.707,161.82h2.312v1.411c0.227-0.544,0.555-0.941,0.986-1.19
	c0.442-0.261,0.958-0.391,1.547-0.391c0.306,0,0.589,0.034,0.85,0.103c0.272,0.067,0.504,0.152,0.697,0.255l-0.85,2.312
	c-0.125-0.091-0.294-0.164-0.51-0.221c-0.215-0.068-0.454-0.103-0.714-0.103c-0.601,0-1.082,0.17-1.445,0.511
	c-0.363,0.329-0.544,0.878-0.544,1.648V171h-2.329V161.82z M83.12,171.187c-0.737,0-1.405-0.119-2.006-0.357
	c-0.601-0.249-1.116-0.589-1.547-1.02c-0.419-0.431-0.742-0.935-0.969-1.513c-0.227-0.578-0.34-1.201-0.34-1.87
	s0.119-1.292,0.357-1.87c0.25-0.589,0.589-1.1,1.02-1.53s0.941-0.771,1.53-1.02s1.224-0.374,1.904-0.374
	c0.691,0,1.326,0.119,1.904,0.356c0.578,0.238,1.077,0.567,1.496,0.986c0.419,0.408,0.748,0.901,0.986,1.479
	c0.238,0.578,0.357,1.207,0.357,1.888v0.884h-7.293c0.159,0.601,0.464,1.077,0.918,1.428c0.464,0.34,1.037,0.51,1.717,0.51
	c0.544,0,1.003-0.107,1.377-0.322c0.374-0.228,0.674-0.527,0.901-0.901l1.921,1.122c-0.465,0.646-1.031,1.162-1.7,1.547
	S84.14,171.187,83.12,171.187z M83.069,163.621c-0.601,0-1.116,0.159-1.547,0.477c-0.431,0.316-0.742,0.748-0.935,1.292h4.896
	c-0.159-0.578-0.448-1.014-0.867-1.31C84.197,163.775,83.681,163.621,83.069,163.621z M93.911,171.187
	c-0.692,0-1.332-0.125-1.921-0.374c-0.59-0.249-1.105-0.589-1.547-1.02c-0.431-0.442-0.771-0.952-1.02-1.53
	c-0.238-0.578-0.357-1.196-0.357-1.854c0-0.656,0.119-1.274,0.357-1.853c0.249-0.589,0.589-1.1,1.02-1.53
	c0.442-0.431,0.957-0.771,1.547-1.02c0.589-0.249,1.229-0.374,1.921-0.374c0.68,0,1.314,0.125,1.904,0.374
	c0.6,0.249,1.116,0.589,1.547,1.02c0.442,0.431,0.787,0.941,1.037,1.53c0.249,0.578,0.374,1.196,0.374,1.853
	c0,0.657-0.125,1.275-0.374,1.854c-0.25,0.578-0.59,1.088-1.02,1.53c-0.431,0.431-0.947,0.771-1.547,1.02
	C95.242,171.062,94.602,171.187,93.911,171.187z M93.928,168.96c0.351,0,0.68-0.068,0.986-0.204
	c0.306-0.137,0.572-0.317,0.799-0.544c0.226-0.228,0.402-0.493,0.527-0.8c0.136-0.316,0.204-0.656,0.204-1.02
	c0-0.352-0.068-0.687-0.204-1.003c-0.125-0.317-0.301-0.589-0.527-0.816c-0.227-0.227-0.493-0.408-0.799-0.544
	s-0.635-0.204-0.986-0.204c-0.352,0-0.68,0.068-0.986,0.204c-0.306,0.136-0.573,0.317-0.799,0.544
	c-0.227,0.228-0.408,0.499-0.544,0.816c-0.125,0.316-0.187,0.651-0.187,1.003c0,0.363,0.062,0.703,0.187,1.02
	c0.136,0.307,0.317,0.572,0.544,0.8c0.226,0.227,0.493,0.407,0.799,0.544C93.248,168.892,93.576,168.96,93.928,168.96z
	 M108.869,171.187c-0.737,0-1.405-0.119-2.006-0.357c-0.601-0.249-1.116-0.589-1.547-1.02c-0.419-0.431-0.742-0.935-0.969-1.513
	s-0.34-1.201-0.34-1.87s0.119-1.292,0.357-1.87c0.249-0.589,0.589-1.1,1.02-1.53c0.431-0.431,0.941-0.771,1.53-1.02
	s1.224-0.374,1.904-0.374c0.691,0,1.326,0.119,1.904,0.356c0.578,0.238,1.077,0.567,1.496,0.986
	c0.419,0.408,0.748,0.901,0.986,1.479c0.238,0.578,0.357,1.207,0.357,1.888v0.884h-7.293c0.159,0.601,0.465,1.077,0.918,1.428
	c0.465,0.34,1.037,0.51,1.717,0.51c0.544,0,1.003-0.107,1.377-0.322c0.374-0.228,0.674-0.527,0.901-0.901l1.921,1.122
	c-0.465,0.646-1.031,1.162-1.7,1.547S109.889,171.187,108.869,171.187z M108.818,163.621c-0.601,0-1.116,0.159-1.547,0.477
	c-0.431,0.316-0.742,0.748-0.935,1.292h4.896c-0.159-0.578-0.448-1.014-0.867-1.31C109.946,163.775,109.43,163.621,108.818,163.621z
	 M115.104,157.604h2.346V171h-2.346V157.604z M123.844,171.187c-0.737,0-1.406-0.119-2.006-0.357
	c-0.601-0.249-1.117-0.589-1.547-1.02c-0.42-0.431-0.743-0.935-0.969-1.513c-0.227-0.578-0.34-1.201-0.34-1.87
	s0.119-1.292,0.357-1.87c0.249-0.589,0.589-1.1,1.02-1.53c0.43-0.431,0.94-0.771,1.53-1.02c0.589-0.249,1.224-0.374,1.904-0.374
	c0.691,0,1.326,0.119,1.904,0.356c0.578,0.238,1.076,0.567,1.496,0.986c0.419,0.408,0.748,0.901,0.986,1.479
	c0.238,0.578,0.357,1.207,0.357,1.888v0.884h-7.293c0.158,0.601,0.464,1.077,0.918,1.428c0.464,0.34,1.037,0.51,1.717,0.51
	c0.544,0,1.003-0.107,1.377-0.322c0.374-0.228,0.674-0.527,0.901-0.901l1.921,1.122c-0.465,0.646-1.032,1.162-1.7,1.547
	C125.708,170.993,124.864,171.187,123.844,171.187z M123.793,163.621c-0.601,0-1.117,0.159-1.547,0.477
	c-0.431,0.316-0.743,0.748-0.935,1.292h4.896c-0.159-0.578-0.448-1.014-0.867-1.31C124.92,163.775,124.405,163.621,123.793,163.621z
	 M134.617,171.187c-0.691,0-1.332-0.125-1.921-0.374c-0.589-0.249-1.099-0.589-1.53-1.02c-0.431-0.432-0.771-0.936-1.02-1.514
	c-0.238-0.578-0.357-1.201-0.357-1.87c0-0.68,0.119-1.309,0.357-1.887c0.249-0.578,0.589-1.082,1.02-1.513
	c0.442-0.432,0.952-0.766,1.53-1.003c0.589-0.249,1.224-0.374,1.904-0.374c0.533,0,1.031,0.073,1.496,0.221
	c0.465,0.136,0.884,0.334,1.258,0.595c0.385,0.249,0.72,0.556,1.003,0.918c0.295,0.352,0.533,0.742,0.714,1.173l-2.159,0.867
	c-0.193-0.499-0.487-0.884-0.884-1.155c-0.397-0.283-0.861-0.426-1.394-0.426c-0.351,0-0.68,0.068-0.986,0.204
	s-0.572,0.323-0.799,0.562c-0.227,0.227-0.408,0.499-0.544,0.815c-0.125,0.317-0.187,0.652-0.187,1.003
	c0,0.352,0.062,0.681,0.187,0.986c0.136,0.306,0.317,0.578,0.544,0.816c0.238,0.227,0.51,0.407,0.816,0.544
	c0.306,0.136,0.635,0.204,0.986,0.204c0.544,0,1.009-0.147,1.394-0.442c0.397-0.295,0.691-0.68,0.884-1.156l2.193,0.901
	c-0.397,0.85-0.975,1.553-1.734,2.107C136.64,170.914,135.716,171.187,134.617,171.187z M139.944,161.82h1.7v-1.989l2.312-1.359
	v3.349h2.414v2.074h-2.414v3.774c0,0.486,0.091,0.826,0.272,1.02c0.193,0.193,0.436,0.289,0.731,0.289
	c0.306,0,0.589-0.113,0.85-0.34l1.071,1.836c-0.295,0.227-0.629,0.402-1.003,0.527c-0.363,0.112-0.759,0.17-1.19,0.17
	c-0.963,0-1.711-0.256-2.244-0.766c-0.533-0.521-0.799-1.404-0.799-2.651v-3.859h-1.7V161.82z M147.925,161.82h2.312v1.411
	c0.227-0.544,0.555-0.941,0.986-1.19c0.442-0.261,0.958-0.391,1.547-0.391c0.306,0,0.589,0.034,0.85,0.103
	c0.272,0.067,0.504,0.152,0.697,0.255l-0.85,2.312c-0.125-0.091-0.295-0.164-0.51-0.221c-0.215-0.068-0.453-0.103-0.714-0.103
	c-0.601,0-1.082,0.17-1.445,0.511c-0.363,0.329-0.544,0.878-0.544,1.648V171h-2.329V161.82z M159.321,171.187
	c-0.692,0-1.332-0.125-1.921-0.374c-0.59-0.249-1.105-0.589-1.547-1.02c-0.431-0.442-0.771-0.952-1.02-1.53
	c-0.238-0.578-0.357-1.196-0.357-1.854c0-0.656,0.119-1.274,0.357-1.853c0.249-0.589,0.589-1.1,1.02-1.53
	c0.442-0.431,0.957-0.771,1.547-1.02c0.589-0.249,1.229-0.374,1.921-0.374c0.68,0,1.314,0.125,1.904,0.374
	c0.6,0.249,1.116,0.589,1.547,1.02c0.442,0.431,0.787,0.941,1.037,1.53c0.249,0.578,0.374,1.196,0.374,1.853
	c0,0.657-0.125,1.275-0.374,1.854c-0.25,0.578-0.59,1.088-1.02,1.53c-0.431,0.431-0.947,0.771-1.547,1.02
	C160.652,171.062,160.012,171.187,159.321,171.187z M159.338,168.96c0.351,0,0.68-0.068,0.986-0.204
	c0.306-0.137,0.572-0.317,0.799-0.544c0.226-0.228,0.402-0.493,0.527-0.8c0.136-0.316,0.204-0.656,0.204-1.02
	c0-0.352-0.068-0.687-0.204-1.003c-0.125-0.317-0.301-0.589-0.527-0.816c-0.227-0.227-0.493-0.408-0.799-0.544
	c-0.306-0.136-0.635-0.204-0.986-0.204c-0.352,0-0.68,0.068-0.986,0.204s-0.573,0.317-0.799,0.544
	c-0.227,0.228-0.408,0.499-0.544,0.816c-0.125,0.316-0.187,0.651-0.187,1.003c0,0.363,0.062,0.703,0.187,1.02
	c0.136,0.307,0.317,0.572,0.544,0.8c0.226,0.227,0.493,0.407,0.799,0.544C158.658,168.892,158.986,168.96,159.338,168.96z
	 M160.137,157.774h2.397l-2.567,2.907h-1.768L160.137,157.774z M165.722,161.82h2.346v1.156c0.294-0.419,0.668-0.748,1.122-0.986
	c0.464-0.237,0.986-0.356,1.564-0.356c1.088,0,1.949,0.34,2.584,1.02c0.646,0.669,0.969,1.604,0.969,2.805V171h-2.396v-5.186
	c0-0.657-0.159-1.173-0.477-1.547c-0.306-0.385-0.771-0.578-1.394-0.578c-0.556,0-1.02,0.198-1.394,0.595
	c-0.374,0.386-0.561,0.936-0.561,1.649V171h-2.363V161.82z M176.113,161.82h2.398V171h-2.398V161.82z M175.809,159.236
	c0-0.441,0.142-0.805,0.424-1.088c0.285-0.295,0.642-0.442,1.072-0.442c0.453,0,0.815,0.147,1.088,0.442
	c0.283,0.283,0.424,0.646,0.424,1.088c0,0.431-0.141,0.788-0.424,1.071c-0.272,0.283-0.635,0.425-1.088,0.425
	c-0.443,0-0.805-0.142-1.089-0.425C175.943,160.024,175.809,159.666,175.809,159.236z M184.887,171.187
	c-0.691,0-1.332-0.125-1.921-0.374c-0.59-0.249-1.1-0.589-1.53-1.02c-0.431-0.432-0.771-0.936-1.02-1.514
	c-0.238-0.578-0.357-1.201-0.357-1.87c0-0.68,0.119-1.309,0.357-1.887c0.249-0.578,0.589-1.082,1.02-1.513
	c0.442-0.432,0.953-0.766,1.53-1.003c0.589-0.249,1.224-0.374,1.904-0.374c0.532,0,1.03,0.073,1.496,0.221
	c0.464,0.136,0.884,0.334,1.258,0.595c0.385,0.249,0.719,0.556,1.003,0.918c0.294,0.352,0.532,0.742,0.714,1.173l-2.159,0.867
	c-0.193-0.499-0.488-0.884-0.884-1.155c-0.397-0.283-0.862-0.426-1.394-0.426c-0.353,0-0.68,0.068-0.986,0.204
	s-0.572,0.323-0.799,0.562c-0.227,0.227-0.408,0.499-0.544,0.815c-0.125,0.317-0.187,0.652-0.187,1.003
	c0,0.352,0.062,0.681,0.187,0.986c0.136,0.306,0.317,0.578,0.544,0.816c0.238,0.227,0.51,0.407,0.816,0.544
	c0.306,0.136,0.633,0.204,0.985,0.204c0.544,0,1.009-0.147,1.394-0.442c0.396-0.295,0.691-0.68,0.885-1.156l2.193,0.901
	c-0.397,0.85-0.976,1.553-1.734,2.107C186.91,170.914,185.986,171.187,184.887,171.187z M195.18,171.187
	c-0.691,0-1.332-0.125-1.921-0.374s-1.104-0.589-1.547-1.02c-0.431-0.442-0.771-0.952-1.021-1.53
	c-0.237-0.578-0.356-1.196-0.356-1.854c0-0.656,0.119-1.274,0.356-1.853c0.25-0.589,0.59-1.1,1.021-1.53
	c0.442-0.431,0.958-0.771,1.547-1.02s1.229-0.374,1.921-0.374c0.68,0,1.315,0.125,1.904,0.374c0.602,0.249,1.116,0.589,1.547,1.02
	c0.442,0.431,0.788,0.941,1.037,1.53c0.249,0.578,0.374,1.196,0.374,1.853c0,0.657-0.125,1.275-0.374,1.854s-0.589,1.088-1.02,1.53
	c-0.432,0.431-0.946,0.771-1.547,1.02C196.512,171.062,195.871,171.187,195.18,171.187z M195.197,168.96
	c0.351,0,0.68-0.068,0.986-0.204c0.305-0.137,0.571-0.317,0.799-0.544c0.227-0.228,0.401-0.493,0.526-0.8
	c0.136-0.316,0.204-0.656,0.204-1.02c0-0.352-0.068-0.687-0.204-1.003c-0.125-0.317-0.3-0.589-0.526-0.816
	c-0.228-0.227-0.494-0.408-0.799-0.544c-0.307-0.136-0.636-0.204-0.986-0.204c-0.352,0-0.68,0.068-0.986,0.204
	s-0.572,0.317-0.799,0.544c-0.227,0.228-0.408,0.499-0.544,0.816c-0.125,0.316-0.187,0.651-0.187,1.003
	c0,0.363,0.062,0.703,0.187,1.02c0.136,0.307,0.317,0.572,0.544,0.8c0.227,0.227,0.492,0.407,0.799,0.544
	C194.518,168.892,194.846,168.96,195.197,168.96z M210.475,171.187c-0.681,0-1.31-0.119-1.888-0.357
	c-0.578-0.249-1.083-0.589-1.513-1.02c-0.42-0.431-0.754-0.935-1.004-1.513c-0.237-0.578-0.356-1.207-0.356-1.888
	c0-0.669,0.119-1.292,0.356-1.87c0.25-0.589,0.59-1.099,1.021-1.529c0.431-0.432,0.935-0.766,1.513-1.003
	c0.578-0.249,1.201-0.374,1.871-0.374c0.668,0,1.291,0.125,1.869,0.374c0.59,0.237,1.1,0.571,1.53,1.003
	c0.431,0.431,0.765,0.94,1.003,1.529c0.249,0.578,0.374,1.201,0.374,1.87s-0.125,1.292-0.374,1.87
	c-0.238,0.578-0.572,1.082-1.003,1.514c-0.431,0.431-0.935,0.771-1.513,1.02S211.154,171.187,210.475,171.187z M210.475,169.861
	c0.476,0,0.918-0.085,1.325-0.255c0.419-0.181,0.776-0.425,1.071-0.73c0.306-0.317,0.544-0.687,0.714-1.105s0.255-0.873,0.255-1.36
	c0-0.486-0.085-0.94-0.255-1.359c-0.17-0.432-0.408-0.799-0.714-1.105c-0.307-0.316-0.663-0.561-1.071-0.73
	c-0.407-0.182-0.85-0.272-1.325-0.272c-0.477,0-0.918,0.091-1.326,0.272c-0.408,0.17-0.766,0.414-1.071,0.73
	c-0.295,0.307-0.527,0.674-0.697,1.105c-0.17,0.419-0.255,0.873-0.255,1.359c0,0.499,0.085,0.958,0.255,1.377
	s0.402,0.782,0.697,1.089c0.306,0.306,0.663,0.55,1.071,0.73C209.557,169.776,209.998,169.861,210.475,169.861z M225.76,171.187
	c-0.691,0-1.332-0.125-1.921-0.374c-0.59-0.249-1.101-0.589-1.53-1.02c-0.431-0.432-0.771-0.936-1.02-1.514
	c-0.238-0.578-0.357-1.201-0.357-1.87c0-0.68,0.119-1.309,0.357-1.887c0.249-0.578,0.589-1.082,1.02-1.513
	c0.442-0.432,0.953-0.766,1.53-1.003c0.589-0.249,1.224-0.374,1.904-0.374c0.532,0,1.03,0.073,1.495,0.221
	c0.465,0.136,0.885,0.334,1.259,0.595c0.385,0.249,0.719,0.556,1.003,0.918c0.294,0.352,0.532,0.742,0.714,1.173l-2.159,0.867
	c-0.193-0.499-0.488-0.884-0.884-1.155c-0.397-0.283-0.862-0.426-1.394-0.426c-0.353,0-0.68,0.068-0.986,0.204
	s-0.573,0.323-0.799,0.562c-0.227,0.227-0.408,0.499-0.544,0.815c-0.125,0.317-0.187,0.652-0.187,1.003
	c0,0.352,0.062,0.681,0.187,0.986c0.136,0.306,0.317,0.578,0.544,0.816c0.238,0.227,0.51,0.407,0.816,0.544
	c0.305,0.136,0.633,0.204,0.985,0.204c0.544,0,1.008-0.147,1.394-0.442c0.396-0.295,0.691-0.68,0.885-1.156l2.193,0.901
	c-0.397,0.85-0.976,1.553-1.734,2.107C227.783,170.914,226.859,171.187,225.76,171.187z M236.053,171.187
	c-0.691,0-1.332-0.125-1.921-0.374s-1.104-0.589-1.547-1.02c-0.431-0.442-0.771-0.952-1.021-1.53
	c-0.237-0.578-0.356-1.196-0.356-1.854c0-0.656,0.119-1.274,0.356-1.853c0.25-0.589,0.59-1.1,1.021-1.53
	c0.442-0.431,0.958-0.771,1.547-1.02s1.229-0.374,1.921-0.374c0.68,0,1.315,0.125,1.904,0.374c0.602,0.249,1.116,0.589,1.547,1.02
	c0.441,0.431,0.788,0.941,1.037,1.53c0.249,0.578,0.374,1.196,0.374,1.853c0,0.657-0.125,1.275-0.374,1.854s-0.589,1.088-1.02,1.53
	c-0.432,0.431-0.946,0.771-1.547,1.02C237.385,171.062,236.744,171.187,236.053,171.187z M236.07,168.96
	c0.351,0,0.68-0.068,0.986-0.204c0.305-0.137,0.571-0.317,0.799-0.544c0.227-0.228,0.401-0.493,0.526-0.8
	c0.136-0.316,0.204-0.656,0.204-1.02c0-0.352-0.068-0.687-0.204-1.003c-0.125-0.317-0.3-0.589-0.526-0.816
	c-0.228-0.227-0.494-0.408-0.799-0.544c-0.307-0.136-0.636-0.204-0.986-0.204c-0.352,0-0.68,0.068-0.986,0.204
	s-0.572,0.317-0.799,0.544c-0.227,0.228-0.408,0.499-0.544,0.816c-0.125,0.316-0.187,0.651-0.187,1.003
	c0,0.363,0.062,0.703,0.187,1.02c0.136,0.307,0.317,0.572,0.544,0.8c0.227,0.227,0.492,0.407,0.799,0.544
	C235.391,168.892,235.719,168.96,236.07,168.96z M242.454,161.82h2.346v1.156c0.296-0.419,0.669-0.748,1.122-0.986
	c0.465-0.237,0.986-0.356,1.564-0.356c1.088,0,1.949,0.34,2.584,1.02c0.646,0.669,0.969,1.604,0.969,2.805V171h-2.396v-5.186
	c0-0.657-0.16-1.173-0.477-1.547c-0.307-0.385-0.771-0.578-1.395-0.578c-0.555,0-1.02,0.198-1.394,0.595
	c-0.374,0.386-0.562,0.936-0.562,1.649V171h-2.362V161.82z M252.038,161.82h1.7v-1.989l2.312-1.359v3.349h2.414v2.074h-2.414v3.774
	c0,0.486,0.091,0.826,0.272,1.02c0.193,0.193,0.436,0.289,0.73,0.289c0.307,0,0.59-0.113,0.85-0.34l1.072,1.836
	c-0.295,0.227-0.629,0.402-1.004,0.527c-0.363,0.112-0.759,0.17-1.189,0.17c-0.963,0-1.711-0.256-2.244-0.766
	c-0.533-0.521-0.799-1.404-0.799-2.651v-3.859h-1.7V161.82z M260.02,161.82h2.312v1.411c0.226-0.544,0.555-0.941,0.985-1.19
	c0.442-0.261,0.957-0.391,1.548-0.391c0.306,0,0.589,0.034,0.85,0.103c0.272,0.067,0.504,0.152,0.697,0.255l-0.851,2.312
	c-0.125-0.091-0.295-0.164-0.51-0.221c-0.216-0.068-0.453-0.103-0.714-0.103c-0.601,0-1.083,0.17-1.444,0.511
	c-0.363,0.329-0.545,0.878-0.545,1.648V171h-2.328V161.82z M269.947,171.187c-1.008,0-1.797-0.249-2.363-0.748
	c-0.555-0.51-0.833-1.173-0.833-1.989c0-0.963,0.369-1.717,1.104-2.261c0.737-0.544,1.746-0.816,3.026-0.816h2.414v-0.118
	c0-0.499-0.164-0.901-0.493-1.207c-0.328-0.307-0.826-0.459-1.496-0.459c-0.521,0-0.957,0.107-1.309,0.322
	c-0.352,0.204-0.634,0.499-0.85,0.885l-2.159-1.071c0.465-0.612,1.043-1.111,1.733-1.496c0.703-0.397,1.57-0.595,2.602-0.595
	c1.359,0,2.408,0.329,3.145,0.985c0.737,0.657,1.105,1.57,1.105,2.737V171h-2.262v-1.411c-0.328,0.476-0.793,0.86-1.394,1.155
	C271.33,171.039,270.673,171.187,269.947,171.187z M270.627,169.248c0.284,0,0.561-0.039,0.833-0.118s0.526-0.193,0.765-0.341
	c0.238-0.146,0.448-0.322,0.629-0.526c0.193-0.204,0.347-0.432,0.459-0.681v-0.492h-2.158c-0.702,0-1.207,0.102-1.514,0.306
	c-0.293,0.204-0.441,0.487-0.441,0.85C269.199,168.914,269.675,169.248,270.627,169.248z M280.989,171.187
	c-1.099,0-2-0.193-2.703-0.578c-0.69-0.396-1.218-0.963-1.581-1.7l2.261-0.884c0.408,0.827,1.111,1.241,2.108,1.241
	c0.476,0,0.839-0.096,1.088-0.289c0.249-0.204,0.374-0.442,0.374-0.714c0-0.17-0.058-0.307-0.17-0.408
	c-0.113-0.113-0.272-0.204-0.476-0.272c-0.193-0.078-0.42-0.146-0.681-0.203c-0.261-0.058-0.538-0.113-0.833-0.17
	c-0.385-0.079-0.775-0.177-1.173-0.289c-0.386-0.113-0.737-0.272-1.054-0.477c-0.307-0.204-0.555-0.459-0.748-0.765
	c-0.193-0.317-0.289-0.72-0.289-1.207c0-0.385,0.091-0.754,0.271-1.105c0.182-0.351,0.436-0.656,0.766-0.918
	c0.328-0.261,0.72-0.465,1.173-0.611c0.465-0.159,0.979-0.238,1.547-0.238c0.976,0,1.769,0.176,2.38,0.527
	c0.611,0.34,1.133,0.815,1.564,1.428l-2.143,0.867c-0.193-0.307-0.436-0.544-0.73-0.715c-0.283-0.17-0.641-0.255-1.071-0.255
	c-0.466,0-0.81,0.085-1.037,0.255c-0.215,0.159-0.323,0.368-0.323,0.63c0,0.295,0.182,0.504,0.545,0.629
	c0.362,0.112,0.877,0.244,1.547,0.391c0.385,0.079,0.771,0.176,1.155,0.289c0.397,0.113,0.754,0.278,1.071,0.493
	c0.329,0.204,0.595,0.47,0.799,0.799s0.307,0.737,0.307,1.224c0,0.363-0.08,0.726-0.238,1.088c-0.159,0.352-0.402,0.675-0.731,0.97
	c-0.329,0.283-0.741,0.516-1.241,0.696C282.236,171.096,281.658,171.187,280.989,171.187z M290.955,171.187
	c-0.737,0-1.405-0.119-2.006-0.357c-0.602-0.249-1.116-0.589-1.547-1.02c-0.42-0.431-0.742-0.935-0.969-1.513
	c-0.228-0.578-0.341-1.201-0.341-1.87s0.119-1.292,0.357-1.87c0.249-0.589,0.589-1.1,1.021-1.53c0.43-0.431,0.94-0.771,1.529-1.02
	s1.225-0.374,1.904-0.374c0.691,0,1.326,0.119,1.904,0.356c0.577,0.238,1.076,0.567,1.496,0.986
	c0.418,0.408,0.747,0.901,0.985,1.479c0.237,0.578,0.356,1.207,0.356,1.888v0.884h-7.293c0.16,0.601,0.465,1.077,0.918,1.428
	c0.465,0.34,1.037,0.51,1.718,0.51c0.544,0,1.003-0.107,1.377-0.322c0.374-0.228,0.674-0.527,0.901-0.901l1.92,1.122
	c-0.465,0.646-1.03,1.162-1.699,1.547C292.818,170.993,291.975,171.187,290.955,171.187z M290.904,163.621
	c-0.602,0-1.116,0.159-1.547,0.477c-0.432,0.316-0.742,0.748-0.936,1.292h4.896c-0.159-0.578-0.448-1.014-0.867-1.31
	C292.032,163.775,291.516,163.621,290.904,163.621z M297.173,161.82h2.347v1.156c0.295-0.419,0.668-0.748,1.121-0.986
	c0.465-0.237,0.986-0.356,1.564-0.356c1.088,0,1.949,0.34,2.584,1.02c0.646,0.669,0.969,1.604,0.969,2.805V171h-2.396v-5.186
	c0-0.657-0.159-1.173-0.477-1.547c-0.306-0.385-0.771-0.578-1.394-0.578c-0.556,0-1.021,0.198-1.394,0.595
	c-0.375,0.386-0.562,0.936-0.562,1.649V171h-2.363V161.82z M298.686,160.698c0-0.748,0.153-1.326,0.459-1.733
	c0.317-0.408,0.76-0.612,1.326-0.612c0.283,0,0.527,0.045,0.731,0.136c0.204,0.079,0.397,0.17,0.577,0.272
	c0.16,0.091,0.307,0.181,0.443,0.271c0.146,0.079,0.295,0.119,0.441,0.119c0.307,0,0.459-0.244,0.459-0.73h1.428
	c0,0.714-0.146,1.285-0.441,1.717c-0.283,0.419-0.737,0.629-1.36,0.629c-0.329,0-0.606-0.051-0.833-0.153
	c-0.215-0.102-0.414-0.21-0.596-0.323c-0.135-0.091-0.266-0.163-0.391-0.221c-0.113-0.057-0.244-0.085-0.391-0.085
	c-0.159,0-0.278,0.057-0.357,0.17c-0.067,0.103-0.102,0.283-0.102,0.544H298.686z M310.404,171.187
	c-1.008,0-1.795-0.249-2.362-0.748c-0.556-0.51-0.833-1.173-0.833-1.989c0-0.963,0.369-1.717,1.105-2.261s1.746-0.816,3.025-0.816
	h2.414v-0.118c0-0.499-0.164-0.901-0.493-1.207c-0.327-0.307-0.827-0.459-1.495-0.459c-0.521,0-0.957,0.107-1.31,0.322
	c-0.351,0.204-0.634,0.499-0.851,0.885l-2.158-1.071c0.465-0.612,1.043-1.111,1.734-1.496c0.702-0.397,1.569-0.595,2.601-0.595
	c1.36,0,2.409,0.329,3.145,0.985c0.737,0.657,1.105,1.57,1.105,2.737V171h-2.261v-1.411c-0.328,0.476-0.793,0.86-1.395,1.155
	C311.788,171.039,311.131,171.187,310.404,171.187z M311.085,169.248c0.284,0,0.562-0.039,0.833-0.118s0.527-0.193,0.766-0.341
	c0.237-0.146,0.447-0.322,0.629-0.526c0.192-0.204,0.346-0.432,0.459-0.681v-0.492h-2.16c-0.701,0-1.207,0.102-1.512,0.306
	c-0.295,0.204-0.442,0.487-0.442,0.85C309.657,168.914,310.133,169.248,311.085,169.248z M44.297,183.82h1.411V193h-1.411V183.82z
	 M43.906,180.997c0-0.316,0.102-0.577,0.306-0.781c0.215-0.215,0.476-0.323,0.782-0.323c0.329,0,0.595,0.108,0.799,0.323
	c0.204,0.204,0.306,0.465,0.306,0.781c0,0.317-0.102,0.584-0.306,0.8c-0.204,0.204-0.47,0.306-0.799,0.306
	c-0.317,0-0.578-0.102-0.782-0.306C44.008,181.581,43.906,181.315,43.906,180.997z M48.182,183.82h1.36v1.53
	c0.317-0.51,0.748-0.924,1.292-1.241c0.555-0.317,1.19-0.476,1.904-0.476c0.601,0,1.139,0.096,1.615,0.289
	c0.487,0.181,0.901,0.453,1.241,0.815c0.34,0.352,0.601,0.782,0.782,1.292c0.182,0.51,0.272,1.088,0.272,1.734V193h-1.411v-5.169
	c0-0.895-0.238-1.608-0.714-2.142s-1.162-0.799-2.057-0.799c-0.408,0-0.788,0.074-1.139,0.221c-0.352,0.147-0.658,0.357-0.918,0.629
	c-0.261,0.262-0.465,0.578-0.612,0.952c-0.147,0.363-0.221,0.765-0.221,1.207V193h-1.394V183.82z M57.907,183.82h1.785v-2.022
	l1.377-0.885v2.907h2.686v1.241h-2.686v5.134c0,0.589,0.119,1.009,0.357,1.258c0.249,0.249,0.572,0.374,0.969,0.374
	c0.385,0,0.737-0.146,1.054-0.441l0.731,1.104c-0.261,0.204-0.544,0.363-0.85,0.477c-0.306,0.112-0.652,0.17-1.037,0.17
	c-0.85,0-1.496-0.228-1.938-0.681c-0.442-0.465-0.663-1.207-0.663-2.227v-5.168h-1.785V183.82z M65.729,183.82h1.343v1.734
	c0.193-0.612,0.51-1.077,0.952-1.395c0.453-0.316,1.009-0.476,1.666-0.476s1.167,0.113,1.53,0.34l-0.578,1.326
	c-0.125-0.091-0.284-0.159-0.476-0.204c-0.182-0.057-0.397-0.085-0.646-0.085c-0.771,0-1.366,0.232-1.785,0.697
	c-0.419,0.453-0.629,1.189-0.629,2.21V193h-1.377V183.82z M76.474,193.187c-0.68,0-1.309-0.119-1.887-0.357
	c-0.578-0.249-1.083-0.589-1.513-1.02c-0.419-0.431-0.754-0.935-1.003-1.513c-0.238-0.578-0.357-1.207-0.357-1.888
	c0-0.669,0.119-1.292,0.357-1.87c0.249-0.589,0.589-1.099,1.02-1.529c0.431-0.432,0.935-0.766,1.513-1.003
	c0.578-0.249,1.202-0.374,1.87-0.374s1.292,0.125,1.87,0.374c0.589,0.237,1.099,0.571,1.53,1.003
	c0.431,0.431,0.765,0.94,1.003,1.529c0.25,0.578,0.374,1.201,0.374,1.87s-0.125,1.292-0.374,1.87
	c-0.238,0.578-0.572,1.082-1.003,1.514c-0.431,0.431-0.935,0.771-1.513,1.02S77.154,193.187,76.474,193.187z M76.474,191.861
	c0.476,0,0.918-0.085,1.326-0.255c0.419-0.181,0.776-0.425,1.071-0.73c0.306-0.317,0.544-0.687,0.714-1.105
	c0.17-0.419,0.255-0.873,0.255-1.36c0-0.486-0.085-0.94-0.255-1.359c-0.17-0.432-0.408-0.799-0.714-1.105
	c-0.306-0.316-0.663-0.561-1.071-0.73c-0.408-0.182-0.85-0.272-1.326-0.272s-0.918,0.091-1.326,0.272
	c-0.408,0.17-0.765,0.414-1.071,0.73c-0.294,0.307-0.527,0.674-0.697,1.105c-0.17,0.419-0.255,0.873-0.255,1.359
	c0,0.499,0.085,0.958,0.255,1.377c0.17,0.419,0.402,0.782,0.697,1.089c0.306,0.306,0.663,0.55,1.071,0.73
	C75.556,191.776,75.998,191.861,76.474,191.861z M87.695,193.187c-0.646,0-1.258-0.113-1.836-0.34
	c-0.567-0.238-1.06-0.567-1.479-0.986c-0.42-0.431-0.754-0.935-1.003-1.513c-0.238-0.589-0.357-1.235-0.357-1.938
	s0.119-1.343,0.357-1.921c0.249-0.589,0.583-1.094,1.003-1.513c0.43-0.431,0.929-0.759,1.496-0.986
	c0.566-0.237,1.173-0.356,1.819-0.356c0.328,0,0.657,0.04,0.986,0.119c0.34,0.078,0.657,0.197,0.952,0.356
	c0.306,0.147,0.583,0.334,0.833,0.562c0.26,0.215,0.481,0.465,0.663,0.748v-5.831h1.377V193h-1.377v-1.633
	c-0.182,0.283-0.403,0.538-0.663,0.766c-0.25,0.227-0.527,0.419-0.833,0.578c-0.295,0.146-0.612,0.261-0.952,0.34
	C88.352,193.142,88.023,193.187,87.695,193.187z M87.814,191.878c0.487,0,0.94-0.092,1.36-0.272c0.419-0.181,0.782-0.425,1.088-0.73
	c0.306-0.317,0.544-0.687,0.714-1.105c0.17-0.431,0.255-0.89,0.255-1.377c0-0.477-0.085-0.924-0.255-1.343
	c-0.17-0.432-0.408-0.799-0.714-1.105c-0.306-0.316-0.669-0.566-1.088-0.748c-0.42-0.192-0.873-0.289-1.36-0.289
	c-0.476,0-0.924,0.091-1.343,0.272c-0.408,0.181-0.765,0.431-1.071,0.748c-0.306,0.306-0.544,0.674-0.714,1.104
	c-0.17,0.419-0.255,0.873-0.255,1.36c0,0.499,0.085,0.963,0.255,1.394c0.17,0.419,0.408,0.788,0.714,1.105
	c0.306,0.306,0.663,0.55,1.071,0.73C86.89,191.793,87.338,191.878,87.814,191.878z M98.757,193.187
	c-1.258,0-2.216-0.363-2.873-1.088c-0.658-0.737-0.986-1.757-0.986-3.061v-5.219h1.411v5.151c0,0.895,0.226,1.608,0.68,2.142
	c0.453,0.533,1.122,0.799,2.006,0.799c0.408,0,0.782-0.073,1.122-0.221c0.34-0.146,0.634-0.351,0.884-0.612
	c0.26-0.271,0.459-0.589,0.595-0.951c0.147-0.374,0.221-0.782,0.221-1.225v-5.083h1.394V193h-1.36v-1.514
	c-0.306,0.51-0.726,0.924-1.258,1.241C100.071,193.033,99.459,193.187,98.757,193.187z M110.11,193.187
	c-0.68,0-1.315-0.125-1.904-0.374s-1.099-0.589-1.53-1.02c-0.431-0.432-0.771-0.936-1.02-1.514c-0.238-0.578-0.357-1.201-0.357-1.87
	c0-0.68,0.125-1.309,0.374-1.887c0.249-0.589,0.589-1.094,1.02-1.513c0.431-0.432,0.935-0.766,1.513-1.003
	c0.589-0.249,1.218-0.374,1.887-0.374c0.499,0,0.969,0.067,1.411,0.204c0.453,0.136,0.867,0.328,1.241,0.577
	c0.374,0.238,0.703,0.533,0.986,0.885c0.295,0.34,0.527,0.714,0.697,1.122l-1.275,0.561c-0.272-0.635-0.674-1.133-1.207-1.496
	c-0.533-0.363-1.156-0.544-1.87-0.544c-0.476,0-0.924,0.091-1.343,0.272c-0.408,0.181-0.765,0.431-1.071,0.748
	c-0.306,0.306-0.544,0.674-0.714,1.104c-0.17,0.419-0.255,0.867-0.255,1.343c0,0.477,0.085,0.925,0.255,1.344
	c0.181,0.419,0.425,0.787,0.731,1.104c0.306,0.317,0.669,0.567,1.088,0.748s0.873,0.272,1.36,0.272c0.748,0,1.377-0.198,1.887-0.596
	c0.521-0.407,0.912-0.918,1.173-1.529l1.292,0.544c-0.363,0.85-0.918,1.547-1.666,2.091
	C112.076,192.921,111.175,193.187,110.11,193.187z M116.448,183.82h1.411V193h-1.411V183.82z M116.057,180.997
	c0-0.316,0.102-0.577,0.306-0.781c0.215-0.215,0.476-0.323,0.782-0.323c0.328,0,0.595,0.108,0.799,0.323
	c0.204,0.204,0.306,0.465,0.306,0.781c0,0.317-0.102,0.584-0.306,0.8c-0.204,0.204-0.471,0.306-0.799,0.306
	c-0.318,0-0.578-0.102-0.782-0.306C116.159,181.581,116.057,181.315,116.057,180.997z M124.633,193.187
	c-0.646,0-1.258-0.113-1.836-0.34c-0.566-0.238-1.059-0.567-1.479-0.986c-0.419-0.431-0.753-0.935-1.003-1.513
	c-0.238-0.589-0.357-1.235-0.357-1.938s0.119-1.343,0.357-1.921c0.25-0.589,0.584-1.094,1.003-1.513
	c0.431-0.431,0.93-0.759,1.496-0.986c0.567-0.237,1.173-0.356,1.819-0.356c0.329,0,0.658,0.04,0.986,0.119
	c0.34,0.078,0.658,0.197,0.952,0.356c0.306,0.147,0.584,0.334,0.833,0.562c0.261,0.215,0.482,0.465,0.663,0.748v-5.831h1.377V193
	h-1.377v-1.633c-0.181,0.283-0.402,0.538-0.663,0.766c-0.249,0.227-0.527,0.419-0.833,0.578c-0.294,0.146-0.612,0.261-0.952,0.34
	C125.291,193.142,124.962,193.187,124.633,193.187z M124.752,191.878c0.488,0,0.941-0.092,1.36-0.272
	c0.42-0.181,0.782-0.425,1.088-0.73c0.306-0.317,0.544-0.687,0.714-1.105c0.17-0.431,0.255-0.89,0.255-1.377
	c0-0.477-0.085-0.924-0.255-1.343c-0.17-0.432-0.408-0.799-0.714-1.105c-0.306-0.316-0.668-0.566-1.088-0.748
	c-0.419-0.192-0.872-0.289-1.36-0.289c-0.476,0-0.923,0.091-1.343,0.272c-0.408,0.181-0.765,0.431-1.071,0.748
	c-0.306,0.306-0.544,0.674-0.714,1.104c-0.17,0.419-0.255,0.873-0.255,1.36c0,0.499,0.085,0.963,0.255,1.394
	c0.17,0.419,0.408,0.788,0.714,1.105c0.306,0.306,0.663,0.55,1.071,0.73C123.829,191.793,124.276,191.878,124.752,191.878z
	 M136.306,193.187c-0.68,0-1.309-0.119-1.887-0.357c-0.578-0.249-1.082-0.589-1.513-1.02c-0.419-0.431-0.753-0.935-1.003-1.513
	c-0.238-0.578-0.357-1.207-0.357-1.888c0-0.669,0.119-1.292,0.357-1.87c0.25-0.589,0.59-1.099,1.02-1.529
	c0.431-0.432,0.935-0.766,1.513-1.003c0.578-0.249,1.202-0.374,1.87-0.374c0.669,0,1.292,0.125,1.87,0.374
	c0.59,0.237,1.1,0.571,1.53,1.003c0.431,0.431,0.765,0.94,1.003,1.529c0.25,0.578,0.374,1.201,0.374,1.87s-0.124,1.292-0.374,1.87
	c-0.238,0.578-0.572,1.082-1.003,1.514c-0.43,0.431-0.935,0.771-1.513,1.02C137.615,193.062,136.986,193.187,136.306,193.187z
	 M136.306,191.861c0.476,0,0.918-0.085,1.326-0.255c0.42-0.181,0.777-0.425,1.071-0.73c0.306-0.317,0.544-0.687,0.714-1.105
	s0.255-0.873,0.255-1.36c0-0.486-0.085-0.94-0.255-1.359c-0.17-0.432-0.408-0.799-0.714-1.105c-0.306-0.316-0.663-0.561-1.071-0.73
	c-0.408-0.182-0.85-0.272-1.326-0.272s-0.918,0.091-1.326,0.272c-0.408,0.17-0.765,0.414-1.071,0.73
	c-0.294,0.307-0.527,0.674-0.697,1.105c-0.17,0.419-0.255,0.873-0.255,1.359c0,0.499,0.085,0.958,0.255,1.377
	s0.403,0.782,0.697,1.089c0.306,0.306,0.663,0.55,1.071,0.73C135.388,191.776,135.83,191.861,136.306,191.861z M146.424,193.187
	c-1.008,0-1.847-0.17-2.516-0.51c-0.668-0.352-1.207-0.822-1.615-1.411l1.207-0.816c0.318,0.453,0.714,0.816,1.19,1.088
	c0.476,0.272,1.066,0.408,1.768,0.408c0.714,0,1.253-0.146,1.615-0.441c0.374-0.307,0.561-0.691,0.561-1.156
	c0-0.249-0.073-0.453-0.221-0.612c-0.147-0.17-0.34-0.306-0.578-0.408c-0.238-0.112-0.515-0.204-0.833-0.271
	c-0.306-0.068-0.629-0.136-0.969-0.204c-0.396-0.079-0.793-0.17-1.19-0.272c-0.385-0.102-0.731-0.243-1.037-0.425
	c-0.306-0.192-0.555-0.436-0.748-0.73c-0.192-0.295-0.289-0.674-0.289-1.14c0-0.351,0.074-0.69,0.221-1.02
	c0.159-0.329,0.38-0.612,0.663-0.851c0.295-0.249,0.652-0.441,1.071-0.577c0.431-0.147,0.918-0.222,1.462-0.222
	c0.85,0,1.57,0.147,2.159,0.442c0.601,0.283,1.105,0.68,1.513,1.189l-1.156,0.782c-0.272-0.363-0.612-0.657-1.02-0.884
	c-0.408-0.227-0.906-0.34-1.496-0.34c-0.714,0-1.224,0.136-1.53,0.408c-0.306,0.271-0.459,0.623-0.459,1.054
	c0,0.238,0.063,0.436,0.187,0.595c0.136,0.147,0.318,0.272,0.544,0.374c0.227,0.103,0.493,0.188,0.799,0.255
	c0.306,0.068,0.641,0.137,1.003,0.204c0.397,0.079,0.794,0.176,1.19,0.289c0.397,0.103,0.748,0.249,1.054,0.442
	c0.318,0.192,0.573,0.441,0.765,0.748c0.204,0.295,0.306,0.68,0.306,1.155c0,0.363-0.079,0.721-0.238,1.071
	c-0.147,0.34-0.374,0.646-0.68,0.918c-0.294,0.261-0.668,0.47-1.122,0.629C147.552,193.108,147.025,193.187,146.424,193.187z
	 M152.549,193.118c-0.26,0-0.476-0.091-0.646-0.271c-0.158-0.182-0.238-0.408-0.238-0.681c0-0.328,0.108-0.595,0.323-0.799
	c0.216-0.215,0.493-0.322,0.833-0.322c0.442,0,0.777,0.146,1.003,0.441c0.238,0.295,0.357,0.646,0.357,1.054
	c0,0.567-0.17,1.089-0.51,1.564c-0.34,0.476-0.782,0.878-1.326,1.207l-0.476-0.629c0.476-0.272,0.833-0.584,1.071-0.936
	c0.238-0.34,0.357-0.696,0.357-1.07c0-0.058-0.011-0.13-0.034-0.222c-0.022,0.228-0.096,0.397-0.221,0.511
	C152.918,193.068,152.753,193.118,152.549,193.118z M163.673,193.187c-1.008,0-1.847-0.17-2.516-0.51
	c-0.668-0.352-1.207-0.822-1.615-1.411l1.207-0.816c0.318,0.453,0.714,0.816,1.19,1.088c0.476,0.272,1.066,0.408,1.768,0.408
	c0.714,0,1.253-0.146,1.615-0.441c0.374-0.307,0.561-0.691,0.561-1.156c0-0.249-0.073-0.453-0.221-0.612
	c-0.147-0.17-0.34-0.306-0.578-0.408c-0.238-0.112-0.515-0.204-0.833-0.271c-0.306-0.068-0.629-0.136-0.969-0.204
	c-0.396-0.079-0.793-0.17-1.19-0.272c-0.385-0.102-0.731-0.243-1.037-0.425c-0.306-0.192-0.555-0.436-0.748-0.73
	c-0.192-0.295-0.289-0.674-0.289-1.14c0-0.351,0.074-0.69,0.221-1.02c0.159-0.329,0.38-0.612,0.663-0.851
	c0.295-0.249,0.652-0.441,1.071-0.577c0.431-0.147,0.918-0.222,1.462-0.222c0.85,0,1.57,0.147,2.159,0.442
	c0.601,0.283,1.105,0.68,1.513,1.189l-1.156,0.782c-0.272-0.363-0.612-0.657-1.02-0.884c-0.408-0.227-0.906-0.34-1.496-0.34
	c-0.714,0-1.224,0.136-1.53,0.408c-0.306,0.271-0.459,0.623-0.459,1.054c0,0.238,0.063,0.436,0.187,0.595
	c0.136,0.147,0.318,0.272,0.544,0.374c0.227,0.103,0.493,0.188,0.799,0.255c0.306,0.068,0.641,0.137,1.003,0.204
	c0.397,0.079,0.794,0.176,1.19,0.289c0.397,0.103,0.748,0.249,1.054,0.442c0.318,0.192,0.573,0.441,0.765,0.748
	c0.204,0.295,0.306,0.68,0.306,1.155c0,0.363-0.079,0.721-0.238,1.071c-0.147,0.34-0.374,0.646-0.68,0.918
	c-0.294,0.261-0.668,0.47-1.122,0.629C164.801,193.108,164.274,193.187,163.673,193.187z M173.627,193.187
	c-0.68,0-1.309-0.119-1.887-0.357c-0.578-0.249-1.083-0.589-1.514-1.02c-0.419-0.431-0.753-0.935-1.002-1.513
	c-0.238-0.578-0.357-1.207-0.357-1.888c0-0.669,0.119-1.292,0.357-1.87c0.249-0.589,0.589-1.099,1.02-1.529
	c0.43-0.432,0.936-0.766,1.513-1.003c0.578-0.249,1.201-0.374,1.87-0.374c0.668,0,1.292,0.125,1.87,0.374
	c0.589,0.237,1.099,0.571,1.53,1.003c0.43,0.431,0.765,0.94,1.002,1.529c0.25,0.578,0.375,1.201,0.375,1.87s-0.125,1.292-0.375,1.87
	c-0.237,0.578-0.572,1.082-1.002,1.514c-0.432,0.431-0.936,0.771-1.514,1.02S174.307,193.187,173.627,193.187z M173.627,191.861
	c0.477,0,0.918-0.085,1.326-0.255c0.419-0.181,0.775-0.425,1.07-0.73c0.307-0.317,0.545-0.687,0.715-1.105s0.255-0.873,0.255-1.36
	c0-0.486-0.085-0.94-0.255-1.359c-0.17-0.432-0.408-0.799-0.715-1.105c-0.306-0.316-0.662-0.561-1.07-0.73
	c-0.408-0.182-0.85-0.272-1.326-0.272s-0.918,0.091-1.326,0.272c-0.408,0.17-0.765,0.414-1.07,0.73
	c-0.295,0.307-0.527,0.674-0.697,1.105c-0.17,0.419-0.256,0.873-0.256,1.359c0,0.499,0.086,0.958,0.256,1.377
	s0.402,0.782,0.697,1.089c0.306,0.306,0.662,0.55,1.07,0.73C172.709,191.776,173.15,191.861,173.627,191.861z M180.496,183.82h1.359
	v1.53c0.317-0.51,0.748-0.924,1.293-1.241c0.555-0.317,1.189-0.476,1.903-0.476c0.601,0,1.14,0.096,1.615,0.289
	c0.487,0.181,0.901,0.453,1.241,0.815c0.34,0.352,0.601,0.782,0.781,1.292c0.182,0.51,0.272,1.088,0.272,1.734V193h-1.411v-5.169
	c0-0.895-0.238-1.608-0.714-2.142s-1.162-0.799-2.058-0.799c-0.407,0-0.787,0.074-1.139,0.221c-0.351,0.147-0.656,0.357-0.918,0.629
	c-0.261,0.262-0.465,0.578-0.611,0.952c-0.147,0.363-0.221,0.765-0.221,1.207V193h-1.395V183.82z M195.57,183.82h1.412V193h-1.412
	V183.82z M195.18,180.997c0-0.316,0.103-0.577,0.307-0.781c0.215-0.215,0.476-0.323,0.781-0.323c0.328,0,0.596,0.108,0.799,0.323
	c0.205,0.204,0.307,0.465,0.307,0.781c0,0.317-0.102,0.584-0.307,0.8c-0.203,0.204-0.471,0.306-0.799,0.306
	c-0.317,0-0.578-0.102-0.781-0.306C195.282,181.581,195.18,181.315,195.18,180.997z M199.455,183.82h1.359v1.53
	c0.317-0.51,0.748-0.924,1.293-1.241c0.555-0.317,1.189-0.476,1.904-0.476c0.6,0,1.139,0.096,1.614,0.289
	c0.487,0.181,0.901,0.453,1.241,0.815c0.34,0.352,0.601,0.782,0.781,1.292c0.182,0.51,0.272,1.088,0.272,1.734V193h-1.411v-5.169
	c0-0.895-0.238-1.608-0.714-2.142s-1.162-0.799-2.058-0.799c-0.407,0-0.787,0.074-1.139,0.221c-0.351,0.147-0.656,0.357-0.918,0.629
	c-0.261,0.262-0.465,0.578-0.611,0.952c-0.147,0.363-0.221,0.765-0.221,1.207V193h-1.395V183.82z M214.732,193.187
	c-0.68,0-1.313-0.125-1.903-0.374c-0.589-0.249-1.099-0.589-1.53-1.02c-0.43-0.432-0.77-0.936-1.02-1.514
	c-0.238-0.578-0.357-1.201-0.357-1.87c0-0.68,0.125-1.309,0.374-1.887c0.25-0.589,0.591-1.094,1.021-1.513
	c0.431-0.432,0.935-0.766,1.513-1.003c0.59-0.249,1.219-0.374,1.887-0.374c0.499,0,0.97,0.067,1.411,0.204
	c0.454,0.136,0.867,0.328,1.241,0.577c0.374,0.238,0.702,0.533,0.985,0.885c0.295,0.34,0.527,0.714,0.697,1.122l-1.275,0.561
	c-0.271-0.635-0.674-1.133-1.207-1.496c-0.531-0.363-1.155-0.544-1.869-0.544c-0.477,0-0.924,0.091-1.344,0.272
	c-0.407,0.181-0.765,0.431-1.07,0.748c-0.307,0.306-0.544,0.674-0.715,1.104c-0.17,0.419-0.254,0.867-0.254,1.343
	c0,0.477,0.084,0.925,0.254,1.344c0.183,0.419,0.426,0.787,0.731,1.104s0.669,0.567,1.089,0.748s0.873,0.272,1.359,0.272
	c0.748,0,1.377-0.198,1.887-0.596c0.522-0.407,0.913-0.918,1.174-1.529l1.291,0.544c-0.361,0.85-0.918,1.547-1.666,2.091
	C216.7,192.921,215.799,193.187,214.732,193.187z M225.357,193.187c-0.681,0-1.31-0.119-1.887-0.357
	c-0.578-0.249-1.082-0.589-1.514-1.02c-0.419-0.431-0.754-0.935-1.003-1.513c-0.238-0.578-0.356-1.207-0.356-1.888
	c0-0.669,0.118-1.292,0.356-1.87c0.249-0.589,0.589-1.099,1.021-1.529c0.43-0.432,0.935-0.766,1.512-1.003
	c0.578-0.249,1.201-0.374,1.871-0.374c0.668,0,1.291,0.125,1.869,0.374c0.59,0.237,1.1,0.571,1.53,1.003
	c0.431,0.431,0.765,0.94,1.003,1.529c0.249,0.578,0.374,1.201,0.374,1.87s-0.125,1.292-0.374,1.87
	c-0.238,0.578-0.572,1.082-1.003,1.514c-0.431,0.431-0.935,0.771-1.513,1.02S226.037,193.187,225.357,193.187z M225.357,191.861
	c0.476,0,0.918-0.085,1.326-0.255c0.418-0.181,0.775-0.425,1.07-0.73c0.307-0.317,0.544-0.687,0.714-1.105
	c0.171-0.419,0.255-0.873,0.255-1.36c0-0.486-0.084-0.94-0.255-1.359c-0.17-0.432-0.407-0.799-0.714-1.105
	c-0.306-0.316-0.663-0.561-1.07-0.73c-0.408-0.182-0.851-0.272-1.326-0.272c-0.477,0-0.918,0.091-1.326,0.272
	c-0.408,0.17-0.766,0.414-1.071,0.73c-0.295,0.307-0.526,0.674-0.696,1.105c-0.171,0.419-0.256,0.873-0.256,1.359
	c0,0.499,0.085,0.958,0.256,1.377c0.17,0.419,0.401,0.782,0.696,1.089c0.306,0.306,0.663,0.55,1.071,0.73
	C224.439,191.776,224.881,191.861,225.357,191.861z M232.227,183.82h1.342v1.734c0.193-0.612,0.511-1.077,0.953-1.395
	c0.453-0.316,1.008-0.476,1.666-0.476s1.168,0.113,1.529,0.34l-0.578,1.326c-0.123-0.091-0.283-0.159-0.476-0.204
	c-0.181-0.057-0.396-0.085-0.646-0.085c-0.771,0-1.365,0.232-1.785,0.697c-0.42,0.453-0.629,1.189-0.629,2.21V193h-1.377V183.82z
	 M239.415,183.82h1.343v1.734c0.193-0.612,0.51-1.077,0.952-1.395c0.453-0.316,1.009-0.476,1.666-0.476s1.167,0.113,1.53,0.34
	l-0.578,1.326c-0.125-0.091-0.283-0.159-0.477-0.204c-0.181-0.057-0.396-0.085-0.646-0.085c-0.771,0-1.366,0.232-1.785,0.697
	c-0.419,0.453-0.629,1.189-0.629,2.21V193h-1.377V183.82z M250.245,193.187c-0.737,0-1.406-0.119-2.006-0.357
	c-0.591-0.249-1.101-0.584-1.53-1.003c-0.42-0.431-0.743-0.935-0.969-1.513c-0.227-0.578-0.34-1.201-0.34-1.87
	c0-0.68,0.119-1.309,0.356-1.887c0.249-0.589,0.583-1.1,1.003-1.53c0.43-0.431,0.936-0.771,1.514-1.02
	c0.588-0.249,1.229-0.374,1.92-0.374c0.668,0,1.287,0.119,1.854,0.356c0.578,0.228,1.071,0.55,1.479,0.97
	c0.42,0.407,0.748,0.9,0.986,1.479c0.238,0.567,0.357,1.19,0.357,1.87v0.629h-8.109c0.045,0.442,0.164,0.844,0.357,1.207
	c0.191,0.363,0.436,0.68,0.73,0.952c0.307,0.261,0.657,0.465,1.055,0.611c0.408,0.147,0.854,0.222,1.343,0.222
	c0.735,0,1.354-0.153,1.853-0.459c0.498-0.307,0.906-0.742,1.225-1.31l1.189,0.697c-0.476,0.737-1.054,1.309-1.734,1.717
	C252.098,192.983,251.253,193.187,250.245,193.187z M250.193,184.873c-0.441,0-0.855,0.074-1.24,0.222
	c-0.374,0.136-0.709,0.334-1.003,0.595c-0.296,0.249-0.544,0.55-0.748,0.901c-0.193,0.34-0.329,0.714-0.408,1.122h6.647
	c-0.114-0.873-0.459-1.564-1.037-2.074S251.089,184.873,250.193,184.873z M261.417,193.187c-0.681,0-1.315-0.125-1.903-0.374
	c-0.591-0.249-1.101-0.589-1.531-1.02c-0.431-0.432-0.771-0.936-1.02-1.514c-0.238-0.578-0.357-1.201-0.357-1.87
	c0-0.68,0.125-1.309,0.375-1.887c0.248-0.589,0.588-1.094,1.02-1.513c0.43-0.432,0.936-0.766,1.514-1.003
	c0.588-0.249,1.217-0.374,1.887-0.374c0.498,0,0.969,0.067,1.41,0.204c0.453,0.136,0.867,0.328,1.241,0.577
	c0.374,0.238,0.702,0.533,0.986,0.885c0.294,0.34,0.526,0.714,0.696,1.122l-1.274,0.561c-0.272-0.635-0.675-1.133-1.207-1.496
	s-1.155-0.544-1.87-0.544c-0.476,0-0.924,0.091-1.343,0.272c-0.408,0.181-0.765,0.431-1.071,0.748
	c-0.306,0.306-0.544,0.674-0.714,1.104c-0.17,0.419-0.255,0.867-0.255,1.343c0,0.477,0.085,0.925,0.255,1.344
	c0.181,0.419,0.425,0.787,0.731,1.104c0.306,0.317,0.668,0.567,1.088,0.748c0.419,0.181,0.871,0.272,1.359,0.272
	c0.748,0,1.377-0.198,1.887-0.596c0.521-0.407,0.912-0.918,1.174-1.529l1.292,0.544c-0.363,0.85-0.918,1.547-1.666,2.091
	C263.383,192.921,262.482,193.187,261.417,193.187z M266.838,183.82h1.785v-2.022l1.377-0.885v2.907h2.686v1.241H270v5.134
	c0,0.589,0.119,1.009,0.357,1.258c0.248,0.249,0.572,0.374,0.969,0.374c0.385,0,0.736-0.146,1.054-0.441l0.731,1.104
	c-0.262,0.204-0.545,0.363-0.851,0.477c-0.306,0.112-0.651,0.17-1.036,0.17c-0.851,0-1.496-0.228-1.938-0.681
	c-0.442-0.465-0.663-1.207-0.663-2.227v-5.168h-1.785V183.82z M278.532,193.187c-0.681,0-1.31-0.119-1.888-0.357
	c-0.578-0.249-1.082-0.589-1.513-1.02c-0.42-0.431-0.754-0.935-1.003-1.513c-0.238-0.578-0.357-1.207-0.357-1.888
	c0-0.669,0.119-1.292,0.357-1.87c0.249-0.589,0.589-1.099,1.02-1.529c0.431-0.432,0.936-0.766,1.514-1.003
	c0.578-0.249,1.201-0.374,1.87-0.374c0.668,0,1.292,0.125,1.87,0.374c0.589,0.237,1.099,0.571,1.529,1.003
	c0.43,0.431,0.766,0.94,1.004,1.529c0.248,0.578,0.373,1.201,0.373,1.87s-0.125,1.292-0.373,1.87
	c-0.238,0.578-0.574,1.082-1.004,1.514c-0.431,0.431-0.935,0.771-1.513,1.02S279.212,193.187,278.532,193.187z M278.532,191.861
	c0.476,0,0.918-0.085,1.325-0.255c0.42-0.181,0.776-0.425,1.072-0.73c0.305-0.317,0.543-0.687,0.713-1.105s0.256-0.873,0.256-1.36
	c0-0.486-0.086-0.94-0.256-1.359c-0.17-0.432-0.408-0.799-0.713-1.105c-0.307-0.316-0.664-0.561-1.072-0.73
	c-0.407-0.182-0.85-0.272-1.325-0.272s-0.918,0.091-1.326,0.272c-0.408,0.17-0.765,0.414-1.071,0.73
	c-0.295,0.307-0.527,0.674-0.697,1.105c-0.17,0.419-0.254,0.873-0.254,1.359c0,0.499,0.084,0.958,0.254,1.377
	s0.402,0.782,0.697,1.089c0.307,0.306,0.663,0.55,1.071,0.73C277.614,191.776,278.057,191.861,278.532,191.861z M288.65,193.187
	c-1.01,0-1.848-0.17-2.517-0.51c-0.669-0.352-1.207-0.822-1.614-1.411l1.207-0.816c0.316,0.453,0.713,0.816,1.189,1.088
	c0.477,0.272,1.064,0.408,1.768,0.408c0.715,0,1.252-0.146,1.615-0.441c0.374-0.307,0.561-0.691,0.561-1.156
	c0-0.249-0.073-0.453-0.221-0.612c-0.146-0.17-0.34-0.306-0.578-0.408c-0.237-0.112-0.516-0.204-0.832-0.271
	c-0.307-0.068-0.629-0.136-0.97-0.204c-0.397-0.079-0.793-0.17-1.19-0.272c-0.385-0.102-0.73-0.243-1.036-0.425
	c-0.306-0.192-0.556-0.436-0.748-0.73c-0.193-0.295-0.289-0.674-0.289-1.14c0-0.351,0.073-0.69,0.221-1.02
	c0.159-0.329,0.38-0.612,0.663-0.851c0.295-0.249,0.652-0.441,1.071-0.577c0.431-0.147,0.918-0.222,1.462-0.222
	c0.85,0,1.57,0.147,2.158,0.442c0.602,0.283,1.105,0.68,1.514,1.189l-1.156,0.782c-0.271-0.363-0.611-0.657-1.02-0.884
	s-0.907-0.34-1.496-0.34c-0.714,0-1.225,0.136-1.53,0.408c-0.306,0.271-0.459,0.623-0.459,1.054c0,0.238,0.062,0.436,0.187,0.595
	c0.137,0.147,0.317,0.272,0.545,0.374c0.227,0.103,0.492,0.188,0.799,0.255c0.306,0.068,0.64,0.137,1.003,0.204
	c0.397,0.079,0.793,0.176,1.19,0.289c0.396,0.103,0.748,0.249,1.054,0.442c0.317,0.192,0.571,0.441,0.765,0.748
	c0.204,0.295,0.307,0.68,0.307,1.155c0,0.363-0.08,0.721-0.238,1.071c-0.147,0.34-0.374,0.646-0.68,0.918
	c-0.295,0.261-0.67,0.47-1.123,0.629S289.251,193.187,288.65,193.187z M293.941,192.115c0-0.316,0.103-0.578,0.307-0.781
	c0.215-0.216,0.477-0.323,0.781-0.323c0.318,0,0.578,0.107,0.783,0.323c0.215,0.203,0.322,0.465,0.322,0.781
	c0,0.317-0.107,0.584-0.322,0.799c-0.205,0.216-0.465,0.323-0.783,0.323c-0.328,0-0.594-0.107-0.799-0.323
	C294.038,192.699,293.941,192.433,293.941,192.115z"/>
<linearGradient id="SVGID_1_" gradientUnits="userSpaceOnUse" x1="419.5059" y1="55.3245" x2="486.0475" y2="-113.7207" gradientTransform="matrix(1 0 0 -1 -253.2998 129.686)">
	<stop  offset="9.500000e-007" style="stop-color:#E1E9FF"/>
	<stop  offset="1" style="stop-color:#8173FF"/>
</linearGradient>
<path fill="url(#SVGID_1_)" d="M170,132c26.51,0,48-21.49,48-48c0-26.511-21.49-48-48-48s-48,21.489-48,48
	C122,110.51,143.49,132,170,132z"/>
<path fill="#3d6d79" d="M194.861,59h-49.654c-3.414,0-6.176,2.812-6.176,6.25L139,102.75c0,3.438,2.793,6.25,6.207,6.25h49.654
	c3.414,0,6.207-2.813,6.207-6.25v-37.5C201.068,61.812,198.275,59,194.861,59z M193.621,72.281L171.68,86.094
	c-0.994,0.625-2.297,0.625-3.29,0l-21.942-13.813c-0.311-0.176-0.583-0.413-0.801-0.698c-0.217-0.284-0.375-0.611-0.463-0.96
	c-0.089-0.348-0.106-0.711-0.051-1.065c0.055-0.355,0.18-0.695,0.37-1c0.189-0.305,0.437-0.567,0.73-0.773
	c0.293-0.205,0.625-0.348,0.974-0.421c0.35-0.072,0.71-0.072,1.06-0.001c0.349,0.072,0.681,0.215,0.974,0.419l20.793,13.095
	l20.794-13.095c0.293-0.204,0.625-0.347,0.974-0.419c0.351-0.071,0.71-0.071,1.06,0.001c0.35,0.073,0.682,0.216,0.975,0.421
	c0.293,0.206,0.541,0.469,0.73,0.773s0.314,0.645,0.369,1c0.056,0.354,0.039,0.718-0.051,1.065c-0.088,0.349-0.246,0.676-0.463,0.96
	C194.204,71.867,193.932,72.105,193.621,72.281z"/>
<path fill="#FFFFFF" stroke="#3d6d79" d="M127,84.5h86c5.246,0,9.5,4.253,9.5,9.5l0,0c0,5.246-4.254,9.5-9.5,9.5h-86
	c-5.247,0-9.5-4.254-9.5-9.5l0,0C117.5,88.753,121.753,84.5,127,84.5z"/>
<circle fill="#566865" cx="138" cy="94" r="4"/>
<circle fill="#566865" cx="151" cy="94" r="4"/>
<circle fill="#566865" cx="164" cy="94" r="4"/>
<circle fill="#566865" cx="177" cy="94" r="4"/>
<circle fill="#566865" cx="190" cy="94" r="4"/>
<circle fill="#566865" cx="203" cy="94" r="4"/>
</svg>
