<?xml version="1.0" encoding="utf-8"?>
<!-- Generator: Adobe Illustrator 24.0.2, SVG Export Plug-In . SVG Version: 6.00 Build 0)  -->
<svg version="1.1" id="Capa_1" xmlns="http://www.w3.org/2000/svg" xmlns:xlink="http://www.w3.org/1999/xlink" x="0px" y="0px"
	 viewBox="0 0 335 365" style="enable-background:new 0 0 335 365;" xml:space="preserve">
<style type="text/css">
	.st0{fill:#F4F3FF;}
	.st1{fill:#FFFFFF;}
	.st2{fill:#3D6D79;}
	.st3{fill:#FFFFFF;stroke:#3D6D79;stroke-miterlimit:10;}
	.st4{fill:#EDEBFF;}
	.st5{fill:#566865;}
	.st6{fill:#D69D66;}
</style>
<g id="Capa_2_1_">
</g>
<g>
	<path class="st0" d="M0,20.3c0-11,9-20,20-20h295c11,0,20,9,20,20v325c0,11-9,20-20,20H20c-11,0-20-9-20-20V20.3z"/>
	<path class="st1" d="M34,107.3h267c5.5,0,10,4.5,10,10v150c0,5.5-4.5,10-10,10H34c-5.5,0-10-4.5-10-10v-150
		C24,111.8,28.5,107.3,34,107.3z"/>
	<path class="st2" d="M261,0.3h50v54c0,13.8-11.2,25-25,25s-25-11.2-25-25V0.3z"/>
	<path class="st3" d="M291,55.3c0.7,1.4,0.9,3.1,0.7,4.7c-0.3,1.6-1,3-2.2,4.2c-3,3-8,3-11,0s-3-8,0-11c1.1-1.1,2.6-1.9,4.2-2.2
		c1.6-0.3,3.2,0,4.7,0.7l4-4l-1.8-1.8c-1-1-1-2.7,0-3.7c1-1,2.7-1,3.7,0l4.1,4.1c0.8,0.8,0.8,2,0,2.8L291,55.3z M282.2,56.8
		c1-1,2.7-1,3.7,0c1,1,1,2.7,0,3.7c-1,1-2.7,1-3.7,0C281.1,59.4,281.1,57.8,282.2,56.8z"/>
	<path class="st4" d="M196,302.3h100c5.5,0,10,4.5,10,10v15c0,5.5-4.5,10-10,10H196c-5.5,0-10-4.5-10-10v-15
		C186,306.8,190.5,302.3,196,302.3z"/>
	<path class="st5" d="M214.1,326.5c-0.9,0-1.8-0.2-2.6-0.5c-0.8-0.3-1.4-0.8-2-1.4c-0.6-0.6-1-1.3-1.3-2c-0.3-0.8-0.5-1.6-0.5-2.5
		c0-0.9,0.2-1.7,0.5-2.5c0.3-0.8,0.8-1.5,1.4-2c0.6-0.6,1.3-1,2-1.3c0.8-0.3,1.6-0.5,2.5-0.5c0.6,0,1.1,0.1,1.7,0.2
		c0.5,0.1,1,0.4,1.5,0.6c0.5,0.3,0.9,0.6,1.3,1c0.4,0.4,0.7,0.8,1,1.3l-1.6,1c-0.4-0.7-0.9-1.3-1.6-1.7c-0.7-0.4-1.4-0.6-2.3-0.6
		c-0.6,0-1.2,0.1-1.8,0.4c-0.5,0.2-1,0.6-1.4,1c-0.4,0.4-0.7,0.9-1,1.5c-0.2,0.6-0.3,1.1-0.3,1.8c0,0.6,0.1,1.2,0.3,1.8
		c0.2,0.5,0.5,1,0.9,1.4c0.4,0.4,0.9,0.7,1.4,1c0.6,0.2,1.2,0.4,1.8,0.4c1,0,1.8-0.2,2.4-0.7c0.7-0.5,1.2-1.1,1.6-1.8l1.7,0.9
		c-0.3,0.5-0.6,1-1,1.4c-0.4,0.4-0.8,0.8-1.3,1.1c-0.5,0.3-1,0.5-1.6,0.7C215.4,326.4,214.8,326.5,214.1,326.5z M224.3,326.5
		c-0.5,0-1-0.1-1.4-0.2c-0.4-0.1-0.7-0.3-1-0.6c-0.3-0.2-0.5-0.5-0.6-0.9c-0.1-0.3-0.2-0.7-0.2-1.1c0-1,0.4-1.7,1.1-2.2
		c0.7-0.5,1.8-0.8,3-0.8h2.7v-0.2c0-0.6-0.2-1.1-0.6-1.5c-0.4-0.4-1-0.6-1.8-0.6c-0.6,0-1.1,0.1-1.6,0.4c-0.4,0.3-0.8,0.6-1.1,1.1
		l-1.6-1c0.5-0.6,1-1.1,1.7-1.5c0.7-0.4,1.6-0.6,2.6-0.6c0.7,0,1.2,0.1,1.8,0.3c0.5,0.2,1,0.4,1.3,0.7c0.4,0.3,0.6,0.7,0.8,1.2
		s0.3,1,0.3,1.5v5.7h-1.8v-1.6c-0.4,0.5-0.9,1-1.5,1.3S225.1,326.5,224.3,326.5z M224.7,324.9c0.3,0,0.7,0,1-0.1
		c0.3-0.1,0.6-0.2,0.9-0.4c0.3-0.2,0.5-0.4,0.8-0.6c0.2-0.2,0.4-0.5,0.6-0.8v-0.8h-2.6c-0.9,0-1.5,0.1-1.8,0.4
		c-0.4,0.2-0.5,0.6-0.5,1.1c0,0.4,0.1,0.7,0.4,0.9C223.7,324.8,224.1,324.9,224.7,324.9z M231.8,317.1h1.8v1.3
		c0.3-0.4,0.7-0.8,1.2-1.1c0.5-0.3,1.1-0.4,1.7-0.4c0.6,0,1.1,0.1,1.6,0.3c0.5,0.2,0.9,0.4,1.2,0.8c0.3,0.3,0.6,0.8,0.7,1.3
		c0.2,0.5,0.3,1.1,0.3,1.7v5.3h-1.9v-5.2c0-0.8-0.2-1.4-0.6-1.9s-1-0.7-1.8-0.7c-0.4,0-0.7,0.1-1,0.2c-0.3,0.1-0.6,0.3-0.8,0.5
		c-0.2,0.2-0.4,0.5-0.5,0.9c-0.1,0.3-0.2,0.7-0.2,1.1v5.1h-1.8L231.8,317.1L231.8,317.1z M246.8,326.5c-0.7,0-1.3-0.1-1.9-0.4
		c-0.6-0.2-1.1-0.6-1.5-1c-0.4-0.4-0.8-0.9-1-1.5c-0.2-0.6-0.4-1.2-0.4-1.9c0-0.7,0.1-1.3,0.4-1.9c0.2-0.6,0.6-1.1,1-1.5
		c0.4-0.4,0.9-0.8,1.5-1c0.6-0.2,1.2-0.4,1.9-0.4c0.5,0,1,0.1,1.4,0.2c0.5,0.1,0.9,0.3,1.2,0.6c0.4,0.2,0.7,0.6,1,0.9
		c0.3,0.3,0.5,0.7,0.7,1.1l-1.6,0.7c-0.2-0.6-0.6-1-1.1-1.3c-0.5-0.3-1-0.5-1.6-0.5c-0.4,0-0.8,0.1-1.2,0.2c-0.4,0.2-0.7,0.4-1,0.7
		c-0.3,0.3-0.5,0.6-0.6,1c-0.1,0.4-0.2,0.8-0.2,1.2s0.1,0.8,0.2,1.2c0.2,0.4,0.4,0.7,0.6,1c0.3,0.3,0.6,0.5,1,0.6
		c0.4,0.2,0.8,0.2,1.2,0.2c0.7,0,1.2-0.2,1.7-0.5c0.5-0.4,0.8-0.8,1-1.3l1.7,0.7c-0.4,0.9-0.9,1.5-1.7,2.1
		C248.8,326.2,247.9,326.5,246.8,326.5z M257.2,326.5c-0.7,0-1.4-0.1-2-0.4c-0.6-0.2-1.1-0.6-1.5-1c-0.4-0.4-0.8-0.9-1-1.5
		c-0.2-0.6-0.3-1.2-0.3-1.9c0-0.7,0.1-1.3,0.4-1.9c0.2-0.6,0.6-1.1,1-1.5c0.4-0.4,0.9-0.8,1.5-1s1.2-0.4,1.9-0.4
		c0.7,0,1.3,0.1,1.9,0.4c0.6,0.2,1.1,0.5,1.5,1c0.4,0.4,0.7,0.9,1,1.5c0.2,0.6,0.4,1.2,0.4,1.9v0.8h-7.7c0.1,0.7,0.5,1.3,1,1.8
		c0.5,0.4,1.2,0.7,2.1,0.7c0.6,0,1.2-0.1,1.6-0.4c0.4-0.3,0.8-0.6,1.1-1.1l1.5,0.9c-0.4,0.7-1,1.2-1.7,1.6
		C259.1,326.3,258.2,326.5,257.2,326.5z M257.1,318.5c-0.7,0-1.4,0.2-1.9,0.6c-0.5,0.4-0.9,1-1.1,1.6h5.8c-0.1-0.7-0.5-1.3-1-1.7
		C258.5,318.7,257.9,318.5,257.1,318.5z M263.6,312.9h1.9v13.4h-1.9V312.9z M270.5,326.5c-0.5,0-1-0.1-1.4-0.2
		c-0.4-0.1-0.7-0.3-1-0.6c-0.3-0.2-0.5-0.5-0.6-0.9c-0.1-0.3-0.2-0.7-0.2-1.1c0-1,0.4-1.7,1.1-2.2c0.7-0.5,1.8-0.8,3-0.8h2.7v-0.2
		c0-0.6-0.2-1.1-0.6-1.5s-1-0.6-1.8-0.6c-0.6,0-1.1,0.1-1.6,0.4c-0.4,0.3-0.8,0.6-1.1,1.1l-1.6-1c0.5-0.6,1-1.1,1.7-1.5
		c0.7-0.4,1.6-0.6,2.5-0.6c0.7,0,1.2,0.1,1.8,0.3c0.5,0.2,1,0.4,1.3,0.7c0.4,0.3,0.6,0.7,0.8,1.2c0.2,0.5,0.3,1,0.3,1.5v5.7h-1.8
		v-1.6c-0.4,0.5-0.9,1-1.5,1.3C271.9,326.3,271.2,326.5,270.5,326.5z M270.9,324.9c0.3,0,0.7,0,1-0.1c0.3-0.1,0.6-0.2,0.9-0.4
		c0.3-0.2,0.5-0.4,0.8-0.6c0.2-0.2,0.4-0.5,0.6-0.8v-0.8h-2.6c-0.9,0-1.5,0.1-1.8,0.4c-0.4,0.2-0.5,0.6-0.5,1.1
		c0,0.4,0.1,0.7,0.4,0.9C269.8,324.8,270.2,324.9,270.9,324.9z M277.9,317.1h1.8v1.6c0.2-0.6,0.5-1,1-1.3c0.4-0.3,1-0.4,1.5-0.4
		c0.3,0,0.6,0,0.9,0.1c0.3,0.1,0.5,0.1,0.7,0.3l-0.7,1.8c-0.3-0.2-0.7-0.3-1.2-0.3c-0.7,0-1.2,0.2-1.6,0.5c-0.4,0.4-0.6,0.9-0.6,1.8
		v5.2h-1.8L277.9,317.1L277.9,317.1z"/>
	<path class="st6" d="M32,302.3h100c5.5,0,10,4.5,10,10v15c0,5.5-4.5,10-10,10H32c-5.5,0-10-4.5-10-10v-15
		C22,306.8,26.5,302.3,32,302.3z"/>
</g>
</svg>
