<?xml version="1.0" encoding="utf-8"?>
<!-- Generator: Adobe Illustrator 16.0.3, SVG Export Plug-In . SVG Version: 6.00 Build 0)  -->
<!DOCTYPE svg PUBLIC "-//W3C//DTD SVG 1.1//EN" "http://www.w3.org/Graphics/SVG/1.1/DTD/svg11.dtd">
<svg version="1.1" id="Capa_1" xmlns="http://www.w3.org/2000/svg" xmlns:xlink="http://www.w3.org/1999/xlink" x="0px" y="0px"
	 width="335px" height="365px" viewBox="0 0 335 365" enable-background="new 0 0 335 365" xml:space="preserve">
<g id="Capa_2">
</g>
<g>
	<path fill="#F4F3FF" d="M0,20.291c0-11.047,8.954-20,20-20h295c11.046,0,20,8.953,20,20v325c0,11.046-8.954,20-20,20H20
		c-11.046,0-20-8.954-20-20V20.291z"/>
	<path fill="#FFFFFF" d="M34,107.291h267c5.523,0,10,4.477,10,10v150c0,5.522-4.477,10-10,10H34c-5.523,0-10-4.478-10-10v-150
		C24,111.768,28.477,107.291,34,107.291z"/>
	<path fill="#3d6d79" d="M261,0.291h50v54c0,13.807-11.193,25-25,25s-25-11.193-25-25V0.291z"/>
	<path fill="#FFFFFF" stroke="#3d6d79" stroke-miterlimit="10" d="M290.993,55.262c0.694,1.449,0.921,3.076,0.651,4.659
		c-0.271,1.583-1.026,3.042-2.162,4.178c-3.031,3.031-7.957,3.031-10.988,0s-3.031-7.957,0-10.988
		c1.136-1.136,2.595-1.891,4.178-2.162c1.583-0.27,3.21-0.043,4.659,0.651l3.983-3.984l-1.832-1.831
		c-1.012-1.011-1.012-2.65,0-3.663c1.012-1.011,2.651-1.011,3.662,0l4.08,4.08c0.781,0.781,0.781,2.049,0,2.829L290.993,55.262z
		 M282.157,56.773c1.011-1.011,2.651-1.011,3.663,0c1.011,1.012,1.011,2.652,0,3.663c-1.012,1.012-2.652,1.012-3.663,0
		C281.145,59.425,281.145,57.784,282.157,56.773z"/>
	<path fill="#EDEBFF" d="M196,302.291h100c5.523,0,10,4.477,10,10v15c0,5.522-4.477,10-10,10H196c-5.523,0-10-4.478-10-10v-15
		C186,306.768,190.477,302.291,196,302.291z"/>
	<path fill="#566865" d="M214.137,326.461c-0.919,0-1.769-0.164-2.551-0.493c-0.771-0.34-1.445-0.799-2.023-1.377
		c-0.566-0.578-1.008-1.252-1.326-2.023c-0.316-0.771-0.475-1.598-0.475-2.481c0-0.907,0.163-1.745,0.492-2.517
		c0.329-0.782,0.782-1.456,1.359-2.022c0.578-0.578,1.253-1.026,2.023-1.344c0.782-0.328,1.615-0.492,2.5-0.492
		c0.588,0,1.149,0.078,1.682,0.237c0.545,0.147,1.049,0.357,1.514,0.629c0.477,0.272,0.906,0.602,1.292,0.986
		c0.397,0.385,0.731,0.81,1.003,1.275l-1.615,1.003c-0.385-0.714-0.906-1.281-1.563-1.7c-0.657-0.431-1.429-0.646-2.312-0.646
		c-0.646,0-1.248,0.119-1.803,0.357c-0.544,0.238-1.02,0.567-1.428,0.986c-0.408,0.407-0.725,0.895-0.952,1.462
		c-0.228,0.555-0.341,1.149-0.341,1.785c0,0.635,0.113,1.229,0.341,1.784c0.228,0.544,0.538,1.026,0.935,1.445
		c0.408,0.408,0.885,0.731,1.428,0.969c0.556,0.238,1.156,0.357,1.803,0.357c0.963,0,1.779-0.238,2.447-0.714
		c0.681-0.477,1.201-1.088,1.564-1.836l1.666,0.884c-0.271,0.521-0.602,0.997-0.986,1.428c-0.385,0.419-0.822,0.782-1.309,1.088
		c-0.477,0.307-0.997,0.544-1.564,0.714C215.371,326.376,214.771,326.461,214.137,326.461z M224.334,326.478
		c-0.533,0-1.003-0.068-1.411-0.204c-0.397-0.136-0.731-0.323-1.003-0.561c-0.271-0.249-0.482-0.538-0.629-0.867
		c-0.137-0.34-0.204-0.703-0.204-1.088c0-0.952,0.362-1.694,1.088-2.228c0.736-0.544,1.751-0.815,3.043-0.815h2.72v-0.153
		c0-0.612-0.192-1.111-0.578-1.496c-0.385-0.385-0.985-0.578-1.801-0.578c-0.613,0-1.14,0.136-1.582,0.408
		c-0.441,0.261-0.793,0.618-1.054,1.071l-1.632-0.952c0.453-0.602,1.031-1.099,1.734-1.496c0.713-0.397,1.563-0.595,2.55-0.595
		c0.657,0,1.241,0.091,1.751,0.271c0.521,0.17,0.957,0.419,1.309,0.748c0.352,0.317,0.617,0.703,0.799,1.156
		s0.272,0.958,0.272,1.513v5.679h-1.769v-1.615c-0.362,0.544-0.861,0.979-1.496,1.309S225.104,326.478,224.334,326.478z
		 M224.725,324.88c0.328,0,0.651-0.045,0.969-0.137c0.318-0.091,0.617-0.215,0.902-0.374c0.282-0.17,0.537-0.374,0.764-0.611
		c0.238-0.238,0.431-0.511,0.578-0.816v-0.765h-2.601c-0.851,0-1.462,0.125-1.836,0.374c-0.362,0.249-0.544,0.601-0.544,1.054
		c0,0.397,0.141,0.708,0.425,0.935C223.665,324.767,224.113,324.88,224.725,324.88z M231.787,317.111h1.802v1.275
		c0.317-0.442,0.72-0.793,1.207-1.054c0.499-0.272,1.071-0.408,1.718-0.408c0.577,0,1.098,0.096,1.563,0.289
		c0.476,0.181,0.873,0.447,1.19,0.799c0.328,0.34,0.578,0.765,0.748,1.274c0.18,0.499,0.271,1.061,0.271,1.684v5.321h-1.854v-5.186
		c0-0.782-0.197-1.405-0.595-1.87s-0.979-0.697-1.751-0.697c-0.352,0-0.68,0.063-0.986,0.188c-0.295,0.125-0.555,0.306-0.781,0.544
		c-0.215,0.227-0.385,0.51-0.51,0.85c-0.125,0.329-0.188,0.697-0.188,1.105v5.066h-1.836V317.111z M246.833,326.478
		c-0.681,0-1.315-0.125-1.903-0.374c-0.59-0.249-1.1-0.589-1.531-1.02c-0.431-0.432-0.771-0.936-1.02-1.514
		c-0.238-0.578-0.357-1.201-0.357-1.87c0-0.68,0.125-1.309,0.375-1.887c0.248-0.578,0.588-1.082,1.02-1.513
		c0.432-0.432,0.936-0.766,1.514-1.003c0.588-0.249,1.217-0.374,1.887-0.374c0.51,0,0.985,0.067,1.428,0.204
		c0.453,0.136,0.867,0.329,1.24,0.577c0.375,0.249,0.703,0.551,0.986,0.901c0.295,0.34,0.527,0.714,0.697,1.122l-1.648,0.714
		c-0.238-0.566-0.596-1.009-1.071-1.326c-0.466-0.316-1.009-0.476-1.632-0.476c-0.432,0-0.827,0.079-1.19,0.238
		c-0.362,0.158-0.681,0.38-0.952,0.662c-0.261,0.272-0.47,0.596-0.629,0.97c-0.146,0.374-0.221,0.771-0.221,1.189
		s0.074,0.816,0.221,1.19c0.159,0.374,0.374,0.703,0.646,0.986c0.271,0.271,0.588,0.486,0.951,0.646
		c0.375,0.159,0.776,0.238,1.207,0.238c0.657,0,1.213-0.176,1.666-0.527c0.465-0.363,0.811-0.81,1.037-1.343l1.666,0.697
		c-0.363,0.85-0.918,1.547-1.666,2.091C248.805,326.212,247.898,326.478,246.833,326.478z M257.244,326.478
		c-0.737,0-1.405-0.119-2.006-0.357c-0.59-0.249-1.1-0.584-1.53-1.003c-0.431-0.431-0.765-0.935-1.003-1.513
		c-0.227-0.578-0.34-1.201-0.34-1.87c0-0.68,0.119-1.309,0.357-1.887c0.248-0.589,0.588-1.1,1.02-1.53
		c0.431-0.431,0.935-0.771,1.513-1.02s1.207-0.374,1.888-0.374c0.68,0,1.303,0.119,1.869,0.356c0.578,0.228,1.077,0.55,1.496,0.97
		c0.419,0.419,0.748,0.918,0.986,1.495c0.238,0.567,0.357,1.19,0.357,1.87v0.766h-7.719c0.137,0.748,0.477,1.349,1.02,1.802
		c0.545,0.442,1.242,0.663,2.092,0.663c0.646,0,1.184-0.136,1.615-0.408c0.441-0.271,0.799-0.629,1.07-1.071l1.514,0.901
		c-0.442,0.669-1.004,1.207-1.684,1.615C259.08,326.28,258.241,326.478,257.244,326.478z M257.143,318.538
		c-0.738,0-1.367,0.216-1.888,0.646c-0.521,0.419-0.873,0.963-1.054,1.632h5.797c-0.137-0.725-0.459-1.286-0.969-1.683
		C258.529,318.737,257.9,318.538,257.143,318.538z M263.629,312.895h1.854v13.396h-1.854V312.895z M270.469,326.478
		c-0.531,0-1.003-0.068-1.41-0.204c-0.396-0.136-0.731-0.323-1.004-0.561c-0.271-0.249-0.48-0.538-0.629-0.867
		c-0.136-0.34-0.203-0.703-0.203-1.088c0-0.952,0.362-1.694,1.088-2.228c0.736-0.544,1.75-0.815,3.043-0.815h2.72v-0.153
		c0-0.612-0.192-1.111-0.578-1.496s-0.986-0.578-1.802-0.578c-0.612,0-1.139,0.136-1.582,0.408
		c-0.441,0.261-0.793,0.618-1.053,1.071l-1.633-0.952c0.454-0.602,1.032-1.099,1.734-1.496c0.714-0.397,1.564-0.595,2.55-0.595
		c0.658,0,1.241,0.091,1.751,0.271c0.521,0.17,0.958,0.419,1.309,0.748c0.353,0.317,0.619,0.703,0.799,1.156
		c0.183,0.453,0.272,0.958,0.272,1.513v5.679h-1.768v-1.615c-0.362,0.544-0.861,0.979-1.496,1.309
		C271.943,326.314,271.24,326.478,270.469,326.478z M270.859,324.88c0.33,0,0.652-0.045,0.97-0.137
		c0.317-0.091,0.618-0.215,0.901-0.374c0.283-0.17,0.539-0.374,0.765-0.611c0.237-0.238,0.431-0.511,0.578-0.816v-0.765h-2.601
		c-0.851,0-1.463,0.125-1.837,0.374c-0.362,0.249-0.544,0.601-0.544,1.054c0,0.397,0.143,0.708,0.426,0.935
		C269.801,324.767,270.248,324.88,270.859,324.88z M277.906,317.111h1.802v1.599c0.192-0.578,0.51-1.01,0.952-1.293
		c0.441-0.295,0.957-0.441,1.547-0.441c0.316,0,0.605,0.034,0.867,0.102c0.271,0.058,0.498,0.143,0.68,0.256l-0.714,1.768
		c-0.272-0.181-0.658-0.272-1.156-0.272c-0.657,0-1.179,0.177-1.563,0.527c-0.387,0.351-0.578,0.941-0.578,1.768v5.169h-1.836
		V317.111z"/>
	<path fill="#d69d66" d="M32,302.291h100c5.523,0,10,4.477,10,10v15c0,5.522-4.477,10-10,10H32c-5.523,0-10-4.478-10-10v-15
		C22,306.768,26.477,302.291,32,302.291z"/>
	<path fill="#566865" d="M39.386,313.881h4.828c0.657,0,1.264,0.112,1.819,0.34c0.556,0.227,1.032,0.538,1.428,0.935
		c0.408,0.386,0.72,0.851,0.935,1.395c0.227,0.532,0.34,1.104,0.34,1.717s-0.113,1.184-0.34,1.717
		c-0.215,0.533-0.527,0.997-0.935,1.395c-0.396,0.396-0.878,0.708-1.445,0.935c-0.556,0.227-1.167,0.34-1.836,0.34h-2.941v3.639
		h-1.853V313.881z M41.239,315.58v5.355h2.822c0.431,0,0.822-0.068,1.173-0.204c0.352-0.136,0.646-0.323,0.884-0.561
		c0.25-0.238,0.437-0.521,0.561-0.851c0.136-0.329,0.204-0.68,0.204-1.054c0-0.385-0.068-0.742-0.204-1.071
		c-0.125-0.329-0.312-0.611-0.561-0.85c-0.238-0.238-0.532-0.425-0.884-0.562c-0.351-0.136-0.742-0.204-1.173-0.204H41.239z
		 M54.795,326.478c-0.737,0-1.406-0.119-2.006-0.357c-0.589-0.249-1.099-0.584-1.53-1.003c-0.431-0.431-0.765-0.935-1.003-1.513
		c-0.227-0.578-0.34-1.201-0.34-1.87c0-0.68,0.119-1.309,0.357-1.887c0.25-0.589,0.589-1.1,1.02-1.53s0.935-0.771,1.513-1.02
		s1.207-0.374,1.887-0.374c0.68,0,1.303,0.119,1.87,0.356c0.578,0.228,1.077,0.55,1.496,0.97c0.419,0.419,0.748,0.918,0.986,1.495
		c0.238,0.567,0.357,1.19,0.357,1.87v0.766h-7.718c0.136,0.748,0.476,1.349,1.02,1.802c0.544,0.442,1.241,0.663,2.091,0.663
		c0.646,0,1.184-0.136,1.615-0.408c0.442-0.271,0.799-0.629,1.071-1.071l1.513,0.901c-0.442,0.669-1.003,1.207-1.683,1.615
		C56.631,326.28,55.792,326.478,54.795,326.478z M54.693,318.538c-0.737,0-1.366,0.216-1.887,0.646
		c-0.521,0.419-0.873,0.963-1.054,1.632h5.797c-0.136-0.725-0.459-1.286-0.969-1.683C56.081,318.737,55.452,318.538,54.693,318.538z
		 M65.446,326.478c-0.601,0-1.179-0.113-1.734-0.34c-0.555-0.228-1.048-0.55-1.479-0.969c-0.419-0.419-0.759-0.925-1.02-1.514
		c-0.249-0.589-0.374-1.241-0.374-1.955c0-0.725,0.125-1.377,0.374-1.955c0.25-0.589,0.584-1.094,1.003-1.513
		c0.431-0.419,0.924-0.742,1.479-0.969c0.567-0.228,1.156-0.34,1.768-0.34c0.612,0,1.196,0.13,1.751,0.391
		c0.567,0.261,1.026,0.618,1.377,1.071v-5.525h1.802v13.431h-1.802v-1.344c-0.362,0.477-0.827,0.851-1.394,1.122
		C66.642,326.342,66.059,326.478,65.446,326.478z M65.685,324.795c0.431,0,0.827-0.079,1.19-0.238
		c0.374-0.17,0.691-0.391,0.952-0.663c0.272-0.283,0.481-0.612,0.629-0.986c0.159-0.385,0.238-0.793,0.238-1.224
		c0-0.419-0.079-0.816-0.238-1.19c-0.147-0.385-0.357-0.714-0.629-0.985c-0.261-0.283-0.578-0.504-0.952-0.663
		c-0.363-0.17-0.759-0.255-1.19-0.255s-0.833,0.079-1.207,0.237c-0.363,0.159-0.68,0.38-0.952,0.663
		c-0.272,0.272-0.487,0.602-0.646,0.986c-0.147,0.374-0.221,0.776-0.221,1.207s0.074,0.839,0.221,1.224
		c0.159,0.374,0.374,0.703,0.646,0.986s0.589,0.504,0.952,0.663C64.852,324.716,65.254,324.795,65.685,324.795z M72.502,317.111
		h1.853v9.181h-1.853V317.111z M72.128,314.357c0-0.374,0.119-0.686,0.357-0.935c0.249-0.249,0.561-0.374,0.935-0.374
		c0.385,0,0.697,0.125,0.935,0.374c0.249,0.249,0.374,0.561,0.374,0.935s-0.125,0.687-0.374,0.935
		c-0.238,0.25-0.55,0.375-0.935,0.375c-0.386,0-0.697-0.125-0.935-0.375C72.247,315.043,72.128,314.731,72.128,314.357z
		 M76.469,317.111h1.802v1.599c0.193-0.578,0.51-1.01,0.952-1.293c0.442-0.295,0.958-0.441,1.547-0.441
		c0.317,0,0.606,0.034,0.867,0.102c0.272,0.058,0.499,0.143,0.68,0.256l-0.714,1.768c-0.272-0.181-0.657-0.272-1.156-0.272
		c-0.657,0-1.178,0.177-1.563,0.527s-0.578,0.941-0.578,1.768v5.169h-1.836V317.111z M87.842,312.895h1.853v13.396h-1.853V312.895z
		 M91.876,312.895h1.853v13.396h-1.853V312.895z M98.717,326.478c-0.533,0-1.003-0.068-1.411-0.204
		c-0.397-0.136-0.731-0.323-1.003-0.561c-0.272-0.249-0.482-0.538-0.629-0.867c-0.136-0.34-0.204-0.703-0.204-1.088
		c0-0.952,0.362-1.694,1.088-2.228c0.736-0.544,1.751-0.815,3.043-0.815h2.72v-0.153c0-0.612-0.193-1.111-0.578-1.496
		c-0.386-0.385-0.986-0.578-1.802-0.578c-0.612,0-1.139,0.136-1.581,0.408c-0.442,0.261-0.794,0.618-1.054,1.071l-1.632-0.952
		c0.453-0.602,1.031-1.099,1.734-1.496c0.714-0.397,1.564-0.595,2.55-0.595c0.657,0,1.241,0.091,1.751,0.271
		c0.521,0.17,0.957,0.419,1.309,0.748c0.351,0.317,0.617,0.703,0.799,1.156c0.181,0.453,0.272,0.958,0.272,1.513v5.679h-1.768
		v-1.615c-0.363,0.544-0.862,0.979-1.496,1.309C100.19,326.314,99.487,326.478,98.717,326.478z M99.108,324.88
		c0.328,0,0.651-0.045,0.969-0.137c0.317-0.091,0.617-0.215,0.901-0.374c0.283-0.17,0.538-0.374,0.765-0.611
		c0.238-0.238,0.43-0.511,0.578-0.816v-0.765H99.72c-0.85,0-1.462,0.125-1.836,0.374c-0.363,0.249-0.544,0.601-0.544,1.054
		c0,0.397,0.141,0.708,0.425,0.935C98.048,324.767,98.496,324.88,99.108,324.88z M104.907,317.111h1.938l2.635,6.902l2.737-6.902
		h1.904l-3.808,9.181h-1.802L104.907,317.111z M119.541,326.478c-0.737,0-1.406-0.119-2.006-0.357c-0.59-0.249-1.1-0.584-1.53-1.003
		c-0.431-0.431-0.765-0.935-1.003-1.513c-0.227-0.578-0.34-1.201-0.34-1.87c0-0.68,0.119-1.309,0.357-1.887
		c0.249-0.589,0.589-1.1,1.02-1.53c0.43-0.431,0.935-0.771,1.513-1.02c0.578-0.249,1.207-0.374,1.887-0.374s1.303,0.119,1.87,0.356
		c0.578,0.228,1.076,0.55,1.496,0.97c0.419,0.419,0.748,0.918,0.986,1.495c0.238,0.567,0.357,1.19,0.357,1.87v0.766h-7.718
		c0.136,0.748,0.476,1.349,1.02,1.802c0.544,0.442,1.241,0.663,2.091,0.663c0.646,0,1.184-0.136,1.615-0.408
		c0.442-0.271,0.799-0.629,1.071-1.071l1.513,0.901c-0.442,0.669-1.003,1.207-1.683,1.615
		C121.377,326.28,120.538,326.478,119.541,326.478z M119.439,318.538c-0.737,0-1.366,0.216-1.887,0.646
		c-0.522,0.419-0.873,0.963-1.054,1.632h5.797c-0.136-0.725-0.459-1.286-0.969-1.683
		C120.827,318.737,120.198,318.538,119.439,318.538z"/>
</g>
</svg>
