<?xml version="1.0" encoding="utf-8"?>
<!-- Generator: Adobe Illustrator 16.0.3, SVG Export Plug-In . SVG Version: 6.00 Build 0)  -->
<!DOCTYPE svg PUBLIC "-//W3C//DTD SVG 1.1//EN" "http://www.w3.org/Graphics/SVG/1.1/DTD/svg11.dtd">
<svg version="1.1" id="Capa_1" xmlns="http://www.w3.org/2000/svg" xmlns:xlink="http://www.w3.org/1999/xlink" x="0px" y="0px"
	 width="180px" height="200px" viewBox="0 0 180 200" enable-background="new 0 0 180 200" xml:space="preserve">
<g>
	<path fill="#7966FF" d="M10,0h160c5.523,0,10,4.477,10,10v180c0,5.521-4.477,10-10,10H10c-5.523,0-10-4.479-10-10V10
		C0,4.477,4.477,0,10,0z"/>
	<path fill="#FFFFFF" d="M20,30h140c5.523,0,10,4.477,10,10v11c0,5.521-4.477,10-10,10H20c-5.523,0-10-4.479-10-10V40
		C10,34.477,14.477,30,20,30z"/>
	<path fill="#FFFFFF" d="M65.073,98.43c0,0.76-0.13,1.5-0.39,2.22c-0.24,0.72-0.601,1.379-1.08,1.98
		c-0.48,0.6-1.08,1.119-1.801,1.559c-0.699,0.441-1.51,0.75-2.43,0.931v3.479h-4.141v-3.479c-1.439-0.238-2.68-0.709-3.719-1.408
		c-1.021-0.698-1.91-1.5-2.671-2.399l3.72-2.911c0.561,0.941,1.271,1.66,2.131,2.161c0.859,0.5,1.76,0.75,2.699,0.75
		c1.021,0,1.83-0.271,2.431-0.81c0.62-0.563,0.93-1.223,0.93-1.98c0-0.461-0.13-0.85-0.39-1.17c-0.26-0.32-0.61-0.59-1.051-0.813
		c-0.42-0.219-0.91-0.408-1.47-0.568c-0.54-0.182-1.1-0.352-1.68-0.51c-0.72-0.199-1.46-0.449-2.22-0.75
		c-0.76-0.301-1.45-0.682-2.07-1.141c-0.62-0.479-1.13-1.07-1.53-1.77c-0.399-0.723-0.6-1.611-0.6-2.67
		c0-0.762,0.13-1.473,0.39-2.131c0.26-0.682,0.631-1.291,1.11-1.83s1.05-0.99,1.71-1.352c0.66-0.379,1.4-0.66,2.22-0.84v-3.18h4.11
		v3.18c1.199,0.221,2.22,0.611,3.06,1.17c0.86,0.563,1.61,1.221,2.25,1.98l-3.42,2.609c-0.46-0.721-1.04-1.27-1.739-1.648
		c-0.681-0.4-1.451-0.602-2.311-0.602c-0.939,0-1.7,0.23-2.28,0.689c-0.56,0.461-0.84,1.041-0.84,1.74
		c0,0.439,0.12,0.811,0.36,1.109c0.24,0.279,0.57,0.529,0.99,0.75c0.42,0.199,0.899,0.391,1.439,0.57
		c0.561,0.16,1.15,0.33,1.77,0.51c0.74,0.24,1.49,0.521,2.25,0.84c0.78,0.301,1.48,0.699,2.101,1.199
		c0.64,0.5,1.16,1.121,1.56,1.861C64.873,96.48,65.073,97.369,65.073,98.43z M74.83,105.301c-1.859,0-3.439-0.371-4.74-1.111
		c-1.279-0.76-2.3-1.75-3.061-2.969l4.111-2.313c0.299,0.701,0.75,1.291,1.35,1.771c0.619,0.461,1.4,0.688,2.34,0.688
		c0.48,0,0.93-0.091,1.35-0.271c0.42-0.18,0.78-0.42,1.08-0.721c0.32-0.32,0.57-0.689,0.75-1.109c0.18-0.441,0.27-0.92,0.27-1.441
		c0-1.078-0.329-1.947-0.989-2.607c-0.64-0.66-1.49-0.99-2.55-0.99c-0.86,0-1.58,0.209-2.16,0.629s-1.04,0.941-1.38,1.563
		L67.27,94.83l1.771-11.729h12.09v3.93h-8.819l-0.75,4.619c0.459-0.359,1-0.66,1.619-0.898c0.641-0.24,1.36-0.359,2.16-0.359
		c1.02,0,1.971,0.17,2.85,0.51c0.9,0.32,1.67,0.799,2.311,1.439c0.641,0.64,1.141,1.43,1.5,2.371c0.38,0.92,0.57,1.988,0.57,3.209
		c0,1.08-0.19,2.068-0.57,2.971c-0.38,0.898-0.91,1.68-1.59,2.34c-0.68,0.66-1.5,1.17-2.46,1.529
		C77.01,105.119,75.971,105.301,74.83,105.301z M84.994,102.779c0-0.76,0.24-1.389,0.72-1.889c0.5-0.5,1.13-0.75,1.89-0.75
		s1.381,0.25,1.86,0.75c0.5,0.5,0.75,1.129,0.75,1.889s-0.25,1.393-0.75,1.893c-0.479,0.5-1.101,0.75-1.86,0.75
		c-0.779,0-1.41-0.25-1.89-0.75S84.994,103.539,84.994,102.779z M101.49,101.25c0.66,0,1.26-0.102,1.8-0.301
		c0.54-0.221,0.989-0.59,1.351-1.109c0.379-0.539,0.67-1.25,0.869-2.129c0.2-0.883,0.301-1.99,0.301-3.33v-0.9
		c0-1.32-0.108-2.41-0.33-3.27c-0.201-0.861-0.488-1.541-0.871-2.041c-0.357-0.5-0.81-0.852-1.35-1.051
		c-0.52-0.199-1.1-0.301-1.74-0.301c-0.66,0-1.26,0.111-1.799,0.33c-0.521,0.201-0.971,0.563-1.351,1.08
		c-0.38,0.5-0.681,1.18-0.899,2.041c-0.201,0.859-0.301,1.93-0.301,3.209v0.9c0,1.359,0.1,2.479,0.301,3.359
		c0.199,0.879,0.479,1.58,0.84,2.102c0.379,0.52,0.84,0.89,1.379,1.106C100.23,101.15,100.83,101.25,101.49,101.25z M101.49,105.301
		c-1.26,0-2.42-0.191-3.48-0.57c-1.039-0.399-1.939-1.03-2.699-1.891c-0.74-0.859-1.318-1.98-1.74-3.359
		c-0.42-1.381-0.631-3.061-0.631-5.041v-1.02c0-1.9,0.223-3.521,0.66-4.859c0.44-1.34,1.041-2.441,1.801-3.301
		c0.779-0.859,1.689-1.48,2.729-1.859c1.04-0.398,2.16-0.6,3.36-0.6c1.22,0,2.35,0.199,3.39,0.6c1.06,0.4,1.97,1.029,2.729,1.889
		c0.761,0.861,1.361,1.963,1.801,3.303c0.439,1.34,0.66,2.947,0.66,4.83v1.02c0,2.021-0.211,3.719-0.631,5.1s-1.01,2.5-1.771,3.359
		c-0.76,0.84-1.67,1.451-2.729,1.83C103.9,105.109,102.75,105.301,101.49,105.301z M121.676,101.25c0.66,0,1.26-0.102,1.801-0.301
		c0.539-0.221,0.989-0.59,1.352-1.109c0.38-0.539,0.67-1.25,0.867-2.129c0.201-0.883,0.303-1.99,0.303-3.33v-0.9
		c0-1.32-0.107-2.41-0.33-3.27c-0.2-0.861-0.49-1.541-0.87-2.041c-0.358-0.5-0.812-0.852-1.353-1.051
		c-0.52-0.199-1.1-0.301-1.737-0.301c-0.66,0-1.263,0.111-1.8,0.33c-0.521,0.201-0.973,0.563-1.352,1.08
		c-0.381,0.5-0.681,1.18-0.898,2.041c-0.2,0.859-0.303,1.93-0.303,3.209v0.9c0,1.359,0.103,2.479,0.303,3.359
		c0.197,0.879,0.479,1.58,0.84,2.102c0.38,0.52,0.84,0.89,1.38,1.106C120.416,101.15,121.016,101.25,121.676,101.25z
		 M121.676,105.301c-1.26,0-2.42-0.191-3.48-0.57c-1.037-0.399-1.938-1.03-2.697-1.891c-0.74-0.859-1.32-1.98-1.74-3.359
		c-0.42-1.381-0.63-3.061-0.63-5.041v-1.02c0-1.9,0.222-3.521,0.66-4.859c0.438-1.34,1.04-2.441,1.8-3.301
		c0.78-0.859,1.688-1.48,2.729-1.859c1.039-0.398,2.16-0.6,3.359-0.6c1.221,0,2.35,0.199,3.391,0.6
		c1.062,0.4,1.972,1.029,2.729,1.889c0.761,0.861,1.36,1.963,1.8,3.303c0.44,1.34,0.66,2.947,0.66,4.83v1.02
		c0,2.021-0.21,3.719-0.63,5.1s-1.01,2.5-1.771,3.359c-0.76,0.84-1.67,1.451-2.729,1.83
		C124.086,105.109,122.936,105.301,121.676,105.301z M141.861,101.25c0.66,0,1.26-0.102,1.8-0.301
		c0.54-0.221,0.989-0.59,1.351-1.109c0.379-0.539,0.67-1.25,0.869-2.129c0.2-0.883,0.301-1.99,0.301-3.33v-0.9
		c0-1.32-0.111-2.41-0.33-3.27c-0.201-0.861-0.49-1.541-0.871-2.041c-0.357-0.5-0.81-0.852-1.35-1.051
		c-0.52-0.199-1.1-0.301-1.74-0.301c-0.66,0-1.26,0.111-1.8,0.33c-0.521,0.201-0.97,0.563-1.35,1.08c-0.38,0.5-0.681,1.18-0.9,2.041
		c-0.2,0.859-0.3,1.93-0.3,3.209v0.9c0,1.359,0.1,2.479,0.3,3.359c0.2,0.879,0.479,1.58,0.841,2.102
		c0.379,0.52,0.84,0.89,1.379,1.106C140.602,101.15,141.201,101.25,141.861,101.25z M141.861,105.301c-1.26,0-2.42-0.191-3.48-0.57
		c-1.04-0.399-1.939-1.03-2.699-1.891c-0.74-0.859-1.32-1.98-1.74-3.359c-0.42-1.381-0.631-3.061-0.631-5.041v-1.02
		c0-1.9,0.223-3.521,0.66-4.859c0.44-1.34,1.041-2.441,1.801-3.301c0.779-0.859,1.689-1.48,2.729-1.859
		c1.04-0.398,2.16-0.6,3.36-0.6c1.22,0,2.35,0.199,3.39,0.6c1.06,0.4,1.97,1.029,2.729,1.889c0.761,0.861,1.358,1.963,1.801,3.303
		c0.439,1.34,0.66,2.947,0.66,4.83v1.02c0,2.021-0.211,3.719-0.631,5.1s-1.012,2.5-1.771,3.359c-0.762,0.84-1.67,1.451-2.729,1.83
		C144.271,105.109,143.121,105.301,141.861,105.301z"/>
	<circle fill="#EB001B" cx="92" cy="153" r="20"/>
	<path fill="none" stroke="#FFFFFF" stroke-width="3" stroke-linecap="round" d="M102,153H82"/>
</g>
</svg>
