<?xml version="1.0" encoding="utf-8"?>
<!-- Generator: Adobe Illustrator 24.0.2, SVG Export Plug-In . SVG Version: 6.00 Build 0)  -->
<svg version="1.1" id="Capa_1" xmlns="http://www.w3.org/2000/svg" xmlns:xlink="http://www.w3.org/1999/xlink" x="0px" y="0px"
	 viewBox="0 0 228 16" style="enable-background:new 0 0 228 16;" xml:space="preserve">
<style type="text/css">
	.st0{fill:#D69D66;}
	.st1{fill:none;}
	.st2{fill:#566865;}
	.st3{font-family:'NexaBold';}
	.st4{font-size:12px;}
</style>
<path class="st0" d="M150.9,1h4.4c0.6,0,1.2,0.1,1.7,0.3c0.5,0.2,0.9,0.5,1.3,0.8c0.4,0.3,0.6,0.7,0.8,1.2c0.2,0.5,0.3,0.9,0.3,1.5
	c0,0.7-0.2,1.3-0.5,1.9c-0.3,0.6-0.8,1-1.4,1.3l2.2,4h-2.4l-1.8-3.4H153V12h-2.1V1z M153,3v3.6h2.2c0.3,0,0.6,0,0.9-0.1
	c0.3-0.1,0.5-0.2,0.6-0.4s0.3-0.4,0.4-0.6c0.1-0.2,0.1-0.5,0.1-0.7c0-0.5-0.2-1-0.5-1.3S155.9,3,155.2,3H153z M164.5,12.2
	c-0.7,0-1.2-0.1-1.8-0.3c-0.5-0.2-1-0.5-1.4-0.9c-0.4-0.4-0.7-0.8-0.9-1.3s-0.3-1.1-0.3-1.6s0.1-1.1,0.3-1.7c0.2-0.5,0.5-1,0.9-1.3
	c0.4-0.4,0.8-0.7,1.3-0.9c0.5-0.2,1.1-0.3,1.7-0.3c0.6,0,1.2,0.1,1.7,0.3c0.5,0.2,0.9,0.5,1.3,0.9c0.4,0.4,0.7,0.8,0.9,1.3
	s0.3,1.1,0.3,1.7v0.8h-6.4c0.1,0.5,0.4,0.9,0.8,1.3c0.4,0.3,0.9,0.4,1.5,0.4c0.5,0,0.9-0.1,1.2-0.3c0.3-0.2,0.6-0.5,0.8-0.8l1.7,1
	c-0.4,0.6-0.9,1-1.5,1.4S165.4,12.2,164.5,12.2z M164.4,5.5c-0.5,0-1,0.1-1.4,0.4c-0.4,0.3-0.7,0.7-0.8,1.1h4.3
	c-0.1-0.5-0.4-0.9-0.8-1.2C165.4,5.6,165,5.5,164.4,5.5z M173.6,12.1c-0.5,0-1-0.1-1.5-0.3c-0.5-0.2-0.9-0.5-1.2-0.8
	c-0.4-0.4-0.6-0.8-0.9-1.3c-0.2-0.5-0.3-1.1-0.3-1.7s0.1-1.2,0.3-1.7c0.2-0.5,0.5-1,0.9-1.3c0.4-0.4,0.8-0.7,1.2-0.8
	c0.5-0.2,1-0.3,1.5-0.3c0.5,0,1,0.1,1.5,0.3c0.4,0.2,0.8,0.5,1.1,0.9V3.9h2.1v7.5c0,0.6-0.1,1.1-0.3,1.6c-0.2,0.5-0.5,0.9-0.9,1.3
	c-0.4,0.4-0.8,0.6-1.3,0.8c-0.5,0.2-1.1,0.3-1.7,0.3c-0.9,0-1.7-0.1-2.3-0.4c-0.6-0.3-1.2-0.7-1.6-1.2l1.7-1.3
	c0.3,0.4,0.6,0.6,0.9,0.8c0.3,0.2,0.8,0.3,1.3,0.3c0.3,0,0.6-0.1,0.9-0.2c0.3-0.1,0.5-0.2,0.7-0.4c0.2-0.2,0.4-0.4,0.5-0.7
	c0.1-0.3,0.2-0.6,0.2-0.9v-0.6c-0.3,0.4-0.7,0.7-1.1,0.9C174.6,12,174.1,12.1,173.6,12.1z M174,10.2c0.3,0,0.6-0.1,0.9-0.2
	c0.3-0.1,0.5-0.3,0.7-0.5c0.2-0.2,0.4-0.4,0.5-0.7c0.1-0.3,0.2-0.6,0.2-0.9c0-0.3-0.1-0.6-0.2-0.9c-0.1-0.3-0.3-0.5-0.5-0.7
	c-0.2-0.2-0.4-0.4-0.7-0.5c-0.3-0.1-0.6-0.2-0.9-0.2c-0.3,0-0.6,0.1-0.9,0.2c-0.3,0.1-0.5,0.3-0.7,0.5c-0.2,0.2-0.4,0.4-0.5,0.7
	c-0.1,0.3-0.2,0.6-0.2,0.9c0,0.3,0.1,0.6,0.2,0.9c0.1,0.3,0.3,0.5,0.5,0.7c0.2,0.2,0.4,0.4,0.7,0.5C173.4,10.1,173.7,10.2,174,10.2z
	 M179.9,3.9h2.1V12h-2.1V3.9z M181.8,0.3h2.1l-2.3,2.6h-1.6L181.8,0.3z M186.8,12.2c-1,0-1.8-0.2-2.4-0.5c-0.6-0.3-1.1-0.8-1.4-1.5
	l2-0.8c0.4,0.7,1,1.1,1.9,1.1c0.4,0,0.7-0.1,1-0.3c0.2-0.2,0.3-0.4,0.3-0.6c0-0.1-0.1-0.3-0.2-0.4c-0.1-0.1-0.2-0.2-0.4-0.2
	c-0.2-0.1-0.4-0.1-0.6-0.2c-0.2-0.1-0.5-0.1-0.7-0.2c-0.3-0.1-0.7-0.2-1-0.3c-0.3-0.1-0.7-0.2-0.9-0.4c-0.3-0.2-0.5-0.4-0.7-0.7
	c-0.2-0.3-0.3-0.6-0.3-1.1c0-0.3,0.1-0.7,0.2-1c0.2-0.3,0.4-0.6,0.7-0.8c0.3-0.2,0.6-0.4,1-0.5c0.4-0.1,0.9-0.2,1.4-0.2
	c0.9,0,1.6,0.2,2.1,0.5c0.5,0.3,1,0.7,1.4,1.3l-1.9,0.8c-0.2-0.3-0.4-0.5-0.6-0.6c-0.3-0.2-0.6-0.2-0.9-0.2c-0.4,0-0.7,0.1-0.9,0.2
	c-0.2,0.1-0.3,0.3-0.3,0.6c0,0.3,0.2,0.4,0.5,0.6c0.3,0.1,0.8,0.2,1.4,0.3c0.3,0.1,0.7,0.2,1,0.3c0.4,0.1,0.7,0.2,0.9,0.4
	c0.3,0.2,0.5,0.4,0.7,0.7c0.2,0.3,0.3,0.6,0.3,1.1c0,0.3-0.1,0.6-0.2,1c-0.1,0.3-0.4,0.6-0.6,0.9c-0.3,0.3-0.7,0.5-1.1,0.6
	C187.9,12.1,187.4,12.2,186.8,12.2z M190.9,3.9h1.5V2.1l2-1.2v3h2.1v1.8h-2.1v3.3c0,0.4,0.1,0.7,0.2,0.9c0.2,0.2,0.4,0.3,0.6,0.3
	c0.3,0,0.5-0.1,0.8-0.3l0.9,1.6c-0.3,0.2-0.6,0.4-0.9,0.5c-0.3,0.1-0.7,0.1-1.1,0.1c-0.8,0-1.5-0.2-2-0.7c-0.5-0.5-0.7-1.2-0.7-2.3
	V5.7h-1.5V3.9z M197.9,3.9h2v1.2c0.2-0.5,0.5-0.8,0.9-1.1c0.4-0.2,0.8-0.3,1.4-0.3c0.3,0,0.5,0,0.8,0.1c0.2,0.1,0.4,0.1,0.6,0.2
	l-0.8,2c-0.1-0.1-0.3-0.1-0.5-0.2c-0.2-0.1-0.4-0.1-0.6-0.1c-0.5,0-1,0.1-1.3,0.4C200.2,6.6,200,7,200,7.7V12h-2.1V3.9z M206.7,12.2
	c-0.9,0-1.6-0.2-2.1-0.7c-0.5-0.4-0.7-1-0.7-1.8c0-0.9,0.3-1.5,1-2c0.6-0.5,1.5-0.7,2.7-0.7h2.1V6.9c0-0.4-0.1-0.8-0.4-1.1
	c-0.3-0.3-0.7-0.4-1.3-0.4c-0.5,0-0.8,0.1-1.2,0.3c-0.3,0.2-0.6,0.4-0.8,0.8l-1.9-0.9c0.4-0.5,0.9-1,1.5-1.3
	c0.6-0.4,1.4-0.5,2.3-0.5c1.2,0,2.1,0.3,2.8,0.9c0.7,0.6,1,1.4,1,2.4v5h-2v-1.2c-0.3,0.4-0.7,0.8-1.2,1
	C207.9,12,207.3,12.2,206.7,12.2z M207.3,10.5c0.3,0,0.5,0,0.7-0.1c0.2-0.1,0.5-0.2,0.7-0.3c0.2-0.1,0.4-0.3,0.6-0.5
	c0.2-0.2,0.3-0.4,0.4-0.6V8.6h-1.9c-0.6,0-1.1,0.1-1.3,0.3C206.2,9,206,9.3,206,9.6C206,10.2,206.5,10.5,207.3,10.5z M212.5,3.9h1.5
	V2.1l2-1.2v3h2.1v1.8h-2.1v3.3c0,0.4,0.1,0.7,0.2,0.9c0.2,0.2,0.4,0.3,0.6,0.3c0.3,0,0.5-0.1,0.8-0.3l0.9,1.6
	c-0.3,0.2-0.6,0.4-0.9,0.5c-0.3,0.1-0.7,0.1-1.1,0.1c-0.8,0-1.5-0.2-2-0.7c-0.5-0.5-0.7-1.2-0.7-2.3V5.7h-1.5V3.9z M223.2,12.2
	c-0.6,0-1.2-0.1-1.8-0.3c-0.5-0.2-1-0.5-1.4-0.9c-0.4-0.4-0.7-0.8-0.9-1.3c-0.2-0.5-0.3-1.1-0.3-1.6s0.1-1.1,0.3-1.7
	c0.2-0.5,0.5-1,0.9-1.3c0.4-0.4,0.8-0.7,1.3-0.9c0.5-0.2,1.1-0.3,1.7-0.3c0.6,0,1.2,0.1,1.7,0.3c0.5,0.2,1,0.5,1.3,0.9
	c0.4,0.4,0.7,0.8,0.9,1.3c0.2,0.5,0.3,1.1,0.3,1.7v0.8h-6.4c0.1,0.5,0.4,0.9,0.8,1.3c0.4,0.3,0.9,0.4,1.5,0.4c0.5,0,0.9-0.1,1.2-0.3
	c0.3-0.2,0.6-0.5,0.8-0.8l1.7,1c-0.4,0.6-0.9,1-1.5,1.4S224.1,12.2,223.2,12.2z M223.2,5.5c-0.5,0-1,0.1-1.4,0.4
	c-0.4,0.3-0.7,0.7-0.8,1.1h4.3c-0.1-0.5-0.4-0.9-0.8-1.2C224.2,5.6,223.7,5.5,223.2,5.5z"/>
<rect x="32.2" y="2.6" class="st1" width="151.7" height="14.2"/>
<text transform="matrix(1 0 0 1 32.2422 11.0151)" class="st2 st3 st4">¿ Usuario nuevo ?</text>
</svg>
