<svg width="228" height="16" viewBox="0 0 228 16" fill="none" xmlns="http://www.w3.org/2000/svg">
<path d="M4.24143 15.6C3.75143 15.6 3.30143 15.53 2.89143 15.39C2.48143 15.25 2.12643 15.05 1.82643 14.79C1.52643 14.53 1.29143 14.215 1.12143 13.845C0.961426 13.485 0.881426 13.085 0.881426 12.645C0.881426 12.175 0.951426 11.785 1.09143 11.475C1.23143 11.165 1.40643 10.905 1.61643 10.695C1.82643 10.475 2.05643 10.285 2.30643 10.125C2.55643 9.955 2.78643 9.775 2.99643 9.585C3.20643 9.385 3.38143 9.155 3.52143 8.895C3.66143 8.625 3.73143 8.28 3.73143 7.86V7.71H5.18643V7.86C5.18643 8.42 5.12143 8.885 4.99143 9.255C4.86143 9.625 4.69643 9.935 4.49643 10.185C4.29643 10.435 4.08143 10.645 3.85143 10.815C3.63143 10.985 3.42143 11.155 3.22143 11.325C3.02143 11.485 2.85643 11.67 2.72643 11.88C2.59643 12.08 2.53143 12.34 2.53143 12.66C2.53143 13.11 2.69143 13.475 3.01143 13.755C3.34143 14.045 3.76143 14.19 4.27143 14.19C4.76143 14.19 5.15143 14.06 5.44143 13.8C5.74143 13.55 5.97143 13.235 6.13143 12.855L7.61643 13.41C7.38643 14.04 6.98643 14.56 6.41643 14.97C5.85643 15.39 5.13143 15.6 4.24143 15.6ZM4.45143 6.555C4.11143 6.555 3.83643 6.445 3.62643 6.225C3.41643 6.005 3.31143 5.73 3.31143 5.4C3.31143 5.07 3.41643 4.795 3.62643 4.575C3.84643 4.355 4.12143 4.245 4.45143 4.245C4.79143 4.245 5.06643 4.355 5.27643 4.575C5.49643 4.795 5.60643 5.07 5.60643 5.4C5.60643 5.73 5.49643 6.005 5.27643 6.225C5.06643 6.445 4.79143 6.555 4.45143 6.555ZM9.45814 1.05H11.2431L16.7331 9.36V1.05H18.3231V12H16.6581L11.0631 3.54V12H9.45814V1.05ZM23.5359 12.165C22.4559 12.165 21.6259 11.85 21.0459 11.22C20.4759 10.58 20.1909 9.7 20.1909 8.58V3.9H21.8409V8.475C21.8409 9.165 22.0109 9.715 22.3509 10.125C22.6909 10.525 23.2059 10.725 23.8959 10.725C24.1959 10.725 24.4759 10.67 24.7359 10.56C25.0059 10.45 25.2359 10.295 25.4259 10.095C25.6159 9.885 25.7659 9.635 25.8759 9.345C25.9859 9.055 26.0409 8.73 26.0409 8.37V3.9H27.6609V12H26.0709V10.89C25.7909 11.28 25.4309 11.59 24.9909 11.82C24.5609 12.05 24.0759 12.165 23.5359 12.165ZM33.5273 12.165C32.8773 12.165 32.2873 12.06 31.7573 11.85C31.2373 11.63 30.7873 11.335 30.4073 10.965C30.0273 10.585 29.7323 10.14 29.5223 9.63C29.3223 9.12 29.2223 8.57 29.2223 7.98C29.2223 7.38 29.3273 6.825 29.5373 6.315C29.7573 5.795 30.0573 5.345 30.4373 4.965C30.8173 4.585 31.2623 4.285 31.7723 4.065C32.2823 3.845 32.8373 3.735 33.4373 3.735C34.0373 3.735 34.5873 3.84 35.0873 4.05C35.5973 4.25 36.0373 4.535 36.4073 4.905C36.7773 5.275 37.0673 5.715 37.2773 6.225C37.4873 6.725 37.5923 7.275 37.5923 7.875V8.55H30.7823C30.9023 9.21 31.2023 9.74 31.6823 10.14C32.1623 10.53 32.7773 10.725 33.5273 10.725C34.0973 10.725 34.5723 10.605 34.9523 10.365C35.3423 10.125 35.6573 9.81 35.8973 9.42L37.2323 10.215C36.8423 10.805 36.3473 11.28 35.7473 11.64C35.1473 11.99 34.4073 12.165 33.5273 12.165ZM33.4373 5.16C32.7873 5.16 32.2323 5.35 31.7723 5.73C31.3123 6.1 31.0023 6.58 30.8423 7.17H35.9573C35.8373 6.53 35.5523 6.035 35.1023 5.685C34.6623 5.335 34.1073 5.16 33.4373 5.16ZM38.1058 3.9H39.8158L42.1408 9.99L44.5558 3.9H46.2358L42.8758 12H41.2858L38.1058 3.9ZM50.9275 12.165C50.3375 12.165 49.7875 12.055 49.2775 11.835C48.7675 11.615 48.3225 11.315 47.9425 10.935C47.5625 10.555 47.2625 10.11 47.0425 9.6C46.8225 9.09 46.7125 8.54 46.7125 7.95C46.7125 7.37 46.8225 6.825 47.0425 6.315C47.2625 5.795 47.5625 5.345 47.9425 4.965C48.3225 4.585 48.7675 4.285 49.2775 4.065C49.7875 3.845 50.3375 3.735 50.9275 3.735C51.5075 3.735 52.0525 3.845 52.5625 4.065C53.0825 4.285 53.5325 4.585 53.9125 4.965C54.2925 5.345 54.5925 5.795 54.8125 6.315C55.0325 6.825 55.1425 7.37 55.1425 7.95C55.1425 8.54 55.0325 9.09 54.8125 9.6C54.5925 10.11 54.2925 10.555 53.9125 10.935C53.5325 11.315 53.0825 11.615 52.5625 11.835C52.0525 12.055 51.5075 12.165 50.9275 12.165ZM50.9275 10.65C51.2975 10.65 51.6375 10.58 51.9475 10.44C52.2675 10.3 52.5425 10.11 52.7725 9.87C53.0125 9.62 53.1975 9.335 53.3275 9.015C53.4675 8.685 53.5375 8.33 53.5375 7.95C53.5375 7.58 53.4675 7.23 53.3275 6.9C53.1975 6.57 53.0125 6.285 52.7725 6.045C52.5425 5.795 52.2675 5.6 51.9475 5.46C51.6275 5.32 51.2875 5.25 50.9275 5.25C50.5575 5.25 50.2125 5.32 49.8925 5.46C49.5825 5.6 49.3075 5.795 49.0675 6.045C48.8375 6.285 48.6575 6.57 48.5275 6.9C48.3975 7.23 48.3325 7.58 48.3325 7.95C48.3325 8.33 48.3975 8.685 48.5275 9.015C48.6575 9.335 48.8375 9.62 49.0675 9.87C49.3075 10.11 49.5825 10.3 49.8925 10.44C50.2125 10.58 50.5575 10.65 50.9275 10.65ZM64.3183 12.165C63.6683 12.165 63.0783 12.06 62.5483 11.85C62.0283 11.63 61.5783 11.335 61.1983 10.965C60.8183 10.585 60.5233 10.14 60.3133 9.63C60.1133 9.12 60.0133 8.57 60.0133 7.98C60.0133 7.38 60.1183 6.825 60.3283 6.315C60.5483 5.795 60.8483 5.345 61.2283 4.965C61.6083 4.585 62.0533 4.285 62.5633 4.065C63.0733 3.845 63.6283 3.735 64.2283 3.735C64.8283 3.735 65.3783 3.84 65.8783 4.05C66.3883 4.25 66.8283 4.535 67.1983 4.905C67.5683 5.275 67.8583 5.715 68.0683 6.225C68.2783 6.725 68.3833 7.275 68.3833 7.875V8.55H61.5733C61.6933 9.21 61.9933 9.74 62.4733 10.14C62.9533 10.53 63.5683 10.725 64.3183 10.725C64.8883 10.725 65.3633 10.605 65.7433 10.365C66.1333 10.125 66.4483 9.81 66.6883 9.42L68.0233 10.215C67.6333 10.805 67.1383 11.28 66.5383 11.64C65.9383 11.99 65.1983 12.165 64.3183 12.165ZM64.2283 5.16C63.5783 5.16 63.0233 5.35 62.5633 5.73C62.1033 6.1 61.7933 6.58 61.6333 7.17H66.7483C66.6283 6.53 66.3433 6.035 65.8933 5.685C65.4533 5.335 64.8983 5.16 64.2283 5.16ZM69.952 3.9H71.542V5.025C71.822 4.635 72.177 4.325 72.607 4.095C73.047 3.855 73.552 3.735 74.122 3.735C74.632 3.735 75.092 3.82 75.502 3.99C75.922 4.15 76.272 4.385 76.552 4.695C76.842 4.995 77.062 5.37 77.212 5.82C77.372 6.26 77.452 6.755 77.452 7.305V12H75.817V7.425C75.817 6.735 75.642 6.185 75.292 5.775C74.942 5.365 74.427 5.16 73.747 5.16C73.437 5.16 73.147 5.215 72.877 5.325C72.617 5.435 72.387 5.595 72.187 5.805C71.997 6.005 71.847 6.255 71.737 6.555C71.627 6.845 71.572 7.17 71.572 7.53V12H69.952V3.9ZM88.3615 12.15C87.5815 12.15 86.8515 12.005 86.1715 11.715C85.4915 11.415 84.8965 11.01 84.3865 10.5C83.8865 9.99 83.4865 9.395 83.1865 8.715C82.8965 8.035 82.7515 7.305 82.7515 6.525C82.7515 5.745 82.8965 5.015 83.1865 4.335C83.4865 3.655 83.8865 3.06 84.3865 2.55C84.8965 2.04 85.4915 1.64 86.1715 1.35C86.8515 1.05 87.5815 0.9 88.3615 0.9C89.1415 0.9 89.8715 1.05 90.5515 1.35C91.2415 1.64 91.8365 2.04 92.3365 2.55C92.8465 3.06 93.2465 3.655 93.5365 4.335C93.8365 5.015 93.9865 5.745 93.9865 6.525C93.9865 7.305 93.8365 8.035 93.5365 8.715C93.2465 9.395 92.8465 9.99 92.3365 10.5C91.8365 11.01 91.2415 11.415 90.5515 11.715C89.8715 12.005 89.1415 12.15 88.3615 12.15ZM88.3615 10.56C88.9215 10.56 89.4415 10.455 89.9215 10.245C90.4115 10.035 90.8365 9.745 91.1965 9.375C91.5565 9.005 91.8365 8.58 92.0365 8.1C92.2465 7.61 92.3515 7.085 92.3515 6.525C92.3515 5.975 92.2465 5.455 92.0365 4.965C91.8365 4.465 91.5565 4.035 91.1965 3.675C90.8365 3.305 90.4115 3.015 89.9215 2.805C89.4415 2.585 88.9215 2.475 88.3615 2.475C87.8015 2.475 87.2765 2.585 86.7865 2.805C86.3065 3.015 85.8865 3.305 85.5265 3.675C85.1765 4.035 84.8965 4.465 84.6865 4.965C84.4865 5.455 84.3865 5.975 84.3865 6.525C84.3865 7.085 84.4865 7.61 84.6865 8.1C84.8965 8.58 85.1765 9.005 85.5265 9.375C85.8865 9.745 86.3065 10.035 86.7865 10.245C87.2765 10.455 87.8015 10.56 88.3615 10.56ZM98.7786 8.325L97.3236 9.9V12H95.7186V0.179999H97.3236V8.04L101.104 3.9H103.084L99.9486 7.305L103.264 12H101.359L98.7786 8.325ZM107.546 12.165C106.896 12.165 106.306 12.06 105.776 11.85C105.256 11.63 104.806 11.335 104.426 10.965C104.046 10.585 103.751 10.14 103.541 9.63C103.341 9.12 103.241 8.57 103.241 7.98C103.241 7.38 103.346 6.825 103.556 6.315C103.776 5.795 104.076 5.345 104.456 4.965C104.836 4.585 105.281 4.285 105.791 4.065C106.301 3.845 106.856 3.735 107.456 3.735C108.056 3.735 108.606 3.84 109.106 4.05C109.616 4.25 110.056 4.535 110.426 4.905C110.796 5.275 111.086 5.715 111.296 6.225C111.506 6.725 111.611 7.275 111.611 7.875V8.55H104.801C104.921 9.21 105.221 9.74 105.701 10.14C106.181 10.53 106.796 10.725 107.546 10.725C108.116 10.725 108.591 10.605 108.971 10.365C109.361 10.125 109.676 9.81 109.916 9.42L111.251 10.215C110.861 10.805 110.366 11.28 109.766 11.64C109.166 11.99 108.426 12.165 107.546 12.165ZM107.456 5.16C106.806 5.16 106.251 5.35 105.791 5.73C105.331 6.1 105.021 6.58 104.861 7.17H109.976C109.856 6.53 109.571 6.035 109.121 5.685C108.681 5.335 108.126 5.16 107.456 5.16ZM113.475 15C113.095 15 112.72 14.94 112.35 14.82C111.99 14.71 111.68 14.555 111.42 14.355L112.38 12.99C112.52 13.13 112.675 13.24 112.845 13.32C113.025 13.41 113.23 13.455 113.46 13.455C113.67 13.455 113.855 13.43 114.015 13.38C114.185 13.33 114.34 13.245 114.48 13.125C114.62 13.015 114.75 12.865 114.87 12.675C115 12.485 115.13 12.245 115.26 11.955L115.41 11.61L112.08 3.9H113.82L116.25 9.705L118.575 3.9H120.3L116.685 12.405C116.485 12.885 116.275 13.29 116.055 13.62C115.845 13.95 115.61 14.215 115.35 14.415C115.1 14.625 114.82 14.775 114.51 14.865C114.21 14.955 113.865 15 113.475 15ZM122.264 15C121.884 15 121.509 14.94 121.139 14.82C120.779 14.71 120.469 14.555 120.209 14.355L121.169 12.99C121.309 13.13 121.464 13.24 121.634 13.32C121.814 13.41 122.019 13.455 122.249 13.455C122.459 13.455 122.644 13.43 122.804 13.38C122.974 13.33 123.129 13.245 123.269 13.125C123.409 13.015 123.539 12.865 123.659 12.675C123.789 12.485 123.919 12.245 124.049 11.955L124.199 11.61L120.869 3.9H122.609L125.039 9.705L127.364 3.9H129.089L125.474 12.405C125.274 12.885 125.064 13.29 124.844 13.62C124.634 13.95 124.399 14.215 124.139 14.415C123.889 14.625 123.609 14.775 123.299 14.865C122.999 14.955 122.654 15 122.264 15ZM131.054 15C130.674 15 130.299 14.94 129.929 14.82C129.569 14.71 129.259 14.555 128.999 14.355L129.959 12.99C130.099 13.13 130.254 13.24 130.424 13.32C130.604 13.41 130.809 13.455 131.039 13.455C131.249 13.455 131.434 13.43 131.594 13.38C131.764 13.33 131.919 13.245 132.059 13.125C132.199 13.015 132.329 12.865 132.449 12.675C132.579 12.485 132.709 12.245 132.839 11.955L132.989 11.61L129.659 3.9H131.399L133.829 9.705L136.154 3.9H137.879L134.264 12.405C134.064 12.885 133.854 13.29 133.634 13.62C133.424 13.95 133.189 14.215 132.929 14.415C132.679 14.625 132.399 14.775 132.089 14.865C131.789 14.955 131.444 15 131.054 15ZM141.328 8.64C141.328 8.08 141.393 7.615 141.523 7.245C141.653 6.875 141.818 6.565 142.018 6.315C142.218 6.065 142.428 5.855 142.648 5.685C142.878 5.515 143.093 5.35 143.293 5.19C143.493 5.02 143.658 4.835 143.788 4.635C143.918 4.425 143.983 4.16 143.983 3.84C143.983 3.39 143.818 3.025 143.488 2.745C143.168 2.455 142.753 2.31 142.243 2.31C141.753 2.31 141.358 2.44 141.058 2.7C140.768 2.95 140.543 3.265 140.383 3.645L138.898 3.09C139.128 2.46 139.523 1.94 140.083 1.53C140.653 1.11 141.383 0.9 142.273 0.9C142.763 0.9 143.213 0.97 143.623 1.11C144.033 1.25 144.388 1.45 144.688 1.71C144.988 1.97 145.218 2.285 145.378 2.655C145.548 3.015 145.633 3.415 145.633 3.855C145.633 4.325 145.563 4.715 145.423 5.025C145.283 5.335 145.108 5.6 144.898 5.82C144.688 6.03 144.458 6.22 144.208 6.39C143.958 6.55 143.728 6.73 143.518 6.93C143.308 7.12 143.133 7.35 142.993 7.62C142.853 7.89 142.783 8.23 142.783 8.64V8.79H141.328V8.64ZM142.063 12.255C141.723 12.255 141.443 12.145 141.223 11.925C141.013 11.705 140.908 11.43 140.908 11.1C140.908 10.77 141.013 10.495 141.223 10.275C141.443 10.055 141.723 9.945 142.063 9.945C142.403 9.945 142.678 10.055 142.888 10.275C143.098 10.495 143.203 10.77 143.203 11.1C143.203 11.43 143.093 11.705 142.873 11.925C142.663 12.145 142.393 12.255 142.063 12.255Z" fill="#566865"/>
<path d="M150.9 1.05H155.34C155.97 1.05 156.53 1.145 157.02 1.335C157.52 1.525 157.94 1.79 158.28 2.13C158.63 2.46 158.895 2.85 159.075 3.3C159.265 3.75 159.36 4.235 159.36 4.755C159.36 5.445 159.19 6.08 158.85 6.66C158.52 7.24 158.05 7.685 157.44 7.995L159.6 12H157.23L155.475 8.55H153.015V12H150.9V1.05ZM153.015 3V6.615H155.175C155.525 6.615 155.825 6.565 156.075 6.465C156.335 6.365 156.55 6.23 156.72 6.06C156.89 5.89 157.015 5.695 157.095 5.475C157.175 5.245 157.215 5.01 157.215 4.77C157.215 4.23 157.045 3.8 156.705 3.48C156.365 3.16 155.855 3 155.175 3H153.015ZM164.468 12.165C163.818 12.165 163.228 12.06 162.698 11.85C162.168 11.63 161.713 11.33 161.333 10.95C160.963 10.57 160.678 10.125 160.478 9.615C160.278 9.105 160.178 8.555 160.178 7.965C160.178 7.375 160.283 6.825 160.493 6.315C160.713 5.795 161.013 5.345 161.393 4.965C161.773 4.585 162.223 4.285 162.743 4.065C163.263 3.845 163.823 3.735 164.423 3.735C165.033 3.735 165.593 3.84 166.103 4.05C166.613 4.26 167.053 4.55 167.423 4.92C167.793 5.28 168.083 5.715 168.293 6.225C168.503 6.735 168.608 7.29 168.608 7.89V8.67H162.173C162.313 9.2 162.583 9.62 162.983 9.93C163.393 10.23 163.898 10.38 164.498 10.38C164.978 10.38 165.383 10.285 165.713 10.095C166.043 9.895 166.308 9.63 166.508 9.3L168.203 10.29C167.793 10.86 167.293 11.315 166.703 11.655C166.113 11.995 165.368 12.165 164.468 12.165ZM164.423 5.49C163.893 5.49 163.438 5.63 163.058 5.91C162.678 6.19 162.403 6.57 162.233 7.05H166.553C166.413 6.54 166.158 6.155 165.788 5.895C165.418 5.625 164.963 5.49 164.423 5.49ZM173.614 12.12C173.114 12.12 172.629 12.025 172.159 11.835C171.689 11.635 171.274 11.355 170.914 10.995C170.554 10.625 170.264 10.185 170.044 9.675C169.824 9.155 169.714 8.575 169.714 7.935C169.714 7.295 169.819 6.715 170.029 6.195C170.249 5.675 170.539 5.235 170.899 4.875C171.259 4.505 171.674 4.225 172.144 4.035C172.624 3.835 173.124 3.735 173.644 3.735C174.184 3.735 174.669 3.845 175.099 4.065C175.539 4.285 175.894 4.585 176.164 4.965V3.9H178.234V11.4C178.234 11.99 178.129 12.53 177.919 13.02C177.709 13.52 177.414 13.95 177.034 14.31C176.664 14.67 176.219 14.95 175.699 15.15C175.179 15.36 174.609 15.465 173.989 15.465C173.059 15.465 172.279 15.33 171.649 15.06C171.019 14.8 170.474 14.4 170.014 13.86L171.724 12.525C171.994 12.875 172.294 13.145 172.624 13.335C172.954 13.525 173.389 13.62 173.929 13.62C174.259 13.62 174.559 13.565 174.829 13.455C175.099 13.355 175.334 13.21 175.534 13.02C175.734 12.83 175.889 12.6 175.999 12.33C176.109 12.07 176.164 11.78 176.164 11.46V10.845C175.874 11.245 175.509 11.56 175.069 11.79C174.629 12.01 174.144 12.12 173.614 12.12ZM174.019 10.2C174.339 10.2 174.634 10.14 174.904 10.02C175.184 9.9 175.424 9.74 175.624 9.54C175.824 9.33 175.979 9.09 176.089 8.82C176.209 8.54 176.269 8.24 176.269 7.92C176.269 7.6 176.209 7.305 176.089 7.035C175.979 6.755 175.824 6.515 175.624 6.315C175.424 6.105 175.184 5.94 174.904 5.82C174.634 5.7 174.339 5.64 174.019 5.64C173.709 5.64 173.414 5.7 173.134 5.82C172.864 5.93 172.629 6.09 172.429 6.3C172.229 6.5 172.069 6.74 171.949 7.02C171.829 7.3 171.769 7.6 171.769 7.92C171.769 8.24 171.829 8.54 171.949 8.82C172.069 9.09 172.229 9.33 172.429 9.54C172.629 9.74 172.864 9.9 173.134 10.02C173.414 10.14 173.709 10.2 174.019 10.2ZM179.856 3.9H181.971V12H179.856V3.9ZM181.836 0.345H183.951L181.686 2.91H180.126L181.836 0.345ZM186.817 12.165C185.847 12.165 185.052 11.995 184.432 11.655C183.822 11.305 183.357 10.805 183.037 10.155L185.032 9.375C185.392 10.105 186.012 10.47 186.892 10.47C187.312 10.47 187.632 10.385 187.852 10.215C188.072 10.035 188.182 9.825 188.182 9.585C188.182 9.435 188.132 9.315 188.032 9.225C187.932 9.125 187.792 9.045 187.612 8.985C187.442 8.915 187.242 8.855 187.012 8.805C186.782 8.755 186.537 8.705 186.277 8.655C185.937 8.585 185.592 8.5 185.242 8.4C184.902 8.3 184.592 8.16 184.312 7.98C184.042 7.8 183.822 7.575 183.652 7.305C183.482 7.025 183.397 6.67 183.397 6.24C183.397 5.9 183.477 5.575 183.637 5.265C183.797 4.955 184.022 4.685 184.312 4.455C184.602 4.225 184.947 4.045 185.347 3.915C185.757 3.775 186.212 3.705 186.712 3.705C187.572 3.705 188.272 3.86 188.812 4.17C189.352 4.47 189.812 4.89 190.192 5.43L188.302 6.195C188.132 5.925 187.917 5.715 187.657 5.565C187.407 5.415 187.092 5.34 186.712 5.34C186.302 5.34 185.997 5.415 185.797 5.565C185.607 5.705 185.512 5.89 185.512 6.12C185.512 6.38 185.672 6.565 185.992 6.675C186.312 6.775 186.767 6.89 187.357 7.02C187.697 7.09 188.037 7.175 188.377 7.275C188.727 7.375 189.042 7.52 189.322 7.71C189.612 7.89 189.847 8.125 190.027 8.415C190.207 8.705 190.297 9.065 190.297 9.495C190.297 9.815 190.227 10.135 190.087 10.455C189.947 10.765 189.732 11.05 189.442 11.31C189.152 11.56 188.787 11.765 188.347 11.925C187.917 12.085 187.407 12.165 186.817 12.165ZM190.905 3.9H192.405V2.145L194.445 0.944999V3.9H196.575V5.73H194.445V9.06C194.445 9.49 194.525 9.79 194.685 9.96C194.855 10.13 195.07 10.215 195.33 10.215C195.6 10.215 195.85 10.115 196.08 9.915L197.025 11.535C196.765 11.735 196.47 11.89 196.14 12C195.82 12.1 195.47 12.15 195.09 12.15C194.24 12.15 193.58 11.925 193.11 11.475C192.64 11.015 192.405 10.235 192.405 9.135V5.73H190.905V3.9ZM197.947 3.9H199.987V5.145C200.187 4.665 200.477 4.315 200.857 4.095C201.247 3.865 201.702 3.75 202.222 3.75C202.492 3.75 202.742 3.78 202.972 3.84C203.212 3.9 203.417 3.975 203.587 4.065L202.837 6.105C202.727 6.025 202.577 5.96 202.387 5.91C202.197 5.85 201.987 5.82 201.757 5.82C201.227 5.82 200.802 5.97 200.482 6.27C200.162 6.56 200.002 7.045 200.002 7.725V12H197.947V3.9ZM206.708 12.165C205.818 12.165 205.123 11.945 204.623 11.505C204.133 11.055 203.888 10.47 203.888 9.75C203.888 8.9 204.213 8.235 204.863 7.755C205.513 7.275 206.403 7.035 207.533 7.035H209.663V6.93C209.663 6.49 209.518 6.135 209.228 5.865C208.938 5.595 208.498 5.46 207.908 5.46C207.448 5.46 207.063 5.555 206.753 5.745C206.443 5.925 206.193 6.185 206.003 6.525L204.098 5.58C204.508 5.04 205.018 4.6 205.628 4.26C206.248 3.91 207.013 3.735 207.923 3.735C209.123 3.735 210.048 4.025 210.698 4.605C211.348 5.185 211.673 5.99 211.673 7.02V12H209.678V10.755C209.388 11.175 208.978 11.515 208.448 11.775C207.928 12.035 207.348 12.165 206.708 12.165ZM207.308 10.455C207.558 10.455 207.803 10.42 208.043 10.35C208.283 10.28 208.508 10.18 208.718 10.05C208.928 9.92 209.113 9.765 209.273 9.585C209.443 9.405 209.578 9.205 209.678 8.985V8.55H207.773C207.153 8.55 206.708 8.64 206.438 8.82C206.178 9 206.048 9.25 206.048 9.57C206.048 10.16 206.468 10.455 207.308 10.455ZM212.541 3.9H214.041V2.145L216.081 0.944999V3.9H218.211V5.73H216.081V9.06C216.081 9.49 216.161 9.79 216.321 9.96C216.491 10.13 216.706 10.215 216.966 10.215C217.236 10.215 217.486 10.115 217.716 9.915L218.661 11.535C218.401 11.735 218.106 11.89 217.776 12C217.456 12.1 217.106 12.15 216.726 12.15C215.876 12.15 215.216 11.925 214.746 11.475C214.276 11.015 214.041 10.235 214.041 9.135V5.73H212.541V3.9ZM223.222 12.165C222.572 12.165 221.982 12.06 221.452 11.85C220.922 11.63 220.467 11.33 220.087 10.95C219.717 10.57 219.432 10.125 219.232 9.615C219.032 9.105 218.932 8.555 218.932 7.965C218.932 7.375 219.037 6.825 219.247 6.315C219.467 5.795 219.767 5.345 220.147 4.965C220.527 4.585 220.977 4.285 221.497 4.065C222.017 3.845 222.577 3.735 223.177 3.735C223.787 3.735 224.347 3.84 224.857 4.05C225.367 4.26 225.807 4.55 226.177 4.92C226.547 5.28 226.837 5.715 227.047 6.225C227.257 6.735 227.362 7.29 227.362 7.89V8.67H220.927C221.067 9.2 221.337 9.62 221.737 9.93C222.147 10.23 222.652 10.38 223.252 10.38C223.732 10.38 224.137 10.285 224.467 10.095C224.797 9.895 225.062 9.63 225.262 9.3L226.957 10.29C226.547 10.86 226.047 11.315 225.457 11.655C224.867 11.995 224.122 12.165 223.222 12.165ZM223.177 5.49C222.647 5.49 222.192 5.63 221.812 5.91C221.432 6.19 221.157 6.57 220.987 7.05H225.307C225.167 6.54 224.912 6.155 224.542 5.895C224.172 5.625 223.717 5.49 223.177 5.49Z" fill="#00A3FF"/>
</svg>
