<?xml version="1.0" encoding="utf-8"?>
<!-- Generator: Adobe Illustrator 16.0.3, SVG Export Plug-In . SVG Version: 6.00 Build 0)  -->
<!DOCTYPE svg PUBLIC "-//W3C//DTD SVG 1.1//EN" "http://www.w3.org/Graphics/SVG/1.1/DTD/svg11.dtd">
<svg version="1.1" id="Capa_1" xmlns="http://www.w3.org/2000/svg" xmlns:xlink="http://www.w3.org/1999/xlink" x="0px" y="0px"
	 width="340px" height="80px" viewBox="0 0 340 80" enable-background="new 0 0 340 80" xml:space="preserve">
<g>
	<path fill="#FFFFFF" d="M1,6.5c0-3.314,2.687-6,6-6h299c3.314,0,6,2.686,6,6v67c0,3.313-2.686,6-6,6H7c-3.313,0-6-2.688-6-6V6.5z"
		/>
	<path fill="#C4C4C4" d="M245,56.5h4.668c0.551,0,1-0.447,1-1v-5.075c0-1.657,1.342-3,3-3h0.666c1.656,0,3,1.343,3,3V55.5
		c0,0.553,0.447,1,1,1H263c0.553,0,1-0.447,1-1V43.896c0-0.588-0.258-1.146-0.707-1.526l-8-6.774c-0.746-0.633-1.84-0.633-2.586,0
		l-8,6.774C244.26,42.75,244,43.309,244,43.896V55.5C244,56.053,244.449,56.5,245,56.5z"/>
	<circle fill="#FFFFFF" cx="310.5" cy="41" r="28.5"/>
	<circle fill="#FFB636" cx="310.5" cy="41" r="25.5"/>
	<path fill="#FFFFFF" d="M300,41.406l22.5-10.656l-10.658,22.5l-2.367-9.475L300,41.406z"/>
	<path fill="none" stroke="#3d6d79" stroke-width="3" stroke-linecap="round" d="M55.5,46.5H105"/>
	<path fill="none" stroke="#C4C4C4" stroke-width="3" stroke-linecap="round" d="M173,46.5h49.5"/>
	<path fill="none" stroke="#3d6d79" stroke-width="3" stroke-linecap="round" d="M173,46.5h29"/>
	<path fill="#566865" d="M11.84,13.01h3.068c0.754,0,1.435,0.121,2.041,0.363c0.615,0.242,1.135,0.576,1.56,1.002
		c0.434,0.425,0.767,0.928,1.001,1.508c0.234,0.571,0.351,1.195,0.351,1.872s-0.125,1.304-0.377,1.886
		c-0.243,0.58-0.585,1.082-1.027,1.508c-0.433,0.416-0.949,0.744-1.547,0.988c-0.598,0.242-1.252,0.363-1.963,0.363H11.84V13.01z
		 M13.686,14.713v6.07h1.144c0.477,0,0.91-0.078,1.3-0.233c0.398-0.155,0.732-0.368,1.001-0.638c0.277-0.275,0.49-0.598,0.637-0.962
		c0.156-0.373,0.234-0.771,0.234-1.195c0-0.435-0.074-0.836-0.221-1.209c-0.139-0.373-0.347-0.692-0.624-0.962
		c-0.269-0.277-0.602-0.49-1.001-0.639c-0.398-0.154-0.858-0.232-1.378-0.232H13.686z M21.155,15.48h1.833v7.021h-1.833V15.48z
		 M20.921,13.504c0-0.338,0.108-0.615,0.325-0.832c0.217-0.227,0.49-0.338,0.819-0.338c0.347,0,0.624,0.111,0.832,0.338
		c0.217,0.217,0.325,0.494,0.325,0.832c0,0.328-0.108,0.602-0.325,0.818c-0.208,0.217-0.485,0.324-0.832,0.324
		c-0.338,0-0.615-0.107-0.832-0.324C21.025,14.105,20.921,13.832,20.921,13.504z M27.187,22.643c-0.841,0-1.53-0.146-2.067-0.441
		c-0.529-0.303-0.932-0.736-1.209-1.301l1.729-0.676c0.313,0.633,0.85,0.949,1.612,0.949c0.364,0,0.641-0.074,0.832-0.222
		c0.19-0.155,0.286-0.339,0.286-0.546c0-0.131-0.043-0.233-0.13-0.313c-0.086-0.087-0.208-0.156-0.364-0.207
		c-0.147-0.063-0.321-0.113-0.52-0.156c-0.199-0.043-0.412-0.088-0.637-0.131c-0.294-0.062-0.593-0.134-0.897-0.221
		c-0.294-0.087-0.563-0.208-0.806-0.363c-0.234-0.156-0.425-0.353-0.572-0.586c-0.147-0.242-0.221-0.55-0.221-0.923
		c0-0.295,0.07-0.575,0.208-0.846c0.139-0.269,0.334-0.503,0.585-0.701s0.55-0.354,0.897-0.469c0.355-0.121,0.75-0.183,1.183-0.183
		c0.746,0,1.352,0.135,1.82,0.403c0.468,0.261,0.867,0.624,1.196,1.093l-1.638,0.662c-0.147-0.234-0.334-0.416-0.559-0.546
		c-0.217-0.13-0.49-0.194-0.819-0.194c-0.355,0-0.62,0.064-0.793,0.194c-0.165,0.121-0.247,0.281-0.247,0.479
		c0,0.227,0.139,0.387,0.416,0.481c0.278,0.087,0.672,0.187,1.183,0.3c0.295,0.061,0.589,0.133,0.884,0.221
		c0.303,0.086,0.576,0.211,0.819,0.377c0.251,0.156,0.455,0.359,0.611,0.611c0.156,0.25,0.234,0.563,0.234,0.936
		c0,0.277-0.061,0.556-0.182,0.832c-0.122,0.27-0.308,0.517-0.559,0.74c-0.251,0.218-0.567,0.396-0.949,0.533
		C28.141,22.572,27.699,22.643,27.187,22.643z M30.731,15.48h1.3v-1.521l1.768-1.04v2.562h1.846v1.586h-1.846v2.886
		c0,0.373,0.069,0.634,0.208,0.78c0.147,0.146,0.334,0.221,0.559,0.221c0.234,0,0.451-0.088,0.65-0.26l0.819,1.404
		c-0.226,0.172-0.481,0.307-0.767,0.402c-0.277,0.087-0.581,0.13-0.91,0.13c-0.737,0-1.309-0.194-1.716-0.585
		c-0.408-0.398-0.611-1.074-0.611-2.027v-2.951h-1.3V15.48L30.731,15.48z M38.98,22.643c-0.771,0-1.374-0.19-1.807-0.572
		c-0.425-0.389-0.637-0.896-0.637-1.521c0-0.737,0.282-1.313,0.845-1.729s1.335-0.623,2.314-0.623h1.846v-0.092
		c0-0.381-0.125-0.688-0.377-0.922c-0.251-0.234-0.633-0.353-1.144-0.353c-0.398,0-0.732,0.082-1.001,0.247
		c-0.269,0.156-0.485,0.382-0.65,0.677l-1.651-0.819c0.355-0.468,0.797-0.849,1.326-1.145c0.538-0.303,1.201-0.454,1.989-0.454
		c1.04,0,1.841,0.251,2.405,0.754s0.845,1.2,0.845,2.093V22.5h-1.729v-1.079c-0.251,0.363-0.607,0.658-1.066,0.884
		C40.038,22.529,39.535,22.643,38.98,22.643z M39.5,21.16c0.217,0,0.429-0.029,0.637-0.092c0.208-0.061,0.403-0.146,0.585-0.26
		c0.182-0.113,0.342-0.246,0.481-0.402c0.147-0.156,0.264-0.329,0.351-0.52v-0.378h-1.651c-0.538,0-0.923,0.078-1.157,0.233
		c-0.226,0.156-0.338,0.373-0.338,0.65C38.408,20.904,38.772,21.16,39.5,21.16z M44.667,15.48h1.794v0.883
		c0.225-0.319,0.511-0.571,0.858-0.754c0.355-0.182,0.754-0.271,1.196-0.271c0.832,0,1.49,0.26,1.976,0.779
		c0.494,0.512,0.741,1.227,0.741,2.146v4.237h-1.833v-3.967c0-0.503-0.122-0.896-0.364-1.183c-0.234-0.295-0.589-0.442-1.066-0.442
		c-0.424,0-0.78,0.151-1.066,0.454c-0.286,0.296-0.429,0.716-0.429,1.262V22.5h-1.807V15.48z M56.085,22.643
		c-0.528,0-1.018-0.095-1.469-0.285c-0.451-0.19-0.841-0.451-1.17-0.78c-0.33-0.329-0.589-0.716-0.78-1.156
		c-0.182-0.442-0.273-0.92-0.273-1.431c0-0.52,0.091-1.002,0.273-1.442c0.191-0.442,0.451-0.827,0.78-1.157
		c0.338-0.328,0.728-0.584,1.17-0.768c0.451-0.189,0.936-0.285,1.456-0.285c0.407,0,0.789,0.057,1.144,0.169
		c0.355,0.104,0.676,0.257,0.962,0.455c0.294,0.19,0.55,0.425,0.767,0.701c0.225,0.271,0.407,0.567,0.546,0.897l-1.651,0.662
		c-0.147-0.381-0.373-0.676-0.676-0.884c-0.303-0.218-0.659-0.325-1.066-0.325c-0.269,0-0.52,0.053-0.754,0.156
		c-0.234,0.104-0.438,0.246-0.611,0.43c-0.173,0.172-0.312,0.381-0.416,0.623c-0.095,0.243-0.143,0.498-0.143,0.768
		s0.047,0.521,0.143,0.754c0.104,0.234,0.243,0.441,0.416,0.624c0.182,0.174,0.39,0.313,0.624,0.416
		c0.234,0.104,0.485,0.155,0.754,0.155c0.416,0,0.771-0.112,1.066-0.338c0.303-0.225,0.528-0.521,0.676-0.884l1.677,0.688
		c-0.304,0.65-0.746,1.188-1.326,1.611C57.632,22.436,56.926,22.643,56.085,22.643z M60.587,15.48h1.833v7.021h-1.833V15.48z
		 M60.353,13.504c0-0.338,0.108-0.615,0.325-0.832c0.217-0.227,0.49-0.338,0.819-0.338c0.347,0,0.624,0.111,0.832,0.338
		c0.217,0.217,0.325,0.494,0.325,0.832c0,0.328-0.108,0.602-0.325,0.818c-0.208,0.217-0.485,0.324-0.832,0.324
		c-0.338,0-0.615-0.107-0.832-0.324C60.457,14.105,60.353,13.832,60.353,13.504z M66.008,22.643c-0.771,0-1.374-0.19-1.807-0.572
		c-0.424-0.389-0.637-0.896-0.637-1.521c0-0.737,0.282-1.313,0.845-1.729s1.335-0.623,2.314-0.623h1.846v-0.092
		c0-0.381-0.125-0.688-0.377-0.922c-0.251-0.234-0.633-0.353-1.144-0.353c-0.398,0-0.732,0.082-1.001,0.247
		c-0.269,0.156-0.485,0.382-0.65,0.677l-1.651-0.819c0.355-0.468,0.797-0.849,1.326-1.145c0.538-0.303,1.2-0.454,1.989-0.454
		c1.04,0,1.842,0.251,2.405,0.754s0.845,1.2,0.845,2.093V22.5h-1.729v-1.079c-0.251,0.363-0.607,0.658-1.066,0.884
		C67.066,22.529,66.563,22.643,66.008,22.643z M66.528,21.16c0.217,0,0.429-0.029,0.637-0.092c0.208-0.061,0.403-0.146,0.585-0.26
		c0.182-0.113,0.342-0.246,0.481-0.402c0.147-0.156,0.264-0.329,0.351-0.52v-0.378h-1.651c-0.537,0-0.923,0.078-1.157,0.233
		c-0.225,0.156-0.338,0.373-0.338,0.65C65.437,20.904,65.8,21.16,66.528,21.16z"/>
	<path fill="#3d6d79" stroke="#FFFFFF" stroke-miterlimit="10" d="M38.994,46.17c0.694,1.447,0.921,3.074,0.65,4.657
		s-1.026,3.043-2.161,4.179c-3.031,3.03-7.958,3.03-10.988,0c-3.031-3.031-3.031-7.957,0-10.988
		c1.135-1.136,2.595-1.891,4.178-2.162c1.583-0.27,3.21-0.043,4.659,0.651l3.983-3.983l-1.832-1.832
		c-1.011-1.01-1.011-2.649,0-3.662c1.011-1.012,2.651-1.012,3.663,0l4.08,4.08c0.781,0.781,0.781,2.047,0,2.828L38.994,46.17z
		 M30.157,47.68c1.012-1.011,2.651-1.011,3.663,0c1.011,1.012,1.011,2.651,0,3.663c-1.012,1.013-2.651,1.013-3.663,0
		C29.146,50.331,29.146,48.691,30.157,47.68z"/>
	<path fill="#3d6d79" d="M128.175,54.93c-0.154,0-0.278-0.127-0.278-0.285c0-0.156,0.124-0.283,0.278-0.283
		c0.154,0,0.279,0.127,0.279,0.283C128.455,54.803,128.33,54.93,128.175,54.93z"/>
	<path fill="#3d6d79" d="M125.852,42.445c-0.3-0.205-0.499-0.557-0.499-0.951v-2.285c0-0.629,0.501-1.124,1.113-1.104l13.374,0.49
		c0.613,0.021,1.114,0.555,1.114,1.184v1.715c0,0.628-0.501,1.145-1.114,1.145h-0.69l-0.617,0.623
		c-0.039,0.043-1.131,1.225-1.131,3.686c0,1.109,1.026,2.011,2.286,2.011h4.477c0.396-0.435,1.088-2.64,1.088-6.313
		c0-3.771-1.423-5.703-1.437-5.722l-0.288-0.384l-0.315,0.134c-0.194,0.095-0.422,0.112-0.633,0.015
		c-0.373-0.18-0.535-0.631-0.361-1.012c0.064-0.132,0.166-0.24,0.293-0.314l1.143-0.494c0.091-0.731,0.602-1.315,1.288-1.428
		c0.136-0.022,0.296-0.125,0.308-0.17c0.309-1.174,1.097-1.77,2.341-1.77h1.714l0.013,0.904h0.609v0.568
		c0.443,0,0.803,0.633,0.803,1.416c0,0.78-0.359,1.416-0.803,1.416v0.565h-0.609v0.905h-1.198c1.45,2.131,3.848,6.029,3.848,8.502
		c0,0.106-0.01,0.213-0.027,0.318c2.046,0.274,3.914,1.52,4.906,3.324c0.195,0.354,0.204,0.75,0.025,1.087
		c-0.28,0.527-0.843,0.698-1.718,0.795c0.25,0.573,0.379,1.188,0.38,1.813c0,2.503-1.995,4.531-4.457,4.531
		c-2.272,0-4.143-1.728-4.418-3.961h-1.363c-0.143,0-0.26,0.059-0.49,0.18c-0.323,0.171-0.767,0.404-1.408,0.404h-10.92
		c-0.502,1.942-2.236,3.377-4.304,3.377c-2.068,0-3.801-1.435-4.303-3.377h-2.531v-0.906
		C121.341,47.609,124.53,43.784,125.852,42.445z M140.333,39.73c0.019,0,0.036,0.01,0.056,0.012
		c-0.021-0.307-0.27-0.567-0.569-0.579l-13.394-0.489c-0.29,0-0.516,0.235-0.516,0.536v0.028L140.333,39.73z M151.078,55.384
		c1.231,0,2.229-1.016,2.229-2.267c0-0.621-0.251-1.178-0.651-1.586c-0.472,0.066-0.895,0.158-1.146,0.297
		c-0.294,0.162-0.558,0.361-0.836,0.574c-0.261,0.199-0.538,0.404-0.85,0.593c0.022,0.043,0.032,0.091,0.029,0.139
		c-0.002,0.048-0.016,0.095-0.041,0.134c-0.025,0.041-0.06,0.074-0.101,0.099s-0.088,0.034-0.136,0.036
		c-0.103,0-0.189-0.061-0.237-0.145c-0.144,0.064-0.295,0.129-0.457,0.182C149.035,54.536,149.955,55.384,151.078,55.384z
		 M128.175,55.384c0.813,0,1.512-0.448,1.899-1.112h-0.573c-0.011,0.049-0.035,0.092-0.067,0.127
		c-0.026,0.026-0.057,0.049-0.09,0.063c-0.034,0.015-0.07,0.021-0.107,0.021c-0.037,0-0.073-0.008-0.107-0.021
		c-0.034-0.015-0.064-0.036-0.09-0.063c-0.033-0.035-0.056-0.078-0.067-0.127h-1.596c-0.012,0.049-0.035,0.092-0.068,0.127
		c-0.025,0.026-0.056,0.049-0.089,0.063c-0.034,0.015-0.071,0.021-0.107,0.021c-0.037,0-0.073-0.008-0.107-0.021
		c-0.034-0.015-0.065-0.036-0.09-0.063c-0.033-0.035-0.057-0.078-0.067-0.127h-0.573C126.664,54.936,127.362,55.384,128.175,55.384z
		 M143.398,53.365c0.828,0,1.147-0.584,1.898-0.584h1.911c2.076,0,2.651-1.072,3.878-1.75c1.453-0.801,5.458-0.307,4.984-1.168
		c-0.957-1.74-2.936-2.916-4.984-2.916c-0.161,0-0.318,0.012-0.475,0.025l0.001-0.002c0,0,0.465-0.681,0.465-1.191
		c0-3.135-4.7-9.408-4.7-9.408h2.05v-3.965h-0.835c-0.459,0-1.201,0.037-1.48,1.099c-0.129,0.485-0.607,0.729-0.936,0.81
		c0.324,0.179,0.546,0.522,0.546,0.924c0,0.584-0.465,1.059-1.039,1.059c-0.054,0-0.105-0.009-0.156-0.018v0.094h-0.003
		c0,0,1.622,2.15,1.622,6.273c0,3.99-0.83,7.22-1.853,7.22h-4.605c-1.757,0-3.177-1.304-3.177-2.919
		c0-2.725,1.217-4.135,1.377-4.309h-10.931c-0.23,0.197-4.723,4.143-4.723,10.729L143.398,53.365L143.398,53.365z"/>
	<path fill="#3d6d79" d="M130.21,43.816c0.77-0.069,1.575-0.051,2.346,0.164c0.767,0.215,1.495,0.609,2.079,1.17
		c0.577,0.563,1.02,1.273,1.242,2.045c0.224,0.769,0.28,1.574,0.163,2.363c-0.123,0.771-0.386,1.512-0.776,2.188
		c0.561-1.424,0.72-3.021,0.206-4.408c-0.496-1.389-1.668-2.451-3.06-2.813c-0.692-0.201-1.421-0.225-2.157-0.174
		c-0.733,0.047-1.46,0.195-2.172,0.405c-0.711,0.211-1.402,0.507-2.063,0.862c-0.668,0.346-1.302,0.762-1.898,1.236
		c1.047-1.123,2.379-1.969,3.826-2.512C128.67,44.066,129.437,43.902,130.21,43.816z"/>
	<path fill="#3d6d79" d="M129.501,44.922c0.722-0.074,1.471-0.074,2.206,0.073c0.731,0.155,1.443,0.454,2.049,0.916
		c0.598,0.467,1.095,1.085,1.366,1.802c0.272,0.708,0.361,1.475,0.257,2.227c-0.113,0.728-0.377,1.424-0.774,2.045
		c0.58-1.314,0.722-2.848,0.124-4.098c-0.581-1.25-1.804-2.082-3.132-2.337c-0.662-0.146-1.355-0.149-2.049-0.096
		c-0.693,0.044-1.377,0.185-2.054,0.36c-0.676,0.186-1.335,0.438-1.97,0.746c-0.646,0.301-1.264,0.66-1.843,1.074
		c1.031-1.011,2.316-1.752,3.687-2.234C128.059,45.159,128.774,44.998,129.501,44.922z"/>
	<path fill="#3d6d79" d="M149.077,47.507c0.886-0.241,1.827-0.192,2.683,0.14c0.842,0.316,1.562,0.891,2.058,1.641
		c-0.625-0.572-1.376-0.989-2.192-1.221c-0.792-0.217-1.625-0.235-2.401-0.014c-0.779,0.209-1.488,0.657-2.061,1.252
		c-0.584,0.623-1.012,1.377-1.251,2.195c0.038-0.904,0.362-1.775,0.924-2.486C147.405,48.286,148.189,47.76,149.077,47.507z"/>
	<path fill="#3d6d79" d="M152.581,53.4c-0.154,0-0.279-0.127-0.279-0.283c0-0.155,0.125-0.282,0.279-0.282
		c0.154,0,0.279,0.127,0.279,0.282C152.859,53.273,152.734,53.4,152.581,53.4z"/>
	<path fill="#3d6d79" d="M152.336,53.996c0.053,0.055,0.082,0.126,0.082,0.201c0,0.074-0.029,0.146-0.082,0.201
		c-0.108,0.11-0.284,0.11-0.393,0c-0.109-0.111-0.11-0.291,0-0.402c0.025-0.025,0.056-0.047,0.09-0.061
		c0.034-0.015,0.07-0.022,0.106-0.022c0.037,0,0.073,0.009,0.107,0.022C152.28,53.949,152.312,53.971,152.336,53.996z"/>
	<path fill="#3d6d79" d="M151.079,54.93c-0.154,0-0.279-0.127-0.279-0.285c0-0.156,0.125-0.283,0.279-0.283
		c0.154,0,0.279,0.127,0.279,0.283C151.357,54.803,151.232,54.93,151.079,54.93z"/>
	<path fill="#3d6d79" d="M150.212,53.997c0.109,0.11,0.109,0.289,0,0.401c-0.109,0.11-0.285,0.11-0.394,0
		c-0.053-0.055-0.082-0.127-0.082-0.201c0-0.075,0.029-0.146,0.082-0.2c0.026-0.024,0.057-0.047,0.091-0.062
		c0.033-0.014,0.07-0.021,0.106-0.021c0.037,0,0.073,0.009,0.107,0.021C150.156,53.949,150.187,53.973,150.212,53.997z"/>
	<path fill="#3d6d79" d="M152.336,51.838c0.053,0.053,0.083,0.125,0.083,0.199s-0.03,0.146-0.083,0.199
		c-0.109,0.111-0.285,0.111-0.394,0c-0.053-0.053-0.082-0.125-0.082-0.199s0.029-0.146,0.082-0.199
		c0.025-0.025,0.056-0.047,0.09-0.063c0.034-0.014,0.07-0.021,0.107-0.021c0.037,0,0.073,0.008,0.107,0.021
		C152.28,51.791,152.312,51.813,152.336,51.838z"/>
	<path fill="#3d6d79" d="M151.078,53.686c-0.308,0-0.558-0.254-0.558-0.567s0.25-0.565,0.558-0.565s0.557,0.254,0.557,0.565
		C151.634,53.432,151.385,53.686,151.078,53.686z"/>
</g>
</svg>
