<?xml version="1.0" encoding="utf-8"?>
<!-- Generator: Adobe Illustrator 24.0.2, SVG Export Plug-In . SVG Version: 6.00 Build 0)  -->
<svg version="1.1" id="Capa_1" xmlns="http://www.w3.org/2000/svg" xmlns:xlink="http://www.w3.org/1999/xlink" x="0px" y="0px"
	 viewBox="0 0 340 340" style="enable-background:new 0 0 340 340;" xml:space="preserve">
<style type="text/css">
	.st0{fill:#0F759B;}
	.st1{fill:#0B5D7A;}
	.st2{fill:#1285B0;}
	.st3{fill:#004838;}
	.st4{fill:#10769C;}
	.st5{fill:#0037E7;}
	.st6{fill:#4271E7;}
	.st7{fill:#0049FF;}
	.st8{opacity:0.1;fill:#1C75BC;enable-background:new    ;}
	.st9{fill:#B80707;}
	.st10{fill:#A90707;}
</style>
<g>
	<path class="st0" d="M108.2,148.5c0,0.2,0,0.3,0,0.5c0,0.3,0,0.7,0,1c0,0.4,0,0.8,0,1.2c0,0.3,0.1,0.6,0.1,0.9c0,0.4,0,0.7,0.1,1.1
		c0,0.2,0,0.5,0,0.7c0,0.5,0.1,1,0.2,1.5c0,0.3,0.1,0.6,0.1,0.9c0,0.1,0,0.2,0,0.3c0.1,0.9,0.2,1.8,0.4,2.7c0,0,0,0,0,0.1
		s0,0.3,0.1,0.4c0.1,0.8,0.2,1.6,0.4,2.3c0,0.1,0.1,0.3,0.1,0.4c0.1,0.4,0.1,0.7,0.2,1.1c0.1,0.4,0.2,0.9,0.2,1.3
		c0,0.2,0.1,0.5,0.2,0.7c0.1,0.4,0.2,0.8,0.3,1.2c0.1,0.3,0.1,0.6,0.2,0.9c0.1,0.4,0.2,0.7,0.3,1.1c0.1,0.4,0.2,0.8,0.3,1.2
		c0.1,0.2,0.1,0.4,0.1,0.6c0.1,0.5,0.3,1,0.4,1.5c0.1,0.4,0.2,0.7,0.3,1.1c0,0.1,0,0.2,0.1,0.3c0.3,1,0.6,1.9,0.8,2.8l0,0
		c0,0.1,0.1,0.2,0.1,0.3c0.3,0.8,0.5,1.6,0.8,2.5c0,0.1,0.1,0.3,0.1,0.4c0.1,0.3,0.2,0.7,0.3,1c0.2,0.4,0.3,0.9,0.5,1.3
		c0.1,0.3,0.2,0.6,0.3,0.8c0.1,0.4,0.3,0.7,0.4,1.1c0.1,0.3,0.2,0.5,0.3,0.7c0.2,0.5,0.4,1,0.6,1.5c0.1,0.3,0.2,0.6,0.3,0.8
		c0,0.1,0.1,0.2,0.1,0.3c0.4,0.9,0.7,1.8,1.1,2.6v0.1c0.1,0.3,0.2,0.5,0.3,0.8c0.3,0.7,0.6,1.3,0.9,2c0,0.1,0.1,0.2,0.1,0.3
		c0.3,0.6,0.5,1.1,0.8,1.7c0.2,0.4,0.4,0.9,0.6,1.3c0.1,0.1,0.1,0.2,0.2,0.4c0.1,0.3,0.3,0.6,0.4,0.8c0.4,0.7,0.7,1.4,1.1,2.2
		c0.2,0.3,0.3,0.6,0.5,0.9c0.1,0.2,0.2,0.4,0.3,0.6c0.2,0.3,0.4,0.7,0.6,1c0.3,0.6,0.6,1.2,1,1.8c0.3,0.5,0.6,1,0.9,1.5
		c0.3,0.6,0.7,1.1,1,1.7c0.1,0.2,0.2,0.4,0.3,0.5c0.3,0.4,0.5,0.8,0.8,1.3c0.2,0.3,0.4,0.6,0.6,0.9c0.6,0.9,1.1,1.7,1.7,2.6
		c0.7,1.1,1.5,2.2,2.2,3.2l0.1,0.1c0.5,0.7,1,1.3,1.5,2c0.2,0.2,0.3,0.4,0.4,0.6l0,0c0.6,0.8,1.3,1.7,1.9,2.5l0.1,0.1
		c0.2,0.3,0.4,0.5,0.7,0.8c0.4,0.5,0.8,1,1.2,1.5c0.1,0.1,0.2,0.2,0.2,0.3c0.3,0.4,0.6,0.7,0.9,1c0.3,0.4,0.6,0.7,0.9,1.1
		c0.1,0.1,0.3,0.3,0.4,0.4c0.3,0.3,0.6,0.7,1,1c0.3,0.3,0.5,0.6,0.8,0.9c0.2,0.2,0.3,0.3,0.5,0.5c0.3,0.4,0.7,0.7,1.1,1.1
		c0.2,0.2,0.5,0.5,0.7,0.7s0.4,0.4,0.6,0.5c0.4,0.3,0.7,0.7,1,1c0.2,0.2,0.4,0.4,0.6,0.6l0,0c0.2,0.2,0.5,0.4,0.7,0.6
		c0.3,0.3,0.7,0.6,1,0.9c0.2,0.1,0.3,0.3,0.5,0.5c0.3,0.2,0.6,0.5,0.8,0.7c0.3,0.3,0.7,0.5,1,0.8c0.1,0.1,0.3,0.2,0.4,0.3
		c0.4,0.3,0.8,0.6,1.1,0.9c0.3,0.2,0.6,0.4,0.8,0.6c0.1,0.1,0.1,0.1,0.2,0.2c0.7,0.5,1.4,1,2.1,1.5l0,0l0,0l0,0l0,0
		c0.1,0,0.1,0.1,0.2,0.1c0.6,0.4,1.3,0.9,1.9,1.3c0.2,0.1,0.3,0.2,0.5,0.3c0.5,0.3,1.1,0.7,1.6,1c0.2,0.1,0.4,0.2,0.6,0.3
		c0.3,0.1,0.5,0.3,0.8,0.5c0.2,0.1,0.4,0.3,0.6,0.4c0.3,0.2,0.7,0.4,1,0.5c0.2,0.1,0.5,0.3,0.7,0.4c0.1,0.1,0.2,0.1,0.3,0.2
		c0.7,0.3,1.3,0.6,2,0.9h0.1c0.7,0.3,1.3,0.6,2,0.8l0,0l0,0l0,0c0.1,0,0.2,0.1,0.3,0.1c0.2,0.1,0.5,0.2,0.7,0.3
		c0.3,0.1,0.7,0.3,1,0.4c0.2,0.1,0.3,0.1,0.5,0.2c0.3,0.1,0.6,0.2,0.9,0.3c0.2,0.1,0.5,0.1,0.7,0.2c0.2,0.1,0.5,0.1,0.7,0.2
		c0.3,0.1,0.6,0.2,0.9,0.2c0.2,0,0.3,0.1,0.5,0.1c0.3,0.1,0.5,0.1,0.8,0.1c0.3,0.1,0.7,0.1,1,0.2c0.1,0,0.2,0.1,0.4,0.1
		c0.3,0,0.5,0.1,0.8,0.1c0.4,0,0.7,0.1,1.1,0.1c0.1,0,0.2,0,0.3,0c0.2,0,0.5,0,0.7,0c0.4,0,0.9,0,1.3,0.1c0.1,0,0.2,0,0.4,0
		c0.5,0,0.9,0,1.4,0c0.1,0,0.1,0,0.2,0c0.4,0,0.7,0,1.1-0.1c0.2,0,0.4-0.1,0.6-0.1c0.2,0,0.3,0,0.5-0.1c0.6-0.1,1.2-0.2,1.8-0.3
		c0,0,0,0,0.1,0c0.2,0,0.3-0.1,0.5-0.1c0.5-0.1,1-0.2,1.4-0.4c0.2-0.1,0.4-0.2,0.7-0.2c0.3-0.1,0.6-0.2,0.9-0.3
		c0.1,0,0.1-0.1,0.2-0.1c0.5-0.2,0.9-0.4,1.3-0.6c0.2-0.1,0.4-0.2,0.6-0.3c0.6-0.3,1.3-0.7,1.9-1.1c9.6-6.1,19.2-12.2,28.9-18.3
		c-0.5,0.3-1.1,0.6-1.6,0.9c-0.1,0-0.1,0.1-0.2,0.1c-0.5,0.3-1.1,0.5-1.6,0.7c-0.1,0-0.2,0.1-0.3,0.1c-0.4,0.2-0.8,0.3-1.3,0.5
		c-0.2,0.1-0.4,0.2-0.7,0.2c-0.5,0.1-1,0.3-1.5,0.4c-0.1,0-0.3,0.1-0.4,0.1c-0.6,0.1-1.2,0.2-1.8,0.3c-0.2,0-0.3,0-0.5,0.1
		c-0.6,0.1-1.1,0.1-1.7,0.2c-0.1,0-0.1,0-0.2,0c-0.6,0-1.2,0-1.8,0c-0.4,0-0.9,0-1.3,0c-0.3,0-0.7,0-1-0.1c-0.4,0-0.7-0.1-1.1-0.1
		c-0.4,0-0.8-0.1-1.2-0.2c-0.3-0.1-0.7-0.1-1-0.2c-0.4-0.1-0.9-0.2-1.3-0.3c-0.3-0.1-0.6-0.1-0.9-0.2c-0.5-0.1-0.9-0.2-1.4-0.4
		c-0.3-0.1-0.6-0.2-0.9-0.3c-0.5-0.2-1-0.3-1.5-0.5c-0.2-0.1-0.5-0.2-0.7-0.3c-0.8-0.3-1.5-0.6-2.3-0.9l0,0
		c-0.8-0.3-1.5-0.7-2.3-1.1c-0.2-0.1-0.5-0.3-0.7-0.4c-0.6-0.3-1.1-0.6-1.7-0.9c-0.3-0.2-0.5-0.3-0.8-0.5c-0.7-0.4-1.5-0.9-2.2-1.3
		c-0.8-0.5-1.6-1.1-2.4-1.6c-0.1,0-0.1-0.1-0.2-0.1c-0.8-0.5-1.6-1.1-2.4-1.7c-0.3-0.2-0.5-0.4-0.8-0.6c-0.5-0.4-1.1-0.8-1.6-1.2
		c-0.3-0.3-0.6-0.5-1-0.8c-0.5-0.4-0.9-0.8-1.4-1.2c-0.3-0.3-0.7-0.6-1-0.9c-0.4-0.4-0.9-0.8-1.3-1.2c-0.3-0.3-0.7-0.6-1-1
		c-0.4-0.4-0.9-0.8-1.3-1.3c-0.3-0.3-0.7-0.7-1-1c-0.4-0.4-0.9-0.9-1.3-1.4c-0.3-0.3-0.6-0.7-1-1c-0.4-0.5-0.9-1-1.3-1.5
		c-0.3-0.3-0.6-0.6-0.9-1c-0.5-0.6-1-1.2-1.5-1.8c-0.2-0.2-0.4-0.5-0.6-0.7c-0.7-0.9-1.4-1.7-2.1-2.6c-0.1-0.1-0.2-0.3-0.3-0.4
		c-0.6-0.8-1.1-1.5-1.7-2.3c-0.7-1-1.4-1.9-2-2.9c-0.7-1-1.3-1.9-1.9-2.9c-0.2-0.3-0.4-0.6-0.6-0.9c-0.4-0.6-0.8-1.2-1.1-1.9
		c-0.3-0.5-0.7-1.1-1-1.6s-0.6-1-0.9-1.5c-0.3-0.6-0.6-1.1-1-1.7c-0.3-0.5-0.6-1.1-0.9-1.6c-0.2-0.3-0.3-0.6-0.5-0.9
		c-0.4-0.7-0.8-1.5-1.1-2.2c-0.1-0.3-0.3-0.5-0.4-0.8c-0.3-0.6-0.6-1.1-0.8-1.7c-0.3-0.5-0.5-1.1-0.8-1.6c-0.4-0.8-0.7-1.5-1-2.3
		c-0.1-0.3-0.2-0.5-0.4-0.8c-0.4-1-0.8-2-1.3-3c-0.1-0.3-0.2-0.5-0.3-0.8c-0.3-0.8-0.6-1.5-0.9-2.3c-0.1-0.3-0.3-0.7-0.4-1
		c-0.3-0.7-0.5-1.5-0.8-2.2c-0.1-0.3-0.2-0.6-0.3-0.9c-0.3-1-0.6-1.9-0.9-2.9c0-0.1-0.1-0.2-0.1-0.3c-0.3-1-0.6-2.1-0.9-3.2
		c-0.1-0.3-0.2-0.7-0.3-1c-0.2-0.7-0.4-1.5-0.6-2.2c-0.1-0.4-0.2-0.8-0.3-1.2c-0.2-0.7-0.3-1.3-0.5-2c-0.1-0.4-0.2-0.8-0.3-1.2
		c-0.1-0.7-0.3-1.4-0.4-2.1c-0.1-0.4-0.1-0.7-0.2-1.1c-0.2-0.9-0.3-1.8-0.4-2.7c0-0.1,0-0.3-0.1-0.4c-0.1-1-0.3-2.1-0.4-3.1
		c0-0.3-0.1-0.6-0.1-0.9c-0.1-0.7-0.1-1.5-0.2-2.2c0-0.4-0.1-0.7-0.1-1.1c0-0.7-0.1-1.4-0.1-2.1c0-0.3,0-0.7-0.1-1
		c0-1-0.1-2-0.1-2.9c0-1,0-2,0.1-3c0-0.3,0-0.5,0.1-0.8c0-0.7,0.1-1.3,0.1-2c0-0.4,0.1-0.8,0.1-1.1c0.1-0.6,0.1-1.1,0.2-1.7
		c0.1-0.4,0.1-0.8,0.2-1.2c0.1-0.5,0.2-1,0.2-1.5c0.1-0.4,0.2-0.9,0.2-1.3c0.1-0.4,0.2-0.9,0.3-1.3c0.1-0.5,0.2-1,0.4-1.5
		c0.1-0.4,0.2-0.8,0.3-1.2c0.2-0.6,0.3-1.2,0.5-1.7c0.1-0.4,0.2-0.7,0.4-1.1c0.1-0.2,0.1-0.4,0.2-0.5c0.2-0.6,0.4-1.2,0.7-1.7
		c0.1-0.1,0.1-0.2,0.1-0.3c0.3-0.7,0.6-1.4,1-2.1l0,0c0.3-0.7,0.7-1.3,1.1-1.9c0.1-0.1,0.1-0.2,0.2-0.4c0.3-0.5,0.6-0.9,0.9-1.4
		c0.1-0.2,0.2-0.3,0.4-0.5c0.3-0.4,0.6-0.8,0.9-1.2c0.1-0.1,0.2-0.3,0.3-0.4c0.4-0.5,0.8-1,1.3-1.4c0.1-0.1,0.1-0.1,0.2-0.2
		c0.4-0.4,0.8-0.8,1.2-1.1c0.1-0.1,0.3-0.3,0.4-0.4c0.3-0.3,0.7-0.6,1-0.8c0.1-0.1,0.3-0.2,0.4-0.3c0.5-0.4,1-0.7,1.5-1
		c-9.6,6.1-19.2,12.2-28.9,18.3c-0.5,0.3-1,0.7-1.5,1c-0.1,0.1-0.3,0.2-0.4,0.3c-0.4,0.3-0.7,0.6-1,0.9c-0.1,0.1-0.3,0.3-0.4,0.4
		c-0.4,0.4-0.8,0.7-1.2,1.1c-0.1,0.1-0.1,0.1-0.2,0.2c-0.4,0.4-0.9,0.9-1.3,1.4c-0.1,0.1-0.2,0.3-0.3,0.4c-0.3,0.4-0.6,0.7-0.9,1.1
		c-0.1,0.2-0.3,0.4-0.4,0.5c-0.3,0.4-0.6,0.9-0.9,1.3c-0.1,0.1-0.2,0.3-0.2,0.4c0,0,0,0.1-0.1,0.1c-0.3,0.6-0.6,1.2-1,1.8v0.1
		c-0.3,0.6-0.6,1.3-0.9,1.9v0.1c-0.1,0.1-0.1,0.2-0.1,0.4c-0.2,0.6-0.5,1.1-0.7,1.7c-0.1,0.2-0.1,0.4-0.2,0.5c0,0.1-0.1,0.2-0.1,0.4
		c-0.1,0.2-0.1,0.5-0.2,0.7c-0.2,0.6-0.4,1.2-0.5,1.8c0,0.2-0.1,0.3-0.1,0.5c-0.1,0.2-0.1,0.4-0.2,0.7c-0.1,0.5-0.3,1-0.4,1.5
		c0,0.2-0.1,0.4-0.1,0.6c0,0.2-0.1,0.5-0.1,0.7c-0.1,0.4-0.2,0.9-0.2,1.3c0,0.2-0.1,0.5-0.1,0.7c0,0.3-0.1,0.5-0.1,0.8
		c-0.1,0.4-0.1,0.8-0.2,1.2c0,0.2-0.1,0.4-0.1,0.6c0,0.3-0.1,0.7-0.1,1c0,0.4-0.1,0.8-0.1,1.1c0,0.1,0,0.3,0,0.4
		c0,0.5-0.1,1-0.1,1.6c0,0.3,0,0.5,0,0.8c0,0.1,0,0.1,0,0.2c0,0.9,0,1.7-0.1,2.6c0,0,0,0.1,0,0.2
		C108.2,146.8,108.2,147.6,108.2,148.5z"/>
	<g>
		<g>
			<path class="st1" d="M130.7,211.3c-0.2-0.3-0.4-0.6-0.6-0.9c-0.3-0.4-0.6-0.8-0.9-1.3c-0.1-0.2-0.2-0.4-0.3-0.5
				c-0.4-0.6-0.8-1.1-1.1-1.7c-0.3-0.5-0.6-1-0.9-1.5c-0.4-0.6-0.7-1.2-1.1-1.8l-0.6-1l-0.3-0.6c-0.2-0.3-0.4-0.6-0.5-0.9
				c-0.4-0.7-0.8-1.4-1.2-2.2c-0.1-0.3-0.3-0.6-0.5-0.8c-0.1-0.1-0.1-0.2-0.2-0.4c-0.2-0.4-0.4-0.8-0.7-1.3
				c-0.3-0.6-0.6-1.1-0.9-1.7c-0.1-0.1-0.1-0.2-0.2-0.3c-0.3-0.7-0.7-1.3-1-2c-0.1-0.3-0.3-0.5-0.4-0.8v-0.1
				c-0.4-0.9-0.8-1.8-1.2-2.6c0-0.1-0.1-0.2-0.1-0.3c-0.1-0.3-0.2-0.6-0.4-0.8c-0.2-0.5-0.4-1-0.6-1.5c-0.1-0.2-0.2-0.5-0.3-0.7
				c-0.2-0.4-0.3-0.7-0.4-1.1c-0.1-0.3-0.2-0.6-0.3-0.8c-0.2-0.4-0.3-0.9-0.5-1.3c-0.1-0.3-0.3-0.7-0.4-1c-0.1-0.1-0.1-0.2-0.1-0.4
				c-0.3-0.8-0.6-1.6-0.9-2.5c0-0.1-0.1-0.2-0.1-0.3l0,0c-0.3-0.9-0.6-1.9-0.9-2.8c0-0.1,0-0.2-0.1-0.3c-0.1-0.4-0.2-0.7-0.3-1.1
				c-0.1-0.5-0.3-1-0.5-1.5c-0.1-0.2-0.1-0.4-0.2-0.6c-0.1-0.4-0.2-0.8-0.3-1.2c-0.1-0.4-0.2-0.7-0.3-1.1c-0.1-0.3-0.1-0.6-0.2-0.9
				c-0.1-0.4-0.2-0.8-0.3-1.2c-0.1-0.2-0.1-0.5-0.2-0.7c-0.1-0.4-0.2-0.9-0.3-1.3c-0.1-0.4-0.2-0.7-0.2-1.1c0-0.1,0-0.3-0.1-0.4
				c-0.2-0.8-0.3-1.6-0.4-2.3c0-0.1,0-0.3-0.1-0.4c0,0,0,0,0-0.1c-0.1-0.9-0.3-1.8-0.4-2.7c0-0.1,0-0.2,0-0.3c0-0.3-0.1-0.6-0.1-0.9
				c-0.1-0.5-0.1-1-0.2-1.5c0-0.2,0-0.5-0.1-0.7c0-0.4,0-0.7-0.1-1.1c0-0.3-0.1-0.6-0.1-0.9c0-0.4,0-0.8-0.1-1.2c0-0.3,0-0.7-0.1-1
				c0-0.2,0-0.3,0-0.5c0-0.8,0-1.7,0-2.5v-0.2c0-0.9,0-1.8,0.1-2.6c0-0.1,0-0.1,0-0.2c0-0.3,0-0.5,0.1-0.8c0-0.5,0.1-1.1,0.1-1.6
				c0-0.1,0-0.3,0-0.5c0-0.4,0.1-0.8,0.1-1.1s0.1-0.7,0.1-1c0-0.2,0.1-0.4,0.1-0.6c0.1-0.4,0.1-0.8,0.2-1.2c0-0.3,0.1-0.6,0.1-0.8
				s0.1-0.4,0.1-0.7c0.1-0.4,0.2-0.9,0.3-1.3c0-0.2,0.1-0.5,0.1-0.7s0.1-0.4,0.2-0.6c0.1-0.5,0.3-1,0.4-1.5c0.1-0.2,0.1-0.5,0.2-0.7
				c0-0.1,0.1-0.3,0.1-0.4c0.2-0.6,0.4-1.2,0.6-1.8c0.1-0.2,0.1-0.5,0.2-0.7c0.1-0.1,0.1-0.3,0.2-0.4c0.1-0.2,0.1-0.4,0.2-0.5
				c0.2-0.6,0.5-1.2,0.7-1.7c0.1-0.1,0.1-0.2,0.2-0.4l0.1-0.1c0.3-0.7,0.6-1.3,1-1.9v-0.1c0.3-0.6,0.7-1.2,1.1-1.8
				c0,0,0-0.1,0.1-0.1c0.1-0.1,0.2-0.3,0.2-0.4c0.3-0.4,0.6-0.9,1-1.3c0.1-0.2,0.3-0.4,0.4-0.5c0.3-0.4,0.6-0.8,0.9-1.2
				c0.1-0.1,0.3-0.3,0.4-0.4c0.4-0.5,0.9-1,1.4-1.4c0.1-0.1,0.1-0.1,0.2-0.2c0.4-0.4,0.8-0.8,1.3-1.1c0.2-0.1,0.3-0.2,0.5-0.4
				c0.4-0.3,0.8-0.6,1.1-0.9c0.2-0.1,0.3-0.2,0.5-0.3c0.5-0.4,1.1-0.7,1.6-1c0.4-0.2,0.7-0.4,1.1-0.6c10.2-5.9,20.3-11.8,30.5-17.6
				c-0.6,0.3-1.1,0.7-1.6,1c-0.2,0.1-0.3,0.2-0.5,0.3c-0.4,0.3-0.8,0.6-1.1,0.8c-0.2,0.1-0.3,0.2-0.5,0.4c-0.4,0.4-0.9,0.7-1.3,1.1
				c-0.1,0.1-0.1,0.1-0.2,0.2c-0.5,0.5-0.9,0.9-1.4,1.4c-0.1,0.1-0.2,0.3-0.4,0.4c-0.3,0.4-0.6,0.8-1,1.2c-0.1,0.2-0.3,0.3-0.4,0.5
				c-0.3,0.4-0.6,0.9-1,1.4c-0.1,0.1-0.2,0.2-0.2,0.3c-0.4,0.6-0.8,1.3-1.1,1.9l0,0c-0.4,0.7-0.7,1.4-1,2.1
				c-0.1,0.1-0.1,0.2-0.1,0.3c-0.3,0.6-0.5,1.1-0.7,1.7c-0.1,0.2-0.1,0.3-0.2,0.5c-0.1,0.3-0.2,0.7-0.4,1.1
				c-0.2,0.6-0.4,1.1-0.6,1.7c-0.1,0.4-0.2,0.8-0.3,1.2c-0.1,0.5-0.3,1-0.4,1.5c-0.1,0.4-0.2,0.9-0.3,1.3s-0.2,0.9-0.3,1.3
				c-0.1,0.5-0.2,1-0.3,1.5c-0.1,0.4-0.1,0.8-0.2,1.2c-0.1,0.5-0.1,1.1-0.2,1.7c0,0.4-0.1,0.7-0.1,1.1c-0.1,0.7-0.1,1.3-0.1,2
				c0,0.3,0,0.5-0.1,0.8c0,0.8-0.1,1.6-0.1,2.4c0,0.2,0,0.4,0,0.6c0,1,0,2,0.1,2.9c0,0.3,0,0.7,0,1c0,0.7,0.1,1.4,0.1,2.1
				c0,0.4,0.1,0.7,0.1,1.1c0.1,0.7,0.1,1.5,0.2,2.2c0,0.3,0.1,0.6,0.1,0.9c0.1,1,0.3,2.1,0.4,3.1c0,0.1,0.1,0.3,0.1,0.4
				c0.2,0.9,0.3,1.8,0.5,2.7c0.1,0.4,0.2,0.7,0.2,1.1c0.1,0.7,0.3,1.4,0.5,2.1c0.1,0.4,0.2,0.8,0.3,1.2c0.2,0.7,0.3,1.4,0.5,2
				c0.1,0.4,0.2,0.8,0.3,1.2c0.2,0.7,0.4,1.5,0.6,2.2c0.1,0.3,0.2,0.7,0.3,1c0.3,1.1,0.7,2.1,1,3.1c0,0.1,0.1,0.2,0.1,0.3
				c0.3,1,0.7,1.9,1,2.9c0.1,0.3,0.2,0.6,0.3,0.9c0.3,0.7,0.6,1.5,0.9,2.2c0.1,0.3,0.3,0.7,0.4,1c0.3,0.8,0.6,1.5,1,2.3
				c0.1,0.3,0.2,0.5,0.3,0.8c0.4,1,0.9,2,1.4,3c0.1,0.3,0.3,0.5,0.4,0.8c0.4,0.8,0.7,1.6,1.1,2.3c0.3,0.5,0.6,1.1,0.8,1.6
				c0.3,0.6,0.6,1.1,0.9,1.7c0.1,0.3,0.3,0.5,0.4,0.8c0.4,0.7,0.8,1.5,1.2,2.2c0.2,0.3,0.3,0.6,0.5,0.9c0.3,0.5,0.6,1.1,1,1.6
				c0.4,0.6,0.7,1.2,1,1.7s0.6,1,1,1.5c0.4,0.6,0.7,1.1,1.1,1.7c0.4,0.6,1.3,1.9,1.3,1.9c10.1,14.9,0.3,19.9-10.8,25.2
				C145.9,219.8,138.8,224,130.7,211.3z"/>
			<path class="st2" d="M131.4,208.6c-0.2-0.3-0.4-0.6-0.6-0.9c-0.3-0.4-0.5-0.8-0.8-1.3c-0.1-0.2-0.2-0.4-0.3-0.5
				c-0.3-0.6-0.7-1.1-1-1.7c-0.3-0.5-0.6-1-0.8-1.5c-0.3-0.6-0.7-1.2-1-1.8l-0.6-1l-0.3-0.6c-0.2-0.3-0.3-0.6-0.5-0.9
				c-0.4-0.7-0.7-1.4-1.1-2.2c-0.1-0.3-0.3-0.6-0.4-0.8c-0.1-0.1-0.1-0.2-0.2-0.4c-0.2-0.4-0.4-0.9-0.6-1.3
				c-0.3-0.6-0.5-1.1-0.8-1.7c0-0.1-0.1-0.2-0.1-0.3c-0.3-0.7-0.6-1.3-0.9-2c-0.1-0.3-0.2-0.5-0.3-0.8l-0.1-0.1
				c-0.4-0.9-0.8-1.8-1.1-2.7c0-0.1-0.1-0.2-0.1-0.3c-0.1-0.3-0.2-0.6-0.3-0.8c-0.2-0.5-0.4-1-0.6-1.5c-0.1-0.2-0.2-0.5-0.3-0.7
				c-0.1-0.4-0.3-0.7-0.4-1.1c-0.1-0.3-0.2-0.6-0.3-0.8c-0.2-0.4-0.3-0.9-0.5-1.3c-0.1-0.3-0.2-0.7-0.4-1c0-0.1-0.1-0.2-0.1-0.4
				c-0.3-0.8-0.5-1.6-0.8-2.5c0-0.1-0.1-0.2-0.1-0.3l0,0c-0.3-0.9-0.6-1.9-0.8-2.8c0-0.1,0-0.2-0.1-0.3c-0.1-0.4-0.2-0.7-0.3-1.1
				c-0.1-0.5-0.3-1-0.4-1.5c-0.1-0.2-0.1-0.4-0.1-0.6c-0.1-0.4-0.2-0.8-0.3-1.2c-0.1-0.4-0.2-0.7-0.3-1.1c-0.1-0.3-0.1-0.6-0.2-0.9
				c-0.1-0.4-0.2-0.8-0.3-1.2c0-0.3-0.1-0.5-0.1-0.8c-0.1-0.4-0.2-0.9-0.3-1.3c-0.1-0.4-0.1-0.7-0.2-1.1c0-0.1-0.1-0.3-0.1-0.4
				c-0.1-0.8-0.3-1.5-0.4-2.3c0-0.1,0-0.3-0.1-0.4c0,0,0,0,0-0.1c-0.1-0.9-0.3-1.8-0.4-2.7c0-0.1,0-0.2,0-0.3c0-0.3-0.1-0.6-0.1-0.9
				c-0.1-0.5-0.1-1-0.2-1.5c0-0.2,0-0.5,0-0.7c0-0.4,0-0.7-0.1-1.1c0-0.3-0.1-0.6-0.1-0.9c0-0.4,0-0.8-0.1-1.2c0-0.3,0-0.7,0-1
				c0-0.1,0-0.3,0-0.5c0-0.8,0-1.6,0-2.5v0c0-0.9,0-1.8,0.1-2.6c0-0.1,0-0.1,0-0.2c0-0.3,0-0.5,0.1-0.8c0-0.5,0-1.1,0.1-1.6
				c0-0.2,0-0.3,0-0.5c0-0.4,0.1-0.8,0.1-1.1s0.1-0.7,0.1-1c0-0.2,0.1-0.4,0.1-0.6c0.1-0.4,0.1-0.8,0.2-1.2c0-0.3,0.1-0.6,0.1-0.8
				s0.1-0.4,0.1-0.7c0.1-0.4,0.2-0.9,0.2-1.3c0-0.2,0.1-0.5,0.1-0.7s0.1-0.4,0.1-0.6c0.1-0.5,0.2-1,0.4-1.5c0.1-0.2,0.1-0.5,0.2-0.7
				c0.1-0.1,0.1-0.3,0.1-0.4c0.2-0.6,0.3-1.2,0.5-1.8c0.1-0.2,0.1-0.4,0.2-0.7c0-0.1,0.1-0.3,0.1-0.4c0.1-0.2,0.1-0.4,0.2-0.5
				c0.2-0.6,0.4-1.2,0.7-1.7c0.1-0.1,0.1-0.2,0.1-0.4l0.1-0.1c0.3-0.6,0.6-1.3,0.9-1.9v-0.1c0.3-0.6,0.6-1.2,1-1.8l0.1-0.1
				c0.1-0.1,0.2-0.3,0.2-0.4c0.3-0.4,0.6-0.9,0.9-1.3c0.1-0.2,0.2-0.4,0.4-0.5c0.3-0.4,0.6-0.8,0.9-1.1c0.1-0.1,0.2-0.3,0.3-0.4
				c0.4-0.5,0.8-1,1.3-1.4c0.1-0.1,0.1-0.1,0.2-0.2c0.4-0.4,0.8-0.8,1.2-1.1c0.1-0.1,0.3-0.3,0.4-0.4c0.3-0.3,0.7-0.6,1-0.9
				c0.1-0.1,0.3-0.2,0.4-0.3c0.5-0.4,1-0.7,1.5-1c0.3-0.2,0.7-0.4,1-0.6c9.3-5.9,18.6-11.8,27.9-17.6c-0.5,0.3-1,0.7-1.5,1
				c-0.1,0.1-0.3,0.2-0.4,0.3c-0.4,0.3-0.7,0.6-1,0.8c-0.1,0.1-0.3,0.3-0.4,0.4c-0.4,0.4-0.8,0.7-1.2,1.1c-0.1,0.1-0.1,0.1-0.2,0.2
				c-0.4,0.5-0.9,0.9-1.3,1.4c-0.1,0.1-0.2,0.3-0.3,0.4c-0.3,0.4-0.6,0.8-0.9,1.2c-0.1,0.2-0.2,0.3-0.4,0.5
				c-0.3,0.5-0.6,0.9-0.9,1.4c-0.1,0.1-0.2,0.2-0.2,0.3c-0.4,0.6-0.7,1.3-1.1,1.9l0,0c-0.3,0.7-0.7,1.4-1,2.1c0,0.1-0.1,0.2-0.1,0.3
				c-0.2,0.6-0.5,1.1-0.7,1.7c-0.1,0.2-0.1,0.3-0.2,0.5c-0.1,0.4-0.2,0.7-0.4,1.1c-0.2,0.6-0.4,1.1-0.5,1.7
				c-0.1,0.4-0.2,0.8-0.3,1.2c-0.1,0.5-0.2,1-0.4,1.5c-0.1,0.4-0.2,0.9-0.3,1.3s-0.2,0.9-0.2,1.3c-0.1,0.5-0.2,1-0.2,1.5
				c-0.1,0.4-0.1,0.8-0.2,1.2c-0.1,0.5-0.1,1.1-0.2,1.7c0,0.4-0.1,0.7-0.1,1.1c-0.1,0.7-0.1,1.3-0.1,2c0,0.3,0,0.6,0,0.8
				c0,0.8-0.1,1.6-0.1,2.4c0,0.2,0,0.4,0,0.6c0,1,0,2,0,2.9c0,0.3,0,0.7,0,1c0,0.7,0.1,1.4,0.1,2.1c0,0.4,0,0.7,0.1,1.1
				c0.1,0.7,0.1,1.5,0.2,2.2c0,0.3,0.1,0.6,0.1,0.9c0.1,1,0.3,2.1,0.4,3.1c0,0.1,0.1,0.3,0.1,0.4c0.1,0.9,0.3,1.8,0.4,2.7
				c0.1,0.4,0.1,0.7,0.2,1.1c0.1,0.7,0.3,1.4,0.4,2.1c0.1,0.4,0.2,0.8,0.3,1.2c0.1,0.7,0.3,1.4,0.5,2c0.1,0.4,0.2,0.8,0.3,1.2
				c0.2,0.7,0.4,1.5,0.6,2.2c0.1,0.3,0.2,0.7,0.3,1c0.3,1.1,0.6,2.1,0.9,3.2c0,0.1,0.1,0.2,0.1,0.3c0.3,1,0.6,1.9,0.9,2.9
				c0.1,0.3,0.2,0.6,0.3,0.9c0.3,0.7,0.5,1.5,0.8,2.2c0.1,0.3,0.3,0.7,0.4,1c0.3,0.8,0.6,1.5,0.9,2.3c0.1,0.3,0.2,0.5,0.3,0.8
				c0.4,1,0.8,2,1.3,3c0.1,0.3,0.2,0.5,0.3,0.8c0.3,0.8,0.7,1.5,1,2.3c0.3,0.6,0.5,1.1,0.8,1.6c0.3,0.6,0.5,1.1,0.8,1.7
				c0.1,0.3,0.3,0.5,0.4,0.8c0.4,0.7,0.8,1.5,1.1,2.2c0.2,0.3,0.3,0.6,0.5,0.9c0.3,0.5,0.6,1.1,0.9,1.6c0.3,0.6,0.6,1.1,1,1.7
				c0.3,0.5,0.6,1,0.9,1.5c0.3,0.6,0.7,1.1,1,1.7c0.4,0.6,1.2,1.9,1.2,1.9c9.4,15.1,0.4,20.1-9.9,25.2
				C143.2,218,136.9,217.4,131.4,208.6z"/>
			<g>
				<g>
					<path class="st3" d="M145.4,177.1c-0.1-0.3-0.2-0.6-0.4-0.9L126.4,188c0.1,0.2,0.1,0.3,0.2,0.5c0,0.2,0.1,0.3,0.1,0.5l0.1,0.2
						l18.7-11.7L145.4,177.1z"/>
					<path class="st1" d="M144.9,176l-18.6,11.7l0.1,0.2c0.1,0.2,0.1,0.3,0.2,0.5c0,0.2,0.1,0.3,0.1,0.5l18.7-11.7
						c-0.1-0.3-0.2-0.6-0.4-0.9L144.9,176z"/>
				</g>
				<g>
					<path class="st3" d="M143.7,172.6c0-0.1-0.1-0.2-0.1-0.4c-0.1-0.2-0.1-0.4-0.2-0.5L125,183.3v0.1l0,0c0,0.2,0.1,0.4,0.2,0.5
						c0,0.1,0,0.2,0.1,0.2c0,0.1,0.1,0.1,0.1,0.2l18.5-11.6L143.7,172.6z"/>
					<path class="st1" d="M143.3,171.5l-18.4,11.6l0.1,0.2v0.1l0,0c0,0.2,0.1,0.4,0.2,0.5c0,0.1,0,0.2,0.1,0.2l18.5-11.6
						c0-0.1-0.1-0.2-0.1-0.4c-0.1-0.2-0.1-0.4-0.2-0.5L143.3,171.5z"/>
				</g>
				<g>
					<path class="st3" d="M142,168.1c0,0.1,0,0.1,0.1,0.2l-18.3,11.5l-0.1-0.2c-0.1-0.3-0.2-0.6-0.3-1l18.2-11.5
						C141.8,167.5,141.9,167.8,142,168.1z"/>
					<path class="st1" d="M141.6,166.9l-18.2,11.4l0.1,0.2c0.1,0.3,0.2,0.6,0.3,1l18.3-11.5c-0.1-0.3-0.2-0.6-0.3-0.9L141.6,166.9z"
						/>
				</g>
				<g>
					<path class="st3" d="M140.5,163.5c-0.1-0.3-0.2-0.6-0.3-0.9l-18,11.3c0.1,0.3,0.2,0.6,0.3,1l0.1,0.2l18.1-11.3L140.5,163.5z"/>
					<path class="st1" d="M140.1,162.3l-18,11.3l0.1,0.2c0.1,0.3,0.2,0.6,0.3,1l18-11.3c-0.1-0.3-0.2-0.6-0.3-0.9L140.1,162.3z"/>
				</g>
				<g>
					<path class="st3" d="M139.1,159l-17.8,11.2l-0.1-0.2v-0.1c-0.1-0.3-0.2-0.6-0.2-0.9l17.8-11.2c0.1,0.3,0.2,0.6,0.3,0.9l0,0
						C139.1,158.9,139.1,158.9,139.1,159z"/>
					<path class="st1" d="M138.7,157.6L121,168.8v0.2c0.1,0.3,0.1,0.6,0.2,0.9c0,0,0,0,0,0.1l17.8-11.2l0,0
						c-0.1-0.3-0.2-0.6-0.3-0.9V157.6z"/>
				</g>
				<g>
					<path class="st3" d="M137.8,154.3l-17.6,11l-0.1-0.2c-0.1-0.3-0.1-0.7-0.2-1l0,0l17.5-11c0,0.1,0.1,0.3,0.1,0.4
						c0,0.2,0.1,0.4,0.1,0.6C137.7,154.1,137.8,154.2,137.8,154.3z"/>
					<path class="st1" d="M137.7,154.1l-17.6,11c-0.1-0.3-0.1-0.7-0.2-1l0,0l-0.1-0.2l17.5-11c0,0.1,0,0.1,0.1,0.2
						c0,0.1,0.1,0.3,0.1,0.4C137.6,153.7,137.7,153.9,137.7,154.1z"/>
				</g>
			</g>
		</g>
		<path class="st4" d="M237.7,188.5c0-0.1,0-0.3,0-0.5c0-0.3,0-0.7,0-1c0-0.4,0-0.8-0.1-1.2c0-0.3,0-0.6-0.1-0.9
			c0-0.4,0-0.7-0.1-1.1c0-0.2,0-0.5-0.1-0.7c0-0.5-0.1-1-0.1-1.5c0-0.3-0.1-0.6-0.1-0.9c0-0.1,0-0.2,0-0.3c-0.1-0.9-0.2-1.8-0.4-2.7
			c0,0,0,0,0-0.1s-0.1-0.3-0.1-0.4c-0.1-0.8-0.2-1.5-0.4-2.3c0-0.1-0.1-0.3-0.1-0.4c-0.1-0.4-0.1-0.7-0.2-1.1
			c-0.1-0.4-0.2-0.9-0.2-1.3c-0.1-0.3-0.1-0.5-0.2-0.7c-0.1-0.4-0.2-0.8-0.3-1.2c-0.1-0.3-0.1-0.6-0.2-0.9c-0.1-0.4-0.2-0.7-0.3-1.1
			c-0.1-0.4-0.2-0.8-0.3-1.2c-0.1-0.2-0.1-0.4-0.1-0.6c-0.1-0.5-0.3-1-0.4-1.5c-0.1-0.4-0.2-0.7-0.3-1.1c0-0.1,0-0.2-0.1-0.3
			c-0.3-1-0.5-1.9-0.8-2.8l0,0c0-0.1-0.1-0.2-0.1-0.3c-0.3-0.8-0.5-1.6-0.8-2.5c0-0.1-0.1-0.2-0.1-0.4c-0.1-0.3-0.2-0.7-0.3-1
			c-0.2-0.4-0.3-0.9-0.5-1.3c-0.1-0.3-0.2-0.6-0.3-0.8c-0.1-0.4-0.3-0.7-0.4-1.1c-0.1-0.3-0.2-0.5-0.3-0.7c-0.2-0.5-0.4-1-0.6-1.5
			c-0.1-0.3-0.2-0.6-0.3-0.9c0-0.1-0.1-0.2-0.1-0.3c-0.4-0.9-0.7-1.8-1.1-2.6c0,0,0-0.1-0.1-0.1c-0.1-0.3-0.2-0.5-0.3-0.8
			c-0.3-0.7-0.6-1.3-0.9-2c-0.1-0.1-0.1-0.2-0.2-0.3c-0.3-0.6-0.5-1.1-0.8-1.7c-0.2-0.4-0.4-0.9-0.6-1.3c-0.1-0.1-0.1-0.2-0.2-0.4
			c-0.1-0.3-0.3-0.6-0.4-0.8c-0.4-0.7-0.7-1.4-1.1-2.1c-0.2-0.3-0.3-0.6-0.5-0.9c-0.1-0.2-0.2-0.4-0.3-0.6c-0.2-0.3-0.4-0.7-0.6-1
			c-0.3-0.6-0.7-1.2-1-1.8c-0.3-0.5-0.6-1-0.8-1.5c-0.3-0.6-0.7-1.1-1-1.7c-0.1-0.2-0.2-0.4-0.3-0.5c-0.3-0.4-0.5-0.8-0.8-1.3
			c-0.2-0.3-0.4-0.6-0.6-0.9c-0.5-0.9-1.1-1.7-1.7-2.6c-0.7-1.1-1.5-2.2-2.2-3.2l-0.1-0.1c-0.5-0.7-1-1.3-1.5-2
			c-0.2-0.2-0.3-0.4-0.4-0.6l0,0c-0.6-0.8-1.3-1.7-2-2.5l-0.1-0.1c-0.2-0.3-0.4-0.5-0.7-0.8c-0.4-0.5-0.8-1-1.2-1.5
			c-0.1-0.1-0.1-0.2-0.2-0.3c-0.3-0.3-0.6-0.7-0.9-1c-0.3-0.4-0.6-0.7-0.9-1.1c-0.1-0.1-0.2-0.3-0.4-0.4c-0.3-0.4-0.6-0.7-1-1
			c-0.3-0.3-0.5-0.6-0.8-0.9c-0.1-0.2-0.3-0.3-0.5-0.5c-0.3-0.4-0.7-0.7-1.1-1.1c-0.2-0.2-0.5-0.5-0.7-0.7s-0.4-0.4-0.6-0.5
			c-0.4-0.3-0.7-0.7-1.1-1c-0.2-0.2-0.4-0.4-0.6-0.6l0,0c-0.2-0.2-0.4-0.4-0.7-0.6c-0.3-0.3-0.7-0.6-1-0.9c-0.2-0.1-0.3-0.3-0.5-0.5
			c-0.3-0.2-0.6-0.5-0.9-0.7c-0.3-0.3-0.6-0.5-1-0.8c-0.1-0.1-0.3-0.2-0.4-0.3c-0.4-0.3-0.8-0.6-1.1-0.9c-0.3-0.2-0.6-0.4-0.8-0.6
			c-0.1-0.1-0.1-0.1-0.2-0.2c-0.7-0.5-1.4-1-2.1-1.5l0,0l0,0l0,0l0,0c-0.1,0-0.1-0.1-0.2-0.1c-0.6-0.4-1.3-0.9-1.9-1.3
			c-0.2-0.1-0.3-0.2-0.5-0.3c-0.5-0.3-1.1-0.7-1.6-1c-0.2-0.1-0.4-0.2-0.6-0.3c-0.3-0.2-0.6-0.3-0.8-0.5c-0.2-0.1-0.4-0.2-0.6-0.4
			c-0.3-0.2-0.7-0.3-1-0.5c-0.3-0.1-0.5-0.3-0.8-0.4c-0.1-0.1-0.2-0.1-0.3-0.1c-0.7-0.3-1.3-0.6-2-0.9h-0.1c-0.7-0.3-1.3-0.6-2-0.8
			l0,0l0,0l0,0c-0.1,0-0.2-0.1-0.3-0.1c-0.3-0.1-0.5-0.2-0.7-0.3c-0.3-0.1-0.7-0.3-1-0.4c-0.2-0.1-0.3-0.1-0.5-0.1
			c-0.3-0.1-0.6-0.2-0.9-0.3c-0.2-0.1-0.5-0.1-0.7-0.2s-0.5-0.1-0.7-0.2c-0.3-0.1-0.6-0.2-0.9-0.2c-0.2,0-0.3-0.1-0.5-0.1
			c-0.3-0.1-0.5-0.1-0.8-0.1c-0.3-0.1-0.7-0.1-1-0.2c-0.1,0-0.2,0-0.4-0.1c-0.3,0-0.5-0.1-0.8-0.1c-0.4-0.1-0.7-0.1-1.1-0.1
			c-0.1,0-0.2,0-0.3,0c-0.2,0-0.5,0-0.7,0c-0.4,0-0.9,0-1.3,0c-0.1,0-0.2,0-0.4,0c-0.5,0-0.9,0-1.4,0c-0.1,0-0.1,0-0.2,0
			c-0.3,0-0.7,0.1-1,0.1c-0.2,0-0.4,0.1-0.6,0.1c-0.2,0-0.3,0-0.5,0.1c-0.6,0.1-1.2,0.2-1.8,0.3c0,0,0,0-0.1,0
			c-0.2,0-0.3,0.1-0.5,0.1c-0.5,0.1-1,0.2-1.4,0.4c-0.2,0.1-0.4,0.2-0.7,0.2c-0.3,0.1-0.6,0.2-0.9,0.3c-0.1,0-0.1,0.1-0.2,0.1
			c-0.5,0.2-0.9,0.4-1.3,0.6c-0.2,0.1-0.4,0.2-0.6,0.3c-0.6,0.3-1.3,0.7-1.9,1.1c-9.6,6.1-19.2,12.2-28.9,18.3
			c0.5-0.3,1.1-0.6,1.6-0.9c0.1,0,0.1-0.1,0.2-0.1c0.5-0.3,1.1-0.5,1.6-0.8c0.1,0,0.2-0.1,0.3-0.1c0.4-0.2,0.8-0.3,1.3-0.5
			c0.2-0.1,0.4-0.2,0.7-0.2c0.5-0.1,1-0.3,1.4-0.4c0.1,0,0.3-0.1,0.4-0.1c0.6-0.1,1.2-0.2,1.8-0.3c0.2,0,0.3,0,0.5-0.1
			c0.6-0.1,1.1-0.1,1.7-0.2c0.1,0,0.1,0,0.2,0c0.6,0,1.2,0,1.8,0c0.4,0,0.9,0,1.3,0c0.3,0,0.7,0,1,0.1c0.4,0,0.7,0.1,1.1,0.1
			c0.4,0,0.8,0.1,1.2,0.2c0.3,0.1,0.7,0.1,1,0.2c0.4,0.1,0.9,0.2,1.3,0.3c0.3,0.1,0.6,0.1,0.9,0.2c0.5,0.1,0.9,0.2,1.4,0.4
			c0.3,0.1,0.6,0.2,0.9,0.3c0.5,0.2,1,0.3,1.5,0.5c0.2,0.1,0.5,0.2,0.7,0.3c0.8,0.3,1.5,0.6,2.3,0.9l0,0c0.8,0.3,1.5,0.7,2.3,1.1
			c0.2,0.1,0.5,0.2,0.7,0.4c0.6,0.3,1.1,0.6,1.7,0.9c0.3,0.1,0.5,0.3,0.8,0.5c0.7,0.4,1.5,0.9,2.2,1.3c0.8,0.5,1.6,1.1,2.4,1.6
			c0,0,0.1,0.1,0.2,0.1c0.8,0.5,1.6,1.1,2.4,1.7c0.3,0.2,0.5,0.4,0.8,0.6c0.5,0.4,1,0.8,1.6,1.2c0.3,0.3,0.6,0.5,1,0.8
			c0.5,0.4,0.9,0.8,1.4,1.2c0.3,0.3,0.7,0.6,1,0.9c0.4,0.4,0.9,0.8,1.3,1.2c0.3,0.3,0.7,0.6,1,1c0.4,0.4,0.9,0.8,1.3,1.3
			c0.3,0.3,0.7,0.7,1,1c0.4,0.4,0.9,0.9,1.3,1.3c0.3,0.3,0.6,0.7,1,1c0.4,0.5,0.9,1,1.3,1.5c0.3,0.3,0.6,0.7,0.9,1
			c0.5,0.6,1,1.2,1.5,1.8c0.2,0.2,0.4,0.5,0.6,0.7c0.7,0.9,1.4,1.7,2.1,2.6c0.1,0.1,0.2,0.3,0.3,0.4c0.6,0.8,1.1,1.5,1.7,2.3
			c0.7,1,1.4,1.9,2,2.9s1.3,1.9,1.9,2.9c0.2,0.3,0.4,0.6,0.5,0.9c0.4,0.6,0.8,1.2,1.2,1.9c0.3,0.5,0.7,1.1,1,1.7
			c0.3,0.5,0.6,1,0.9,1.5c0.3,0.6,0.6,1.1,1,1.7c0.3,0.5,0.6,1.1,0.9,1.6c0.2,0.3,0.3,0.6,0.5,0.9c0.4,0.7,0.8,1.5,1.1,2.2
			c0.1,0.3,0.3,0.5,0.4,0.8c0.3,0.6,0.6,1.1,0.8,1.7c0.3,0.5,0.5,1.1,0.8,1.6c0.4,0.8,0.7,1.5,1,2.3c0.1,0.3,0.2,0.5,0.3,0.8
			c0.4,1,0.8,2,1.3,3c0.1,0.3,0.2,0.6,0.3,0.8c0.3,0.8,0.6,1.5,0.9,2.3c0.1,0.3,0.3,0.7,0.4,1c0.3,0.7,0.5,1.5,0.8,2.2
			c0.1,0.3,0.2,0.6,0.3,0.9c0.3,0.9,0.6,1.9,0.9,2.9c0,0.1,0.1,0.2,0.1,0.3c0.3,1.1,0.6,2.1,0.9,3.2c0.1,0.3,0.2,0.7,0.3,1
			c0.2,0.7,0.4,1.5,0.6,2.2c0.1,0.4,0.2,0.8,0.3,1.2c0.2,0.7,0.3,1.4,0.5,2c0.1,0.4,0.2,0.8,0.3,1.2c0.1,0.7,0.3,1.4,0.4,2.1
			c0.1,0.4,0.1,0.7,0.2,1.1c0.2,0.9,0.3,1.8,0.4,2.7c0,0.1,0,0.3,0.1,0.4c0.1,1,0.3,2.1,0.4,3.1c0,0.3,0.1,0.6,0.1,0.9
			c0.1,0.7,0.1,1.5,0.2,2.2c0,0.4,0.1,0.7,0.1,1.1c0,0.7,0.1,1.4,0.1,2.1c0,0.3,0,0.7,0,1c0,1,0,2,0,2.9c0,1,0,2-0.1,3
			c0,0.3,0,0.6-0.1,0.8c0,0.7-0.1,1.3-0.1,2c0,0.4-0.1,0.8-0.1,1.1c-0.1,0.6-0.1,1.1-0.2,1.7c0,0.4-0.1,0.8-0.2,1.2
			c-0.1,0.5-0.2,1-0.2,1.5c-0.1,0.4-0.2,0.9-0.2,1.3c-0.1,0.4-0.2,0.9-0.3,1.3c-0.1,0.5-0.2,1-0.4,1.5c-0.1,0.4-0.2,0.8-0.3,1.2
			c-0.2,0.6-0.3,1.2-0.5,1.7c-0.1,0.4-0.2,0.7-0.3,1.1c-0.1,0.2-0.1,0.3-0.2,0.5c-0.2,0.6-0.4,1.2-0.7,1.7c0,0.1-0.1,0.2-0.1,0.3
			c-0.3,0.7-0.6,1.4-1,2.1l0,0c-0.3,0.7-0.7,1.3-1.1,1.9c-0.1,0.1-0.1,0.2-0.2,0.3c-0.3,0.5-0.6,0.9-0.9,1.4
			c-0.1,0.2-0.2,0.3-0.4,0.5c-0.3,0.4-0.6,0.8-0.9,1.2c-0.1,0.1-0.2,0.3-0.3,0.4c-0.4,0.5-0.8,1-1.3,1.4c-0.1,0.1-0.1,0.1-0.2,0.2
			c-0.4,0.4-0.8,0.8-1.2,1.1c-0.1,0.1-0.3,0.3-0.4,0.4c-0.3,0.3-0.7,0.6-1,0.9c-0.1,0.1-0.3,0.2-0.4,0.3c-0.5,0.4-1,0.7-1.5,1
			c9.6-6.1,19.2-12.2,28.9-18.3c0.5-0.3,1-0.7,1.5-1c0.1-0.1,0.3-0.2,0.4-0.3c0.3-0.3,0.7-0.6,1-0.9c0.1-0.1,0.3-0.2,0.4-0.4
			c0.4-0.4,0.8-0.7,1.2-1.1c0.1-0.1,0.1-0.1,0.2-0.2c0.4-0.5,0.8-0.9,1.3-1.4c0.1-0.1,0.2-0.3,0.3-0.4c0.3-0.4,0.6-0.8,0.9-1.2
			c0.1-0.2,0.2-0.3,0.4-0.5c0.3-0.4,0.6-0.9,0.9-1.3c0.1-0.1,0.2-0.2,0.2-0.4c0,0,0-0.1,0.1-0.1c0.3-0.6,0.7-1.2,1-1.8
			c0,0,0-0.1,0.1-0.1c0.3-0.6,0.6-1.3,0.9-1.9c0,0,0-0.1,0.1-0.1c0.1-0.1,0.1-0.2,0.1-0.4c0.2-0.6,0.5-1.1,0.7-1.7
			c0.1-0.2,0.1-0.4,0.2-0.5c0.1-0.1,0.1-0.2,0.1-0.4c0.1-0.2,0.1-0.5,0.2-0.7c0.2-0.6,0.4-1.2,0.5-1.8c0.1-0.2,0.1-0.3,0.1-0.5
			c0.1-0.2,0.1-0.5,0.2-0.7c0.1-0.5,0.2-1,0.4-1.5c0-0.2,0.1-0.4,0.1-0.6c0-0.2,0.1-0.5,0.1-0.7c0.1-0.4,0.2-0.9,0.2-1.3
			c0-0.2,0.1-0.4,0.1-0.7s0.1-0.5,0.1-0.8c0.1-0.4,0.1-0.8,0.2-1.2c0-0.2,0.1-0.4,0.1-0.6c0-0.3,0.1-0.7,0.1-1
			c0-0.4,0.1-0.8,0.1-1.1c0-0.1,0-0.3,0-0.4c0-0.5,0.1-1,0.1-1.6c0-0.3,0-0.5,0.1-0.8c0-0.1,0-0.1,0-0.2c0-0.9,0.1-1.8,0.1-2.6
			c0-0.1,0-0.1,0-0.2C237.7,190.2,237.7,189.4,237.7,188.5z"/>
		<path class="st2" d="M130.4,107.8c0.6-0.1,1.2-0.2,1.8-0.3c0.2,0,0.3,0,0.5-0.1c0.6-0.1,1.1-0.1,1.7-0.2c0.1,0,0.1,0,0.2,0
			c0.6,0,1.2,0,1.8,0c0.4,0,0.9,0,1.3,0c0.3,0,0.7,0,1,0.1c0.4,0,0.7,0.1,1.1,0.1c0.4,0,0.8,0.1,1.2,0.2c0.3,0.1,0.7,0.1,1,0.2
			c0.4,0.1,0.9,0.2,1.3,0.3c0.3,0.1,0.6,0.1,0.9,0.2c0.5,0.1,0.9,0.2,1.4,0.4c0.3,0.1,0.6,0.2,0.9,0.3c0.5,0.2,1,0.3,1.5,0.5
			c0.2,0.1,0.5,0.2,0.7,0.3c0.8,0.3,1.5,0.6,2.3,0.9l0,0c0.8,0.3,1.5,0.7,2.3,1.1c0.2,0.1,0.5,0.2,0.7,0.4c0.6,0.3,1.1,0.6,1.7,0.9
			c0.3,0.1,0.5,0.3,0.8,0.5c0.7,0.4,1.5,0.9,2.2,1.3c0.8,0.5,1.6,1.1,2.4,1.6c0,0,0.1,0.1,0.2,0.1c0.8,0.5,1.6,1.1,2.4,1.7
			c0.3,0.2,0.5,0.4,0.8,0.6c0.5,0.4,1,0.8,1.6,1.2c0.3,0.3,0.6,0.5,1,0.8c0.5,0.4,0.9,0.8,1.4,1.2c0.3,0.3,0.7,0.6,1,0.9
			c0.4,0.4,0.9,0.8,1.3,1.2c0.3,0.3,0.7,0.6,1,1c0.4,0.4,0.9,0.8,1.3,1.3c0.3,0.3,0.7,0.7,1,1c0.4,0.4,0.9,0.9,1.3,1.3
			c0.3,0.3,0.6,0.7,1,1c0.4,0.5,0.9,1,1.3,1.5c0.3,0.3,0.6,0.7,0.9,1c0.5,0.6,1,1.2,1.5,1.8c0.2,0.2,0.4,0.5,0.6,0.7
			c0.7,0.9,1.4,1.7,2.1,2.6c0.1,0.1,0.2,0.3,0.3,0.4c0.6,0.8,1.1,1.5,1.7,2.3c0.7,1,1.4,1.9,2,2.9c0.5,0.7,3.1,4.9,3.6,5.6l36.6-3.5
			c-0.1-0.2-0.2-0.5-0.3-0.7c-0.1-0.1-0.1-0.2-0.2-0.3c-0.3-0.6-0.5-1.1-0.8-1.7c-0.2-0.4-0.4-0.9-0.6-1.3c-0.1-0.1-0.1-0.2-0.2-0.4
			c-0.1-0.3-0.3-0.6-0.4-0.8c-0.4-0.7-0.7-1.4-1.1-2.1c-0.2-0.3-0.3-0.6-0.5-0.9c-0.1-0.2-0.2-0.4-0.3-0.6c-0.2-0.3-0.4-0.7-0.6-1
			c-0.3-0.6-0.7-1.2-1-1.8c-0.3-0.5-0.6-1-0.8-1.5c-0.3-0.6-0.7-1.1-1-1.7c-0.1-0.2-0.2-0.4-0.3-0.5c-0.3-0.4-0.5-0.8-0.8-1.3
			c-0.2-0.3-0.4-0.6-0.6-0.9c-0.5-0.9-1.1-1.7-1.7-2.6c-0.7-1.1-1.5-2.2-2.2-3.2l-0.1-0.1c-0.5-0.7-1-1.3-1.5-2
			c-0.2-0.2-0.3-0.4-0.4-0.6l0,0c-0.6-0.8-1.3-1.7-2-2.5l-0.1-0.1c-0.2-0.3-0.4-0.5-0.7-0.8c-0.4-0.5-0.8-1-1.2-1.5
			c-0.1-0.1-0.1-0.2-0.2-0.3c-0.3-0.3-0.6-0.7-0.9-1c-0.3-0.4-0.6-0.7-0.9-1.1c-0.1-0.1-0.2-0.3-0.4-0.4c-0.3-0.4-0.6-0.7-1-1
			c-0.3-0.3-0.5-0.6-0.8-0.9c-0.1-0.2-0.3-0.3-0.5-0.5c-0.3-0.4-0.7-0.7-1.1-1.1c-0.2-0.2-0.5-0.5-0.7-0.7s-0.4-0.4-0.6-0.5
			c-0.4-0.3-0.7-0.7-1.1-1c-0.2-0.2-0.4-0.4-0.6-0.6c-0.2-0.2-0.4-0.4-0.7-0.6c-0.3-0.3-0.7-0.6-1-0.9c-0.2-0.1-0.3-0.3-0.5-0.5
			c-0.3-0.2-0.6-0.5-0.9-0.7c-0.3-0.3-0.6-0.5-1-0.8c-0.1-0.1-0.3-0.2-0.4-0.3c-0.4-0.3-0.8-0.6-1.1-0.9c-0.3-0.2-0.6-0.4-0.8-0.6
			c-0.1-0.1-0.1-0.1-0.2-0.2c-0.7-0.5-1.4-1-2.1-1.5l0,0c-0.1,0-0.1-0.1-0.2-0.1c-0.6-0.4-1.3-0.9-1.9-1.3c-0.2-0.1-0.3-0.2-0.5-0.3
			c-0.5-0.3-1.1-0.7-1.6-1c-0.2-0.1-0.4-0.2-0.6-0.3c-0.3-0.2-0.6-0.3-0.8-0.5c-0.2-0.1-0.4-0.2-0.6-0.4c-0.3-0.2-0.7-0.3-1-0.5
			c-0.3-0.1-0.5-0.3-0.8-0.4c-0.1-0.1-0.2-0.1-0.3-0.1c-0.7-0.3-1.3-0.6-2-0.9h-0.1c-0.7-0.3-1.3-0.6-2-0.8c-0.1,0-0.2-0.1-0.3-0.1
			c-0.3-0.1-0.5-0.2-0.7-0.3c-0.3-0.1-0.7-0.3-1-0.4c-0.2-0.1-0.3-0.1-0.5-0.1c-0.3-0.1-0.6-0.2-0.9-0.3c-0.2-0.1-0.5-0.1-0.7-0.2
			s-0.5-0.1-0.7-0.2c-0.3-0.1-0.6-0.2-0.9-0.2c-0.2,0-0.3-0.1-0.5-0.1c-0.3-0.1-0.5-0.1-0.8-0.1c-0.3-0.1-0.7-0.1-1-0.2
			c-0.1,0-0.2,0-0.4-0.1c-0.3,0-0.5-0.1-0.8-0.1c-0.4-0.1-0.7-0.1-1.1-0.1c-0.1,0-0.2,0-0.3,0c-0.2,0-0.5,0-0.7,0
			c-0.4,0-0.9,0-1.3,0c-0.1,0-0.2,0-0.4,0c-0.5,0-0.9,0-1.4,0c-0.1,0-0.1,0-0.2,0c-0.3,0-0.7,0.1-1,0.1c-0.2,0-0.4,0.1-0.6,0.1
			c-0.2,0-0.3,0-0.5,0.1c-0.6,0.1-1.2,0.2-1.8,0.3c0,0,0,0-0.1,0c-0.2,0-0.3,0.1-0.5,0.1c-0.5,0.1-1,0.2-1.4,0.4
			c-0.2,0.1-0.4,0.2-0.7,0.2c-0.3,0.1-0.6,0.2-0.9,0.3c-0.1,0-0.1,0.1-0.2,0.1c-0.5,0.2-0.9,0.4-1.3,0.6c-0.2,0.1-0.4,0.2-0.6,0.3
			c-0.6,0.3-1.3,0.7-1.9,1.1c-9.6,6.1-19.2,12.2-28.9,18.3c0.5-0.3,1.1-0.6,1.6-0.9c0.1,0,0.1-0.1,0.2-0.1c0.5-0.3,1.1-0.5,1.6-0.8
			c0.1,0,0.2-0.1,0.3-0.1c0.4-0.2,0.8-0.3,1.3-0.5c0.2-0.1,0.4-0.2,0.7-0.2c0.5-0.1,1-0.3,1.4-0.4
			C130.1,107.9,130.2,107.8,130.4,107.8z"/>
		<path class="st1" d="M158.7,114.7c-27.8-17.5-50.4-3.4-50.5,31.3c-0.1,34.8,22.4,77.1,50.2,94.6s50.4,3.4,50.5-31.3
			C209,174.5,186.5,132.2,158.7,114.7z M158.2,235c-25.2-15.9-45.6-54.3-45.6-85.8c0.1-31.6,20.6-44.3,45.9-28.4
			c25.2,15.9,45.6,54.3,45.6,85.9C204,238.1,183.5,250.8,158.2,235z"/>
		<g>
			<g>
				<g>
					<path class="st5" d="M190.2,148.2c1.5-0.9,28.9-17.1,29.2-17.4c0.1,0.1,0.6,1,0.8,1.3c0.3,0.4,0.5,0.9,0.8,1.3
						c0.1,0.2,2.7,5,3,5.6l0.5,1c0.1,0.2,0.2,0.4,0.3,0.6c0.1,0.3,0.3,0.6,0.4,1c0.4,0.7,0.7,1.5,1,2.2c0.1,0.3,0.3,0.6,0.4,0.8
						c0,0.1,0.1,0.3,0.2,0.4c0.2,0.4,0.4,0.9,0.6,1.3c0.3,0.6,0.5,1.2,0.8,1.7c0,0.1,0.1,0.2,0.1,0.3c0.3,0.7,0.6,1.4,0.8,2
						c0.1,0.3,0.2,0.5,0.3,0.8v0.1c0.4,0.9,0.7,1.8,1,2.7c0,0.1,0.1,0.2,0.1,0.3c0.1,0.3,0.2,0.6,0.3,0.9c0.2,0.5,0.4,1,0.5,1.5
						c0.1,0.2,0.2,0.5,0.3,0.7c0.1,0.4,0.3,0.8,0.4,1.1c0.1,0.3,0.2,0.6,0.3,0.9c0.1,0.4,0.3,0.9,0.4,1.3c0.1,0.3,0.2,0.7,0.3,1
						c0,0.1,0.1,0.3,0.1,0.4c0.3,0.8,0.5,1.7,0.7,2.5c0,0.1,0.1,0.2,0.1,0.3l0,0c0.3,1,0.5,1.9,0.8,2.9c0,0.1,0,0.2,0.1,0.3
						c0.1,0.4,0.2,0.7,0.3,1.1c0.1,0.5,0.3,1.1,0.4,1.6c0.1,0.2,0.1,0.4,0.1,0.6l0.3,1.3c0.1,0.4,0.2,0.7,0.2,1.1
						c0.1,0.3,0.1,0.6,0.2,0.9c0,0.2,0.1,0.4,0.1,0.6c-0.4,0.2-20.8,12-29.4,17.1c0-0.1,0-0.1,0-0.2c-0.1-0.7-0.3-1.4-0.4-2l0,0
						c-0.1-0.4-0.2-0.8-0.3-1.2c-0.2-0.7-0.3-1.5-0.5-2.2c-0.1-0.3-0.2-0.7-0.2-1c-0.3-1.1-0.5-2.1-0.8-3.2c0-0.1-0.1-0.2-0.1-0.3
						c-0.3-1-0.6-1.9-0.8-2.9c-0.1-0.3-0.2-0.6-0.3-0.9c-0.2-0.8-0.5-1.5-0.7-2.3c-0.1-0.3-0.2-0.7-0.4-1c-0.3-0.8-0.5-1.6-0.8-2.3
						c-0.1-0.3-0.2-0.6-0.3-0.8c-0.4-1-0.8-2.1-1.2-3.1c-0.1-0.3-0.2-0.5-0.3-0.8c-0.3-0.8-0.6-1.6-1-2.4c-0.2-0.6-0.5-1.1-0.7-1.7
						c-0.2-0.6-0.5-1.2-0.8-1.8c-0.1-0.3-0.2-0.5-0.4-0.8c-0.3-0.8-0.7-1.5-1.1-2.3l-0.4-0.9c-0.3-0.6-0.6-1.1-0.8-1.7
						c-0.3-0.6-0.6-1.2-0.9-1.8c-0.3-0.5-0.6-1-0.8-1.5c-0.3-0.6-0.6-1.1-0.9-1.7c-0.4-0.6-0.7-1.3-1.1-1.9c0-0.1-0.6-1-0.7-1.2
						L190.2,148.2z"/>
				</g>
				<g>
					<path class="st6" d="M236,173.6c-0.1-0.3-0.1-0.6-0.2-0.9c-0.1-0.4-0.1-0.7-0.2-1.1l-0.3-1.2c0-0.2-0.1-0.4-0.1-0.6
						c-0.1-0.5-0.2-1-0.4-1.5c-0.1-0.3-0.2-0.7-0.3-1.1c0-0.1,0-0.2-0.1-0.3c-0.2-0.9-0.5-1.9-0.7-2.8l0,0c0-0.1-0.1-0.2-0.1-0.3
						c-0.2-0.8-0.5-1.6-0.7-2.4c0-0.1-0.1-0.2-0.1-0.4c-0.1-0.3-0.2-0.7-0.3-1c-0.1-0.4-0.3-0.9-0.4-1.3c-0.1-0.3-0.2-0.5-0.3-0.8
						s-0.2-0.7-0.4-1.1c-0.1-0.2-0.2-0.5-0.2-0.7c-0.2-0.5-0.3-1-0.5-1.5c-0.1-0.3-0.2-0.6-0.3-0.8c0-0.1-0.1-0.2-0.1-0.3
						c-0.3-0.9-0.7-1.7-1-2.6v-0.1c-0.1-0.3-0.2-0.5-0.3-0.8c-0.3-0.7-0.5-1.3-0.8-2c0-0.1-0.1-0.2-0.1-0.3
						c-0.2-0.6-0.5-1.1-0.7-1.7c-0.2-0.4-0.4-0.8-0.6-1.3c0-0.1-0.1-0.2-0.2-0.4c-0.1-0.3-0.2-0.5-0.4-0.8c-0.3-0.7-0.7-1.4-1-2.1
						c-0.1-0.3-0.3-0.6-0.4-0.9c-0.1-0.2-0.2-0.4-0.3-0.6l-0.5-1c-0.3-0.6-2.8-5.2-2.9-5.4c-0.2-0.4-0.5-0.8-0.7-1.3
						c-0.2-0.3-0.7-1.2-0.8-1.3c-0.3,0.3-28.1,16.8-28.2,16.9c0.1,0.1,0.7,1.2,0.7,1.3c0.4,0.6,0.7,1.2,1.1,1.8
						c0.3,0.5,0.6,1.1,0.9,1.6c0.3,0.5,0.5,1,0.8,1.5c0.3,0.6,0.6,1.1,0.9,1.7c0.3,0.5,0.6,1.1,0.8,1.6l0.4,0.9
						c0.3,0.7,0.7,1.4,1,2.2c0.1,0.3,0.2,0.5,0.4,0.8c0.2,0.6,0.5,1.1,0.7,1.7c0.2,0.5,0.5,1.1,0.7,1.6c0.3,0.8,0.6,1.5,0.9,2.3
						c0.1,0.2,0.2,0.5,0.3,0.8c0.4,1,0.8,2,1.1,3c0.1,0.3,0.2,0.5,0.3,0.8c0.3,0.7,0.5,1.5,0.8,2.2c0.1,0.3,0.2,0.7,0.3,1
						c0.2,0.7,0.5,1.5,0.7,2.2c0.1,0.3,0.2,0.6,0.3,0.9c0.3,0.9,0.5,1.9,0.8,2.8c0,0.1,0.1,0.2,0.1,0.3c0.3,1,0.5,2.1,0.8,3.1
						c0.1,0.3,0.2,0.7,0.2,1c0.2,0.7,0.3,1.4,0.5,2.1c0.1,0.4,0.2,0.8,0.3,1.2c0.1,0.7,0.3,1.3,0.4,2c0,0.1,0,0.1,0,0.2
						c8.2-4.9,27.9-16.3,28.3-16.5C236.1,174,236.1,173.8,236,173.6z"/>
				</g>
				<path class="st7" d="M207.1,192.4l-4.7-1.9c0,0-2.8-17.4-13.5-36.6l1.3-5.8C190.2,148.2,204.2,170.8,207.1,192.4z"/>
				<path class="st8" d="M191.5,148.1c0,0,13.5,24.2,16.3,42.6l28.3-16.5c0,0-14-11.8-19.7-15.3c-1.4-0.8-3.1-2.1-5-3.1
					c-2.9-1.5-5.2-2.9-7.9-4C197.3,149.1,191.5,148.1,191.5,148.1z"/>
			</g>
			<g>
				<path class="st9" d="M213.2,156.8c0,0,0.3-7.7,7.4-5.2c7.3,2.6,0.2,19.3,0.2,19.3s-14-0.9-15.2-7.6
					C204.3,156.7,209.3,154.8,213.2,156.8z"/>
				<path class="st10" d="M213.5,157.3c0,0,0.2-6.8,6.5-4.5s0.1,16.8,0.1,16.8s-12.3-0.8-13.3-6.6S210.1,155.5,213.5,157.3z"/>
			</g>
		</g>
	</g>
</g>
</svg>
