<?xml version="1.0" encoding="utf-8"?>
<!-- Generator: Adobe Illustrator 16.0.3, SVG Export Plug-In . SVG Version: 6.00 Build 0)  -->
<!DOCTYPE svg PUBLIC "-//W3C//DTD SVG 1.1//EN" "http://www.w3.org/Graphics/SVG/1.1/DTD/svg11.dtd">
<svg version="1.1" id="Capa_1" xmlns="http://www.w3.org/2000/svg" xmlns:xlink="http://www.w3.org/1999/xlink" x="0px" y="0px"
	 width="340px" height="340px" viewBox="0 0 340 340" enable-background="new 0 0 340 340" xml:space="preserve">
<g>
	<path fill="#7966FF" d="M319.824,157.69l-0.396-0.209c-2.944-1.478-5.738-1.786-7.563-1.786c-3.573,0-8.72,1.028-13.382,5.787
		c-0.91-1.073-1.947-2.024-3.098-2.828c-2.711-1.965-5.845-2.961-9.32-2.961c-0.091,0-0.171,0.006-0.261,0.015l-0.059,0.011
		l-0.184-0.011c-0.117-0.005-0.23-0.015-0.328-0.015c-3.572,0-8.723,1.029-13.39,5.788c-0.908-1.072-1.944-2.024-3.096-2.829
		c-2.712-1.965-5.844-2.96-9.32-2.96c-0.095,0-0.187,0.009-0.278,0.015l-0.063,0.011l-0.206-0.011
		c-0.127-0.01-0.253-0.015-0.36-0.015c-3.573,0-8.723,1.028-13.383,5.788c-0.91-1.073-1.946-2.024-3.098-2.829
		c-2.712-1.965-5.847-2.96-9.322-2.96c-0.297,0-0.591,0.015-0.873,0.039c-0.755-5.913-3.13-11.009-7.06-15.154
		c-5.289-5.729-12.635-8.884-20.679-8.884c-3.549,0-12.571,0.739-21.147,7.429c-0.283-0.414-0.559-0.781-0.844-1.121
		c-3.045-3.623-7.646-5.706-12.631-5.706c-0.711,0-1.428,0.044-2.134,0.128c0.217-6.115-1.966-10.917-6.509-14.296l-0.252-0.181
		c-3.936-2.759-8.076-3.058-9.675-3.058c-3.517,0-6.919,1.029-10.122,3.058l-0.284,0.185c-4.676,3.16-6.679,7.179-7.694,10.469
		c-6.191-10.638-14.943-16.377-19.771-18.907l-0.103-0.054c-10.287-5.267-20.619-6.372-27.474-6.372
		c-25.169,0-48.193,13.224-61.593,35.373c-5.173,8.518-8.962,18.427-10.946,28.665l-0.034,0.189
		c-4.852,27.511,4.563,51.353,24.56,62.227c8.358,4.656,18.098,7.015,28.953,7.015c18.992,0,37.188-7.928,51.256-22.335
		c2.256-2.376,4.343-4.881,6.363-7.62c0.18,0.245,0.36,0.473,0.541,0.688c3.086,3.679,7.679,5.792,12.604,5.792h70.66
		c2.122,0,4.257-0.399,6.286-1.167c-0.739,1.601-1.233,3.131-1.502,4.635c-1.32,7.488,2.541,14.932,9.425,18.122l0.999,0.403
		c1.283,0.454,3.296,1.055,5.925,1.055c4.675,0,9.171-1.728,12.647-4.868c0.409-0.369,0.809-0.765,1.216-1.207
		c1.589,1.966,3.606,3.545,5.916,4.611l1.001,0.404c1.281,0.454,3.296,1.054,5.922,1.054c4.677,0,9.169-1.728,12.646-4.862
		c0.393-0.355,0.788-0.739,1.179-1.164c1.59,1.942,3.597,3.504,5.891,4.568l1.002,0.404c1.28,0.454,3.295,1.054,5.921,1.054
		c4.675,0,9.174-1.728,12.648-4.865c2.481-2.238,3.948-4.71,5.021-6.515l24.576-41.079l0.189-0.321c1.339-2.17,2.792-4.835,3.37-8.1
		C329.36,168.349,325.953,161.055,319.824,157.69z"/>
	<path fill="#FFFFFF" d="M107.534,120.198c-9.025-4.623-18.045-5.071-22.067-5.071c-20.583,0-40.095,10.886-51.459,29.674
		c-4.624,7.605-7.787,16.256-9.436,24.755c-3.603,20.427,1.644,40.561,18.655,49.806c9.366,5.217,19.011,5.519,23.184,5.519
		c21.772,0,36.107-11.933,42.655-18.639c13.736-14.469,16.792-30.123,17.899-36.385
		C132.434,138.841,117.773,125.572,107.534,120.198z M94.726,155.368c-1,5.674-5.037,10.615-10.142,13.146l2.842,28.254H57.522
		l12.809-28.254c-4.212-2.532-6.508-7.472-5.504-13.146c1.457-8.26,9.333-14.949,17.587-14.949
		C90.669,140.419,96.182,147.108,94.726,155.368z"/>
	<path fill="#FFFFFF" d="M137.311,183.737c1.176,1.056,2.511,1.207,3.116,1.207c1.287,0,2.502-0.451,3.619-1.207
		c2.564-1.664,3.13-4.016,3.687-6.735l2.051-11.652l9.097,15.364c1.264,2.267,2.506,4.236,5.608,4.236
		c3.026,0,4.797-1.89,5.514-2.948c0.513-0.756,0.912-1.741,1.044-2.497c0.347-1.964-0.619-3.783-1.502-5.223l-7.897-12.711
		l7.932-6.357c2.019-1.589,3.877-3.102,4.306-5.526c0.585-3.329-1.297-5.523-4.399-5.523c-2.495,0-4.367,1.588-6.41,3.329
		l-11.98,10.443l4.164-23.607c0.404-2.727,0.668-5.072-1.472-6.662c-1.079-0.754-2.335-0.907-2.868-0.907
		c-1.361,0-2.578,0.453-3.767,1.209c-2.58,1.739-3.015,3.784-3.585,6.582l-7.553,42.83
		C135.62,180.03,135.336,182.073,137.311,183.737z"/>
	<path fill="#FFFFFF" d="M204.106,143.553c-3.18,0-10.829,0.908-17.242,8.099c-4.702,5.221-6.038,10.669-6.455,13.013
		c-0.507,2.877-1.224,10.368,3.896,15.666c4.607,4.77,10.669,5.144,13.321,5.144c1.813,0,9.361-0.304,15.277-4.236
		c2.919-1.966,3.698-3.404,4.057-4.994c0.43-2.422-0.788-3.707-1.386-4.163c-0.877-0.604-2.071-0.682-2.451-0.682
		c-2.044,0-4.214,1.136-6.19,2.044c-3.129,1.438-4.821,1.59-6.333,1.59c-4.615,0-6.843-2.801-7.514-4.167
		c-0.335-0.681-0.483-1.137-0.604-2.572l20.823-0.08c1.338,0.151,2.021,0.151,2.576,0c0.784-0.15,1.453-0.479,2.155-1.057
		c1.612-1.439,1.862-3.254,1.965-3.862c0.107-0.605,0.282-2.042,0.265-3.633c-0.044-4.466-1.313-8.019-4.181-11.048
		C211.883,144.085,206.679,143.553,204.106,143.553z M193.348,160.356c0.416-1.057,0.894-2.043,1.671-3.026
		c1.802-2.495,4.757-4.239,7.636-4.239c1.74,0,2.922,0.606,3.472,0.908c2.271,1.288,2.578,3.403,2.705,4.389
		c0.122,0.604,0.151,1.287,0.181,1.969H193.348L193.348,160.356z"/>
	<path fill="#FFFFFF" d="M314.118,168.084c-0.902-0.452-1.799-0.532-2.255-0.532c-3.479,0-5.294,2.576-5.985,3.482
		c-0.497,0.683-0.924,1.361-1.347,2.045l-9.872,16.953l-3.512-16.575c-0.473-2.042-0.954-4.012-2.647-5.143
		c-1-0.756-1.913-0.756-2.438-0.756c-0.145,0-0.291,0.004-0.438,0.021c-0.152-0.017-0.283-0.021-0.391-0.021
		c-3.481,0-5.295,2.574-5.987,3.482c-0.498,0.682-0.922,1.361-1.347,2.043l-9.872,16.954l-3.51-16.574
		c-0.473-2.041-0.956-4.013-2.648-5.143c-1.004-0.756-1.911-0.756-2.438-0.756c-0.156,0-0.316,0.011-0.473,0.021
		c-0.167-0.013-0.313-0.021-0.431-0.021c-3.482,0-5.295,2.575-5.986,3.482c-0.499,0.682-0.923,1.361-1.347,2.043l-9.875,16.954
		l-3.508-16.572c-0.473-2.042-0.959-4.014-2.649-5.144c-0.998-0.755-1.911-0.755-2.438-0.755c-2.273,0-4.855,1.36-6.211,3.482
		c-0.614,0.904-0.748,1.667-0.828,2.121c-0.294,1.663,0.071,3.027,0.424,4.465l6.639,26.712l-6.21,9.91
		c-0.204,0.306-1.915,2.728-2.238,4.543c-0.376,2.115,0.74,4.387,2.695,5.294c0.641,0.226,1.221,0.383,1.977,0.383
		c1.74,0,3.451-0.683,4.709-1.821c1.259-1.135,2.146-2.725,3.003-4.163l18.573-31.045l4.197,16.894l-6.212,9.914
		c-0.205,0.302-1.915,2.728-2.236,4.54c-0.377,2.117,0.739,4.389,2.695,5.296c0.643,0.226,1.217,0.38,1.973,0.38
		c1.739,0,3.454-0.682,4.712-1.82c1.258-1.136,2.144-2.726,3.005-4.161l18.516-30.951l4.181,16.8l-6.213,9.913
		c-0.206,0.303-1.916,2.727-2.238,4.542c-0.374,2.113,0.742,4.386,2.695,5.296c0.641,0.222,1.221,0.379,1.978,0.379
		c1.738,0,3.45-0.683,4.708-1.821c1.259-1.132,2.146-2.722,3.005-4.163l24.354-40.713c0.229-0.451,1.741-2.572,2.063-4.388
		C316.801,171.337,315.913,169.064,314.118,168.084z"/>
	<path fill="#FFFFFF" d="M209.738,190.601h-70.662c-2.984,0-5.827,2.417-6.354,5.403c-0.479,2.984,1.467,5.401,4.45,5.401h70.667
		c2.982,0,5.827-2.417,6.352-5.401C214.716,193.018,212.722,190.601,209.738,190.601z"/>
</g>
</svg>
