<svg width="148" height="16" viewBox="0 0 148 16" fill="none" xmlns="http://www.w3.org/2000/svg">
<path d="M0.122695 1.05H4.3827C4.9627 1.05 5.4977 1.15 5.9877 1.35C6.4777 1.55 6.8977 1.825 7.2477 2.175C7.6077 2.515 7.8827 2.925 8.0727 3.405C8.2727 3.875 8.3727 4.38 8.3727 4.92C8.3727 5.46 8.2727 5.965 8.0727 6.435C7.8827 6.905 7.6077 7.315 7.2477 7.665C6.8977 8.015 6.4727 8.29 5.9727 8.49C5.4827 8.69 4.9427 8.79 4.3527 8.79H1.7577V12H0.122695V1.05ZM1.7577 2.55V7.275H4.2477C4.6277 7.275 4.9727 7.215 5.2827 7.095C5.5927 6.975 5.8527 6.81 6.0627 6.6C6.2827 6.39 6.4477 6.14 6.5577 5.85C6.6777 5.56 6.7377 5.25 6.7377 4.92C6.7377 4.58 6.6777 4.265 6.5577 3.975C6.4477 3.685 6.2827 3.435 6.0627 3.225C5.8527 3.015 5.5927 2.85 5.2827 2.73C4.9727 2.61 4.6277 2.55 4.2477 2.55H1.7577ZM13.6282 12.165C13.0382 12.165 12.4882 12.055 11.9782 11.835C11.4682 11.615 11.0232 11.315 10.6432 10.935C10.2632 10.555 9.9632 10.11 9.7432 9.6C9.5232 9.09 9.4132 8.54 9.4132 7.95C9.4132 7.37 9.5232 6.825 9.7432 6.315C9.9632 5.795 10.2632 5.345 10.6432 4.965C11.0232 4.585 11.4682 4.285 11.9782 4.065C12.4882 3.845 13.0382 3.735 13.6282 3.735C14.2082 3.735 14.7532 3.845 15.2632 4.065C15.7832 4.285 16.2332 4.585 16.6132 4.965C16.9932 5.345 17.2932 5.795 17.5132 6.315C17.7332 6.825 17.8432 7.37 17.8432 7.95C17.8432 8.54 17.7332 9.09 17.5132 9.6C17.2932 10.11 16.9932 10.555 16.6132 10.935C16.2332 11.315 15.7832 11.615 15.2632 11.835C14.7532 12.055 14.2082 12.165 13.6282 12.165ZM13.6282 10.65C13.9982 10.65 14.3382 10.58 14.6482 10.44C14.9682 10.3 15.2432 10.11 15.4732 9.87C15.7132 9.62 15.8982 9.335 16.0282 9.015C16.1682 8.685 16.2382 8.33 16.2382 7.95C16.2382 7.58 16.1682 7.23 16.0282 6.9C15.8982 6.57 15.7132 6.285 15.4732 6.045C15.2432 5.795 14.9682 5.6 14.6482 5.46C14.3282 5.32 13.9882 5.25 13.6282 5.25C13.2582 5.25 12.9132 5.32 12.5932 5.46C12.2832 5.6 12.0082 5.795 11.7682 6.045C11.5382 6.285 11.3582 6.57 11.2282 6.9C11.0982 7.23 11.0332 7.58 11.0332 7.95C11.0332 8.33 11.0982 8.685 11.2282 9.015C11.3582 9.335 11.5382 9.62 11.7682 9.87C12.0082 10.11 12.2832 10.3 12.5932 10.44C12.9132 10.58 13.2582 10.65 13.6282 10.65ZM18.445 3.9H20.11L22 9.795L24.205 3.9H25.78L27.955 9.795L29.905 3.9H31.57L28.75 12H27.205L24.97 6.06L22.72 12H21.13L18.445 3.9ZM36.4672 12.165C35.8172 12.165 35.2272 12.06 34.6972 11.85C34.1772 11.63 33.7272 11.335 33.3472 10.965C32.9672 10.585 32.6722 10.14 32.4622 9.63C32.2622 9.12 32.1622 8.57 32.1622 7.98C32.1622 7.38 32.2672 6.825 32.4772 6.315C32.6972 5.795 32.9972 5.345 33.3772 4.965C33.7572 4.585 34.2022 4.285 34.7122 4.065C35.2222 3.845 35.7772 3.735 36.3772 3.735C36.9772 3.735 37.5272 3.84 38.0272 4.05C38.5372 4.25 38.9772 4.535 39.3472 4.905C39.7172 5.275 40.0072 5.715 40.2172 6.225C40.4272 6.725 40.5322 7.275 40.5322 7.875V8.55H33.7222C33.8422 9.21 34.1422 9.74 34.6222 10.14C35.1022 10.53 35.7172 10.725 36.4672 10.725C37.0372 10.725 37.5122 10.605 37.8922 10.365C38.2822 10.125 38.5972 9.81 38.8372 9.42L40.1722 10.215C39.7822 10.805 39.2872 11.28 38.6872 11.64C38.0872 11.99 37.3472 12.165 36.4672 12.165ZM36.3772 5.16C35.7272 5.16 35.1722 5.35 34.7122 5.73C34.2522 6.1 33.9422 6.58 33.7822 7.17H38.8972C38.7772 6.53 38.4922 6.035 38.0422 5.685C37.6022 5.335 37.0472 5.16 36.3772 5.16ZM42.0859 3.9H43.6759V5.31C43.8459 4.8 44.1259 4.42 44.5159 4.17C44.9059 3.91 45.3609 3.78 45.8809 3.78C46.1609 3.78 46.4159 3.81 46.6459 3.87C46.8859 3.92 47.0859 3.995 47.2459 4.095L46.6159 5.655C46.3759 5.495 46.0359 5.415 45.5959 5.415C45.0159 5.415 44.5559 5.57 44.2159 5.88C43.8759 6.19 43.7059 6.71 43.7059 7.44V12H42.0859V3.9ZM51.7748 12.165C51.1248 12.165 50.5348 12.06 50.0048 11.85C49.4848 11.63 49.0348 11.335 48.6548 10.965C48.2748 10.585 47.9798 10.14 47.7698 9.63C47.5698 9.12 47.4698 8.57 47.4698 7.98C47.4698 7.38 47.5748 6.825 47.7848 6.315C48.0048 5.795 48.3048 5.345 48.6848 4.965C49.0648 4.585 49.5098 4.285 50.0198 4.065C50.5298 3.845 51.0848 3.735 51.6848 3.735C52.2848 3.735 52.8348 3.84 53.3348 4.05C53.8448 4.25 54.2848 4.535 54.6548 4.905C55.0248 5.275 55.3148 5.715 55.5248 6.225C55.7348 6.725 55.8398 7.275 55.8398 7.875V8.55H49.0298C49.1498 9.21 49.4498 9.74 49.9298 10.14C50.4098 10.53 51.0248 10.725 51.7748 10.725C52.3448 10.725 52.8198 10.605 53.1998 10.365C53.5898 10.125 53.9048 9.81 54.1448 9.42L55.4798 10.215C55.0898 10.805 54.5948 11.28 53.9948 11.64C53.3948 11.99 52.6548 12.165 51.7748 12.165ZM51.6848 5.16C51.0348 5.16 50.4798 5.35 50.0198 5.73C49.5598 6.1 49.2498 6.58 49.0898 7.17H54.2048C54.0848 6.53 53.7998 6.035 53.3498 5.685C52.9098 5.335 52.3548 5.16 51.6848 5.16ZM61.1735 12.165C60.6435 12.165 60.1335 12.065 59.6435 11.865C59.1535 11.665 58.7185 11.38 58.3385 11.01C57.9685 10.64 57.6685 10.195 57.4385 9.675C57.2185 9.155 57.1085 8.58 57.1085 7.95C57.1085 7.31 57.2185 6.735 57.4385 6.225C57.6585 5.705 57.9535 5.26 58.3235 4.89C58.7035 4.52 59.1385 4.235 59.6285 4.035C60.1285 3.835 60.6485 3.735 61.1885 3.735C61.7285 3.735 62.2435 3.85 62.7335 4.08C63.2335 4.31 63.6385 4.625 63.9485 5.025V0.15H65.5385V12H63.9485V10.815C63.6285 11.235 63.2185 11.565 62.7185 11.805C62.2285 12.045 61.7135 12.165 61.1735 12.165ZM61.3835 10.68C61.7635 10.68 62.1135 10.61 62.4335 10.47C62.7635 10.32 63.0435 10.125 63.2735 9.885C63.5135 9.635 63.6985 9.345 63.8285 9.015C63.9685 8.675 64.0385 8.315 64.0385 7.935C64.0385 7.565 63.9685 7.215 63.8285 6.885C63.6985 6.545 63.5135 6.255 63.2735 6.015C63.0435 5.765 62.7635 5.57 62.4335 5.43C62.1135 5.28 61.7635 5.205 61.3835 5.205C61.0035 5.205 60.6485 5.275 60.3185 5.415C59.9985 5.555 59.7185 5.75 59.4785 6C59.2385 6.24 59.0485 6.53 58.9085 6.87C58.7785 7.2 58.7135 7.555 58.7135 7.935C58.7135 8.315 58.7785 8.675 58.9085 9.015C59.0485 9.345 59.2385 9.635 59.4785 9.885C59.7185 10.135 59.9985 10.33 60.3185 10.47C60.6485 10.61 61.0035 10.68 61.3835 10.68ZM75.3973 12.165C74.8373 12.165 74.3073 12.05 73.8073 11.82C73.3073 11.58 72.9023 11.25 72.5923 10.83V12H71.0023V0.15H72.6073V5.07C72.9173 4.65 73.3173 4.325 73.8073 4.095C74.3073 3.855 74.8323 3.735 75.3823 3.735C75.9223 3.735 76.4323 3.835 76.9123 4.035C77.4023 4.235 77.8323 4.52 78.2023 4.89C78.5823 5.26 78.8823 5.705 79.1023 6.225C79.3223 6.735 79.4323 7.31 79.4323 7.95C79.4323 8.58 79.3173 9.155 79.0873 9.675C78.8673 10.195 78.5723 10.64 78.2023 11.01C77.8323 11.38 77.4023 11.665 76.9123 11.865C76.4223 12.065 75.9173 12.165 75.3973 12.165ZM75.1723 10.68C75.5423 10.68 75.8873 10.61 76.2073 10.47C76.5273 10.33 76.8073 10.135 77.0473 9.885C77.2873 9.635 77.4723 9.345 77.6023 9.015C77.7423 8.675 77.8123 8.315 77.8123 7.935C77.8123 7.555 77.7423 7.2 77.6023 6.87C77.4723 6.53 77.2873 6.24 77.0473 6C76.8073 5.75 76.5273 5.555 76.2073 5.415C75.8873 5.275 75.5423 5.205 75.1723 5.205C74.7923 5.205 74.4373 5.28 74.1073 5.43C73.7873 5.57 73.5073 5.765 73.2673 6.015C73.0273 6.255 72.8373 6.545 72.6973 6.885C72.5673 7.215 72.5023 7.565 72.5023 7.935C72.5023 8.315 72.5673 8.675 72.6973 9.015C72.8373 9.345 73.0273 9.635 73.2673 9.885C73.5073 10.125 73.7873 10.32 74.1073 10.47C74.4373 10.61 74.7923 10.68 75.1723 10.68ZM81.2298 15C80.8498 15 80.4748 14.94 80.1048 14.82C79.7448 14.71 79.4348 14.555 79.1748 14.355L80.1348 12.99C80.2748 13.13 80.4298 13.24 80.5998 13.32C80.7798 13.41 80.9848 13.455 81.2148 13.455C81.4248 13.455 81.6098 13.43 81.7698 13.38C81.9398 13.33 82.0948 13.245 82.2348 13.125C82.3748 13.015 82.5048 12.865 82.6248 12.675C82.7548 12.485 82.8848 12.245 83.0148 11.955L83.1648 11.61L79.8348 3.9H81.5748L84.0048 9.705L86.3298 3.9H88.0548L84.4398 12.405C84.2398 12.885 84.0298 13.29 83.8098 13.62C83.5998 13.95 83.3648 14.215 83.1048 14.415C82.8548 14.625 82.5748 14.775 82.2648 14.865C81.9648 14.955 81.6198 15 81.2298 15Z" fill="#566865"/>
<path d="M98.1395 12.15C97.3595 12.15 96.6295 12.005 95.9495 11.715C95.2695 11.415 94.6745 11.01 94.1645 10.5C93.6645 9.99 93.2695 9.395 92.9795 8.715C92.6895 8.035 92.5445 7.305 92.5445 6.525C92.5445 5.745 92.6895 5.015 92.9795 4.335C93.2695 3.655 93.6645 3.06 94.1645 2.55C94.6745 2.04 95.2695 1.64 95.9495 1.35C96.6295 1.05 97.3595 0.9 98.1395 0.9C98.9195 0.9 99.6495 1.05 100.329 1.35C101.019 1.64 101.614 2.04 102.114 2.55C102.624 3.06 103.024 3.655 103.314 4.335C103.614 5.015 103.764 5.745 103.764 6.525C103.764 7.305 103.619 8.035 103.329 8.715C103.039 9.395 102.639 9.99 102.129 10.5C101.619 11.01 101.019 11.415 100.329 11.715C99.6495 12.005 98.9195 12.15 98.1395 12.15ZM98.1395 10.065C98.6395 10.065 99.0995 9.975 99.5195 9.795C99.9495 9.605 100.319 9.35 100.629 9.03C100.949 8.7 101.194 8.32 101.364 7.89C101.544 7.46 101.634 7.005 101.634 6.525C101.634 6.035 101.544 5.575 101.364 5.145C101.184 4.715 100.939 4.34 100.629 4.02C100.319 3.7 99.9495 3.445 99.5195 3.255C99.0895 3.065 98.6295 2.97 98.1395 2.97C97.6495 2.97 97.1895 3.065 96.7595 3.255C96.3395 3.445 95.9745 3.7 95.6645 4.02C95.3545 4.34 95.1095 4.715 94.9295 5.145C94.7595 5.575 94.6745 6.035 94.6745 6.525C94.6745 7.005 94.7595 7.46 94.9295 7.89C95.1095 8.32 95.3545 8.7 95.6645 9.03C95.9745 9.35 96.3395 9.605 96.7595 9.795C97.1895 9.975 97.6495 10.065 98.1395 10.065ZM108.548 8.655L107.303 10.05V12H105.248V0.179999H107.303V7.665L110.588 3.9H113.063L110.018 7.35L113.213 12H110.843L108.548 8.655ZM117.295 12.165C116.645 12.165 116.055 12.06 115.525 11.85C114.995 11.63 114.54 11.33 114.16 10.95C113.79 10.57 113.505 10.125 113.305 9.615C113.105 9.105 113.005 8.555 113.005 7.965C113.005 7.375 113.11 6.825 113.32 6.315C113.54 5.795 113.84 5.345 114.22 4.965C114.6 4.585 115.05 4.285 115.57 4.065C116.09 3.845 116.65 3.735 117.25 3.735C117.86 3.735 118.42 3.84 118.93 4.05C119.44 4.26 119.88 4.55 120.25 4.92C120.62 5.28 120.91 5.715 121.12 6.225C121.33 6.735 121.435 7.29 121.435 7.89V8.67H115C115.14 9.2 115.41 9.62 115.81 9.93C116.22 10.23 116.725 10.38 117.325 10.38C117.805 10.38 118.21 10.285 118.54 10.095C118.87 9.895 119.135 9.63 119.335 9.3L121.03 10.29C120.62 10.86 120.12 11.315 119.53 11.655C118.94 11.995 118.195 12.165 117.295 12.165ZM117.25 5.49C116.72 5.49 116.265 5.63 115.885 5.91C115.505 6.19 115.23 6.57 115.06 7.05H119.38C119.24 6.54 118.985 6.155 118.615 5.895C118.245 5.625 117.79 5.49 117.25 5.49ZM123.244 15.21C122.814 15.21 122.394 15.14 121.984 15C121.584 14.86 121.234 14.68 120.934 14.46L122.134 12.78C122.274 12.93 122.434 13.05 122.614 13.14C122.794 13.23 122.999 13.275 123.229 13.275C123.599 13.275 123.904 13.18 124.144 12.99C124.394 12.8 124.619 12.465 124.819 11.985L124.954 11.655L121.699 3.9H123.904L126.004 9.12L127.999 3.9H130.159L126.664 12.435C126.454 12.955 126.239 13.39 126.019 13.74C125.799 14.1 125.554 14.385 125.284 14.595C125.014 14.815 124.714 14.97 124.384 15.06C124.054 15.16 123.674 15.21 123.244 15.21ZM132.062 15.21C131.632 15.21 131.212 15.14 130.802 15C130.402 14.86 130.052 14.68 129.752 14.46L130.952 12.78C131.092 12.93 131.252 13.05 131.432 13.14C131.612 13.23 131.817 13.275 132.047 13.275C132.417 13.275 132.722 13.18 132.962 12.99C133.212 12.8 133.437 12.465 133.637 11.985L133.772 11.655L130.517 3.9H132.722L134.822 9.12L136.817 3.9H138.977L135.482 12.435C135.272 12.955 135.057 13.39 134.837 13.74C134.617 14.1 134.372 14.385 134.102 14.595C133.832 14.815 133.532 14.97 133.202 15.06C132.872 15.16 132.492 15.21 132.062 15.21ZM140.881 15.21C140.451 15.21 140.031 15.14 139.621 15C139.221 14.86 138.871 14.68 138.571 14.46L139.771 12.78C139.911 12.93 140.071 13.05 140.251 13.14C140.431 13.23 140.636 13.275 140.866 13.275C141.236 13.275 141.541 13.18 141.781 12.99C142.031 12.8 142.256 12.465 142.456 11.985L142.591 11.655L139.336 3.9H141.541L143.641 9.12L145.636 3.9H147.796L144.301 12.435C144.091 12.955 143.876 13.39 143.656 13.74C143.436 14.1 143.191 14.385 142.921 14.595C142.651 14.815 142.351 14.97 142.021 15.06C141.691 15.16 141.311 15.21 140.881 15.21Z" fill="#00A3FF"/>
</svg>
