<?xml version="1.0" encoding="utf-8"?>
<!-- Generator: Adobe Illustrator 24.0.2, SVG Export Plug-In . SVG Version: 6.00 Build 0)  -->
<svg version="1.1" id="Capa_1" xmlns="http://www.w3.org/2000/svg" xmlns:xlink="http://www.w3.org/1999/xlink" x="0px" y="0px"
	 viewBox="0 0 148 16" style="enable-background:new 0 0 148 16;" xml:space="preserve">
<style type="text/css">
	.st0{fill:#566865;}
	.st1{fill:none;}
	.st2{fill:#3D6D79;}
	.st3{font-family:'NexaBold';}
	.st4{font-size:10px;}
</style>
<path class="st0" d="M0.1,1h4.3C5,1,5.5,1.1,6,1.4s0.9,0.5,1.3,0.8S7.9,3,8.1,3.4c0.2,0.5,0.3,1,0.3,1.5S8.3,6,8.1,6.4
	C7.9,6.9,7.6,7.3,7.2,7.7C6.9,8,6.5,8.3,6,8.5S5,8.8,4.4,8.8H1.8V12H0.1V1z M1.8,2.5v4.7h2.5c0.4,0,0.7-0.1,1-0.2
	c0.3,0,0.6-0.2,0.8-0.4c0.2-0.2,0.4-0.5,0.5-0.8s0.2-0.6,0.2-0.9S6.7,4.2,6.6,4C6.4,3.7,6.3,3.4,6.1,3.2C5.9,3,5.6,2.8,5.3,2.7
	C5,2.6,4.6,2.5,4.2,2.5H1.8z M13.6,12.2c-0.6,0-1.1-0.1-1.6-0.3s-1-0.5-1.3-0.9c-0.4-0.4-0.7-0.8-0.9-1.3C9.5,9.1,9.4,8.5,9.4,7.9
	s0.1-1.1,0.3-1.6s0.5-1,0.9-1.3C11,4.6,11.5,4.3,12,4.1c0.5-0.2,1.1-0.3,1.6-0.3c0.6,0,1.1,0.1,1.6,0.3c0.5,0.2,1,0.5,1.3,0.9
	c0.4,0.4,0.7,0.8,0.9,1.3c0.2,0.5,0.3,1.1,0.3,1.6c0,0.6-0.1,1.1-0.3,1.7c-0.2,0.5-0.5,1-0.9,1.3c-0.4,0.4-0.8,0.7-1.3,0.9
	C14.8,12.1,14.2,12.2,13.6,12.2z M13.6,10.6c0.4,0,0.7-0.1,1-0.2c0.3-0.1,0.6-0.3,0.8-0.6C15.7,9.6,15.9,9.3,16,9s0.2-0.7,0.2-1.1
	s-0.1-0.7-0.2-1S15.7,6.3,15.4,6c-0.2-0.3-0.5-0.4-0.8-0.6s-0.7-0.2-1-0.2c-0.4,0-0.7,0.1-1,0.2C12.3,5.6,12,5.8,11.8,6
	s-0.4,0.5-0.5,0.9S11,7.6,11,7.9c0,0.4,0.1,0.7,0.2,1.1c0.1,0.3,0.3,0.6,0.5,0.9c0.2,0.2,0.5,0.4,0.8,0.6
	C12.9,10.6,13.3,10.6,13.6,10.6z M18.4,3.9h1.7L22,9.8l2.2-5.9h1.6L28,9.8l2-5.9h1.7L28.8,12h-1.5L25,6.1L22.7,12h-1.6L18.4,3.9z
	 M36.5,12.2c-0.7,0-1.2-0.1-1.8-0.3c-0.5-0.2-1-0.5-1.4-0.9s-0.7-0.8-0.9-1.3S32.1,8.6,32.1,8s0.1-1.2,0.3-1.7s0.5-1,0.9-1.3
	c0.4-0.4,0.8-0.7,1.3-0.9c0.5-0.2,1.1-0.3,1.7-0.3c0.6,0,1.1,0.1,1.6,0.3c0.5,0.2,1,0.5,1.3,0.9c0.4,0.4,0.7,0.8,0.9,1.3
	s0.3,1.1,0.3,1.7v0.7h-6.8c0.1,0.7,0.4,1.2,0.9,1.6c0.5,0.4,1.1,0.6,1.8,0.6c0.6,0,1-0.1,1.4-0.4c0.4-0.2,0.7-0.6,0.9-0.9l1.3,0.8
	c-0.4,0.6-0.9,1.1-1.5,1.4C38.1,12,37.3,12.2,36.5,12.2z M36.4,5.2c-0.7,0-1.2,0.2-1.7,0.6s-0.8,0.8-0.9,1.4h5.1
	C38.8,6.5,38.5,6,38,5.7C37.6,5.3,37,5.2,36.4,5.2z M42.1,3.9h1.6v1.4c0.2-0.5,0.5-0.9,0.8-1.1c0.4-0.3,0.8-0.4,1.4-0.4
	c0.3,0,0.5,0,0.8,0.1C46.9,4,47.1,4,47.3,4.1l-0.6,1.6c-0.2-0.2-0.6-0.2-1-0.2c-0.6,0-1,0.2-1.4,0.5s-0.5,0.8-0.5,1.6V12h-1.6
	L42.1,3.9L42.1,3.9z M51.8,12.2c-0.6,0-1.2-0.1-1.8-0.3c-0.5-0.2-1-0.5-1.3-0.9c-0.4-0.4-0.7-0.8-0.9-1.3S47.5,8.6,47.5,8
	s0.1-1.2,0.3-1.7s0.5-1,0.9-1.3c0.4-0.4,0.8-0.7,1.3-0.9c0.5-0.2,1.1-0.3,1.7-0.3c0.6,0,1.2,0.1,1.7,0.3c0.5,0.2,1,0.5,1.3,0.9
	c0.4,0.4,0.7,0.8,0.9,1.3s0.3,1.1,0.3,1.7v0.7H49c0.1,0.7,0.4,1.2,0.9,1.6c0.5,0.4,1.1,0.6,1.8,0.6c0.6,0,1-0.1,1.4-0.4
	c0.4-0.2,0.7-0.6,0.9-0.9l1.3,0.8c-0.4,0.6-0.9,1.1-1.5,1.4C53.4,12,52.7,12.2,51.8,12.2z M51.7,5.2c-0.6,0-1.2,0.2-1.7,0.6
	s-0.8,0.8-0.9,1.4h5.1c-0.1-0.6-0.4-1.1-0.9-1.5C52.9,5.3,52.4,5.2,51.7,5.2z M61.2,12.2c-0.5,0-1-0.1-1.5-0.3s-0.9-0.5-1.3-0.9
	c-0.4-0.4-0.7-0.8-0.9-1.3S57.2,8.6,57.2,8s0.1-1.2,0.3-1.7s0.5-1,0.9-1.3c0.4-0.4,0.8-0.7,1.3-0.9c0.5-0.2,1-0.3,1.6-0.3
	s1.1,0.1,1.5,0.3C63.3,4.3,63.7,4.6,64,5V0.2h1.6V12H64v-1.2c-0.3,0.4-0.7,0.8-1.2,1C62.2,12,61.7,12.2,61.2,12.2z M61.4,10.7
	c0.4,0,0.7-0.1,1-0.2c0.3-0.2,0.6-0.3,0.8-0.6s0.4-0.5,0.6-0.9C64,8.7,64,8.3,64,7.9s-0.1-0.7-0.2-1c-0.1-0.3-0.3-0.6-0.6-0.9
	c-0.2-0.3-0.5-0.4-0.8-0.6c-0.3-0.1-0.7-0.2-1-0.2c-0.4,0-0.7,0.1-1.1,0.2C60,5.6,59.7,5.8,59.5,6s-0.4,0.5-0.6,0.9
	c-0.1,0.3-0.2,0.7-0.2,1.1c0,0.4,0.1,0.7,0.2,1.1c0.1,0.3,0.3,0.6,0.6,0.9c0.2,0.3,0.5,0.4,0.8,0.6C60.6,10.6,61,10.7,61.4,10.7z
	 M75.4,12.2c-0.6,0-1.1-0.1-1.6-0.3s-0.9-0.6-1.2-1V12H71V0.2h1.6v4.9c0.3-0.4,0.7-0.7,1.2-1c0.5-0.2,1-0.4,1.6-0.4
	c0.5,0,1,0.1,1.5,0.3s0.9,0.5,1.3,0.9c0.4,0.4,0.7,0.8,0.9,1.3c0.2,0.5,0.3,1.1,0.3,1.7s-0.1,1.2-0.3,1.7c-0.2,0.5-0.5,1-0.9,1.3
	s-0.8,0.7-1.3,0.9S75.9,12.2,75.4,12.2z M75.2,10.7c0.4,0,0.7-0.1,1-0.2c0.3-0.1,0.6-0.3,0.8-0.6c0.2-0.3,0.4-0.5,0.6-0.9
	c0.1-0.3,0.2-0.7,0.2-1.1s-0.1-0.7-0.2-1.1C77.5,6.5,77.3,6.2,77,6c-0.2-0.3-0.5-0.4-0.8-0.6s-0.7-0.2-1-0.2c-0.4,0-0.7,0.1-1.1,0.2
	c-0.3,0.1-0.6,0.3-0.8,0.6c-0.2,0.2-0.4,0.5-0.6,0.9c-0.1,0.3-0.2,0.7-0.2,1c0,0.4,0.1,0.7,0.2,1.1c0.1,0.3,0.3,0.6,0.6,0.9
	c0.2,0.2,0.5,0.4,0.8,0.6C74.4,10.6,74.8,10.7,75.2,10.7z M81.2,15c-0.4,0-0.8-0.1-1.1-0.2c-0.4-0.1-0.7-0.3-0.9-0.5l1-1.4
	c0.1,0.1,0.3,0.3,0.5,0.3c0.2,0.1,0.4,0.1,0.6,0.1s0.4,0,0.6-0.1s0.3-0.1,0.5-0.3c0.1-0.1,0.3-0.3,0.4-0.4c0.1-0.2,0.3-0.4,0.4-0.7
	l0.2-0.3l-3.3-7.7h1.7L84,9.7l2.3-5.8H88l-3.6,8.5c-0.2,0.5-0.4,0.9-0.6,1.2s-0.4,0.6-0.7,0.8c-0.3,0.2-0.5,0.4-0.8,0.4
	C82,15,81.6,15,81.2,15z"/>
<rect x="91.4" y="4.7" class="st1" width="56.6" height="11.9"/>
<text transform="matrix(1 0 0 1 91.3789 10.6846)" class="st2 st3 st4">BALCODER</text>
</svg>
