<svg width="264" height="16" viewBox="0 0 264 16" fill="none" xmlns="http://www.w3.org/2000/svg">
<path d="M3.65256 15.6C3.16256 15.6 2.71256 15.53 2.30256 15.39C1.89256 15.25 1.53756 15.05 1.23756 14.79C0.937559 14.53 0.702559 14.215 0.532559 13.845C0.372559 13.485 0.292559 13.085 0.292559 12.645C0.292559 12.175 0.362559 11.785 0.502559 11.475C0.642559 11.165 0.817559 10.905 1.02756 10.695C1.23756 10.475 1.46756 10.285 1.71756 10.125C1.96756 9.955 2.19756 9.775 2.40756 9.585C2.61756 9.385 2.79256 9.155 2.93256 8.895C3.07256 8.625 3.14256 8.28 3.14256 7.86V7.71H4.59756V7.86C4.59756 8.42 4.53256 8.885 4.40256 9.255C4.27256 9.625 4.10756 9.935 3.90756 10.185C3.70756 10.435 3.49256 10.645 3.26256 10.815C3.04256 10.985 2.83256 11.155 2.63256 11.325C2.43256 11.485 2.26756 11.67 2.13756 11.88C2.00756 12.08 1.94256 12.34 1.94256 12.66C1.94256 13.11 2.10256 13.475 2.42256 13.755C2.75256 14.045 3.17256 14.19 3.68256 14.19C4.17256 14.19 4.56256 14.06 4.85256 13.8C5.15256 13.55 5.38256 13.235 5.54256 12.855L7.02756 13.41C6.79756 14.04 6.39756 14.56 5.82756 14.97C5.26756 15.39 4.54256 15.6 3.65256 15.6ZM3.86256 6.555C3.52256 6.555 3.24756 6.445 3.03756 6.225C2.82756 6.005 2.72256 5.73 2.72256 5.4C2.72256 5.07 2.82756 4.795 3.03756 4.575C3.25756 4.355 3.53256 4.245 3.86256 4.245C4.20256 4.245 4.47756 4.355 4.68756 4.575C4.90756 4.795 5.01756 5.07 5.01756 5.4C5.01756 5.73 4.90756 6.005 4.68756 6.225C4.47756 6.445 4.20256 6.555 3.86256 6.555ZM11.8993 7.38L8.02928 1.05H9.85928L12.7243 5.835L15.6043 1.05H17.4043L13.5193 7.395V12H11.8993V7.38ZM19.4128 12.165C18.9428 12.165 18.5278 12.105 18.1678 11.985C17.8178 11.865 17.5228 11.7 17.2828 11.49C17.0428 11.27 16.8578 11.015 16.7278 10.725C16.6078 10.425 16.5478 10.105 16.5478 9.765C16.5478 8.925 16.8678 8.27 17.5078 7.8C18.1578 7.32 19.0528 7.08 20.1928 7.08H22.5928V6.945C22.5928 6.405 22.4228 5.965 22.0828 5.625C21.7428 5.285 21.2128 5.115 20.4928 5.115C19.9528 5.115 19.4878 5.235 19.0978 5.475C18.7078 5.705 18.3978 6.02 18.1678 6.42L16.7278 5.58C17.1278 5.05 17.6378 4.61 18.2578 4.26C18.8878 3.91 19.6378 3.735 20.5078 3.735C21.0878 3.735 21.6028 3.815 22.0528 3.975C22.5128 4.125 22.8978 4.345 23.2078 4.635C23.5178 4.915 23.7528 5.255 23.9128 5.655C24.0728 6.055 24.1528 6.5 24.1528 6.99V12H22.5928V10.575C22.2728 11.055 21.8328 11.44 21.2728 11.73C20.7128 12.02 20.0928 12.165 19.4128 12.165ZM19.7578 10.755C20.0478 10.755 20.3328 10.715 20.6128 10.635C20.8928 10.555 21.1578 10.445 21.4078 10.305C21.6578 10.155 21.8828 9.975 22.0828 9.765C22.2928 9.555 22.4628 9.315 22.5928 9.045V8.37H20.2978C19.5478 8.37 19.0078 8.48 18.6778 8.7C18.3578 8.92 18.1978 9.23 18.1978 9.63C18.1978 9.98 18.3228 10.255 18.5728 10.455C18.8228 10.655 19.2178 10.755 19.7578 10.755ZM28.9926 3.9H30.5976V2.145L32.1876 1.11V3.9H34.4526V5.355H32.1876V9.345C32.1876 9.795 32.2826 10.12 32.4726 10.32C32.6726 10.52 32.9326 10.62 33.2526 10.62C33.5626 10.62 33.8376 10.515 34.0776 10.305L34.8426 11.655C34.6126 11.815 34.3526 11.935 34.0626 12.015C33.7826 12.105 33.4726 12.15 33.1326 12.15C32.3226 12.15 31.6976 11.935 31.2576 11.505C30.8176 11.075 30.5976 10.36 30.5976 9.36V5.355H28.9926V3.9ZM35.95 3.9H37.585V12H35.95V3.9ZM35.62 1.47C35.62 1.14 35.725 0.865 35.935 0.645C36.155 0.424999 36.43 0.314999 36.76 0.314999C37.1 0.314999 37.375 0.424999 37.585 0.645C37.805 0.865 37.915 1.14 37.915 1.47C37.915 1.8 37.805 2.075 37.585 2.295C37.375 2.515 37.1 2.625 36.76 2.625C36.42 2.625 36.145 2.515 35.935 2.295C35.725 2.075 35.62 1.8 35.62 1.47ZM43.456 12.165C42.806 12.165 42.216 12.06 41.686 11.85C41.166 11.63 40.716 11.335 40.336 10.965C39.956 10.585 39.661 10.14 39.451 9.63C39.251 9.12 39.151 8.57 39.151 7.98C39.151 7.38 39.256 6.825 39.466 6.315C39.686 5.795 39.986 5.345 40.366 4.965C40.746 4.585 41.191 4.285 41.701 4.065C42.211 3.845 42.766 3.735 43.366 3.735C43.966 3.735 44.516 3.84 45.016 4.05C45.526 4.25 45.966 4.535 46.336 4.905C46.706 5.275 46.996 5.715 47.206 6.225C47.416 6.725 47.521 7.275 47.521 7.875V8.55H40.711C40.831 9.21 41.131 9.74 41.611 10.14C42.091 10.53 42.706 10.725 43.456 10.725C44.026 10.725 44.501 10.605 44.881 10.365C45.271 10.125 45.586 9.81 45.826 9.42L47.161 10.215C46.771 10.805 46.276 11.28 45.676 11.64C45.076 11.99 44.336 12.165 43.456 12.165ZM43.366 5.16C42.716 5.16 42.161 5.35 41.701 5.73C41.241 6.1 40.931 6.58 40.771 7.17H45.886C45.766 6.53 45.481 6.035 45.031 5.685C44.591 5.335 44.036 5.16 43.366 5.16ZM49.0897 3.9H50.6797V5.025C50.9597 4.635 51.3147 4.325 51.7447 4.095C52.1847 3.855 52.6897 3.735 53.2597 3.735C53.7697 3.735 54.2297 3.82 54.6397 3.99C55.0597 4.15 55.4097 4.385 55.6897 4.695C55.9797 4.995 56.1997 5.37 56.3497 5.82C56.5097 6.26 56.5897 6.755 56.5897 7.305V12H54.9547V7.425C54.9547 6.735 54.7797 6.185 54.4297 5.775C54.0797 5.365 53.5647 5.16 52.8847 5.16C52.5747 5.16 52.2847 5.215 52.0147 5.325C51.7547 5.435 51.5247 5.595 51.3247 5.805C51.1347 6.005 50.9847 6.255 50.8747 6.555C50.7647 6.845 50.7097 7.17 50.7097 7.53V12H49.0897V3.9ZM62.4257 12.165C61.7757 12.165 61.1857 12.06 60.6557 11.85C60.1357 11.63 59.6857 11.335 59.3057 10.965C58.9257 10.585 58.6307 10.14 58.4207 9.63C58.2207 9.12 58.1207 8.57 58.1207 7.98C58.1207 7.38 58.2257 6.825 58.4357 6.315C58.6557 5.795 58.9557 5.345 59.3357 4.965C59.7157 4.585 60.1607 4.285 60.6707 4.065C61.1807 3.845 61.7357 3.735 62.3357 3.735C62.9357 3.735 63.4857 3.84 63.9857 4.05C64.4957 4.25 64.9357 4.535 65.3057 4.905C65.6757 5.275 65.9657 5.715 66.1757 6.225C66.3857 6.725 66.4907 7.275 66.4907 7.875V8.55H59.6807C59.8007 9.21 60.1007 9.74 60.5807 10.14C61.0607 10.53 61.6757 10.725 62.4257 10.725C62.9957 10.725 63.4707 10.605 63.8507 10.365C64.2407 10.125 64.5557 9.81 64.7957 9.42L66.1307 10.215C65.7407 10.805 65.2457 11.28 64.6457 11.64C64.0457 11.99 63.3057 12.165 62.4257 12.165ZM62.3357 5.16C61.6857 5.16 61.1307 5.35 60.6707 5.73C60.2107 6.1 59.9007 6.58 59.7407 7.17H64.8557C64.7357 6.53 64.4507 6.035 64.0007 5.685C63.5607 5.335 63.0057 5.16 62.3357 5.16ZM70.9844 12.165C70.1244 12.165 69.3994 12.015 68.8094 11.715C68.2294 11.415 67.7644 10.97 67.4144 10.38L68.8694 9.555C69.1194 9.935 69.4194 10.23 69.7694 10.44C70.1194 10.65 70.5494 10.755 71.0594 10.755C71.5894 10.755 71.9894 10.645 72.2594 10.425C72.5294 10.195 72.6644 9.925 72.6644 9.615C72.6644 9.435 72.6044 9.29 72.4844 9.18C72.3744 9.06 72.2244 8.965 72.0344 8.895C71.8444 8.815 71.6244 8.75 71.3744 8.7C71.1344 8.64 70.8794 8.58 70.6094 8.52C70.2694 8.45 69.9294 8.365 69.5894 8.265C69.2594 8.155 68.9594 8.015 68.6894 7.845C68.4194 7.665 68.1994 7.44 68.0294 7.17C67.8694 6.89 67.7894 6.545 67.7894 6.135C67.7894 5.825 67.8594 5.525 67.9994 5.235C68.1494 4.935 68.3594 4.675 68.6294 4.455C68.8994 4.225 69.2244 4.045 69.6044 3.915C69.9944 3.785 70.4294 3.72 70.9094 3.72C71.6694 3.72 72.3144 3.855 72.8444 4.125C73.3744 4.385 73.8144 4.755 74.1644 5.235L72.7694 6.03C72.5694 5.73 72.3194 5.495 72.0194 5.325C71.7194 5.155 71.3494 5.07 70.9094 5.07C70.4094 5.07 70.0394 5.17 69.7994 5.37C69.5594 5.57 69.4394 5.815 69.4394 6.105C69.4394 6.425 69.6094 6.65 69.9494 6.78C70.2994 6.91 70.7844 7.04 71.4044 7.17C71.7444 7.24 72.0844 7.33 72.4244 7.44C72.7644 7.54 73.0694 7.68 73.3394 7.86C73.6194 8.04 73.8444 8.27 74.0144 8.55C74.1944 8.83 74.2844 9.18 74.2844 9.6C74.2844 9.9 74.2144 10.205 74.0744 10.515C73.9444 10.815 73.7444 11.09 73.4744 11.34C73.2044 11.58 72.8594 11.78 72.4394 11.94C72.0294 12.09 71.5444 12.165 70.9844 12.165ZM82.6833 12.165C81.6033 12.165 80.7733 11.85 80.1933 11.22C79.6233 10.58 79.3383 9.7 79.3383 8.58V3.9H80.9883V8.475C80.9883 9.165 81.1583 9.715 81.4983 10.125C81.8383 10.525 82.3533 10.725 83.0433 10.725C83.3433 10.725 83.6233 10.67 83.8833 10.56C84.1533 10.45 84.3833 10.295 84.5733 10.095C84.7633 9.885 84.9133 9.635 85.0233 9.345C85.1333 9.055 85.1883 8.73 85.1883 8.37V3.9H86.8083V12H85.2183V10.89C84.9383 11.28 84.5783 11.59 84.1383 11.82C83.7083 12.05 83.2233 12.165 82.6833 12.165ZM88.6844 3.9H90.2744V5.025C90.5544 4.635 90.9094 4.325 91.3394 4.095C91.7794 3.855 92.2844 3.735 92.8544 3.735C93.3644 3.735 93.8244 3.82 94.2344 3.99C94.6544 4.15 95.0044 4.385 95.2844 4.695C95.5744 4.995 95.7944 5.37 95.9444 5.82C96.1044 6.26 96.1844 6.755 96.1844 7.305V12H94.5494V7.425C94.5494 6.735 94.3744 6.185 94.0244 5.775C93.6744 5.365 93.1594 5.16 92.4794 5.16C92.1694 5.16 91.8794 5.215 91.6094 5.325C91.3494 5.435 91.1194 5.595 90.9194 5.805C90.7294 6.005 90.5794 6.255 90.4694 6.555C90.3594 6.845 90.3044 7.17 90.3044 7.53V12H88.6844V3.9ZM100.55 12.165C100.08 12.165 99.6654 12.105 99.3054 11.985C98.9554 11.865 98.6604 11.7 98.4204 11.49C98.1804 11.27 97.9954 11.015 97.8654 10.725C97.7454 10.425 97.6854 10.105 97.6854 9.765C97.6854 8.925 98.0054 8.27 98.6454 7.8C99.2954 7.32 100.19 7.08 101.33 7.08H103.73V6.945C103.73 6.405 103.56 5.965 103.22 5.625C102.88 5.285 102.35 5.115 101.63 5.115C101.09 5.115 100.625 5.235 100.235 5.475C99.8454 5.705 99.5354 6.02 99.3054 6.42L97.8654 5.58C98.2654 5.05 98.7754 4.61 99.3954 4.26C100.025 3.91 100.775 3.735 101.645 3.735C102.225 3.735 102.74 3.815 103.19 3.975C103.65 4.125 104.035 4.345 104.345 4.635C104.655 4.915 104.89 5.255 105.05 5.655C105.21 6.055 105.29 6.5 105.29 6.99V12H103.73V10.575C103.41 11.055 102.97 11.44 102.41 11.73C101.85 12.02 101.23 12.165 100.55 12.165ZM100.895 10.755C101.185 10.755 101.47 10.715 101.75 10.635C102.03 10.555 102.295 10.445 102.545 10.305C102.795 10.155 103.02 9.975 103.22 9.765C103.43 9.555 103.6 9.315 103.73 9.045V8.37H101.435C100.685 8.37 100.145 8.48 99.8154 8.7C99.4954 8.92 99.3354 9.23 99.3354 9.63C99.3354 9.98 99.4604 10.255 99.7104 10.455C99.9604 10.655 100.355 10.755 100.895 10.755ZM114.675 12.165C114.075 12.165 113.515 12.055 112.995 11.835C112.475 11.615 112.025 11.315 111.645 10.935C111.265 10.555 110.965 10.11 110.745 9.6C110.535 9.09 110.43 8.54 110.43 7.95C110.43 7.35 110.54 6.795 110.76 6.285C110.98 5.775 111.28 5.33 111.66 4.95C112.04 4.57 112.485 4.275 112.995 4.065C113.515 3.845 114.07 3.735 114.66 3.735C115.11 3.735 115.53 3.795 115.92 3.915C116.32 4.035 116.685 4.205 117.015 4.425C117.345 4.645 117.635 4.91 117.885 5.22C118.145 5.52 118.35 5.85 118.5 6.21L117.045 6.84C116.835 6.34 116.52 5.95 116.1 5.67C115.69 5.39 115.21 5.25 114.66 5.25C114.28 5.25 113.93 5.32 113.61 5.46C113.29 5.6 113.01 5.795 112.77 6.045C112.54 6.285 112.355 6.57 112.215 6.9C112.085 7.23 112.02 7.58 112.02 7.95C112.02 8.32 112.085 8.67 112.215 9C112.355 9.33 112.545 9.62 112.785 9.87C113.025 10.11 113.305 10.3 113.625 10.44C113.955 10.58 114.31 10.65 114.69 10.65C115.27 10.65 115.76 10.495 116.16 10.185C116.57 9.865 116.875 9.47 117.075 9L118.545 9.615C118.225 10.365 117.735 10.98 117.075 11.46C116.415 11.93 115.615 12.165 114.675 12.165ZM123.142 12.165C122.062 12.165 121.232 11.85 120.652 11.22C120.082 10.58 119.797 9.7 119.797 8.58V3.9H121.447V8.475C121.447 9.165 121.617 9.715 121.957 10.125C122.297 10.525 122.812 10.725 123.502 10.725C123.802 10.725 124.082 10.67 124.342 10.56C124.612 10.45 124.842 10.295 125.032 10.095C125.222 9.885 125.372 9.635 125.482 9.345C125.592 9.055 125.647 8.73 125.647 8.37V3.9H127.267V12H125.677V10.89C125.397 11.28 125.037 11.59 124.597 11.82C124.167 12.05 123.682 12.165 123.142 12.165ZM133.134 12.165C132.484 12.165 131.894 12.06 131.364 11.85C130.844 11.63 130.394 11.335 130.014 10.965C129.634 10.585 129.339 10.14 129.129 9.63C128.929 9.12 128.829 8.57 128.829 7.98C128.829 7.38 128.934 6.825 129.144 6.315C129.364 5.795 129.664 5.345 130.044 4.965C130.424 4.585 130.869 4.285 131.379 4.065C131.889 3.845 132.444 3.735 133.044 3.735C133.644 3.735 134.194 3.84 134.694 4.05C135.204 4.25 135.644 4.535 136.014 4.905C136.384 5.275 136.674 5.715 136.884 6.225C137.094 6.725 137.199 7.275 137.199 7.875V8.55H130.389C130.509 9.21 130.809 9.74 131.289 10.14C131.769 10.53 132.384 10.725 133.134 10.725C133.704 10.725 134.179 10.605 134.559 10.365C134.949 10.125 135.264 9.81 135.504 9.42L136.839 10.215C136.449 10.805 135.954 11.28 135.354 11.64C134.754 11.99 134.014 12.165 133.134 12.165ZM133.044 5.16C132.394 5.16 131.839 5.35 131.379 5.73C130.919 6.1 130.609 6.58 130.449 7.17H135.564C135.444 6.53 135.159 6.035 134.709 5.685C134.269 5.335 133.714 5.16 133.044 5.16ZM138.767 3.9H140.357V5.025C140.637 4.635 140.992 4.325 141.422 4.095C141.862 3.855 142.367 3.735 142.937 3.735C143.447 3.735 143.907 3.82 144.317 3.99C144.737 4.15 145.087 4.385 145.367 4.695C145.657 4.995 145.877 5.37 146.027 5.82C146.187 6.26 146.267 6.755 146.267 7.305V12H144.632V7.425C144.632 6.735 144.457 6.185 144.107 5.775C143.757 5.365 143.242 5.16 142.562 5.16C142.252 5.16 141.962 5.215 141.692 5.325C141.432 5.435 141.202 5.595 141.002 5.805C140.812 6.005 140.662 6.255 140.552 6.555C140.442 6.845 140.387 7.17 140.387 7.53V12H138.767V3.9ZM147.235 3.9H148.84V2.145L150.43 1.11V3.9H152.695V5.355H150.43V9.345C150.43 9.795 150.525 10.12 150.715 10.32C150.915 10.52 151.175 10.62 151.495 10.62C151.805 10.62 152.08 10.515 152.32 10.305L153.085 11.655C152.855 11.815 152.595 11.935 152.305 12.015C152.025 12.105 151.715 12.15 151.375 12.15C150.565 12.15 149.94 11.935 149.5 11.505C149.06 11.075 148.84 10.36 148.84 9.36V5.355H147.235V3.9ZM156.698 12.165C156.228 12.165 155.813 12.105 155.453 11.985C155.103 11.865 154.808 11.7 154.568 11.49C154.328 11.27 154.143 11.015 154.013 10.725C153.893 10.425 153.833 10.105 153.833 9.765C153.833 8.925 154.153 8.27 154.793 7.8C155.443 7.32 156.338 7.08 157.478 7.08H159.878V6.945C159.878 6.405 159.708 5.965 159.368 5.625C159.028 5.285 158.498 5.115 157.778 5.115C157.238 5.115 156.773 5.235 156.383 5.475C155.993 5.705 155.683 6.02 155.453 6.42L154.013 5.58C154.413 5.05 154.923 4.61 155.543 4.26C156.173 3.91 156.923 3.735 157.793 3.735C158.373 3.735 158.888 3.815 159.338 3.975C159.798 4.125 160.183 4.345 160.493 4.635C160.803 4.915 161.038 5.255 161.198 5.655C161.358 6.055 161.438 6.5 161.438 6.99V12H159.878V10.575C159.558 11.055 159.118 11.44 158.558 11.73C157.998 12.02 157.378 12.165 156.698 12.165ZM157.043 10.755C157.333 10.755 157.618 10.715 157.898 10.635C158.178 10.555 158.443 10.445 158.693 10.305C158.943 10.155 159.168 9.975 159.368 9.765C159.578 9.555 159.748 9.315 159.878 9.045V8.37H157.583C156.833 8.37 156.293 8.48 155.963 8.7C155.643 8.92 155.483 9.23 155.483 9.63C155.483 9.98 155.608 10.255 155.858 10.455C156.108 10.655 156.503 10.755 157.043 10.755ZM165.216 8.64C165.216 8.08 165.281 7.615 165.411 7.245C165.541 6.875 165.706 6.565 165.906 6.315C166.106 6.065 166.316 5.855 166.536 5.685C166.766 5.515 166.981 5.35 167.181 5.19C167.381 5.02 167.546 4.835 167.676 4.635C167.806 4.425 167.871 4.16 167.871 3.84C167.871 3.39 167.706 3.025 167.376 2.745C167.056 2.455 166.641 2.31 166.131 2.31C165.641 2.31 165.246 2.44 164.946 2.7C164.656 2.95 164.431 3.265 164.271 3.645L162.786 3.09C163.016 2.46 163.411 1.94 163.971 1.53C164.541 1.11 165.271 0.9 166.161 0.9C166.651 0.9 167.101 0.97 167.511 1.11C167.921 1.25 168.276 1.45 168.576 1.71C168.876 1.97 169.106 2.285 169.266 2.655C169.436 3.015 169.521 3.415 169.521 3.855C169.521 4.325 169.451 4.715 169.311 5.025C169.171 5.335 168.996 5.6 168.786 5.82C168.576 6.03 168.346 6.22 168.096 6.39C167.846 6.55 167.616 6.73 167.406 6.93C167.196 7.12 167.021 7.35 166.881 7.62C166.741 7.89 166.671 8.23 166.671 8.64V8.79H165.216V8.64ZM165.951 12.255C165.611 12.255 165.331 12.145 165.111 11.925C164.901 11.705 164.796 11.43 164.796 11.1C164.796 10.77 164.901 10.495 165.111 10.275C165.331 10.055 165.611 9.945 165.951 9.945C166.291 9.945 166.566 10.055 166.776 10.275C166.986 10.495 167.091 10.77 167.091 11.1C167.091 11.43 166.981 11.705 166.761 11.925C166.551 12.145 166.281 12.255 165.951 12.255Z" fill="#566865"/>
<path d="M174.864 1.05H177.009V12H174.864V1.05ZM178.784 3.9H180.854V4.92C181.114 4.55 181.444 4.26 181.844 4.05C182.254 3.84 182.714 3.735 183.224 3.735C184.184 3.735 184.944 4.035 185.504 4.635C186.074 5.225 186.359 6.05 186.359 7.11V12H184.244V7.425C184.244 6.845 184.104 6.39 183.824 6.06C183.554 5.72 183.144 5.55 182.594 5.55C182.104 5.55 181.694 5.725 181.364 6.075C181.034 6.415 180.869 6.9 180.869 7.53V12H178.784V3.9ZM187.954 3.9H190.069V12H187.954V3.9ZM187.684 1.62C187.684 1.23 187.809 0.91 188.059 0.659999C188.309 0.399999 188.624 0.269999 189.004 0.269999C189.404 0.269999 189.724 0.399999 189.964 0.659999C190.214 0.91 190.339 1.23 190.339 1.62C190.339 2 190.214 2.315 189.964 2.565C189.724 2.815 189.404 2.94 189.004 2.94C188.614 2.94 188.294 2.815 188.044 2.565C187.804 2.315 187.684 2 187.684 1.62ZM195.694 12.165C195.084 12.165 194.519 12.055 193.999 11.835C193.479 11.615 193.029 11.315 192.649 10.935C192.269 10.555 191.969 10.11 191.749 9.6C191.539 9.09 191.434 8.54 191.434 7.95C191.434 7.35 191.539 6.795 191.749 6.285C191.969 5.775 192.269 5.33 192.649 4.95C193.039 4.57 193.489 4.275 193.999 4.065C194.519 3.845 195.079 3.735 195.679 3.735C196.149 3.735 196.589 3.8 196.999 3.93C197.409 4.05 197.779 4.225 198.109 4.455C198.449 4.675 198.744 4.945 198.994 5.265C199.254 5.575 199.464 5.92 199.624 6.3L197.719 7.065C197.549 6.625 197.289 6.285 196.939 6.045C196.589 5.795 196.179 5.67 195.709 5.67C195.399 5.67 195.109 5.73 194.839 5.85C194.569 5.97 194.334 6.135 194.134 6.345C193.934 6.545 193.774 6.785 193.654 7.065C193.544 7.345 193.489 7.64 193.489 7.95C193.489 8.26 193.544 8.55 193.654 8.82C193.774 9.09 193.934 9.33 194.134 9.54C194.344 9.74 194.584 9.9 194.854 10.02C195.124 10.14 195.414 10.2 195.724 10.2C196.204 10.2 196.614 10.07 196.954 9.81C197.304 9.55 197.564 9.21 197.734 8.79L199.669 9.585C199.319 10.335 198.809 10.955 198.139 11.445C197.479 11.925 196.664 12.165 195.694 12.165ZM200.889 3.9H203.004V12H200.889V3.9ZM200.619 1.62C200.619 1.23 200.744 0.91 200.994 0.659999C201.244 0.399999 201.559 0.269999 201.939 0.269999C202.339 0.269999 202.659 0.399999 202.899 0.659999C203.149 0.91 203.274 1.23 203.274 1.62C203.274 2 203.149 2.315 202.899 2.565C202.659 2.815 202.339 2.94 201.939 2.94C201.549 2.94 201.229 2.815 200.979 2.565C200.739 2.315 200.619 2 200.619 1.62ZM207.144 12.165C206.254 12.165 205.559 11.945 205.059 11.505C204.569 11.055 204.324 10.47 204.324 9.75C204.324 8.9 204.649 8.235 205.299 7.755C205.949 7.275 206.839 7.035 207.969 7.035H210.099V6.93C210.099 6.49 209.954 6.135 209.664 5.865C209.374 5.595 208.934 5.46 208.344 5.46C207.884 5.46 207.499 5.555 207.189 5.745C206.879 5.925 206.629 6.185 206.439 6.525L204.534 5.58C204.944 5.04 205.454 4.6 206.064 4.26C206.684 3.91 207.449 3.735 208.359 3.735C209.559 3.735 210.484 4.025 211.134 4.605C211.784 5.185 212.109 5.99 212.109 7.02V12H210.114V10.755C209.824 11.175 209.414 11.515 208.884 11.775C208.364 12.035 207.784 12.165 207.144 12.165ZM207.744 10.455C207.994 10.455 208.239 10.42 208.479 10.35C208.719 10.28 208.944 10.18 209.154 10.05C209.364 9.92 209.549 9.765 209.709 9.585C209.879 9.405 210.014 9.205 210.114 8.985V8.55H208.209C207.589 8.55 207.144 8.64 206.874 8.82C206.614 9 206.484 9.25 206.484 9.57C206.484 10.16 206.904 10.455 207.744 10.455ZM220.447 12.165C219.477 12.165 218.682 11.995 218.062 11.655C217.452 11.305 216.987 10.805 216.667 10.155L218.662 9.375C219.022 10.105 219.642 10.47 220.522 10.47C220.942 10.47 221.262 10.385 221.482 10.215C221.702 10.035 221.812 9.825 221.812 9.585C221.812 9.435 221.762 9.315 221.662 9.225C221.562 9.125 221.422 9.045 221.242 8.985C221.072 8.915 220.872 8.855 220.642 8.805C220.412 8.755 220.167 8.705 219.907 8.655C219.567 8.585 219.222 8.5 218.872 8.4C218.532 8.3 218.222 8.16 217.942 7.98C217.672 7.8 217.452 7.575 217.282 7.305C217.112 7.025 217.027 6.67 217.027 6.24C217.027 5.9 217.107 5.575 217.267 5.265C217.427 4.955 217.652 4.685 217.942 4.455C218.232 4.225 218.577 4.045 218.977 3.915C219.387 3.775 219.842 3.705 220.342 3.705C221.202 3.705 221.902 3.86 222.442 4.17C222.982 4.47 223.442 4.89 223.822 5.43L221.932 6.195C221.762 5.925 221.547 5.715 221.287 5.565C221.037 5.415 220.722 5.34 220.342 5.34C219.932 5.34 219.627 5.415 219.427 5.565C219.237 5.705 219.142 5.89 219.142 6.12C219.142 6.38 219.302 6.565 219.622 6.675C219.942 6.775 220.397 6.89 220.987 7.02C221.327 7.09 221.667 7.175 222.007 7.275C222.357 7.375 222.672 7.52 222.952 7.71C223.242 7.89 223.477 8.125 223.657 8.415C223.837 8.705 223.927 9.065 223.927 9.495C223.927 9.815 223.857 10.135 223.717 10.455C223.577 10.765 223.362 11.05 223.072 11.31C222.782 11.56 222.417 11.765 221.977 11.925C221.547 12.085 221.037 12.165 220.447 12.165ZM229.24 12.165C228.59 12.165 228 12.06 227.47 11.85C226.94 11.63 226.485 11.33 226.105 10.95C225.735 10.57 225.45 10.125 225.25 9.615C225.05 9.105 224.95 8.555 224.95 7.965C224.95 7.375 225.055 6.825 225.265 6.315C225.485 5.795 225.785 5.345 226.165 4.965C226.545 4.585 226.995 4.285 227.515 4.065C228.035 3.845 228.595 3.735 229.195 3.735C229.805 3.735 230.365 3.84 230.875 4.05C231.385 4.26 231.825 4.55 232.195 4.92C232.565 5.28 232.855 5.715 233.065 6.225C233.275 6.735 233.38 7.29 233.38 7.89V8.67H226.945C227.085 9.2 227.355 9.62 227.755 9.93C228.165 10.23 228.67 10.38 229.27 10.38C229.75 10.38 230.155 10.285 230.485 10.095C230.815 9.895 231.08 9.63 231.28 9.3L232.975 10.29C232.565 10.86 232.065 11.315 231.475 11.655C230.885 11.995 230.14 12.165 229.24 12.165ZM229.195 5.49C228.665 5.49 228.21 5.63 227.83 5.91C227.45 6.19 227.175 6.57 227.005 7.05H231.325C231.185 6.54 230.93 6.155 230.56 5.895C230.19 5.625 229.735 5.49 229.195 5.49ZM237.966 12.165C236.996 12.165 236.201 11.995 235.581 11.655C234.971 11.305 234.506 10.805 234.186 10.155L236.181 9.375C236.541 10.105 237.161 10.47 238.041 10.47C238.461 10.47 238.781 10.385 239.001 10.215C239.221 10.035 239.331 9.825 239.331 9.585C239.331 9.435 239.281 9.315 239.181 9.225C239.081 9.125 238.941 9.045 238.761 8.985C238.591 8.915 238.391 8.855 238.161 8.805C237.931 8.755 237.686 8.705 237.426 8.655C237.086 8.585 236.741 8.5 236.391 8.4C236.051 8.3 235.741 8.16 235.461 7.98C235.191 7.8 234.971 7.575 234.801 7.305C234.631 7.025 234.546 6.67 234.546 6.24C234.546 5.9 234.626 5.575 234.786 5.265C234.946 4.955 235.171 4.685 235.461 4.455C235.751 4.225 236.096 4.045 236.496 3.915C236.906 3.775 237.361 3.705 237.861 3.705C238.721 3.705 239.421 3.86 239.961 4.17C240.501 4.47 240.961 4.89 241.341 5.43L239.451 6.195C239.281 5.925 239.066 5.715 238.806 5.565C238.556 5.415 238.241 5.34 237.861 5.34C237.451 5.34 237.146 5.415 236.946 5.565C236.756 5.705 236.661 5.89 236.661 6.12C236.661 6.38 236.821 6.565 237.141 6.675C237.461 6.775 237.916 6.89 238.506 7.02C238.846 7.09 239.186 7.175 239.526 7.275C239.876 7.375 240.191 7.52 240.471 7.71C240.761 7.89 240.996 8.125 241.176 8.415C241.356 8.705 241.446 9.065 241.446 9.495C241.446 9.815 241.376 10.135 241.236 10.455C241.096 10.765 240.881 11.05 240.591 11.31C240.301 11.56 239.936 11.765 239.496 11.925C239.066 12.085 238.556 12.165 237.966 12.165ZM242.739 3.9H244.854V12H242.739V3.9ZM242.469 1.62C242.469 1.23 242.594 0.91 242.844 0.659999C243.094 0.399999 243.409 0.269999 243.789 0.269999C244.189 0.269999 244.509 0.399999 244.749 0.659999C244.999 0.91 245.124 1.23 245.124 1.62C245.124 2 244.999 2.315 244.749 2.565C244.509 2.815 244.189 2.94 243.789 2.94C243.399 2.94 243.079 2.815 242.829 2.565C242.589 2.315 242.469 2 242.469 1.62ZM250.495 12.165C249.885 12.165 249.32 12.055 248.8 11.835C248.28 11.615 247.825 11.315 247.435 10.935C247.055 10.545 246.755 10.095 246.535 9.585C246.325 9.075 246.22 8.53 246.22 7.95C246.22 7.37 246.325 6.825 246.535 6.315C246.755 5.795 247.055 5.345 247.435 4.965C247.825 4.585 248.28 4.285 248.8 4.065C249.32 3.845 249.885 3.735 250.495 3.735C251.095 3.735 251.655 3.845 252.175 4.065C252.705 4.285 253.16 4.585 253.54 4.965C253.93 5.345 254.235 5.795 254.455 6.315C254.675 6.825 254.785 7.37 254.785 7.95C254.785 8.53 254.675 9.075 254.455 9.585C254.235 10.095 253.935 10.545 253.555 10.935C253.175 11.315 252.72 11.615 252.19 11.835C251.67 12.055 251.105 12.165 250.495 12.165ZM250.51 10.2C250.82 10.2 251.11 10.14 251.38 10.02C251.65 9.9 251.885 9.74 252.085 9.54C252.285 9.34 252.44 9.105 252.55 8.835C252.67 8.555 252.73 8.255 252.73 7.935C252.73 7.625 252.67 7.33 252.55 7.05C252.44 6.77 252.285 6.53 252.085 6.33C251.885 6.13 251.65 5.97 251.38 5.85C251.11 5.73 250.82 5.67 250.51 5.67C250.2 5.67 249.91 5.73 249.64 5.85C249.37 5.97 249.135 6.13 248.935 6.33C248.735 6.53 248.575 6.77 248.455 7.05C248.345 7.33 248.29 7.625 248.29 7.935C248.29 8.255 248.345 8.555 248.455 8.835C248.575 9.105 248.735 9.34 248.935 9.54C249.135 9.74 249.37 9.9 249.64 10.02C249.91 10.14 250.2 10.2 250.51 10.2ZM251.215 0.329999H253.33L251.065 2.895H249.505L251.215 0.329999ZM256.143 3.9H258.213V4.92C258.473 4.55 258.803 4.26 259.203 4.05C259.613 3.84 260.073 3.735 260.583 3.735C261.543 3.735 262.303 4.035 262.863 4.635C263.433 5.225 263.718 6.05 263.718 7.11V12H261.603V7.425C261.603 6.845 261.463 6.39 261.183 6.06C260.913 5.72 260.503 5.55 259.953 5.55C259.463 5.55 259.053 5.725 258.723 6.075C258.393 6.415 258.228 6.9 258.228 7.53V12H256.143V3.9Z" fill="#00A3FF"/>
</svg>
