<?xml version="1.0" encoding="utf-8"?>
<!-- Generator: Adobe Illustrator 24.0.2, SVG Export Plug-In . SVG Version: 6.00 Build 0)  -->
<svg version="1.1" id="Capa_1" xmlns="http://www.w3.org/2000/svg" xmlns:xlink="http://www.w3.org/1999/xlink" x="0px" y="0px"
	 viewBox="0 0 374 374" style="enable-background:new 0 0 374 374;" xml:space="preserve">
<style type="text/css">
	.st0{fill:#0F759B;}
	.st1{fill:#0B5D7A;}
	.st2{fill:#1285B0;}
	.st3{fill:#004838;}
	.st4{fill:#10769C;}
	.st5{fill:#0037E7;}
	.st6{fill:#4271E7;}
	.st7{fill:#0049FF;}
	.st8{opacity:0.1;fill:#1C75BC;enable-background:new    ;}
	.st9{fill:#B80707;}
	.st10{fill:#A90707;}
	.st11{fill:none;}
	.st12{fill:#3D6D79;}
	.st13{font-family:'NexaBold';}
	.st14{font-size:34px;}
</style>
<g>
	<g>
		<path class="st0" d="M135.1,128.9c0,0.1,0,0.3,0,0.4c0,0.3,0,0.6,0,0.8c0,0.3,0,0.6,0,0.9c0,0.3,0,0.5,0.1,0.7
			c0,0.3,0,0.6,0.1,0.9c0,0.2,0,0.4,0,0.6c0,0.4,0.1,0.8,0.1,1.2c0,0.2,0,0.5,0.1,0.7c0,0.1,0,0.2,0,0.2c0.1,0.7,0.2,1.5,0.3,2.2
			l0,0c0,0.1,0,0.2,0.1,0.3c0.1,0.6,0.2,1.3,0.3,1.9c0,0.1,0,0.2,0.1,0.3c0.1,0.3,0.1,0.6,0.2,0.9c0.1,0.4,0.1,0.7,0.2,1.1
			c0,0.2,0.1,0.4,0.1,0.6c0.1,0.3,0.1,0.7,0.2,1c0,0.2,0.1,0.5,0.2,0.7c0.1,0.3,0.1,0.6,0.2,0.9c0.1,0.3,0.2,0.7,0.2,1
			c0,0.2,0.1,0.3,0.1,0.5c0.1,0.4,0.2,0.8,0.3,1.2c0.1,0.3,0.2,0.6,0.2,0.9c0,0.1,0,0.1,0.1,0.2c0.2,0.8,0.4,1.5,0.7,2.3l0,0
			c0,0.1,0.1,0.2,0.1,0.2c0.2,0.7,0.4,1.3,0.6,2c0,0.1,0.1,0.2,0.1,0.3c0.1,0.3,0.2,0.5,0.3,0.8c0.1,0.4,0.2,0.7,0.4,1.1
			c0.1,0.2,0.2,0.5,0.2,0.7c0.1,0.3,0.2,0.6,0.3,0.9c0.1,0.2,0.1,0.4,0.2,0.6c0.2,0.4,0.3,0.8,0.5,1.2c0.1,0.2,0.2,0.5,0.3,0.7
			c0,0.1,0.1,0.2,0.1,0.2c0.3,0.7,0.6,1.4,0.9,2.1v0.1c0.1,0.2,0.2,0.4,0.3,0.6c0.2,0.5,0.5,1.1,0.7,1.6c0,0.1,0.1,0.2,0.1,0.2
			c0.2,0.5,0.4,0.9,0.7,1.4c0.2,0.3,0.3,0.7,0.5,1c0.1,0.1,0.1,0.2,0.1,0.3c0.1,0.2,0.2,0.5,0.3,0.7c0.3,0.6,0.6,1.2,0.9,1.7
			c0.1,0.2,0.3,0.5,0.4,0.7c0.1,0.1,0.2,0.3,0.2,0.5c0.1,0.3,0.3,0.5,0.5,0.8c0.3,0.5,0.5,1,0.8,1.4c0.2,0.4,0.5,0.8,0.7,1.2
			c0.3,0.5,0.5,0.9,0.8,1.4c0.1,0.1,0.2,0.3,0.3,0.4c0.2,0.3,0.4,0.7,0.6,1c0.2,0.2,0.3,0.5,0.5,0.8c0.5,0.7,0.9,1.4,1.4,2.1
			c0.6,0.9,1.2,1.8,1.8,2.6l0.1,0.1c0.4,0.6,0.8,1.1,1.2,1.6c0.1,0.2,0.2,0.3,0.4,0.5l0,0c0.5,0.7,1,1.4,1.6,2c0,0,0,0.1,0.1,0.1
			c0.2,0.2,0.4,0.4,0.5,0.7c0.3,0.4,0.7,0.8,1,1.2c0.1,0.1,0.1,0.1,0.2,0.2c0.2,0.3,0.5,0.6,0.7,0.8c0.3,0.3,0.5,0.6,0.8,0.9
			c0.1,0.1,0.2,0.2,0.3,0.3c0.3,0.3,0.5,0.6,0.8,0.8c0.2,0.2,0.4,0.5,0.7,0.7c0.1,0.1,0.3,0.2,0.4,0.4c0.3,0.3,0.6,0.6,0.9,0.9
			c0.2,0.2,0.4,0.4,0.6,0.6c0.2,0.2,0.3,0.3,0.5,0.4c0.3,0.3,0.6,0.5,0.9,0.8c0.2,0.2,0.3,0.3,0.5,0.5l0,0c0.2,0.2,0.4,0.3,0.6,0.5
			c0.3,0.3,0.6,0.5,0.8,0.8c0.1,0.1,0.3,0.2,0.4,0.4c0.2,0.2,0.5,0.4,0.7,0.6c0.3,0.2,0.5,0.4,0.8,0.7c0.1,0.1,0.2,0.2,0.3,0.2
			c0.3,0.2,0.6,0.5,0.9,0.7c0.2,0.2,0.5,0.4,0.7,0.5c0.1,0,0.1,0.1,0.2,0.1c0.6,0.4,1.2,0.8,1.7,1.2l0,0l0,0l0,0l0,0
			c0.1,0,0.1,0.1,0.1,0.1c0.5,0.4,1,0.7,1.6,1c0.1,0.1,0.3,0.2,0.4,0.3c0.4,0.3,0.9,0.5,1.3,0.8c0.2,0.1,0.3,0.2,0.5,0.3
			s0.4,0.2,0.7,0.4c0.2,0.1,0.3,0.2,0.5,0.3c0.3,0.1,0.6,0.3,0.8,0.4c0.2,0.1,0.4,0.2,0.6,0.3c0.1,0,0.2,0.1,0.2,0.1
			c0.5,0.3,1.1,0.5,1.6,0.7h0.1c0.5,0.2,1.1,0.5,1.6,0.7l0,0l0,0l0,0c0.1,0,0.1,0.1,0.2,0.1c0.2,0.1,0.4,0.1,0.6,0.2
			c0.3,0.1,0.6,0.2,0.8,0.3c0.1,0,0.3,0.1,0.4,0.1c0.2,0.1,0.5,0.1,0.7,0.2c0.2,0.1,0.4,0.1,0.6,0.2c0.2,0.1,0.4,0.1,0.6,0.1
			c0.2,0.1,0.5,0.1,0.7,0.2c0.1,0,0.3,0.1,0.4,0.1c0.2,0,0.4,0.1,0.7,0.1c0.3,0.1,0.6,0.1,0.8,0.1c0.1,0,0.2,0,0.3,0.1
			c0.2,0,0.4,0,0.7,0.1c0.3,0,0.6,0.1,0.9,0.1c0.1,0,0.2,0,0.3,0c0.2,0,0.4,0,0.6,0c0.4,0,0.7,0,1,0c0.1,0,0.2,0,0.3,0
			c0.4,0,0.8,0,1.1,0c0.1,0,0.1,0,0.1,0c0.3,0,0.6,0,0.9-0.1c0.2,0,0.3,0,0.5-0.1c0.1,0,0.3,0,0.4-0.1c0.5-0.1,1-0.1,1.4-0.2l0,0
			c0.1,0,0.3-0.1,0.4-0.1c0.4-0.1,0.8-0.2,1.2-0.3c0.2-0.1,0.4-0.1,0.5-0.2c0.2-0.1,0.5-0.2,0.7-0.2c0.1,0,0.1-0.1,0.2-0.1
			c0.4-0.1,0.7-0.3,1.1-0.5c0.2-0.1,0.4-0.2,0.5-0.2c0.5-0.3,1-0.6,1.5-0.9c7.8-4.9,15.6-9.9,23.4-14.8c-0.4,0.3-0.9,0.5-1.3,0.8
			c-0.1,0-0.1,0.1-0.2,0.1c-0.4,0.2-0.9,0.4-1.3,0.6c-0.1,0-0.2,0.1-0.2,0.1c-0.3,0.1-0.7,0.3-1,0.4c-0.2,0.1-0.4,0.1-0.5,0.2
			c-0.4,0.1-0.8,0.2-1.2,0.3c-0.1,0-0.2,0.1-0.4,0.1c-0.5,0.1-1,0.2-1.5,0.3c-0.1,0-0.3,0-0.4,0.1c-0.5,0.1-0.9,0.1-1.4,0.1h-0.1
			c-0.5,0-1,0-1.4,0s-0.7,0-1,0s-0.6,0-0.8-0.1c-0.3,0-0.6-0.1-0.9-0.1c-0.3,0-0.6-0.1-1-0.1c-0.3,0-0.5-0.1-0.8-0.1
			c-0.3-0.1-0.7-0.1-1.1-0.2c-0.2-0.1-0.5-0.1-0.7-0.2c-0.4-0.1-0.8-0.2-1.2-0.3c-0.2-0.1-0.5-0.1-0.7-0.2c-0.4-0.1-0.8-0.3-1.2-0.4
			c-0.2-0.1-0.4-0.1-0.6-0.2c-0.6-0.2-1.2-0.5-1.9-0.8l0,0c-0.6-0.3-1.3-0.6-1.9-0.9c-0.2-0.1-0.4-0.2-0.6-0.3
			c-0.4-0.2-0.9-0.5-1.3-0.7c-0.2-0.1-0.4-0.2-0.7-0.4c-0.6-0.3-1.2-0.7-1.8-1.1c-0.7-0.4-1.3-0.9-2-1.3l-0.1-0.1
			c-0.6-0.4-1.3-0.9-1.9-1.4c-0.2-0.2-0.4-0.3-0.7-0.5c-0.4-0.3-0.9-0.7-1.3-1c-0.3-0.2-0.5-0.4-0.8-0.6c-0.4-0.3-0.8-0.6-1.1-1
			c-0.3-0.2-0.6-0.5-0.8-0.7c-0.4-0.3-0.7-0.6-1.1-1c-0.3-0.3-0.6-0.5-0.8-0.8c-0.4-0.3-0.7-0.7-1-1s-0.6-0.6-0.8-0.8
			c-0.3-0.4-0.7-0.7-1-1.1c-0.3-0.3-0.5-0.5-0.8-0.8c-0.4-0.4-0.7-0.8-1.1-1.2c-0.2-0.3-0.5-0.5-0.7-0.8c-0.4-0.5-0.8-1-1.2-1.5
			c-0.2-0.2-0.3-0.4-0.5-0.6c-0.6-0.7-1.1-1.4-1.7-2.1c-0.1-0.1-0.2-0.2-0.3-0.4c-0.5-0.6-0.9-1.2-1.4-1.8c-0.6-0.8-1.1-1.6-1.7-2.4
			c-0.5-0.8-1-1.6-1.6-2.4c-0.2-0.2-0.3-0.5-0.4-0.7c-0.3-0.5-0.6-1-0.9-1.5c-0.3-0.4-0.5-0.9-0.8-1.3c-0.2-0.4-0.5-0.8-0.7-1.2
			c-0.3-0.5-0.5-0.9-0.8-1.4c-0.2-0.4-0.5-0.9-0.7-1.3c-0.1-0.2-0.3-0.5-0.4-0.7c-0.3-0.6-0.6-1.2-0.9-1.8c-0.1-0.2-0.2-0.4-0.3-0.6
			c-0.2-0.5-0.5-0.9-0.7-1.4c-0.2-0.4-0.4-0.9-0.6-1.3c-0.3-0.6-0.6-1.3-0.8-1.9c-0.1-0.2-0.2-0.4-0.3-0.6c-0.3-0.8-0.7-1.6-1-2.5
			c-0.1-0.2-0.2-0.4-0.3-0.7c-0.2-0.6-0.5-1.2-0.7-1.8c-0.1-0.3-0.2-0.6-0.3-0.8c-0.2-0.6-0.4-1.2-0.6-1.8c-0.1-0.2-0.2-0.5-0.3-0.8
			c-0.3-0.8-0.5-1.5-0.7-2.3c0-0.1-0.1-0.2-0.1-0.3c-0.3-0.9-0.5-1.7-0.8-2.6c-0.1-0.3-0.1-0.5-0.2-0.8c-0.2-0.6-0.3-1.2-0.5-1.8
			c-0.1-0.3-0.2-0.6-0.2-1c-0.1-0.5-0.3-1.1-0.4-1.6c-0.1-0.3-0.1-0.7-0.2-1c-0.1-0.6-0.2-1.1-0.3-1.7c-0.1-0.3-0.1-0.6-0.2-0.9
			c-0.1-0.7-0.2-1.5-0.4-2.2c0-0.1,0-0.2,0-0.3c-0.1-0.8-0.2-1.7-0.3-2.5c0-0.2-0.1-0.5-0.1-0.7c-0.1-0.6-0.1-1.2-0.2-1.8
			c0-0.3,0-0.6-0.1-0.9c0-0.6-0.1-1.1-0.1-1.7c0-0.3,0-0.6,0-0.8c0-0.8,0-1.6,0-2.4s0-1.6,0.1-2.4c0-0.2,0-0.4,0-0.7
			c0-0.5,0.1-1.1,0.1-1.6c0-0.3,0.1-0.6,0.1-0.9c0.1-0.5,0.1-0.9,0.2-1.4c0-0.3,0.1-0.7,0.1-1c0.1-0.4,0.1-0.8,0.2-1.2
			c0.1-0.4,0.1-0.7,0.2-1.1c0.1-0.4,0.1-0.7,0.2-1.1c0.1-0.4,0.2-0.8,0.3-1.2c0.1-0.3,0.2-0.6,0.2-0.9c0.1-0.5,0.3-0.9,0.4-1.4
			c0.1-0.3,0.2-0.6,0.3-0.9c0-0.1,0.1-0.3,0.2-0.4c0.2-0.5,0.4-1,0.5-1.4c0-0.1,0.1-0.2,0.1-0.3c0.2-0.6,0.5-1.1,0.8-1.7l0,0
			c0.3-0.5,0.6-1.1,0.9-1.6c0.1-0.1,0.1-0.2,0.2-0.3c0.2-0.4,0.5-0.7,0.7-1.1c0.1-0.1,0.2-0.3,0.3-0.4c0.2-0.3,0.5-0.6,0.7-0.9
			c0.1-0.1,0.2-0.2,0.3-0.3c0.3-0.4,0.7-0.8,1-1.2c0.1-0.1,0.1-0.1,0.1-0.1c0.3-0.3,0.6-0.6,0.9-0.9c0.1-0.1,0.2-0.2,0.4-0.3
			c0.3-0.2,0.6-0.5,0.8-0.7c0.1-0.1,0.2-0.2,0.4-0.3c0.4-0.3,0.8-0.6,1.2-0.8c-7.8,4.9-15.6,9.9-23.4,14.8c-0.4,0.3-0.8,0.5-1.2,0.8
			c-0.1,0.1-0.2,0.2-0.3,0.3c-0.3,0.2-0.6,0.5-0.8,0.7c-0.1,0.1-0.2,0.2-0.4,0.3c-0.3,0.3-0.6,0.6-0.9,0.9c-0.1,0.1-0.1,0.1-0.1,0.2
			c-0.3,0.4-0.7,0.8-1,1.2c-0.1,0.1-0.2,0.2-0.3,0.4c-0.2,0.3-0.5,0.6-0.7,0.9c-0.1,0.1-0.2,0.3-0.3,0.4c-0.2,0.3-0.5,0.7-0.7,1.1
			c-0.1,0.1-0.1,0.2-0.2,0.3c0,0,0,0.1-0.1,0.1c-0.3,0.5-0.5,0.9-0.8,1.4c0,0,0,0,0,0.1c-0.2,0.5-0.5,1-0.7,1.5v0.1
			c0,0.1-0.1,0.2-0.1,0.3c-0.2,0.5-0.4,0.9-0.6,1.4c-0.1,0.1-0.1,0.3-0.2,0.4c0,0.1-0.1,0.2-0.1,0.3c-0.1,0.2-0.1,0.4-0.2,0.5
			c-0.2,0.5-0.3,0.9-0.4,1.4c0,0.1-0.1,0.2-0.1,0.4c-0.1,0.2-0.1,0.4-0.1,0.6c-0.1,0.4-0.2,0.8-0.3,1.2c0,0.2-0.1,0.3-0.1,0.5
			s-0.1,0.4-0.1,0.6c-0.1,0.3-0.1,0.7-0.2,1c0,0.2-0.1,0.4-0.1,0.6s-0.1,0.4-0.1,0.7c-0.1,0.3-0.1,0.6-0.1,1c0,0.2-0.1,0.3-0.1,0.5
			c0,0.3,0,0.6-0.1,0.8c0,0.3-0.1,0.6-0.1,0.9c0,0.1,0,0.2,0,0.4c0,0.4-0.1,0.8-0.1,1.3c0,0.2,0,0.4,0,0.7c0,0.1,0,0.1,0,0.2
			c0,0.7,0,1.4,0,2.1v0.1C135.1,127.5,135.1,128.2,135.1,128.9z"/>
		<g>
			<g>
				<path class="st1" d="M153.4,179.9c-0.2-0.3-0.3-0.5-0.5-0.8s-0.5-0.7-0.7-1c-0.1-0.1-0.2-0.3-0.3-0.4c-0.3-0.5-0.6-0.9-0.9-1.4
					c-0.3-0.4-0.5-0.8-0.8-1.2c-0.3-0.5-0.6-1-0.9-1.4l-0.5-0.8l-0.3-0.5c-0.1-0.2-0.3-0.5-0.4-0.7c-0.3-0.6-0.7-1.2-1-1.8
					c-0.1-0.2-0.2-0.4-0.4-0.7c0-0.1-0.1-0.2-0.2-0.3c-0.2-0.3-0.4-0.7-0.5-1c-0.2-0.5-0.5-0.9-0.7-1.4c0-0.1-0.1-0.2-0.1-0.2
					c-0.3-0.5-0.5-1.1-0.8-1.6c-0.1-0.2-0.2-0.4-0.3-0.6V164c-0.3-0.7-0.7-1.4-1-2.1c0-0.1-0.1-0.2-0.1-0.2
					c-0.1-0.2-0.2-0.5-0.3-0.7c-0.2-0.4-0.4-0.8-0.5-1.2c-0.1-0.2-0.2-0.4-0.2-0.6c-0.1-0.3-0.2-0.6-0.4-0.9
					c-0.1-0.2-0.2-0.5-0.3-0.7c-0.1-0.4-0.3-0.7-0.4-1.1c-0.1-0.3-0.2-0.5-0.3-0.8c0-0.1-0.1-0.2-0.1-0.3c-0.2-0.7-0.5-1.3-0.7-2
					c0-0.1-0.1-0.2-0.1-0.2l0,0c-0.3-0.8-0.5-1.5-0.7-2.3c0-0.1,0-0.1-0.1-0.2c-0.1-0.3-0.2-0.6-0.3-0.9c-0.1-0.4-0.2-0.8-0.4-1.3
					c0-0.1-0.1-0.3-0.1-0.5c-0.1-0.3-0.2-0.7-0.3-1s-0.2-0.6-0.2-0.9c-0.1-0.2-0.1-0.5-0.2-0.7c-0.1-0.3-0.2-0.7-0.2-1
					c0-0.2-0.1-0.4-0.1-0.6c-0.1-0.4-0.2-0.7-0.2-1.1c-0.1-0.3-0.1-0.6-0.2-0.9c0-0.1,0-0.2-0.1-0.3c-0.1-0.6-0.2-1.3-0.3-1.9
					c0-0.1,0-0.2-0.1-0.3c0,0,0,0,0-0.1c-0.1-0.7-0.2-1.5-0.3-2.2c0-0.1,0-0.2,0-0.2c0-0.2-0.1-0.5-0.1-0.7c0-0.4-0.1-0.8-0.1-1.2
					c0-0.2,0-0.4,0-0.6c0-0.3,0-0.6-0.1-0.9c0-0.2,0-0.5-0.1-0.7c0-0.3,0-0.6-0.1-1c0-0.3,0-0.6,0-0.8c0-0.1,0-0.3,0-0.4
					c0-0.7,0-1.3,0-2v-0.1c0-0.7,0-1.4,0.1-2.1c0-0.1,0-0.1,0-0.2c0-0.2,0-0.4,0-0.7c0-0.4,0-0.9,0.1-1.3c0-0.1,0-0.2,0-0.4
					c0-0.3,0.1-0.6,0.1-0.9s0-0.6,0.1-0.8c0-0.2,0-0.3,0.1-0.5c0-0.3,0.1-0.7,0.1-1c0-0.2,0.1-0.4,0.1-0.7c0-0.2,0.1-0.4,0.1-0.5
					c0.1-0.4,0.1-0.7,0.2-1.1c0-0.2,0.1-0.4,0.1-0.6s0.1-0.3,0.1-0.5c0.1-0.4,0.2-0.8,0.3-1.2c0.1-0.2,0.1-0.4,0.1-0.6
					c0-0.1,0.1-0.2,0.1-0.4c0.1-0.5,0.3-1,0.5-1.4c0.1-0.2,0.1-0.4,0.2-0.5c0-0.1,0.1-0.2,0.1-0.3c0.1-0.2,0.1-0.3,0.2-0.4
					c0.2-0.5,0.4-0.9,0.6-1.4c0-0.1,0.1-0.2,0.1-0.3v-0.1c0.3-0.5,0.5-1,0.8-1.5c0,0,0,0,0-0.1c0.3-0.5,0.6-1,0.9-1.4
					c0,0,0-0.1,0.1-0.1c0.1-0.1,0.1-0.2,0.2-0.3c0.3-0.4,0.5-0.7,0.8-1.1c0.1-0.1,0.2-0.3,0.3-0.4c0.2-0.3,0.5-0.6,0.8-0.9
					c0.1-0.1,0.2-0.2,0.3-0.3c0.4-0.4,0.7-0.8,1.1-1.2c0,0,0.1-0.1,0.2-0.1c0.3-0.3,0.7-0.6,1-0.9c0.1-0.1,0.2-0.2,0.4-0.3
					c0.3-0.2,0.6-0.5,0.9-0.7c0.1-0.1,0.3-0.2,0.4-0.3c0.4-0.3,0.9-0.6,1.3-0.9c0.3-0.2,0.6-0.3,0.9-0.5c8.3-4.8,16.5-9.5,24.8-14.3
					c-0.4,0.3-0.9,0.5-1.3,0.8c-0.1,0.1-0.3,0.2-0.4,0.3c-0.3,0.2-0.6,0.4-0.9,0.7c-0.1,0.1-0.3,0.2-0.4,0.3c-0.4,0.3-0.7,0.6-1,0.9
					c-0.1,0.1-0.1,0.1-0.2,0.1c-0.4,0.4-0.8,0.8-1.1,1.2c-0.1,0.1-0.2,0.2-0.3,0.3c-0.3,0.3-0.5,0.6-0.8,0.9
					c-0.1,0.1-0.2,0.3-0.3,0.4c-0.3,0.4-0.5,0.7-0.8,1.1c-0.1,0.1-0.1,0.2-0.2,0.3c-0.3,0.5-0.6,1-0.9,1.6l0,0
					c-0.3,0.5-0.6,1.1-0.9,1.7c0,0.1-0.1,0.2-0.1,0.3c-0.2,0.5-0.4,0.9-0.6,1.4c-0.1,0.1-0.1,0.3-0.2,0.4c-0.1,0.3-0.2,0.6-0.3,0.9
					c-0.2,0.5-0.3,0.9-0.5,1.4c-0.1,0.3-0.2,0.6-0.3,0.9c-0.1,0.4-0.2,0.8-0.3,1.2c-0.1,0.4-0.2,0.7-0.2,1.1
					c-0.1,0.4-0.1,0.7-0.2,1.1c-0.1,0.4-0.1,0.8-0.2,1.2c-0.1,0.3-0.1,0.6-0.1,1c-0.1,0.4-0.1,0.9-0.2,1.4c0,0.3-0.1,0.6-0.1,0.9
					c0,0.5-0.1,1.1-0.1,1.6c0,0.2,0,0.4,0,0.7c0,0.6-0.1,1.3-0.1,1.9c0,0.2,0,0.3,0,0.5c0,0.8,0,1.6,0,2.4c0,0.3,0,0.5,0,0.8
					c0,0.6,0.1,1.1,0.1,1.7c0,0.3,0,0.6,0.1,0.9c0.1,0.6,0.1,1.2,0.2,1.8c0,0.2,0,0.5,0.1,0.7c0.1,0.8,0.2,1.7,0.4,2.5
					c0,0.1,0,0.2,0.1,0.3c0.1,0.7,0.2,1.5,0.4,2.2c0.1,0.3,0.1,0.6,0.2,0.9c0.1,0.6,0.2,1.1,0.4,1.7c0.1,0.3,0.1,0.7,0.2,1
					c0.1,0.6,0.3,1.1,0.4,1.7c0.1,0.3,0.2,0.6,0.3,1c0.2,0.6,0.3,1.2,0.5,1.8c0.1,0.3,0.2,0.6,0.2,0.8c0.3,0.9,0.5,1.7,0.8,2.6
					c0,0.1,0.1,0.2,0.1,0.3c0.3,0.8,0.5,1.5,0.8,2.3c0.1,0.2,0.2,0.5,0.3,0.7c0.2,0.6,0.5,1.2,0.7,1.8c0.1,0.3,0.2,0.6,0.3,0.8
					c0.3,0.6,0.5,1.2,0.8,1.9c0.1,0.2,0.2,0.4,0.3,0.7c0.4,0.8,0.7,1.7,1.1,2.5c0.1,0.2,0.2,0.4,0.3,0.6c0.3,0.6,0.6,1.3,0.9,1.9
					c0.2,0.4,0.5,0.9,0.7,1.3c0.2,0.5,0.5,0.9,0.7,1.4c0.1,0.2,0.2,0.4,0.4,0.6c0.3,0.6,0.7,1.2,1,1.8c0.1,0.2,0.3,0.5,0.4,0.7
					c0.2,0.4,0.5,0.9,0.8,1.3c0.3,0.5,0.6,0.9,0.9,1.4c0.3,0.4,0.5,0.8,0.8,1.2c0.3,0.5,0.6,0.9,0.9,1.3c0.3,0.5,1,1.5,1.1,1.6
					c8.2,12.1,0.2,16.2-8.8,20.5C165.7,186.8,159.9,190.3,153.4,179.9z"/>
				<path class="st2" d="M153.9,177.7c-0.2-0.2-0.3-0.5-0.5-0.8s-0.4-0.7-0.6-1c-0.1-0.1-0.2-0.3-0.3-0.4c-0.3-0.5-0.6-0.9-0.8-1.4
					c-0.2-0.4-0.5-0.8-0.7-1.2c-0.3-0.5-0.5-1-0.8-1.4l-0.5-0.8l-0.2-0.5c-0.1-0.2-0.3-0.5-0.4-0.7c-0.3-0.6-0.6-1.2-0.9-1.8
					c-0.1-0.2-0.2-0.5-0.3-0.7c0-0.1-0.1-0.2-0.1-0.3c-0.2-0.3-0.3-0.7-0.5-1c-0.2-0.5-0.4-0.9-0.7-1.4c0-0.1-0.1-0.2-0.1-0.3
					c-0.3-0.5-0.5-1.1-0.7-1.6c-0.1-0.2-0.2-0.4-0.3-0.6v-0.1c-0.3-0.7-0.6-1.4-0.9-2.2c0-0.1-0.1-0.2-0.1-0.2
					c-0.1-0.2-0.2-0.5-0.3-0.7c-0.2-0.4-0.3-0.8-0.5-1.2c-0.1-0.2-0.2-0.4-0.2-0.6c-0.1-0.3-0.2-0.6-0.3-0.9
					c-0.1-0.2-0.2-0.5-0.2-0.7c-0.1-0.4-0.2-0.7-0.4-1.1c-0.1-0.3-0.2-0.6-0.3-0.8c0-0.1-0.1-0.2-0.1-0.3c-0.2-0.7-0.4-1.3-0.6-2
					c0-0.1-0.1-0.2-0.1-0.2l0,0c-0.2-0.8-0.5-1.5-0.7-2.3c0-0.1,0-0.1-0.1-0.2c-0.1-0.3-0.2-0.6-0.2-0.9c-0.1-0.4-0.2-0.8-0.3-1.2
					c0-0.2-0.1-0.3-0.1-0.5c-0.1-0.3-0.2-0.7-0.2-1c-0.1-0.3-0.2-0.6-0.2-0.9c-0.1-0.2-0.1-0.5-0.2-0.7c-0.1-0.3-0.1-0.7-0.2-1
					c0-0.2-0.1-0.4-0.1-0.6c-0.1-0.4-0.1-0.7-0.2-1.1c0-0.3-0.1-0.6-0.2-0.9c0-0.1,0-0.2-0.1-0.3c-0.1-0.6-0.2-1.3-0.3-1.9
					c0-0.1,0-0.2-0.1-0.3c0,0,0,0,0-0.1c-0.1-0.7-0.2-1.5-0.3-2.2c0-0.1,0-0.2,0-0.2c0-0.2-0.1-0.5-0.1-0.7c0-0.4-0.1-0.8-0.1-1.2
					c0-0.2,0-0.4,0-0.6c0-0.3,0-0.6-0.1-0.9c0-0.2,0-0.5-0.1-0.7c0-0.3,0-0.6-0.1-1c0-0.3,0-0.5,0-0.8c0-0.1,0-0.3,0-0.4
					c0-0.7,0-1.3,0-2v-0.1c0-0.7,0-1.4,0-2.1c0-0.1,0-0.1,0-0.2c0-0.2,0-0.4,0-0.7c0-0.4,0-0.9,0.1-1.3c0-0.1,0-0.2,0-0.4
					c0-0.3,0.1-0.6,0.1-0.9s0-0.6,0.1-0.8c0-0.2,0-0.3,0.1-0.5c0-0.3,0.1-0.6,0.1-1c0-0.2,0.1-0.4,0.1-0.7c0-0.2,0.1-0.4,0.1-0.6
					c0.1-0.4,0.1-0.7,0.2-1.1c0-0.2,0.1-0.4,0.1-0.6s0.1-0.3,0.1-0.5c0.1-0.4,0.2-0.8,0.3-1.2c0.1-0.2,0.1-0.4,0.1-0.6
					c0-0.1,0.1-0.2,0.1-0.4c0.1-0.5,0.3-1,0.4-1.4c0.1-0.2,0.1-0.4,0.2-0.5c0-0.1,0.1-0.2,0.1-0.3c0.1-0.1,0.1-0.3,0.2-0.4
					c0.2-0.5,0.4-0.9,0.5-1.4c0-0.1,0.1-0.2,0.1-0.3v-0.1c0.2-0.5,0.5-1,0.7-1.5c0,0,0,0,0-0.1c0.2-0.5,0.5-1,0.8-1.4
					c0,0,0-0.1,0.1-0.1c0.1-0.1,0.1-0.2,0.2-0.3c0.2-0.4,0.5-0.7,0.7-1.1c0.1-0.1,0.2-0.3,0.3-0.4c0.2-0.3,0.5-0.6,0.7-0.9
					c0.1-0.1,0.2-0.2,0.3-0.3c0.3-0.4,0.7-0.8,1-1.2c0.1-0.1,0.1-0.1,0.1-0.1c0.3-0.3,0.6-0.6,0.9-0.9c0.1-0.1,0.2-0.2,0.3-0.3
					c0.3-0.2,0.6-0.5,0.8-0.7c0.1-0.1,0.2-0.2,0.4-0.3c0.4-0.3,0.8-0.6,1.2-0.8c0.3-0.2,0.5-0.3,0.8-0.5c7.5-4.8,15.1-9.6,22.6-14.3
					c-0.4,0.3-0.8,0.5-1.2,0.8c-0.1,0.1-0.2,0.2-0.4,0.3c-0.3,0.2-0.6,0.4-0.8,0.7c-0.1,0.1-0.2,0.2-0.4,0.3
					c-0.3,0.3-0.6,0.6-0.9,0.9c0,0.1-0.1,0.1-0.1,0.1c-0.4,0.4-0.7,0.8-1,1.2c-0.1,0.1-0.2,0.2-0.3,0.3c-0.2,0.3-0.5,0.6-0.7,0.9
					c-0.1,0.1-0.2,0.3-0.3,0.4c-0.2,0.4-0.5,0.7-0.7,1.1c-0.1,0.1-0.1,0.2-0.2,0.3c-0.3,0.5-0.6,1-0.9,1.6l0,0
					c-0.3,0.5-0.5,1.1-0.8,1.7c0,0.1-0.1,0.2-0.1,0.3c-0.2,0.5-0.4,0.9-0.6,1.4c-0.1,0.1-0.1,0.3-0.2,0.4c-0.1,0.3-0.2,0.6-0.3,0.9
					c-0.2,0.5-0.3,0.9-0.4,1.4c-0.1,0.3-0.2,0.6-0.2,0.9c-0.1,0.4-0.2,0.8-0.3,1.2c-0.1,0.4-0.2,0.7-0.2,1.1
					c-0.1,0.3-0.1,0.7-0.2,1.1c-0.1,0.4-0.1,0.8-0.2,1.2c0,0.3-0.1,0.6-0.1,1c-0.1,0.4-0.1,0.9-0.2,1.3c0,0.3-0.1,0.6-0.1,0.9
					c0,0.5-0.1,1.1-0.1,1.6c0,0.2,0,0.4,0,0.7c0,0.6,0,1.3,0,1.9c0,0.2,0,0.4,0,0.5c0,0.8,0,1.6,0,2.4c0,0.3,0,0.6,0,0.8
					c0,0.6,0.1,1.1,0.1,1.7c0,0.3,0,0.6,0.1,0.9c0.1,0.6,0.1,1.2,0.2,1.8c0,0.2,0,0.5,0.1,0.7c0.1,0.8,0.2,1.7,0.3,2.5
					c0,0.1,0,0.2,0.1,0.3c0.1,0.7,0.2,1.5,0.4,2.2c0.1,0.3,0.1,0.6,0.2,0.9c0.1,0.6,0.2,1.1,0.3,1.7c0.1,0.3,0.1,0.7,0.2,1
					c0.1,0.6,0.2,1.1,0.4,1.7c0.1,0.3,0.2,0.6,0.2,1c0.1,0.6,0.3,1.2,0.5,1.8c0.1,0.3,0.1,0.6,0.2,0.8c0.2,0.9,0.5,1.7,0.7,2.6
					c0,0.1,0.1,0.2,0.1,0.3c0.2,0.8,0.5,1.5,0.7,2.3c0.1,0.3,0.2,0.5,0.3,0.8c0.2,0.6,0.4,1.2,0.6,1.8c0.1,0.3,0.2,0.6,0.3,0.8
					c0.2,0.6,0.5,1.2,0.7,1.9c0.1,0.2,0.2,0.4,0.3,0.7c0.3,0.8,0.7,1.7,1,2.5c0.1,0.2,0.2,0.4,0.3,0.6c0.3,0.6,0.6,1.3,0.8,1.9
					c0.2,0.4,0.4,0.9,0.6,1.3c0.2,0.5,0.4,0.9,0.7,1.4c0.1,0.2,0.2,0.4,0.3,0.6c0.3,0.6,0.6,1.2,0.9,1.8c0.1,0.2,0.2,0.5,0.4,0.7
					c0.2,0.4,0.5,0.9,0.7,1.3c0.3,0.5,0.5,0.9,0.8,1.4c0.2,0.4,0.5,0.8,0.7,1.2c0.3,0.5,0.5,0.9,0.8,1.3c0.3,0.5,1,1.5,1,1.6
					c7.7,12.3,0.3,16.3-8,20.5C163.5,185.4,158.4,184.9,153.9,177.7z"/>
				<g>
					<g>
						<path class="st3" d="M165.3,152.2c-0.1-0.2-0.2-0.5-0.3-0.7l-15.1,9.5c0,0.1,0.1,0.2,0.1,0.4c0,0.1,0.1,0.2,0.1,0.4l0.1,0.2
							l15.2-9.5L165.3,152.2z"/>
						<path class="st1" d="M164.9,151.3l-15.1,9.5l0.1,0.2c0,0.1,0.1,0.2,0.1,0.4c0,0.1,0.1,0.2,0.1,0.4l15.2-9.5
							c-0.1-0.2-0.2-0.5-0.3-0.7L164.9,151.3z"/>
					</g>
					<g>
						<path class="st3" d="M163.9,148.5c0-0.1-0.1-0.2-0.1-0.3c-0.1-0.1-0.1-0.3-0.2-0.4l-15,9.4v0.1l0,0c0,0.2,0.1,0.3,0.1,0.4
							c0,0.1,0,0.1,0.1,0.2c0,0.1,0,0.1,0.1,0.2l15-9.4L163.9,148.5z"/>
						<path class="st1" d="M163.6,147.6l-15,9.4l0.1,0.2v0.1l0,0c0,0.2,0.1,0.3,0.1,0.4c0,0.1,0,0.1,0.1,0.2l15-9.4
							c0-0.1-0.1-0.2-0.1-0.3c-0.1-0.1-0.1-0.3-0.2-0.4L163.6,147.6z"/>
					</g>
					<g>
						<path class="st3" d="M162.6,144.8c0,0.1,0,0.1,0.1,0.2l-14.8,9.3l-0.1-0.2c-0.1-0.3-0.2-0.5-0.2-0.8l14.8-9.3
							C162.4,144.3,162.5,144.6,162.6,144.8z"/>
						<path class="st1" d="M162.3,143.9l-14.8,9.3v0.2c0.1,0.3,0.2,0.5,0.2,0.8l14.8-9.3c-0.1-0.2-0.2-0.5-0.3-0.8L162.3,143.9z"/>
					</g>
					<g>
						<path class="st3" d="M161.3,141.1c-0.1-0.2-0.2-0.5-0.2-0.8l-14.6,9.2c0.1,0.3,0.1,0.5,0.2,0.8v0.2l14.7-9.2L161.3,141.1z"/>
						<path class="st1" d="M161,140.1l-14.6,9.2l0.1,0.2c0.1,0.3,0.1,0.5,0.2,0.8l14.7-9.2c-0.1-0.2-0.2-0.5-0.2-0.8L161,140.1z"/>
					</g>
					<g>
						<path class="st3" d="M160.2,137.4l-14.5,9.1v-0.2c0,0,0,0,0-0.1c-0.1-0.2-0.1-0.5-0.2-0.7l14.4-9.1c0.1,0.3,0.2,0.5,0.2,0.8
							l0,0C160.2,137.3,160.2,137.4,160.2,137.4z"/>
						<path class="st1" d="M159.9,136.3l-14.4,9.1v0.2c0.1,0.2,0.1,0.5,0.2,0.7c0,0,0,0,0,0.1l14.5-9.1l0,0
							c-0.1-0.3-0.2-0.5-0.2-0.8L159.9,136.3z"/>
					</g>
					<g>
						<path class="st3" d="M159.1,133.6l-14.3,9l-0.1-0.2c-0.1-0.3-0.1-0.5-0.2-0.8l0,0l14.2-8.9c0,0.1,0.1,0.2,0.1,0.3
							c0,0.2,0.1,0.3,0.1,0.5C159.1,133.5,159.1,133.5,159.1,133.6z"/>
						<path class="st1" d="M159.1,133.4l-14.3,9c-0.1-0.3-0.1-0.5-0.2-0.8l0,0v-0.2l14.2-8.9c0,0.1,0,0.1,0,0.2
							c0,0.1,0.1,0.2,0.1,0.3C159,133.1,159,133.3,159.1,133.4z"/>
					</g>
				</g>
			</g>
			<path class="st4" d="M240.3,161.4c0-0.1,0-0.2,0-0.4c0-0.3,0-0.5,0-0.8s0-0.6,0-1c0-0.2,0-0.5-0.1-0.7c0-0.3,0-0.6-0.1-0.9
				c0-0.2,0-0.4,0-0.6c0-0.4-0.1-0.8-0.1-1.2c0-0.2,0-0.5-0.1-0.7c0-0.1,0-0.2,0-0.2c-0.1-0.7-0.2-1.5-0.3-2.2c0,0,0,0,0-0.1
				s0-0.2-0.1-0.3c-0.1-0.6-0.2-1.3-0.3-1.9c0-0.1,0-0.2-0.1-0.3c-0.1-0.3-0.1-0.6-0.2-0.9c-0.1-0.4-0.1-0.7-0.2-1.1
				c0-0.2-0.1-0.4-0.1-0.6c-0.1-0.3-0.1-0.7-0.2-1c0-0.2-0.1-0.5-0.2-0.7c-0.1-0.3-0.1-0.6-0.2-0.9c-0.1-0.3-0.1-0.7-0.2-1
				c0-0.2-0.1-0.3-0.1-0.5c-0.1-0.4-0.2-0.8-0.3-1.2c-0.1-0.3-0.2-0.6-0.2-0.9c0-0.1,0-0.1-0.1-0.2c-0.2-0.8-0.4-1.5-0.7-2.3l0,0
				c0-0.1,0-0.2-0.1-0.2c-0.2-0.7-0.4-1.3-0.6-2c0-0.1-0.1-0.2-0.1-0.3c-0.1-0.3-0.2-0.6-0.3-0.8c-0.1-0.4-0.2-0.7-0.4-1.1
				c-0.1-0.2-0.2-0.5-0.2-0.7c-0.1-0.3-0.2-0.6-0.3-0.9c-0.1-0.2-0.1-0.4-0.2-0.6c-0.2-0.4-0.3-0.8-0.5-1.2
				c-0.1-0.2-0.2-0.5-0.3-0.7c0-0.1-0.1-0.1-0.1-0.2c-0.3-0.7-0.6-1.4-0.9-2.1v-0.1c-0.1-0.2-0.2-0.4-0.3-0.6
				c-0.2-0.5-0.5-1.1-0.7-1.6c0-0.1-0.1-0.2-0.1-0.3c-0.2-0.5-0.4-0.9-0.7-1.4c-0.2-0.3-0.3-0.7-0.5-1c-0.1-0.1-0.1-0.2-0.1-0.3
				c-0.1-0.2-0.2-0.5-0.3-0.7c-0.3-0.6-0.6-1.2-0.9-1.7c-0.1-0.2-0.3-0.5-0.4-0.7c-0.1-0.2-0.2-0.3-0.2-0.5
				c-0.1-0.3-0.3-0.6-0.5-0.8c-0.3-0.5-0.5-1-0.8-1.4c-0.2-0.4-0.5-0.8-0.7-1.2c-0.3-0.5-0.6-0.9-0.8-1.4c-0.1-0.1-0.2-0.3-0.3-0.4
				c-0.2-0.3-0.4-0.7-0.6-1c-0.2-0.2-0.3-0.5-0.5-0.8c-0.4-0.7-0.9-1.4-1.4-2.1c-0.6-0.9-1.2-1.8-1.8-2.6c0,0,0-0.1-0.1-0.1
				c-0.4-0.6-0.8-1.1-1.2-1.6c-0.1-0.2-0.2-0.3-0.4-0.5l0,0c-0.5-0.7-1-1.4-1.6-2c0,0,0-0.1-0.1-0.1c-0.2-0.2-0.4-0.4-0.5-0.7
				c-0.3-0.4-0.7-0.8-1-1.2c-0.1-0.1-0.1-0.1-0.2-0.2c-0.2-0.3-0.5-0.5-0.7-0.8c-0.3-0.3-0.5-0.6-0.8-0.9c-0.1-0.1-0.2-0.2-0.3-0.3
				c-0.3-0.3-0.5-0.6-0.8-0.8c-0.2-0.2-0.4-0.5-0.7-0.7c-0.1-0.1-0.2-0.2-0.4-0.4c-0.3-0.3-0.6-0.6-0.9-0.9
				c-0.2-0.2-0.4-0.4-0.6-0.6c-0.1-0.1-0.3-0.3-0.5-0.4c-0.3-0.3-0.6-0.5-0.9-0.8c-0.2-0.2-0.3-0.3-0.5-0.5l0,0
				c-0.2-0.2-0.4-0.3-0.6-0.5c-0.3-0.2-0.6-0.5-0.8-0.8c-0.1-0.1-0.3-0.3-0.4-0.4c-0.2-0.2-0.5-0.4-0.7-0.6
				c-0.3-0.2-0.5-0.4-0.8-0.7c-0.1-0.1-0.2-0.2-0.3-0.2c-0.3-0.2-0.6-0.5-0.9-0.7c-0.2-0.2-0.5-0.4-0.7-0.5c-0.1,0-0.1-0.1-0.2-0.1
				c-0.6-0.4-1.2-0.9-1.7-1.3l0,0l0,0l0,0l0,0c-0.1,0-0.1-0.1-0.1-0.1c-0.5-0.4-1-0.7-1.6-1c-0.1-0.1-0.3-0.2-0.4-0.3
				c-0.4-0.3-0.9-0.5-1.3-0.8c-0.2-0.1-0.3-0.2-0.5-0.3c-0.2-0.1-0.4-0.2-0.7-0.4c-0.2-0.1-0.3-0.2-0.5-0.3
				c-0.3-0.2-0.5-0.3-0.8-0.4c-0.2-0.1-0.4-0.2-0.6-0.3c-0.1,0-0.2-0.1-0.2-0.1c-0.5-0.3-1.1-0.5-1.6-0.7h-0.1
				c-0.5-0.2-1.1-0.5-1.6-0.7l0,0l0,0l0,0c-0.1,0-0.1-0.1-0.2-0.1c-0.2-0.1-0.4-0.1-0.6-0.2c-0.3-0.1-0.6-0.2-0.8-0.3
				c-0.1,0-0.3-0.1-0.4-0.1c-0.2-0.1-0.5-0.1-0.7-0.2s-0.4-0.1-0.6-0.2c-0.2-0.1-0.4-0.1-0.6-0.1c-0.2-0.1-0.5-0.1-0.7-0.2
				c-0.1,0-0.3-0.1-0.4-0.1c-0.2-0.1-0.4-0.1-0.7-0.1c-0.3-0.1-0.6-0.1-0.8-0.2c-0.1,0-0.2,0-0.3-0.1c-0.2,0-0.4,0-0.7-0.1
				c-0.3,0-0.6-0.1-0.9-0.1c-0.1,0-0.2,0-0.3,0c-0.2,0-0.4,0-0.6,0c-0.4,0-0.7,0-1,0c-0.1,0-0.2,0-0.3,0c-0.4,0-0.8,0-1.1,0h-0.1
				c-0.3,0-0.6,0-0.8,0.1c-0.2,0-0.3,0-0.5,0.1c-0.1,0-0.3,0-0.4,0c-0.5,0.1-1,0.2-1.4,0.3l0,0c-0.1,0-0.3,0.1-0.4,0.1
				c-0.4,0.1-0.8,0.2-1.1,0.3c-0.2,0.1-0.4,0.1-0.5,0.2c-0.2,0.1-0.5,0.2-0.7,0.3c-0.1,0-0.1,0.1-0.2,0.1c-0.4,0.1-0.7,0.3-1.1,0.5
				c-0.2,0.1-0.4,0.2-0.5,0.2c-0.5,0.3-1,0.6-1.5,0.9c-7.8,5-15.6,9.9-23.4,14.8c0.4-0.3,0.9-0.5,1.3-0.8c0.1,0,0.1-0.1,0.2-0.1
				c0.4-0.2,0.9-0.4,1.3-0.6c0.1,0,0.2-0.1,0.2-0.1c0.3-0.1,0.7-0.2,1-0.4c0.2-0.1,0.4-0.1,0.5-0.2c0.4-0.1,0.8-0.2,1.2-0.3
				c0.1,0,0.2-0.1,0.4-0.1c0.5-0.1,1-0.2,1.5-0.3c0.1,0,0.3,0,0.4-0.1c0.5-0.1,0.9-0.1,1.4-0.1h0.1c0.5,0,1,0,1.4,0c0.3,0,0.7,0,1,0
				s0.6,0,0.8,0.1c0.3,0,0.6,0.1,0.9,0.1c0.3,0,0.7,0.1,1,0.1s0.5,0.1,0.8,0.1c0.4,0.1,0.7,0.1,1.1,0.2c0.2,0.1,0.5,0.1,0.7,0.2
				c0.4,0.1,0.8,0.2,1.1,0.3c0.2,0.1,0.5,0.1,0.7,0.2c0.4,0.1,0.8,0.3,1.2,0.4c0.2,0.1,0.4,0.1,0.6,0.2c0.6,0.2,1.2,0.5,1.9,0.7l0,0
				c0.6,0.3,1.3,0.6,1.9,0.9c0.2,0.1,0.4,0.2,0.6,0.3c0.4,0.2,0.9,0.5,1.3,0.7c0.2,0.1,0.4,0.2,0.7,0.4c0.6,0.3,1.2,0.7,1.8,1.1
				c0.7,0.4,1.3,0.9,2,1.3l0.1,0.1c0.6,0.4,1.3,0.9,1.9,1.4c0.2,0.2,0.4,0.3,0.7,0.5c0.4,0.3,0.8,0.7,1.3,1c0.3,0.2,0.5,0.4,0.8,0.6
				c0.4,0.3,0.8,0.6,1.1,1c0.3,0.2,0.6,0.5,0.8,0.7c0.4,0.3,0.7,0.7,1.1,1c0.3,0.3,0.6,0.5,0.8,0.8c0.4,0.3,0.7,0.7,1,1
				s0.6,0.6,0.8,0.8c0.3,0.4,0.7,0.7,1,1.1c0.3,0.3,0.5,0.6,0.8,0.8c0.4,0.4,0.7,0.8,1.1,1.2c0.2,0.3,0.5,0.5,0.7,0.8
				c0.4,0.5,0.8,1,1.2,1.5c0.2,0.2,0.3,0.4,0.5,0.6c0.6,0.7,1.1,1.4,1.7,2.1c0.1,0.1,0.2,0.2,0.3,0.4c0.5,0.6,0.9,1.2,1.4,1.9
				c0.6,0.8,1.1,1.6,1.7,2.4c0.5,0.8,1,1.6,1.6,2.4c0.2,0.2,0.3,0.5,0.4,0.7c0.3,0.5,0.6,1,0.9,1.5c0.3,0.4,0.5,0.9,0.8,1.3
				c0.2,0.4,0.5,0.8,0.7,1.2c0.3,0.5,0.5,0.9,0.8,1.4c0.2,0.4,0.5,0.9,0.7,1.3c0.1,0.2,0.3,0.5,0.4,0.7c0.3,0.6,0.6,1.2,0.9,1.8
				c0.1,0.2,0.2,0.4,0.3,0.6c0.2,0.5,0.4,0.9,0.7,1.4c0.2,0.4,0.4,0.9,0.6,1.3c0.3,0.6,0.6,1.3,0.8,1.9c0.1,0.2,0.2,0.4,0.3,0.6
				c0.4,0.8,0.7,1.6,1,2.5c0.1,0.2,0.2,0.4,0.3,0.7c0.2,0.6,0.5,1.2,0.7,1.9c0.1,0.3,0.2,0.6,0.3,0.8c0.2,0.6,0.4,1.2,0.6,1.8
				c0.1,0.2,0.2,0.5,0.3,0.7c0.3,0.8,0.5,1.5,0.8,2.3c0,0.1,0.1,0.2,0.1,0.3c0.3,0.9,0.5,1.7,0.7,2.6c0.1,0.3,0.1,0.5,0.2,0.8
				c0.2,0.6,0.3,1.2,0.5,1.8c0.1,0.3,0.2,0.6,0.2,1c0.1,0.5,0.3,1.1,0.4,1.6c0.1,0.3,0.1,0.7,0.2,1c0.1,0.6,0.2,1.1,0.3,1.7
				c0.1,0.3,0.1,0.6,0.2,0.9c0.1,0.7,0.3,1.5,0.4,2.2c0,0.1,0,0.2,0.1,0.3c0.1,0.8,0.2,1.7,0.3,2.5c0,0.2,0.1,0.5,0.1,0.7
				c0.1,0.6,0.1,1.2,0.2,1.8c0,0.3,0,0.6,0.1,0.9c0,0.6,0.1,1.1,0.1,1.7c0,0.3,0,0.6,0,0.8c0,0.8,0,1.6,0,2.4c0,0.8,0,1.6,0,2.4
				c0,0.2,0,0.5,0,0.7c0,0.6-0.1,1.1-0.1,1.6c0,0.3-0.1,0.6-0.1,0.9c-0.1,0.5-0.1,0.9-0.2,1.4c0,0.3-0.1,0.6-0.1,1
				c-0.1,0.4-0.1,0.8-0.2,1.2c-0.1,0.4-0.1,0.7-0.2,1.1c-0.1,0.4-0.1,0.7-0.2,1.1c-0.1,0.4-0.2,0.8-0.3,1.2
				c-0.1,0.3-0.2,0.6-0.2,0.9c-0.1,0.5-0.3,0.9-0.4,1.4c-0.1,0.3-0.2,0.6-0.3,0.9c-0.1,0.1-0.1,0.3-0.2,0.4c-0.2,0.5-0.4,1-0.6,1.4
				c0,0.1-0.1,0.2-0.1,0.3c-0.3,0.6-0.5,1.1-0.8,1.7l0,0c-0.3,0.5-0.6,1.1-0.9,1.6c-0.1,0.1-0.1,0.2-0.2,0.3
				c-0.2,0.4-0.5,0.7-0.7,1.1c-0.1,0.1-0.2,0.3-0.3,0.4c-0.2,0.3-0.5,0.6-0.7,0.9c-0.1,0.1-0.2,0.2-0.3,0.3c-0.3,0.4-0.7,0.8-1,1.2
				c-0.1,0.1-0.1,0.1-0.1,0.1c-0.3,0.3-0.6,0.6-0.9,0.9c-0.1,0.1-0.2,0.2-0.4,0.3c-0.3,0.2-0.6,0.5-0.8,0.7
				c-0.1,0.1-0.2,0.2-0.4,0.3c-0.4,0.3-0.8,0.6-1.2,0.8c7.8-4.9,15.6-9.9,23.4-14.8c0.4-0.3,0.8-0.5,1.2-0.8
				c0.1-0.1,0.2-0.2,0.4-0.3c0.3-0.2,0.6-0.5,0.8-0.7c0.1-0.1,0.2-0.2,0.4-0.3c0.3-0.3,0.6-0.6,0.9-0.9l0.1-0.1
				c0.4-0.4,0.7-0.8,1-1.2c0.1-0.1,0.2-0.2,0.3-0.4c0.2-0.3,0.5-0.6,0.7-0.9c0.1-0.1,0.2-0.3,0.3-0.4c0.2-0.4,0.5-0.7,0.7-1.1
				c0.1-0.1,0.1-0.2,0.2-0.3v-0.1c0.3-0.5,0.5-0.9,0.8-1.4c0,0,0,0,0-0.1c0.3-0.5,0.5-1,0.7-1.6v-0.1c0-0.1,0.1-0.2,0.1-0.3
				c0.2-0.5,0.4-0.9,0.5-1.4c0.1-0.1,0.1-0.3,0.2-0.4c0-0.1,0.1-0.2,0.1-0.3c0.1-0.2,0.1-0.4,0.2-0.5c0.2-0.5,0.3-0.9,0.4-1.4
				c0-0.1,0.1-0.2,0.1-0.4c0.1-0.2,0.1-0.4,0.1-0.6c0.1-0.4,0.2-0.8,0.3-1.2c0-0.2,0.1-0.3,0.1-0.5s0.1-0.4,0.1-0.6
				c0.1-0.4,0.1-0.7,0.2-1.1c0-0.2,0.1-0.4,0.1-0.6c0-0.2,0.1-0.4,0.1-0.7c0.1-0.3,0.1-0.6,0.1-1c0-0.2,0-0.3,0.1-0.5
				c0-0.3,0.1-0.6,0.1-0.8c0-0.3,0.1-0.6,0.1-0.9c0-0.1,0-0.2,0-0.4c0-0.4,0-0.8,0.1-1.3c0-0.2,0-0.4,0-0.7c0-0.1,0-0.1,0-0.2
				c0-0.7,0-1.4,0.1-2.1v-0.1C240.3,162.8,240.3,162.1,240.3,161.4z"/>
			<path class="st2" d="M153.1,95.8c0.5-0.1,1-0.2,1.5-0.3c0.1,0,0.3,0,0.4-0.1c0.5-0.1,0.9-0.1,1.4-0.1h0.1c0.5,0,1,0,1.4,0
				c0.3,0,0.7,0,1,0s0.6,0,0.8,0.1c0.3,0,0.6,0.1,0.9,0.1c0.3,0,0.7,0.1,1,0.1s0.5,0.1,0.8,0.1c0.4,0.1,0.7,0.1,1.1,0.2
				c0.2,0.1,0.5,0.1,0.7,0.2c0.4,0.1,0.8,0.2,1.1,0.3c0.2,0.1,0.5,0.1,0.7,0.2c0.4,0.1,0.8,0.3,1.2,0.4c0.2,0.1,0.4,0.1,0.6,0.2
				c0.6,0.2,1.2,0.5,1.9,0.7l0,0c0.6,0.3,1.3,0.6,1.9,0.9c0.2,0.1,0.4,0.2,0.6,0.3c0.4,0.2,0.9,0.5,1.3,0.7c0.2,0.1,0.4,0.2,0.7,0.4
				c0.6,0.3,1.2,0.7,1.8,1.1c0.7,0.4,1.3,0.9,2,1.3l0.1,0.1c0.6,0.4,1.3,0.9,1.9,1.4c0.2,0.2,0.4,0.3,0.7,0.5c0.4,0.3,0.8,0.7,1.3,1
				c0.3,0.2,0.5,0.4,0.8,0.6c0.4,0.3,0.8,0.6,1.1,1c0.3,0.2,0.6,0.5,0.8,0.7c0.4,0.3,0.7,0.7,1.1,1c0.3,0.3,0.6,0.5,0.8,0.8
				c0.4,0.3,0.7,0.7,1,1s0.6,0.6,0.8,0.8c0.3,0.4,0.7,0.7,1,1.1c0.3,0.3,0.5,0.6,0.8,0.8c0.4,0.4,0.7,0.8,1.1,1.2
				c0.2,0.3,0.5,0.5,0.7,0.8c0.4,0.5,0.8,1,1.2,1.5c0.2,0.2,0.3,0.4,0.5,0.6c0.6,0.7,1.1,1.4,1.7,2.1c0.1,0.1,0.2,0.2,0.3,0.4
				c0.5,0.6,0.9,1.2,1.4,1.9c0.6,0.8,1.1,1.6,1.7,2.4c0.4,0.6,2.6,4,2.9,4.6l29.8-2.8c-0.1-0.2-0.2-0.4-0.3-0.6
				c0-0.1-0.1-0.2-0.1-0.3c-0.2-0.5-0.4-0.9-0.7-1.4c-0.2-0.3-0.3-0.7-0.5-1c-0.1-0.1-0.1-0.2-0.1-0.3c-0.1-0.2-0.2-0.5-0.3-0.7
				c-0.3-0.6-0.6-1.2-0.9-1.7c-0.1-0.2-0.3-0.5-0.4-0.7c-0.1-0.2-0.2-0.3-0.2-0.5c-0.1-0.3-0.3-0.6-0.5-0.8c-0.3-0.5-0.5-1-0.8-1.4
				c-0.2-0.4-0.5-0.8-0.7-1.2c-0.3-0.5-0.6-0.9-0.8-1.4c-0.1-0.1-0.2-0.3-0.3-0.4c-0.2-0.3-0.4-0.7-0.6-1c-0.2-0.2-0.3-0.5-0.5-0.8
				c-0.4-0.7-0.9-1.4-1.4-2.1c-0.6-0.9-1.2-1.8-1.8-2.6c0,0,0-0.1-0.1-0.1c-0.4-0.6-0.8-1.1-1.2-1.6c-0.1-0.2-0.2-0.3-0.4-0.5l0,0
				c-0.5-0.7-1-1.4-1.6-2c0,0,0-0.1-0.1-0.1c-0.2-0.2-0.4-0.4-0.5-0.7c-0.3-0.4-0.7-0.8-1-1.2c-0.1-0.1-0.1-0.1-0.2-0.2
				c-0.2-0.3-0.5-0.5-0.7-0.8c-0.3-0.3-0.5-0.6-0.8-0.9c-0.1-0.1-0.2-0.2-0.3-0.3c-0.3-0.3-0.5-0.6-0.8-0.8
				c-0.2-0.2-0.4-0.5-0.7-0.7c-0.1-0.1-0.2-0.2-0.4-0.4c-0.3-0.3-0.6-0.6-0.9-0.9c-0.2-0.2-0.4-0.4-0.6-0.6
				c-0.1-0.1-0.3-0.3-0.5-0.4c-0.3-0.3-0.6-0.5-0.9-0.8c-0.2-0.2-0.3-0.3-0.5-0.5s-0.4-0.3-0.6-0.5c-0.3-0.2-0.6-0.5-0.8-0.8
				c-0.1-0.1-0.3-0.3-0.4-0.4c-0.2-0.2-0.5-0.4-0.7-0.6c-0.3-0.2-0.5-0.4-0.8-0.7c-0.1-0.1-0.2-0.2-0.3-0.2
				c-0.3-0.2-0.6-0.5-0.9-0.7c-0.2-0.2-0.5-0.4-0.7-0.5c-0.1,0-0.1-0.1-0.2-0.1c-0.6-0.4-1.2-0.9-1.7-1.3l0,0
				c-0.1,0-0.1-0.1-0.1-0.1c-0.5-0.4-1-0.7-1.6-1c-0.1-0.1-0.3-0.2-0.4-0.3c-0.4-0.3-0.9-0.5-1.3-0.8c-0.2-0.1-0.3-0.2-0.5-0.3
				c-0.2-0.1-0.4-0.2-0.7-0.4c-0.2-0.1-0.3-0.2-0.5-0.3c-0.3-0.2-0.5-0.3-0.8-0.4c-0.2-0.1-0.4-0.2-0.6-0.3c-0.1,0-0.2-0.1-0.2-0.1
				c-0.5-0.3-1.1-0.5-1.6-0.7h-0.1c-0.5-0.2-1.1-0.5-1.6-0.7c-0.1,0-0.1-0.1-0.2-0.1c-0.2-0.1-0.4-0.1-0.6-0.2
				c-0.3-0.1-0.6-0.2-0.8-0.3c-0.1,0-0.3-0.1-0.4-0.1c-0.2-0.1-0.5-0.1-0.7-0.2s-0.4-0.1-0.6-0.2c-0.2-0.1-0.4-0.1-0.6-0.1
				c-0.2-0.1-0.5-0.1-0.7-0.2c-0.1,0-0.3-0.1-0.4-0.1c-0.2-0.1-0.4-0.1-0.7-0.1c-0.3-0.1-0.6-0.1-0.8-0.2c-0.1,0-0.2,0-0.3-0.1
				c-0.2,0-0.4,0-0.7-0.1c-0.3,0-0.6-0.1-0.9-0.1c-0.1,0-0.2,0-0.3,0c-0.2,0-0.4,0-0.6,0c-0.4,0-0.7,0-1,0c-0.1,0-0.2,0-0.3,0
				c-0.4,0-0.8,0-1.1,0h-0.1c-0.3,0-0.6,0-0.8,0.1c-0.2,0-0.3,0-0.5,0.1c-0.1,0-0.3,0-0.4,0c-0.5,0.1-1,0.2-1.4,0.3l0,0
				c-0.1,0-0.3,0.1-0.4,0.1c-0.4,0.1-0.8,0.2-1.1,0.3c-0.2,0.1-0.4,0.1-0.5,0.2c-0.2,0.1-0.5,0.2-0.7,0.3c-0.1,0-0.1,0.1-0.2,0.1
				c-0.4,0.1-0.7,0.3-1.1,0.5c-0.2,0.1-0.4,0.2-0.5,0.2c-0.5,0.3-1,0.6-1.5,0.9c-7.8,5-15.6,9.9-23.4,14.8c0.4-0.3,0.9-0.5,1.3-0.8
				c0.1,0,0.1-0.1,0.2-0.1c0.4-0.2,0.9-0.4,1.3-0.6c0.1,0,0.2-0.1,0.2-0.1c0.3-0.1,0.7-0.2,1-0.4c0.2-0.1,0.4-0.1,0.5-0.2
				c0.4-0.1,0.8-0.2,1.2-0.3C152.9,95.9,153,95.8,153.1,95.8z"/>
			<path class="st1" d="M176.1,101.4c-22.6-14.2-41-2.8-41,25.4c-0.1,28.2,18.2,62.6,40.8,76.8c22.6,14.2,41,2.8,41-25.4
				C217,150,198.7,115.6,176.1,101.4z M175.7,199.1c-20.5-12.9-37.1-44.1-37-69.7c0.1-25.6,16.8-36,37.3-23.1s37.1,44.1,37,69.8
				C212.9,201.7,196.3,212,175.7,199.1z"/>
			<g>
				<g>
					<g>
						<path class="st5" d="M201.7,128.6c1.2-0.7,23.5-13.9,23.7-14.2c0.1,0.1,0.5,0.8,0.6,1.1c0.2,0.3,0.4,0.7,0.6,1
							c0.1,0.2,2.2,4.1,2.4,4.6l0.4,0.8c0.1,0.2,0.2,0.3,0.2,0.5c0.1,0.3,0.2,0.5,0.4,0.8c0.3,0.6,0.6,1.2,0.8,1.8
							c0.1,0.2,0.2,0.5,0.3,0.7c0,0.1,0.1,0.2,0.1,0.3c0.2,0.3,0.3,0.7,0.5,1.1c0.2,0.5,0.4,0.9,0.6,1.4c0,0.1,0.1,0.2,0.1,0.3
							c0.2,0.6,0.4,1.1,0.7,1.7c0.1,0.2,0.2,0.4,0.3,0.6v0.1c0.3,0.7,0.6,1.5,0.8,2.2c0,0.1,0.1,0.2,0.1,0.2
							c0.1,0.2,0.2,0.5,0.3,0.7c0.1,0.4,0.3,0.8,0.4,1.2c0.1,0.2,0.1,0.4,0.2,0.6c0.1,0.3,0.2,0.6,0.3,0.9c0.1,0.2,0.2,0.5,0.2,0.7
							c0.1,0.4,0.2,0.7,0.3,1.1c0.1,0.3,0.2,0.6,0.3,0.8c0,0.1,0.1,0.2,0.1,0.3c0.2,0.7,0.4,1.4,0.6,2c0,0.1,0.1,0.2,0.1,0.2l0,0
							c0.2,0.8,0.4,1.6,0.6,2.3c0,0.1,0,0.1,0,0.2c0.1,0.3,0.1,0.6,0.2,0.9c0.1,0.4,0.2,0.9,0.3,1.3c0,0.2,0.1,0.3,0.1,0.5l0.2,1
							c0.1,0.3,0.1,0.6,0.2,0.9c0.1,0.2,0.1,0.5,0.1,0.8c0,0.2,0.1,0.3,0.1,0.5c-0.4,0.1-16.9,9.8-23.9,13.9c0-0.1,0-0.1,0-0.1
							c-0.1-0.6-0.2-1.1-0.3-1.7l0,0c-0.1-0.3-0.1-0.7-0.2-1c-0.1-0.6-0.3-1.2-0.4-1.8c-0.1-0.3-0.1-0.6-0.2-0.8
							c-0.2-0.9-0.4-1.7-0.7-2.6c0-0.1-0.1-0.2-0.1-0.3c-0.2-0.8-0.4-1.6-0.7-2.4c-0.1-0.3-0.2-0.5-0.2-0.8
							c-0.2-0.6-0.4-1.2-0.6-1.8c-0.1-0.3-0.2-0.6-0.3-0.9c-0.2-0.6-0.4-1.3-0.7-1.9c-0.1-0.2-0.2-0.5-0.2-0.7
							c-0.3-0.9-0.6-1.7-1-2.5c-0.1-0.2-0.2-0.4-0.3-0.6c-0.3-0.6-0.5-1.3-0.8-1.9c-0.2-0.5-0.4-0.9-0.6-1.4c-0.2-0.5-0.4-1-0.6-1.4
							c-0.1-0.2-0.2-0.4-0.3-0.6c-0.3-0.6-0.6-1.2-0.9-1.8l-0.4-0.7c-0.2-0.5-0.5-0.9-0.7-1.4s-0.5-1-0.7-1.4s-0.4-0.8-0.7-1.3
							c-0.2-0.5-0.5-0.9-0.8-1.4s-0.6-1-0.9-1.6C202.3,129.7,201.8,128.9,201.7,128.6L201.7,128.6z"/>
					</g>
					<g>
						<path class="st6" d="M238.9,149.3c0-0.2-0.1-0.5-0.1-0.7c-0.1-0.3-0.1-0.6-0.2-0.9l-0.2-1c0-0.2-0.1-0.3-0.1-0.5
							c-0.1-0.4-0.2-0.8-0.3-1.2c-0.1-0.3-0.1-0.6-0.2-0.9c0-0.1,0-0.1,0-0.2c-0.2-0.8-0.4-1.5-0.6-2.3l0,0c0-0.1-0.1-0.2-0.1-0.2
							c-0.2-0.7-0.4-1.3-0.6-2c0-0.1-0.1-0.2-0.1-0.3c-0.1-0.3-0.2-0.5-0.2-0.8c-0.1-0.3-0.2-0.7-0.3-1c-0.1-0.2-0.1-0.4-0.2-0.7
							c-0.1-0.3-0.2-0.6-0.3-0.9c-0.1-0.2-0.1-0.4-0.2-0.6c-0.1-0.4-0.3-0.8-0.4-1.2c-0.1-0.2-0.2-0.5-0.2-0.7
							c0-0.1-0.1-0.2-0.1-0.2c-0.3-0.7-0.5-1.4-0.8-2.1v-0.1c-0.1-0.2-0.2-0.4-0.3-0.6c-0.2-0.5-0.4-1.1-0.6-1.6
							c0-0.1-0.1-0.2-0.1-0.2c-0.2-0.5-0.4-0.9-0.6-1.4c-0.2-0.3-0.3-0.7-0.5-1c0-0.1-0.1-0.2-0.1-0.3c-0.1-0.2-0.2-0.4-0.3-0.7
							c-0.3-0.6-0.5-1.2-0.8-1.7c-0.1-0.2-0.2-0.5-0.4-0.7c-0.1-0.2-0.1-0.3-0.2-0.4l-0.4-0.8c-0.2-0.5-2.3-4.3-2.4-4.4
							c-0.2-0.3-0.4-0.7-0.6-1c-0.1-0.3-0.6-1-0.6-1c-0.2,0.3-22.9,13.7-22.9,13.7c0,0.1,0.6,1,0.6,1c0.3,0.5,0.6,1,0.9,1.5
							c0.3,0.4,0.5,0.9,0.7,1.3c0.2,0.4,0.4,0.8,0.7,1.2c0.2,0.5,0.5,0.9,0.7,1.4c0.2,0.4,0.4,0.9,0.7,1.3l0.3,0.7
							c0.3,0.6,0.6,1.2,0.8,1.8c0.1,0.2,0.2,0.4,0.3,0.6c0.2,0.5,0.4,0.9,0.6,1.4c0.2,0.4,0.4,0.9,0.6,1.3c0.3,0.6,0.5,1.2,0.8,1.9
							c0.1,0.2,0.2,0.4,0.3,0.6c0.3,0.8,0.6,1.6,0.9,2.4c0.1,0.2,0.2,0.4,0.2,0.7c0.2,0.6,0.4,1.2,0.6,1.8c0.1,0.3,0.2,0.6,0.3,0.8
							c0.2,0.6,0.4,1.2,0.6,1.8c0.1,0.2,0.2,0.5,0.2,0.7c0.2,0.8,0.4,1.5,0.7,2.3c0,0.1,0,0.2,0.1,0.2c0.2,0.8,0.4,1.7,0.6,2.5
							c0.1,0.3,0.1,0.5,0.2,0.8c0.1,0.6,0.3,1.2,0.4,1.7c0.1,0.3,0.1,0.6,0.2,1c0.1,0.5,0.2,1.1,0.3,1.6c0,0.1,0,0.1,0,0.1
							c6.7-4,22.7-13.3,23-13.4C239,149.6,239,149.5,238.9,149.3z"/>
					</g>
					<path class="st7" d="M215.4,164.6l-3.8-1.5c0,0-2.3-14.2-11-29.7l1.1-4.7C201.7,128.6,213.1,147,215.4,164.6z"/>
					<path class="st8" d="M202.8,128.6c0,0,11,19.6,13.2,34.6l23-13.4c0,0-11.4-9.6-16-12.5c-1.1-0.7-2.5-1.7-4.1-2.5
						c-2.4-1.2-4.3-2.3-6.4-3.3C207.5,129.3,202.8,128.6,202.8,128.6z"/>
				</g>
				<g>
					<path class="st9" d="M220.4,135.6c0,0,0.2-6.3,6-4.2c5.9,2.1,0.1,15.7,0.1,15.7s-11.4-0.8-12.4-6.1
						C213.2,135.5,217.2,134,220.4,135.6z"/>
					<path class="st10" d="M220.6,136.1c0,0,0.2-5.5,5.2-3.7c5.1,1.8,0.1,13.7,0.1,13.7s-10-0.7-10.8-5.4
						C214.4,136,217.9,134.6,220.6,136.1z"/>
				</g>
			</g>
		</g>
	</g>
	<rect x="38.1" y="241.5" class="st11" width="314" height="34"/>
	<text transform="matrix(1 0 0 1 38.0988 265.3015)" class="st12 st13 st14">Tu salud en la nube</text>
</g>
</svg>
