<svg width="374" height="374" viewBox="0 0 374 374" fill="none" xmlns="http://www.w3.org/2000/svg">
<path d="M289.618 142.186L289.337 142.037C287.246 140.988 285.262 140.769 283.966 140.769C281.428 140.769 277.771 141.5 274.461 144.88C273.816 144.118 273.079 143.443 272.262 142.871C270.336 141.476 268.109 140.769 265.64 140.769C265.578 140.769 265.519 140.773 265.457 140.78L265.415 140.787L265.284 140.78C265.201 140.776 265.121 140.769 265.052 140.769C262.513 140.769 258.856 141.5 255.542 144.88C254.898 144.118 254.161 143.443 253.343 142.871C251.418 141.476 249.191 140.769 246.722 140.769C246.656 140.769 246.591 140.776 246.525 140.78L246.48 140.787L246.334 140.78C246.244 140.773 246.154 140.769 246.078 140.769C243.54 140.769 239.883 141.5 236.572 144.88C235.928 144.118 235.191 143.443 234.373 142.871C232.448 141.476 230.221 140.769 227.752 140.769C227.541 140.769 227.333 140.78 227.132 140.797C226.596 136.597 224.909 132.978 222.118 130.034C218.361 125.965 213.145 123.725 207.431 123.725C204.91 123.725 198.504 124.251 192.413 129.002C192.212 128.708 192.018 128.448 191.814 128.206C189.653 125.633 186.384 124.154 182.844 124.154C182.339 124.154 181.83 124.185 181.328 124.244C181.483 119.902 179.932 116.491 176.705 114.091L176.525 113.963C173.73 112.003 170.79 111.791 169.654 111.791C167.157 111.791 164.74 112.522 162.465 113.963L162.264 114.094C158.943 116.338 157.52 119.192 156.799 121.529C152.402 113.973 146.186 109.897 142.757 108.1L142.684 108.062C135.378 104.322 128.04 103.536 123.171 103.536C105.295 103.536 88.9427 112.927 79.4265 128.659C75.7523 134.709 73.0616 141.746 71.6522 149.018L71.6279 149.153C68.1823 168.691 74.8693 185.625 89.0709 193.348C95.0064 196.655 101.925 198.331 109.634 198.331C123.122 198.331 136.046 192.7 146.037 182.467C147.64 180.781 149.122 179.001 150.556 177.054C150.684 177.228 150.812 177.39 150.94 177.543C153.132 180.157 156.394 181.657 159.892 181.657H210.077C211.584 181.657 213.1 181.373 214.541 180.829C214.015 181.965 213.665 183.052 213.474 184.119C212.536 189.438 215.279 194.726 220.168 196.991L220.878 197.278C221.789 197.6 223.219 198.026 225.086 198.026C228.407 198.026 231.599 196.8 234.069 194.57C234.359 194.307 234.643 194.026 234.931 193.711C236.06 195.107 237.493 196.229 239.135 196.987L239.845 197.275C240.756 197.597 242.186 198.023 244.052 198.023C247.373 198.023 250.563 196.797 253.032 194.57C253.312 194.317 253.593 194.044 253.87 193.742C254.999 195.121 256.425 196.232 258.053 196.987L258.763 197.275C259.674 197.597 261.104 198.023 262.97 198.023C266.291 198.023 269.484 196.797 271.953 194.567C273.716 192.977 274.758 191.221 275.52 189.94L292.974 160.765L293.109 160.536C294.061 158.995 295.093 157.104 295.502 154.784C296.391 149.756 293.971 144.575 289.618 142.186Z" fill="#7966FF"/>
<path d="M138.844 115.559C132.434 112.276 126.028 111.958 123.171 111.958C108.553 111.958 94.6947 119.69 86.6225 133.033C83.3396 138.435 81.0922 144.579 79.9217 150.615C77.3626 165.124 81.0887 179.423 93.171 185.989C99.8233 189.694 106.673 189.909 109.637 189.909C125.1 189.909 135.281 181.435 139.931 176.67C149.687 166.395 151.858 155.276 152.644 150.829C156.529 128.798 146.116 119.375 138.844 115.559ZM129.747 140.537C129.037 144.568 126.17 148.076 122.544 149.874L124.563 169.941H103.324L112.422 149.874C109.43 148.076 107.799 144.568 108.512 140.537C109.547 134.671 115.14 129.92 121.003 129.92C126.866 129.92 130.782 134.671 129.747 140.537Z" fill="white"/>
<path d="M159.992 160.685C160.827 161.436 161.776 161.544 162.205 161.544C163.119 161.544 163.982 161.222 164.775 160.685C166.596 159.504 166.998 157.835 167.393 155.903L168.851 147.626L175.312 158.538C176.209 160.148 177.092 161.547 179.295 161.547C181.445 161.547 182.702 160.204 183.211 159.452C183.575 158.915 183.859 158.216 183.953 157.679C184.198 156.284 183.513 154.992 182.886 153.97L177.276 144.942L182.91 140.427C184.344 139.298 185.663 138.224 185.968 136.503C186.384 134.138 185.047 132.58 182.844 132.58C181.071 132.58 179.742 133.708 178.291 134.945L169.782 142.362L172.739 125.595C173.027 123.659 173.214 121.993 171.694 120.864C170.928 120.328 170.035 120.22 169.657 120.22C168.691 120.22 167.826 120.542 166.981 121.079C165.149 122.315 164.84 123.766 164.435 125.754L159.071 156.173C158.791 158.053 158.59 159.504 159.992 160.685Z" fill="white"/>
<path d="M207.432 132.147C205.174 132.147 199.74 132.791 195.186 137.899C191.845 141.607 190.896 145.476 190.602 147.141C190.241 149.184 189.732 154.504 193.368 158.268C196.641 161.655 200.945 161.921 202.829 161.921C204.117 161.921 209.478 161.706 213.679 158.912C215.753 157.516 216.307 156.495 216.56 155.366C216.865 153.645 216.002 152.734 215.576 152.408C214.953 151.979 214.105 151.924 213.835 151.924C212.384 151.924 210.843 152.731 209.44 153.375C207.217 154.396 206.015 154.504 204.942 154.504C201.662 154.504 200.08 152.516 199.605 151.546C199.366 151.061 199.262 150.739 199.176 149.718L213.966 149.662C214.915 149.77 215.4 149.77 215.795 149.662C216.352 149.555 216.827 149.288 217.325 148.911C218.471 147.889 218.648 146.601 218.721 146.168C218.797 145.739 218.922 144.717 218.908 143.588C218.877 140.416 217.976 137.892 215.94 135.741C212.955 132.524 209.26 132.147 207.432 132.147ZM199.792 144.08C200.087 143.329 200.426 142.629 200.977 141.93C202.258 140.157 204.356 138.92 206.4 138.92C207.636 138.92 208.474 139.35 208.865 139.564C210.479 140.479 210.697 141.981 210.787 142.681C210.874 143.11 210.894 143.595 210.915 144.08H199.792Z" fill="white"/>
<path d="M285.566 149.569C284.926 149.247 284.288 149.191 283.966 149.191C281.494 149.191 280.206 151.02 279.714 151.664C279.361 152.149 279.059 152.63 278.758 153.115L271.746 165.156L269.252 153.385C268.916 151.934 268.574 150.535 267.372 149.732C266.662 149.195 266.014 149.195 265.64 149.195C265.537 149.195 265.433 149.198 265.329 149.209C265.221 149.198 265.128 149.195 265.052 149.195C262.579 149.195 261.291 151.023 260.799 151.667C260.446 152.152 260.145 152.634 259.843 153.118L252.831 165.159L250.338 153.388C250.002 151.938 249.659 150.538 248.457 149.735C247.744 149.198 247.1 149.198 246.726 149.198C246.615 149.198 246.501 149.205 246.39 149.212C246.272 149.202 246.168 149.198 246.085 149.198C243.612 149.198 242.324 151.027 241.833 151.671C241.479 152.156 241.178 152.637 240.877 153.122L233.864 165.163L231.371 153.392C231.035 151.941 230.692 150.542 229.491 149.739C228.781 149.202 228.133 149.202 227.759 149.202C226.145 149.202 224.31 150.168 223.347 151.674C222.911 152.318 222.817 152.859 222.759 153.181C222.551 154.362 222.81 155.331 223.06 156.353L227.776 175.323L223.365 182.363C223.219 182.578 222.004 184.299 221.775 185.587C221.508 187.09 222.301 188.704 223.69 189.348C224.144 189.507 224.556 189.618 225.093 189.618C226.329 189.618 227.544 189.133 228.438 188.326C229.331 187.52 229.961 186.391 230.571 185.369L243.761 163.32L246.743 175.319L242.331 182.36C242.186 182.574 240.97 184.295 240.742 185.584C240.475 187.087 241.268 188.7 242.657 189.344C243.114 189.504 243.522 189.615 244.059 189.615C245.295 189.615 246.511 189.13 247.404 188.323C248.298 187.516 248.928 186.387 249.538 185.366L262.69 163.383L265.658 175.316L261.246 182.356C261.1 182.571 259.885 184.292 259.656 185.58C259.39 187.083 260.183 188.697 261.571 189.341C262.025 189.5 262.437 189.611 262.974 189.611C264.21 189.611 265.426 189.126 266.319 188.319C267.213 187.513 267.843 186.384 268.452 185.362L285.75 156.446C285.913 156.124 286.986 154.618 287.215 153.33C287.471 151.879 286.841 150.265 285.566 149.569Z" fill="white"/>
<path d="M211.431 165.561H161.246C159.127 165.561 157.108 167.278 156.734 169.398C156.36 171.517 157.776 173.235 159.895 173.235H210.084C212.203 173.235 214.222 171.517 214.596 169.398C214.967 167.278 213.551 165.561 211.431 165.561Z" fill="white"/>
<path d="M51.2968 224.428H48.6962C47.5499 224.428 47.2209 223.593 47.3629 222.779C47.5084 221.945 48.2494 221.131 49.2779 221.131H58.0635C59.0885 221.131 59.5422 221.941 59.3967 222.779C59.2547 223.59 58.6279 224.428 57.4817 224.428H54.881L52.7686 236.413C52.5574 237.608 51.6743 238.276 50.6493 238.276C49.6242 238.276 48.9767 237.608 49.1879 236.413L51.2968 224.428Z" fill="#7966FF"/>
<path d="M57.1077 227.198C57.3085 226.052 58.1604 225.287 59.1647 225.287C60.1689 225.287 60.7507 226.052 60.5464 227.198L59.4659 233.334C59.2131 234.768 60.1481 235.554 61.2944 235.554C62.4406 235.554 63.6527 234.765 63.9055 233.334L64.9859 227.198C65.1868 226.052 66.0386 225.287 67.0429 225.287C68.0472 225.287 68.6289 226.052 68.4246 227.198L67.3303 233.407C66.7901 236.462 64.418 238.422 60.7888 238.422C57.1596 238.422 55.4766 236.465 56.0134 233.407L57.1077 227.198Z" fill="#7966FF"/>
<path d="M77.7088 221.661C77.9097 220.515 78.7616 219.749 79.7658 219.749C80.7701 219.749 81.3519 220.515 81.1475 221.661L78.5538 236.368C78.3529 237.514 77.501 238.28 76.4968 238.28C75.4925 238.28 74.9142 237.514 75.1151 236.368L77.7088 221.661Z" fill="#7966FF"/>
<path d="M83.0072 221.661C83.208 220.515 84.0599 219.749 85.0641 219.749C86.0684 219.749 86.6502 220.515 86.4459 221.661L83.8521 236.368C83.6513 237.514 82.7994 238.28 81.7951 238.28C80.7909 238.28 80.2126 237.514 80.4134 236.368L83.0072 221.661Z" fill="#7966FF"/>
<path d="M97.5655 236.032C97.4097 236.915 97.1707 238.276 95.5223 238.276C94.5215 238.276 94.2099 237.725 94.1337 236.818C93.0636 237.867 91.8932 238.418 90.5807 238.418C87.3567 238.418 85.3828 235.672 86.065 231.804C86.7299 228.033 89.7704 225.141 92.9217 225.141C94.1856 225.141 95.3388 225.643 95.9137 226.717C96.1561 225.882 96.9768 225.283 97.8114 225.283C99.4598 225.283 99.2173 226.644 99.0615 227.527L97.5655 236.032ZM91.6127 235.27C93.403 235.27 94.5839 233.456 94.8748 231.807C95.1657 230.159 94.6566 228.299 92.842 228.299C90.9547 228.299 89.7911 230.162 89.5002 231.807C89.2128 233.456 89.753 235.27 91.6127 235.27Z" fill="#7966FF"/>
<path d="M100.159 227.963C100.069 227.534 100.066 227.271 100.121 226.959C100.315 225.861 101.274 225.287 102.206 225.287C103.162 225.287 103.446 225.979 103.518 226.505L104.519 233.286H104.568L107.958 226.505C108.217 225.979 108.744 225.287 109.7 225.287C110.631 225.287 111.39 225.861 111.196 226.959C111.14 227.271 111.047 227.534 110.804 227.963L105.776 236.846C105.288 237.729 104.831 238.28 103.66 238.28C102.49 238.28 102.23 237.729 102.05 236.846L100.159 227.963Z" fill="#7966FF"/>
<path d="M113.869 232.929C113.81 234.623 115.078 235.412 116.678 235.412C118.444 235.412 119.905 234.027 120.812 234.027C121.553 234.027 122.09 234.768 121.959 235.506C121.699 236.984 118.388 238.418 115.836 238.418C111.968 238.418 109.887 235.603 110.555 231.804C111.171 228.317 114.26 225.141 117.89 225.141C121.612 225.141 123.475 228.531 122.97 231.395C122.79 232.42 122.246 232.922 121.197 232.922H113.869V232.929ZM119.67 230.637C119.742 229.134 118.987 228.012 117.387 228.012C115.86 228.012 114.627 229.182 114.202 230.637H119.67Z" fill="#7966FF"/>
<path d="M133.085 232.929C133.026 234.623 134.294 235.412 135.894 235.412C137.66 235.412 139.121 234.027 140.028 234.027C140.769 234.027 141.306 234.768 141.175 235.506C140.915 236.984 137.604 238.418 135.052 238.418C131.184 238.418 129.103 235.603 129.771 231.804C130.384 228.317 133.476 225.141 137.106 225.141C140.828 225.141 142.691 228.531 142.186 231.395C142.006 232.42 141.462 232.922 140.413 232.922H133.085V232.929ZM138.886 230.637C138.958 229.134 138.203 228.012 136.604 228.012C135.076 228.012 133.844 229.182 133.418 230.637H138.886Z" fill="#7966FF"/>
<path d="M144.146 227.198C144.347 226.052 145.199 225.287 146.203 225.287C147.086 225.287 147.574 225.764 147.557 226.551C148.388 225.619 149.5 225.141 151.124 225.141C153.821 225.141 155.525 226.859 155.009 229.771L153.846 236.361C153.645 237.507 152.793 238.273 151.789 238.273C150.784 238.273 150.206 237.507 150.407 236.361L151.463 230.37C151.744 228.77 150.878 228.005 149.635 228.005C148.225 228.005 147.259 229.03 147.024 230.37L145.967 236.361C145.767 237.507 144.915 238.273 143.91 238.273C142.906 238.273 142.328 237.507 142.529 236.361L144.146 227.198Z" fill="#7966FF"/>
<path d="M164.795 221.661C164.996 220.515 165.848 219.749 166.852 219.749C167.857 219.749 168.438 220.515 168.234 221.661L167.41 226.339C168.456 225.553 169.699 225.145 170.89 225.145C174.592 225.145 175.818 228.607 175.229 231.949C174.658 235.198 171.891 238.418 168.432 238.418C167.261 238.418 166.018 237.892 165.557 236.842C165.183 237.75 164.539 238.276 163.587 238.276C162.583 238.276 162.004 237.511 162.205 236.365L164.795 221.661ZM168.529 235.27C170.319 235.27 171.531 233.407 171.811 231.807C172.099 230.183 171.548 228.299 169.758 228.299C167.919 228.299 166.755 230.017 166.461 231.69C166.17 233.359 166.645 235.27 168.529 235.27Z" fill="#7966FF"/>
<path d="M177.518 227.198C177.719 226.052 178.571 225.287 179.575 225.287C180.58 225.287 181.161 226.052 180.957 227.198L179.877 233.334C179.624 234.768 180.559 235.554 181.705 235.554C182.851 235.554 184.063 234.765 184.316 233.334L185.397 227.198C185.598 226.052 186.449 225.287 187.454 225.287C188.458 225.287 189.04 226.052 188.835 227.198L187.741 233.407C187.201 236.462 184.829 238.422 181.2 238.422C177.57 238.422 175.887 236.465 176.424 233.407L177.518 227.198Z" fill="#7966FF"/>
<path d="M192.551 232.929C192.492 234.623 193.76 235.412 195.36 235.412C197.126 235.412 198.587 234.027 199.494 234.027C200.235 234.027 200.772 234.768 200.641 235.506C200.381 236.984 197.07 238.418 194.518 238.418C190.65 238.418 188.569 235.603 189.237 231.804C189.85 228.317 192.942 225.141 196.572 225.141C200.294 225.141 202.157 228.531 201.652 231.395C201.472 232.42 200.928 232.922 199.879 232.922H192.551V232.929ZM198.352 230.637C198.424 229.134 197.669 228.012 196.069 228.012C194.542 228.012 193.309 229.182 192.884 230.637H198.352Z" fill="#7966FF"/>
<path d="M203.612 227.198C203.813 226.052 204.665 225.287 205.669 225.287C206.552 225.287 207.04 225.764 207.023 226.551C207.854 225.619 208.966 225.141 210.59 225.141C213.287 225.141 214.991 226.859 214.475 229.771L213.312 236.361C213.111 237.507 212.259 238.273 211.255 238.273C210.25 238.273 209.672 237.507 209.873 236.361L210.929 230.37C211.21 228.77 210.344 228.005 209.101 228.005C207.691 228.005 206.725 229.03 206.49 230.37L205.433 236.361C205.232 237.507 204.381 238.273 203.376 238.273C202.372 238.273 201.794 237.507 201.995 236.361L203.612 227.198Z" fill="#7966FF"/>
<path d="M227.073 236.032C226.918 236.915 226.679 238.276 225.03 238.276C224.026 238.276 223.718 237.725 223.642 236.818C222.572 237.867 221.401 238.418 220.089 238.418C216.865 238.418 214.891 235.672 215.573 231.804C216.238 228.033 219.278 225.141 222.43 225.141C223.694 225.141 224.847 225.643 225.422 226.717C225.664 225.882 226.485 225.283 227.323 225.283C228.971 225.283 228.729 226.644 228.573 227.527L227.073 236.032ZM221.121 235.27C222.911 235.27 224.092 233.456 224.383 231.807C224.674 230.159 224.165 228.299 222.35 228.299C220.463 228.299 219.299 230.162 219.008 231.807C218.717 233.456 219.258 235.27 221.121 235.27Z" fill="#7966FF"/>
<path d="M237.476 229.158C236.832 229.158 235.696 228.154 234.574 228.154C233.954 228.154 233.355 228.441 233.237 229.11C232.957 230.71 238.965 230.471 238.276 234.387C237.871 236.68 235.63 238.422 232.669 238.422C230.737 238.422 228.064 237.324 228.337 235.772C228.431 235.246 229.13 234.245 230.086 234.245C231.423 234.245 231.814 235.416 233.438 235.416C234.487 235.416 234.858 235.083 234.972 234.436C235.249 232.86 229.241 233.099 229.934 229.158C230.353 226.772 232.576 225.148 235.294 225.148C236.991 225.148 239.453 225.938 239.152 227.631C239.017 228.417 238.286 229.158 237.476 229.158Z" fill="#7966FF"/>
<path d="M247.155 227.198C247.356 226.052 248.208 225.287 249.212 225.287C250.095 225.287 250.583 225.764 250.559 226.575C251.556 225.667 252.744 225.141 254.012 225.141C255.445 225.141 256.557 225.737 257.26 226.883C258.41 225.785 260.027 225.141 261.197 225.141C263.992 225.141 265.613 226.765 265.083 229.771L263.919 236.361C263.718 237.507 262.867 238.273 261.862 238.273C260.858 238.273 260.28 237.507 260.481 236.361L261.537 230.37C261.783 228.985 261.19 228.005 259.947 228.005C258.683 228.005 257.745 228.985 257.502 230.37L256.446 236.361C256.245 237.507 255.393 238.273 254.389 238.273C253.385 238.273 252.807 237.507 253.007 236.361L254.064 230.37C254.31 228.985 253.717 228.005 252.474 228.005C251.065 228.005 250.272 228.985 250.029 230.37L248.973 236.361C248.772 237.507 247.92 238.273 246.916 238.273C245.912 238.273 245.334 237.507 245.534 236.361L247.155 227.198Z" fill="#7966FF"/>
<path d="M277.681 236.032C277.525 236.915 277.286 238.276 275.638 238.276C274.637 238.276 274.325 237.725 274.249 236.818C273.179 237.867 272.009 238.418 270.696 238.418C267.472 238.418 265.498 235.672 266.181 231.804C266.845 228.033 269.886 225.141 273.037 225.141C274.301 225.141 275.454 225.643 276.029 226.717C276.272 225.882 277.092 225.283 277.927 225.283C279.575 225.283 279.333 226.644 279.177 227.527L277.681 236.032ZM271.728 235.27C273.519 235.27 274.699 233.456 274.99 231.807C275.281 230.159 274.772 228.299 272.958 228.299C271.07 228.299 269.907 230.162 269.616 231.807C269.328 233.456 269.869 235.27 271.728 235.27Z" fill="#7966FF"/>
<path d="M281.196 227.198C281.397 226.052 282.249 225.287 283.253 225.287C284.136 225.287 284.624 225.764 284.607 226.551C285.442 225.619 286.55 225.141 288.174 225.141C290.872 225.141 292.575 226.859 292.059 229.771L290.896 236.361C290.695 237.507 289.843 238.273 288.839 238.273C287.835 238.273 287.256 237.507 287.457 236.361L288.513 230.37C288.794 228.77 287.928 228.005 286.685 228.005C285.275 228.005 284.309 229.03 284.074 230.37L283.018 236.361C282.817 237.507 281.965 238.273 280.961 238.273C279.956 238.273 279.378 237.507 279.579 236.361L281.196 227.198Z" fill="#7966FF"/>
<path d="M305.475 231.807C304.845 235.388 301.849 238.422 298.151 238.422C294.452 238.422 292.527 235.388 293.157 231.807C293.773 228.32 296.862 225.145 300.492 225.145C304.121 225.145 306.088 228.32 305.475 231.807ZM296.592 231.807C296.301 233.456 296.842 235.27 298.705 235.27C300.568 235.27 301.745 233.456 302.036 231.807C302.327 230.159 301.818 228.299 299.934 228.299C298.05 228.299 296.883 230.159 296.592 231.807Z" fill="#7966FF"/>
<path d="M314.631 229.158C313.987 229.158 312.851 228.154 311.729 228.154C311.109 228.154 310.51 228.441 310.392 229.11C310.112 230.71 316.12 230.471 315.431 234.387C315.026 236.68 312.785 238.422 309.824 238.422C307.892 238.422 305.219 237.324 305.492 235.772C305.586 235.246 306.285 234.245 307.241 234.245C308.578 234.245 308.969 235.416 310.593 235.416C311.642 235.416 312.013 235.083 312.127 234.436C312.404 232.86 306.396 233.099 307.089 229.158C307.508 226.772 309.731 225.148 312.449 225.148C314.146 225.148 316.608 225.938 316.307 227.631C316.172 228.417 315.445 229.158 314.631 229.158Z" fill="#7966FF"/>
<path d="M318.811 234.695C319.836 234.695 320.525 235.53 320.345 236.558C320.165 237.584 319.181 238.422 318.153 238.422C317.128 238.422 316.439 237.587 316.619 236.558C316.802 235.53 317.786 234.695 318.811 234.695Z" fill="#7966FF"/>
</svg>
