<?xml version="1.0" encoding="utf-8"?>
<!-- Generator: Adobe Illustrator 16.0.3, SVG Export Plug-In . SVG Version: 6.00 Build 0)  -->
<!DOCTYPE svg PUBLIC "-//W3C//DTD SVG 1.1//EN" "http://www.w3.org/Graphics/SVG/1.1/DTD/svg11.dtd">
<svg version="1.1" id="Capa_1" xmlns="http://www.w3.org/2000/svg" xmlns:xlink="http://www.w3.org/1999/xlink" x="0px" y="0px"
	 width="340px" height="340px" viewBox="0 0 340 340" enable-background="new 0 0 340 340" xml:space="preserve">
<g id="Capa_2">
</g>
<g>
	<path fill="#FFFFFF" d="M0,32.5c0-11.046,8.954-20,20-20h295c11.046,0,20,8.954,20,20v300c0,11.046-8.954,20-20,20H20
		c-11.046,0-20-8.954-20-20V32.5z"/>
	<path fill="#d69d66" d="M36,252.5h264c5.523,0,10,4.477,10,10v30c0,5.522-4.477,10-10,10H36c-5.523,0-10-4.478-10-10v-30
		C26,256.977,30.477,252.5,36,252.5z"/>
	<path fill="#566865" d="M104.408,285.72c0-1.36,0.053-2.693,0.16-4c0.106-1.32,0.253-2.567,0.44-3.74h1.6
		c0.186,1.173,0.333,2.42,0.44,3.74c0.106,1.307,0.16,2.64,0.16,4v2.38h-2.8V285.72z M105.808,276.72c-0.52,0-0.94-0.167-1.26-0.5
		c-0.32-0.333-0.48-0.753-0.48-1.26c0-0.508,0.16-0.921,0.48-1.24c0.32-0.333,0.74-0.5,1.26-0.5s0.94,0.167,1.26,0.5
		c0.32,0.319,0.48,0.732,0.48,1.24c0,0.507-0.167,0.927-0.5,1.26C106.728,276.553,106.314,276.72,105.808,276.72z M115.022,283.699
		c-0.787,0-1.5-0.072-2.14-0.22c-0.64-0.147-1.22-0.353-1.74-0.62c-0.52-0.267-0.993-0.58-1.42-0.939
		c-0.413-0.373-0.793-0.78-1.14-1.221l2.46-1.96c0.48,0.761,1.047,1.333,1.7,1.721c0.653,0.387,1.42,0.579,2.3,0.579
		c0.8,0,1.4-0.167,1.8-0.5c0.4-0.347,0.6-0.786,0.6-1.319c0-0.333-0.087-0.607-0.26-0.82c-0.16-0.227-0.393-0.413-0.7-0.56
		c-0.293-0.16-0.653-0.287-1.08-0.38c-0.413-0.107-0.873-0.221-1.38-0.341c-0.547-0.119-1.093-0.26-1.64-0.42
		c-0.547-0.173-1.04-0.406-1.48-0.699c-0.44-0.308-0.8-0.693-1.08-1.16c-0.28-0.48-0.42-1.094-0.42-1.84
		c0-0.601,0.127-1.16,0.38-1.681c0.253-0.533,0.607-0.993,1.06-1.38c0.467-0.387,1.013-0.693,1.64-0.92
		c0.64-0.227,1.34-0.34,2.1-0.34c0.64,0,1.227,0.06,1.76,0.18c0.533,0.107,1.027,0.268,1.48,0.48c0.467,0.213,0.893,0.479,1.28,0.8
		c0.4,0.307,0.787,0.667,1.16,1.08l-2.3,1.8c-0.387-0.56-0.847-1-1.38-1.32c-0.52-0.333-1.2-0.5-2.04-0.5
		c-0.8,0-1.38,0.173-1.74,0.521c-0.347,0.333-0.52,0.74-0.52,1.22c0,0.293,0.087,0.533,0.26,0.72c0.173,0.188,0.407,0.348,0.7,0.48
		c0.293,0.12,0.64,0.227,1.04,0.32c0.4,0.093,0.827,0.192,1.28,0.3c0.56,0.12,1.127,0.267,1.7,0.439
		c0.573,0.173,1.087,0.42,1.54,0.74c0.467,0.32,0.847,0.733,1.14,1.24s0.44,1.152,0.44,1.939c0,0.627-0.127,1.221-0.38,1.78
		c-0.253,0.547-0.613,1.033-1.08,1.46c-0.467,0.413-1.033,0.74-1.7,0.98C116.569,283.579,115.835,283.699,115.022,283.699z
		 M126.299,283.72c-1.333,0-2.367-0.4-3.1-1.2c-0.733-0.8-1.1-1.913-1.1-3.34v-6.48h2.82v6.101c0,0.76,0.18,1.359,0.54,1.8
		c0.36,0.439,0.913,0.66,1.66,0.66c0.653,0,1.193-0.228,1.62-0.681c0.427-0.452,0.64-1.1,0.64-1.939v-5.94l2.8-0.02v10.8
		l-2.76,0.021v-1.36c-0.347,0.493-0.787,0.88-1.32,1.16C127.566,283.579,126.966,283.72,126.299,283.72z M138.646,283.72
		c-1.294,0-2.354-0.228-3.18-0.681c-0.814-0.467-1.434-1.133-1.86-2l2.66-1.039c0.48,0.973,1.306,1.46,2.48,1.46
		c0.56,0,0.986-0.113,1.28-0.341c0.293-0.239,0.44-0.52,0.44-0.84c0-0.2-0.067-0.359-0.2-0.479c-0.134-0.134-0.32-0.24-0.56-0.32
		c-0.227-0.093-0.494-0.173-0.8-0.24c-0.307-0.066-0.634-0.133-0.98-0.2c-0.454-0.093-0.914-0.207-1.38-0.34
		c-0.454-0.133-0.867-0.319-1.24-0.56c-0.36-0.24-0.654-0.54-0.88-0.9c-0.227-0.373-0.34-0.847-0.34-1.42
		c0-0.453,0.106-0.887,0.32-1.3c0.213-0.413,0.513-0.773,0.9-1.08c0.386-0.307,0.846-0.547,1.38-0.72
		c0.546-0.188,1.153-0.28,1.82-0.28c1.146,0,2.08,0.207,2.8,0.62c0.72,0.4,1.333,0.96,1.84,1.68l-2.52,1.021
		c-0.227-0.36-0.514-0.641-0.86-0.84c-0.334-0.2-0.754-0.301-1.26-0.301c-0.547,0-0.954,0.101-1.22,0.301
		c-0.254,0.187-0.38,0.433-0.38,0.739c0,0.348,0.213,0.594,0.64,0.74c0.426,0.133,1.033,0.287,1.82,0.46
		c0.453,0.093,0.906,0.207,1.36,0.34c0.466,0.133,0.886,0.327,1.26,0.58c0.386,0.24,0.7,0.553,0.94,0.94
		c0.24,0.387,0.36,0.867,0.36,1.439c0,0.428-0.094,0.854-0.28,1.28c-0.187,0.413-0.474,0.793-0.86,1.14
		c-0.387,0.333-0.874,0.607-1.46,0.82C140.112,283.613,139.432,283.72,138.646,283.72z M150.33,283.72
		c-0.813,0-1.567-0.147-2.26-0.44c-0.693-0.293-1.293-0.692-1.8-1.2c-0.507-0.507-0.907-1.1-1.2-1.779
		c-0.28-0.681-0.42-1.413-0.42-2.2c0-0.8,0.14-1.54,0.42-2.22c0.293-0.681,0.693-1.273,1.2-1.78c0.52-0.507,1.12-0.9,1.8-1.18
		c0.693-0.293,1.44-0.44,2.24-0.44c0.627,0,1.213,0.087,1.76,0.26c0.547,0.16,1.04,0.394,1.48,0.7
		c0.453,0.293,0.847,0.653,1.18,1.08c0.347,0.413,0.627,0.873,0.84,1.38l-2.54,1.021c-0.227-0.588-0.573-1.04-1.04-1.36
		c-0.467-0.333-1.013-0.5-1.64-0.5c-0.413,0-0.8,0.08-1.16,0.24s-0.673,0.38-0.94,0.66c-0.267,0.267-0.48,0.587-0.64,0.96
		c-0.147,0.373-0.22,0.767-0.22,1.18s0.073,0.8,0.22,1.16c0.16,0.359,0.373,0.68,0.64,0.96c0.28,0.267,0.6,0.479,0.96,0.64
		s0.747,0.24,1.16,0.24c0.64,0,1.187-0.173,1.64-0.521c0.467-0.347,0.813-0.8,1.04-1.359l2.58,1.06c-0.467,1-1.147,1.827-2.04,2.48
		C152.71,283.4,151.623,283.72,150.33,283.72z M157.256,272.699h2.72v1.66c0.266-0.64,0.653-1.106,1.161-1.399
		c0.52-0.308,1.125-0.46,1.819-0.46c0.36,0,0.692,0.039,1,0.119c0.319,0.08,0.593,0.181,0.819,0.301l-1,2.72
		c-0.146-0.107-0.346-0.193-0.6-0.26c-0.254-0.08-0.533-0.12-0.84-0.12c-0.707,0-1.273,0.2-1.7,0.6
		c-0.427,0.387-0.64,1.033-0.64,1.94v5.7h-2.74V272.699z M166.201,272.699h2.82V283.5h-2.82V272.699z M165.841,269.659
		c0-0.52,0.167-0.946,0.5-1.279c0.333-0.348,0.753-0.521,1.261-0.521c0.532,0,0.959,0.173,1.279,0.521
		c0.333,0.333,0.5,0.76,0.5,1.279c0,0.507-0.167,0.928-0.5,1.261c-0.32,0.333-0.747,0.5-1.279,0.5c-0.521,0-0.947-0.167-1.281-0.5
		C166.001,270.587,165.841,270.166,165.841,269.659z M177.322,283.72c-0.721,0-1.381-0.147-1.98-0.44
		c-0.6-0.307-1.08-0.732-1.439-1.279v1.5h-2.721v-15.78h2.74v6.46c0.36-0.521,0.826-0.934,1.4-1.24
		c0.586-0.307,1.246-0.46,1.979-0.46c0.681,0,1.333,0.133,1.96,0.4c0.627,0.253,1.18,0.627,1.66,1.12
		c0.48,0.492,0.86,1.087,1.141,1.779c0.293,0.693,0.439,1.467,0.439,2.32c0,0.867-0.146,1.646-0.439,2.34
		c-0.295,0.68-0.681,1.267-1.16,1.76c-0.48,0.493-1.034,0.873-1.66,1.141C178.628,283.593,177.988,283.72,177.322,283.72z
		 M176.762,281.119c0.413,0,0.801-0.08,1.16-0.239c0.36-0.16,0.674-0.373,0.939-0.641c0.281-0.279,0.494-0.6,0.641-0.96
		c0.16-0.373,0.24-0.772,0.24-1.2c0-0.427-0.08-0.819-0.24-1.18c-0.146-0.373-0.359-0.693-0.641-0.96
		c-0.266-0.28-0.579-0.5-0.939-0.66c-0.359-0.16-0.747-0.24-1.16-0.24c-0.427,0-0.826,0.08-1.199,0.24
		c-0.36,0.16-0.674,0.38-0.94,0.66c-0.267,0.267-0.479,0.587-0.64,0.96c-0.147,0.373-0.221,0.767-0.221,1.18
		c0,0.428,0.073,0.827,0.221,1.2c0.16,0.36,0.373,0.681,0.64,0.96c0.267,0.268,0.58,0.48,0.94,0.641
		C175.936,281.039,176.335,281.119,176.762,281.119z M184.307,272.699h2.82V283.5h-2.82V272.699z M183.947,269.659
		c0-0.52,0.166-0.946,0.5-1.279c0.332-0.348,0.753-0.521,1.26-0.521c0.533,0,0.96,0.173,1.279,0.521c0.334,0.333,0.5,0.76,0.5,1.279
		c0,0.507-0.166,0.928-0.5,1.261c-0.319,0.333-0.746,0.5-1.279,0.5c-0.52,0-0.947-0.167-1.28-0.5
		C184.107,270.587,183.947,270.166,183.947,269.659z M189.326,272.699h2.72v1.66c0.267-0.64,0.653-1.106,1.16-1.399
		c0.521-0.308,1.127-0.46,1.819-0.46c0.361,0,0.693,0.039,1,0.119c0.32,0.08,0.594,0.181,0.82,0.301l-1,2.72
		c-0.146-0.107-0.347-0.193-0.6-0.26c-0.253-0.08-0.533-0.12-0.84-0.12c-0.707,0-1.273,0.2-1.7,0.6
		c-0.427,0.387-0.64,1.033-0.64,1.94v5.7h-2.74V272.699z M198.271,272.699h2.76v1.28c0.334-0.467,0.754-0.833,1.26-1.1
		c0.507-0.268,1.087-0.4,1.74-0.4c0.814,0,1.494,0.16,2.039,0.48c0.548,0.307,0.968,0.753,1.261,1.34c0.347-0.561,0.808-1,1.38-1.32
		c0.587-0.333,1.254-0.5,2-0.5c1.374,0,2.4,0.393,3.08,1.18c0.693,0.773,1.04,1.841,1.04,3.2v6.641h-2.84v-6.24
		c0-0.733-0.16-1.308-0.479-1.721c-0.307-0.427-0.813-0.64-1.521-0.64c-0.626,0-1.126,0.213-1.5,0.64
		c-0.373,0.413-0.56,1.048-0.56,1.9v6.061h-2.82v-6.32c0-0.72-0.153-1.28-0.461-1.68c-0.305-0.4-0.799-0.601-1.479-0.601
		c-0.653,0-1.173,0.213-1.56,0.64c-0.373,0.428-0.561,1.08-0.561,1.961v6h-2.779V272.699z M222.323,283.72
		c-0.866,0-1.653-0.141-2.36-0.42c-0.706-0.293-1.313-0.693-1.82-1.2c-0.492-0.507-0.873-1.1-1.14-1.78
		c-0.267-0.68-0.399-1.413-0.399-2.2s0.14-1.52,0.42-2.199c0.293-0.693,0.693-1.293,1.199-1.801
		c0.508-0.507,1.107-0.906,1.801-1.199s1.439-0.44,2.24-0.44c0.813,0,1.56,0.14,2.239,0.42c0.681,0.28,1.267,0.667,1.761,1.16
		c0.493,0.479,0.879,1.06,1.159,1.74c0.28,0.68,0.42,1.42,0.42,2.22v1.04h-8.579c0.187,0.707,0.547,1.267,1.079,1.68
		c0.548,0.4,1.22,0.601,2.021,0.601c0.64,0,1.18-0.127,1.619-0.38c0.44-0.268,0.795-0.62,1.061-1.061l2.26,1.32
		c-0.546,0.76-1.213,1.367-2,1.819C224.518,283.492,223.523,283.72,222.323,283.72z M222.264,274.82
		c-0.707,0-1.313,0.188-1.82,0.561c-0.506,0.373-0.873,0.88-1.101,1.52h5.761c-0.187-0.68-0.526-1.193-1.021-1.54
		C223.59,275,222.982,274.82,222.264,274.82z M230.418,279.02c-0.188-1.173-0.34-2.42-0.46-3.74c-0.106-1.319-0.16-2.652-0.16-4
		v-2.38h2.82v2.38c0,1.348-0.054,2.681-0.16,4c-0.106,1.32-0.253,2.567-0.44,3.74H230.418z M229.458,282.02
		c0-0.507,0.16-0.927,0.479-1.26c0.334-0.333,0.754-0.5,1.261-0.5c0.52,0,0.94,0.167,1.26,0.5c0.333,0.333,0.5,0.753,0.5,1.26
		s-0.167,0.927-0.5,1.26c-0.319,0.333-0.74,0.5-1.26,0.5c-0.521,0-0.94-0.167-1.261-0.5
		C229.618,282.947,229.458,282.527,229.458,282.02z"/>
	<path fill="#566865" d="M23.449,170.09h1.428v11.032h6.392v1.378h-7.82V170.09z M37.345,182.687c-0.737,0-1.405-0.119-2.006-0.357
		c-0.589-0.249-1.1-0.584-1.53-1.003c-0.419-0.431-0.742-0.935-0.969-1.513s-0.34-1.201-0.34-1.87c0-0.68,0.119-1.309,0.357-1.887
		c0.249-0.589,0.583-1.1,1.003-1.53c0.431-0.431,0.935-0.771,1.513-1.02c0.589-0.249,1.229-0.374,1.921-0.374
		c0.668,0,1.286,0.119,1.853,0.356c0.578,0.228,1.071,0.55,1.479,0.97c0.419,0.407,0.748,0.9,0.986,1.479
		c0.238,0.567,0.357,1.19,0.357,1.87v0.629H33.86c0.045,0.442,0.164,0.844,0.357,1.207s0.437,0.68,0.731,0.952
		c0.306,0.261,0.657,0.465,1.054,0.611c0.408,0.147,0.855,0.222,1.343,0.222c0.737,0,1.354-0.153,1.853-0.459
		c0.499-0.307,0.907-0.742,1.224-1.31l1.19,0.697c-0.476,0.737-1.054,1.309-1.734,1.717
		C39.198,182.483,38.354,182.687,37.345,182.687z M37.294,174.373c-0.442,0-0.856,0.074-1.241,0.222
		c-0.374,0.136-0.708,0.334-1.003,0.595c-0.295,0.249-0.544,0.55-0.748,0.901c-0.193,0.34-0.329,0.714-0.408,1.122h6.647
		c-0.113-0.873-0.459-1.564-1.037-2.074S38.189,174.373,37.294,174.373z M52.564,182.687c-0.646,0-1.258-0.113-1.836-0.34
		c-0.567-0.238-1.06-0.567-1.479-0.986c-0.419-0.431-0.754-0.935-1.003-1.513c-0.238-0.589-0.357-1.235-0.357-1.938
		s0.119-1.343,0.357-1.921c0.249-0.589,0.583-1.094,1.003-1.513c0.431-0.431,0.929-0.759,1.496-0.986
		c0.566-0.237,1.173-0.356,1.819-0.356c0.329,0,0.657,0.04,0.986,0.119c0.34,0.078,0.658,0.197,0.952,0.356
		c0.306,0.147,0.583,0.334,0.833,0.562c0.261,0.215,0.481,0.465,0.663,0.748v-5.831h1.377V182.5h-1.377v-1.633
		c-0.182,0.283-0.402,0.538-0.663,0.766c-0.25,0.227-0.527,0.419-0.833,0.578c-0.294,0.146-0.612,0.261-0.952,0.34
		C53.222,182.642,52.893,182.687,52.564,182.687z M52.684,181.378c0.487,0,0.94-0.092,1.36-0.272s0.782-0.425,1.088-0.73
		c0.306-0.317,0.544-0.687,0.714-1.105c0.17-0.431,0.255-0.89,0.255-1.377c0-0.477-0.085-0.924-0.255-1.343
		c-0.17-0.432-0.408-0.799-0.714-1.105c-0.306-0.316-0.668-0.566-1.088-0.748c-0.419-0.192-0.873-0.289-1.36-0.289
		c-0.476,0-0.924,0.091-1.343,0.272c-0.408,0.181-0.765,0.431-1.071,0.748c-0.306,0.306-0.544,0.674-0.714,1.104
		c-0.17,0.419-0.255,0.873-0.255,1.36c0,0.499,0.085,0.963,0.255,1.394c0.17,0.419,0.408,0.788,0.714,1.105
		c0.306,0.306,0.663,0.55,1.071,0.73C51.76,181.293,52.208,181.378,52.684,181.378z M62.639,182.687
		c-0.544,0-1.02-0.068-1.428-0.204c-0.408-0.146-0.748-0.346-1.02-0.595s-0.476-0.533-0.612-0.851
		c-0.136-0.328-0.204-0.68-0.204-1.054c0-0.952,0.368-1.683,1.105-2.193c0.748-0.521,1.768-0.781,3.06-0.781h2.907v-0.357
		c0-0.703-0.227-1.264-0.68-1.683c-0.442-0.432-1.111-0.646-2.006-0.646c-0.691,0-1.275,0.137-1.751,0.408
		c-0.464,0.272-0.855,0.652-1.173,1.139l-1.207-0.765c0.465-0.601,1.031-1.077,1.7-1.428c0.668-0.363,1.484-0.544,2.448-0.544
		c0.658,0,1.235,0.085,1.734,0.255c0.499,0.17,0.918,0.414,1.258,0.73c0.34,0.307,0.595,0.675,0.765,1.105
		c0.181,0.431,0.272,0.907,0.272,1.428v5.849h-1.36v-1.615c-0.408,0.566-0.946,1.009-1.615,1.326
		C64.163,182.528,63.432,182.687,62.639,182.687z M62.894,181.463c0.34,0,0.68-0.045,1.02-0.137c0.351-0.091,0.68-0.221,0.986-0.391
		c0.317-0.17,0.606-0.385,0.867-0.646c0.272-0.261,0.499-0.561,0.68-0.9v-1.258h-2.839c-0.963,0-1.671,0.146-2.125,0.441
		c-0.453,0.295-0.68,0.731-0.68,1.31c0,0.453,0.164,0.833,0.493,1.139C61.636,181.316,62.168,181.463,62.894,181.463z
		 M70.227,173.32h1.377v1.343c0.294-0.476,0.686-0.85,1.173-1.122c0.499-0.271,1.088-0.407,1.768-0.407
		c0.816,0,1.49,0.176,2.023,0.526c0.533,0.341,0.924,0.8,1.173,1.377c0.295-0.577,0.726-1.036,1.292-1.377
		c0.567-0.351,1.235-0.526,2.006-0.526c1.281,0,2.25,0.362,2.907,1.088c0.657,0.714,0.986,1.672,0.986,2.873v5.406h-1.411v-5.39
		c0-0.815-0.227-1.473-0.68-1.972c-0.442-0.51-1.088-0.766-1.938-0.766c-0.385,0-0.742,0.063-1.071,0.188
		c-0.317,0.125-0.595,0.312-0.833,0.561c-0.238,0.238-0.425,0.533-0.561,0.885c-0.136,0.351-0.204,0.754-0.204,1.207v5.287H76.84
		v-5.525c0-0.793-0.221-1.422-0.663-1.887c-0.431-0.477-1.054-0.715-1.87-0.715c-0.793,0-1.439,0.262-1.938,0.782
		c-0.499,0.521-0.748,1.247-0.748,2.176v5.169h-1.394V173.32z M91.696,182.687c-0.68,0-1.309-0.119-1.887-0.357
		c-0.578-0.249-1.082-0.589-1.513-1.02c-0.419-0.431-0.753-0.935-1.003-1.513c-0.238-0.578-0.357-1.207-0.357-1.888
		c0-0.669,0.119-1.292,0.357-1.87c0.25-0.589,0.59-1.099,1.02-1.529c0.431-0.432,0.935-0.766,1.513-1.003
		c0.578-0.249,1.202-0.374,1.87-0.374c0.669,0,1.292,0.125,1.87,0.374c0.59,0.237,1.1,0.571,1.53,1.003
		c0.431,0.431,0.765,0.94,1.003,1.529c0.25,0.578,0.374,1.201,0.374,1.87s-0.124,1.292-0.374,1.87
		c-0.238,0.578-0.572,1.082-1.003,1.514c-0.43,0.431-0.935,0.771-1.513,1.02S92.376,182.687,91.696,182.687z M91.696,181.361
		c0.476,0,0.918-0.085,1.326-0.255c0.42-0.181,0.777-0.425,1.071-0.73c0.306-0.317,0.544-0.687,0.714-1.105s0.255-0.873,0.255-1.36
		c0-0.486-0.085-0.94-0.255-1.359c-0.17-0.432-0.408-0.799-0.714-1.105c-0.306-0.316-0.663-0.561-1.071-0.73
		c-0.408-0.182-0.85-0.272-1.326-0.272c-0.476,0-0.918,0.091-1.326,0.272c-0.408,0.17-0.765,0.414-1.071,0.73
		c-0.294,0.307-0.527,0.674-0.697,1.105c-0.17,0.419-0.255,0.873-0.255,1.359c0,0.499,0.085,0.958,0.255,1.377
		s0.403,0.782,0.697,1.089c0.306,0.306,0.663,0.55,1.071,0.73C90.778,181.276,91.22,181.361,91.696,181.361z M101.814,182.687
		c-1.008,0-1.847-0.17-2.516-0.51c-0.668-0.352-1.207-0.822-1.615-1.411l1.207-0.816c0.318,0.453,0.714,0.816,1.19,1.088
		c0.476,0.272,1.066,0.408,1.768,0.408c0.714,0,1.253-0.146,1.615-0.441c0.374-0.307,0.561-0.691,0.561-1.156
		c0-0.249-0.073-0.453-0.221-0.612c-0.147-0.17-0.34-0.306-0.578-0.408c-0.238-0.112-0.515-0.204-0.833-0.271
		c-0.306-0.068-0.629-0.136-0.969-0.204c-0.396-0.079-0.793-0.17-1.19-0.272c-0.385-0.102-0.731-0.243-1.037-0.425
		c-0.306-0.192-0.555-0.436-0.748-0.73c-0.192-0.295-0.289-0.674-0.289-1.14c0-0.351,0.074-0.69,0.221-1.02
		c0.159-0.329,0.38-0.612,0.663-0.851c0.295-0.249,0.652-0.441,1.071-0.577c0.431-0.147,0.918-0.222,1.462-0.222
		c0.85,0,1.57,0.147,2.159,0.442c0.601,0.283,1.105,0.68,1.513,1.189l-1.156,0.782c-0.272-0.363-0.612-0.657-1.02-0.884
		c-0.408-0.227-0.906-0.34-1.496-0.34c-0.714,0-1.224,0.136-1.53,0.408c-0.306,0.271-0.459,0.623-0.459,1.054
		c0,0.238,0.063,0.436,0.187,0.595c0.136,0.147,0.318,0.272,0.544,0.374c0.227,0.103,0.493,0.188,0.799,0.255
		c0.306,0.068,0.641,0.137,1.003,0.204c0.397,0.079,0.794,0.176,1.19,0.289c0.397,0.103,0.748,0.249,1.054,0.442
		c0.318,0.192,0.573,0.441,0.765,0.748c0.204,0.295,0.306,0.68,0.306,1.155c0,0.363-0.079,0.721-0.238,1.071
		c-0.147,0.34-0.374,0.646-0.68,0.918c-0.294,0.261-0.668,0.47-1.122,0.629C102.942,182.608,102.415,182.687,101.814,182.687z
		 M116.036,182.687c-0.736,0-1.405-0.119-2.006-0.357c-0.589-0.249-1.099-0.584-1.53-1.003c-0.419-0.431-0.742-0.935-0.969-1.513
		c-0.226-0.578-0.34-1.201-0.34-1.87c0-0.68,0.119-1.309,0.357-1.887c0.25-0.589,0.584-1.1,1.003-1.53
		c0.431-0.431,0.935-0.771,1.513-1.02c0.59-0.249,1.23-0.374,1.921-0.374c0.669,0,1.287,0.119,1.853,0.356
		c0.578,0.228,1.071,0.55,1.479,0.97c0.42,0.407,0.748,0.9,0.986,1.479c0.238,0.567,0.357,1.19,0.357,1.87v0.629h-8.109
		c0.046,0.442,0.165,0.844,0.357,1.207c0.193,0.363,0.437,0.68,0.731,0.952c0.306,0.261,0.658,0.465,1.054,0.611
		c0.408,0.147,0.856,0.222,1.343,0.222c0.737,0,1.355-0.153,1.853-0.459c0.499-0.307,0.907-0.742,1.224-1.31l1.19,0.697
		c-0.476,0.737-1.054,1.309-1.734,1.717C117.889,182.483,117.045,182.687,116.036,182.687z M115.985,174.373
		c-0.442,0-0.855,0.074-1.241,0.222c-0.374,0.136-0.708,0.334-1.003,0.595c-0.294,0.249-0.544,0.55-0.748,0.901
		c-0.192,0.34-0.328,0.714-0.408,1.122h6.647c-0.113-0.873-0.459-1.564-1.037-2.074
		C117.617,174.629,116.881,174.373,115.985,174.373z M122.771,169.104h1.394V182.5h-1.394V169.104z M130.806,173.32h1.377v1.343
		c0.295-0.476,0.686-0.85,1.173-1.122c0.499-0.271,1.088-0.407,1.768-0.407c0.816,0,1.49,0.176,2.023,0.526
		c0.533,0.341,0.924,0.8,1.173,1.377c0.295-0.577,0.725-1.036,1.292-1.377c0.567-0.351,1.235-0.526,2.006-0.526
		c1.281,0,2.25,0.362,2.907,1.088c0.657,0.714,0.986,1.672,0.986,2.873v5.406H144.1v-5.39c0-0.815-0.227-1.473-0.68-1.972
		c-0.442-0.51-1.088-0.766-1.938-0.766c-0.385,0-0.742,0.063-1.071,0.188c-0.317,0.125-0.595,0.312-0.833,0.561
		c-0.238,0.238-0.425,0.533-0.561,0.885c-0.136,0.351-0.204,0.754-0.204,1.207v5.287h-1.394v-5.525c0-0.793-0.221-1.422-0.663-1.887
		c-0.431-0.477-1.054-0.715-1.87-0.715c-0.793,0-1.439,0.262-1.938,0.782c-0.499,0.521-0.748,1.247-0.748,2.176v5.169h-1.394V173.32
		z M147.939,173.32h1.411v9.181h-1.411V173.32z M147.548,170.497c0-0.316,0.102-0.577,0.306-0.781
		c0.216-0.215,0.476-0.323,0.782-0.323c0.329,0,0.595,0.108,0.799,0.323c0.204,0.204,0.306,0.465,0.306,0.781
		c0,0.317-0.102,0.584-0.306,0.8c-0.204,0.204-0.47,0.306-0.799,0.306c-0.317,0-0.578-0.102-0.782-0.306
		C147.65,171.081,147.548,170.815,147.548,170.497z M155.122,182.687c-1.009,0-1.847-0.17-2.516-0.51
		c-0.669-0.352-1.207-0.822-1.615-1.411l1.207-0.816c0.317,0.453,0.714,0.816,1.19,1.088c0.476,0.272,1.065,0.408,1.768,0.408
		c0.714,0,1.252-0.146,1.615-0.441c0.374-0.307,0.561-0.691,0.561-1.156c0-0.249-0.074-0.453-0.221-0.612
		c-0.147-0.17-0.34-0.306-0.578-0.408c-0.238-0.112-0.516-0.204-0.833-0.271c-0.306-0.068-0.629-0.136-0.969-0.204
		c-0.397-0.079-0.793-0.17-1.19-0.272c-0.385-0.102-0.731-0.243-1.037-0.425c-0.306-0.192-0.555-0.436-0.748-0.73
		c-0.193-0.295-0.289-0.674-0.289-1.14c0-0.351,0.074-0.69,0.221-1.02c0.159-0.329,0.38-0.612,0.663-0.851
		c0.295-0.249,0.652-0.441,1.071-0.577c0.431-0.147,0.918-0.222,1.462-0.222c0.85,0,1.57,0.147,2.159,0.442
		c0.601,0.283,1.105,0.68,1.513,1.189l-1.156,0.782c-0.272-0.363-0.612-0.657-1.02-0.884c-0.408-0.227-0.907-0.34-1.496-0.34
		c-0.714,0-1.224,0.136-1.53,0.408c-0.306,0.271-0.459,0.623-0.459,1.054c0,0.238,0.062,0.436,0.187,0.595
		c0.136,0.147,0.317,0.272,0.544,0.374c0.227,0.103,0.493,0.188,0.799,0.255c0.306,0.068,0.64,0.137,1.003,0.204
		c0.397,0.079,0.793,0.176,1.19,0.289c0.397,0.103,0.748,0.249,1.054,0.442c0.317,0.192,0.572,0.441,0.765,0.748
		c0.204,0.295,0.306,0.68,0.306,1.155c0,0.363-0.079,0.721-0.238,1.071c-0.147,0.34-0.374,0.646-0.68,0.918
		c-0.295,0.261-0.669,0.47-1.122,0.629S155.723,182.687,155.122,182.687z M160.672,173.32h1.377v1.343
		c0.295-0.476,0.686-0.85,1.174-1.122c0.498-0.271,1.088-0.407,1.768-0.407c0.816,0,1.49,0.176,2.023,0.526
		c0.532,0.341,0.924,0.8,1.172,1.377c0.295-0.577,0.727-1.036,1.293-1.377c0.566-0.351,1.235-0.526,2.006-0.526
		c1.281,0,2.25,0.362,2.906,1.088c0.658,0.714,0.986,1.672,0.986,2.873v5.406h-1.411v-5.39c0-0.815-0.226-1.473-0.68-1.972
		c-0.442-0.51-1.088-0.766-1.938-0.766c-0.385,0-0.742,0.063-1.07,0.188c-0.317,0.125-0.596,0.312-0.834,0.561
		c-0.237,0.238-0.424,0.533-0.561,0.885c-0.136,0.351-0.203,0.754-0.203,1.207v5.287h-1.395v-5.525c0-0.793-0.221-1.422-0.663-1.887
		c-0.431-0.477-1.054-0.715-1.87-0.715c-0.793,0-1.439,0.262-1.938,0.782c-0.498,0.521-0.748,1.247-0.748,2.176v5.169h-1.395V173.32
		z M182.143,182.687c-0.681,0-1.31-0.119-1.888-0.357c-0.578-0.249-1.083-0.589-1.513-1.02c-0.42-0.431-0.754-0.935-1.004-1.513
		c-0.237-0.578-0.356-1.207-0.356-1.888c0-0.669,0.119-1.292,0.356-1.87c0.25-0.589,0.59-1.099,1.021-1.529
		c0.431-0.432,0.935-0.766,1.513-1.003c0.578-0.249,1.201-0.374,1.871-0.374c0.668,0,1.291,0.125,1.869,0.374
		c0.59,0.237,1.1,0.571,1.53,1.003c0.431,0.431,0.765,0.94,1.003,1.529c0.249,0.578,0.374,1.201,0.374,1.87s-0.125,1.292-0.374,1.87
		c-0.238,0.578-0.572,1.082-1.003,1.514c-0.431,0.431-0.935,0.771-1.513,1.02S182.822,182.687,182.143,182.687z M182.143,181.361
		c0.476,0,0.918-0.085,1.325-0.255c0.419-0.181,0.776-0.425,1.071-0.73c0.307-0.317,0.544-0.687,0.714-1.105s0.255-0.873,0.255-1.36
		c0-0.486-0.085-0.94-0.255-1.359c-0.17-0.432-0.407-0.799-0.714-1.105c-0.307-0.316-0.663-0.561-1.071-0.73
		c-0.407-0.182-0.85-0.272-1.325-0.272c-0.477,0-0.918,0.091-1.326,0.272c-0.408,0.17-0.766,0.414-1.071,0.73
		c-0.295,0.307-0.527,0.674-0.697,1.105c-0.17,0.419-0.255,0.873-0.255,1.359c0,0.499,0.085,0.958,0.255,1.377
		s0.402,0.782,0.697,1.089c0.306,0.306,0.663,0.55,1.071,0.73C181.225,181.276,181.666,181.361,182.143,181.361z M192.191,173.32
		h2.482l2.262,6.188l2.277-6.188h2.432l-3.604,9.181h-2.329L192.191,173.32z M205.092,182.687c-1.009,0-1.797-0.249-2.363-0.748
		c-0.556-0.51-0.832-1.173-0.832-1.989c0-0.963,0.367-1.717,1.104-2.261c0.735-0.544,1.745-0.816,3.026-0.816h2.414v-0.118
		c0-0.499-0.166-0.901-0.493-1.207c-0.329-0.307-0.828-0.459-1.496-0.459c-0.522,0-0.958,0.107-1.31,0.322
		c-0.352,0.204-0.635,0.499-0.85,0.885l-2.159-1.071c0.464-0.612,1.042-1.111,1.734-1.496c0.702-0.397,1.569-0.595,2.601-0.595
		c1.36,0,2.408,0.329,3.145,0.985c0.736,0.657,1.105,1.57,1.105,2.737v5.645h-2.261v-1.411c-0.329,0.476-0.794,0.86-1.394,1.155
		C206.475,182.539,205.816,182.687,205.092,182.687z M205.771,180.748c0.283,0,0.562-0.039,0.834-0.118
		c0.271-0.079,0.526-0.193,0.765-0.341c0.237-0.146,0.446-0.322,0.629-0.526c0.192-0.204,0.345-0.432,0.459-0.681v-0.492h-2.159
		c-0.703,0-1.207,0.102-1.513,0.306c-0.295,0.204-0.442,0.487-0.442,0.85C204.344,180.414,204.82,180.748,205.771,180.748z
		 M212.527,169.104h2.347V182.5h-2.347V169.104z M221.251,182.687c-0.69,0-1.331-0.125-1.921-0.374
		c-0.589-0.249-1.105-0.589-1.547-1.02c-0.43-0.442-0.77-0.952-1.02-1.53c-0.238-0.578-0.357-1.196-0.357-1.854
		c0-0.656,0.119-1.274,0.357-1.853c0.25-0.589,0.59-1.1,1.02-1.53c0.441-0.431,0.958-0.771,1.547-1.02
		c0.59-0.249,1.23-0.374,1.921-0.374c0.681,0,1.315,0.125,1.903,0.374c0.602,0.249,1.117,0.589,1.548,1.02
		c0.442,0.431,0.788,0.941,1.036,1.53c0.25,0.578,0.375,1.196,0.375,1.853c0,0.657-0.125,1.275-0.375,1.854
		c-0.248,0.578-0.588,1.088-1.02,1.53c-0.43,0.431-0.945,0.771-1.547,1.02C222.583,182.562,221.943,182.687,221.251,182.687z
		 M221.268,180.46c0.353,0,0.681-0.068,0.986-0.204c0.307-0.137,0.573-0.317,0.799-0.544c0.227-0.228,0.403-0.493,0.527-0.8
		c0.136-0.316,0.204-0.656,0.204-1.02c0-0.352-0.068-0.687-0.204-1.003c-0.124-0.317-0.301-0.589-0.527-0.816
		c-0.226-0.227-0.492-0.408-0.799-0.544c-0.306-0.136-0.634-0.204-0.986-0.204c-0.351,0-0.68,0.068-0.985,0.204
		s-0.572,0.317-0.8,0.544c-0.226,0.228-0.407,0.499-0.543,0.816c-0.125,0.316-0.188,0.651-0.188,1.003
		c0,0.363,0.063,0.703,0.188,1.02c0.136,0.307,0.317,0.572,0.543,0.8c0.228,0.227,0.494,0.407,0.8,0.544
		C220.588,180.392,220.917,180.46,221.268,180.46z M227.652,173.32h2.312v1.411c0.228-0.544,0.556-0.941,0.986-1.19
		c0.442-0.261,0.958-0.391,1.547-0.391c0.306,0,0.59,0.034,0.851,0.103c0.271,0.067,0.504,0.152,0.696,0.255l-0.851,2.312
		c-0.123-0.091-0.293-0.164-0.51-0.221c-0.215-0.068-0.453-0.103-0.713-0.103c-0.601,0-1.082,0.17-1.445,0.511
		c-0.362,0.329-0.545,0.878-0.545,1.648v4.846h-2.328V173.32z M244.063,182.687c-0.646,0-1.258-0.113-1.836-0.34
		c-0.565-0.238-1.059-0.567-1.479-0.986c-0.419-0.431-0.753-0.935-1.003-1.513c-0.238-0.589-0.356-1.235-0.356-1.938
		s0.118-1.343,0.356-1.921c0.25-0.589,0.584-1.094,1.003-1.513c0.432-0.431,0.93-0.759,1.496-0.986
		c0.566-0.237,1.173-0.356,1.818-0.356c0.33,0,0.658,0.045,0.986,0.136c0.34,0.079,0.658,0.198,0.952,0.357
		c0.306,0.146,0.584,0.334,0.833,0.561c0.262,0.215,0.482,0.465,0.663,0.748v-1.615h1.36v12.716h-1.36v-5.116
		c-0.362,0.566-0.861,1.003-1.496,1.309C245.378,182.533,244.732,182.687,244.063,182.687z M244.182,181.378
		c0.488,0,0.941-0.092,1.36-0.272c0.42-0.181,0.782-0.425,1.088-0.73c0.306-0.317,0.544-0.687,0.714-1.105
		c0.17-0.431,0.256-0.89,0.256-1.377c0-0.477-0.086-0.924-0.256-1.343c-0.17-0.432-0.408-0.799-0.714-1.105
		c-0.306-0.316-0.668-0.566-1.088-0.748c-0.419-0.192-0.872-0.289-1.36-0.289c-0.476,0-0.923,0.091-1.343,0.272
		c-0.407,0.181-0.765,0.431-1.071,0.748c-0.306,0.306-0.543,0.674-0.713,1.104c-0.171,0.419-0.256,0.873-0.256,1.36
		c0,0.499,0.085,0.963,0.256,1.394c0.17,0.419,0.407,0.788,0.713,1.105c0.307,0.306,0.664,0.55,1.071,0.73
		C243.259,181.293,243.706,181.378,244.182,181.378z M255.009,182.687c-1.258,0-2.216-0.363-2.873-1.088
		c-0.657-0.737-0.985-1.757-0.985-3.061v-5.219h1.41v5.151c0,0.895,0.228,1.608,0.681,2.142c0.452,0.533,1.122,0.799,2.006,0.799
		c0.407,0,0.782-0.073,1.122-0.221c0.34-0.146,0.635-0.351,0.884-0.612c0.261-0.271,0.459-0.589,0.595-0.951
		c0.147-0.374,0.221-0.782,0.221-1.225v-5.083h1.395v9.181h-1.359v-1.514c-0.307,0.51-0.726,0.924-1.258,1.241
		C256.324,182.533,255.712,182.687,255.009,182.687z M266.396,182.687c-0.736,0-1.405-0.119-2.006-0.357
		c-0.59-0.249-1.1-0.584-1.529-1.003c-0.42-0.431-0.743-0.935-0.969-1.513c-0.228-0.578-0.341-1.201-0.341-1.87
		c0-0.68,0.119-1.309,0.357-1.887c0.249-0.589,0.583-1.1,1.003-1.53c0.43-0.431,0.936-0.771,1.513-1.02
		c0.589-0.249,1.229-0.374,1.921-0.374c0.668,0,1.286,0.119,1.854,0.356c0.578,0.228,1.07,0.55,1.479,0.97
		c0.42,0.407,0.748,0.9,0.986,1.479c0.238,0.567,0.357,1.19,0.357,1.87v0.629h-8.109c0.045,0.442,0.164,0.844,0.357,1.207
		c0.191,0.363,0.436,0.68,0.73,0.952c0.307,0.261,0.657,0.465,1.055,0.611c0.407,0.147,0.854,0.222,1.342,0.222
		c0.736,0,1.354-0.153,1.854-0.459c0.498-0.307,0.906-0.742,1.225-1.31l1.189,0.697c-0.477,0.737-1.055,1.309-1.734,1.717
		S267.404,182.687,266.396,182.687z M266.346,174.373c-0.441,0-0.855,0.074-1.24,0.222c-0.375,0.136-0.709,0.334-1.004,0.595
		c-0.295,0.249-0.543,0.55-0.748,0.901c-0.192,0.34-0.328,0.714-0.408,1.122h6.647c-0.114-0.873-0.459-1.564-1.036-2.074
		C267.979,174.629,267.241,174.373,266.346,174.373z M276.465,173.32h1.785v-2.022l1.377-0.885v2.907h2.686v1.241h-2.686v5.134
		c0,0.589,0.119,1.009,0.357,1.258c0.25,0.249,0.572,0.374,0.969,0.374c0.386,0,0.736-0.146,1.054-0.441l0.731,1.104
		c-0.26,0.204-0.545,0.363-0.85,0.477c-0.307,0.112-0.652,0.17-1.037,0.17c-0.851,0-1.496-0.228-1.938-0.681
		c-0.442-0.465-0.663-1.207-0.663-2.227v-5.168h-1.785V173.32z M288.046,182.687c-1.258,0-2.216-0.363-2.873-1.088
		c-0.657-0.737-0.985-1.757-0.985-3.061v-5.219h1.41v5.151c0,0.895,0.228,1.608,0.68,2.142c0.453,0.533,1.123,0.799,2.007,0.799
		c0.407,0,0.782-0.073,1.122-0.221c0.34-0.146,0.635-0.351,0.884-0.612c0.261-0.271,0.459-0.589,0.595-0.951
		c0.147-0.374,0.221-0.782,0.221-1.225v-5.083h1.395v9.181h-1.359v-1.514c-0.307,0.51-0.726,0.924-1.259,1.241
		C289.361,182.533,288.749,182.687,288.046,182.687z M299.146,169.104h1.394V182.5h-1.394V169.104z M307.484,182.687
		c-0.735,0-1.404-0.119-2.006-0.357c-0.588-0.249-1.099-0.584-1.529-1.003c-0.42-0.431-0.742-0.935-0.969-1.513
		s-0.34-1.201-0.34-1.87c0-0.68,0.118-1.309,0.356-1.887c0.25-0.589,0.584-1.1,1.003-1.53c0.432-0.431,0.936-0.771,1.514-1.02
		c0.59-0.249,1.229-0.374,1.92-0.374c0.67,0,1.287,0.119,1.854,0.356c0.578,0.228,1.07,0.55,1.479,0.97
		c0.42,0.407,0.748,0.9,0.986,1.479c0.238,0.567,0.357,1.19,0.357,1.87v0.629H304c0.046,0.442,0.165,0.844,0.357,1.207
		s0.437,0.68,0.73,0.952c0.307,0.261,0.658,0.465,1.055,0.611c0.407,0.147,0.855,0.222,1.342,0.222c0.738,0,1.355-0.153,1.854-0.459
		c0.499-0.307,0.907-0.742,1.225-1.31l1.189,0.697c-0.477,0.737-1.054,1.309-1.734,1.717
		C309.338,182.483,308.494,182.687,307.484,182.687z M307.434,174.373c-0.441,0-0.854,0.074-1.24,0.222
		c-0.375,0.136-0.709,0.334-1.004,0.595c-0.293,0.249-0.543,0.55-0.748,0.901c-0.191,0.34-0.327,0.714-0.407,1.122h6.647
		c-0.113-0.873-0.459-1.564-1.037-2.074S308.33,174.373,307.434,174.373z M28.741,204.687c-0.646,0-1.258-0.113-1.836-0.34
		c-0.567-0.238-1.06-0.567-1.479-0.986c-0.419-0.431-0.753-0.935-1.003-1.513c-0.238-0.589-0.357-1.235-0.357-1.938
		s0.119-1.343,0.357-1.921c0.25-0.589,0.583-1.094,1.003-1.513c0.431-0.431,0.929-0.759,1.496-0.986
		c0.566-0.237,1.173-0.356,1.819-0.356c0.329,0,0.657,0.04,0.986,0.119c0.34,0.078,0.658,0.197,0.952,0.356
		c0.306,0.147,0.583,0.334,0.833,0.562c0.261,0.215,0.482,0.465,0.663,0.748v-5.831h1.377V204.5h-1.377v-1.633
		c-0.181,0.283-0.402,0.538-0.663,0.766c-0.25,0.227-0.527,0.419-0.833,0.578c-0.294,0.146-0.612,0.261-0.952,0.34
		C29.398,204.642,29.07,204.687,28.741,204.687z M28.86,203.378c0.487,0,0.94-0.092,1.36-0.272s0.782-0.425,1.088-0.73
		c0.306-0.317,0.544-0.687,0.714-1.105c0.17-0.431,0.255-0.89,0.255-1.377c0-0.477-0.085-0.924-0.255-1.343
		c-0.17-0.432-0.408-0.799-0.714-1.105c-0.306-0.316-0.668-0.566-1.088-0.748c-0.419-0.192-0.873-0.289-1.36-0.289
		c-0.476,0-0.924,0.091-1.343,0.272c-0.408,0.181-0.765,0.431-1.071,0.748c-0.306,0.306-0.544,0.674-0.714,1.104
		c-0.17,0.419-0.255,0.873-0.255,1.36c0,0.499,0.085,0.963,0.255,1.394c0.17,0.419,0.408,0.788,0.714,1.105
		c0.306,0.306,0.663,0.55,1.071,0.73C27.937,203.293,28.384,203.378,28.86,203.378z M38.816,204.687
		c-0.544,0-1.02-0.068-1.428-0.204c-0.408-0.146-0.748-0.346-1.02-0.595s-0.476-0.533-0.612-0.851
		c-0.136-0.328-0.204-0.68-0.204-1.054c0-0.952,0.368-1.683,1.105-2.193c0.748-0.521,1.768-0.781,3.06-0.781h2.907v-0.357
		c0-0.703-0.227-1.264-0.68-1.683c-0.442-0.432-1.111-0.646-2.006-0.646c-0.691,0-1.275,0.137-1.751,0.408
		c-0.464,0.272-0.855,0.652-1.173,1.139l-1.207-0.765c0.465-0.601,1.031-1.077,1.7-1.428c0.668-0.363,1.484-0.544,2.448-0.544
		c0.657,0,1.235,0.085,1.734,0.255c0.499,0.17,0.918,0.414,1.258,0.73c0.34,0.307,0.595,0.675,0.765,1.105
		c0.181,0.431,0.272,0.907,0.272,1.428v5.849h-1.36v-1.615c-0.408,0.566-0.946,1.009-1.615,1.326
		C40.34,204.528,39.609,204.687,38.816,204.687z M39.071,203.463c0.34,0,0.68-0.045,1.02-0.137c0.351-0.091,0.68-0.221,0.986-0.391
		c0.317-0.17,0.606-0.385,0.867-0.646c0.272-0.261,0.499-0.561,0.68-0.9v-1.258h-2.839c-0.963,0-1.672,0.146-2.125,0.441
		s-0.68,0.731-0.68,1.31c0,0.453,0.165,0.833,0.493,1.139C37.813,203.316,38.345,203.463,39.071,203.463z M49.719,204.687
		c-1.009,0-1.847-0.17-2.516-0.51c-0.668-0.352-1.207-0.822-1.615-1.411l1.207-0.816c0.317,0.453,0.714,0.816,1.19,1.088
		c0.476,0.272,1.065,0.408,1.768,0.408c0.714,0,1.252-0.146,1.615-0.441c0.374-0.307,0.561-0.691,0.561-1.156
		c0-0.249-0.074-0.453-0.221-0.612c-0.147-0.17-0.34-0.306-0.578-0.408c-0.238-0.112-0.516-0.204-0.833-0.271
		c-0.306-0.068-0.629-0.136-0.969-0.204c-0.396-0.079-0.793-0.17-1.19-0.272c-0.385-0.102-0.731-0.243-1.037-0.425
		c-0.306-0.192-0.555-0.436-0.748-0.73c-0.192-0.295-0.289-0.674-0.289-1.14c0-0.351,0.074-0.69,0.221-1.02
		c0.159-0.329,0.38-0.612,0.663-0.851c0.294-0.249,0.652-0.441,1.071-0.577c0.431-0.147,0.918-0.222,1.462-0.222
		c0.85,0,1.57,0.147,2.159,0.442c0.601,0.283,1.105,0.68,1.513,1.189l-1.156,0.782c-0.272-0.363-0.612-0.657-1.02-0.884
		c-0.408-0.227-0.907-0.34-1.496-0.34c-0.714,0-1.224,0.136-1.53,0.408c-0.306,0.271-0.459,0.623-0.459,1.054
		c0,0.238,0.063,0.436,0.187,0.595c0.136,0.147,0.317,0.272,0.544,0.374c0.227,0.103,0.493,0.188,0.799,0.255
		c0.306,0.068,0.641,0.137,1.003,0.204c0.396,0.079,0.793,0.176,1.19,0.289c0.396,0.103,0.748,0.249,1.054,0.442
		c0.317,0.192,0.572,0.441,0.765,0.748c0.204,0.295,0.306,0.68,0.306,1.155c0,0.363-0.08,0.721-0.238,1.071
		c-0.147,0.34-0.374,0.646-0.68,0.918c-0.295,0.261-0.669,0.47-1.122,0.629C50.846,204.608,50.319,204.687,49.719,204.687z
		 M62.241,204.687c-0.544,0-1.02-0.068-1.428-0.204c-0.408-0.146-0.748-0.346-1.02-0.595s-0.476-0.533-0.612-0.851
		c-0.136-0.328-0.204-0.68-0.204-1.054c0-0.952,0.368-1.683,1.105-2.193c0.748-0.521,1.768-0.781,3.06-0.781h2.907v-0.357
		c0-0.703-0.227-1.264-0.68-1.683c-0.442-0.432-1.111-0.646-2.006-0.646c-0.691,0-1.275,0.137-1.751,0.408
		c-0.464,0.272-0.855,0.652-1.173,1.139l-1.207-0.765c0.465-0.601,1.031-1.077,1.7-1.428c0.668-0.363,1.484-0.544,2.448-0.544
		c0.657,0,1.235,0.085,1.734,0.255c0.499,0.17,0.918,0.414,1.258,0.73c0.34,0.307,0.595,0.675,0.765,1.105
		c0.181,0.431,0.272,0.907,0.272,1.428v5.849h-1.36v-1.615c-0.408,0.566-0.946,1.009-1.615,1.326
		C63.765,204.528,63.034,204.687,62.241,204.687z M62.496,203.463c0.34,0,0.68-0.045,1.02-0.137c0.351-0.091,0.68-0.221,0.986-0.391
		c0.317-0.17,0.606-0.385,0.867-0.646c0.272-0.261,0.499-0.561,0.68-0.9v-1.258h-2.839c-0.963,0-1.672,0.146-2.125,0.441
		s-0.68,0.731-0.68,1.31c0,0.453,0.165,0.833,0.493,1.139C61.237,203.316,61.77,203.463,62.496,203.463z M74.029,191.104h1.394
		V204.5h-1.394V191.104z M82.283,204.687c-0.68,0-1.309-0.119-1.887-0.357c-0.578-0.249-1.082-0.589-1.513-1.02
		c-0.419-0.431-0.754-0.935-1.003-1.513c-0.238-0.578-0.357-1.207-0.357-1.888c0-0.669,0.119-1.292,0.357-1.87
		c0.249-0.589,0.589-1.099,1.02-1.529c0.431-0.432,0.935-0.766,1.513-1.003c0.578-0.249,1.202-0.374,1.87-0.374
		c0.669,0,1.292,0.125,1.87,0.374c0.59,0.237,1.1,0.571,1.53,1.003c0.431,0.431,0.765,0.94,1.003,1.529
		c0.25,0.578,0.374,1.201,0.374,1.87s-0.124,1.292-0.374,1.87c-0.238,0.578-0.572,1.082-1.003,1.514
		c-0.43,0.431-0.935,0.771-1.513,1.02S82.963,204.687,82.283,204.687z M82.283,203.361c0.476,0,0.918-0.085,1.326-0.255
		c0.42-0.181,0.777-0.425,1.071-0.73c0.306-0.317,0.544-0.687,0.714-1.105s0.255-0.873,0.255-1.36c0-0.486-0.085-0.94-0.255-1.359
		c-0.17-0.432-0.408-0.799-0.714-1.105c-0.306-0.316-0.663-0.561-1.071-0.73c-0.408-0.182-0.85-0.272-1.326-0.272
		c-0.476,0-0.918,0.091-1.326,0.272c-0.408,0.17-0.765,0.414-1.071,0.73c-0.294,0.307-0.527,0.674-0.697,1.105
		c-0.17,0.419-0.255,0.873-0.255,1.359c0,0.499,0.085,0.958,0.255,1.377s0.403,0.782,0.697,1.089c0.306,0.306,0.663,0.55,1.071,0.73
		C81.365,203.276,81.807,203.361,82.283,203.361z M97.654,204.687c-0.646,0-1.258-0.113-1.836-0.34
		c-0.566-0.238-1.059-0.567-1.479-0.986c-0.419-0.431-0.753-0.935-1.003-1.513c-0.238-0.589-0.357-1.235-0.357-1.938
		s0.119-1.343,0.357-1.921c0.25-0.589,0.584-1.094,1.003-1.513c0.431-0.431,0.93-0.759,1.496-0.986
		c0.567-0.237,1.173-0.356,1.819-0.356c0.329,0,0.658,0.045,0.986,0.136c0.34,0.079,0.658,0.198,0.952,0.357
		c0.306,0.146,0.584,0.334,0.833,0.561c0.261,0.215,0.482,0.465,0.663,0.748v-1.615h1.36v12.716h-1.36v-5.116
		c-0.362,0.566-0.861,1.003-1.496,1.309C98.969,204.533,98.323,204.687,97.654,204.687z M97.773,203.378
		c0.488,0,0.941-0.092,1.36-0.272c0.42-0.181,0.782-0.425,1.088-0.73c0.306-0.317,0.544-0.687,0.714-1.105
		c0.17-0.431,0.255-0.89,0.255-1.377c0-0.477-0.085-0.924-0.255-1.343c-0.17-0.432-0.408-0.799-0.714-1.105
		c-0.306-0.316-0.668-0.566-1.088-0.748c-0.419-0.192-0.872-0.289-1.36-0.289c-0.476,0-0.923,0.091-1.343,0.272
		c-0.408,0.181-0.765,0.431-1.071,0.748c-0.306,0.306-0.544,0.674-0.714,1.104c-0.17,0.419-0.255,0.873-0.255,1.36
		c0,0.499,0.085,0.963,0.255,1.394c0.17,0.419,0.408,0.788,0.714,1.105c0.306,0.306,0.663,0.55,1.071,0.73
		C96.85,203.293,97.297,203.378,97.773,203.378z M108.6,204.687c-1.258,0-2.216-0.363-2.873-1.088
		c-0.658-0.737-0.986-1.757-0.986-3.061v-5.219h1.411v5.151c0,0.895,0.226,1.608,0.68,2.142c0.453,0.533,1.122,0.799,2.006,0.799
		c0.408,0,0.782-0.073,1.122-0.221c0.34-0.146,0.634-0.351,0.884-0.612c0.26-0.271,0.459-0.589,0.595-0.951
		c0.147-0.374,0.221-0.782,0.221-1.225v-5.083h1.394v9.181h-1.36v-1.514c-0.306,0.51-0.726,0.924-1.258,1.241
		C109.914,204.533,109.302,204.687,108.6,204.687z M119.987,204.687c-0.736,0-1.405-0.119-2.006-0.357
		c-0.589-0.249-1.099-0.584-1.53-1.003c-0.419-0.431-0.742-0.935-0.969-1.513c-0.226-0.578-0.34-1.201-0.34-1.87
		c0-0.68,0.119-1.309,0.357-1.887c0.25-0.589,0.584-1.1,1.003-1.53c0.431-0.431,0.935-0.771,1.513-1.02
		c0.59-0.249,1.23-0.374,1.921-0.374c0.669,0,1.287,0.119,1.853,0.356c0.578,0.228,1.071,0.55,1.479,0.97
		c0.42,0.407,0.748,0.9,0.986,1.479c0.238,0.567,0.357,1.19,0.357,1.87v0.629h-8.109c0.046,0.442,0.165,0.844,0.357,1.207
		c0.193,0.363,0.437,0.68,0.731,0.952c0.306,0.261,0.658,0.465,1.054,0.611c0.408,0.147,0.856,0.222,1.343,0.222
		c0.737,0,1.355-0.153,1.853-0.459c0.499-0.307,0.907-0.742,1.224-1.31l1.19,0.697c-0.476,0.737-1.054,1.309-1.734,1.717
		S120.996,204.687,119.987,204.687z M119.936,196.373c-0.442,0-0.855,0.074-1.241,0.222c-0.374,0.136-0.708,0.334-1.003,0.595
		c-0.294,0.249-0.544,0.55-0.748,0.901c-0.192,0.34-0.328,0.714-0.408,1.122h6.647c-0.113-0.873-0.459-1.564-1.037-2.074
		S120.832,196.373,119.936,196.373z M135.377,204.687c-0.737,0-1.405-0.119-2.006-0.357c-0.589-0.249-1.099-0.584-1.53-1.003
		c-0.419-0.431-0.742-0.935-0.969-1.513s-0.34-1.201-0.34-1.87c0-0.68,0.119-1.309,0.357-1.887c0.249-0.589,0.584-1.1,1.003-1.53
		c0.431-0.431,0.935-0.771,1.513-1.02c0.589-0.249,1.23-0.374,1.921-0.374c0.669,0,1.286,0.119,1.853,0.356
		c0.578,0.228,1.071,0.55,1.479,0.97c0.419,0.407,0.748,0.9,0.986,1.479c0.238,0.567,0.357,1.19,0.357,1.87v0.629h-8.109
		c0.045,0.442,0.164,0.844,0.357,1.207s0.436,0.68,0.731,0.952c0.306,0.261,0.657,0.465,1.054,0.611
		c0.408,0.147,0.856,0.222,1.343,0.222c0.737,0,1.354-0.153,1.853-0.459c0.499-0.307,0.907-0.742,1.224-1.31l1.19,0.697
		c-0.476,0.737-1.054,1.309-1.734,1.717C137.23,204.483,136.386,204.687,135.377,204.687z M135.326,196.373
		c-0.442,0-0.856,0.074-1.241,0.222c-0.374,0.136-0.708,0.334-1.003,0.595c-0.295,0.249-0.544,0.55-0.748,0.901
		c-0.193,0.34-0.329,0.714-0.408,1.122h6.647c-0.113-0.873-0.459-1.564-1.037-2.074
		C136.958,196.629,136.221,196.373,135.326,196.373z M145.443,204.687c-1.008,0-1.847-0.17-2.516-0.51
		c-0.668-0.352-1.207-0.822-1.615-1.411l1.207-0.816c0.318,0.453,0.714,0.816,1.19,1.088c0.476,0.272,1.066,0.408,1.768,0.408
		c0.714,0,1.253-0.146,1.615-0.441c0.374-0.307,0.561-0.691,0.561-1.156c0-0.249-0.073-0.453-0.221-0.612
		c-0.147-0.17-0.34-0.306-0.578-0.408c-0.238-0.112-0.515-0.204-0.833-0.271c-0.306-0.068-0.629-0.136-0.969-0.204
		c-0.396-0.079-0.793-0.17-1.19-0.272c-0.385-0.102-0.731-0.243-1.037-0.425c-0.306-0.192-0.555-0.436-0.748-0.73
		c-0.192-0.295-0.289-0.674-0.289-1.14c0-0.351,0.074-0.69,0.221-1.02c0.159-0.329,0.38-0.612,0.663-0.851
		c0.295-0.249,0.652-0.441,1.071-0.577c0.431-0.147,0.918-0.222,1.462-0.222c0.85,0,1.57,0.147,2.159,0.442
		c0.601,0.283,1.105,0.68,1.513,1.189l-1.156,0.782c-0.272-0.363-0.612-0.657-1.02-0.884c-0.408-0.227-0.906-0.34-1.496-0.34
		c-0.714,0-1.224,0.136-1.53,0.408c-0.306,0.271-0.459,0.623-0.459,1.054c0,0.238,0.063,0.436,0.187,0.595
		c0.136,0.147,0.318,0.272,0.544,0.374c0.227,0.103,0.493,0.188,0.799,0.255c0.306,0.068,0.641,0.137,1.003,0.204
		c0.397,0.079,0.794,0.176,1.19,0.289c0.397,0.103,0.748,0.249,1.054,0.442c0.318,0.192,0.573,0.441,0.765,0.748
		c0.204,0.295,0.306,0.68,0.306,1.155c0,0.363-0.079,0.721-0.238,1.071c-0.147,0.34-0.374,0.646-0.68,0.918
		c-0.294,0.261-0.668,0.47-1.122,0.629C146.571,204.608,146.044,204.687,145.443,204.687z M154.871,195.32h2.397v9.181h-2.397
		V195.32z M154.565,192.736c0-0.441,0.142-0.805,0.425-1.088c0.283-0.295,0.64-0.442,1.071-0.442c0.453,0,0.816,0.147,1.088,0.442
		c0.283,0.283,0.425,0.646,0.425,1.088c0,0.431-0.142,0.788-0.425,1.071c-0.272,0.283-0.635,0.425-1.088,0.425
		c-0.442,0-0.805-0.142-1.088-0.425C154.701,193.524,154.565,193.166,154.565,192.736z M159.138,195.32h2.346v1.088
		c0.283-0.396,0.64-0.708,1.07-0.935c0.43-0.228,0.924-0.34,1.479-0.34c0.69,0,1.269,0.136,1.733,0.407
		c0.465,0.262,0.821,0.641,1.071,1.14c0.294-0.477,0.685-0.851,1.173-1.122c0.498-0.283,1.065-0.425,1.7-0.425
		c1.167,0,2.04,0.334,2.618,1.003c0.589,0.657,0.884,1.563,0.884,2.72v5.645H170.8v-5.305c0-0.623-0.136-1.11-0.407-1.462
		c-0.262-0.363-0.692-0.544-1.293-0.544c-0.533,0-0.957,0.181-1.274,0.544c-0.318,0.352-0.476,0.89-0.476,1.615v5.151h-2.397v-5.372
		c0-0.612-0.132-1.089-0.392-1.429c-0.261-0.34-0.68-0.51-1.258-0.51c-0.556,0-0.998,0.181-1.326,0.544
		c-0.317,0.363-0.476,0.918-0.476,1.666v5.101h-2.363V195.32z M180.229,204.687c-0.625,0-1.186-0.108-1.684-0.323
		c-0.499-0.227-0.9-0.555-1.207-0.985v4.794h-2.329V195.32h2.312v1.275c0.307-0.453,0.709-0.811,1.207-1.071s1.06-0.391,1.684-0.391
		c0.578,0,1.133,0.112,1.666,0.34c0.532,0.215,1.003,0.533,1.411,0.952c0.407,0.419,0.731,0.924,0.969,1.513
		c0.249,0.589,0.374,1.247,0.374,1.972c0,0.737-0.125,1.4-0.374,1.989c-0.25,0.578-0.577,1.077-0.985,1.496
		s-0.879,0.742-1.412,0.969C181.338,204.578,180.794,204.687,180.229,204.687z M179.752,202.477c0.352,0,0.68-0.068,0.986-0.204
		c0.306-0.136,0.572-0.317,0.799-0.544c0.238-0.238,0.419-0.51,0.544-0.816c0.136-0.316,0.204-0.656,0.204-1.02
		s-0.068-0.697-0.204-1.003c-0.125-0.317-0.306-0.589-0.544-0.816c-0.227-0.237-0.493-0.425-0.799-0.561
		c-0.307-0.136-0.635-0.204-0.986-0.204c-0.363,0-0.703,0.068-1.02,0.204c-0.307,0.136-0.573,0.323-0.799,0.561
		c-0.228,0.228-0.408,0.499-0.545,0.816c-0.125,0.316-0.187,0.651-0.187,1.003c0,0.363,0.062,0.703,0.187,1.02
		c0.137,0.307,0.317,0.578,0.545,0.816c0.226,0.227,0.492,0.408,0.799,0.544C179.049,202.408,179.389,202.477,179.752,202.477z
		 M190.738,204.687c-0.692,0-1.332-0.125-1.922-0.374s-1.104-0.589-1.547-1.02c-0.431-0.442-0.771-0.952-1.02-1.53
		c-0.238-0.578-0.357-1.196-0.357-1.854c0-0.656,0.119-1.274,0.357-1.853c0.249-0.589,0.589-1.1,1.02-1.53
		c0.442-0.431,0.957-0.771,1.547-1.02s1.229-0.374,1.922-0.374c0.68,0,1.313,0.125,1.904,0.374c0.6,0.249,1.115,0.589,1.547,1.02
		c0.441,0.431,0.787,0.941,1.037,1.53c0.248,0.578,0.373,1.196,0.373,1.853c0,0.657-0.125,1.275-0.373,1.854
		c-0.25,0.578-0.59,1.088-1.021,1.53c-0.431,0.431-0.947,0.771-1.547,1.02C192.068,204.562,191.43,204.687,190.738,204.687z
		 M190.755,202.46c0.351,0,0.681-0.068,0.986-0.204c0.306-0.137,0.571-0.317,0.799-0.544c0.226-0.228,0.401-0.493,0.526-0.8
		c0.137-0.316,0.205-0.656,0.205-1.02c0-0.352-0.068-0.687-0.205-1.003c-0.125-0.317-0.301-0.589-0.526-0.816
		c-0.228-0.227-0.493-0.408-0.799-0.544s-0.636-0.204-0.986-0.204c-0.353,0-0.68,0.068-0.985,0.204
		c-0.307,0.136-0.574,0.317-0.799,0.544c-0.228,0.228-0.408,0.499-0.545,0.816c-0.125,0.316-0.188,0.651-0.188,1.003
		c0,0.363,0.063,0.703,0.188,1.02c0.137,0.307,0.317,0.572,0.545,0.8c0.225,0.227,0.492,0.407,0.799,0.544
		C190.075,202.392,190.402,202.46,190.755,202.46z M197.139,195.32h2.313v1.411c0.226-0.544,0.555-0.941,0.986-1.19
		c0.441-0.261,0.957-0.391,1.547-0.391c0.306,0,0.589,0.034,0.85,0.103c0.271,0.067,0.504,0.152,0.697,0.255l-0.85,2.312
		c-0.125-0.091-0.295-0.164-0.511-0.221c-0.216-0.068-0.454-0.103-0.714-0.103c-0.602,0-1.083,0.17-1.445,0.511
		c-0.363,0.329-0.544,0.878-0.544,1.648v4.846h-2.329V195.32z M204.432,195.32h1.699v-1.989l2.313-1.359v3.349h2.414v2.074h-2.414
		v3.774c0,0.486,0.091,0.826,0.271,1.02c0.193,0.193,0.438,0.289,0.73,0.289c0.307,0,0.591-0.113,0.851-0.34l1.071,1.836
		c-0.294,0.227-0.629,0.402-1.004,0.527c-0.361,0.112-0.758,0.17-1.189,0.17c-0.963,0-1.711-0.256-2.244-0.766
		c-0.531-0.521-0.799-1.404-0.799-2.651v-3.859h-1.699V195.32z M215.219,204.687c-1.009,0-1.797-0.249-2.363-0.748
		c-0.556-0.51-0.832-1.173-0.832-1.989c0-0.963,0.367-1.717,1.104-2.261c0.735-0.544,1.745-0.816,3.026-0.816h2.414v-0.118
		c0-0.499-0.166-0.901-0.493-1.207c-0.329-0.307-0.828-0.459-1.496-0.459c-0.522,0-0.958,0.107-1.31,0.322
		c-0.352,0.204-0.635,0.499-0.85,0.885l-2.158-1.071c0.463-0.612,1.041-1.111,1.733-1.496c0.702-0.397,1.569-0.595,2.601-0.595
		c1.36,0,2.408,0.329,3.146,0.985c0.735,0.657,1.104,1.57,1.104,2.737v5.645h-2.261v-1.411c-0.329,0.476-0.794,0.86-1.394,1.155
		C216.602,204.539,215.943,204.687,215.219,204.687z M215.898,202.748c0.283,0,0.562-0.039,0.834-0.118
		c0.271-0.079,0.526-0.193,0.765-0.341c0.237-0.146,0.446-0.322,0.629-0.526c0.192-0.204,0.345-0.432,0.459-0.681v-0.492h-2.159
		c-0.703,0-1.207,0.102-1.513,0.306c-0.295,0.204-0.442,0.487-0.442,0.85C214.471,202.414,214.947,202.748,215.898,202.748z
		 M222.654,195.32h2.347v1.156c0.295-0.419,0.669-0.748,1.122-0.986c0.465-0.237,0.986-0.356,1.564-0.356
		c1.088,0,1.949,0.34,2.584,1.02c0.646,0.669,0.969,1.604,0.969,2.805v5.543h-2.397v-5.186c0-0.657-0.157-1.173-0.476-1.547
		c-0.307-0.385-0.77-0.578-1.395-0.578c-0.555,0-1.02,0.198-1.394,0.595c-0.374,0.386-0.562,0.936-0.562,1.649v5.066h-2.363V195.32z
		 M232.238,195.32h1.701v-1.989l2.312-1.359v3.349h2.414v2.074h-2.414v3.774c0,0.486,0.091,0.826,0.272,1.02
		c0.192,0.193,0.436,0.289,0.73,0.289c0.307,0,0.589-0.113,0.85-0.34l1.071,1.836c-0.295,0.227-0.629,0.402-1.003,0.527
		c-0.363,0.112-0.759,0.17-1.189,0.17c-0.963,0-1.711-0.256-2.244-0.766c-0.533-0.521-0.799-1.404-0.799-2.651v-3.859h-1.701V195.32
		z M244.346,204.687c-0.738,0-1.406-0.119-2.007-0.357c-0.601-0.249-1.116-0.589-1.547-1.02c-0.42-0.431-0.743-0.935-0.969-1.513
		c-0.228-0.578-0.341-1.201-0.341-1.87s0.119-1.292,0.357-1.87c0.249-0.589,0.59-1.1,1.02-1.53c0.431-0.431,0.94-0.771,1.531-1.02
		c0.588-0.249,1.224-0.374,1.903-0.374c0.69,0,1.326,0.119,1.904,0.356c0.577,0.238,1.075,0.567,1.495,0.986
		c0.42,0.408,0.748,0.901,0.986,1.479c0.238,0.578,0.357,1.207,0.357,1.888v0.884h-7.293c0.158,0.601,0.464,1.077,0.918,1.428
		c0.464,0.34,1.037,0.51,1.717,0.51c0.544,0,1.003-0.107,1.377-0.322c0.374-0.228,0.674-0.527,0.901-0.901l1.921,1.122
		c-0.465,0.646-1.032,1.162-1.7,1.547C246.209,204.493,245.365,204.687,244.346,204.687z M244.294,197.121
		c-0.601,0-1.117,0.159-1.547,0.477c-0.431,0.316-0.743,0.748-0.935,1.292h4.896c-0.159-0.578-0.448-1.014-0.867-1.31
		C245.421,197.275,244.906,197.121,244.294,197.121z M259.88,204.687c-0.68,0-1.332-0.147-1.955-0.442
		c-0.624-0.306-1.116-0.748-1.479-1.325v5.116h-1.377V195.32h1.361v1.684c0.18-0.296,0.396-0.556,0.646-0.782
		c0.26-0.238,0.544-0.437,0.85-0.595c0.306-0.159,0.623-0.278,0.952-0.357c0.34-0.091,0.68-0.136,1.02-0.136
		c0.635,0,1.235,0.119,1.803,0.356c0.566,0.228,1.059,0.556,1.479,0.986c0.43,0.419,0.766,0.924,1.004,1.513
		c0.248,0.578,0.373,1.218,0.373,1.921s-0.125,1.35-0.373,1.938c-0.238,0.578-0.567,1.082-0.986,1.513
		c-0.42,0.419-0.918,0.748-1.496,0.986C261.132,204.573,260.525,204.687,259.88,204.687z M259.761,203.378
		c0.476,0,0.919-0.085,1.326-0.256c0.419-0.181,0.782-0.425,1.088-0.73c0.306-0.317,0.544-0.687,0.714-1.105
		c0.17-0.431,0.256-0.895,0.256-1.394c0-0.487-0.086-0.941-0.256-1.36c-0.17-0.431-0.408-0.799-0.714-1.104
		c-0.306-0.317-0.669-0.567-1.088-0.748c-0.407-0.182-0.851-0.272-1.326-0.272c-0.487,0-0.94,0.097-1.36,0.289
		c-0.42,0.182-0.781,0.432-1.088,0.748c-0.306,0.307-0.549,0.674-0.73,1.105c-0.17,0.419-0.255,0.866-0.255,1.343
		c0,0.487,0.085,0.946,0.255,1.377c0.182,0.419,0.425,0.788,0.73,1.105c0.307,0.306,0.668,0.55,1.088,0.73
		S259.273,203.378,259.761,203.378z M269.378,204.687c-0.544,0-1.021-0.068-1.428-0.204c-0.408-0.146-0.748-0.346-1.021-0.595
		c-0.271-0.249-0.476-0.533-0.611-0.851c-0.137-0.328-0.204-0.68-0.204-1.054c0-0.952,0.368-1.683,1.104-2.193
		c0.748-0.521,1.768-0.781,3.061-0.781h2.906v-0.357c0-0.703-0.226-1.264-0.68-1.683c-0.441-0.432-1.109-0.646-2.006-0.646
		c-0.691,0-1.275,0.137-1.751,0.408c-0.464,0.272-0.854,0.652-1.173,1.139l-1.207-0.765c0.465-0.601,1.031-1.077,1.699-1.428
		c0.67-0.363,1.486-0.544,2.449-0.544c0.657,0,1.235,0.085,1.733,0.255c0.499,0.17,0.918,0.414,1.258,0.73
		c0.341,0.307,0.595,0.675,0.765,1.105c0.183,0.431,0.272,0.907,0.272,1.428v5.849h-1.36v-1.615
		c-0.408,0.566-0.945,1.009-1.615,1.326C270.902,204.528,270.172,204.687,269.378,204.687z M269.633,203.463
		c0.34,0,0.68-0.045,1.02-0.137c0.353-0.091,0.681-0.221,0.986-0.391c0.318-0.17,0.607-0.385,0.867-0.646
		c0.271-0.261,0.499-0.561,0.68-0.9v-1.258h-2.838c-0.964,0-1.672,0.146-2.125,0.441s-0.681,0.731-0.681,1.31
		c0,0.453,0.165,0.833,0.493,1.139C268.375,203.316,268.908,203.463,269.633,203.463z M276.966,195.32h1.343v1.734
		c0.193-0.612,0.51-1.077,0.952-1.395c0.454-0.316,1.009-0.476,1.666-0.476c0.658,0,1.169,0.113,1.53,0.34l-0.578,1.326
		c-0.124-0.091-0.283-0.159-0.477-0.204c-0.18-0.057-0.396-0.085-0.646-0.085c-0.771,0-1.364,0.232-1.784,0.697
		c-0.42,0.453-0.63,1.189-0.63,2.21v5.032h-1.377V195.32z M286.544,204.687c-0.544,0-1.021-0.068-1.428-0.204
		c-0.408-0.146-0.748-0.346-1.021-0.595c-0.271-0.249-0.476-0.533-0.611-0.851c-0.137-0.328-0.205-0.68-0.205-1.054
		c0-0.952,0.369-1.683,1.105-2.193c0.748-0.521,1.768-0.781,3.061-0.781h2.906v-0.357c0-0.703-0.226-1.264-0.68-1.683
		c-0.441-0.432-1.109-0.646-2.006-0.646c-0.691,0-1.275,0.137-1.751,0.408c-0.464,0.272-0.854,0.652-1.173,1.139l-1.207-0.765
		c0.465-0.601,1.031-1.077,1.699-1.428c0.67-0.363,1.486-0.544,2.449-0.544c0.657,0,1.235,0.085,1.733,0.255
		c0.499,0.17,0.918,0.414,1.258,0.73c0.341,0.307,0.595,0.675,0.765,1.105c0.183,0.431,0.272,0.907,0.272,1.428v5.849h-1.36v-1.615
		c-0.408,0.566-0.945,1.009-1.615,1.326C288.068,204.528,287.338,204.687,286.544,204.687z M286.799,203.463
		c0.34,0,0.68-0.045,1.02-0.137c0.353-0.091,0.681-0.221,0.986-0.391c0.318-0.17,0.607-0.385,0.867-0.646
		c0.271-0.261,0.499-0.561,0.68-0.9v-1.258h-2.838c-0.964,0-1.672,0.146-2.125,0.441s-0.681,0.731-0.681,1.31
		c0,0.453,0.165,0.833,0.493,1.139C285.541,203.316,286.074,203.463,286.799,203.463z M297.482,195.32h1.785v-2.022l1.377-0.885
		v2.907h2.687v1.241h-2.687v5.134c0,0.589,0.119,1.009,0.357,1.258c0.249,0.249,0.572,0.374,0.969,0.374
		c0.385,0,0.736-0.146,1.055-0.441l0.73,1.104c-0.261,0.204-0.544,0.363-0.85,0.477c-0.307,0.112-0.652,0.17-1.037,0.17
		c-0.85,0-1.496-0.228-1.938-0.681c-0.442-0.465-0.664-1.207-0.664-2.227v-5.168h-1.785V195.32z M305.322,195.32h1.41v9.181h-1.41
		V195.32z M304.932,192.497c0-0.316,0.102-0.577,0.305-0.781c0.216-0.215,0.477-0.323,0.783-0.323c0.328,0,0.595,0.108,0.799,0.323
		c0.203,0.204,0.306,0.465,0.306,0.781c0,0.317-0.103,0.584-0.306,0.8c-0.204,0.204-0.471,0.306-0.799,0.306
		c-0.317,0-0.578-0.102-0.783-0.306C305.033,193.081,304.932,192.815,304.932,192.497z M308.799,203.615
		c0-0.316,0.102-0.578,0.307-0.781c0.215-0.216,0.476-0.323,0.781-0.323c0.317,0,0.578,0.107,0.782,0.323
		c0.215,0.203,0.323,0.465,0.323,0.781c0,0.317-0.108,0.584-0.323,0.799c-0.204,0.216-0.465,0.323-0.782,0.323
		c-0.328,0-0.595-0.107-0.799-0.323C308.895,204.199,308.799,203.933,308.799,203.615z"/>
	
		<linearGradient id="SVGID_1_" gradientUnits="userSpaceOnUse" x1="416.5059" y1="67.8245" x2="483.0479" y2="-101.2215" gradientTransform="matrix(1 0 0 -1 -253.2998 154.686)">
		<stop  offset="9.500000e-007" style="stop-color:#E1E9FF"/>
		<stop  offset="1" style="stop-color:#8173FF"/>
	</linearGradient>
	<path fill="url(#SVGID_1_)" d="M167,144.5c26.51,0,48-21.49,48-48c0-26.511-21.49-48-48-48s-48,21.489-48,48
		C119,123.01,140.49,144.5,167,144.5z"/>
	<path fill="#3d6d79" stroke="#FFFFFF" stroke-miterlimit="10" d="M176.02,98.294c1.657,3.462,2.201,7.354,1.554,11.138
		s-2.452,7.273-5.167,9.988c-7.246,7.246-19.024,7.246-26.27,0c-7.247-7.246-7.247-19.024,0-26.271
		c2.714-2.714,6.204-4.52,9.988-5.167c3.784-0.646,7.676-0.103,11.138,1.555l9.523-9.522l-5.93-5.929
		c-1.562-1.563-1.562-4.094,0-5.656l3.102-3.101c1.563-1.563,4.094-1.563,5.656,0L192.885,78.6c0.781,0.781,0.781,2.047,0,2.828
		L176.02,98.294z M154.893,101.906c2.418-2.418,6.337-2.418,8.755,0c2.42,2.418,2.42,6.339,0,8.757
		c-2.418,2.418-6.337,2.418-8.755,0C152.474,108.244,152.474,104.323,154.893,101.906z"/>
</g>
</svg>
