<?xml version="1.0" encoding="utf-8"?>
<!-- Generator: Adobe Illustrator 24.0.2, SVG Export Plug-In . SVG Version: 6.00 Build 0)  -->
<svg version="1.1" id="Capa_1" xmlns="http://www.w3.org/2000/svg" xmlns:xlink="http://www.w3.org/1999/xlink" x="0px" y="0px"
	 viewBox="0 0 220 16" style="enable-background:new 0 0 220 16;" xml:space="preserve">
<style type="text/css">
	.st0{fill:#566865;}
	.st1{fill:none;}
	.st2{font-family:'NexaBold';}
	.st3{font-size:9px;}
</style>
<path class="st0" d="M0.5,1h4.3c0.6,0,1.1,0.1,1.6,0.3s0.9,0.5,1.3,0.8C8,2.5,8.3,2.9,8.4,3.4c0.2,0.5,0.3,1,0.3,1.5S8.6,6,8.4,6.4
	C8.3,6.9,8,7.3,7.6,7.7C7.3,8,6.8,8.3,6.3,8.5c-0.5,0.2-1,0.3-1.6,0.3H2.1V12H0.5V1z M2.1,2.5v4.7h2.5c0.4,0,0.7-0.1,1-0.2
	C6,7,6.2,6.8,6.4,6.6c0.2-0.2,0.4-0.5,0.5-0.8C7,5.6,7.1,5.3,7.1,4.9C7.1,4.6,7,4.3,6.9,4C6.8,3.7,6.7,3.4,6.4,3.2
	C6.2,3,6,2.8,5.7,2.7C5.3,2.6,5,2.5,4.6,2.5H2.1z M14,12.2c-0.6,0-1.1-0.1-1.7-0.3c-0.5-0.2-1-0.5-1.3-0.9c-0.4-0.4-0.7-0.8-0.9-1.3
	C9.9,9.1,9.8,8.5,9.8,7.9c0-0.6,0.1-1.1,0.3-1.6c0.2-0.5,0.5-1,0.9-1.3c0.4-0.4,0.8-0.7,1.3-0.9c0.5-0.2,1.1-0.3,1.7-0.3
	c0.6,0,1.1,0.1,1.6,0.3c0.5,0.2,1,0.5,1.3,0.9c0.4,0.4,0.7,0.8,0.9,1.3c0.2,0.5,0.3,1.1,0.3,1.6c0,0.6-0.1,1.1-0.3,1.7
	c-0.2,0.5-0.5,1-0.9,1.3c-0.4,0.4-0.8,0.7-1.3,0.9C15.1,12.1,14.6,12.2,14,12.2z M14,10.6c0.4,0,0.7-0.1,1-0.2
	c0.3-0.1,0.6-0.3,0.8-0.6c0.2-0.3,0.4-0.5,0.6-0.9c0.1-0.3,0.2-0.7,0.2-1.1c0-0.4-0.1-0.7-0.2-1c-0.1-0.3-0.3-0.6-0.6-0.9
	c-0.2-0.3-0.5-0.4-0.8-0.6c-0.3-0.1-0.7-0.2-1-0.2c-0.4,0-0.7,0.1-1,0.2c-0.3,0.1-0.6,0.3-0.8,0.6c-0.2,0.2-0.4,0.5-0.5,0.9
	c-0.1,0.3-0.2,0.7-0.2,1c0,0.4,0.1,0.7,0.2,1.1c0.1,0.3,0.3,0.6,0.5,0.9c0.2,0.2,0.5,0.4,0.8,0.6C13.3,10.6,13.6,10.6,14,10.6z
	 M19.8,0.2h1.6V12h-1.6V0.2z M23.3,3.9h1.6V12h-1.6V3.9z M25.2,0.3h1.7l-2.2,2.5h-1.2L25.2,0.3z M26.2,3.9h1.6V2.1l1.6-1v2.8h2.3
	v1.5h-2.3v4c0,0.4,0.1,0.8,0.3,1c0.2,0.2,0.5,0.3,0.8,0.3c0.3,0,0.6-0.1,0.8-0.3l0.8,1.3c-0.2,0.2-0.5,0.3-0.8,0.4
	c-0.3,0.1-0.6,0.1-0.9,0.1c-0.8,0-1.4-0.2-1.9-0.6c-0.4-0.4-0.7-1.1-0.7-2.1v-4h-1.6V3.9z M33.1,3.9h1.6V12h-1.6V3.9z M32.8,1.5
	c0-0.3,0.1-0.6,0.3-0.8c0.2-0.2,0.5-0.3,0.8-0.3c0.3,0,0.6,0.1,0.8,0.3c0.2,0.2,0.3,0.5,0.3,0.8S35,2.1,34.8,2.3
	c-0.2,0.2-0.5,0.3-0.8,0.3s-0.6-0.1-0.8-0.3C32.9,2.1,32.8,1.8,32.8,1.5z M40.6,12.2c-0.6,0-1.2-0.1-1.7-0.3s-1-0.5-1.3-0.9
	c-0.4-0.4-0.7-0.8-0.9-1.3c-0.2-0.5-0.3-1.1-0.3-1.7c0-0.6,0.1-1.2,0.3-1.7c0.2-0.5,0.5-1,0.9-1.3c0.4-0.4,0.8-0.7,1.3-0.9
	c0.5-0.2,1.1-0.3,1.7-0.3c0.5,0,0.9,0.1,1.3,0.2c0.4,0.1,0.8,0.3,1.1,0.5c0.3,0.2,0.6,0.5,0.9,0.8c0.3,0.3,0.5,0.6,0.6,1L43,6.8
	c-0.2-0.5-0.5-0.9-0.9-1.2c-0.4-0.3-0.9-0.4-1.4-0.4c-0.4,0-0.7,0.1-1,0.2S38.9,5.8,38.7,6c-0.2,0.2-0.4,0.5-0.6,0.9
	c-0.1,0.3-0.2,0.7-0.2,1S38,8.7,38.1,9c0.1,0.3,0.3,0.6,0.6,0.9c0.2,0.2,0.5,0.4,0.8,0.6c0.3,0.1,0.7,0.2,1.1,0.2
	c0.6,0,1.1-0.2,1.5-0.5C42.5,9.9,42.8,9.5,43,9l1.5,0.6c-0.3,0.8-0.8,1.4-1.5,1.8C42.3,11.9,41.5,12.2,40.6,12.2z M48.4,12.2
	c-0.5,0-0.9-0.1-1.2-0.2c-0.4-0.1-0.6-0.3-0.9-0.5c-0.2-0.2-0.4-0.5-0.6-0.8c-0.1-0.3-0.2-0.6-0.2-1c0-0.8,0.3-1.5,1-2
	c0.6-0.5,1.5-0.7,2.7-0.7h2.4V6.9c0-0.5-0.2-1-0.5-1.3s-0.9-0.5-1.6-0.5c-0.5,0-1,0.1-1.4,0.4c-0.4,0.2-0.7,0.5-0.9,0.9l-1.4-0.8
	c0.4-0.5,0.9-1,1.5-1.3c0.6-0.4,1.4-0.5,2.3-0.5C50,3.7,50.6,3.8,51,4c0.5,0.2,0.8,0.4,1.2,0.7c0.3,0.3,0.5,0.6,0.7,1
	C53,6.1,53.1,6.5,53.1,7v5h-1.6v-1.4c-0.3,0.5-0.8,0.9-1.3,1.2C49.7,12,49.1,12.2,48.4,12.2z M48.7,10.8c0.3,0,0.6,0,0.9-0.1
	s0.5-0.2,0.8-0.3c0.3-0.2,0.5-0.3,0.7-0.5c0.2-0.2,0.4-0.5,0.5-0.7V8.4h-2.3c-0.8,0-1.3,0.1-1.6,0.3c-0.3,0.2-0.5,0.5-0.5,0.9
	c0,0.3,0.1,0.6,0.4,0.8S48.2,10.8,48.7,10.8z M62.3,12.2c-0.5,0-1-0.1-1.5-0.3c-0.5-0.2-0.9-0.5-1.3-0.9c-0.4-0.4-0.7-0.8-0.9-1.3
	c-0.2-0.5-0.3-1.1-0.3-1.7c0-0.6,0.1-1.2,0.3-1.7c0.2-0.5,0.5-1,0.9-1.3c0.4-0.4,0.8-0.7,1.3-0.9c0.5-0.2,1-0.3,1.6-0.3
	s1.1,0.1,1.5,0.3c0.5,0.2,0.9,0.5,1.2,0.9V0.2h1.6V12h-1.6v-1.2c-0.3,0.4-0.7,0.8-1.2,1C63.4,12,62.9,12.2,62.3,12.2z M62.5,10.7
	c0.4,0,0.7-0.1,1-0.2c0.3-0.2,0.6-0.3,0.8-0.6C64.7,9.6,64.8,9.3,65,9c0.1-0.3,0.2-0.7,0.2-1.1c0-0.4-0.1-0.7-0.2-1
	c-0.1-0.3-0.3-0.6-0.6-0.9c-0.2-0.3-0.5-0.4-0.8-0.6c-0.3-0.1-0.7-0.2-1-0.2s-0.7,0.1-1.1,0.2c-0.3,0.1-0.6,0.3-0.8,0.6
	c-0.2,0.2-0.4,0.5-0.6,0.9c-0.1,0.3-0.2,0.7-0.2,1.1c0,0.4,0.1,0.7,0.2,1.1c0.1,0.3,0.3,0.6,0.6,0.9c0.2,0.3,0.5,0.4,0.8,0.6
	C61.8,10.6,62.1,10.7,62.5,10.7z M72.5,12.2c-0.7,0-1.2-0.1-1.8-0.3c-0.5-0.2-1-0.5-1.3-0.9c-0.4-0.4-0.7-0.8-0.9-1.3
	c-0.2-0.5-0.3-1.1-0.3-1.7c0-0.6,0.1-1.2,0.3-1.7c0.2-0.5,0.5-1,0.9-1.3c0.4-0.4,0.8-0.7,1.3-0.9c0.5-0.2,1.1-0.3,1.7-0.3
	s1.2,0.1,1.7,0.3c0.5,0.2,0.9,0.5,1.3,0.9c0.4,0.4,0.7,0.8,0.9,1.3c0.2,0.5,0.3,1.1,0.3,1.7v0.7h-6.8c0.1,0.7,0.4,1.2,0.9,1.6
	c0.5,0.4,1.1,0.6,1.8,0.6c0.6,0,1-0.1,1.4-0.4c0.4-0.2,0.7-0.6,0.9-0.9l1.3,0.8c-0.4,0.6-0.9,1.1-1.5,1.4
	C74.2,12,73.4,12.2,72.5,12.2z M72.5,5.2c-0.7,0-1.2,0.2-1.7,0.6c-0.5,0.4-0.8,0.8-0.9,1.4H75c-0.1-0.6-0.4-1.1-0.9-1.5
	C73.7,5.3,73.1,5.2,72.5,5.2z M86.2,12.2c-0.6,0-1.1-0.1-1.6-0.3c-0.5-0.2-0.9-0.5-1.2-0.9v4.3h-1.6V3.9h1.6v1.2
	c0.3-0.4,0.7-0.8,1.2-1c0.5-0.3,1-0.4,1.6-0.4c0.5,0,1,0.1,1.5,0.3c0.5,0.2,0.9,0.5,1.3,0.9c0.4,0.4,0.7,0.8,0.9,1.3
	c0.2,0.5,0.3,1.1,0.3,1.7c0,0.6-0.1,1.2-0.3,1.7c-0.2,0.5-0.5,1-0.9,1.3c-0.4,0.4-0.8,0.7-1.3,0.9S86.7,12.2,86.2,12.2z M85.9,10.7
	c0.4,0,0.7-0.1,1-0.2c0.3-0.1,0.6-0.3,0.9-0.6c0.2-0.3,0.4-0.5,0.6-0.9c0.1-0.3,0.2-0.7,0.2-1.1c0-0.4-0.1-0.7-0.2-1.1
	c-0.1-0.3-0.3-0.6-0.6-0.9c-0.2-0.3-0.5-0.4-0.9-0.6c-0.3-0.1-0.7-0.2-1-0.2c-0.4,0-0.7,0.1-1.1,0.2C84.5,5.6,84.3,5.8,84,6
	c-0.2,0.2-0.4,0.5-0.6,0.9c-0.1,0.3-0.2,0.7-0.2,1c0,0.4,0.1,0.7,0.2,1.1c0.1,0.3,0.3,0.6,0.6,0.9c0.2,0.2,0.5,0.4,0.8,0.6
	C85.2,10.6,85.5,10.7,85.9,10.7z M91.7,3.9h1.6v1.4c0.2-0.5,0.5-0.9,0.8-1.1c0.4-0.3,0.8-0.4,1.4-0.4c0.3,0,0.5,0,0.8,0.1
	c0.2,0.1,0.4,0.1,0.6,0.2l-0.6,1.6c-0.2-0.2-0.6-0.2-1-0.2c-0.6,0-1,0.2-1.4,0.5c-0.3,0.3-0.5,0.8-0.5,1.6V12h-1.6V3.9z M98.1,3.9
	h1.6V12h-1.6V3.9z M97.8,1.5c0-0.3,0.1-0.6,0.3-0.8c0.2-0.2,0.5-0.3,0.8-0.3c0.3,0,0.6,0.1,0.8,0.3c0.2,0.2,0.3,0.5,0.3,0.8
	s-0.1,0.6-0.3,0.8c-0.2,0.2-0.5,0.3-0.8,0.3c-0.3,0-0.6-0.1-0.8-0.3S97.8,1.8,97.8,1.5z M101,3.9h1.7L105,10l2.4-6.1h1.7l-3.4,8.1
	h-1.6L101,3.9z M112.5,12.2c-0.5,0-0.9-0.1-1.2-0.2c-0.3-0.1-0.6-0.3-0.9-0.5c-0.2-0.2-0.4-0.5-0.6-0.8c-0.1-0.3-0.2-0.6-0.2-1
	c0-0.8,0.3-1.5,1-2c0.7-0.5,1.5-0.7,2.7-0.7h2.4V6.9c0-0.5-0.2-1-0.5-1.3c-0.3-0.3-0.9-0.5-1.6-0.5c-0.5,0-1,0.1-1.4,0.4
	c-0.4,0.2-0.7,0.5-0.9,0.9l-1.4-0.8c0.4-0.5,0.9-1,1.5-1.3c0.6-0.4,1.4-0.5,2.3-0.5c0.6,0,1.1,0.1,1.5,0.2c0.5,0.2,0.8,0.4,1.2,0.7
	c0.3,0.3,0.5,0.6,0.7,1c0.2,0.4,0.2,0.8,0.2,1.3v5h-1.6v-1.4c-0.3,0.5-0.8,0.9-1.3,1.2C113.8,12,113.2,12.2,112.5,12.2z M112.8,10.8
	c0.3,0,0.6,0,0.9-0.1c0.3-0.1,0.5-0.2,0.8-0.3c0.3-0.2,0.5-0.3,0.7-0.5c0.2-0.2,0.4-0.5,0.5-0.7V8.4h-2.3c-0.8,0-1.3,0.1-1.6,0.3
	c-0.3,0.2-0.5,0.5-0.5,0.9c0,0.3,0.1,0.6,0.4,0.8S112.3,10.8,112.8,10.8z M123,12.2c-0.6,0-1.2-0.1-1.7-0.3c-0.5-0.2-1-0.5-1.3-0.9
	c-0.4-0.4-0.7-0.8-0.9-1.3c-0.2-0.5-0.3-1.1-0.3-1.7c0-0.6,0.1-1.2,0.3-1.7s0.5-1,0.9-1.3c0.4-0.4,0.8-0.7,1.3-0.9
	c0.5-0.2,1.1-0.3,1.7-0.3c0.4,0,0.9,0.1,1.3,0.2c0.4,0.1,0.8,0.3,1.1,0.5c0.3,0.2,0.6,0.5,0.9,0.8c0.3,0.3,0.5,0.6,0.6,1l-1.5,0.6
	c-0.2-0.5-0.5-0.9-0.9-1.2c-0.4-0.3-0.9-0.4-1.4-0.4c-0.4,0-0.7,0.1-1.1,0.2s-0.6,0.3-0.8,0.6c-0.2,0.2-0.4,0.5-0.6,0.9
	c-0.1,0.3-0.2,0.7-0.2,1s0.1,0.7,0.2,1.1c0.1,0.3,0.3,0.6,0.6,0.9c0.2,0.2,0.5,0.4,0.8,0.6c0.3,0.1,0.7,0.2,1.1,0.2
	c0.6,0,1.1-0.2,1.5-0.5c0.4-0.3,0.7-0.7,0.9-1.2l1.5,0.6c-0.3,0.8-0.8,1.4-1.5,1.8C124.7,11.9,123.9,12.2,123,12.2z M128.3,3.9h1.6
	V12h-1.6V3.9z M128,1.5c0-0.3,0.1-0.6,0.3-0.8c0.2-0.2,0.5-0.3,0.8-0.3c0.3,0,0.6,0.1,0.8,0.3c0.2,0.2,0.3,0.5,0.3,0.8
	s-0.1,0.6-0.3,0.8c-0.2,0.2-0.5,0.3-0.8,0.3s-0.6-0.1-0.8-0.3S128,1.8,128,1.5z M135.6,12.2c-0.5,0-1-0.1-1.5-0.3
	c-0.5-0.2-0.9-0.5-1.3-0.9c-0.4-0.4-0.7-0.8-0.9-1.3c-0.2-0.5-0.3-1.1-0.3-1.7c0-0.6,0.1-1.2,0.3-1.7c0.2-0.5,0.5-1,0.9-1.3
	c0.4-0.4,0.8-0.7,1.3-0.9c0.5-0.2,1-0.3,1.6-0.3c0.5,0,1.1,0.1,1.5,0.3c0.5,0.2,0.9,0.5,1.2,0.9V0.2h1.6V12h-1.6v-1.2
	c-0.3,0.4-0.7,0.8-1.2,1C136.6,12,136.1,12.2,135.6,12.2z M135.8,10.7c0.4,0,0.7-0.1,1.1-0.2c0.3-0.2,0.6-0.3,0.8-0.6
	c0.2-0.3,0.4-0.5,0.6-0.9c0.1-0.3,0.2-0.7,0.2-1.1c0-0.4-0.1-0.7-0.2-1c-0.1-0.3-0.3-0.6-0.6-0.9c-0.2-0.3-0.5-0.4-0.8-0.6
	c-0.3-0.1-0.7-0.2-1.1-0.2c-0.4,0-0.7,0.1-1.1,0.2c-0.3,0.1-0.6,0.3-0.8,0.6c-0.2,0.2-0.4,0.5-0.6,0.9c-0.1,0.3-0.2,0.7-0.2,1.1
	c0,0.4,0.1,0.7,0.2,1.1c0.1,0.3,0.3,0.6,0.6,0.9c0.2,0.3,0.5,0.4,0.8,0.6C135,10.6,135.4,10.7,135.8,10.7z M144.3,12.2
	c-0.5,0-0.9-0.1-1.2-0.2c-0.3-0.1-0.6-0.3-0.9-0.5c-0.2-0.2-0.4-0.5-0.6-0.8c-0.1-0.3-0.2-0.6-0.2-1c0-0.8,0.3-1.5,1-2
	c0.7-0.5,1.5-0.7,2.7-0.7h2.4V6.9c0-0.5-0.2-1-0.5-1.3c-0.3-0.3-0.9-0.5-1.6-0.5c-0.5,0-1,0.1-1.4,0.4c-0.4,0.2-0.7,0.5-0.9,0.9
	l-1.4-0.8c0.4-0.5,0.9-1,1.5-1.3c0.6-0.4,1.4-0.5,2.3-0.5c0.6,0,1.1,0.1,1.5,0.2c0.5,0.2,0.8,0.4,1.2,0.7c0.3,0.3,0.5,0.6,0.7,1
	c0.2,0.4,0.2,0.8,0.2,1.3v5h-1.6v-1.4c-0.3,0.5-0.8,0.9-1.3,1.2C145.6,12,145,12.2,144.3,12.2z M144.7,10.8c0.3,0,0.6,0,0.9-0.1
	s0.5-0.2,0.8-0.3c0.3-0.2,0.5-0.3,0.7-0.5c0.2-0.2,0.4-0.5,0.5-0.7V8.4h-2.3c-0.8,0-1.3,0.1-1.6,0.3c-0.3,0.2-0.5,0.5-0.5,0.9
	c0,0.3,0.1,0.6,0.4,0.8S144.1,10.8,144.7,10.8z M154.7,12.2c-0.5,0-1-0.1-1.5-0.3c-0.5-0.2-0.9-0.5-1.3-0.9
	c-0.4-0.4-0.7-0.8-0.9-1.3c-0.2-0.5-0.3-1.1-0.3-1.7c0-0.6,0.1-1.2,0.3-1.7c0.2-0.5,0.5-1,0.9-1.3c0.4-0.4,0.8-0.7,1.3-0.9
	c0.5-0.2,1-0.3,1.6-0.3c0.5,0,1.1,0.1,1.5,0.3c0.5,0.2,0.9,0.5,1.2,0.9V0.2h1.6V12h-1.6v-1.2c-0.3,0.4-0.7,0.8-1.2,1
	C155.7,12,155.2,12.2,154.7,12.2z M154.9,10.7c0.4,0,0.7-0.1,1.1-0.2c0.3-0.2,0.6-0.3,0.8-0.6c0.2-0.3,0.4-0.5,0.6-0.9
	c0.1-0.3,0.2-0.7,0.2-1.1c0-0.4-0.1-0.7-0.2-1c-0.1-0.3-0.3-0.6-0.6-0.9c-0.2-0.3-0.5-0.4-0.8-0.6c-0.3-0.1-0.7-0.2-1.1-0.2
	s-0.7,0.1-1.1,0.2c-0.3,0.1-0.6,0.3-0.8,0.6c-0.2,0.2-0.4,0.5-0.6,0.9c-0.1,0.3-0.2,0.7-0.2,1.1c0,0.4,0.1,0.7,0.2,1.1
	c0.1,0.3,0.3,0.6,0.6,0.9c0.2,0.3,0.5,0.4,0.8,0.6C154.2,10.6,154.5,10.7,154.9,10.7z"/>
<rect x="164" y="4" class="st1" width="54.2" height="12.5"/>
<text transform="matrix(1 0 0 1 164 10.291)" class="st2 st3">BALCODER</text>
</svg>
