<svg width="220" height="16" viewBox="0 0 220 16" fill="none" xmlns="http://www.w3.org/2000/svg">
<path d="M0.490371 1.05H4.75037C5.33037 1.05 5.86537 1.15 6.35537 1.35C6.84537 1.55 7.26537 1.825 7.61537 2.175C7.97537 2.515 8.25037 2.925 8.44037 3.405C8.64037 3.875 8.74037 4.38 8.74037 4.92C8.74037 5.46 8.64037 5.965 8.44037 6.435C8.25037 6.905 7.97537 7.315 7.61537 7.665C7.26537 8.015 6.84037 8.29 6.34037 8.49C5.85037 8.69 5.31037 8.79 4.72037 8.79H2.12537V12H0.490371V1.05ZM2.12537 2.55V7.275H4.61537C4.99537 7.275 5.34037 7.215 5.65037 7.095C5.96037 6.975 6.22037 6.81 6.43037 6.6C6.65037 6.39 6.81537 6.14 6.92537 5.85C7.04537 5.56 7.10537 5.25 7.10537 4.92C7.10537 4.58 7.04537 4.265 6.92537 3.975C6.81537 3.685 6.65037 3.435 6.43037 3.225C6.22037 3.015 5.96037 2.85 5.65037 2.73C5.34037 2.61 4.99537 2.55 4.61537 2.55H2.12537ZM13.9959 12.165C13.4059 12.165 12.8559 12.055 12.3459 11.835C11.8359 11.615 11.3909 11.315 11.0109 10.935C10.6309 10.555 10.3309 10.11 10.1109 9.6C9.89088 9.09 9.78088 8.54 9.78088 7.95C9.78088 7.37 9.89088 6.825 10.1109 6.315C10.3309 5.795 10.6309 5.345 11.0109 4.965C11.3909 4.585 11.8359 4.285 12.3459 4.065C12.8559 3.845 13.4059 3.735 13.9959 3.735C14.5759 3.735 15.1209 3.845 15.6309 4.065C16.1509 4.285 16.6009 4.585 16.9809 4.965C17.3609 5.345 17.6609 5.795 17.8809 6.315C18.1009 6.825 18.2109 7.37 18.2109 7.95C18.2109 8.54 18.1009 9.09 17.8809 9.6C17.6609 10.11 17.3609 10.555 16.9809 10.935C16.6009 11.315 16.1509 11.615 15.6309 11.835C15.1209 12.055 14.5759 12.165 13.9959 12.165ZM13.9959 10.65C14.3659 10.65 14.7059 10.58 15.0159 10.44C15.3359 10.3 15.6109 10.11 15.8409 9.87C16.0809 9.62 16.2659 9.335 16.3959 9.015C16.5359 8.685 16.6059 8.33 16.6059 7.95C16.6059 7.58 16.5359 7.23 16.3959 6.9C16.2659 6.57 16.0809 6.285 15.8409 6.045C15.6109 5.795 15.3359 5.6 15.0159 5.46C14.6959 5.32 14.3559 5.25 13.9959 5.25C13.6259 5.25 13.2809 5.32 12.9609 5.46C12.6509 5.6 12.3759 5.795 12.1359 6.045C11.9059 6.285 11.7259 6.57 11.5959 6.9C11.4659 7.23 11.4009 7.58 11.4009 7.95C11.4009 8.33 11.4659 8.685 11.5959 9.015C11.7259 9.335 11.9059 9.62 12.1359 9.87C12.3759 10.11 12.6509 10.3 12.9609 10.44C13.2809 10.58 13.6259 10.65 13.9959 10.65ZM19.7781 0.179999H21.4131V12H19.7781V0.179999ZM23.2791 3.9H24.9141V12H23.2791V3.9ZM25.2141 0.314999H26.9241L24.7041 2.805H23.4741L25.2141 0.314999ZM26.1801 3.9H27.7851V2.145L29.3751 1.11V3.9H31.6401V5.355H29.3751V9.345C29.3751 9.795 29.4701 10.12 29.6601 10.32C29.8601 10.52 30.1201 10.62 30.4401 10.62C30.7501 10.62 31.0251 10.515 31.2651 10.305L32.0301 11.655C31.8001 11.815 31.5401 11.935 31.2501 12.015C30.9701 12.105 30.6601 12.15 30.3201 12.15C29.5101 12.15 28.8851 11.935 28.4451 11.505C28.0051 11.075 27.7851 10.36 27.7851 9.36V5.355H26.1801V3.9ZM33.1375 3.9H34.7725V12H33.1375V3.9ZM32.8075 1.47C32.8075 1.14 32.9125 0.865 33.1225 0.645C33.3425 0.424999 33.6175 0.314999 33.9475 0.314999C34.2875 0.314999 34.5625 0.424999 34.7725 0.645C34.9925 0.865 35.1025 1.14 35.1025 1.47C35.1025 1.8 34.9925 2.075 34.7725 2.295C34.5625 2.515 34.2875 2.625 33.9475 2.625C33.6075 2.625 33.3325 2.515 33.1225 2.295C32.9125 2.075 32.8075 1.8 32.8075 1.47ZM40.5835 12.165C39.9835 12.165 39.4235 12.055 38.9035 11.835C38.3835 11.615 37.9335 11.315 37.5535 10.935C37.1735 10.555 36.8735 10.11 36.6535 9.6C36.4435 9.09 36.3385 8.54 36.3385 7.95C36.3385 7.35 36.4485 6.795 36.6685 6.285C36.8885 5.775 37.1885 5.33 37.5685 4.95C37.9485 4.57 38.3935 4.275 38.9035 4.065C39.4235 3.845 39.9785 3.735 40.5685 3.735C41.0185 3.735 41.4385 3.795 41.8285 3.915C42.2285 4.035 42.5935 4.205 42.9235 4.425C43.2535 4.645 43.5435 4.91 43.7935 5.22C44.0535 5.52 44.2585 5.85 44.4085 6.21L42.9535 6.84C42.7435 6.34 42.4285 5.95 42.0085 5.67C41.5985 5.39 41.1185 5.25 40.5685 5.25C40.1885 5.25 39.8385 5.32 39.5185 5.46C39.1985 5.6 38.9185 5.795 38.6785 6.045C38.4485 6.285 38.2635 6.57 38.1235 6.9C37.9935 7.23 37.9285 7.58 37.9285 7.95C37.9285 8.32 37.9935 8.67 38.1235 9C38.2635 9.33 38.4535 9.62 38.6935 9.87C38.9335 10.11 39.2135 10.3 39.5335 10.44C39.8635 10.58 40.2185 10.65 40.5985 10.65C41.1785 10.65 41.6685 10.495 42.0685 10.185C42.4785 9.865 42.7835 9.47 42.9835 9L44.4535 9.615C44.1335 10.365 43.6435 10.98 42.9835 11.46C42.3235 11.93 41.5235 12.165 40.5835 12.165ZM48.3727 12.165C47.9027 12.165 47.4877 12.105 47.1277 11.985C46.7777 11.865 46.4827 11.7 46.2427 11.49C46.0027 11.27 45.8177 11.015 45.6877 10.725C45.5677 10.425 45.5077 10.105 45.5077 9.765C45.5077 8.925 45.8277 8.27 46.4677 7.8C47.1177 7.32 48.0127 7.08 49.1527 7.08H51.5527V6.945C51.5527 6.405 51.3827 5.965 51.0427 5.625C50.7027 5.285 50.1727 5.115 49.4527 5.115C48.9127 5.115 48.4477 5.235 48.0577 5.475C47.6677 5.705 47.3577 6.02 47.1277 6.42L45.6877 5.58C46.0877 5.05 46.5977 4.61 47.2177 4.26C47.8477 3.91 48.5977 3.735 49.4677 3.735C50.0477 3.735 50.5627 3.815 51.0127 3.975C51.4727 4.125 51.8577 4.345 52.1677 4.635C52.4777 4.915 52.7127 5.255 52.8727 5.655C53.0327 6.055 53.1127 6.5 53.1127 6.99V12H51.5527V10.575C51.2327 11.055 50.7927 11.44 50.2327 11.73C49.6727 12.02 49.0527 12.165 48.3727 12.165ZM48.7177 10.755C49.0077 10.755 49.2927 10.715 49.5727 10.635C49.8527 10.555 50.1177 10.445 50.3677 10.305C50.6177 10.155 50.8427 9.975 51.0427 9.765C51.2527 9.555 51.4227 9.315 51.5527 9.045V8.37H49.2577C48.5077 8.37 47.9677 8.48 47.6377 8.7C47.3177 8.92 47.1577 9.23 47.1577 9.63C47.1577 9.98 47.2827 10.255 47.5327 10.455C47.7827 10.655 48.1777 10.755 48.7177 10.755ZM62.3176 12.165C61.7876 12.165 61.2776 12.065 60.7876 11.865C60.2976 11.665 59.8626 11.38 59.4826 11.01C59.1126 10.64 58.8126 10.195 58.5826 9.675C58.3626 9.155 58.2526 8.58 58.2526 7.95C58.2526 7.31 58.3626 6.735 58.5826 6.225C58.8026 5.705 59.0976 5.26 59.4676 4.89C59.8476 4.52 60.2826 4.235 60.7726 4.035C61.2726 3.835 61.7926 3.735 62.3326 3.735C62.8726 3.735 63.3876 3.85 63.8776 4.08C64.3776 4.31 64.7826 4.625 65.0926 5.025V0.15H66.6826V12H65.0926V10.815C64.7726 11.235 64.3626 11.565 63.8626 11.805C63.3726 12.045 62.8576 12.165 62.3176 12.165ZM62.5276 10.68C62.9076 10.68 63.2576 10.61 63.5776 10.47C63.9076 10.32 64.1876 10.125 64.4176 9.885C64.6576 9.635 64.8426 9.345 64.9726 9.015C65.1126 8.675 65.1826 8.315 65.1826 7.935C65.1826 7.565 65.1126 7.215 64.9726 6.885C64.8426 6.545 64.6576 6.255 64.4176 6.015C64.1876 5.765 63.9076 5.57 63.5776 5.43C63.2576 5.28 62.9076 5.205 62.5276 5.205C62.1476 5.205 61.7926 5.275 61.4626 5.415C61.1426 5.555 60.8626 5.75 60.6226 6C60.3826 6.24 60.1926 6.53 60.0526 6.87C59.9226 7.2 59.8576 7.555 59.8576 7.935C59.8576 8.315 59.9226 8.675 60.0526 9.015C60.1926 9.345 60.3826 9.635 60.6226 9.885C60.8626 10.135 61.1426 10.33 61.4626 10.47C61.7926 10.61 62.1476 10.68 62.5276 10.68ZM72.5478 12.165C71.8978 12.165 71.3078 12.06 70.7778 11.85C70.2578 11.63 69.8078 11.335 69.4278 10.965C69.0478 10.585 68.7528 10.14 68.5428 9.63C68.3428 9.12 68.2428 8.57 68.2428 7.98C68.2428 7.38 68.3478 6.825 68.5578 6.315C68.7778 5.795 69.0778 5.345 69.4578 4.965C69.8378 4.585 70.2828 4.285 70.7928 4.065C71.3028 3.845 71.8578 3.735 72.4578 3.735C73.0578 3.735 73.6078 3.84 74.1078 4.05C74.6178 4.25 75.0578 4.535 75.4278 4.905C75.7978 5.275 76.0878 5.715 76.2978 6.225C76.5078 6.725 76.6128 7.275 76.6128 7.875V8.55H69.8028C69.9228 9.21 70.2228 9.74 70.7028 10.14C71.1828 10.53 71.7978 10.725 72.5478 10.725C73.1178 10.725 73.5928 10.605 73.9728 10.365C74.3628 10.125 74.6778 9.81 74.9178 9.42L76.2528 10.215C75.8628 10.805 75.3678 11.28 74.7678 11.64C74.1678 11.99 73.4278 12.165 72.5478 12.165ZM72.4578 5.16C71.8078 5.16 71.2528 5.35 70.7928 5.73C70.3328 6.1 70.0228 6.58 69.8628 7.17H74.9778C74.8578 6.53 74.5728 6.035 74.1228 5.685C73.6828 5.335 73.1278 5.16 72.4578 5.16ZM86.15 12.165C85.58 12.165 85.045 12.06 84.545 11.85C84.055 11.64 83.66 11.33 83.36 10.92V15.24H81.785V3.9H83.36V5.1C83.67 4.68 84.07 4.35 84.56 4.11C85.06 3.86 85.59 3.735 86.15 3.735C86.69 3.735 87.2 3.835 87.68 4.035C88.17 4.235 88.6 4.52 88.97 4.89C89.35 5.26 89.65 5.705 89.87 6.225C90.09 6.735 90.2 7.31 90.2 7.95C90.2 8.58 90.085 9.155 89.855 9.675C89.635 10.195 89.335 10.64 88.955 11.01C88.585 11.38 88.155 11.665 87.665 11.865C87.175 12.065 86.67 12.165 86.15 12.165ZM85.925 10.68C86.295 10.68 86.64 10.61 86.96 10.47C87.29 10.33 87.575 10.135 87.815 9.885C88.055 9.635 88.24 9.345 88.37 9.015C88.51 8.675 88.58 8.315 88.58 7.935C88.58 7.555 88.51 7.2 88.37 6.87C88.24 6.53 88.055 6.24 87.815 6C87.575 5.75 87.29 5.555 86.96 5.415C86.64 5.275 86.295 5.205 85.925 5.205C85.545 5.205 85.19 5.28 84.86 5.43C84.54 5.57 84.26 5.765 84.02 6.015C83.78 6.255 83.59 6.545 83.45 6.885C83.32 7.215 83.255 7.565 83.255 7.935C83.255 8.315 83.32 8.675 83.45 9.015C83.59 9.345 83.78 9.635 84.02 9.885C84.26 10.125 84.54 10.32 84.86 10.47C85.19 10.61 85.545 10.68 85.925 10.68ZM91.7163 3.9H93.3063V5.31C93.4763 4.8 93.7563 4.42 94.1463 4.17C94.5363 3.91 94.9913 3.78 95.5113 3.78C95.7913 3.78 96.0463 3.81 96.2763 3.87C96.5163 3.92 96.7163 3.995 96.8763 4.095L96.2463 5.655C96.0063 5.495 95.6663 5.415 95.2263 5.415C94.6463 5.415 94.1863 5.57 93.8463 5.88C93.5063 6.19 93.3363 6.71 93.3363 7.44V12H91.7163V3.9ZM98.1473 3.9H99.7823V12H98.1473V3.9ZM97.8173 1.47C97.8173 1.14 97.9223 0.865 98.1323 0.645C98.3523 0.424999 98.6273 0.314999 98.9573 0.314999C99.2973 0.314999 99.5723 0.424999 99.7823 0.645C100.002 0.865 100.112 1.14 100.112 1.47C100.112 1.8 100.002 2.075 99.7823 2.295C99.5723 2.515 99.2973 2.625 98.9573 2.625C98.6173 2.625 98.3423 2.515 98.1323 2.295C97.9223 2.075 97.8173 1.8 97.8173 1.47ZM101.003 3.9H102.713L105.038 9.99L107.453 3.9H109.133L105.773 12H104.183L101.003 3.9ZM112.474 12.165C112.004 12.165 111.589 12.105 111.229 11.985C110.879 11.865 110.584 11.7 110.344 11.49C110.104 11.27 109.919 11.015 109.789 10.725C109.669 10.425 109.609 10.105 109.609 9.765C109.609 8.925 109.929 8.27 110.569 7.8C111.219 7.32 112.114 7.08 113.254 7.08H115.654V6.945C115.654 6.405 115.484 5.965 115.144 5.625C114.804 5.285 114.274 5.115 113.554 5.115C113.014 5.115 112.549 5.235 112.159 5.475C111.769 5.705 111.459 6.02 111.229 6.42L109.789 5.58C110.189 5.05 110.699 4.61 111.319 4.26C111.949 3.91 112.699 3.735 113.569 3.735C114.149 3.735 114.664 3.815 115.114 3.975C115.574 4.125 115.959 4.345 116.269 4.635C116.579 4.915 116.814 5.255 116.974 5.655C117.134 6.055 117.214 6.5 117.214 6.99V12H115.654V10.575C115.334 11.055 114.894 11.44 114.334 11.73C113.774 12.02 113.154 12.165 112.474 12.165ZM112.819 10.755C113.109 10.755 113.394 10.715 113.674 10.635C113.954 10.555 114.219 10.445 114.469 10.305C114.719 10.155 114.944 9.975 115.144 9.765C115.354 9.555 115.524 9.315 115.654 9.045V8.37H113.359C112.609 8.37 112.069 8.48 111.739 8.7C111.419 8.92 111.259 9.23 111.259 9.63C111.259 9.98 111.384 10.255 111.634 10.455C111.884 10.655 112.279 10.755 112.819 10.755ZM122.996 12.165C122.396 12.165 121.836 12.055 121.316 11.835C120.796 11.615 120.346 11.315 119.966 10.935C119.586 10.555 119.286 10.11 119.066 9.6C118.856 9.09 118.751 8.54 118.751 7.95C118.751 7.35 118.861 6.795 119.081 6.285C119.301 5.775 119.601 5.33 119.981 4.95C120.361 4.57 120.806 4.275 121.316 4.065C121.836 3.845 122.391 3.735 122.981 3.735C123.431 3.735 123.851 3.795 124.241 3.915C124.641 4.035 125.006 4.205 125.336 4.425C125.666 4.645 125.956 4.91 126.206 5.22C126.466 5.52 126.671 5.85 126.821 6.21L125.366 6.84C125.156 6.34 124.841 5.95 124.421 5.67C124.011 5.39 123.531 5.25 122.981 5.25C122.601 5.25 122.251 5.32 121.931 5.46C121.611 5.6 121.331 5.795 121.091 6.045C120.861 6.285 120.676 6.57 120.536 6.9C120.406 7.23 120.341 7.58 120.341 7.95C120.341 8.32 120.406 8.67 120.536 9C120.676 9.33 120.866 9.62 121.106 9.87C121.346 10.11 121.626 10.3 121.946 10.44C122.276 10.58 122.631 10.65 123.011 10.65C123.591 10.65 124.081 10.495 124.481 10.185C124.891 9.865 125.196 9.47 125.396 9L126.866 9.615C126.546 10.365 126.056 10.98 125.396 11.46C124.736 11.93 123.936 12.165 122.996 12.165ZM128.308 3.9H129.943V12H128.308V3.9ZM127.978 1.47C127.978 1.14 128.083 0.865 128.293 0.645C128.513 0.424999 128.788 0.314999 129.118 0.314999C129.458 0.314999 129.733 0.424999 129.943 0.645C130.163 0.865 130.273 1.14 130.273 1.47C130.273 1.8 130.163 2.075 129.943 2.295C129.733 2.515 129.458 2.625 129.118 2.625C128.778 2.625 128.503 2.515 128.293 2.295C128.083 2.075 127.978 1.8 127.978 1.47ZM135.574 12.165C135.044 12.165 134.534 12.065 134.044 11.865C133.554 11.665 133.119 11.38 132.739 11.01C132.369 10.64 132.069 10.195 131.839 9.675C131.619 9.155 131.509 8.58 131.509 7.95C131.509 7.31 131.619 6.735 131.839 6.225C132.059 5.705 132.354 5.26 132.724 4.89C133.104 4.52 133.539 4.235 134.029 4.035C134.529 3.835 135.049 3.735 135.589 3.735C136.129 3.735 136.644 3.85 137.134 4.08C137.634 4.31 138.039 4.625 138.349 5.025V0.15H139.939V12H138.349V10.815C138.029 11.235 137.619 11.565 137.119 11.805C136.629 12.045 136.114 12.165 135.574 12.165ZM135.784 10.68C136.164 10.68 136.514 10.61 136.834 10.47C137.164 10.32 137.444 10.125 137.674 9.885C137.914 9.635 138.099 9.345 138.229 9.015C138.369 8.675 138.439 8.315 138.439 7.935C138.439 7.565 138.369 7.215 138.229 6.885C138.099 6.545 137.914 6.255 137.674 6.015C137.444 5.765 137.164 5.57 136.834 5.43C136.514 5.28 136.164 5.205 135.784 5.205C135.404 5.205 135.049 5.275 134.719 5.415C134.399 5.555 134.119 5.75 133.879 6C133.639 6.24 133.449 6.53 133.309 6.87C133.179 7.2 133.114 7.555 133.114 7.935C133.114 8.315 133.179 8.675 133.309 9.015C133.449 9.345 133.639 9.635 133.879 9.885C134.119 10.135 134.399 10.33 134.719 10.47C135.049 10.61 135.404 10.68 135.784 10.68ZM144.335 12.165C143.865 12.165 143.45 12.105 143.09 11.985C142.74 11.865 142.445 11.7 142.205 11.49C141.965 11.27 141.78 11.015 141.65 10.725C141.53 10.425 141.47 10.105 141.47 9.765C141.47 8.925 141.79 8.27 142.43 7.8C143.08 7.32 143.975 7.08 145.115 7.08H147.515V6.945C147.515 6.405 147.345 5.965 147.005 5.625C146.665 5.285 146.135 5.115 145.415 5.115C144.875 5.115 144.41 5.235 144.02 5.475C143.63 5.705 143.32 6.02 143.09 6.42L141.65 5.58C142.05 5.05 142.56 4.61 143.18 4.26C143.81 3.91 144.56 3.735 145.43 3.735C146.01 3.735 146.525 3.815 146.975 3.975C147.435 4.125 147.82 4.345 148.13 4.635C148.44 4.915 148.675 5.255 148.835 5.655C148.995 6.055 149.075 6.5 149.075 6.99V12H147.515V10.575C147.195 11.055 146.755 11.44 146.195 11.73C145.635 12.02 145.015 12.165 144.335 12.165ZM144.68 10.755C144.97 10.755 145.255 10.715 145.535 10.635C145.815 10.555 146.08 10.445 146.33 10.305C146.58 10.155 146.805 9.975 147.005 9.765C147.215 9.555 147.385 9.315 147.515 9.045V8.37H145.22C144.47 8.37 143.93 8.48 143.6 8.7C143.28 8.92 143.12 9.23 143.12 9.63C143.12 9.98 143.245 10.255 143.495 10.455C143.745 10.655 144.14 10.755 144.68 10.755ZM154.676 12.165C154.146 12.165 153.636 12.065 153.146 11.865C152.656 11.665 152.221 11.38 151.841 11.01C151.471 10.64 151.171 10.195 150.941 9.675C150.721 9.155 150.611 8.58 150.611 7.95C150.611 7.31 150.721 6.735 150.941 6.225C151.161 5.705 151.456 5.26 151.826 4.89C152.206 4.52 152.641 4.235 153.131 4.035C153.631 3.835 154.151 3.735 154.691 3.735C155.231 3.735 155.746 3.85 156.236 4.08C156.736 4.31 157.141 4.625 157.451 5.025V0.15H159.041V12H157.451V10.815C157.131 11.235 156.721 11.565 156.221 11.805C155.731 12.045 155.216 12.165 154.676 12.165ZM154.886 10.68C155.266 10.68 155.616 10.61 155.936 10.47C156.266 10.32 156.546 10.125 156.776 9.885C157.016 9.635 157.201 9.345 157.331 9.015C157.471 8.675 157.541 8.315 157.541 7.935C157.541 7.565 157.471 7.215 157.331 6.885C157.201 6.545 157.016 6.255 156.776 6.015C156.546 5.765 156.266 5.57 155.936 5.43C155.616 5.28 155.266 5.205 154.886 5.205C154.506 5.205 154.151 5.275 153.821 5.415C153.501 5.555 153.221 5.75 152.981 6C152.741 6.24 152.551 6.53 152.411 6.87C152.281 7.2 152.216 7.555 152.216 7.935C152.216 8.315 152.281 8.675 152.411 9.015C152.551 9.345 152.741 9.635 152.981 9.885C153.221 10.135 153.501 10.33 153.821 10.47C154.151 10.61 154.506 10.68 154.886 10.68Z" fill="#566865"/>
<path d="M169.772 12.15C168.992 12.15 168.262 12.005 167.582 11.715C166.902 11.415 166.307 11.01 165.797 10.5C165.297 9.99 164.902 9.395 164.612 8.715C164.322 8.035 164.177 7.305 164.177 6.525C164.177 5.745 164.322 5.015 164.612 4.335C164.902 3.655 165.297 3.06 165.797 2.55C166.307 2.04 166.902 1.64 167.582 1.35C168.262 1.05 168.992 0.9 169.772 0.9C170.552 0.9 171.282 1.05 171.962 1.35C172.652 1.64 173.247 2.04 173.747 2.55C174.257 3.06 174.657 3.655 174.947 4.335C175.247 5.015 175.397 5.745 175.397 6.525C175.397 7.305 175.252 8.035 174.962 8.715C174.672 9.395 174.272 9.99 173.762 10.5C173.252 11.01 172.652 11.415 171.962 11.715C171.282 12.005 170.552 12.15 169.772 12.15ZM169.772 10.065C170.272 10.065 170.732 9.975 171.152 9.795C171.582 9.605 171.952 9.35 172.262 9.03C172.582 8.7 172.827 8.32 172.997 7.89C173.177 7.46 173.267 7.005 173.267 6.525C173.267 6.035 173.177 5.575 172.997 5.145C172.817 4.715 172.572 4.34 172.262 4.02C171.952 3.7 171.582 3.445 171.152 3.255C170.722 3.065 170.262 2.97 169.772 2.97C169.282 2.97 168.822 3.065 168.392 3.255C167.972 3.445 167.607 3.7 167.297 4.02C166.987 4.34 166.742 4.715 166.562 5.145C166.392 5.575 166.307 6.035 166.307 6.525C166.307 7.005 166.392 7.46 166.562 7.89C166.742 8.32 166.987 8.7 167.297 9.03C167.607 9.35 167.972 9.605 168.392 9.795C168.822 9.975 169.282 10.065 169.772 10.065ZM180.18 8.655L178.935 10.05V12H176.88V0.179999H178.935V7.665L182.22 3.9H184.695L181.65 7.35L184.845 12H182.475L180.18 8.655ZM188.928 12.165C188.278 12.165 187.688 12.06 187.158 11.85C186.628 11.63 186.173 11.33 185.793 10.95C185.423 10.57 185.138 10.125 184.938 9.615C184.738 9.105 184.638 8.555 184.638 7.965C184.638 7.375 184.743 6.825 184.953 6.315C185.173 5.795 185.473 5.345 185.853 4.965C186.233 4.585 186.683 4.285 187.203 4.065C187.723 3.845 188.283 3.735 188.883 3.735C189.493 3.735 190.053 3.84 190.563 4.05C191.073 4.26 191.513 4.55 191.883 4.92C192.253 5.28 192.543 5.715 192.753 6.225C192.963 6.735 193.068 7.29 193.068 7.89V8.67H186.633C186.773 9.2 187.043 9.62 187.443 9.93C187.853 10.23 188.358 10.38 188.958 10.38C189.438 10.38 189.843 10.285 190.173 10.095C190.503 9.895 190.768 9.63 190.968 9.3L192.663 10.29C192.253 10.86 191.753 11.315 191.163 11.655C190.573 11.995 189.828 12.165 188.928 12.165ZM188.883 5.49C188.353 5.49 187.898 5.63 187.518 5.91C187.138 6.19 186.863 6.57 186.693 7.05H191.013C190.873 6.54 190.618 6.155 190.248 5.895C189.878 5.625 189.423 5.49 188.883 5.49ZM194.876 15.21C194.446 15.21 194.026 15.14 193.616 15C193.216 14.86 192.866 14.68 192.566 14.46L193.766 12.78C193.906 12.93 194.066 13.05 194.246 13.14C194.426 13.23 194.631 13.275 194.861 13.275C195.231 13.275 195.536 13.18 195.776 12.99C196.026 12.8 196.251 12.465 196.451 11.985L196.586 11.655L193.331 3.9H195.536L197.636 9.12L199.631 3.9H201.791L198.296 12.435C198.086 12.955 197.871 13.39 197.651 13.74C197.431 14.1 197.186 14.385 196.916 14.595C196.646 14.815 196.346 14.97 196.016 15.06C195.686 15.16 195.306 15.21 194.876 15.21ZM203.695 15.21C203.265 15.21 202.845 15.14 202.435 15C202.035 14.86 201.685 14.68 201.385 14.46L202.585 12.78C202.725 12.93 202.885 13.05 203.065 13.14C203.245 13.23 203.45 13.275 203.68 13.275C204.05 13.275 204.355 13.18 204.595 12.99C204.845 12.8 205.07 12.465 205.27 11.985L205.405 11.655L202.15 3.9H204.355L206.455 9.12L208.45 3.9H210.61L207.115 12.435C206.905 12.955 206.69 13.39 206.47 13.74C206.25 14.1 206.005 14.385 205.735 14.595C205.465 14.815 205.165 14.97 204.835 15.06C204.505 15.16 204.125 15.21 203.695 15.21ZM212.513 15.21C212.083 15.21 211.663 15.14 211.253 15C210.853 14.86 210.503 14.68 210.203 14.46L211.403 12.78C211.543 12.93 211.703 13.05 211.883 13.14C212.063 13.23 212.268 13.275 212.498 13.275C212.868 13.275 213.173 13.18 213.413 12.99C213.663 12.8 213.888 12.465 214.088 11.985L214.223 11.655L210.968 3.9H213.173L215.273 9.12L217.268 3.9H219.428L215.933 12.435C215.723 12.955 215.508 13.39 215.288 13.74C215.068 14.1 214.823 14.385 214.553 14.595C214.283 14.815 213.983 14.97 213.653 15.06C213.323 15.16 212.943 15.21 212.513 15.21Z" fill="#00A3FF"/>
</svg>
