<?xml version="1.0" encoding="utf-8"?>
<!-- Generator: Adobe Illustrator 16.0.3, SVG Export Plug-In . SVG Version: 6.00 Build 0)  -->
<!DOCTYPE svg PUBLIC "-//W3C//DTD SVG 1.1//EN" "http://www.w3.org/Graphics/SVG/1.1/DTD/svg11.dtd">
<svg version="1.1" id="Capa_1" xmlns="http://www.w3.org/2000/svg" xmlns:xlink="http://www.w3.org/1999/xlink" x="0px" y="0px"
	 width="340px" height="340px" viewBox="0 0 340 340" enable-background="new 0 0 340 340" xml:space="preserve">
<g>
	<g>
		<defs>
			<rect id="SVGID_1_" y="0" width="340" height="340"/>
		</defs>
		<clipPath id="SVGID_2_">
			<use xlink:href="#SVGID_1_"  overflow="visible"/>
		</clipPath>
		<g clip-path="url(#SVGID_2_)">
			<path fill="#FFFFFF" d="M2.5,21c0-11.046,8.954-20,20-20h295c11.046,0,20,8.954,20,20v300c0,11.046-8.954,20-20,20h-295
				c-11.046,0-20-8.954-20-20V21z"/>
			<path fill="#d69d66" d="M38,241h264c5.523,0,10,4.477,10,10v30c0,5.521-4.477,10-10,10H38c-5.523,0-10-4.479-10-10v-30
				C28,245.477,32.477,241,38,241z"/>
			<path fill="#566865" d="M135.364,257.4h2.78l5.52,14.602h-2.899l-0.96-2.66h-6.101l-0.96,2.66h-2.9L135.364,257.4z
				 M134.645,266.78h4.22l-2.1-5.8L134.645,266.78z M149.714,272.22c-0.813,0-1.565-0.147-2.26-0.44
				c-0.693-0.293-1.293-0.691-1.8-1.2c-0.506-0.507-0.906-1.1-1.2-1.778c-0.28-0.682-0.42-1.413-0.42-2.2c0-0.8,0.14-1.54,0.42-2.22
				c0.294-0.682,0.694-1.273,1.2-1.78c0.52-0.507,1.12-0.9,1.8-1.18c0.694-0.293,1.44-0.44,2.24-0.44c0.627,0,1.214,0.087,1.76,0.26
				c0.547,0.16,1.04,0.395,1.48,0.7c0.455,0.293,0.847,0.653,1.179,1.08c0.348,0.413,0.628,0.873,0.841,1.38l-2.54,1.021
				c-0.226-0.588-0.573-1.04-1.04-1.36c-0.466-0.333-1.013-0.5-1.64-0.5c-0.413,0-0.8,0.08-1.16,0.24
				c-0.36,0.16-0.673,0.38-0.94,0.66c-0.266,0.267-0.479,0.587-0.64,0.96c-0.146,0.373-0.22,0.767-0.22,1.18s0.074,0.8,0.22,1.16
				c0.16,0.358,0.374,0.68,0.64,0.96c0.28,0.267,0.601,0.479,0.96,0.64c0.36,0.16,0.747,0.24,1.16,0.24
				c0.641,0,1.188-0.173,1.641-0.521c0.467-0.347,0.813-0.8,1.04-1.358l2.581,1.06c-0.468,1-1.146,1.827-2.041,2.48
				C152.094,271.9,151.008,272.22,149.714,272.22z M161.844,272.22c-0.865,0-1.652-0.142-2.359-0.42
				c-0.705-0.293-1.313-0.693-1.819-1.2c-0.493-0.507-0.873-1.101-1.14-1.78c-0.268-0.68-0.4-1.413-0.4-2.2s0.141-1.52,0.42-2.198
				c0.294-0.693,0.693-1.293,1.2-1.802c0.507-0.507,1.106-0.905,1.8-1.198s1.439-0.44,2.24-0.44c0.814,0,1.561,0.14,2.24,0.42
				s1.267,0.667,1.76,1.16c0.494,0.479,0.88,1.06,1.16,1.74c0.279,0.68,0.42,1.42,0.42,2.22v1.04h-8.58
				c0.188,0.707,0.547,1.267,1.08,1.68c0.547,0.4,1.22,0.602,2.02,0.602c0.641,0,1.182-0.127,1.62-0.38
				c0.44-0.269,0.794-0.62,1.062-1.062l2.26,1.32c-0.547,0.76-1.213,1.367-2,1.818C164.038,271.991,163.044,272.22,161.844,272.22z
				 M161.784,263.32c-0.706,0-1.313,0.188-1.82,0.562c-0.506,0.373-0.873,0.88-1.101,1.52h5.761c-0.187-0.68-0.524-1.193-1.021-1.54
				C163.111,263.5,162.504,263.32,161.784,263.32z M175.318,272.22c-0.732,0-1.394-0.127-1.979-0.38
				c-0.586-0.269-1.061-0.653-1.42-1.16v5.64h-2.74v-15.12h2.721v1.5c0.359-0.532,0.834-0.953,1.42-1.26
				c0.587-0.307,1.246-0.46,1.979-0.46c0.682,0,1.334,0.133,1.961,0.4c0.627,0.253,1.18,0.627,1.66,1.12
				c0.479,0.491,0.859,1.087,1.141,1.778c0.293,0.693,0.439,1.467,0.439,2.32c0,0.867-0.146,1.646-0.439,2.34
				c-0.293,0.68-0.682,1.267-1.16,1.76c-0.479,0.493-1.033,0.873-1.66,1.142C176.627,272.093,175.986,272.22,175.318,272.22z
				 M174.76,269.618c0.414,0,0.801-0.08,1.16-0.238c0.359-0.16,0.674-0.373,0.939-0.642c0.279-0.278,0.494-0.6,0.641-0.96
				c0.16-0.373,0.238-0.771,0.238-1.2c0-0.427-0.078-0.818-0.238-1.18c-0.146-0.373-0.359-0.693-0.641-0.96
				c-0.267-0.28-0.58-0.5-0.939-0.66s-0.746-0.24-1.16-0.24c-0.426,0-0.826,0.08-1.199,0.24c-0.36,0.16-0.674,0.38-0.94,0.66
				c-0.267,0.267-0.479,0.587-0.64,0.96c-0.146,0.373-0.221,0.767-0.221,1.18c0,0.429,0.074,0.827,0.221,1.2
				c0.16,0.36,0.373,0.682,0.64,0.96c0.269,0.269,0.58,0.48,0.94,0.642C173.934,269.538,174.334,269.618,174.76,269.618z
				 M181.195,261.198h2v-2.34l2.721-1.6v3.938h2.84v2.44h-2.84v4.438c0,0.573,0.107,0.975,0.32,1.2
				c0.227,0.229,0.514,0.34,0.859,0.34c0.36,0,0.694-0.133,1-0.398l1.26,2.16c-0.347,0.267-0.739,0.473-1.181,0.619
				c-0.426,0.134-0.893,0.199-1.399,0.199c-1.133,0-2.012-0.3-2.639-0.898c-0.628-0.613-0.941-1.653-0.941-3.12v-4.54h-2V261.198z
				 M193.887,272.22c-1.186,0-2.111-0.293-2.779-0.88c-0.651-0.602-0.979-1.38-0.979-2.34c0-1.135,0.435-2.021,1.302-2.66
				c0.866-0.642,2.053-0.96,3.559-0.96h2.842v-0.142c0-0.587-0.193-1.06-0.58-1.42c-0.387-0.358-0.975-0.54-1.762-0.54
				c-0.611,0-1.125,0.127-1.539,0.38c-0.412,0.24-0.746,0.587-1,1.04l-2.54-1.26c0.548-0.72,1.228-1.307,2.04-1.76
				c0.826-0.467,1.848-0.7,3.061-0.7c1.6,0,2.834,0.387,3.699,1.16c0.867,0.771,1.301,1.847,1.301,3.22V272h-2.66v-1.66
				c-0.387,0.56-0.934,1.013-1.641,1.358C195.516,272.047,194.741,272.22,193.887,272.22z M194.688,269.94
				c0.334,0,0.66-0.047,0.98-0.14c0.318-0.095,0.619-0.229,0.898-0.4c0.281-0.172,0.526-0.38,0.74-0.62
				c0.229-0.24,0.407-0.507,0.541-0.8v-0.58h-2.541c-0.826,0-1.42,0.12-1.779,0.36c-0.346,0.24-0.521,0.571-0.521,1
				C193.008,269.547,193.566,269.94,194.688,269.94z M202.637,261.198h2.721v1.66c0.267-0.64,0.652-1.105,1.16-1.398
				c0.521-0.309,1.127-0.46,1.818-0.46c0.359,0,0.693,0.038,1,0.118c0.32,0.08,0.596,0.182,0.82,0.302l-1,2.72
				c-0.146-0.107-0.346-0.193-0.6-0.26c-0.255-0.08-0.533-0.12-0.841-0.12c-0.707,0-1.272,0.2-1.7,0.6
				c-0.427,0.387-0.64,1.033-0.64,1.94v5.7h-2.739V261.198L202.637,261.198z"/>
			<path fill="#566865" d="M55.245,158.59h4.675c0.681,0,1.298,0.112,1.854,0.34c0.566,0.215,1.048,0.521,1.444,0.918
				c0.397,0.385,0.703,0.844,0.918,1.377c0.228,0.521,0.341,1.088,0.341,1.7c0,0.611-0.113,1.184-0.341,1.717
				c-0.215,0.533-0.526,0.997-0.935,1.395c-0.396,0.386-0.873,0.69-1.428,0.918c-0.556,0.216-1.173,0.322-1.854,0.322h-3.247V171
				h-1.428L55.245,158.59L55.245,158.59z M56.673,159.882v6.086h3.162c0.499,0,0.946-0.079,1.343-0.238s0.731-0.374,1.003-0.646
				c0.284-0.272,0.499-0.59,0.646-0.952c0.147-0.374,0.221-0.776,0.221-1.207c0-0.432-0.073-0.833-0.221-1.207
				s-0.362-0.697-0.646-0.97c-0.271-0.271-0.611-0.481-1.02-0.629c-0.396-0.158-0.845-0.237-1.343-0.237H56.673z M70.7,171.187
				c-0.68,0-1.31-0.119-1.887-0.356c-0.578-0.249-1.083-0.589-1.514-1.021c-0.419-0.431-0.754-0.935-1.003-1.513
				c-0.238-0.578-0.356-1.207-0.356-1.888c0-0.669,0.118-1.292,0.356-1.87c0.249-0.589,0.59-1.1,1.021-1.529
				c0.431-0.432,0.935-0.766,1.513-1.003c0.578-0.249,1.201-0.374,1.87-0.374c0.668,0,1.292,0.125,1.87,0.374
				c0.589,0.237,1.099,0.571,1.529,1.003c0.431,0.431,0.766,0.94,1.004,1.529c0.249,0.578,0.373,1.201,0.373,1.87
				s-0.124,1.292-0.373,1.869c-0.238,0.578-0.573,1.082-1.004,1.515c-0.431,0.431-0.935,0.771-1.513,1.02
				S71.38,171.187,70.7,171.187z M70.7,169.861c0.476,0,0.918-0.085,1.326-0.255c0.419-0.181,0.776-0.425,1.07-0.729
				c0.307-0.317,0.544-0.688,0.715-1.105c0.17-0.419,0.255-0.873,0.255-1.359s-0.085-0.94-0.255-1.359
				c-0.171-0.432-0.408-0.799-0.715-1.105c-0.306-0.315-0.663-0.561-1.07-0.729c-0.408-0.182-0.851-0.272-1.326-0.272
				c-0.477,0-0.918,0.092-1.326,0.272c-0.408,0.17-0.765,0.414-1.071,0.729c-0.294,0.308-0.526,0.675-0.696,1.105
				c-0.17,0.419-0.256,0.873-0.256,1.359c0,0.499,0.086,0.958,0.256,1.377s0.402,0.781,0.696,1.089
				c0.307,0.306,0.663,0.55,1.071,0.729C69.782,169.776,70.224,169.861,70.7,169.861z M77.569,161.82h1.343v1.734
				c0.193-0.612,0.511-1.077,0.952-1.395c0.453-0.316,1.009-0.477,1.666-0.477c0.657,0,1.167,0.113,1.53,0.34l-0.578,1.326
				c-0.125-0.091-0.283-0.159-0.476-0.204c-0.182-0.057-0.397-0.085-0.646-0.085c-0.771,0-1.365,0.232-1.785,0.697
				c-0.419,0.453-0.629,1.188-0.629,2.21V171h-1.377V161.82z M88.143,161.82h1.7v-0.714c0-0.68,0.051-1.247,0.152-1.7
				c0.113-0.452,0.301-0.81,0.562-1.069c0.261-0.272,0.611-0.459,1.054-0.563c0.453-0.112,1.014-0.17,1.683-0.17h0.426v1.31h-0.323
				c-0.465,0-0.844,0.027-1.139,0.085c-0.283,0.046-0.504,0.146-0.663,0.307c-0.147,0.159-0.249,0.385-0.307,0.68
				c-0.045,0.283-0.067,0.663-0.067,1.14v0.696h2.499v1.241h-2.499V171h-1.377v-7.939h-1.7L88.143,161.82L88.143,161.82z
				 M97.972,171.187c-0.544,0-1.021-0.067-1.429-0.204c-0.407-0.146-0.747-0.346-1.02-0.595s-0.476-0.533-0.612-0.851
				c-0.136-0.328-0.204-0.681-0.204-1.055c0-0.952,0.369-1.683,1.105-2.192c0.748-0.521,1.768-0.781,3.06-0.781h2.907v-0.357
				c0-0.702-0.226-1.264-0.68-1.683c-0.442-0.432-1.11-0.646-2.006-0.646c-0.691,0-1.275,0.138-1.751,0.408
				c-0.464,0.272-0.855,0.652-1.173,1.14l-1.207-0.766c0.465-0.601,1.031-1.077,1.699-1.428c0.669-0.363,1.485-0.544,2.448-0.544
				c0.658,0,1.236,0.085,1.734,0.255c0.499,0.17,0.918,0.414,1.258,0.73c0.34,0.307,0.595,0.675,0.765,1.104
				c0.183,0.431,0.272,0.907,0.272,1.428V171h-1.36v-1.615c-0.408,0.566-0.946,1.009-1.615,1.326
				C99.496,171.028,98.766,171.187,97.972,171.187z M98.227,169.963c0.34,0,0.68-0.045,1.02-0.137
				c0.353-0.092,0.681-0.222,0.986-0.392c0.318-0.17,0.607-0.385,0.867-0.646c0.271-0.262,0.499-0.562,0.68-0.9v-1.258h-2.839
				c-0.963,0-1.671,0.146-2.125,0.441c-0.453,0.295-0.68,0.73-0.68,1.31c0,0.453,0.165,0.833,0.493,1.139
				C96.969,169.816,97.501,169.963,98.227,169.963z M104.296,161.82h1.479l2.958,7.48l3.009-7.48h1.479l-3.86,9.181h-1.377
				L104.296,161.82z M118.812,171.187c-0.68,0-1.309-0.119-1.887-0.356c-0.578-0.249-1.082-0.589-1.514-1.021
				c-0.419-0.431-0.754-0.935-1.003-1.513c-0.237-0.578-0.356-1.207-0.356-1.888c0-0.669,0.119-1.292,0.356-1.87
				c0.249-0.589,0.589-1.1,1.021-1.529c0.431-0.432,0.935-0.766,1.513-1.003c0.578-0.249,1.201-0.374,1.87-0.374
				s1.292,0.125,1.87,0.374c0.589,0.237,1.099,0.571,1.53,1.003c0.431,0.431,0.765,0.94,1.003,1.529
				c0.249,0.578,0.374,1.201,0.374,1.87s-0.125,1.292-0.374,1.869c-0.238,0.578-0.572,1.082-1.003,1.515
				c-0.432,0.431-0.936,0.771-1.514,1.02C120.12,171.062,119.491,171.187,118.812,171.187z M118.812,169.861
				c0.476,0,0.918-0.085,1.326-0.255c0.419-0.181,0.775-0.425,1.07-0.729c0.307-0.317,0.545-0.688,0.715-1.105
				s0.255-0.873,0.255-1.359s-0.085-0.94-0.255-1.359c-0.17-0.432-0.408-0.799-0.715-1.105c-0.306-0.315-0.662-0.561-1.07-0.729
				c-0.408-0.182-0.851-0.272-1.326-0.272c-0.477,0-0.918,0.092-1.326,0.272c-0.408,0.17-0.765,0.414-1.071,0.729
				c-0.295,0.308-0.526,0.675-0.696,1.105c-0.17,0.419-0.255,0.873-0.255,1.359c0,0.499,0.085,0.958,0.255,1.377
				c0.17,0.419,0.401,0.781,0.696,1.089c0.307,0.306,0.663,0.55,1.071,0.729C117.894,169.776,118.335,169.861,118.812,169.861z
				 M125.681,161.82h1.343v1.734c0.193-0.612,0.51-1.077,0.952-1.395c0.454-0.316,1.009-0.477,1.666-0.477
				c0.658,0,1.168,0.113,1.53,0.34l-0.578,1.326c-0.124-0.091-0.283-0.159-0.477-0.204c-0.181-0.057-0.396-0.085-0.646-0.085
				c-0.771,0-1.365,0.232-1.785,0.697c-0.419,0.453-0.629,1.188-0.629,2.21V171h-1.377L125.681,161.82L125.681,161.82z
				 M131.983,171.118c-0.261,0-0.476-0.092-0.646-0.271c-0.159-0.182-0.238-0.408-0.238-0.681c0-0.328,0.106-0.596,0.323-0.799
				c0.215-0.216,0.492-0.322,0.833-0.322c0.441,0,0.775,0.146,1.003,0.44c0.237,0.296,0.356,0.646,0.356,1.055
				c0,0.566-0.17,1.089-0.51,1.563c-0.34,0.476-0.782,0.878-1.326,1.207l-0.476-0.629c0.476-0.271,0.833-0.584,1.07-0.936
				c0.238-0.341,0.357-0.696,0.357-1.07c0-0.058-0.012-0.13-0.034-0.222c-0.022,0.228-0.097,0.396-0.221,0.511
				C132.352,171.068,132.188,171.118,131.983,171.118z M138.977,161.82h1.479l2.958,7.48l3.01-7.48h1.479L144.042,171h-1.377
				L138.977,161.82z M153.577,171.187c-0.736,0-1.405-0.119-2.006-0.356c-0.59-0.249-1.1-0.584-1.53-1.003
				c-0.42-0.432-0.742-0.936-0.969-1.514c-0.227-0.578-0.34-1.201-0.34-1.87c0-0.68,0.119-1.309,0.357-1.887
				c0.249-0.589,0.583-1.1,1.003-1.53c0.43-0.431,0.935-0.771,1.513-1.02c0.589-0.249,1.229-0.374,1.92-0.374
				c0.668,0,1.287,0.119,1.854,0.356c0.577,0.228,1.07,0.55,1.479,0.97c0.418,0.407,0.748,0.899,0.986,1.479
				c0.236,0.567,0.355,1.19,0.355,1.87v0.629h-8.108c0.045,0.442,0.164,0.845,0.356,1.207c0.192,0.363,0.437,0.681,0.731,0.952
				c0.306,0.261,0.657,0.465,1.054,0.611c0.408,0.146,0.855,0.222,1.343,0.222c0.735,0,1.354-0.153,1.854-0.459
				c0.498-0.307,0.905-0.742,1.224-1.31l1.19,0.696c-0.478,0.737-1.056,1.31-1.734,1.718
				C155.432,170.982,154.585,171.187,153.577,171.187z M153.525,162.873c-0.441,0-0.854,0.073-1.24,0.222
				c-0.374,0.136-0.709,0.334-1.003,0.595c-0.295,0.249-0.544,0.55-0.748,0.901c-0.192,0.34-0.329,0.714-0.408,1.122h6.647
				c-0.114-0.873-0.459-1.564-1.037-2.074S154.422,162.873,153.525,162.873z M160.296,161.82h1.343v1.734
				c0.191-0.612,0.51-1.077,0.952-1.395c0.452-0.316,1.009-0.477,1.666-0.477c0.656,0,1.167,0.113,1.529,0.34l-0.578,1.326
				c-0.125-0.091-0.283-0.159-0.476-0.204c-0.183-0.057-0.397-0.085-0.646-0.085c-0.771,0-1.365,0.232-1.785,0.697
				c-0.42,0.453-0.629,1.188-0.629,2.21V171h-1.377L160.296,161.82L160.296,161.82z M167.5,161.82h1.411V171H167.5V161.82z
				 M167.109,158.997c0-0.316,0.103-0.577,0.306-0.781c0.216-0.215,0.478-0.323,0.782-0.323c0.328,0,0.595,0.108,0.799,0.323
				c0.204,0.204,0.307,0.465,0.307,0.781s-0.103,0.584-0.307,0.8c-0.204,0.204-0.471,0.306-0.799,0.306
				c-0.316,0-0.578-0.102-0.782-0.306C167.212,159.581,167.109,159.315,167.109,158.997z M170.669,161.82h1.699v-0.714
				c0-0.68,0.052-1.247,0.153-1.7c0.113-0.452,0.302-0.81,0.562-1.069c0.261-0.272,0.61-0.459,1.054-0.563
				c0.454-0.112,1.016-0.17,1.684-0.17h0.426v1.31h-0.323c-0.464,0-0.845,0.027-1.14,0.085c-0.283,0.046-0.504,0.146-0.662,0.307
				c-0.146,0.159-0.25,0.385-0.307,0.68c-0.045,0.283-0.068,0.663-0.068,1.14v0.696h2.5v1.241h-2.5V171h-1.377v-7.939h-1.699
				L170.669,161.82L170.669,161.82z M178.107,161.82h1.412V171h-1.412V161.82z M177.718,158.997c0-0.316,0.103-0.577,0.306-0.781
				c0.217-0.215,0.477-0.323,0.783-0.323c0.328,0,0.596,0.108,0.799,0.323c0.203,0.204,0.307,0.465,0.307,0.781
				s-0.104,0.584-0.307,0.8c-0.203,0.204-0.471,0.306-0.799,0.306c-0.316,0-0.578-0.102-0.783-0.306
				C177.818,159.581,177.718,159.315,177.718,158.997z M186.432,171.187c-0.681,0-1.314-0.125-1.904-0.374s-1.1-0.589-1.529-1.02
				c-0.43-0.433-0.771-0.937-1.021-1.515c-0.236-0.577-0.355-1.2-0.355-1.869c0-0.681,0.125-1.31,0.373-1.888
				c0.25-0.589,0.59-1.094,1.021-1.513c0.43-0.432,0.935-0.766,1.512-1.003c0.591-0.249,1.22-0.374,1.888-0.374
				c0.5,0,0.97,0.067,1.412,0.204c0.452,0.136,0.866,0.328,1.239,0.577c0.375,0.237,0.703,0.532,0.986,0.885
				c0.295,0.34,0.527,0.714,0.697,1.122l-1.275,0.561c-0.271-0.635-0.674-1.133-1.207-1.496c-0.531-0.362-1.156-0.544-1.869-0.544
				c-0.477,0-0.924,0.092-1.344,0.272c-0.408,0.181-0.766,0.431-1.07,0.748c-0.307,0.306-0.545,0.674-0.715,1.104
				c-0.17,0.419-0.254,0.867-0.254,1.344s0.084,0.925,0.254,1.344c0.183,0.419,0.426,0.787,0.73,1.104
				c0.307,0.317,0.67,0.567,1.089,0.748c0.42,0.182,0.872,0.272,1.36,0.272c0.748,0,1.377-0.198,1.887-0.597
				c0.521-0.406,0.912-0.918,1.173-1.528l1.292,0.544c-0.361,0.85-0.918,1.547-1.666,2.091
				C188.396,170.921,187.497,171.187,186.432,171.187z M195.557,171.187c-0.545,0-1.021-0.067-1.429-0.204
				c-0.407-0.146-0.748-0.346-1.021-0.595s-0.477-0.533-0.612-0.851c-0.136-0.328-0.203-0.681-0.203-1.055
				c0-0.952,0.369-1.683,1.104-2.192c0.748-0.521,1.769-0.781,3.06-0.781h2.907v-0.357c0-0.702-0.227-1.264-0.68-1.683
				c-0.442-0.432-1.11-0.646-2.007-0.646c-0.69,0-1.274,0.138-1.751,0.408c-0.464,0.272-0.855,0.652-1.173,1.14l-1.207-0.766
				c0.465-0.601,1.032-1.077,1.7-1.428c0.668-0.363,1.484-0.544,2.447-0.544c0.658,0,1.236,0.085,1.733,0.255
				c0.499,0.17,0.919,0.414,1.259,0.73c0.34,0.307,0.596,0.675,0.766,1.104c0.182,0.431,0.271,0.907,0.271,1.428V171h-1.359v-1.615
				c-0.408,0.566-0.947,1.009-1.615,1.326C197.081,171.028,196.35,171.187,195.557,171.187z M195.811,169.963
				c0.342,0,0.682-0.045,1.021-0.137c0.352-0.092,0.68-0.222,0.986-0.392c0.316-0.17,0.605-0.385,0.865-0.646
				c0.272-0.262,0.5-0.562,0.682-0.9v-1.258h-2.84c-0.963,0-1.672,0.146-2.125,0.441c-0.453,0.295-0.68,0.73-0.68,1.31
				c0,0.453,0.164,0.833,0.492,1.139C194.553,169.816,195.085,169.963,195.811,169.963z M206.495,161.82h1.784v-2.021l1.378-0.885
				v2.906h2.686v1.241h-2.686v5.134c0,0.59,0.118,1.01,0.356,1.259c0.248,0.249,0.57,0.374,0.969,0.374
				c0.386,0,0.736-0.146,1.054-0.441l0.731,1.104c-0.262,0.204-0.545,0.363-0.852,0.478c-0.305,0.112-0.65,0.17-1.036,0.17
				c-0.851,0-1.496-0.228-1.938-0.681c-0.44-0.465-0.662-1.207-0.662-2.228v-5.168h-1.784V161.82z M218.075,171.187
				c-1.259,0-2.216-0.362-2.873-1.088c-0.657-0.737-0.985-1.757-0.985-3.061v-5.22h1.411v5.151c0,0.895,0.226,1.608,0.681,2.142
				c0.452,0.533,1.121,0.8,2.006,0.8c0.408,0,0.781-0.073,1.121-0.222c0.342-0.146,0.635-0.351,0.885-0.611
				c0.26-0.271,0.459-0.59,0.596-0.951c0.146-0.374,0.221-0.782,0.221-1.226v-5.083h1.395V171h-1.359v-1.515
				c-0.306,0.511-0.727,0.925-1.259,1.241C219.391,171.033,218.777,171.187,218.075,171.187z M233.393,171.187
				c-0.691,0-1.332-0.125-1.922-0.374c-0.589-0.249-1.099-0.589-1.529-1.02c-0.432-0.433-0.771-0.937-1.021-1.515
				c-0.237-0.577-0.356-1.2-0.356-1.869c0-0.681,0.119-1.31,0.356-1.888c0.249-0.578,0.589-1.082,1.021-1.513
				c0.441-0.432,0.951-0.766,1.529-1.003c0.59-0.249,1.225-0.374,1.903-0.374c0.533,0,1.03,0.073,1.496,0.221
				c0.465,0.137,0.885,0.334,1.259,0.596c0.385,0.249,0.721,0.556,1.003,0.918c0.295,0.352,0.533,0.741,0.714,1.173l-2.158,0.867
				c-0.193-0.499-0.486-0.885-0.885-1.155c-0.396-0.283-0.859-0.426-1.394-0.426c-0.353,0-0.681,0.067-0.986,0.204
				c-0.307,0.136-0.571,0.322-0.799,0.562c-0.228,0.227-0.408,0.499-0.545,0.815c-0.125,0.316-0.187,0.651-0.187,1.003
				s0.062,0.681,0.187,0.985c0.137,0.307,0.317,0.578,0.545,0.816c0.237,0.227,0.51,0.407,0.815,0.544
				c0.306,0.136,0.636,0.204,0.985,0.204c0.544,0,1.009-0.147,1.394-0.442c0.397-0.295,0.691-0.68,0.886-1.155l2.192,0.9
				c-0.397,0.851-0.976,1.553-1.733,2.107C235.415,170.914,234.491,171.187,233.393,171.187z M243.686,171.187
				c-0.691,0-1.332-0.125-1.922-0.374c-0.589-0.249-1.104-0.589-1.547-1.02c-0.431-0.442-0.771-0.952-1.021-1.53
				c-0.237-0.578-0.355-1.196-0.355-1.854c0-0.656,0.118-1.274,0.355-1.854c0.25-0.589,0.591-1.1,1.021-1.53
				c0.442-0.431,0.958-0.771,1.547-1.02c0.59-0.249,1.229-0.374,1.922-0.374c0.68,0,1.313,0.125,1.903,0.374
				c0.601,0.249,1.117,0.589,1.547,1.02c0.441,0.432,0.788,0.941,1.037,1.53c0.25,0.578,0.374,1.196,0.374,1.854
				c0,0.656-0.124,1.274-0.374,1.854c-0.249,0.578-0.59,1.088-1.021,1.53c-0.43,0.431-0.946,0.771-1.547,1.02
				C245.018,171.062,244.376,171.187,243.686,171.187z M243.702,168.96c0.353,0,0.68-0.068,0.985-0.204
				c0.306-0.137,0.572-0.317,0.799-0.544c0.228-0.229,0.402-0.493,0.527-0.8c0.135-0.316,0.203-0.656,0.203-1.021
				c0-0.352-0.068-0.687-0.203-1.003c-0.125-0.317-0.301-0.589-0.527-0.816c-0.227-0.227-0.493-0.407-0.799-0.544
				c-0.307-0.136-0.635-0.203-0.985-0.203s-0.681,0.067-0.986,0.203c-0.307,0.137-0.571,0.317-0.799,0.544
				c-0.228,0.229-0.408,0.499-0.545,0.816c-0.123,0.316-0.187,0.651-0.187,1.003c0,0.363,0.063,0.703,0.187,1.021
				c0.137,0.307,0.317,0.571,0.545,0.8c0.228,0.227,0.492,0.407,0.799,0.544C243.021,168.892,243.352,168.96,243.702,168.96z
				 M250.086,161.82h2.313v1.411c0.227-0.544,0.557-0.94,0.985-1.189c0.441-0.262,0.958-0.392,1.548-0.392
				c0.307,0,0.59,0.034,0.85,0.104c0.271,0.066,0.506,0.151,0.697,0.255l-0.851,2.312c-0.124-0.091-0.295-0.163-0.51-0.221
				c-0.216-0.067-0.453-0.103-0.716-0.103c-0.6,0-1.082,0.17-1.444,0.511c-0.36,0.329-0.543,0.878-0.543,1.647V171h-2.329V161.82
				L250.086,161.82z M257.689,161.82h2.312v1.411c0.228-0.544,0.556-0.94,0.985-1.189c0.443-0.262,0.957-0.392,1.548-0.392
				c0.307,0,0.59,0.034,0.851,0.104c0.272,0.066,0.504,0.151,0.696,0.255l-0.851,2.312c-0.125-0.091-0.295-0.163-0.51-0.221
				c-0.216-0.067-0.453-0.103-0.714-0.103c-0.601,0-1.083,0.17-1.444,0.511c-0.362,0.329-0.545,0.878-0.545,1.647V171h-2.328V161.82
				z M269.104,171.187c-0.736,0-1.406-0.119-2.006-0.356c-0.603-0.249-1.117-0.589-1.548-1.021c-0.42-0.431-0.743-0.935-0.969-1.513
				c-0.228-0.578-0.34-1.201-0.34-1.87s0.118-1.292,0.356-1.87c0.248-0.589,0.588-1.1,1.021-1.53c0.43-0.431,0.938-0.771,1.528-1.02
				s1.226-0.374,1.904-0.374c0.691,0,1.326,0.119,1.904,0.356s1.076,0.566,1.496,0.985c0.418,0.408,0.748,0.901,0.984,1.479
				c0.238,0.578,0.357,1.207,0.357,1.888v0.884h-7.294c0.157,0.602,0.465,1.077,0.919,1.428c0.464,0.341,1.036,0.511,1.717,0.511
				c0.544,0,1.003-0.107,1.377-0.322c0.374-0.228,0.674-0.527,0.901-0.901l1.921,1.122c-0.466,0.646-1.032,1.162-1.7,1.547
				C270.967,170.993,270.122,171.187,269.104,171.187z M269.052,163.621c-0.602,0-1.116,0.158-1.547,0.477
				c-0.432,0.316-0.743,0.748-0.937,1.292h4.896c-0.158-0.578-0.447-1.014-0.867-1.31
				C270.18,163.775,269.663,163.621,269.052,163.621z M279.893,171.187c-0.689,0-1.33-0.125-1.92-0.374s-1.105-0.589-1.548-1.02
				c-0.43-0.442-0.77-0.952-1.02-1.53c-0.238-0.578-0.357-1.196-0.357-1.854c0-0.656,0.119-1.274,0.357-1.854
				c0.25-0.589,0.59-1.1,1.02-1.53c0.441-0.431,0.958-0.771,1.548-1.02s1.229-0.374,1.92-0.374c0.682,0,1.315,0.125,1.904,0.374
				c0.602,0.249,1.116,0.589,1.547,1.02c0.442,0.432,0.788,0.941,1.037,1.53c0.25,0.578,0.374,1.196,0.374,1.854
				c0,0.656-0.124,1.274-0.374,1.854c-0.249,0.578-0.589,1.088-1.021,1.53c-0.43,0.431-0.944,0.771-1.547,1.02
				C281.225,171.062,280.585,171.187,279.893,171.187z M279.909,168.96c0.353,0,0.681-0.068,0.985-0.204
				c0.308-0.137,0.573-0.317,0.799-0.544c0.229-0.229,0.404-0.493,0.527-0.8c0.137-0.316,0.204-0.656,0.204-1.021
				c0-0.352-0.067-0.687-0.204-1.003c-0.123-0.317-0.3-0.589-0.527-0.816c-0.226-0.227-0.491-0.407-0.799-0.544
				c-0.306-0.136-0.634-0.203-0.985-0.203c-0.351,0-0.681,0.067-0.985,0.203c-0.305,0.137-0.572,0.317-0.8,0.544
				c-0.226,0.229-0.407,0.499-0.543,0.816c-0.125,0.316-0.188,0.651-0.188,1.003c0,0.363,0.063,0.703,0.188,1.021
				c0.136,0.307,0.317,0.571,0.543,0.8c0.228,0.227,0.494,0.407,0.8,0.544C279.229,168.892,279.559,168.96,279.909,168.96z
				 M60.438,193.187c-0.737,0-1.405-0.119-2.007-0.357c-0.601-0.249-1.116-0.589-1.547-1.02c-0.419-0.431-0.742-0.935-0.969-1.513
				s-0.34-1.201-0.34-1.87s0.119-1.292,0.356-1.87c0.25-0.589,0.59-1.1,1.021-1.53c0.431-0.43,0.94-0.771,1.53-1.02
				c0.589-0.249,1.224-0.374,1.903-0.374c0.691,0,1.326,0.119,1.904,0.355c0.578,0.238,1.077,0.567,1.496,0.986
				c0.419,0.408,0.748,0.901,0.986,1.479c0.237,0.578,0.356,1.207,0.356,1.889v0.884h-7.293c0.159,0.601,0.465,1.077,0.918,1.428
				c0.465,0.34,1.037,0.511,1.717,0.511c0.544,0,1.003-0.107,1.377-0.322c0.374-0.229,0.675-0.527,0.901-0.901l1.921,1.122
				c-0.465,0.646-1.031,1.162-1.7,1.547C62.302,192.992,61.457,193.187,60.438,193.187z M60.386,185.62
				c-0.601,0-1.116,0.159-1.547,0.478c-0.431,0.315-0.742,0.748-0.935,1.292H62.8c-0.158-0.578-0.447-1.015-0.867-1.311
				C61.514,185.775,60.998,185.62,60.386,185.62z M66.672,179.604h2.346V193h-2.346V179.604z M75.412,193.187
				c-0.737,0-1.406-0.119-2.007-0.357c-0.601-0.249-1.116-0.589-1.547-1.02c-0.419-0.431-0.742-0.935-0.969-1.513
				s-0.34-1.201-0.34-1.87s0.119-1.292,0.356-1.87c0.25-0.589,0.59-1.1,1.021-1.53c0.431-0.43,0.94-0.771,1.53-1.02
				c0.589-0.249,1.224-0.374,1.903-0.374c0.691,0,1.326,0.119,1.904,0.355c0.578,0.238,1.077,0.567,1.496,0.986
				c0.419,0.408,0.748,0.901,0.986,1.479c0.237,0.578,0.356,1.207,0.356,1.889v0.884h-7.293c0.159,0.601,0.465,1.077,0.918,1.428
				c0.465,0.34,1.037,0.511,1.717,0.511c0.544,0,1.003-0.107,1.377-0.322c0.374-0.229,0.675-0.527,0.901-0.901l1.921,1.122
				c-0.465,0.646-1.031,1.162-1.7,1.547C77.276,192.992,76.432,193.187,75.412,193.187z M75.36,185.62
				c-0.601,0-1.116,0.159-1.547,0.478c-0.431,0.315-0.742,0.748-0.935,1.292h4.896c-0.158-0.578-0.447-1.015-0.867-1.311
				C76.488,185.775,75.973,185.62,75.36,185.62z M86.186,193.187c-0.691,0-1.332-0.125-1.921-0.374
				c-0.589-0.249-1.1-0.589-1.53-1.02c-0.431-0.433-0.771-0.937-1.02-1.515c-0.238-0.578-0.357-1.201-0.357-1.87
				c0-0.68,0.119-1.309,0.357-1.887c0.249-0.578,0.589-1.082,1.02-1.513c0.442-0.433,0.952-0.767,1.53-1.003
				c0.589-0.249,1.224-0.374,1.903-0.374c0.533,0,1.031,0.072,1.496,0.221c0.466,0.136,0.885,0.334,1.259,0.595
				c0.385,0.249,0.72,0.557,1.003,0.918c0.295,0.353,0.532,0.742,0.714,1.174l-2.159,0.866c-0.193-0.499-0.487-0.884-0.884-1.154
				c-0.397-0.283-0.861-0.427-1.395-0.427c-0.351,0-0.68,0.068-0.985,0.204c-0.307,0.137-0.572,0.323-0.8,0.563
				c-0.227,0.227-0.407,0.499-0.544,0.814c-0.125,0.317-0.187,0.652-0.187,1.003c0,0.353,0.062,0.682,0.187,0.986
				c0.137,0.306,0.317,0.578,0.544,0.816c0.238,0.227,0.511,0.406,0.816,0.544c0.306,0.136,0.635,0.204,0.986,0.204
				c0.544,0,1.009-0.147,1.394-0.442c0.397-0.295,0.691-0.68,0.884-1.156l2.193,0.901c-0.397,0.85-0.975,1.553-1.734,2.106
				C88.208,192.913,87.284,193.187,86.186,193.187z M91.513,183.82h1.7v-1.989l2.312-1.358v3.349h2.414v2.074h-2.414v3.774
				c0,0.485,0.09,0.825,0.272,1.02c0.191,0.193,0.436,0.289,0.73,0.289c0.306,0,0.589-0.113,0.851-0.34l1.07,1.836
				c-0.295,0.227-0.629,0.401-1.003,0.526c-0.363,0.112-0.76,0.171-1.189,0.171c-0.965,0-1.713-0.257-2.244-0.767
				c-0.533-0.521-0.799-1.403-0.799-2.65v-3.859h-1.7V183.82z M99.493,183.82h2.313v1.411c0.226-0.544,0.555-0.941,0.985-1.189
				c0.442-0.262,0.957-0.392,1.548-0.392c0.306,0,0.589,0.034,0.85,0.104c0.271,0.066,0.504,0.151,0.697,0.255l-0.851,2.312
				c-0.125-0.091-0.295-0.164-0.51-0.221c-0.216-0.068-0.454-0.104-0.714-0.104c-0.602,0-1.083,0.171-1.445,0.512
				c-0.362,0.329-0.544,0.878-0.544,1.647V193h-2.329V183.82z M110.889,193.187c-0.691,0-1.331-0.125-1.921-0.374
				c-0.589-0.249-1.105-0.589-1.547-1.02c-0.431-0.442-0.771-0.952-1.021-1.53c-0.238-0.578-0.357-1.196-0.357-1.854
				c0-0.655,0.119-1.273,0.357-1.853c0.25-0.589,0.59-1.101,1.021-1.53c0.441-0.431,0.958-0.771,1.547-1.02
				c0.59-0.249,1.229-0.374,1.921-0.374c0.68,0,1.314,0.125,1.903,0.374c0.602,0.249,1.117,0.589,1.548,1.02
				c0.441,0.432,0.788,0.941,1.036,1.53c0.25,0.578,0.374,1.196,0.374,1.853c0,0.657-0.124,1.275-0.374,1.854
				c-0.248,0.578-0.589,1.088-1.02,1.53c-0.43,0.431-0.946,0.771-1.547,1.02C112.221,193.062,111.58,193.187,110.889,193.187z
				 M110.905,190.96c0.353,0,0.68-0.068,0.986-0.204c0.306-0.138,0.573-0.317,0.799-0.544c0.227-0.229,0.403-0.493,0.527-0.801
				c0.136-0.315,0.204-0.655,0.204-1.02c0-0.353-0.068-0.688-0.204-1.003c-0.124-0.317-0.301-0.589-0.527-0.816
				c-0.226-0.227-0.493-0.408-0.799-0.544c-0.307-0.136-0.634-0.204-0.986-0.204c-0.351,0-0.68,0.068-0.985,0.204
				c-0.307,0.136-0.572,0.317-0.8,0.544c-0.226,0.229-0.407,0.499-0.544,0.816c-0.124,0.315-0.187,0.65-0.187,1.003
				c0,0.363,0.063,0.703,0.187,1.02c0.137,0.308,0.318,0.572,0.544,0.801c0.228,0.227,0.493,0.406,0.8,0.544
				C110.226,190.892,110.555,190.96,110.905,190.96z M111.704,179.774h2.397l-2.567,2.907h-1.768L111.704,179.774z M117.289,183.82
				h2.347v1.156c0.295-0.419,0.669-0.748,1.122-0.986c0.465-0.236,0.985-0.355,1.563-0.355c1.088,0,1.95,0.34,2.584,1.02
				c0.646,0.669,0.969,1.604,0.969,2.806V193h-2.396v-5.187c0-0.657-0.158-1.173-0.477-1.547c-0.306-0.385-0.77-0.578-1.394-0.578
				c-0.555,0-1.02,0.198-1.394,0.595c-0.374,0.387-0.562,0.937-0.562,1.649V193h-2.363L117.289,183.82L117.289,183.82z
				 M127.683,183.82h2.396V193h-2.396V183.82z M127.376,181.236c0-0.44,0.143-0.805,0.426-1.088c0.282-0.295,0.64-0.442,1.07-0.442
				c0.453,0,0.816,0.147,1.088,0.442c0.283,0.283,0.426,0.646,0.426,1.088c0,0.431-0.143,0.788-0.426,1.071
				c-0.271,0.283-0.635,0.425-1.088,0.425c-0.441,0-0.805-0.142-1.088-0.425C127.513,182.024,127.376,181.665,127.376,181.236z
				 M136.454,193.187c-0.69,0-1.331-0.125-1.921-0.374c-0.589-0.249-1.099-0.589-1.529-1.02c-0.431-0.433-0.771-0.937-1.021-1.515
				c-0.238-0.578-0.357-1.201-0.357-1.87c0-0.68,0.119-1.309,0.357-1.887c0.25-0.578,0.59-1.082,1.021-1.513
				c0.441-0.433,0.951-0.767,1.529-1.003c0.59-0.249,1.225-0.374,1.904-0.374c0.533,0,1.032,0.072,1.496,0.221
				c0.465,0.136,0.884,0.334,1.258,0.595c0.386,0.249,0.72,0.557,1.003,0.918c0.295,0.353,0.533,0.742,0.714,1.174l-2.159,0.866
				c-0.191-0.499-0.486-0.884-0.884-1.154c-0.396-0.283-0.86-0.427-1.394-0.427c-0.352,0-0.681,0.068-0.986,0.204
				c-0.305,0.137-0.572,0.323-0.799,0.563c-0.227,0.227-0.408,0.499-0.544,0.814c-0.124,0.317-0.188,0.652-0.188,1.003
				c0,0.353,0.063,0.682,0.188,0.986c0.136,0.306,0.317,0.578,0.544,0.816c0.238,0.227,0.51,0.406,0.816,0.544
				c0.306,0.136,0.635,0.204,0.985,0.204c0.544,0,1.009-0.147,1.395-0.442c0.396-0.295,0.691-0.68,0.884-1.156l2.192,0.901
				c-0.396,0.85-0.974,1.553-1.733,2.106C138.478,192.913,137.555,193.187,136.454,193.187z M146.748,193.187
				c-0.691,0-1.332-0.125-1.921-0.374c-0.59-0.249-1.104-0.589-1.547-1.02c-0.431-0.442-0.771-0.952-1.02-1.53
				c-0.238-0.578-0.357-1.196-0.357-1.854c0-0.655,0.119-1.273,0.357-1.853c0.249-0.589,0.589-1.101,1.02-1.53
				c0.442-0.431,0.957-0.771,1.547-1.02c0.589-0.249,1.229-0.374,1.921-0.374c0.681,0,1.314,0.125,1.904,0.374
				c0.601,0.249,1.116,0.589,1.547,1.02c0.442,0.432,0.787,0.941,1.037,1.53c0.249,0.578,0.374,1.196,0.374,1.853
				c0,0.657-0.125,1.275-0.374,1.854c-0.25,0.578-0.59,1.088-1.02,1.53c-0.432,0.431-0.947,0.771-1.547,1.02
				C148.079,193.062,147.439,193.187,146.748,193.187z M146.766,190.96c0.351,0,0.68-0.068,0.985-0.204
				c0.307-0.138,0.572-0.317,0.8-0.544c0.226-0.229,0.401-0.493,0.526-0.801c0.137-0.315,0.204-0.655,0.204-1.02
				c0-0.353-0.067-0.688-0.204-1.003c-0.125-0.317-0.301-0.589-0.526-0.816c-0.228-0.227-0.493-0.408-0.8-0.544
				c-0.306-0.136-0.635-0.204-0.985-0.204c-0.353,0-0.681,0.068-0.986,0.204c-0.305,0.136-0.573,0.317-0.799,0.544
				c-0.227,0.229-0.408,0.499-0.544,0.816c-0.125,0.315-0.188,0.65-0.188,1.003c0,0.363,0.063,0.703,0.188,1.02
				c0.136,0.308,0.317,0.572,0.544,0.801c0.226,0.227,0.493,0.406,0.799,0.544C146.085,190.892,146.413,190.96,146.766,190.96z
				 M162.25,193.187c-0.68,0-1.332-0.147-1.954-0.442c-0.623-0.306-1.116-0.748-1.479-1.324v5.115h-1.377V183.82h1.36v1.685
				c0.181-0.297,0.396-0.557,0.646-0.782c0.262-0.238,0.545-0.438,0.852-0.595c0.307-0.159,0.622-0.278,0.951-0.357
				c0.341-0.091,0.682-0.136,1.021-0.136c0.635,0,1.234,0.119,1.801,0.355c0.568,0.229,1.062,0.557,1.479,0.986
				c0.431,0.419,0.765,0.924,1.003,1.513c0.249,0.578,0.374,1.218,0.374,1.921s-0.125,1.351-0.374,1.938
				c-0.238,0.578-0.566,1.082-0.986,1.513c-0.418,0.419-0.918,0.748-1.496,0.986C163.503,193.073,162.896,193.187,162.25,193.187z
				 M162.132,191.878c0.476,0,0.918-0.085,1.325-0.257c0.419-0.181,0.781-0.425,1.089-0.729c0.306-0.317,0.544-0.688,0.714-1.105
				c0.17-0.431,0.256-0.895,0.256-1.394c0-0.487-0.086-0.941-0.256-1.36c-0.17-0.431-0.408-0.799-0.714-1.104
				c-0.308-0.317-0.67-0.567-1.089-0.748c-0.407-0.183-0.85-0.272-1.325-0.272c-0.487,0-0.94,0.098-1.36,0.289
				c-0.418,0.183-0.781,0.433-1.088,0.748c-0.306,0.308-0.55,0.674-0.73,1.105c-0.17,0.419-0.255,0.865-0.255,1.343
				c0,0.487,0.085,0.946,0.255,1.377c0.182,0.419,0.426,0.788,0.73,1.104c0.307,0.307,0.67,0.551,1.088,0.73
				C161.191,191.785,161.645,191.878,162.132,191.878z M171.749,193.187c-0.543,0-1.021-0.068-1.429-0.204
				c-0.407-0.146-0.747-0.346-1.02-0.595c-0.271-0.249-0.477-0.533-0.611-0.852c-0.137-0.327-0.205-0.68-0.205-1.054
				c0-0.952,0.369-1.683,1.105-2.193c0.748-0.521,1.768-0.78,3.061-0.78h2.906v-0.357c0-0.703-0.227-1.264-0.68-1.683
				c-0.441-0.433-1.111-0.646-2.006-0.646c-0.691,0-1.275,0.138-1.752,0.408c-0.465,0.272-0.855,0.652-1.172,1.139l-1.208-0.765
				c0.464-0.601,1.03-1.077,1.7-1.428c0.668-0.363,1.483-0.544,2.447-0.544c0.657,0,1.235,0.085,1.733,0.255
				s0.918,0.414,1.259,0.729c0.34,0.308,0.596,0.676,0.766,1.105c0.182,0.431,0.271,0.907,0.271,1.428V193h-1.358v-1.615
				c-0.408,0.565-0.947,1.009-1.615,1.326C173.273,193.028,172.542,193.187,171.749,193.187z M172.005,191.963
				c0.341,0,0.681-0.045,1.021-0.138c0.352-0.091,0.68-0.221,0.986-0.391c0.315-0.17,0.604-0.385,0.866-0.646
				c0.271-0.261,0.498-0.561,0.681-0.899v-1.258h-2.84c-0.964,0-1.672,0.146-2.125,0.44s-0.681,0.731-0.681,1.311
				c0,0.453,0.164,0.833,0.494,1.139C170.747,191.816,171.277,191.963,172.005,191.963z M179.338,183.82h1.344v1.734
				c0.19-0.612,0.51-1.077,0.951-1.396c0.452-0.315,1.008-0.476,1.666-0.476c0.657,0,1.167,0.113,1.53,0.34l-0.578,1.326
				c-0.125-0.091-0.284-0.159-0.478-0.204c-0.182-0.057-0.396-0.085-0.646-0.085c-0.771,0-1.366,0.231-1.785,0.697
				c-0.42,0.453-0.629,1.188-0.629,2.21V193h-1.377L179.338,183.82L179.338,183.82z M188.915,193.187
				c-0.543,0-1.021-0.068-1.429-0.204c-0.407-0.146-0.748-0.346-1.02-0.595s-0.477-0.533-0.611-0.852
				c-0.137-0.327-0.205-0.68-0.205-1.054c0-0.952,0.369-1.683,1.105-2.193c0.748-0.521,1.768-0.78,3.061-0.78h2.906v-0.357
				c0-0.703-0.227-1.264-0.68-1.683c-0.441-0.433-1.111-0.646-2.006-0.646c-0.691,0-1.275,0.138-1.752,0.408
				c-0.465,0.272-0.855,0.652-1.172,1.139l-1.207-0.765c0.463-0.601,1.029-1.077,1.699-1.428c0.668-0.363,1.483-0.544,2.447-0.544
				c0.657,0,1.235,0.085,1.733,0.255s0.918,0.414,1.259,0.729c0.34,0.308,0.596,0.676,0.766,1.105
				c0.182,0.431,0.271,0.907,0.271,1.428V193h-1.358v-1.615c-0.408,0.565-0.947,1.009-1.615,1.326
				C190.439,193.028,189.708,193.187,188.915,193.187z M189.171,191.963c0.341,0,0.681-0.045,1.021-0.138
				c0.352-0.091,0.68-0.221,0.985-0.391c0.316-0.17,0.605-0.385,0.867-0.646c0.271-0.261,0.498-0.561,0.681-0.899v-1.258h-2.84
				c-0.964,0-1.672,0.146-2.125,0.44s-0.681,0.731-0.681,1.311c0,0.453,0.164,0.833,0.494,1.139
				C187.913,191.816,188.443,191.963,189.171,191.963z M205.141,193.187c-0.681,0-1.313-0.125-1.902-0.374s-1.1-0.589-1.531-1.02
				c-0.43-0.433-0.77-0.937-1.02-1.515c-0.238-0.578-0.357-1.201-0.357-1.87c0-0.68,0.125-1.309,0.375-1.887
				c0.25-0.589,0.59-1.094,1.02-1.513c0.433-0.433,0.937-0.767,1.515-1.003c0.59-0.249,1.219-0.374,1.887-0.374
				c0.498,0,0.97,0.066,1.41,0.204c0.455,0.136,0.866,0.328,1.241,0.576c0.373,0.238,0.703,0.533,0.986,0.886
				c0.295,0.34,0.525,0.714,0.695,1.122l-1.273,0.561c-0.272-0.635-0.674-1.133-1.207-1.496s-1.155-0.544-1.871-0.544
				c-0.476,0-0.922,0.091-1.342,0.272c-0.408,0.181-0.766,0.431-1.072,0.748c-0.305,0.306-0.543,0.674-0.713,1.104
				c-0.17,0.419-0.256,0.867-0.256,1.343c0,0.478,0.086,0.926,0.256,1.345c0.183,0.419,0.424,0.786,0.73,1.104
				s0.669,0.567,1.088,0.748c0.42,0.181,0.873,0.272,1.359,0.272c0.748,0,1.377-0.198,1.888-0.597
				c0.522-0.407,0.913-0.918,1.173-1.528l1.293,0.544c-0.363,0.85-0.919,1.547-1.666,2.091
				C207.107,192.921,206.206,193.187,205.141,193.187z M215.766,193.187c-0.681,0-1.31-0.119-1.888-0.357
				c-0.578-0.249-1.082-0.589-1.515-1.02c-0.418-0.431-0.754-0.935-1.002-1.513c-0.237-0.578-0.356-1.207-0.356-1.889
				c0-0.669,0.119-1.292,0.356-1.87c0.248-0.589,0.589-1.099,1.021-1.528c0.431-0.433,0.937-0.767,1.513-1.003
				c0.578-0.249,1.201-0.374,1.871-0.374c0.668,0,1.291,0.125,1.869,0.374c0.59,0.236,1.1,0.57,1.53,1.003
				c0.431,0.431,0.765,0.939,1.002,1.528c0.25,0.578,0.375,1.201,0.375,1.87s-0.125,1.292-0.375,1.87
				c-0.237,0.578-0.571,1.082-1.002,1.515c-0.433,0.431-0.937,0.771-1.515,1.02S216.443,193.187,215.766,193.187z M215.766,191.861
				c0.477,0,0.918-0.085,1.325-0.255c0.419-0.181,0.775-0.425,1.07-0.73c0.307-0.316,0.545-0.687,0.715-1.104
				s0.255-0.873,0.255-1.36c0-0.485-0.085-0.939-0.255-1.358c-0.17-0.433-0.408-0.799-0.715-1.105
				c-0.306-0.315-0.662-0.561-1.07-0.729c-0.407-0.183-0.85-0.272-1.325-0.272c-0.477,0-0.918,0.091-1.326,0.272
				c-0.408,0.17-0.766,0.414-1.07,0.729c-0.295,0.308-0.527,0.674-0.697,1.105c-0.17,0.419-0.256,0.873-0.256,1.358
				c0,0.499,0.086,0.958,0.256,1.377s0.402,0.782,0.697,1.09c0.306,0.306,0.662,0.55,1.07,0.729
				C214.848,191.776,215.288,191.861,215.766,191.861z M222.634,183.82h1.359v1.53c0.317-0.51,0.748-0.924,1.293-1.241
				c0.556-0.316,1.188-0.476,1.903-0.476c0.601,0,1.14,0.096,1.615,0.289c0.486,0.181,0.9,0.453,1.24,0.814
				c0.34,0.353,0.602,0.782,0.781,1.292c0.183,0.51,0.271,1.088,0.271,1.734V193h-1.41v-5.17c0-0.895-0.238-1.607-0.715-2.142
				c-0.476-0.534-1.16-0.799-2.058-0.799c-0.407,0-0.786,0.074-1.14,0.221c-0.351,0.147-0.655,0.357-0.918,0.629
				c-0.26,0.263-0.463,0.578-0.61,0.952c-0.147,0.363-0.222,0.765-0.222,1.207V193h-1.395v-9.181H222.634z M232.359,183.82h1.785
				v-2.021l1.377-0.886v2.907h2.687v1.241h-2.687v5.134c0,0.589,0.119,1.009,0.356,1.258c0.249,0.249,0.571,0.374,0.97,0.374
				c0.385,0,0.736-0.146,1.053-0.44l0.731,1.104c-0.261,0.204-0.544,0.363-0.851,0.478c-0.307,0.111-0.651,0.17-1.037,0.17
				c-0.85,0-1.496-0.229-1.938-0.682c-0.441-0.465-0.664-1.207-0.664-2.227v-5.168h-1.783V183.82L232.359,183.82z M240.198,183.82
				h1.411V193h-1.411V183.82z M239.809,180.996c0-0.315,0.102-0.576,0.307-0.78c0.215-0.215,0.476-0.323,0.781-0.323
				c0.328,0,0.596,0.108,0.799,0.323c0.203,0.204,0.307,0.465,0.307,0.78c0,0.317-0.104,0.584-0.307,0.801
				c-0.203,0.204-0.471,0.306-0.799,0.306c-0.316,0-0.578-0.102-0.781-0.306C239.909,181.58,239.809,181.315,239.809,180.996z
				 M244.083,183.82h1.36v1.53c0.316-0.51,0.748-0.924,1.291-1.241c0.556-0.316,1.19-0.476,1.904-0.476
				c0.6,0,1.139,0.096,1.615,0.289c0.486,0.181,0.9,0.453,1.24,0.814c0.341,0.353,0.601,0.782,0.783,1.292
				c0.18,0.51,0.271,1.088,0.271,1.734V193h-1.411v-5.17c0-0.895-0.236-1.607-0.714-2.142s-1.162-0.799-2.058-0.799
				c-0.407,0-0.788,0.074-1.139,0.221c-0.354,0.147-0.658,0.357-0.918,0.629c-0.262,0.263-0.466,0.578-0.613,0.952
				c-0.146,0.363-0.221,0.765-0.221,1.207V193h-1.395v-9.181H244.083z M258.518,193.187c-1.259,0-2.217-0.363-2.873-1.088
				c-0.656-0.737-0.986-1.757-0.986-3.062v-5.219h1.412v5.151c0,0.895,0.227,1.607,0.68,2.142s1.121,0.799,2.006,0.799
				c0.408,0,0.781-0.072,1.121-0.221c0.341-0.146,0.637-0.351,0.885-0.612c0.262-0.271,0.459-0.589,0.596-0.95
				c0.146-0.374,0.222-0.782,0.222-1.226v-5.083h1.394V193h-1.359v-1.515c-0.307,0.51-0.725,0.924-1.258,1.241
				C259.831,193.032,259.221,193.187,258.518,193.187z M268.188,193.187c-0.543,0-1.021-0.068-1.428-0.204
				c-0.408-0.146-0.748-0.346-1.021-0.595c-0.271-0.249-0.475-0.533-0.61-0.852c-0.137-0.327-0.204-0.68-0.204-1.054
				c0-0.952,0.368-1.683,1.104-2.193c0.748-0.521,1.77-0.78,3.062-0.78h2.906v-0.357c0-0.703-0.228-1.264-0.681-1.683
				c-0.44-0.433-1.11-0.646-2.006-0.646c-0.69,0-1.274,0.138-1.75,0.408c-0.466,0.272-0.856,0.652-1.174,1.139l-1.207-0.765
				c0.465-0.601,1.031-1.077,1.7-1.428c0.669-0.363,1.485-0.544,2.448-0.544c0.656,0,1.234,0.085,1.732,0.255
				c0.5,0.17,0.918,0.414,1.26,0.729c0.34,0.308,0.594,0.676,0.764,1.105c0.182,0.431,0.271,0.907,0.271,1.428V193h-1.359v-1.615
				c-0.407,0.565-0.945,1.009-1.614,1.326C269.712,193.028,268.98,193.187,268.188,193.187z M268.441,191.963
				c0.341,0,0.681-0.045,1.021-0.138c0.352-0.091,0.68-0.221,0.984-0.391c0.318-0.17,0.606-0.385,0.867-0.646
				c0.272-0.261,0.5-0.561,0.681-0.899v-1.258h-2.839c-0.963,0-1.672,0.146-2.125,0.44c-0.452,0.295-0.68,0.731-0.68,1.311
				c0,0.453,0.164,0.833,0.492,1.139C267.186,191.816,267.718,191.963,268.441,191.963z M275.775,183.82h1.343v1.734
				c0.192-0.612,0.511-1.077,0.952-1.396c0.453-0.315,1.009-0.476,1.666-0.476c0.656,0,1.166,0.113,1.529,0.34l-0.578,1.326
				c-0.125-0.091-0.283-0.159-0.476-0.204c-0.181-0.057-0.397-0.085-0.646-0.085c-0.771,0-1.367,0.231-1.785,0.697
				c-0.42,0.453-0.629,1.188-0.629,2.21V193h-1.377V183.82L275.775,183.82z M281.245,192.115c0-0.315,0.103-0.578,0.306-0.78
				c0.217-0.217,0.477-0.323,0.782-0.323c0.317,0,0.578,0.106,0.781,0.323c0.217,0.202,0.323,0.465,0.323,0.78
				c0,0.317-0.106,0.584-0.323,0.799c-0.203,0.217-0.464,0.323-0.781,0.323c-0.328,0-0.597-0.106-0.799-0.323
				C281.342,192.698,281.245,192.433,281.245,192.115z"/>
			
				<linearGradient id="SVGID_3_" gradientUnits="userSpaceOnUse" x1="672.8057" y1="-142.01" x2="739.3479" y2="27.0369" gradientTransform="matrix(1 0 0 1 -506.5996 216.3711)">
				<stop  offset="9.500000e-007" style="stop-color:#E1E9FF"/>
				<stop  offset="1" style="stop-color:#8173FF"/>
			</linearGradient>
			<path fill="url(#SVGID_3_)" d="M170,132c26.51,0,48-21.49,48-48c0-26.512-21.49-48-48-48s-48,21.488-48,48
				C122,110.51,143.49,132,170,132z"/>
			<path fill="#3d6d79" d="M194.827,59h-49.654c-3.414,0-6.176,2.812-6.176,6.25l-0.031,37.5c0,3.438,2.793,6.25,6.207,6.25h49.654
				c3.414,0,6.207-2.813,6.207-6.25v-37.5C201.034,61.812,198.241,59,194.827,59z M193.587,72.281l-21.94,13.813
				c-0.994,0.625-2.297,0.625-3.291,0l-21.941-13.813c-0.311-0.176-0.583-0.412-0.801-0.697c-0.217-0.284-0.375-0.611-0.463-0.96
				c-0.089-0.349-0.106-0.711-0.051-1.065c0.055-0.354,0.18-0.695,0.37-1c0.189-0.305,0.437-0.566,0.73-0.772
				c0.293-0.205,0.625-0.349,0.974-0.422c0.35-0.071,0.71-0.071,1.06-0.001c0.349,0.072,0.681,0.216,0.974,0.42L170,80.877
				l20.794-13.095c0.293-0.204,0.625-0.348,0.974-0.42c0.352-0.07,0.711-0.07,1.061,0.001c0.35,0.073,0.682,0.217,0.975,0.422
				c0.293,0.206,0.541,0.469,0.73,0.772s0.314,0.646,0.369,1c0.056,0.354,0.039,0.718-0.051,1.065
				c-0.088,0.349-0.246,0.676-0.463,0.96C194.17,71.867,193.896,72.105,193.587,72.281z"/>
		</g>
	</g>
</g>
</svg>
