<?xml version="1.0" encoding="utf-8"?>
<!-- Generator: Adobe Illustrator 24.0.2, SVG Export Plug-In . SVG Version: 6.00 Build 0)  -->
<svg version="1.1" id="Capa_1" xmlns="http://www.w3.org/2000/svg" xmlns:xlink="http://www.w3.org/1999/xlink" x="0px" y="0px"
	 viewBox="0 0 340 340" style="enable-background:new 0 0 340 340;" xml:space="preserve">
<style type="text/css">
	.st0{clip-path:url(#SVGID_2_);}
	.st1{fill:#FFFFFF;}
	.st2{fill:#D69D66;}
	.st3{fill:#566865;}
	.st4{fill:url(#SVGID_3_);}
	.st5{fill:#3D6D79;}
</style>
<g>
	<g>
		<g>
			<defs>
				<rect id="SVGID_1_" width="340" height="340"/>
			</defs>
			<clipPath id="SVGID_2_">
				<use xlink:href="#SVGID_1_"  style="overflow:visible;"/>
			</clipPath>
			<g class="st0">
				<path class="st1" d="M2.5,21c0-11,9-20,20-20h295c11,0,20,9,20,20v300c0,11-9,20-20,20h-295c-11,0-20-9-20-20V21z"/>
				<path class="st2" d="M38,241h264c5.5,0,10,4.5,10,10v30c0,5.5-4.5,10-10,10H38c-5.5,0-10-4.5-10-10v-30
					C28,245.5,32.5,241,38,241z"/>
				<path class="st1" d="M135.4,257.4h2.8l5.5,14.6h-2.9l-1-2.7h-6.1l-1,2.7h-2.9L135.4,257.4z M134.6,266.8h4.2l-2.1-5.8
					L134.6,266.8z M149.7,272.2c-0.8,0-1.6-0.1-2.3-0.4c-0.7-0.3-1.3-0.7-1.8-1.2c-0.5-0.5-0.9-1.1-1.2-1.8
					c-0.3-0.7-0.4-1.4-0.4-2.2c0-0.8,0.1-1.5,0.4-2.2c0.3-0.7,0.7-1.3,1.2-1.8c0.5-0.5,1.1-0.9,1.8-1.2c0.7-0.3,1.4-0.4,2.2-0.4
					c0.6,0,1.2,0.1,1.8,0.3c0.5,0.2,1,0.4,1.5,0.7c0.5,0.3,0.8,0.7,1.2,1.1c0.3,0.4,0.6,0.9,0.8,1.4l-2.5,1c-0.2-0.6-0.6-1-1-1.4
					c-0.5-0.3-1-0.5-1.6-0.5c-0.4,0-0.8,0.1-1.2,0.2s-0.7,0.4-0.9,0.7c-0.3,0.3-0.5,0.6-0.6,1c-0.1,0.4-0.2,0.8-0.2,1.2
					s0.1,0.8,0.2,1.2c0.2,0.4,0.4,0.7,0.6,1c0.3,0.3,0.6,0.5,1,0.6c0.4,0.2,0.7,0.2,1.2,0.2c0.6,0,1.2-0.2,1.6-0.5
					c0.5-0.3,0.8-0.8,1-1.4l2.6,1.1c-0.5,1-1.1,1.8-2,2.5C152.1,271.9,151,272.2,149.7,272.2z M161.8,272.2c-0.9,0-1.7-0.1-2.4-0.4
					c-0.7-0.3-1.3-0.7-1.8-1.2c-0.5-0.5-0.9-1.1-1.1-1.8c-0.3-0.7-0.4-1.4-0.4-2.2s0.1-1.5,0.4-2.2c0.3-0.7,0.7-1.3,1.2-1.8
					c0.5-0.5,1.1-0.9,1.8-1.2s1.4-0.4,2.2-0.4c0.8,0,1.6,0.1,2.2,0.4s1.3,0.7,1.8,1.2c0.5,0.5,0.9,1.1,1.2,1.7
					c0.3,0.7,0.4,1.4,0.4,2.2v1h-8.6c0.2,0.7,0.5,1.3,1.1,1.7c0.5,0.4,1.2,0.6,2,0.6c0.6,0,1.2-0.1,1.6-0.4c0.4-0.3,0.8-0.6,1.1-1.1
					l2.3,1.3c-0.5,0.8-1.2,1.4-2,1.8C164,272,163,272.2,161.8,272.2z M161.8,263.3c-0.7,0-1.3,0.2-1.8,0.6c-0.5,0.4-0.9,0.9-1.1,1.5
					h5.8c-0.2-0.7-0.5-1.2-1-1.5C163.1,263.5,162.5,263.3,161.8,263.3z M175.3,272.2c-0.7,0-1.4-0.1-2-0.4c-0.6-0.3-1.1-0.7-1.4-1.2
					v5.6h-2.7v-15.1h2.7v1.5c0.4-0.5,0.8-1,1.4-1.3c0.6-0.3,1.2-0.5,2-0.5c0.7,0,1.3,0.1,2,0.4c0.6,0.3,1.2,0.6,1.7,1.1
					c0.5,0.5,0.9,1.1,1.1,1.8c0.3,0.7,0.4,1.5,0.4,2.3c0,0.9-0.1,1.6-0.4,2.3c-0.3,0.7-0.7,1.3-1.2,1.8c-0.5,0.5-1,0.9-1.7,1.1
					C176.6,272.1,176,272.2,175.3,272.2z M174.8,269.6c0.4,0,0.8-0.1,1.2-0.2c0.4-0.2,0.7-0.4,0.9-0.6c0.3-0.3,0.5-0.6,0.6-1
					c0.2-0.4,0.2-0.8,0.2-1.2c0-0.4-0.1-0.8-0.2-1.2c-0.1-0.4-0.4-0.7-0.6-1c-0.3-0.3-0.6-0.5-0.9-0.7s-0.7-0.2-1.2-0.2
					c-0.4,0-0.8,0.1-1.2,0.2c-0.4,0.2-0.7,0.4-0.9,0.7c-0.3,0.3-0.5,0.6-0.6,1c-0.1,0.4-0.2,0.8-0.2,1.2c0,0.4,0.1,0.8,0.2,1.2
					c0.2,0.4,0.4,0.7,0.6,1c0.3,0.3,0.6,0.5,0.9,0.6C173.9,269.5,174.3,269.6,174.8,269.6z M181.2,261.2h2v-2.3l2.7-1.6v3.9h2.8v2.4
					h-2.8v4.4c0,0.6,0.1,1,0.3,1.2c0.2,0.2,0.5,0.3,0.9,0.3c0.4,0,0.7-0.1,1-0.4l1.3,2.2c-0.3,0.3-0.7,0.5-1.2,0.6
					c-0.4,0.1-0.9,0.2-1.4,0.2c-1.1,0-2-0.3-2.6-0.9c-0.6-0.6-0.9-1.7-0.9-3.1v-4.5h-2L181.2,261.2L181.2,261.2z M193.9,272.2
					c-1.2,0-2.1-0.3-2.8-0.9c-0.7-0.6-1-1.4-1-2.3c0-1.1,0.4-2,1.3-2.7c0.9-0.6,2.1-1,3.6-1h2.8v-0.1c0-0.6-0.2-1.1-0.6-1.4
					c-0.4-0.4-1-0.5-1.8-0.5c-0.6,0-1.1,0.1-1.5,0.4c-0.4,0.2-0.7,0.6-1,1l-2.5-1.3c0.5-0.7,1.2-1.3,2-1.8c0.8-0.5,1.8-0.7,3.1-0.7
					c1.6,0,2.8,0.4,3.7,1.2c0.9,0.8,1.3,1.8,1.3,3.2v6.6h-2.7v-1.7c-0.4,0.6-0.9,1-1.6,1.4C195.5,272,194.7,272.2,193.9,272.2z
					 M194.7,269.9c0.3,0,0.7,0,1-0.1c0.3-0.1,0.6-0.2,0.9-0.4c0.3-0.2,0.5-0.4,0.7-0.6c0.2-0.2,0.4-0.5,0.5-0.8v-0.6h-2.5
					c-0.8,0-1.4,0.1-1.8,0.4c-0.3,0.2-0.5,0.6-0.5,1C193,269.5,193.6,269.9,194.7,269.9z M202.6,261.2h2.7v1.7
					c0.3-0.6,0.7-1.1,1.2-1.4c0.5-0.3,1.1-0.5,1.8-0.5c0.4,0,0.7,0,1,0.1c0.3,0.1,0.6,0.2,0.8,0.3l-1,2.7c-0.1-0.1-0.3-0.2-0.6-0.3
					c-0.3-0.1-0.5-0.1-0.8-0.1c-0.7,0-1.3,0.2-1.7,0.6c-0.4,0.4-0.6,1-0.6,1.9v5.7h-2.7L202.6,261.2L202.6,261.2z"/>
				<path class="st3" d="M55.2,158.6h4.7c0.7,0,1.3,0.1,1.9,0.3c0.6,0.2,1,0.5,1.4,0.9c0.4,0.4,0.7,0.8,0.9,1.4
					c0.2,0.5,0.3,1.1,0.3,1.7c0,0.6-0.1,1.2-0.3,1.7c-0.2,0.5-0.5,1-0.9,1.4c-0.4,0.4-0.9,0.7-1.4,0.9c-0.6,0.2-1.2,0.3-1.9,0.3
					h-3.2v3.7h-1.4L55.2,158.6L55.2,158.6z M56.7,159.9v6.1h3.2c0.5,0,0.9-0.1,1.3-0.2s0.7-0.4,1-0.6c0.3-0.3,0.5-0.6,0.6-1
					c0.1-0.4,0.2-0.8,0.2-1.2c0-0.4-0.1-0.8-0.2-1.2s-0.4-0.7-0.6-1c-0.3-0.3-0.6-0.5-1-0.6c-0.4-0.2-0.8-0.2-1.3-0.2H56.7z
					 M70.7,171.2c-0.7,0-1.3-0.1-1.9-0.4c-0.6-0.2-1.1-0.6-1.5-1c-0.4-0.4-0.8-0.9-1-1.5c-0.2-0.6-0.4-1.2-0.4-1.9
					c0-0.7,0.1-1.3,0.4-1.9c0.2-0.6,0.6-1.1,1-1.5c0.4-0.4,0.9-0.8,1.5-1c0.6-0.2,1.2-0.4,1.9-0.4c0.7,0,1.3,0.1,1.9,0.4
					c0.6,0.2,1.1,0.6,1.5,1c0.4,0.4,0.8,0.9,1,1.5c0.2,0.6,0.4,1.2,0.4,1.9s-0.1,1.3-0.4,1.9c-0.2,0.6-0.6,1.1-1,1.5
					c-0.4,0.4-0.9,0.8-1.5,1S71.4,171.2,70.7,171.2z M70.7,169.9c0.5,0,0.9-0.1,1.3-0.3c0.4-0.2,0.8-0.4,1.1-0.7
					c0.3-0.3,0.5-0.7,0.7-1.1c0.2-0.4,0.3-0.9,0.3-1.4s-0.1-0.9-0.3-1.4c-0.2-0.4-0.4-0.8-0.7-1.1c-0.3-0.3-0.7-0.6-1.1-0.7
					c-0.4-0.2-0.9-0.3-1.3-0.3c-0.5,0-0.9,0.1-1.3,0.3c-0.4,0.2-0.8,0.4-1.1,0.7c-0.3,0.3-0.5,0.7-0.7,1.1c-0.2,0.4-0.3,0.9-0.3,1.4
					c0,0.5,0.1,1,0.3,1.4s0.4,0.8,0.7,1.1c0.3,0.3,0.7,0.6,1.1,0.7C69.8,169.8,70.2,169.9,70.7,169.9z M77.6,161.8h1.3v1.7
					c0.2-0.6,0.5-1.1,1-1.4c0.5-0.3,1-0.5,1.7-0.5s1.2,0.1,1.5,0.3l-0.6,1.3c-0.1-0.1-0.3-0.2-0.5-0.2c-0.2-0.1-0.4-0.1-0.6-0.1
					c-0.8,0-1.4,0.2-1.8,0.7c-0.4,0.5-0.6,1.2-0.6,2.2v5h-1.4V161.8z M88.1,161.8h1.7v-0.7c0-0.7,0.1-1.2,0.2-1.7
					c0.1-0.5,0.3-0.8,0.6-1.1c0.3-0.3,0.6-0.5,1.1-0.6c0.5-0.1,1-0.2,1.7-0.2h0.4v1.3h-0.3c-0.5,0-0.8,0-1.1,0.1
					c-0.3,0-0.5,0.1-0.7,0.3c-0.1,0.2-0.2,0.4-0.3,0.7c0,0.3-0.1,0.7-0.1,1.1v0.7h2.5v1.2h-2.5v7.9h-1.4v-7.9h-1.7L88.1,161.8
					L88.1,161.8z M98,171.2c-0.5,0-1-0.1-1.4-0.2c-0.4-0.1-0.7-0.3-1-0.6s-0.5-0.5-0.6-0.9c-0.1-0.3-0.2-0.7-0.2-1.1
					c0-1,0.4-1.7,1.1-2.2c0.7-0.5,1.8-0.8,3.1-0.8h2.9v-0.4c0-0.7-0.2-1.3-0.7-1.7c-0.4-0.4-1.1-0.6-2-0.6c-0.7,0-1.3,0.1-1.8,0.4
					c-0.5,0.3-0.9,0.7-1.2,1.1l-1.2-0.8c0.5-0.6,1-1.1,1.7-1.4c0.7-0.4,1.5-0.5,2.4-0.5c0.7,0,1.2,0.1,1.7,0.3
					c0.5,0.2,0.9,0.4,1.3,0.7c0.3,0.3,0.6,0.7,0.8,1.1c0.2,0.4,0.3,0.9,0.3,1.4v5.8h-1.4v-1.6c-0.4,0.6-0.9,1-1.6,1.3
					C99.5,171,98.8,171.2,98,171.2z M98.2,170c0.3,0,0.7,0,1-0.1c0.4-0.1,0.7-0.2,1-0.4c0.3-0.2,0.6-0.4,0.9-0.6
					c0.3-0.3,0.5-0.6,0.7-0.9v-1.3h-2.8c-1,0-1.7,0.1-2.1,0.4c-0.5,0.3-0.7,0.7-0.7,1.3c0,0.5,0.2,0.8,0.5,1.1
					C97,169.8,97.5,170,98.2,170z M104.3,161.8h1.5l3,7.5l3-7.5h1.5l-3.9,9.2H108L104.3,161.8z M118.8,171.2c-0.7,0-1.3-0.1-1.9-0.4
					c-0.6-0.2-1.1-0.6-1.5-1c-0.4-0.4-0.8-0.9-1-1.5c-0.2-0.6-0.4-1.2-0.4-1.9c0-0.7,0.1-1.3,0.4-1.9c0.2-0.6,0.6-1.1,1-1.5
					c0.4-0.4,0.9-0.8,1.5-1c0.6-0.2,1.2-0.4,1.9-0.4s1.3,0.1,1.9,0.4c0.6,0.2,1.1,0.6,1.5,1c0.4,0.4,0.8,0.9,1,1.5
					c0.2,0.6,0.4,1.2,0.4,1.9s-0.1,1.3-0.4,1.9c-0.2,0.6-0.6,1.1-1,1.5c-0.4,0.4-0.9,0.8-1.5,1C120.1,171.1,119.5,171.2,118.8,171.2
					z M118.8,169.9c0.5,0,0.9-0.1,1.3-0.3c0.4-0.2,0.8-0.4,1.1-0.7c0.3-0.3,0.5-0.7,0.7-1.1s0.3-0.9,0.3-1.4s-0.1-0.9-0.3-1.4
					c-0.2-0.4-0.4-0.8-0.7-1.1c-0.3-0.3-0.7-0.6-1.1-0.7c-0.4-0.2-0.9-0.3-1.3-0.3c-0.5,0-0.9,0.1-1.3,0.3c-0.4,0.2-0.8,0.4-1.1,0.7
					c-0.3,0.3-0.5,0.7-0.7,1.1c-0.2,0.4-0.3,0.9-0.3,1.4c0,0.5,0.1,1,0.3,1.4s0.4,0.8,0.7,1.1c0.3,0.3,0.7,0.6,1.1,0.7
					C117.9,169.8,118.3,169.9,118.8,169.9z M125.7,161.8h1.3v1.7c0.2-0.6,0.5-1.1,1-1.4c0.5-0.3,1-0.5,1.7-0.5
					c0.7,0,1.2,0.1,1.5,0.3l-0.6,1.3c-0.1-0.1-0.3-0.2-0.5-0.2c-0.2-0.1-0.4-0.1-0.6-0.1c-0.8,0-1.4,0.2-1.8,0.7
					c-0.4,0.5-0.6,1.2-0.6,2.2v5h-1.4L125.7,161.8L125.7,161.8z M132,171.1c-0.3,0-0.5-0.1-0.6-0.3c-0.2-0.2-0.2-0.4-0.2-0.7
					c0-0.3,0.1-0.6,0.3-0.8c0.2-0.2,0.5-0.3,0.8-0.3c0.4,0,0.8,0.1,1,0.4c0.2,0.3,0.4,0.6,0.4,1.1c0,0.6-0.2,1.1-0.5,1.6
					c-0.3,0.5-0.8,0.9-1.3,1.2l-0.5-0.6c0.5-0.3,0.8-0.6,1.1-0.9c0.2-0.3,0.4-0.7,0.4-1.1c0-0.1,0-0.1,0-0.2c0,0.2-0.1,0.4-0.2,0.5
					C132.4,171.1,132.2,171.1,132,171.1z M139,161.8h1.5l3,7.5l3-7.5h1.5L144,171h-1.4L139,161.8z M153.6,171.2
					c-0.7,0-1.4-0.1-2-0.4c-0.6-0.2-1.1-0.6-1.5-1c-0.4-0.4-0.7-0.9-1-1.5c-0.2-0.6-0.3-1.2-0.3-1.9c0-0.7,0.1-1.3,0.4-1.9
					c0.2-0.6,0.6-1.1,1-1.5c0.4-0.4,0.9-0.8,1.5-1c0.6-0.2,1.2-0.4,1.9-0.4c0.7,0,1.3,0.1,1.9,0.4c0.6,0.2,1.1,0.6,1.5,1
					c0.4,0.4,0.7,0.9,1,1.5c0.2,0.6,0.4,1.2,0.4,1.9v0.6h-8.1c0,0.4,0.2,0.8,0.4,1.2c0.2,0.4,0.4,0.7,0.7,1c0.3,0.3,0.7,0.5,1.1,0.6
					c0.4,0.1,0.9,0.2,1.3,0.2c0.7,0,1.4-0.2,1.9-0.5c0.5-0.3,0.9-0.7,1.2-1.3l1.2,0.7c-0.5,0.7-1.1,1.3-1.7,1.7
					C155.4,171,154.6,171.2,153.6,171.2z M153.5,162.9c-0.4,0-0.9,0.1-1.2,0.2c-0.4,0.1-0.7,0.3-1,0.6c-0.3,0.2-0.5,0.6-0.7,0.9
					c-0.2,0.3-0.3,0.7-0.4,1.1h6.6c-0.1-0.9-0.5-1.6-1-2.1S154.4,162.9,153.5,162.9z M160.3,161.8h1.3v1.7c0.2-0.6,0.5-1.1,1-1.4
					c0.5-0.3,1-0.5,1.7-0.5c0.7,0,1.2,0.1,1.5,0.3l-0.6,1.3c-0.1-0.1-0.3-0.2-0.5-0.2c-0.2-0.1-0.4-0.1-0.6-0.1
					c-0.8,0-1.4,0.2-1.8,0.7c-0.4,0.5-0.6,1.2-0.6,2.2v5h-1.4L160.3,161.8L160.3,161.8z M167.5,161.8h1.4v9.2h-1.4V161.8z
					 M167.1,159c0-0.3,0.1-0.6,0.3-0.8c0.2-0.2,0.5-0.3,0.8-0.3c0.3,0,0.6,0.1,0.8,0.3c0.2,0.2,0.3,0.5,0.3,0.8s-0.1,0.6-0.3,0.8
					c-0.2,0.2-0.5,0.3-0.8,0.3c-0.3,0-0.6-0.1-0.8-0.3C167.2,159.6,167.1,159.3,167.1,159z M170.7,161.8h1.7v-0.7
					c0-0.7,0.1-1.2,0.2-1.7c0.1-0.5,0.3-0.8,0.6-1.1c0.3-0.3,0.6-0.5,1.1-0.6c0.5-0.1,1-0.2,1.7-0.2h0.4v1.3h-0.3
					c-0.5,0-0.8,0-1.1,0.1c-0.3,0-0.5,0.1-0.7,0.3c-0.1,0.2-0.3,0.4-0.3,0.7c0,0.3-0.1,0.7-0.1,1.1v0.7h2.5v1.2h-2.5v7.9h-1.4v-7.9
					h-1.7L170.7,161.8L170.7,161.8z M178.1,161.8h1.4v9.2h-1.4V161.8z M177.7,159c0-0.3,0.1-0.6,0.3-0.8c0.2-0.2,0.5-0.3,0.8-0.3
					c0.3,0,0.6,0.1,0.8,0.3c0.2,0.2,0.3,0.5,0.3,0.8s-0.1,0.6-0.3,0.8c-0.2,0.2-0.5,0.3-0.8,0.3c-0.3,0-0.6-0.1-0.8-0.3
					C177.8,159.6,177.7,159.3,177.7,159z M186.4,171.2c-0.7,0-1.3-0.1-1.9-0.4s-1.1-0.6-1.5-1c-0.4-0.4-0.8-0.9-1-1.5
					c-0.2-0.6-0.4-1.2-0.4-1.9c0-0.7,0.1-1.3,0.4-1.9c0.3-0.6,0.6-1.1,1-1.5c0.4-0.4,0.9-0.8,1.5-1c0.6-0.2,1.2-0.4,1.9-0.4
					c0.5,0,1,0.1,1.4,0.2c0.5,0.1,0.9,0.3,1.2,0.6c0.4,0.2,0.7,0.5,1,0.9c0.3,0.3,0.5,0.7,0.7,1.1l-1.3,0.6
					c-0.3-0.6-0.7-1.1-1.2-1.5c-0.5-0.4-1.2-0.5-1.9-0.5c-0.5,0-0.9,0.1-1.3,0.3c-0.4,0.2-0.8,0.4-1.1,0.7c-0.3,0.3-0.5,0.7-0.7,1.1
					c-0.2,0.4-0.3,0.9-0.3,1.3s0.1,0.9,0.3,1.3c0.2,0.4,0.4,0.8,0.7,1.1c0.3,0.3,0.7,0.6,1.1,0.7c0.4,0.2,0.9,0.3,1.4,0.3
					c0.7,0,1.4-0.2,1.9-0.6c0.5-0.4,0.9-0.9,1.2-1.5l1.3,0.5c-0.4,0.9-0.9,1.5-1.7,2.1C188.4,170.9,187.5,171.2,186.4,171.2z
					 M195.6,171.2c-0.5,0-1-0.1-1.4-0.2c-0.4-0.1-0.7-0.3-1-0.6s-0.5-0.5-0.6-0.9c-0.1-0.3-0.2-0.7-0.2-1.1c0-1,0.4-1.7,1.1-2.2
					c0.7-0.5,1.8-0.8,3.1-0.8h2.9v-0.4c0-0.7-0.2-1.3-0.7-1.7c-0.4-0.4-1.1-0.6-2-0.6c-0.7,0-1.3,0.1-1.8,0.4
					c-0.5,0.3-0.9,0.7-1.2,1.1l-1.2-0.8c0.5-0.6,1-1.1,1.7-1.4c0.7-0.4,1.5-0.5,2.4-0.5c0.7,0,1.2,0.1,1.7,0.3
					c0.5,0.2,0.9,0.4,1.3,0.7c0.3,0.3,0.6,0.7,0.8,1.1c0.2,0.4,0.3,0.9,0.3,1.4v5.8h-1.4v-1.6c-0.4,0.6-0.9,1-1.6,1.3
					C197.1,171,196.4,171.2,195.6,171.2z M195.8,170c0.3,0,0.7,0,1-0.1c0.4-0.1,0.7-0.2,1-0.4c0.3-0.2,0.6-0.4,0.9-0.6
					c0.3-0.3,0.5-0.6,0.7-0.9v-1.3h-2.8c-1,0-1.7,0.1-2.1,0.4s-0.7,0.7-0.7,1.3c0,0.5,0.2,0.8,0.5,1.1
					C194.6,169.8,195.1,170,195.8,170z M206.5,161.8h1.8v-2l1.4-0.9v2.9h2.7v1.2h-2.7v5.1c0,0.6,0.1,1,0.4,1.3
					c0.2,0.2,0.6,0.4,1,0.4c0.4,0,0.7-0.1,1.1-0.4l0.7,1.1c-0.3,0.2-0.5,0.4-0.9,0.5c-0.3,0.1-0.6,0.2-1,0.2c-0.9,0-1.5-0.2-1.9-0.7
					c-0.4-0.5-0.7-1.2-0.7-2.2v-5.2h-1.8V161.8z M218.1,171.2c-1.3,0-2.2-0.4-2.9-1.1c-0.7-0.7-1-1.8-1-3.1v-5.2h1.4v5.2
					c0,0.9,0.2,1.6,0.7,2.1c0.5,0.5,1.1,0.8,2,0.8c0.4,0,0.8-0.1,1.1-0.2c0.3-0.1,0.6-0.4,0.9-0.6c0.3-0.3,0.5-0.6,0.6-1
					c0.1-0.4,0.2-0.8,0.2-1.2v-5.1h1.4v9.2h-1.4v-1.5c-0.3,0.5-0.7,0.9-1.3,1.2C219.4,171,218.8,171.2,218.1,171.2z M233.4,171.2
					c-0.7,0-1.3-0.1-1.9-0.4c-0.6-0.2-1.1-0.6-1.5-1c-0.4-0.4-0.8-0.9-1-1.5c-0.2-0.6-0.4-1.2-0.4-1.9c0-0.7,0.1-1.3,0.4-1.9
					c0.2-0.6,0.6-1.1,1-1.5c0.4-0.4,1-0.8,1.5-1c0.6-0.2,1.2-0.4,1.9-0.4c0.5,0,1,0.1,1.5,0.2c0.5,0.1,0.9,0.3,1.3,0.6
					c0.4,0.2,0.7,0.6,1,0.9c0.3,0.4,0.5,0.7,0.7,1.2l-2.2,0.9c-0.2-0.5-0.5-0.9-0.9-1.2c-0.4-0.3-0.9-0.4-1.4-0.4
					c-0.4,0-0.7,0.1-1,0.2c-0.3,0.1-0.6,0.3-0.8,0.6c-0.2,0.2-0.4,0.5-0.5,0.8c-0.1,0.3-0.2,0.7-0.2,1s0.1,0.7,0.2,1
					c0.1,0.3,0.3,0.6,0.5,0.8c0.2,0.2,0.5,0.4,0.8,0.5c0.3,0.1,0.6,0.2,1,0.2c0.5,0,1-0.1,1.4-0.4c0.4-0.3,0.7-0.7,0.9-1.2l2.2,0.9
					c-0.4,0.9-1,1.6-1.7,2.1C235.4,170.9,234.5,171.2,233.4,171.2z M243.7,171.2c-0.7,0-1.3-0.1-1.9-0.4c-0.6-0.2-1.1-0.6-1.5-1
					c-0.4-0.4-0.8-1-1-1.5c-0.2-0.6-0.4-1.2-0.4-1.9c0-0.7,0.1-1.3,0.4-1.9c0.3-0.6,0.6-1.1,1-1.5c0.4-0.4,1-0.8,1.5-1
					c0.6-0.2,1.2-0.4,1.9-0.4c0.7,0,1.3,0.1,1.9,0.4c0.6,0.2,1.1,0.6,1.5,1c0.4,0.4,0.8,0.9,1,1.5c0.3,0.6,0.4,1.2,0.4,1.9
					c0,0.7-0.1,1.3-0.4,1.9c-0.2,0.6-0.6,1.1-1,1.5c-0.4,0.4-0.9,0.8-1.5,1C245,171.1,244.4,171.2,243.7,171.2z M243.7,169
					c0.4,0,0.7-0.1,1-0.2c0.3-0.1,0.6-0.3,0.8-0.5c0.2-0.2,0.4-0.5,0.5-0.8c0.1-0.3,0.2-0.7,0.2-1c0-0.4-0.1-0.7-0.2-1
					c-0.1-0.3-0.3-0.6-0.5-0.8c-0.2-0.2-0.5-0.4-0.8-0.5c-0.3-0.1-0.6-0.2-1-0.2s-0.7,0.1-1,0.2c-0.3,0.1-0.6,0.3-0.8,0.5
					c-0.2,0.2-0.4,0.5-0.5,0.8c-0.1,0.3-0.2,0.7-0.2,1c0,0.4,0.1,0.7,0.2,1c0.1,0.3,0.3,0.6,0.5,0.8c0.2,0.2,0.5,0.4,0.8,0.5
					C243,168.9,243.4,169,243.7,169z M250.1,161.8h2.3v1.4c0.2-0.5,0.6-0.9,1-1.2c0.4-0.3,1-0.4,1.5-0.4c0.3,0,0.6,0,0.9,0.1
					c0.3,0.1,0.5,0.2,0.7,0.3l-0.9,2.3c-0.1-0.1-0.3-0.2-0.5-0.2c-0.2-0.1-0.5-0.1-0.7-0.1c-0.6,0-1.1,0.2-1.4,0.5
					c-0.4,0.3-0.5,0.9-0.5,1.6v4.8h-2.3L250.1,161.8L250.1,161.8z M257.7,161.8h2.3v1.4c0.2-0.5,0.6-0.9,1-1.2
					c0.4-0.3,1-0.4,1.5-0.4c0.3,0,0.6,0,0.9,0.1c0.3,0.1,0.5,0.2,0.7,0.3l-0.9,2.3c-0.1-0.1-0.3-0.2-0.5-0.2
					c-0.2-0.1-0.5-0.1-0.7-0.1c-0.6,0-1.1,0.2-1.4,0.5c-0.4,0.3-0.5,0.9-0.5,1.6v4.8h-2.3V161.8z M269.1,171.2c-0.7,0-1.4-0.1-2-0.4
					c-0.6-0.2-1.1-0.6-1.5-1c-0.4-0.4-0.7-0.9-1-1.5c-0.2-0.6-0.3-1.2-0.3-1.9s0.1-1.3,0.4-1.9c0.2-0.6,0.6-1.1,1-1.5
					c0.4-0.4,0.9-0.8,1.5-1s1.2-0.4,1.9-0.4c0.7,0,1.3,0.1,1.9,0.4s1.1,0.6,1.5,1c0.4,0.4,0.7,0.9,1,1.5c0.2,0.6,0.4,1.2,0.4,1.9
					v0.9h-7.3c0.2,0.6,0.5,1.1,0.9,1.4c0.5,0.3,1,0.5,1.7,0.5c0.5,0,1-0.1,1.4-0.3c0.4-0.2,0.7-0.5,0.9-0.9l1.9,1.1
					c-0.5,0.6-1,1.2-1.7,1.5C271,171,270.1,171.2,269.1,171.2z M269.1,163.6c-0.6,0-1.1,0.2-1.5,0.5c-0.4,0.3-0.7,0.7-0.9,1.3h4.9
					c-0.2-0.6-0.4-1-0.9-1.3C270.2,163.8,269.7,163.6,269.1,163.6z M279.9,171.2c-0.7,0-1.3-0.1-1.9-0.4s-1.1-0.6-1.5-1
					c-0.4-0.4-0.8-1-1-1.5c-0.2-0.6-0.4-1.2-0.4-1.9c0-0.7,0.1-1.3,0.4-1.9c0.3-0.6,0.6-1.1,1-1.5c0.4-0.4,1-0.8,1.5-1
					s1.2-0.4,1.9-0.4c0.7,0,1.3,0.1,1.9,0.4c0.6,0.2,1.1,0.6,1.5,1c0.4,0.4,0.8,0.9,1,1.5c0.3,0.6,0.4,1.2,0.4,1.9
					c0,0.7-0.1,1.3-0.4,1.9c-0.2,0.6-0.6,1.1-1,1.5c-0.4,0.4-0.9,0.8-1.5,1C281.2,171.1,280.6,171.2,279.9,171.2z M279.9,169
					c0.4,0,0.7-0.1,1-0.2c0.3-0.1,0.6-0.3,0.8-0.5c0.2-0.2,0.4-0.5,0.5-0.8c0.1-0.3,0.2-0.7,0.2-1c0-0.4-0.1-0.7-0.2-1
					c-0.1-0.3-0.3-0.6-0.5-0.8c-0.2-0.2-0.5-0.4-0.8-0.5c-0.3-0.1-0.6-0.2-1-0.2c-0.4,0-0.7,0.1-1,0.2c-0.3,0.1-0.6,0.3-0.8,0.5
					c-0.2,0.2-0.4,0.5-0.5,0.8c-0.1,0.3-0.2,0.7-0.2,1c0,0.4,0.1,0.7,0.2,1c0.1,0.3,0.3,0.6,0.5,0.8c0.2,0.2,0.5,0.4,0.8,0.5
					C279.2,168.9,279.6,169,279.9,169z M60.4,193.2c-0.7,0-1.4-0.1-2-0.4c-0.6-0.2-1.1-0.6-1.5-1c-0.4-0.4-0.7-0.9-1-1.5
					s-0.3-1.2-0.3-1.9s0.1-1.3,0.4-1.9c0.3-0.6,0.6-1.1,1-1.5s0.9-0.8,1.5-1c0.6-0.2,1.2-0.4,1.9-0.4c0.7,0,1.3,0.1,1.9,0.4
					c0.6,0.2,1.1,0.6,1.5,1c0.4,0.4,0.7,0.9,1,1.5c0.2,0.6,0.4,1.2,0.4,1.9v0.9h-7.3c0.2,0.6,0.5,1.1,0.9,1.4c0.5,0.3,1,0.5,1.7,0.5
					c0.5,0,1-0.1,1.4-0.3c0.4-0.2,0.7-0.5,0.9-0.9l1.9,1.1c-0.5,0.6-1,1.2-1.7,1.5C62.3,193,61.5,193.2,60.4,193.2z M60.4,185.6
					c-0.6,0-1.1,0.2-1.5,0.5c-0.4,0.3-0.7,0.7-0.9,1.3h4.9c-0.2-0.6-0.4-1-0.9-1.3C61.5,185.8,61,185.6,60.4,185.6z M66.7,179.6H69
					V193h-2.3V179.6z M75.4,193.2c-0.7,0-1.4-0.1-2-0.4c-0.6-0.2-1.1-0.6-1.5-1c-0.4-0.4-0.7-0.9-1-1.5s-0.3-1.2-0.3-1.9
					s0.1-1.3,0.4-1.9c0.3-0.6,0.6-1.1,1-1.5c0.4-0.4,0.9-0.8,1.5-1c0.6-0.2,1.2-0.4,1.9-0.4c0.7,0,1.3,0.1,1.9,0.4
					c0.6,0.2,1.1,0.6,1.5,1c0.4,0.4,0.7,0.9,1,1.5c0.2,0.6,0.4,1.2,0.4,1.9v0.9h-7.3c0.2,0.6,0.5,1.1,0.9,1.4c0.5,0.3,1,0.5,1.7,0.5
					c0.5,0,1-0.1,1.4-0.3c0.4-0.2,0.7-0.5,0.9-0.9l1.9,1.1c-0.5,0.6-1,1.2-1.7,1.5C77.3,193,76.4,193.2,75.4,193.2z M75.4,185.6
					c-0.6,0-1.1,0.2-1.5,0.5c-0.4,0.3-0.7,0.7-0.9,1.3h4.9c-0.2-0.6-0.4-1-0.9-1.3C76.5,185.8,76,185.6,75.4,185.6z M86.2,193.2
					c-0.7,0-1.3-0.1-1.9-0.4s-1.1-0.6-1.5-1c-0.4-0.4-0.8-0.9-1-1.5c-0.2-0.6-0.4-1.2-0.4-1.9c0-0.7,0.1-1.3,0.4-1.9
					c0.2-0.6,0.6-1.1,1-1.5c0.4-0.4,1-0.8,1.5-1c0.6-0.2,1.2-0.4,1.9-0.4c0.5,0,1,0.1,1.5,0.2c0.5,0.1,0.9,0.3,1.3,0.6
					c0.4,0.2,0.7,0.6,1,0.9c0.3,0.4,0.5,0.7,0.7,1.2l-2.2,0.9c-0.2-0.5-0.5-0.9-0.9-1.2c-0.4-0.3-0.9-0.4-1.4-0.4
					c-0.4,0-0.7,0.1-1,0.2c-0.3,0.1-0.6,0.3-0.8,0.6c-0.2,0.2-0.4,0.5-0.5,0.8c-0.1,0.3-0.2,0.7-0.2,1c0,0.4,0.1,0.7,0.2,1
					c0.1,0.3,0.3,0.6,0.5,0.8c0.2,0.2,0.5,0.4,0.8,0.5c0.3,0.1,0.6,0.2,1,0.2c0.5,0,1-0.1,1.4-0.4c0.4-0.3,0.7-0.7,0.9-1.2l2.2,0.9
					c-0.4,0.9-1,1.6-1.7,2.1C88.2,192.9,87.3,193.2,86.2,193.2z M91.5,183.8h1.7v-2l2.3-1.4v3.3h2.4v2.1h-2.4v3.8
					c0,0.5,0.1,0.8,0.3,1c0.2,0.2,0.4,0.3,0.7,0.3c0.3,0,0.6-0.1,0.9-0.3l1.1,1.8c-0.3,0.2-0.6,0.4-1,0.5c-0.4,0.1-0.8,0.2-1.2,0.2
					c-1,0-1.7-0.3-2.2-0.8c-0.5-0.5-0.8-1.4-0.8-2.6v-3.9h-1.7C91.5,185.9,91.5,183.8,91.5,183.8z M99.5,183.8h2.3v1.4
					c0.2-0.5,0.6-0.9,1-1.2c0.4-0.3,1-0.4,1.5-0.4c0.3,0,0.6,0,0.8,0.1c0.3,0.1,0.5,0.2,0.7,0.3l-0.9,2.3c-0.1-0.1-0.3-0.2-0.5-0.2
					c-0.2-0.1-0.5-0.1-0.7-0.1c-0.6,0-1.1,0.2-1.4,0.5c-0.4,0.3-0.5,0.9-0.5,1.6v4.8h-2.3V183.8z M110.9,193.2
					c-0.7,0-1.3-0.1-1.9-0.4c-0.6-0.2-1.1-0.6-1.5-1c-0.4-0.4-0.8-1-1-1.5c-0.2-0.6-0.4-1.2-0.4-1.9c0-0.7,0.1-1.3,0.4-1.9
					c0.3-0.6,0.6-1.1,1-1.5c0.4-0.4,1-0.8,1.5-1c0.6-0.2,1.2-0.4,1.9-0.4c0.7,0,1.3,0.1,1.9,0.4c0.6,0.2,1.1,0.6,1.5,1
					c0.4,0.4,0.8,0.9,1,1.5c0.3,0.6,0.4,1.2,0.4,1.9s-0.1,1.3-0.4,1.9c-0.2,0.6-0.6,1.1-1,1.5c-0.4,0.4-0.9,0.8-1.5,1
					C112.2,193.1,111.6,193.2,110.9,193.2z M110.9,191c0.4,0,0.7-0.1,1-0.2c0.3-0.1,0.6-0.3,0.8-0.5c0.2-0.2,0.4-0.5,0.5-0.8
					c0.1-0.3,0.2-0.7,0.2-1c0-0.4-0.1-0.7-0.2-1c-0.1-0.3-0.3-0.6-0.5-0.8c-0.2-0.2-0.5-0.4-0.8-0.5c-0.3-0.1-0.6-0.2-1-0.2
					c-0.4,0-0.7,0.1-1,0.2c-0.3,0.1-0.6,0.3-0.8,0.5c-0.2,0.2-0.4,0.5-0.5,0.8c-0.1,0.3-0.2,0.6-0.2,1c0,0.4,0.1,0.7,0.2,1
					c0.1,0.3,0.3,0.6,0.5,0.8c0.2,0.2,0.5,0.4,0.8,0.5C110.2,190.9,110.6,191,110.9,191z M111.7,179.8h2.4l-2.6,2.9h-1.8
					L111.7,179.8z M117.3,183.8h2.3v1.2c0.3-0.4,0.7-0.7,1.1-1c0.5-0.2,1-0.4,1.6-0.4c1.1,0,1.9,0.3,2.6,1c0.6,0.7,1,1.6,1,2.8v5.5
					h-2.4v-5.2c0-0.7-0.2-1.2-0.5-1.5c-0.3-0.4-0.8-0.6-1.4-0.6c-0.6,0-1,0.2-1.4,0.6c-0.4,0.4-0.6,0.9-0.6,1.6v5.1h-2.4
					L117.3,183.8L117.3,183.8z M127.7,183.8h2.4v9.2h-2.4V183.8z M127.4,181.2c0-0.4,0.1-0.8,0.4-1.1c0.3-0.3,0.6-0.4,1.1-0.4
					c0.5,0,0.8,0.1,1.1,0.4c0.3,0.3,0.4,0.6,0.4,1.1c0,0.4-0.1,0.8-0.4,1.1c-0.3,0.3-0.6,0.4-1.1,0.4c-0.4,0-0.8-0.1-1.1-0.4
					C127.5,182,127.4,181.7,127.4,181.2z M136.5,193.2c-0.7,0-1.3-0.1-1.9-0.4c-0.6-0.2-1.1-0.6-1.5-1c-0.4-0.4-0.8-0.9-1-1.5
					c-0.2-0.6-0.4-1.2-0.4-1.9c0-0.7,0.1-1.3,0.4-1.9c0.3-0.6,0.6-1.1,1-1.5c0.4-0.4,1-0.8,1.5-1c0.6-0.2,1.2-0.4,1.9-0.4
					c0.5,0,1,0.1,1.5,0.2c0.5,0.1,0.9,0.3,1.3,0.6c0.4,0.2,0.7,0.6,1,0.9c0.3,0.4,0.5,0.7,0.7,1.2l-2.2,0.9
					c-0.2-0.5-0.5-0.9-0.9-1.2c-0.4-0.3-0.9-0.4-1.4-0.4c-0.4,0-0.7,0.1-1,0.2c-0.3,0.1-0.6,0.3-0.8,0.6c-0.2,0.2-0.4,0.5-0.5,0.8
					c-0.1,0.3-0.2,0.7-0.2,1c0,0.4,0.1,0.7,0.2,1c0.1,0.3,0.3,0.6,0.5,0.8c0.2,0.2,0.5,0.4,0.8,0.5c0.3,0.1,0.6,0.2,1,0.2
					c0.5,0,1-0.1,1.4-0.4c0.4-0.3,0.7-0.7,0.9-1.2l2.2,0.9c-0.4,0.9-1,1.6-1.7,2.1C138.5,192.9,137.6,193.2,136.5,193.2z
					 M146.7,193.2c-0.7,0-1.3-0.1-1.9-0.4c-0.6-0.2-1.1-0.6-1.5-1c-0.4-0.4-0.8-1-1-1.5c-0.2-0.6-0.4-1.2-0.4-1.9
					c0-0.7,0.1-1.3,0.4-1.9c0.2-0.6,0.6-1.1,1-1.5c0.4-0.4,1-0.8,1.5-1c0.6-0.2,1.2-0.4,1.9-0.4c0.7,0,1.3,0.1,1.9,0.4
					c0.6,0.2,1.1,0.6,1.5,1c0.4,0.4,0.8,0.9,1,1.5c0.2,0.6,0.4,1.2,0.4,1.9s-0.1,1.3-0.4,1.9c-0.3,0.6-0.6,1.1-1,1.5
					c-0.4,0.4-0.9,0.8-1.5,1C148.1,193.1,147.4,193.2,146.7,193.2z M146.8,191c0.4,0,0.7-0.1,1-0.2c0.3-0.1,0.6-0.3,0.8-0.5
					c0.2-0.2,0.4-0.5,0.5-0.8c0.1-0.3,0.2-0.7,0.2-1c0-0.4-0.1-0.7-0.2-1c-0.1-0.3-0.3-0.6-0.5-0.8c-0.2-0.2-0.5-0.4-0.8-0.5
					c-0.3-0.1-0.6-0.2-1-0.2c-0.4,0-0.7,0.1-1,0.2s-0.6,0.3-0.8,0.5c-0.2,0.2-0.4,0.5-0.5,0.8c-0.1,0.3-0.2,0.6-0.2,1
					c0,0.4,0.1,0.7,0.2,1c0.1,0.3,0.3,0.6,0.5,0.8c0.2,0.2,0.5,0.4,0.8,0.5C146.1,190.9,146.4,191,146.8,191z M162.3,193.2
					c-0.7,0-1.3-0.1-2-0.4c-0.6-0.3-1.1-0.7-1.5-1.3v5.1h-1.4v-12.7h1.4v1.7c0.2-0.3,0.4-0.6,0.6-0.8c0.3-0.2,0.5-0.4,0.9-0.6
					c0.3-0.2,0.6-0.3,1-0.4c0.3-0.1,0.7-0.1,1-0.1c0.6,0,1.2,0.1,1.8,0.4c0.6,0.2,1.1,0.6,1.5,1c0.4,0.4,0.8,0.9,1,1.5
					c0.2,0.6,0.4,1.2,0.4,1.9s-0.1,1.4-0.4,1.9c-0.2,0.6-0.6,1.1-1,1.5c-0.4,0.4-0.9,0.7-1.5,1C163.5,193.1,162.9,193.2,162.3,193.2
					z M162.1,191.9c0.5,0,0.9-0.1,1.3-0.3c0.4-0.2,0.8-0.4,1.1-0.7c0.3-0.3,0.5-0.7,0.7-1.1c0.2-0.4,0.3-0.9,0.3-1.4
					c0-0.5-0.1-0.9-0.3-1.4c-0.2-0.4-0.4-0.8-0.7-1.1c-0.3-0.3-0.7-0.6-1.1-0.7c-0.4-0.2-0.9-0.3-1.3-0.3c-0.5,0-0.9,0.1-1.4,0.3
					c-0.4,0.2-0.8,0.4-1.1,0.7c-0.3,0.3-0.6,0.7-0.7,1.1c-0.2,0.4-0.3,0.9-0.3,1.3c0,0.5,0.1,0.9,0.3,1.4c0.2,0.4,0.4,0.8,0.7,1.1
					c0.3,0.3,0.7,0.6,1.1,0.7C161.2,191.8,161.6,191.9,162.1,191.9z M171.7,193.2c-0.5,0-1-0.1-1.4-0.2c-0.4-0.1-0.7-0.3-1-0.6
					c-0.3-0.2-0.5-0.5-0.6-0.9c-0.1-0.3-0.2-0.7-0.2-1.1c0-1,0.4-1.7,1.1-2.2c0.7-0.5,1.8-0.8,3.1-0.8h2.9v-0.4
					c0-0.7-0.2-1.3-0.7-1.7c-0.4-0.4-1.1-0.6-2-0.6c-0.7,0-1.3,0.1-1.8,0.4c-0.5,0.3-0.9,0.7-1.2,1.1l-1.2-0.8
					c0.5-0.6,1-1.1,1.7-1.4c0.7-0.4,1.5-0.5,2.4-0.5c0.7,0,1.2,0.1,1.7,0.3s0.9,0.4,1.3,0.7c0.3,0.3,0.6,0.7,0.8,1.1
					c0.2,0.4,0.3,0.9,0.3,1.4v5.8h-1.4v-1.6c-0.4,0.6-0.9,1-1.6,1.3C173.3,193,172.5,193.2,171.7,193.2z M172,192c0.3,0,0.7,0,1-0.1
					c0.4-0.1,0.7-0.2,1-0.4c0.3-0.2,0.6-0.4,0.9-0.6c0.3-0.3,0.5-0.6,0.7-0.9v-1.3h-2.8c-1,0-1.7,0.1-2.1,0.4s-0.7,0.7-0.7,1.3
					c0,0.5,0.2,0.8,0.5,1.1C170.7,191.8,171.3,192,172,192z M179.3,183.8h1.3v1.7c0.2-0.6,0.5-1.1,1-1.4c0.5-0.3,1-0.5,1.7-0.5
					c0.7,0,1.2,0.1,1.5,0.3l-0.6,1.3c-0.1-0.1-0.3-0.2-0.5-0.2c-0.2-0.1-0.4-0.1-0.6-0.1c-0.8,0-1.4,0.2-1.8,0.7
					c-0.4,0.5-0.6,1.2-0.6,2.2v5h-1.4L179.3,183.8L179.3,183.8z M188.9,193.2c-0.5,0-1-0.1-1.4-0.2c-0.4-0.1-0.7-0.3-1-0.6
					s-0.5-0.5-0.6-0.9c-0.1-0.3-0.2-0.7-0.2-1.1c0-1,0.4-1.7,1.1-2.2c0.7-0.5,1.8-0.8,3.1-0.8h2.9v-0.4c0-0.7-0.2-1.3-0.7-1.7
					c-0.4-0.4-1.1-0.6-2-0.6c-0.7,0-1.3,0.1-1.8,0.4c-0.5,0.3-0.9,0.7-1.2,1.1l-1.2-0.8c0.5-0.6,1-1.1,1.7-1.4
					c0.7-0.4,1.5-0.5,2.4-0.5c0.7,0,1.2,0.1,1.7,0.3s0.9,0.4,1.3,0.7c0.3,0.3,0.6,0.7,0.8,1.1c0.2,0.4,0.3,0.9,0.3,1.4v5.8h-1.4
					v-1.6c-0.4,0.6-0.9,1-1.6,1.3C190.4,193,189.7,193.2,188.9,193.2z M189.2,192c0.3,0,0.7,0,1-0.1c0.4-0.1,0.7-0.2,1-0.4
					c0.3-0.2,0.6-0.4,0.9-0.6c0.3-0.3,0.5-0.6,0.7-0.9v-1.3h-2.8c-1,0-1.7,0.1-2.1,0.4s-0.7,0.7-0.7,1.3c0,0.5,0.2,0.8,0.5,1.1
					C187.9,191.8,188.4,192,189.2,192z M205.1,193.2c-0.7,0-1.3-0.1-1.9-0.4s-1.1-0.6-1.5-1c-0.4-0.4-0.8-0.9-1-1.5
					c-0.2-0.6-0.4-1.2-0.4-1.9c0-0.7,0.1-1.3,0.4-1.9c0.3-0.6,0.6-1.1,1-1.5c0.4-0.4,0.9-0.8,1.5-1c0.6-0.2,1.2-0.4,1.9-0.4
					c0.5,0,1,0.1,1.4,0.2c0.5,0.1,0.9,0.3,1.2,0.6c0.4,0.2,0.7,0.5,1,0.9c0.3,0.3,0.5,0.7,0.7,1.1l-1.3,0.6
					c-0.3-0.6-0.7-1.1-1.2-1.5s-1.2-0.5-1.9-0.5c-0.5,0-0.9,0.1-1.3,0.3c-0.4,0.2-0.8,0.4-1.1,0.7c-0.3,0.3-0.5,0.7-0.7,1.1
					c-0.2,0.4-0.3,0.9-0.3,1.3c0,0.5,0.1,0.9,0.3,1.3c0.2,0.4,0.4,0.8,0.7,1.1s0.7,0.6,1.1,0.7c0.4,0.2,0.9,0.3,1.4,0.3
					c0.7,0,1.4-0.2,1.9-0.6c0.5-0.4,0.9-0.9,1.2-1.5l1.3,0.5c-0.4,0.9-0.9,1.5-1.7,2.1C207.1,192.9,206.2,193.2,205.1,193.2z
					 M215.8,193.2c-0.7,0-1.3-0.1-1.9-0.4c-0.6-0.2-1.1-0.6-1.5-1c-0.4-0.4-0.8-0.9-1-1.5c-0.2-0.6-0.4-1.2-0.4-1.9
					c0-0.7,0.1-1.3,0.4-1.9c0.2-0.6,0.6-1.1,1-1.5c0.4-0.4,0.9-0.8,1.5-1c0.6-0.2,1.2-0.4,1.9-0.4c0.7,0,1.3,0.1,1.9,0.4
					c0.6,0.2,1.1,0.6,1.5,1c0.4,0.4,0.8,0.9,1,1.5c0.3,0.6,0.4,1.2,0.4,1.9s-0.1,1.3-0.4,1.9c-0.2,0.6-0.6,1.1-1,1.5
					c-0.4,0.4-0.9,0.8-1.5,1S216.4,193.2,215.8,193.2z M215.8,191.9c0.5,0,0.9-0.1,1.3-0.3c0.4-0.2,0.8-0.4,1.1-0.7
					c0.3-0.3,0.5-0.7,0.7-1.1s0.3-0.9,0.3-1.4c0-0.5-0.1-0.9-0.3-1.4c-0.2-0.4-0.4-0.8-0.7-1.1c-0.3-0.3-0.7-0.6-1.1-0.7
					c-0.4-0.2-0.9-0.3-1.3-0.3c-0.5,0-0.9,0.1-1.3,0.3c-0.4,0.2-0.8,0.4-1.1,0.7c-0.3,0.3-0.5,0.7-0.7,1.1c-0.2,0.4-0.3,0.9-0.3,1.4
					c0,0.5,0.1,1,0.3,1.4s0.4,0.8,0.7,1.1c0.3,0.3,0.7,0.6,1.1,0.7C214.8,191.8,215.3,191.9,215.8,191.9z M222.6,183.8h1.4v1.5
					c0.3-0.5,0.7-0.9,1.3-1.2c0.6-0.3,1.2-0.5,1.9-0.5c0.6,0,1.1,0.1,1.6,0.3c0.5,0.2,0.9,0.5,1.2,0.8c0.3,0.4,0.6,0.8,0.8,1.3
					c0.2,0.5,0.3,1.1,0.3,1.7v5.2h-1.4v-5.2c0-0.9-0.2-1.6-0.7-2.1c-0.5-0.5-1.2-0.8-2.1-0.8c-0.4,0-0.8,0.1-1.1,0.2
					c-0.4,0.1-0.7,0.4-0.9,0.6c-0.3,0.3-0.5,0.6-0.6,1c-0.1,0.4-0.2,0.8-0.2,1.2v5.1h-1.4L222.6,183.8L222.6,183.8L222.6,183.8z
					 M232.4,183.8h1.8v-2l1.4-0.9v2.9h2.7v1.2h-2.7v5.1c0,0.6,0.1,1,0.4,1.3c0.2,0.2,0.6,0.4,1,0.4c0.4,0,0.7-0.1,1.1-0.4l0.7,1.1
					c-0.3,0.2-0.5,0.4-0.9,0.5c-0.3,0.1-0.7,0.2-1,0.2c-0.9,0-1.5-0.2-1.9-0.7c-0.4-0.5-0.7-1.2-0.7-2.2v-5.2h-1.8L232.4,183.8
					L232.4,183.8z M240.2,183.8h1.4v9.2h-1.4V183.8z M239.8,181c0-0.3,0.1-0.6,0.3-0.8c0.2-0.2,0.5-0.3,0.8-0.3
					c0.3,0,0.6,0.1,0.8,0.3c0.2,0.2,0.3,0.5,0.3,0.8c0,0.3-0.1,0.6-0.3,0.8c-0.2,0.2-0.5,0.3-0.8,0.3c-0.3,0-0.6-0.1-0.8-0.3
					C239.9,181.6,239.8,181.3,239.8,181z M244.1,183.8h1.4v1.5c0.3-0.5,0.7-0.9,1.3-1.2c0.6-0.3,1.2-0.5,1.9-0.5
					c0.6,0,1.1,0.1,1.6,0.3c0.5,0.2,0.9,0.5,1.2,0.8c0.3,0.4,0.6,0.8,0.8,1.3c0.2,0.5,0.3,1.1,0.3,1.7v5.2h-1.4v-5.2
					c0-0.9-0.2-1.6-0.7-2.1s-1.2-0.8-2.1-0.8c-0.4,0-0.8,0.1-1.1,0.2c-0.4,0.1-0.7,0.4-0.9,0.6c-0.3,0.3-0.5,0.6-0.6,1
					c-0.1,0.4-0.2,0.8-0.2,1.2v5.1h-1.4L244.1,183.8L244.1,183.8L244.1,183.8z M258.5,193.2c-1.3,0-2.2-0.4-2.9-1.1
					c-0.7-0.7-1-1.8-1-3.1v-5.2h1.4v5.2c0,0.9,0.2,1.6,0.7,2.1s1.1,0.8,2,0.8c0.4,0,0.8-0.1,1.1-0.2c0.3-0.1,0.6-0.4,0.9-0.6
					c0.3-0.3,0.5-0.6,0.6-0.9c0.1-0.4,0.2-0.8,0.2-1.2v-5.1h1.4v9.2h-1.4v-1.5c-0.3,0.5-0.7,0.9-1.3,1.2
					C259.8,193,259.2,193.2,258.5,193.2z M268.2,193.2c-0.5,0-1-0.1-1.4-0.2c-0.4-0.1-0.7-0.3-1-0.6c-0.3-0.2-0.5-0.5-0.6-0.9
					c-0.1-0.3-0.2-0.7-0.2-1.1c0-1,0.4-1.7,1.1-2.2c0.7-0.5,1.8-0.8,3.1-0.8h2.9v-0.4c0-0.7-0.2-1.3-0.7-1.7c-0.4-0.4-1.1-0.6-2-0.6
					c-0.7,0-1.3,0.1-1.8,0.4c-0.5,0.3-0.9,0.7-1.2,1.1l-1.2-0.8c0.5-0.6,1-1.1,1.7-1.4c0.7-0.4,1.5-0.5,2.4-0.5
					c0.7,0,1.2,0.1,1.7,0.3c0.5,0.2,0.9,0.4,1.3,0.7c0.3,0.3,0.6,0.7,0.8,1.1c0.2,0.4,0.3,0.9,0.3,1.4v5.8H272v-1.6
					c-0.4,0.6-0.9,1-1.6,1.3C269.7,193,269,193.2,268.2,193.2z M268.4,192c0.3,0,0.7,0,1-0.1c0.4-0.1,0.7-0.2,1-0.4
					c0.3-0.2,0.6-0.4,0.9-0.6c0.3-0.3,0.5-0.6,0.7-0.9v-1.3h-2.8c-1,0-1.7,0.1-2.1,0.4c-0.5,0.3-0.7,0.7-0.7,1.3
					c0,0.5,0.2,0.8,0.5,1.1C267.2,191.8,267.7,192,268.4,192z M275.8,183.8h1.3v1.7c0.2-0.6,0.5-1.1,1-1.4c0.5-0.3,1-0.5,1.7-0.5
					c0.7,0,1.2,0.1,1.5,0.3l-0.6,1.3c-0.1-0.1-0.3-0.2-0.5-0.2c-0.2-0.1-0.4-0.1-0.6-0.1c-0.8,0-1.4,0.2-1.8,0.7
					c-0.4,0.5-0.6,1.2-0.6,2.2v5h-1.4L275.8,183.8L275.8,183.8z M281.2,192.1c0-0.3,0.1-0.6,0.3-0.8c0.2-0.2,0.5-0.3,0.8-0.3
					c0.3,0,0.6,0.1,0.8,0.3c0.2,0.2,0.3,0.5,0.3,0.8c0,0.3-0.1,0.6-0.3,0.8c-0.2,0.2-0.5,0.3-0.8,0.3c-0.3,0-0.6-0.1-0.8-0.3
					C281.3,192.7,281.2,192.4,281.2,192.1z"/>
				
					<linearGradient id="SVGID_3_" gradientUnits="userSpaceOnUse" x1="672.8056" y1="484.0099" x2="739.3478" y2="314.9631" gradientTransform="matrix(1 0 0 -1 -506.5996 558.3711)">
					<stop  offset="9.500000e-07" style="stop-color:#E1E9FF"/>
					<stop  offset="1" style="stop-color:#8173FF"/>
				</linearGradient>
				<path class="st4" d="M170,132c26.5,0,48-21.5,48-48c0-26.5-21.5-48-48-48s-48,21.5-48,48C122,110.5,143.5,132,170,132z"/>
				<path class="st5" d="M194.8,59h-49.7c-3.4,0-6.2,2.8-6.2,6.3l0,37.5c0,3.4,2.8,6.3,6.2,6.3h49.7c3.4,0,6.2-2.8,6.2-6.3V65.3
					C201,61.8,198.2,59,194.8,59z M193.6,72.3l-21.9,13.8c-1,0.6-2.3,0.6-3.3,0l-21.9-13.8c-0.3-0.2-0.6-0.4-0.8-0.7
					c-0.2-0.3-0.4-0.6-0.5-1c-0.1-0.3-0.1-0.7-0.1-1.1c0.1-0.4,0.2-0.7,0.4-1c0.2-0.3,0.4-0.6,0.7-0.8c0.3-0.2,0.6-0.3,1-0.4
					c0.4-0.1,0.7-0.1,1.1,0c0.3,0.1,0.7,0.2,1,0.4L170,80.9l20.8-13.1c0.3-0.2,0.6-0.3,1-0.4c0.4-0.1,0.7-0.1,1.1,0
					c0.4,0.1,0.7,0.2,1,0.4c0.3,0.2,0.5,0.5,0.7,0.8s0.3,0.6,0.4,1c0.1,0.4,0,0.7-0.1,1.1c-0.1,0.3-0.2,0.7-0.5,1
					C194.2,71.9,193.9,72.1,193.6,72.3z"/>
			</g>
		</g>
	</g>
</g>
</svg>
